G04 #@! TF.GenerationSoftware,KiCad,Pcbnew,(5.1.9-0-10_14)*
G04 #@! TF.CreationDate,2021-05-11T12:02:21-04:00*
G04 #@! TF.ProjectId,Cryologger ITB - Adafruit,4372796f-6c6f-4676-9765-722049544220,rev?*
G04 #@! TF.SameCoordinates,Original*
G04 #@! TF.FileFunction,Legend,Top*
G04 #@! TF.FilePolarity,Positive*
%FSLAX46Y46*%
G04 Gerber Fmt 4.6, Leading zero omitted, Abs format (unit mm)*
G04 Created by KiCad (PCBNEW (5.1.9-0-10_14)) date 2021-05-11 12:02:21*
%MOMM*%
%LPD*%
G01*
G04 APERTURE LIST*
%ADD10C,0.300000*%
%ADD11C,0.010000*%
%ADD12C,0.120000*%
%ADD13C,0.150000*%
%ADD14C,4.999990*%
%ADD15C,1.778000*%
%ADD16C,3.810000*%
%ADD17C,2.540000*%
%ADD18O,0.800000X1.300000*%
%ADD19C,6.000000*%
%ADD20C,1.600000*%
%ADD21O,1.600000X1.600000*%
%ADD22R,1.778000X1.778000*%
%ADD23O,3.600000X2.080000*%
G04 APERTURE END LIST*
D10*
X226758571Y-95357142D02*
X227901428Y-95357142D01*
X227330000Y-95928571D02*
X227330000Y-94785714D01*
X227437142Y-100901428D02*
X227437142Y-99758571D01*
X123964285Y-51960714D02*
X123892857Y-52032142D01*
X123678571Y-52103571D01*
X123535714Y-52103571D01*
X123321428Y-52032142D01*
X123178571Y-51889285D01*
X123107142Y-51746428D01*
X123035714Y-51460714D01*
X123035714Y-51246428D01*
X123107142Y-50960714D01*
X123178571Y-50817857D01*
X123321428Y-50675000D01*
X123535714Y-50603571D01*
X123678571Y-50603571D01*
X123892857Y-50675000D01*
X123964285Y-50746428D01*
X124607142Y-52103571D02*
X124607142Y-51103571D01*
X124607142Y-51389285D02*
X124678571Y-51246428D01*
X124750000Y-51175000D01*
X124892857Y-51103571D01*
X125035714Y-51103571D01*
X125392857Y-51103571D02*
X125750000Y-52103571D01*
X126107142Y-51103571D02*
X125750000Y-52103571D01*
X125607142Y-52460714D01*
X125535714Y-52532142D01*
X125392857Y-52603571D01*
X126892857Y-52103571D02*
X126750000Y-52032142D01*
X126678571Y-51960714D01*
X126607142Y-51817857D01*
X126607142Y-51389285D01*
X126678571Y-51246428D01*
X126750000Y-51175000D01*
X126892857Y-51103571D01*
X127107142Y-51103571D01*
X127250000Y-51175000D01*
X127321428Y-51246428D01*
X127392857Y-51389285D01*
X127392857Y-51817857D01*
X127321428Y-51960714D01*
X127250000Y-52032142D01*
X127107142Y-52103571D01*
X126892857Y-52103571D01*
X128250000Y-52103571D02*
X128107142Y-52032142D01*
X128035714Y-51889285D01*
X128035714Y-50603571D01*
X129035714Y-52103571D02*
X128892857Y-52032142D01*
X128821428Y-51960714D01*
X128750000Y-51817857D01*
X128750000Y-51389285D01*
X128821428Y-51246428D01*
X128892857Y-51175000D01*
X129035714Y-51103571D01*
X129250000Y-51103571D01*
X129392857Y-51175000D01*
X129464285Y-51246428D01*
X129535714Y-51389285D01*
X129535714Y-51817857D01*
X129464285Y-51960714D01*
X129392857Y-52032142D01*
X129250000Y-52103571D01*
X129035714Y-52103571D01*
X130821428Y-51103571D02*
X130821428Y-52317857D01*
X130750000Y-52460714D01*
X130678571Y-52532142D01*
X130535714Y-52603571D01*
X130321428Y-52603571D01*
X130178571Y-52532142D01*
X130821428Y-52032142D02*
X130678571Y-52103571D01*
X130392857Y-52103571D01*
X130250000Y-52032142D01*
X130178571Y-51960714D01*
X130107142Y-51817857D01*
X130107142Y-51389285D01*
X130178571Y-51246428D01*
X130250000Y-51175000D01*
X130392857Y-51103571D01*
X130678571Y-51103571D01*
X130821428Y-51175000D01*
X132178571Y-51103571D02*
X132178571Y-52317857D01*
X132107142Y-52460714D01*
X132035714Y-52532142D01*
X131892857Y-52603571D01*
X131678571Y-52603571D01*
X131535714Y-52532142D01*
X132178571Y-52032142D02*
X132035714Y-52103571D01*
X131750000Y-52103571D01*
X131607142Y-52032142D01*
X131535714Y-51960714D01*
X131464285Y-51817857D01*
X131464285Y-51389285D01*
X131535714Y-51246428D01*
X131607142Y-51175000D01*
X131750000Y-51103571D01*
X132035714Y-51103571D01*
X132178571Y-51175000D01*
X133464285Y-52032142D02*
X133321428Y-52103571D01*
X133035714Y-52103571D01*
X132892857Y-52032142D01*
X132821428Y-51889285D01*
X132821428Y-51317857D01*
X132892857Y-51175000D01*
X133035714Y-51103571D01*
X133321428Y-51103571D01*
X133464285Y-51175000D01*
X133535714Y-51317857D01*
X133535714Y-51460714D01*
X132821428Y-51603571D01*
X134178571Y-52103571D02*
X134178571Y-51103571D01*
X134178571Y-51389285D02*
X134250000Y-51246428D01*
X134321428Y-51175000D01*
X134464285Y-51103571D01*
X134607142Y-51103571D01*
X123107142Y-54653571D02*
X123107142Y-53153571D01*
X124464285Y-54582142D02*
X124321428Y-54653571D01*
X124035714Y-54653571D01*
X123892857Y-54582142D01*
X123821428Y-54510714D01*
X123750000Y-54367857D01*
X123750000Y-53939285D01*
X123821428Y-53796428D01*
X123892857Y-53725000D01*
X124035714Y-53653571D01*
X124321428Y-53653571D01*
X124464285Y-53725000D01*
X125678571Y-54582142D02*
X125535714Y-54653571D01*
X125250000Y-54653571D01*
X125107142Y-54582142D01*
X125035714Y-54439285D01*
X125035714Y-53867857D01*
X125107142Y-53725000D01*
X125250000Y-53653571D01*
X125535714Y-53653571D01*
X125678571Y-53725000D01*
X125750000Y-53867857D01*
X125750000Y-54010714D01*
X125035714Y-54153571D01*
X126392857Y-54653571D02*
X126392857Y-53153571D01*
X126392857Y-53725000D02*
X126535714Y-53653571D01*
X126821428Y-53653571D01*
X126964285Y-53725000D01*
X127035714Y-53796428D01*
X127107142Y-53939285D01*
X127107142Y-54367857D01*
X127035714Y-54510714D01*
X126964285Y-54582142D01*
X126821428Y-54653571D01*
X126535714Y-54653571D01*
X126392857Y-54582142D01*
X128321428Y-54582142D02*
X128178571Y-54653571D01*
X127892857Y-54653571D01*
X127750000Y-54582142D01*
X127678571Y-54439285D01*
X127678571Y-53867857D01*
X127750000Y-53725000D01*
X127892857Y-53653571D01*
X128178571Y-53653571D01*
X128321428Y-53725000D01*
X128392857Y-53867857D01*
X128392857Y-54010714D01*
X127678571Y-54153571D01*
X129035714Y-54653571D02*
X129035714Y-53653571D01*
X129035714Y-53939285D02*
X129107142Y-53796428D01*
X129178571Y-53725000D01*
X129321428Y-53653571D01*
X129464285Y-53653571D01*
X130607142Y-53653571D02*
X130607142Y-54867857D01*
X130535714Y-55010714D01*
X130464285Y-55082142D01*
X130321428Y-55153571D01*
X130107142Y-55153571D01*
X129964285Y-55082142D01*
X130607142Y-54582142D02*
X130464285Y-54653571D01*
X130178571Y-54653571D01*
X130035714Y-54582142D01*
X129964285Y-54510714D01*
X129892857Y-54367857D01*
X129892857Y-53939285D01*
X129964285Y-53796428D01*
X130035714Y-53725000D01*
X130178571Y-53653571D01*
X130464285Y-53653571D01*
X130607142Y-53725000D01*
X132250000Y-53153571D02*
X133107142Y-53153571D01*
X132678571Y-54653571D02*
X132678571Y-53153571D01*
X133607142Y-54653571D02*
X133607142Y-53653571D01*
X133607142Y-53939285D02*
X133678571Y-53796428D01*
X133750000Y-53725000D01*
X133892857Y-53653571D01*
X134035714Y-53653571D01*
X135178571Y-54653571D02*
X135178571Y-53867857D01*
X135107142Y-53725000D01*
X134964285Y-53653571D01*
X134678571Y-53653571D01*
X134535714Y-53725000D01*
X135178571Y-54582142D02*
X135035714Y-54653571D01*
X134678571Y-54653571D01*
X134535714Y-54582142D01*
X134464285Y-54439285D01*
X134464285Y-54296428D01*
X134535714Y-54153571D01*
X134678571Y-54082142D01*
X135035714Y-54082142D01*
X135178571Y-54010714D01*
X136535714Y-54582142D02*
X136392857Y-54653571D01*
X136107142Y-54653571D01*
X135964285Y-54582142D01*
X135892857Y-54510714D01*
X135821428Y-54367857D01*
X135821428Y-53939285D01*
X135892857Y-53796428D01*
X135964285Y-53725000D01*
X136107142Y-53653571D01*
X136392857Y-53653571D01*
X136535714Y-53725000D01*
X137178571Y-54653571D02*
X137178571Y-53153571D01*
X137321428Y-54082142D02*
X137750000Y-54653571D01*
X137750000Y-53653571D02*
X137178571Y-54225000D01*
X138392857Y-54653571D02*
X138392857Y-53653571D01*
X138392857Y-53153571D02*
X138321428Y-53225000D01*
X138392857Y-53296428D01*
X138464285Y-53225000D01*
X138392857Y-53153571D01*
X138392857Y-53296428D01*
X139107142Y-53653571D02*
X139107142Y-54653571D01*
X139107142Y-53796428D02*
X139178571Y-53725000D01*
X139321428Y-53653571D01*
X139535714Y-53653571D01*
X139678571Y-53725000D01*
X139750000Y-53867857D01*
X139750000Y-54653571D01*
X141107142Y-53653571D02*
X141107142Y-54867857D01*
X141035714Y-55010714D01*
X140964285Y-55082142D01*
X140821428Y-55153571D01*
X140607142Y-55153571D01*
X140464285Y-55082142D01*
X141107142Y-54582142D02*
X140964285Y-54653571D01*
X140678571Y-54653571D01*
X140535714Y-54582142D01*
X140464285Y-54510714D01*
X140392857Y-54367857D01*
X140392857Y-53939285D01*
X140464285Y-53796428D01*
X140535714Y-53725000D01*
X140678571Y-53653571D01*
X140964285Y-53653571D01*
X141107142Y-53725000D01*
X143464285Y-53867857D02*
X143678571Y-53939285D01*
X143750000Y-54010714D01*
X143821428Y-54153571D01*
X143821428Y-54367857D01*
X143750000Y-54510714D01*
X143678571Y-54582142D01*
X143535714Y-54653571D01*
X142964285Y-54653571D01*
X142964285Y-53153571D01*
X143464285Y-53153571D01*
X143607142Y-53225000D01*
X143678571Y-53296428D01*
X143750000Y-53439285D01*
X143750000Y-53582142D01*
X143678571Y-53725000D01*
X143607142Y-53796428D01*
X143464285Y-53867857D01*
X142964285Y-53867857D01*
X145035714Y-54582142D02*
X144892857Y-54653571D01*
X144607142Y-54653571D01*
X144464285Y-54582142D01*
X144392857Y-54439285D01*
X144392857Y-53867857D01*
X144464285Y-53725000D01*
X144607142Y-53653571D01*
X144892857Y-53653571D01*
X145035714Y-53725000D01*
X145107142Y-53867857D01*
X145107142Y-54010714D01*
X144392857Y-54153571D01*
X146392857Y-54653571D02*
X146392857Y-53867857D01*
X146321428Y-53725000D01*
X146178571Y-53653571D01*
X145892857Y-53653571D01*
X145750000Y-53725000D01*
X146392857Y-54582142D02*
X146250000Y-54653571D01*
X145892857Y-54653571D01*
X145750000Y-54582142D01*
X145678571Y-54439285D01*
X145678571Y-54296428D01*
X145750000Y-54153571D01*
X145892857Y-54082142D01*
X146250000Y-54082142D01*
X146392857Y-54010714D01*
X147750000Y-54582142D02*
X147607142Y-54653571D01*
X147321428Y-54653571D01*
X147178571Y-54582142D01*
X147107142Y-54510714D01*
X147035714Y-54367857D01*
X147035714Y-53939285D01*
X147107142Y-53796428D01*
X147178571Y-53725000D01*
X147321428Y-53653571D01*
X147607142Y-53653571D01*
X147750000Y-53725000D01*
X148607142Y-54653571D02*
X148464285Y-54582142D01*
X148392857Y-54510714D01*
X148321428Y-54367857D01*
X148321428Y-53939285D01*
X148392857Y-53796428D01*
X148464285Y-53725000D01*
X148607142Y-53653571D01*
X148821428Y-53653571D01*
X148964285Y-53725000D01*
X149035714Y-53796428D01*
X149107142Y-53939285D01*
X149107142Y-54367857D01*
X149035714Y-54510714D01*
X148964285Y-54582142D01*
X148821428Y-54653571D01*
X148607142Y-54653571D01*
X149750000Y-53653571D02*
X149750000Y-54653571D01*
X149750000Y-53796428D02*
X149821428Y-53725000D01*
X149964285Y-53653571D01*
X150178571Y-53653571D01*
X150321428Y-53725000D01*
X150392857Y-53867857D01*
X150392857Y-54653571D01*
X152107142Y-53653571D02*
X152464285Y-54653571D01*
X152821428Y-53653571D01*
X153250000Y-53153571D02*
X154178571Y-53153571D01*
X153678571Y-53725000D01*
X153892857Y-53725000D01*
X154035714Y-53796428D01*
X154107142Y-53867857D01*
X154178571Y-54010714D01*
X154178571Y-54367857D01*
X154107142Y-54510714D01*
X154035714Y-54582142D01*
X153892857Y-54653571D01*
X153464285Y-54653571D01*
X153321428Y-54582142D01*
X153250000Y-54510714D01*
X154821428Y-54510714D02*
X154892857Y-54582142D01*
X154821428Y-54653571D01*
X154750000Y-54582142D01*
X154821428Y-54510714D01*
X154821428Y-54653571D01*
X155821428Y-53153571D02*
X155964285Y-53153571D01*
X156107142Y-53225000D01*
X156178571Y-53296428D01*
X156250000Y-53439285D01*
X156321428Y-53725000D01*
X156321428Y-54082142D01*
X156250000Y-54367857D01*
X156178571Y-54510714D01*
X156107142Y-54582142D01*
X155964285Y-54653571D01*
X155821428Y-54653571D01*
X155678571Y-54582142D01*
X155607142Y-54510714D01*
X155535714Y-54367857D01*
X155464285Y-54082142D01*
X155464285Y-53725000D01*
X155535714Y-53439285D01*
X155607142Y-53296428D01*
X155678571Y-53225000D01*
X155821428Y-53153571D01*
X123107142Y-57203571D02*
X123107142Y-55703571D01*
X123750000Y-57203571D02*
X123750000Y-56417857D01*
X123678571Y-56275000D01*
X123535714Y-56203571D01*
X123321428Y-56203571D01*
X123178571Y-56275000D01*
X123107142Y-56346428D01*
X124250000Y-56203571D02*
X124821428Y-56203571D01*
X124464285Y-55703571D02*
X124464285Y-56989285D01*
X124535714Y-57132142D01*
X124678571Y-57203571D01*
X124821428Y-57203571D01*
X125107142Y-56203571D02*
X125678571Y-56203571D01*
X125321428Y-55703571D02*
X125321428Y-56989285D01*
X125392857Y-57132142D01*
X125535714Y-57203571D01*
X125678571Y-57203571D01*
X126178571Y-56203571D02*
X126178571Y-57703571D01*
X126178571Y-56275000D02*
X126321428Y-56203571D01*
X126607142Y-56203571D01*
X126750000Y-56275000D01*
X126821428Y-56346428D01*
X126892857Y-56489285D01*
X126892857Y-56917857D01*
X126821428Y-57060714D01*
X126750000Y-57132142D01*
X126607142Y-57203571D01*
X126321428Y-57203571D01*
X126178571Y-57132142D01*
X127464285Y-57132142D02*
X127607142Y-57203571D01*
X127892857Y-57203571D01*
X128035714Y-57132142D01*
X128107142Y-56989285D01*
X128107142Y-56917857D01*
X128035714Y-56775000D01*
X127892857Y-56703571D01*
X127678571Y-56703571D01*
X127535714Y-56632142D01*
X127464285Y-56489285D01*
X127464285Y-56417857D01*
X127535714Y-56275000D01*
X127678571Y-56203571D01*
X127892857Y-56203571D01*
X128035714Y-56275000D01*
X128750000Y-57060714D02*
X128821428Y-57132142D01*
X128750000Y-57203571D01*
X128678571Y-57132142D01*
X128750000Y-57060714D01*
X128750000Y-57203571D01*
X128750000Y-56275000D02*
X128821428Y-56346428D01*
X128750000Y-56417857D01*
X128678571Y-56346428D01*
X128750000Y-56275000D01*
X128750000Y-56417857D01*
X130535714Y-55632142D02*
X129250000Y-57560714D01*
X132107142Y-55632142D02*
X130821428Y-57560714D01*
X133250000Y-57132142D02*
X133107142Y-57203571D01*
X132821428Y-57203571D01*
X132678571Y-57132142D01*
X132607142Y-57060714D01*
X132535714Y-56917857D01*
X132535714Y-56489285D01*
X132607142Y-56346428D01*
X132678571Y-56275000D01*
X132821428Y-56203571D01*
X133107142Y-56203571D01*
X133250000Y-56275000D01*
X133892857Y-57203571D02*
X133892857Y-56203571D01*
X133892857Y-56489285D02*
X133964285Y-56346428D01*
X134035714Y-56275000D01*
X134178571Y-56203571D01*
X134321428Y-56203571D01*
X134678571Y-56203571D02*
X135035714Y-57203571D01*
X135392857Y-56203571D02*
X135035714Y-57203571D01*
X134892857Y-57560714D01*
X134821428Y-57632142D01*
X134678571Y-57703571D01*
X136178571Y-57203571D02*
X136035714Y-57132142D01*
X135964285Y-57060714D01*
X135892857Y-56917857D01*
X135892857Y-56489285D01*
X135964285Y-56346428D01*
X136035714Y-56275000D01*
X136178571Y-56203571D01*
X136392857Y-56203571D01*
X136535714Y-56275000D01*
X136607142Y-56346428D01*
X136678571Y-56489285D01*
X136678571Y-56917857D01*
X136607142Y-57060714D01*
X136535714Y-57132142D01*
X136392857Y-57203571D01*
X136178571Y-57203571D01*
X137535714Y-57203571D02*
X137392857Y-57132142D01*
X137321428Y-56989285D01*
X137321428Y-55703571D01*
X138321428Y-57203571D02*
X138178571Y-57132142D01*
X138107142Y-57060714D01*
X138035714Y-56917857D01*
X138035714Y-56489285D01*
X138107142Y-56346428D01*
X138178571Y-56275000D01*
X138321428Y-56203571D01*
X138535714Y-56203571D01*
X138678571Y-56275000D01*
X138750000Y-56346428D01*
X138821428Y-56489285D01*
X138821428Y-56917857D01*
X138750000Y-57060714D01*
X138678571Y-57132142D01*
X138535714Y-57203571D01*
X138321428Y-57203571D01*
X140107142Y-56203571D02*
X140107142Y-57417857D01*
X140035714Y-57560714D01*
X139964285Y-57632142D01*
X139821428Y-57703571D01*
X139607142Y-57703571D01*
X139464285Y-57632142D01*
X140107142Y-57132142D02*
X139964285Y-57203571D01*
X139678571Y-57203571D01*
X139535714Y-57132142D01*
X139464285Y-57060714D01*
X139392857Y-56917857D01*
X139392857Y-56489285D01*
X139464285Y-56346428D01*
X139535714Y-56275000D01*
X139678571Y-56203571D01*
X139964285Y-56203571D01*
X140107142Y-56275000D01*
X141464285Y-56203571D02*
X141464285Y-57417857D01*
X141392857Y-57560714D01*
X141321428Y-57632142D01*
X141178571Y-57703571D01*
X140964285Y-57703571D01*
X140821428Y-57632142D01*
X141464285Y-57132142D02*
X141321428Y-57203571D01*
X141035714Y-57203571D01*
X140892857Y-57132142D01*
X140821428Y-57060714D01*
X140750000Y-56917857D01*
X140750000Y-56489285D01*
X140821428Y-56346428D01*
X140892857Y-56275000D01*
X141035714Y-56203571D01*
X141321428Y-56203571D01*
X141464285Y-56275000D01*
X142750000Y-57132142D02*
X142607142Y-57203571D01*
X142321428Y-57203571D01*
X142178571Y-57132142D01*
X142107142Y-56989285D01*
X142107142Y-56417857D01*
X142178571Y-56275000D01*
X142321428Y-56203571D01*
X142607142Y-56203571D01*
X142750000Y-56275000D01*
X142821428Y-56417857D01*
X142821428Y-56560714D01*
X142107142Y-56703571D01*
X143464285Y-57203571D02*
X143464285Y-56203571D01*
X143464285Y-56489285D02*
X143535714Y-56346428D01*
X143607142Y-56275000D01*
X143750000Y-56203571D01*
X143892857Y-56203571D01*
X144392857Y-57060714D02*
X144464285Y-57132142D01*
X144392857Y-57203571D01*
X144321428Y-57132142D01*
X144392857Y-57060714D01*
X144392857Y-57203571D01*
X145321428Y-57203571D02*
X145178571Y-57132142D01*
X145107142Y-57060714D01*
X145035714Y-56917857D01*
X145035714Y-56489285D01*
X145107142Y-56346428D01*
X145178571Y-56275000D01*
X145321428Y-56203571D01*
X145535714Y-56203571D01*
X145678571Y-56275000D01*
X145750000Y-56346428D01*
X145821428Y-56489285D01*
X145821428Y-56917857D01*
X145750000Y-57060714D01*
X145678571Y-57132142D01*
X145535714Y-57203571D01*
X145321428Y-57203571D01*
X146464285Y-57203571D02*
X146464285Y-56203571D01*
X146464285Y-56489285D02*
X146535714Y-56346428D01*
X146607142Y-56275000D01*
X146750000Y-56203571D01*
X146892857Y-56203571D01*
X148035714Y-56203571D02*
X148035714Y-57417857D01*
X147964285Y-57560714D01*
X147892857Y-57632142D01*
X147750000Y-57703571D01*
X147535714Y-57703571D01*
X147392857Y-57632142D01*
X148035714Y-57132142D02*
X147892857Y-57203571D01*
X147607142Y-57203571D01*
X147464285Y-57132142D01*
X147392857Y-57060714D01*
X147321428Y-56917857D01*
X147321428Y-56489285D01*
X147392857Y-56346428D01*
X147464285Y-56275000D01*
X147607142Y-56203571D01*
X147892857Y-56203571D01*
X148035714Y-56275000D01*
X149821428Y-55632142D02*
X148535714Y-57560714D01*
X231822857Y-71568571D02*
X232751428Y-71568571D01*
X232251428Y-72140000D01*
X232465714Y-72140000D01*
X232608571Y-72211428D01*
X232680000Y-72282857D01*
X232751428Y-72425714D01*
X232751428Y-72782857D01*
X232680000Y-72925714D01*
X232608571Y-72997142D01*
X232465714Y-73068571D01*
X232037142Y-73068571D01*
X231894285Y-72997142D01*
X231822857Y-72925714D01*
X233180000Y-71568571D02*
X233680000Y-73068571D01*
X234180000Y-71568571D01*
X234537142Y-71568571D02*
X235465714Y-71568571D01*
X234965714Y-72140000D01*
X235180000Y-72140000D01*
X235322857Y-72211428D01*
X235394285Y-72282857D01*
X235465714Y-72425714D01*
X235465714Y-72782857D01*
X235394285Y-72925714D01*
X235322857Y-72997142D01*
X235180000Y-73068571D01*
X234751428Y-73068571D01*
X234608571Y-72997142D01*
X234537142Y-72925714D01*
X233394285Y-80458571D02*
X232680000Y-80458571D01*
X232608571Y-81172857D01*
X232680000Y-81101428D01*
X232822857Y-81030000D01*
X233180000Y-81030000D01*
X233322857Y-81101428D01*
X233394285Y-81172857D01*
X233465714Y-81315714D01*
X233465714Y-81672857D01*
X233394285Y-81815714D01*
X233322857Y-81887142D01*
X233180000Y-81958571D01*
X232822857Y-81958571D01*
X232680000Y-81887142D01*
X232608571Y-81815714D01*
X233894285Y-80458571D02*
X234394285Y-81958571D01*
X234894285Y-80458571D01*
X167048571Y-96892857D02*
X165548571Y-96892857D01*
X167048571Y-96178571D02*
X165548571Y-96178571D01*
X166620000Y-95678571D01*
X165548571Y-95178571D01*
X167048571Y-95178571D01*
X165548571Y-94464285D02*
X166762857Y-94464285D01*
X166905714Y-94392857D01*
X166977142Y-94321428D01*
X167048571Y-94178571D01*
X167048571Y-93892857D01*
X166977142Y-93750000D01*
X166905714Y-93678571D01*
X166762857Y-93607142D01*
X165548571Y-93607142D01*
X166977142Y-70810000D02*
X167048571Y-70595714D01*
X167048571Y-70238571D01*
X166977142Y-70095714D01*
X166905714Y-70024285D01*
X166762857Y-69952857D01*
X166620000Y-69952857D01*
X166477142Y-70024285D01*
X166405714Y-70095714D01*
X166334285Y-70238571D01*
X166262857Y-70524285D01*
X166191428Y-70667142D01*
X166120000Y-70738571D01*
X165977142Y-70810000D01*
X165834285Y-70810000D01*
X165691428Y-70738571D01*
X165620000Y-70667142D01*
X165548571Y-70524285D01*
X165548571Y-70167142D01*
X165620000Y-69952857D01*
X166977142Y-68738571D02*
X167048571Y-68881428D01*
X167048571Y-69167142D01*
X166977142Y-69310000D01*
X166834285Y-69381428D01*
X166262857Y-69381428D01*
X166120000Y-69310000D01*
X166048571Y-69167142D01*
X166048571Y-68881428D01*
X166120000Y-68738571D01*
X166262857Y-68667142D01*
X166405714Y-68667142D01*
X166548571Y-69381428D01*
X166048571Y-68024285D02*
X167048571Y-68024285D01*
X166191428Y-68024285D02*
X166120000Y-67952857D01*
X166048571Y-67810000D01*
X166048571Y-67595714D01*
X166120000Y-67452857D01*
X166262857Y-67381428D01*
X167048571Y-67381428D01*
X166977142Y-66738571D02*
X167048571Y-66595714D01*
X167048571Y-66310000D01*
X166977142Y-66167142D01*
X166834285Y-66095714D01*
X166762857Y-66095714D01*
X166620000Y-66167142D01*
X166548571Y-66310000D01*
X166548571Y-66524285D01*
X166477142Y-66667142D01*
X166334285Y-66738571D01*
X166262857Y-66738571D01*
X166120000Y-66667142D01*
X166048571Y-66524285D01*
X166048571Y-66310000D01*
X166120000Y-66167142D01*
X167048571Y-65238571D02*
X166977142Y-65381428D01*
X166905714Y-65452857D01*
X166762857Y-65524285D01*
X166334285Y-65524285D01*
X166191428Y-65452857D01*
X166120000Y-65381428D01*
X166048571Y-65238571D01*
X166048571Y-65024285D01*
X166120000Y-64881428D01*
X166191428Y-64810000D01*
X166334285Y-64738571D01*
X166762857Y-64738571D01*
X166905714Y-64810000D01*
X166977142Y-64881428D01*
X167048571Y-65024285D01*
X167048571Y-65238571D01*
X167048571Y-64095714D02*
X166048571Y-64095714D01*
X166334285Y-64095714D02*
X166191428Y-64024285D01*
X166120000Y-63952857D01*
X166048571Y-63810000D01*
X166048571Y-63667142D01*
X188480000Y-83621428D02*
X188408571Y-83764285D01*
X188408571Y-83978571D01*
X188480000Y-84192857D01*
X188622857Y-84335714D01*
X188765714Y-84407142D01*
X189051428Y-84478571D01*
X189265714Y-84478571D01*
X189551428Y-84407142D01*
X189694285Y-84335714D01*
X189837142Y-84192857D01*
X189908571Y-83978571D01*
X189908571Y-83835714D01*
X189837142Y-83621428D01*
X189765714Y-83550000D01*
X189265714Y-83550000D01*
X189265714Y-83835714D01*
X189908571Y-82907142D02*
X188408571Y-82907142D01*
X188408571Y-82335714D01*
X188480000Y-82192857D01*
X188551428Y-82121428D01*
X188694285Y-82050000D01*
X188908571Y-82050000D01*
X189051428Y-82121428D01*
X189122857Y-82192857D01*
X189194285Y-82335714D01*
X189194285Y-82907142D01*
X189837142Y-81478571D02*
X189908571Y-81264285D01*
X189908571Y-80907142D01*
X189837142Y-80764285D01*
X189765714Y-80692857D01*
X189622857Y-80621428D01*
X189480000Y-80621428D01*
X189337142Y-80692857D01*
X189265714Y-80764285D01*
X189194285Y-80907142D01*
X189122857Y-81192857D01*
X189051428Y-81335714D01*
X188980000Y-81407142D01*
X188837142Y-81478571D01*
X188694285Y-81478571D01*
X188551428Y-81407142D01*
X188480000Y-81335714D01*
X188408571Y-81192857D01*
X188408571Y-80835714D01*
X188480000Y-80621428D01*
X215308571Y-90657142D02*
X213808571Y-90657142D01*
X214880000Y-90157142D01*
X213808571Y-89657142D01*
X215308571Y-89657142D01*
X215308571Y-88942857D02*
X214308571Y-88942857D01*
X213808571Y-88942857D02*
X213880000Y-89014285D01*
X213951428Y-88942857D01*
X213880000Y-88871428D01*
X213808571Y-88942857D01*
X213951428Y-88942857D01*
X215237142Y-87585714D02*
X215308571Y-87728571D01*
X215308571Y-88014285D01*
X215237142Y-88157142D01*
X215165714Y-88228571D01*
X215022857Y-88300000D01*
X214594285Y-88300000D01*
X214451428Y-88228571D01*
X214380000Y-88157142D01*
X214308571Y-88014285D01*
X214308571Y-87728571D01*
X214380000Y-87585714D01*
X215308571Y-86942857D02*
X214308571Y-86942857D01*
X214594285Y-86942857D02*
X214451428Y-86871428D01*
X214380000Y-86800000D01*
X214308571Y-86657142D01*
X214308571Y-86514285D01*
X215308571Y-85800000D02*
X215237142Y-85942857D01*
X215165714Y-86014285D01*
X215022857Y-86085714D01*
X214594285Y-86085714D01*
X214451428Y-86014285D01*
X214380000Y-85942857D01*
X214308571Y-85800000D01*
X214308571Y-85585714D01*
X214380000Y-85442857D01*
X214451428Y-85371428D01*
X214594285Y-85300000D01*
X215022857Y-85300000D01*
X215165714Y-85371428D01*
X215237142Y-85442857D01*
X215308571Y-85585714D01*
X215308571Y-85800000D01*
X215237142Y-84014285D02*
X215308571Y-84157142D01*
X215308571Y-84442857D01*
X215237142Y-84585714D01*
X215165714Y-84657142D01*
X215022857Y-84728571D01*
X214594285Y-84728571D01*
X214451428Y-84657142D01*
X214380000Y-84585714D01*
X214308571Y-84442857D01*
X214308571Y-84157142D01*
X214380000Y-84014285D01*
X215308571Y-83157142D02*
X215237142Y-83300000D01*
X215165714Y-83371428D01*
X215022857Y-83442857D01*
X214594285Y-83442857D01*
X214451428Y-83371428D01*
X214380000Y-83300000D01*
X214308571Y-83157142D01*
X214308571Y-82942857D01*
X214380000Y-82800000D01*
X214451428Y-82728571D01*
X214594285Y-82657142D01*
X215022857Y-82657142D01*
X215165714Y-82728571D01*
X215237142Y-82800000D01*
X215308571Y-82942857D01*
X215308571Y-83157142D01*
X214308571Y-82014285D02*
X215308571Y-82014285D01*
X214451428Y-82014285D02*
X214380000Y-81942857D01*
X214308571Y-81800000D01*
X214308571Y-81585714D01*
X214380000Y-81442857D01*
X214522857Y-81371428D01*
X215308571Y-81371428D01*
X214308571Y-80871428D02*
X214308571Y-80300000D01*
X213808571Y-80657142D02*
X215094285Y-80657142D01*
X215237142Y-80585714D01*
X215308571Y-80442857D01*
X215308571Y-80300000D01*
X215308571Y-79800000D02*
X214308571Y-79800000D01*
X214594285Y-79800000D02*
X214451428Y-79728571D01*
X214380000Y-79657142D01*
X214308571Y-79514285D01*
X214308571Y-79371428D01*
X215308571Y-78657142D02*
X215237142Y-78800000D01*
X215165714Y-78871428D01*
X215022857Y-78942857D01*
X214594285Y-78942857D01*
X214451428Y-78871428D01*
X214380000Y-78800000D01*
X214308571Y-78657142D01*
X214308571Y-78442857D01*
X214380000Y-78300000D01*
X214451428Y-78228571D01*
X214594285Y-78157142D01*
X215022857Y-78157142D01*
X215165714Y-78228571D01*
X215237142Y-78300000D01*
X215308571Y-78442857D01*
X215308571Y-78657142D01*
X215308571Y-77300000D02*
X215237142Y-77442857D01*
X215094285Y-77514285D01*
X213808571Y-77514285D01*
X215308571Y-76514285D02*
X215237142Y-76657142D01*
X215094285Y-76728571D01*
X213808571Y-76728571D01*
X215237142Y-75371428D02*
X215308571Y-75514285D01*
X215308571Y-75800000D01*
X215237142Y-75942857D01*
X215094285Y-76014285D01*
X214522857Y-76014285D01*
X214380000Y-75942857D01*
X214308571Y-75800000D01*
X214308571Y-75514285D01*
X214380000Y-75371428D01*
X214522857Y-75300000D01*
X214665714Y-75300000D01*
X214808571Y-76014285D01*
X215308571Y-74657142D02*
X214308571Y-74657142D01*
X214594285Y-74657142D02*
X214451428Y-74585714D01*
X214380000Y-74514285D01*
X214308571Y-74371428D01*
X214308571Y-74228571D01*
X122274285Y-79418571D02*
X121774285Y-78704285D01*
X121417142Y-79418571D02*
X121417142Y-77918571D01*
X121988571Y-77918571D01*
X122131428Y-77990000D01*
X122202857Y-78061428D01*
X122274285Y-78204285D01*
X122274285Y-78418571D01*
X122202857Y-78561428D01*
X122131428Y-78632857D01*
X121988571Y-78704285D01*
X121417142Y-78704285D01*
X123131428Y-79418571D02*
X122988571Y-79347142D01*
X122917142Y-79275714D01*
X122845714Y-79132857D01*
X122845714Y-78704285D01*
X122917142Y-78561428D01*
X122988571Y-78490000D01*
X123131428Y-78418571D01*
X123345714Y-78418571D01*
X123488571Y-78490000D01*
X123560000Y-78561428D01*
X123631428Y-78704285D01*
X123631428Y-79132857D01*
X123560000Y-79275714D01*
X123488571Y-79347142D01*
X123345714Y-79418571D01*
X123131428Y-79418571D01*
X124917142Y-79347142D02*
X124774285Y-79418571D01*
X124488571Y-79418571D01*
X124345714Y-79347142D01*
X124274285Y-79275714D01*
X124202857Y-79132857D01*
X124202857Y-78704285D01*
X124274285Y-78561428D01*
X124345714Y-78490000D01*
X124488571Y-78418571D01*
X124774285Y-78418571D01*
X124917142Y-78490000D01*
X125560000Y-79418571D02*
X125560000Y-77918571D01*
X125702857Y-78847142D02*
X126131428Y-79418571D01*
X126131428Y-78418571D02*
X125560000Y-78990000D01*
X127274285Y-78632857D02*
X127488571Y-78704285D01*
X127560000Y-78775714D01*
X127631428Y-78918571D01*
X127631428Y-79132857D01*
X127560000Y-79275714D01*
X127488571Y-79347142D01*
X127345714Y-79418571D01*
X126774285Y-79418571D01*
X126774285Y-77918571D01*
X127274285Y-77918571D01*
X127417142Y-77990000D01*
X127488571Y-78061428D01*
X127560000Y-78204285D01*
X127560000Y-78347142D01*
X127488571Y-78490000D01*
X127417142Y-78561428D01*
X127274285Y-78632857D01*
X126774285Y-78632857D01*
X128988571Y-79418571D02*
X128274285Y-79418571D01*
X128274285Y-77918571D01*
X129774285Y-77918571D02*
X130060000Y-77918571D01*
X130202857Y-77990000D01*
X130345714Y-78132857D01*
X130417142Y-78418571D01*
X130417142Y-78918571D01*
X130345714Y-79204285D01*
X130202857Y-79347142D01*
X130060000Y-79418571D01*
X129774285Y-79418571D01*
X129631428Y-79347142D01*
X129488571Y-79204285D01*
X129417142Y-78918571D01*
X129417142Y-78418571D01*
X129488571Y-78132857D01*
X129631428Y-77990000D01*
X129774285Y-77918571D01*
X131917142Y-79275714D02*
X131845714Y-79347142D01*
X131631428Y-79418571D01*
X131488571Y-79418571D01*
X131274285Y-79347142D01*
X131131428Y-79204285D01*
X131060000Y-79061428D01*
X130988571Y-78775714D01*
X130988571Y-78561428D01*
X131060000Y-78275714D01*
X131131428Y-78132857D01*
X131274285Y-77990000D01*
X131488571Y-77918571D01*
X131631428Y-77918571D01*
X131845714Y-77990000D01*
X131917142Y-78061428D01*
X132560000Y-79418571D02*
X132560000Y-77918571D01*
X133417142Y-79418571D02*
X132774285Y-78561428D01*
X133417142Y-77918571D02*
X132560000Y-78775714D01*
X135274285Y-79418571D02*
X135560000Y-79418571D01*
X135702857Y-79347142D01*
X135774285Y-79275714D01*
X135917142Y-79061428D01*
X135988571Y-78775714D01*
X135988571Y-78204285D01*
X135917142Y-78061428D01*
X135845714Y-77990000D01*
X135702857Y-77918571D01*
X135417142Y-77918571D01*
X135274285Y-77990000D01*
X135202857Y-78061428D01*
X135131428Y-78204285D01*
X135131428Y-78561428D01*
X135202857Y-78704285D01*
X135274285Y-78775714D01*
X135417142Y-78847142D01*
X135702857Y-78847142D01*
X135845714Y-78775714D01*
X135917142Y-78704285D01*
X135988571Y-78561428D01*
X137274285Y-77918571D02*
X136988571Y-77918571D01*
X136845714Y-77990000D01*
X136774285Y-78061428D01*
X136631428Y-78275714D01*
X136560000Y-78561428D01*
X136560000Y-79132857D01*
X136631428Y-79275714D01*
X136702857Y-79347142D01*
X136845714Y-79418571D01*
X137131428Y-79418571D01*
X137274285Y-79347142D01*
X137345714Y-79275714D01*
X137417142Y-79132857D01*
X137417142Y-78775714D01*
X137345714Y-78632857D01*
X137274285Y-78561428D01*
X137131428Y-78490000D01*
X136845714Y-78490000D01*
X136702857Y-78561428D01*
X136631428Y-78632857D01*
X136560000Y-78775714D01*
X138345714Y-77918571D02*
X138488571Y-77918571D01*
X138631428Y-77990000D01*
X138702857Y-78061428D01*
X138774285Y-78204285D01*
X138845714Y-78490000D01*
X138845714Y-78847142D01*
X138774285Y-79132857D01*
X138702857Y-79275714D01*
X138631428Y-79347142D01*
X138488571Y-79418571D01*
X138345714Y-79418571D01*
X138202857Y-79347142D01*
X138131428Y-79275714D01*
X138060000Y-79132857D01*
X137988571Y-78847142D01*
X137988571Y-78490000D01*
X138060000Y-78204285D01*
X138131428Y-78061428D01*
X138202857Y-77990000D01*
X138345714Y-77918571D01*
X139345714Y-77918571D02*
X140274285Y-77918571D01*
X139774285Y-78490000D01*
X139988571Y-78490000D01*
X140131428Y-78561428D01*
X140202857Y-78632857D01*
X140274285Y-78775714D01*
X140274285Y-79132857D01*
X140202857Y-79275714D01*
X140131428Y-79347142D01*
X139988571Y-79418571D01*
X139560000Y-79418571D01*
X139417142Y-79347142D01*
X139345714Y-79275714D01*
D11*
G36*
X118665814Y-51443931D02*
G01*
X118749635Y-51888555D01*
X119058920Y-52016053D01*
X119368206Y-52143551D01*
X119739246Y-51891246D01*
X119843157Y-51820996D01*
X119937087Y-51758272D01*
X120016652Y-51705938D01*
X120077470Y-51666857D01*
X120115157Y-51643893D01*
X120125421Y-51638942D01*
X120143910Y-51651676D01*
X120183420Y-51686882D01*
X120239522Y-51740062D01*
X120307787Y-51806718D01*
X120383786Y-51882354D01*
X120463092Y-51962472D01*
X120541275Y-52042574D01*
X120613907Y-52118164D01*
X120676559Y-52184745D01*
X120724803Y-52237818D01*
X120754210Y-52272887D01*
X120761241Y-52284623D01*
X120751123Y-52306260D01*
X120722759Y-52353662D01*
X120679129Y-52422193D01*
X120623218Y-52507215D01*
X120558006Y-52604093D01*
X120520219Y-52659350D01*
X120451343Y-52760248D01*
X120390140Y-52851299D01*
X120339578Y-52927970D01*
X120302628Y-52985728D01*
X120282258Y-53020043D01*
X120279197Y-53027254D01*
X120286136Y-53047748D01*
X120305051Y-53095513D01*
X120333087Y-53163832D01*
X120367391Y-53245989D01*
X120405109Y-53335270D01*
X120443387Y-53424958D01*
X120479370Y-53508338D01*
X120510206Y-53578694D01*
X120533039Y-53629310D01*
X120545017Y-53653471D01*
X120545724Y-53654422D01*
X120564531Y-53659036D01*
X120614618Y-53669328D01*
X120690793Y-53684287D01*
X120787865Y-53702901D01*
X120900643Y-53724159D01*
X120966442Y-53736418D01*
X121086950Y-53759362D01*
X121195797Y-53781195D01*
X121287476Y-53800722D01*
X121356481Y-53816748D01*
X121397304Y-53828079D01*
X121405511Y-53831674D01*
X121413548Y-53856006D01*
X121420033Y-53910959D01*
X121424970Y-53990108D01*
X121428364Y-54087026D01*
X121430218Y-54195287D01*
X121430538Y-54308465D01*
X121429327Y-54420135D01*
X121426590Y-54523868D01*
X121422331Y-54613241D01*
X121416555Y-54681826D01*
X121409267Y-54723197D01*
X121404895Y-54731810D01*
X121378764Y-54742133D01*
X121323393Y-54756892D01*
X121246107Y-54774352D01*
X121154230Y-54792780D01*
X121122158Y-54798741D01*
X120967524Y-54827066D01*
X120845375Y-54849876D01*
X120751673Y-54868080D01*
X120682384Y-54882583D01*
X120633471Y-54894292D01*
X120600897Y-54904115D01*
X120580628Y-54912956D01*
X120568626Y-54921724D01*
X120566947Y-54923457D01*
X120550184Y-54951371D01*
X120524614Y-55005695D01*
X120492788Y-55079777D01*
X120457260Y-55166965D01*
X120420583Y-55260608D01*
X120385311Y-55354052D01*
X120353996Y-55440647D01*
X120329193Y-55513740D01*
X120313454Y-55566678D01*
X120309332Y-55592811D01*
X120309676Y-55593726D01*
X120323641Y-55615086D01*
X120355322Y-55662084D01*
X120401391Y-55729827D01*
X120458518Y-55813423D01*
X120523373Y-55907982D01*
X120541843Y-55934854D01*
X120607699Y-56032275D01*
X120665650Y-56121163D01*
X120712538Y-56196412D01*
X120745207Y-56252920D01*
X120760500Y-56285581D01*
X120761241Y-56289593D01*
X120748392Y-56310684D01*
X120712888Y-56352464D01*
X120659293Y-56410445D01*
X120592171Y-56480135D01*
X120516087Y-56557045D01*
X120435604Y-56636683D01*
X120355287Y-56714561D01*
X120279699Y-56786186D01*
X120213405Y-56847070D01*
X120160969Y-56892721D01*
X120126955Y-56918650D01*
X120117545Y-56922883D01*
X120095643Y-56912912D01*
X120050800Y-56886020D01*
X119990321Y-56846736D01*
X119943789Y-56815117D01*
X119859475Y-56757098D01*
X119759626Y-56688784D01*
X119659473Y-56620579D01*
X119605627Y-56584075D01*
X119423371Y-56460800D01*
X119270381Y-56543520D01*
X119200682Y-56579759D01*
X119141414Y-56607926D01*
X119101311Y-56623991D01*
X119091103Y-56626226D01*
X119078829Y-56609722D01*
X119054613Y-56563082D01*
X119020263Y-56490609D01*
X118977588Y-56396606D01*
X118928394Y-56285374D01*
X118874490Y-56161215D01*
X118817684Y-56028432D01*
X118759782Y-55891327D01*
X118702593Y-55754202D01*
X118647924Y-55621358D01*
X118597584Y-55497098D01*
X118553380Y-55385725D01*
X118517119Y-55291539D01*
X118490609Y-55218844D01*
X118475658Y-55171941D01*
X118473254Y-55155833D01*
X118492311Y-55135286D01*
X118534036Y-55101933D01*
X118589706Y-55062702D01*
X118594378Y-55059599D01*
X118738264Y-54944423D01*
X118854283Y-54810053D01*
X118941430Y-54660784D01*
X118998699Y-54500913D01*
X119025086Y-54334737D01*
X119019585Y-54166552D01*
X118981190Y-54000655D01*
X118908895Y-53841342D01*
X118887626Y-53806487D01*
X118776996Y-53665737D01*
X118646302Y-53552714D01*
X118500064Y-53468003D01*
X118342808Y-53412194D01*
X118179057Y-53385874D01*
X118013333Y-53389630D01*
X117850162Y-53424050D01*
X117694065Y-53489723D01*
X117549567Y-53587235D01*
X117504869Y-53626813D01*
X117391112Y-53750703D01*
X117308218Y-53881124D01*
X117251356Y-54027315D01*
X117219687Y-54172088D01*
X117211869Y-54334860D01*
X117237938Y-54498440D01*
X117295245Y-54657298D01*
X117381144Y-54805906D01*
X117492986Y-54938735D01*
X117628123Y-55050256D01*
X117645883Y-55062011D01*
X117702150Y-55100508D01*
X117744923Y-55133863D01*
X117765372Y-55155160D01*
X117765669Y-55155833D01*
X117761279Y-55178871D01*
X117743876Y-55231157D01*
X117715268Y-55308390D01*
X117677265Y-55406268D01*
X117631674Y-55520491D01*
X117580303Y-55646758D01*
X117524962Y-55780767D01*
X117467458Y-55918218D01*
X117409601Y-56054808D01*
X117353198Y-56186237D01*
X117300058Y-56308205D01*
X117251990Y-56416409D01*
X117210801Y-56506549D01*
X117178301Y-56574323D01*
X117156297Y-56615430D01*
X117147436Y-56626226D01*
X117120360Y-56617819D01*
X117069697Y-56595272D01*
X117004183Y-56562613D01*
X116968159Y-56543520D01*
X116815168Y-56460800D01*
X116632912Y-56584075D01*
X116539875Y-56647228D01*
X116438015Y-56716727D01*
X116342562Y-56782165D01*
X116294750Y-56815117D01*
X116227505Y-56860273D01*
X116170564Y-56896057D01*
X116131354Y-56917938D01*
X116118619Y-56922563D01*
X116100083Y-56910085D01*
X116059059Y-56875252D01*
X115999525Y-56821678D01*
X115925458Y-56752983D01*
X115840835Y-56672781D01*
X115787315Y-56621286D01*
X115693681Y-56529286D01*
X115612759Y-56446999D01*
X115547823Y-56377945D01*
X115502142Y-56325644D01*
X115478989Y-56293616D01*
X115476768Y-56287116D01*
X115487076Y-56262394D01*
X115515561Y-56212405D01*
X115559063Y-56142212D01*
X115614423Y-56056875D01*
X115678480Y-55961456D01*
X115696697Y-55934854D01*
X115763073Y-55838167D01*
X115822622Y-55751117D01*
X115872016Y-55678595D01*
X115907925Y-55625493D01*
X115927019Y-55596703D01*
X115928864Y-55593726D01*
X115926105Y-55570782D01*
X115911462Y-55520336D01*
X115887487Y-55449041D01*
X115856734Y-55363547D01*
X115821756Y-55270507D01*
X115785107Y-55176574D01*
X115749339Y-55088399D01*
X115717006Y-55012634D01*
X115690662Y-54955931D01*
X115672858Y-54924943D01*
X115671593Y-54923457D01*
X115660706Y-54914601D01*
X115642318Y-54905843D01*
X115612394Y-54896277D01*
X115566897Y-54884996D01*
X115501791Y-54871093D01*
X115413039Y-54853663D01*
X115296607Y-54831798D01*
X115148458Y-54804591D01*
X115116382Y-54798741D01*
X115021314Y-54780374D01*
X114938435Y-54762405D01*
X114875070Y-54746569D01*
X114838542Y-54734600D01*
X114833644Y-54731810D01*
X114825573Y-54707072D01*
X114819013Y-54651790D01*
X114813967Y-54572389D01*
X114810441Y-54475296D01*
X114808439Y-54366938D01*
X114807964Y-54253740D01*
X114809023Y-54142128D01*
X114811618Y-54038529D01*
X114815754Y-53949368D01*
X114821437Y-53881072D01*
X114828669Y-53840066D01*
X114833029Y-53831674D01*
X114857302Y-53823208D01*
X114912574Y-53809435D01*
X114993338Y-53791550D01*
X115094088Y-53770748D01*
X115209317Y-53748223D01*
X115272098Y-53736418D01*
X115391213Y-53714151D01*
X115497435Y-53693979D01*
X115585573Y-53676915D01*
X115650434Y-53663969D01*
X115686826Y-53656155D01*
X115692816Y-53654422D01*
X115702939Y-53634890D01*
X115724338Y-53587843D01*
X115754161Y-53520003D01*
X115789555Y-53438091D01*
X115827668Y-53348828D01*
X115865647Y-53258935D01*
X115900640Y-53175135D01*
X115929794Y-53104147D01*
X115950257Y-53052694D01*
X115959177Y-53027497D01*
X115959343Y-53026396D01*
X115949231Y-53006519D01*
X115920883Y-52960777D01*
X115877277Y-52893717D01*
X115821394Y-52809884D01*
X115756213Y-52713826D01*
X115718321Y-52658650D01*
X115649275Y-52557481D01*
X115587950Y-52465630D01*
X115537337Y-52387744D01*
X115500429Y-52328469D01*
X115480218Y-52292451D01*
X115477299Y-52284377D01*
X115489847Y-52265584D01*
X115524537Y-52225457D01*
X115576937Y-52168493D01*
X115642616Y-52099185D01*
X115717144Y-52022031D01*
X115796087Y-51941525D01*
X115875017Y-51862163D01*
X115949500Y-51788440D01*
X116015106Y-51724852D01*
X116067404Y-51675894D01*
X116101961Y-51646061D01*
X116113522Y-51638942D01*
X116132346Y-51648953D01*
X116177369Y-51677078D01*
X116244213Y-51720454D01*
X116328501Y-51776218D01*
X116425856Y-51841506D01*
X116499293Y-51891246D01*
X116870333Y-52143551D01*
X117488905Y-51888555D01*
X117572725Y-51443931D01*
X117656546Y-50999307D01*
X118581994Y-50999307D01*
X118665814Y-51443931D01*
G37*
X118665814Y-51443931D02*
X118749635Y-51888555D01*
X119058920Y-52016053D01*
X119368206Y-52143551D01*
X119739246Y-51891246D01*
X119843157Y-51820996D01*
X119937087Y-51758272D01*
X120016652Y-51705938D01*
X120077470Y-51666857D01*
X120115157Y-51643893D01*
X120125421Y-51638942D01*
X120143910Y-51651676D01*
X120183420Y-51686882D01*
X120239522Y-51740062D01*
X120307787Y-51806718D01*
X120383786Y-51882354D01*
X120463092Y-51962472D01*
X120541275Y-52042574D01*
X120613907Y-52118164D01*
X120676559Y-52184745D01*
X120724803Y-52237818D01*
X120754210Y-52272887D01*
X120761241Y-52284623D01*
X120751123Y-52306260D01*
X120722759Y-52353662D01*
X120679129Y-52422193D01*
X120623218Y-52507215D01*
X120558006Y-52604093D01*
X120520219Y-52659350D01*
X120451343Y-52760248D01*
X120390140Y-52851299D01*
X120339578Y-52927970D01*
X120302628Y-52985728D01*
X120282258Y-53020043D01*
X120279197Y-53027254D01*
X120286136Y-53047748D01*
X120305051Y-53095513D01*
X120333087Y-53163832D01*
X120367391Y-53245989D01*
X120405109Y-53335270D01*
X120443387Y-53424958D01*
X120479370Y-53508338D01*
X120510206Y-53578694D01*
X120533039Y-53629310D01*
X120545017Y-53653471D01*
X120545724Y-53654422D01*
X120564531Y-53659036D01*
X120614618Y-53669328D01*
X120690793Y-53684287D01*
X120787865Y-53702901D01*
X120900643Y-53724159D01*
X120966442Y-53736418D01*
X121086950Y-53759362D01*
X121195797Y-53781195D01*
X121287476Y-53800722D01*
X121356481Y-53816748D01*
X121397304Y-53828079D01*
X121405511Y-53831674D01*
X121413548Y-53856006D01*
X121420033Y-53910959D01*
X121424970Y-53990108D01*
X121428364Y-54087026D01*
X121430218Y-54195287D01*
X121430538Y-54308465D01*
X121429327Y-54420135D01*
X121426590Y-54523868D01*
X121422331Y-54613241D01*
X121416555Y-54681826D01*
X121409267Y-54723197D01*
X121404895Y-54731810D01*
X121378764Y-54742133D01*
X121323393Y-54756892D01*
X121246107Y-54774352D01*
X121154230Y-54792780D01*
X121122158Y-54798741D01*
X120967524Y-54827066D01*
X120845375Y-54849876D01*
X120751673Y-54868080D01*
X120682384Y-54882583D01*
X120633471Y-54894292D01*
X120600897Y-54904115D01*
X120580628Y-54912956D01*
X120568626Y-54921724D01*
X120566947Y-54923457D01*
X120550184Y-54951371D01*
X120524614Y-55005695D01*
X120492788Y-55079777D01*
X120457260Y-55166965D01*
X120420583Y-55260608D01*
X120385311Y-55354052D01*
X120353996Y-55440647D01*
X120329193Y-55513740D01*
X120313454Y-55566678D01*
X120309332Y-55592811D01*
X120309676Y-55593726D01*
X120323641Y-55615086D01*
X120355322Y-55662084D01*
X120401391Y-55729827D01*
X120458518Y-55813423D01*
X120523373Y-55907982D01*
X120541843Y-55934854D01*
X120607699Y-56032275D01*
X120665650Y-56121163D01*
X120712538Y-56196412D01*
X120745207Y-56252920D01*
X120760500Y-56285581D01*
X120761241Y-56289593D01*
X120748392Y-56310684D01*
X120712888Y-56352464D01*
X120659293Y-56410445D01*
X120592171Y-56480135D01*
X120516087Y-56557045D01*
X120435604Y-56636683D01*
X120355287Y-56714561D01*
X120279699Y-56786186D01*
X120213405Y-56847070D01*
X120160969Y-56892721D01*
X120126955Y-56918650D01*
X120117545Y-56922883D01*
X120095643Y-56912912D01*
X120050800Y-56886020D01*
X119990321Y-56846736D01*
X119943789Y-56815117D01*
X119859475Y-56757098D01*
X119759626Y-56688784D01*
X119659473Y-56620579D01*
X119605627Y-56584075D01*
X119423371Y-56460800D01*
X119270381Y-56543520D01*
X119200682Y-56579759D01*
X119141414Y-56607926D01*
X119101311Y-56623991D01*
X119091103Y-56626226D01*
X119078829Y-56609722D01*
X119054613Y-56563082D01*
X119020263Y-56490609D01*
X118977588Y-56396606D01*
X118928394Y-56285374D01*
X118874490Y-56161215D01*
X118817684Y-56028432D01*
X118759782Y-55891327D01*
X118702593Y-55754202D01*
X118647924Y-55621358D01*
X118597584Y-55497098D01*
X118553380Y-55385725D01*
X118517119Y-55291539D01*
X118490609Y-55218844D01*
X118475658Y-55171941D01*
X118473254Y-55155833D01*
X118492311Y-55135286D01*
X118534036Y-55101933D01*
X118589706Y-55062702D01*
X118594378Y-55059599D01*
X118738264Y-54944423D01*
X118854283Y-54810053D01*
X118941430Y-54660784D01*
X118998699Y-54500913D01*
X119025086Y-54334737D01*
X119019585Y-54166552D01*
X118981190Y-54000655D01*
X118908895Y-53841342D01*
X118887626Y-53806487D01*
X118776996Y-53665737D01*
X118646302Y-53552714D01*
X118500064Y-53468003D01*
X118342808Y-53412194D01*
X118179057Y-53385874D01*
X118013333Y-53389630D01*
X117850162Y-53424050D01*
X117694065Y-53489723D01*
X117549567Y-53587235D01*
X117504869Y-53626813D01*
X117391112Y-53750703D01*
X117308218Y-53881124D01*
X117251356Y-54027315D01*
X117219687Y-54172088D01*
X117211869Y-54334860D01*
X117237938Y-54498440D01*
X117295245Y-54657298D01*
X117381144Y-54805906D01*
X117492986Y-54938735D01*
X117628123Y-55050256D01*
X117645883Y-55062011D01*
X117702150Y-55100508D01*
X117744923Y-55133863D01*
X117765372Y-55155160D01*
X117765669Y-55155833D01*
X117761279Y-55178871D01*
X117743876Y-55231157D01*
X117715268Y-55308390D01*
X117677265Y-55406268D01*
X117631674Y-55520491D01*
X117580303Y-55646758D01*
X117524962Y-55780767D01*
X117467458Y-55918218D01*
X117409601Y-56054808D01*
X117353198Y-56186237D01*
X117300058Y-56308205D01*
X117251990Y-56416409D01*
X117210801Y-56506549D01*
X117178301Y-56574323D01*
X117156297Y-56615430D01*
X117147436Y-56626226D01*
X117120360Y-56617819D01*
X117069697Y-56595272D01*
X117004183Y-56562613D01*
X116968159Y-56543520D01*
X116815168Y-56460800D01*
X116632912Y-56584075D01*
X116539875Y-56647228D01*
X116438015Y-56716727D01*
X116342562Y-56782165D01*
X116294750Y-56815117D01*
X116227505Y-56860273D01*
X116170564Y-56896057D01*
X116131354Y-56917938D01*
X116118619Y-56922563D01*
X116100083Y-56910085D01*
X116059059Y-56875252D01*
X115999525Y-56821678D01*
X115925458Y-56752983D01*
X115840835Y-56672781D01*
X115787315Y-56621286D01*
X115693681Y-56529286D01*
X115612759Y-56446999D01*
X115547823Y-56377945D01*
X115502142Y-56325644D01*
X115478989Y-56293616D01*
X115476768Y-56287116D01*
X115487076Y-56262394D01*
X115515561Y-56212405D01*
X115559063Y-56142212D01*
X115614423Y-56056875D01*
X115678480Y-55961456D01*
X115696697Y-55934854D01*
X115763073Y-55838167D01*
X115822622Y-55751117D01*
X115872016Y-55678595D01*
X115907925Y-55625493D01*
X115927019Y-55596703D01*
X115928864Y-55593726D01*
X115926105Y-55570782D01*
X115911462Y-55520336D01*
X115887487Y-55449041D01*
X115856734Y-55363547D01*
X115821756Y-55270507D01*
X115785107Y-55176574D01*
X115749339Y-55088399D01*
X115717006Y-55012634D01*
X115690662Y-54955931D01*
X115672858Y-54924943D01*
X115671593Y-54923457D01*
X115660706Y-54914601D01*
X115642318Y-54905843D01*
X115612394Y-54896277D01*
X115566897Y-54884996D01*
X115501791Y-54871093D01*
X115413039Y-54853663D01*
X115296607Y-54831798D01*
X115148458Y-54804591D01*
X115116382Y-54798741D01*
X115021314Y-54780374D01*
X114938435Y-54762405D01*
X114875070Y-54746569D01*
X114838542Y-54734600D01*
X114833644Y-54731810D01*
X114825573Y-54707072D01*
X114819013Y-54651790D01*
X114813967Y-54572389D01*
X114810441Y-54475296D01*
X114808439Y-54366938D01*
X114807964Y-54253740D01*
X114809023Y-54142128D01*
X114811618Y-54038529D01*
X114815754Y-53949368D01*
X114821437Y-53881072D01*
X114828669Y-53840066D01*
X114833029Y-53831674D01*
X114857302Y-53823208D01*
X114912574Y-53809435D01*
X114993338Y-53791550D01*
X115094088Y-53770748D01*
X115209317Y-53748223D01*
X115272098Y-53736418D01*
X115391213Y-53714151D01*
X115497435Y-53693979D01*
X115585573Y-53676915D01*
X115650434Y-53663969D01*
X115686826Y-53656155D01*
X115692816Y-53654422D01*
X115702939Y-53634890D01*
X115724338Y-53587843D01*
X115754161Y-53520003D01*
X115789555Y-53438091D01*
X115827668Y-53348828D01*
X115865647Y-53258935D01*
X115900640Y-53175135D01*
X115929794Y-53104147D01*
X115950257Y-53052694D01*
X115959177Y-53027497D01*
X115959343Y-53026396D01*
X115949231Y-53006519D01*
X115920883Y-52960777D01*
X115877277Y-52893717D01*
X115821394Y-52809884D01*
X115756213Y-52713826D01*
X115718321Y-52658650D01*
X115649275Y-52557481D01*
X115587950Y-52465630D01*
X115537337Y-52387744D01*
X115500429Y-52328469D01*
X115480218Y-52292451D01*
X115477299Y-52284377D01*
X115489847Y-52265584D01*
X115524537Y-52225457D01*
X115576937Y-52168493D01*
X115642616Y-52099185D01*
X115717144Y-52022031D01*
X115796087Y-51941525D01*
X115875017Y-51862163D01*
X115949500Y-51788440D01*
X116015106Y-51724852D01*
X116067404Y-51675894D01*
X116101961Y-51646061D01*
X116113522Y-51638942D01*
X116132346Y-51648953D01*
X116177369Y-51677078D01*
X116244213Y-51720454D01*
X116328501Y-51776218D01*
X116425856Y-51841506D01*
X116499293Y-51891246D01*
X116870333Y-52143551D01*
X117488905Y-51888555D01*
X117572725Y-51443931D01*
X117656546Y-50999307D01*
X118581994Y-50999307D01*
X118665814Y-51443931D01*
G36*
X123003921Y-104986490D02*
G01*
X123107027Y-105022238D01*
X123203022Y-105078507D01*
X123288753Y-105155288D01*
X123361070Y-105252573D01*
X123393555Y-105313892D01*
X123421668Y-105399660D01*
X123435295Y-105498677D01*
X123433786Y-105600471D01*
X123417031Y-105692714D01*
X123371237Y-105805432D01*
X123304832Y-105903207D01*
X123221191Y-105984115D01*
X123123688Y-106046232D01*
X123015700Y-106087634D01*
X122900601Y-106106397D01*
X122781766Y-106100598D01*
X122723189Y-106088206D01*
X122609028Y-106043797D01*
X122507635Y-105976033D01*
X122421455Y-105887001D01*
X122352934Y-105778791D01*
X122347136Y-105766973D01*
X122327096Y-105722628D01*
X122314513Y-105685280D01*
X122307681Y-105645880D01*
X122304895Y-105595381D01*
X122304432Y-105540433D01*
X122305197Y-105474415D01*
X122308648Y-105426689D01*
X122316523Y-105388103D01*
X122330557Y-105349506D01*
X122347880Y-105311426D01*
X122412495Y-105203328D01*
X122492066Y-105115803D01*
X122583440Y-105048841D01*
X122683464Y-105002436D01*
X122788988Y-104976581D01*
X122896858Y-104971268D01*
X123003921Y-104986490D01*
G37*
X123003921Y-104986490D02*
X123107027Y-105022238D01*
X123203022Y-105078507D01*
X123288753Y-105155288D01*
X123361070Y-105252573D01*
X123393555Y-105313892D01*
X123421668Y-105399660D01*
X123435295Y-105498677D01*
X123433786Y-105600471D01*
X123417031Y-105692714D01*
X123371237Y-105805432D01*
X123304832Y-105903207D01*
X123221191Y-105984115D01*
X123123688Y-106046232D01*
X123015700Y-106087634D01*
X122900601Y-106106397D01*
X122781766Y-106100598D01*
X122723189Y-106088206D01*
X122609028Y-106043797D01*
X122507635Y-105976033D01*
X122421455Y-105887001D01*
X122352934Y-105778791D01*
X122347136Y-105766973D01*
X122327096Y-105722628D01*
X122314513Y-105685280D01*
X122307681Y-105645880D01*
X122304895Y-105595381D01*
X122304432Y-105540433D01*
X122305197Y-105474415D01*
X122308648Y-105426689D01*
X122316523Y-105388103D01*
X122330557Y-105349506D01*
X122347880Y-105311426D01*
X122412495Y-105203328D01*
X122492066Y-105115803D01*
X122583440Y-105048841D01*
X122683464Y-105002436D01*
X122788988Y-104976581D01*
X122896858Y-104971268D01*
X123003921Y-104986490D01*
G36*
X132572270Y-105906825D02*
G01*
X132689041Y-105907304D01*
X132728729Y-105907545D01*
X133274486Y-105911135D01*
X133281351Y-108004919D01*
X133282258Y-108288842D01*
X133283062Y-108546640D01*
X133283815Y-108779646D01*
X133284569Y-108989194D01*
X133285375Y-109176618D01*
X133286285Y-109343250D01*
X133287351Y-109490425D01*
X133288624Y-109619477D01*
X133290156Y-109731739D01*
X133291998Y-109828544D01*
X133294203Y-109911226D01*
X133296822Y-109981119D01*
X133299906Y-110039557D01*
X133303508Y-110087872D01*
X133307678Y-110127400D01*
X133312469Y-110159473D01*
X133317931Y-110185424D01*
X133324118Y-110206589D01*
X133331080Y-110224299D01*
X133338869Y-110239889D01*
X133347537Y-110254693D01*
X133357135Y-110270044D01*
X133367715Y-110287276D01*
X133369884Y-110290946D01*
X133406268Y-110353031D01*
X132880431Y-110349434D01*
X132354594Y-110345838D01*
X132347729Y-110230331D01*
X132343992Y-110174899D01*
X132340097Y-110142851D01*
X132334811Y-110130135D01*
X132326903Y-110132696D01*
X132320270Y-110140024D01*
X132291374Y-110166714D01*
X132244279Y-110201021D01*
X132185620Y-110238846D01*
X132122031Y-110276090D01*
X132060149Y-110308653D01*
X132012634Y-110330077D01*
X131901316Y-110365283D01*
X131773596Y-110390222D01*
X131638901Y-110403941D01*
X131506663Y-110405486D01*
X131386308Y-110393906D01*
X131384326Y-110393574D01*
X131219641Y-110352250D01*
X131065479Y-110286412D01*
X130923328Y-110197474D01*
X130794675Y-110086852D01*
X130681007Y-109955961D01*
X130583810Y-109806216D01*
X130504572Y-109639033D01*
X130461430Y-109515190D01*
X130432979Y-109411581D01*
X130411880Y-109311252D01*
X130397488Y-109208109D01*
X130389158Y-109096057D01*
X130386245Y-108969001D01*
X130387535Y-108865252D01*
X131400650Y-108865252D01*
X131405444Y-109039222D01*
X131420568Y-109188895D01*
X131446485Y-109315597D01*
X131483663Y-109420658D01*
X131532565Y-109505406D01*
X131593658Y-109571169D01*
X131664177Y-109617659D01*
X131700871Y-109635014D01*
X131732696Y-109645419D01*
X131768177Y-109650179D01*
X131815841Y-109650601D01*
X131867189Y-109648748D01*
X131968169Y-109639841D01*
X132048035Y-109622398D01*
X132073135Y-109613661D01*
X132130448Y-109587857D01*
X132190897Y-109555453D01*
X132217297Y-109539233D01*
X132285946Y-109494205D01*
X132285946Y-108066982D01*
X132210432Y-108021718D01*
X132105121Y-107970572D01*
X131997525Y-107940324D01*
X131891581Y-107930795D01*
X131791224Y-107941807D01*
X131700387Y-107973181D01*
X131623007Y-108024740D01*
X131598039Y-108049488D01*
X131537856Y-108130577D01*
X131489145Y-108228734D01*
X131451499Y-108345643D01*
X131424512Y-108482985D01*
X131407775Y-108642444D01*
X131400883Y-108825700D01*
X131400650Y-108865252D01*
X130387535Y-108865252D01*
X130388073Y-108822067D01*
X130399647Y-108596053D01*
X130422920Y-108392192D01*
X130458504Y-108207513D01*
X130507013Y-108039048D01*
X130569060Y-107883826D01*
X130591201Y-107837808D01*
X130680385Y-107687739D01*
X130788159Y-107554377D01*
X130911990Y-107439877D01*
X131049342Y-107346389D01*
X131197683Y-107276068D01*
X131286604Y-107247060D01*
X131373933Y-107229840D01*
X131479011Y-107219594D01*
X131593029Y-107216318D01*
X131707177Y-107220009D01*
X131812648Y-107230660D01*
X131897334Y-107247370D01*
X131998128Y-107280140D01*
X132095822Y-107322279D01*
X132181296Y-107369519D01*
X132226789Y-107401581D01*
X132258169Y-107425422D01*
X132280142Y-107439939D01*
X132285141Y-107442000D01*
X132286690Y-107428718D01*
X132288135Y-107390663D01*
X132289443Y-107330519D01*
X132290583Y-107250973D01*
X132291521Y-107154711D01*
X132292226Y-107044419D01*
X132292667Y-106922781D01*
X132292811Y-106798885D01*
X132292730Y-106640196D01*
X132292335Y-106506408D01*
X132291395Y-106394960D01*
X132289680Y-106303295D01*
X132286957Y-106228853D01*
X132282997Y-106169075D01*
X132277569Y-106121402D01*
X132270441Y-106083274D01*
X132261384Y-106052134D01*
X132250167Y-106025421D01*
X132236558Y-106000577D01*
X132220328Y-105975043D01*
X132218240Y-105971881D01*
X132197306Y-105938810D01*
X132184667Y-105916069D01*
X132182973Y-105911272D01*
X132196216Y-105909759D01*
X132234002Y-105908528D01*
X132293416Y-105907599D01*
X132371542Y-105906992D01*
X132465465Y-105906727D01*
X132572270Y-105906825D01*
G37*
X132572270Y-105906825D02*
X132689041Y-105907304D01*
X132728729Y-105907545D01*
X133274486Y-105911135D01*
X133281351Y-108004919D01*
X133282258Y-108288842D01*
X133283062Y-108546640D01*
X133283815Y-108779646D01*
X133284569Y-108989194D01*
X133285375Y-109176618D01*
X133286285Y-109343250D01*
X133287351Y-109490425D01*
X133288624Y-109619477D01*
X133290156Y-109731739D01*
X133291998Y-109828544D01*
X133294203Y-109911226D01*
X133296822Y-109981119D01*
X133299906Y-110039557D01*
X133303508Y-110087872D01*
X133307678Y-110127400D01*
X133312469Y-110159473D01*
X133317931Y-110185424D01*
X133324118Y-110206589D01*
X133331080Y-110224299D01*
X133338869Y-110239889D01*
X133347537Y-110254693D01*
X133357135Y-110270044D01*
X133367715Y-110287276D01*
X133369884Y-110290946D01*
X133406268Y-110353031D01*
X132880431Y-110349434D01*
X132354594Y-110345838D01*
X132347729Y-110230331D01*
X132343992Y-110174899D01*
X132340097Y-110142851D01*
X132334811Y-110130135D01*
X132326903Y-110132696D01*
X132320270Y-110140024D01*
X132291374Y-110166714D01*
X132244279Y-110201021D01*
X132185620Y-110238846D01*
X132122031Y-110276090D01*
X132060149Y-110308653D01*
X132012634Y-110330077D01*
X131901316Y-110365283D01*
X131773596Y-110390222D01*
X131638901Y-110403941D01*
X131506663Y-110405486D01*
X131386308Y-110393906D01*
X131384326Y-110393574D01*
X131219641Y-110352250D01*
X131065479Y-110286412D01*
X130923328Y-110197474D01*
X130794675Y-110086852D01*
X130681007Y-109955961D01*
X130583810Y-109806216D01*
X130504572Y-109639033D01*
X130461430Y-109515190D01*
X130432979Y-109411581D01*
X130411880Y-109311252D01*
X130397488Y-109208109D01*
X130389158Y-109096057D01*
X130386245Y-108969001D01*
X130387535Y-108865252D01*
X131400650Y-108865252D01*
X131405444Y-109039222D01*
X131420568Y-109188895D01*
X131446485Y-109315597D01*
X131483663Y-109420658D01*
X131532565Y-109505406D01*
X131593658Y-109571169D01*
X131664177Y-109617659D01*
X131700871Y-109635014D01*
X131732696Y-109645419D01*
X131768177Y-109650179D01*
X131815841Y-109650601D01*
X131867189Y-109648748D01*
X131968169Y-109639841D01*
X132048035Y-109622398D01*
X132073135Y-109613661D01*
X132130448Y-109587857D01*
X132190897Y-109555453D01*
X132217297Y-109539233D01*
X132285946Y-109494205D01*
X132285946Y-108066982D01*
X132210432Y-108021718D01*
X132105121Y-107970572D01*
X131997525Y-107940324D01*
X131891581Y-107930795D01*
X131791224Y-107941807D01*
X131700387Y-107973181D01*
X131623007Y-108024740D01*
X131598039Y-108049488D01*
X131537856Y-108130577D01*
X131489145Y-108228734D01*
X131451499Y-108345643D01*
X131424512Y-108482985D01*
X131407775Y-108642444D01*
X131400883Y-108825700D01*
X131400650Y-108865252D01*
X130387535Y-108865252D01*
X130388073Y-108822067D01*
X130399647Y-108596053D01*
X130422920Y-108392192D01*
X130458504Y-108207513D01*
X130507013Y-108039048D01*
X130569060Y-107883826D01*
X130591201Y-107837808D01*
X130680385Y-107687739D01*
X130788159Y-107554377D01*
X130911990Y-107439877D01*
X131049342Y-107346389D01*
X131197683Y-107276068D01*
X131286604Y-107247060D01*
X131373933Y-107229840D01*
X131479011Y-107219594D01*
X131593029Y-107216318D01*
X131707177Y-107220009D01*
X131812648Y-107230660D01*
X131897334Y-107247370D01*
X131998128Y-107280140D01*
X132095822Y-107322279D01*
X132181296Y-107369519D01*
X132226789Y-107401581D01*
X132258169Y-107425422D01*
X132280142Y-107439939D01*
X132285141Y-107442000D01*
X132286690Y-107428718D01*
X132288135Y-107390663D01*
X132289443Y-107330519D01*
X132290583Y-107250973D01*
X132291521Y-107154711D01*
X132292226Y-107044419D01*
X132292667Y-106922781D01*
X132292811Y-106798885D01*
X132292730Y-106640196D01*
X132292335Y-106506408D01*
X132291395Y-106394960D01*
X132289680Y-106303295D01*
X132286957Y-106228853D01*
X132282997Y-106169075D01*
X132277569Y-106121402D01*
X132270441Y-106083274D01*
X132261384Y-106052134D01*
X132250167Y-106025421D01*
X132236558Y-106000577D01*
X132220328Y-105975043D01*
X132218240Y-105971881D01*
X132197306Y-105938810D01*
X132184667Y-105916069D01*
X132182973Y-105911272D01*
X132196216Y-105909759D01*
X132234002Y-105908528D01*
X132293416Y-105907599D01*
X132371542Y-105906992D01*
X132465465Y-105906727D01*
X132572270Y-105906825D01*
G36*
X128897505Y-107214229D02*
G01*
X128965531Y-107219378D01*
X129160163Y-107245273D01*
X129332529Y-107286575D01*
X129483470Y-107343853D01*
X129613825Y-107417674D01*
X129724434Y-107508608D01*
X129816135Y-107617222D01*
X129889770Y-107744085D01*
X129943539Y-107881352D01*
X129957187Y-107925137D01*
X129969073Y-107966141D01*
X129979334Y-108006569D01*
X129988113Y-108048630D01*
X129995548Y-108094531D01*
X130001780Y-108146480D01*
X130006950Y-108206685D01*
X130011196Y-108277352D01*
X130014660Y-108360689D01*
X130017481Y-108458905D01*
X130019800Y-108574205D01*
X130021757Y-108708799D01*
X130023491Y-108864893D01*
X130025143Y-109044695D01*
X130026324Y-109185676D01*
X130034270Y-110153622D01*
X130085756Y-110246770D01*
X130110137Y-110291645D01*
X130128280Y-110326501D01*
X130136935Y-110345054D01*
X130137243Y-110346311D01*
X130124014Y-110347749D01*
X130086326Y-110349074D01*
X130027183Y-110350249D01*
X129949586Y-110351237D01*
X129856536Y-110351999D01*
X129751035Y-110352500D01*
X129636084Y-110352701D01*
X129622378Y-110352703D01*
X129107513Y-110352703D01*
X129107513Y-110236000D01*
X129106635Y-110183260D01*
X129104292Y-110142926D01*
X129100921Y-110121300D01*
X129099431Y-110119298D01*
X129085804Y-110127683D01*
X129057757Y-110149692D01*
X129021303Y-110180601D01*
X129020485Y-110181316D01*
X128953962Y-110230843D01*
X128869948Y-110280575D01*
X128777937Y-110325626D01*
X128687421Y-110361110D01*
X128647567Y-110373236D01*
X128568255Y-110388637D01*
X128470935Y-110398465D01*
X128364516Y-110402580D01*
X128257907Y-110400841D01*
X128160017Y-110393108D01*
X128091513Y-110381981D01*
X127923520Y-110332648D01*
X127772281Y-110262342D01*
X127638782Y-110171933D01*
X127524006Y-110062295D01*
X127428937Y-109934299D01*
X127354560Y-109788818D01*
X127322474Y-109700541D01*
X127302365Y-109614739D01*
X127289038Y-109511736D01*
X127282872Y-109401034D01*
X127283074Y-109384925D01*
X128211648Y-109384925D01*
X128219348Y-109467184D01*
X128244989Y-109535546D01*
X128292378Y-109598970D01*
X128310579Y-109617567D01*
X128375282Y-109667846D01*
X128450066Y-109700056D01*
X128539662Y-109715648D01*
X128634012Y-109716796D01*
X128723501Y-109709216D01*
X128792018Y-109694389D01*
X128821775Y-109683253D01*
X128875408Y-109652904D01*
X128932235Y-109610221D01*
X128984082Y-109562317D01*
X129022778Y-109516301D01*
X129033054Y-109499421D01*
X129041042Y-109475782D01*
X129046721Y-109438168D01*
X129050356Y-109382985D01*
X129052211Y-109306640D01*
X129052594Y-109233981D01*
X129052335Y-109149270D01*
X129051287Y-109088018D01*
X129049045Y-109046227D01*
X129045206Y-109019899D01*
X129039365Y-109005035D01*
X129031118Y-108997639D01*
X129028567Y-108996461D01*
X129006400Y-108992833D01*
X128962680Y-108989866D01*
X128903311Y-108987827D01*
X128834196Y-108986983D01*
X128819189Y-108986982D01*
X128726805Y-108988457D01*
X128655432Y-108992842D01*
X128598719Y-109000738D01*
X128551872Y-109012270D01*
X128435669Y-109056215D01*
X128344543Y-109110243D01*
X128277705Y-109175219D01*
X128234365Y-109252005D01*
X128213734Y-109341467D01*
X128211648Y-109384925D01*
X127283074Y-109384925D01*
X127284244Y-109292133D01*
X127293532Y-109194536D01*
X127300777Y-109155105D01*
X127347039Y-109008701D01*
X127417384Y-108873995D01*
X127510484Y-108752280D01*
X127625012Y-108644847D01*
X127759640Y-108552988D01*
X127913040Y-108477996D01*
X128043459Y-108432458D01*
X128130623Y-108408533D01*
X128213996Y-108389943D01*
X128298976Y-108376084D01*
X128390965Y-108366351D01*
X128495362Y-108360141D01*
X128617568Y-108356851D01*
X128728055Y-108355924D01*
X129055677Y-108355027D01*
X129049401Y-108256547D01*
X129031579Y-108149695D01*
X128993667Y-108057852D01*
X128937280Y-107983310D01*
X128864031Y-107928364D01*
X128799535Y-107901552D01*
X128707123Y-107884654D01*
X128597111Y-107882227D01*
X128474656Y-107893378D01*
X128344914Y-107917210D01*
X128213042Y-107952830D01*
X128084198Y-107999343D01*
X127990566Y-108041883D01*
X127945517Y-108063728D01*
X127911156Y-108078984D01*
X127893681Y-108084937D01*
X127892733Y-108084746D01*
X127886703Y-108071412D01*
X127871645Y-108036068D01*
X127848977Y-107982101D01*
X127820115Y-107912896D01*
X127786477Y-107831840D01*
X127752284Y-107749118D01*
X127615586Y-107417803D01*
X127712820Y-107401833D01*
X127754964Y-107393820D01*
X127818319Y-107380361D01*
X127897457Y-107362679D01*
X127986951Y-107341996D01*
X128081373Y-107319532D01*
X128118973Y-107310403D01*
X128281637Y-107272674D01*
X128424050Y-107244388D01*
X128551527Y-107224972D01*
X128669384Y-107213854D01*
X128782938Y-107210464D01*
X128897505Y-107214229D01*
G37*
X128897505Y-107214229D02*
X128965531Y-107219378D01*
X129160163Y-107245273D01*
X129332529Y-107286575D01*
X129483470Y-107343853D01*
X129613825Y-107417674D01*
X129724434Y-107508608D01*
X129816135Y-107617222D01*
X129889770Y-107744085D01*
X129943539Y-107881352D01*
X129957187Y-107925137D01*
X129969073Y-107966141D01*
X129979334Y-108006569D01*
X129988113Y-108048630D01*
X129995548Y-108094531D01*
X130001780Y-108146480D01*
X130006950Y-108206685D01*
X130011196Y-108277352D01*
X130014660Y-108360689D01*
X130017481Y-108458905D01*
X130019800Y-108574205D01*
X130021757Y-108708799D01*
X130023491Y-108864893D01*
X130025143Y-109044695D01*
X130026324Y-109185676D01*
X130034270Y-110153622D01*
X130085756Y-110246770D01*
X130110137Y-110291645D01*
X130128280Y-110326501D01*
X130136935Y-110345054D01*
X130137243Y-110346311D01*
X130124014Y-110347749D01*
X130086326Y-110349074D01*
X130027183Y-110350249D01*
X129949586Y-110351237D01*
X129856536Y-110351999D01*
X129751035Y-110352500D01*
X129636084Y-110352701D01*
X129622378Y-110352703D01*
X129107513Y-110352703D01*
X129107513Y-110236000D01*
X129106635Y-110183260D01*
X129104292Y-110142926D01*
X129100921Y-110121300D01*
X129099431Y-110119298D01*
X129085804Y-110127683D01*
X129057757Y-110149692D01*
X129021303Y-110180601D01*
X129020485Y-110181316D01*
X128953962Y-110230843D01*
X128869948Y-110280575D01*
X128777937Y-110325626D01*
X128687421Y-110361110D01*
X128647567Y-110373236D01*
X128568255Y-110388637D01*
X128470935Y-110398465D01*
X128364516Y-110402580D01*
X128257907Y-110400841D01*
X128160017Y-110393108D01*
X128091513Y-110381981D01*
X127923520Y-110332648D01*
X127772281Y-110262342D01*
X127638782Y-110171933D01*
X127524006Y-110062295D01*
X127428937Y-109934299D01*
X127354560Y-109788818D01*
X127322474Y-109700541D01*
X127302365Y-109614739D01*
X127289038Y-109511736D01*
X127282872Y-109401034D01*
X127283074Y-109384925D01*
X128211648Y-109384925D01*
X128219348Y-109467184D01*
X128244989Y-109535546D01*
X128292378Y-109598970D01*
X128310579Y-109617567D01*
X128375282Y-109667846D01*
X128450066Y-109700056D01*
X128539662Y-109715648D01*
X128634012Y-109716796D01*
X128723501Y-109709216D01*
X128792018Y-109694389D01*
X128821775Y-109683253D01*
X128875408Y-109652904D01*
X128932235Y-109610221D01*
X128984082Y-109562317D01*
X129022778Y-109516301D01*
X129033054Y-109499421D01*
X129041042Y-109475782D01*
X129046721Y-109438168D01*
X129050356Y-109382985D01*
X129052211Y-109306640D01*
X129052594Y-109233981D01*
X129052335Y-109149270D01*
X129051287Y-109088018D01*
X129049045Y-109046227D01*
X129045206Y-109019899D01*
X129039365Y-109005035D01*
X129031118Y-108997639D01*
X129028567Y-108996461D01*
X129006400Y-108992833D01*
X128962680Y-108989866D01*
X128903311Y-108987827D01*
X128834196Y-108986983D01*
X128819189Y-108986982D01*
X128726805Y-108988457D01*
X128655432Y-108992842D01*
X128598719Y-109000738D01*
X128551872Y-109012270D01*
X128435669Y-109056215D01*
X128344543Y-109110243D01*
X128277705Y-109175219D01*
X128234365Y-109252005D01*
X128213734Y-109341467D01*
X128211648Y-109384925D01*
X127283074Y-109384925D01*
X127284244Y-109292133D01*
X127293532Y-109194536D01*
X127300777Y-109155105D01*
X127347039Y-109008701D01*
X127417384Y-108873995D01*
X127510484Y-108752280D01*
X127625012Y-108644847D01*
X127759640Y-108552988D01*
X127913040Y-108477996D01*
X128043459Y-108432458D01*
X128130623Y-108408533D01*
X128213996Y-108389943D01*
X128298976Y-108376084D01*
X128390965Y-108366351D01*
X128495362Y-108360141D01*
X128617568Y-108356851D01*
X128728055Y-108355924D01*
X129055677Y-108355027D01*
X129049401Y-108256547D01*
X129031579Y-108149695D01*
X128993667Y-108057852D01*
X128937280Y-107983310D01*
X128864031Y-107928364D01*
X128799535Y-107901552D01*
X128707123Y-107884654D01*
X128597111Y-107882227D01*
X128474656Y-107893378D01*
X128344914Y-107917210D01*
X128213042Y-107952830D01*
X128084198Y-107999343D01*
X127990566Y-108041883D01*
X127945517Y-108063728D01*
X127911156Y-108078984D01*
X127893681Y-108084937D01*
X127892733Y-108084746D01*
X127886703Y-108071412D01*
X127871645Y-108036068D01*
X127848977Y-107982101D01*
X127820115Y-107912896D01*
X127786477Y-107831840D01*
X127752284Y-107749118D01*
X127615586Y-107417803D01*
X127712820Y-107401833D01*
X127754964Y-107393820D01*
X127818319Y-107380361D01*
X127897457Y-107362679D01*
X127986951Y-107341996D01*
X128081373Y-107319532D01*
X128118973Y-107310403D01*
X128281637Y-107272674D01*
X128424050Y-107244388D01*
X128551527Y-107224972D01*
X128669384Y-107213854D01*
X128782938Y-107210464D01*
X128897505Y-107214229D01*
G36*
X126169962Y-106110499D02*
G01*
X126318014Y-106126707D01*
X126461452Y-106155718D01*
X126606110Y-106199045D01*
X126757824Y-106258201D01*
X126922428Y-106334700D01*
X126952071Y-106349517D01*
X127020098Y-106383031D01*
X127084256Y-106413208D01*
X127138215Y-106437166D01*
X127175640Y-106452024D01*
X127181389Y-106453895D01*
X127236486Y-106470402D01*
X126989851Y-106829201D01*
X126929552Y-106916893D01*
X126874422Y-106997012D01*
X126826336Y-107066836D01*
X126787168Y-107123647D01*
X126758794Y-107164723D01*
X126743087Y-107187346D01*
X126740536Y-107190928D01*
X126730171Y-107183438D01*
X126704660Y-107160918D01*
X126668563Y-107127461D01*
X126648642Y-107108550D01*
X126535773Y-107018778D01*
X126409014Y-106950561D01*
X126299783Y-106913195D01*
X126234214Y-106901460D01*
X126152116Y-106894308D01*
X126063144Y-106891874D01*
X125976956Y-106894288D01*
X125903205Y-106901683D01*
X125873776Y-106907347D01*
X125741133Y-106952982D01*
X125621606Y-107022663D01*
X125515283Y-107116260D01*
X125422253Y-107233649D01*
X125342605Y-107374700D01*
X125276426Y-107539286D01*
X125223806Y-107727280D01*
X125192533Y-107888217D01*
X125184374Y-107959263D01*
X125178815Y-108051046D01*
X125175802Y-108156968D01*
X125175281Y-108270434D01*
X125177200Y-108384849D01*
X125181503Y-108493617D01*
X125188137Y-108590143D01*
X125197049Y-108667831D01*
X125198979Y-108679817D01*
X125241499Y-108872892D01*
X125299433Y-109043773D01*
X125373133Y-109193224D01*
X125462951Y-109322011D01*
X125526707Y-109391639D01*
X125641286Y-109486173D01*
X125766942Y-109556246D01*
X125901557Y-109601477D01*
X126043011Y-109621484D01*
X126189183Y-109615885D01*
X126337955Y-109584300D01*
X126425911Y-109553394D01*
X126547629Y-109491506D01*
X126673080Y-109402729D01*
X126743353Y-109342694D01*
X126782811Y-109307947D01*
X126813812Y-109282454D01*
X126831458Y-109270170D01*
X126833648Y-109269795D01*
X126841524Y-109282347D01*
X126861932Y-109315516D01*
X126893132Y-109366458D01*
X126933386Y-109432331D01*
X126980957Y-109510289D01*
X127034104Y-109597490D01*
X127063687Y-109646067D01*
X127289648Y-110017215D01*
X127007527Y-110156639D01*
X126905522Y-110206719D01*
X126822889Y-110246210D01*
X126754578Y-110277073D01*
X126695537Y-110301268D01*
X126640714Y-110320758D01*
X126585060Y-110337503D01*
X126523523Y-110353465D01*
X126464540Y-110367482D01*
X126412115Y-110378329D01*
X126357288Y-110386526D01*
X126294572Y-110392528D01*
X126218477Y-110396790D01*
X126123516Y-110399767D01*
X126059513Y-110401052D01*
X125968192Y-110401930D01*
X125880627Y-110401487D01*
X125802612Y-110399852D01*
X125739942Y-110397149D01*
X125698413Y-110393505D01*
X125695952Y-110393142D01*
X125480303Y-110346487D01*
X125277793Y-110275729D01*
X125088495Y-110180914D01*
X124912479Y-110062089D01*
X124749816Y-109919300D01*
X124600578Y-109752594D01*
X124492496Y-109604433D01*
X124377434Y-109410502D01*
X124284423Y-109205699D01*
X124213013Y-108988383D01*
X124162756Y-108756912D01*
X124133201Y-108509643D01*
X124123889Y-108258559D01*
X124131548Y-108015670D01*
X124155613Y-107791570D01*
X124196852Y-107582477D01*
X124256027Y-107384613D01*
X124333904Y-107194196D01*
X124343203Y-107174468D01*
X124445648Y-106990059D01*
X124571472Y-106814576D01*
X124717112Y-106651650D01*
X124879001Y-106504914D01*
X125053576Y-106378001D01*
X125216244Y-106284905D01*
X125380573Y-106211991D01*
X125545251Y-106159174D01*
X125716652Y-106125015D01*
X125901153Y-106108078D01*
X126011459Y-106105580D01*
X126169962Y-106110499D01*
G37*
X126169962Y-106110499D02*
X126318014Y-106126707D01*
X126461452Y-106155718D01*
X126606110Y-106199045D01*
X126757824Y-106258201D01*
X126922428Y-106334700D01*
X126952071Y-106349517D01*
X127020098Y-106383031D01*
X127084256Y-106413208D01*
X127138215Y-106437166D01*
X127175640Y-106452024D01*
X127181389Y-106453895D01*
X127236486Y-106470402D01*
X126989851Y-106829201D01*
X126929552Y-106916893D01*
X126874422Y-106997012D01*
X126826336Y-107066836D01*
X126787168Y-107123647D01*
X126758794Y-107164723D01*
X126743087Y-107187346D01*
X126740536Y-107190928D01*
X126730171Y-107183438D01*
X126704660Y-107160918D01*
X126668563Y-107127461D01*
X126648642Y-107108550D01*
X126535773Y-107018778D01*
X126409014Y-106950561D01*
X126299783Y-106913195D01*
X126234214Y-106901460D01*
X126152116Y-106894308D01*
X126063144Y-106891874D01*
X125976956Y-106894288D01*
X125903205Y-106901683D01*
X125873776Y-106907347D01*
X125741133Y-106952982D01*
X125621606Y-107022663D01*
X125515283Y-107116260D01*
X125422253Y-107233649D01*
X125342605Y-107374700D01*
X125276426Y-107539286D01*
X125223806Y-107727280D01*
X125192533Y-107888217D01*
X125184374Y-107959263D01*
X125178815Y-108051046D01*
X125175802Y-108156968D01*
X125175281Y-108270434D01*
X125177200Y-108384849D01*
X125181503Y-108493617D01*
X125188137Y-108590143D01*
X125197049Y-108667831D01*
X125198979Y-108679817D01*
X125241499Y-108872892D01*
X125299433Y-109043773D01*
X125373133Y-109193224D01*
X125462951Y-109322011D01*
X125526707Y-109391639D01*
X125641286Y-109486173D01*
X125766942Y-109556246D01*
X125901557Y-109601477D01*
X126043011Y-109621484D01*
X126189183Y-109615885D01*
X126337955Y-109584300D01*
X126425911Y-109553394D01*
X126547629Y-109491506D01*
X126673080Y-109402729D01*
X126743353Y-109342694D01*
X126782811Y-109307947D01*
X126813812Y-109282454D01*
X126831458Y-109270170D01*
X126833648Y-109269795D01*
X126841524Y-109282347D01*
X126861932Y-109315516D01*
X126893132Y-109366458D01*
X126933386Y-109432331D01*
X126980957Y-109510289D01*
X127034104Y-109597490D01*
X127063687Y-109646067D01*
X127289648Y-110017215D01*
X127007527Y-110156639D01*
X126905522Y-110206719D01*
X126822889Y-110246210D01*
X126754578Y-110277073D01*
X126695537Y-110301268D01*
X126640714Y-110320758D01*
X126585060Y-110337503D01*
X126523523Y-110353465D01*
X126464540Y-110367482D01*
X126412115Y-110378329D01*
X126357288Y-110386526D01*
X126294572Y-110392528D01*
X126218477Y-110396790D01*
X126123516Y-110399767D01*
X126059513Y-110401052D01*
X125968192Y-110401930D01*
X125880627Y-110401487D01*
X125802612Y-110399852D01*
X125739942Y-110397149D01*
X125698413Y-110393505D01*
X125695952Y-110393142D01*
X125480303Y-110346487D01*
X125277793Y-110275729D01*
X125088495Y-110180914D01*
X124912479Y-110062089D01*
X124749816Y-109919300D01*
X124600578Y-109752594D01*
X124492496Y-109604433D01*
X124377434Y-109410502D01*
X124284423Y-109205699D01*
X124213013Y-108988383D01*
X124162756Y-108756912D01*
X124133201Y-108509643D01*
X124123889Y-108258559D01*
X124131548Y-108015670D01*
X124155613Y-107791570D01*
X124196852Y-107582477D01*
X124256027Y-107384613D01*
X124333904Y-107194196D01*
X124343203Y-107174468D01*
X124445648Y-106990059D01*
X124571472Y-106814576D01*
X124717112Y-106651650D01*
X124879001Y-106504914D01*
X125053576Y-106378001D01*
X125216244Y-106284905D01*
X125380573Y-106211991D01*
X125545251Y-106159174D01*
X125716652Y-106125015D01*
X125901153Y-106108078D01*
X126011459Y-106105580D01*
X126169962Y-106110499D01*
G36*
X119774257Y-105423689D02*
G01*
X120038780Y-105423725D01*
X120161912Y-105423730D01*
X122132811Y-105423730D01*
X122132811Y-105539910D01*
X122145211Y-105681291D01*
X122182636Y-105811684D01*
X122245423Y-105931862D01*
X122333906Y-106042602D01*
X122363843Y-106072511D01*
X122471534Y-106157348D01*
X122590275Y-106219221D01*
X122716540Y-106258159D01*
X122846803Y-106274190D01*
X122977535Y-106267342D01*
X123105212Y-106237643D01*
X123226305Y-106185120D01*
X123337288Y-106109803D01*
X123387132Y-106064363D01*
X123480017Y-105952952D01*
X123548127Y-105830435D01*
X123590871Y-105698215D01*
X123607653Y-105557692D01*
X123607876Y-105543867D01*
X123608756Y-105423734D01*
X123661557Y-105423732D01*
X123708396Y-105430089D01*
X123751183Y-105445556D01*
X123754011Y-105447154D01*
X123763675Y-105452168D01*
X123772549Y-105456073D01*
X123780665Y-105460007D01*
X123788057Y-105465106D01*
X123794755Y-105472508D01*
X123800792Y-105483351D01*
X123806199Y-105498772D01*
X123811010Y-105519909D01*
X123815255Y-105547899D01*
X123818968Y-105583879D01*
X123822179Y-105628987D01*
X123824922Y-105684360D01*
X123827228Y-105751137D01*
X123829129Y-105830453D01*
X123830658Y-105923447D01*
X123831846Y-106031257D01*
X123832726Y-106155019D01*
X123833330Y-106295871D01*
X123833689Y-106454950D01*
X123833835Y-106633395D01*
X123833802Y-106832342D01*
X123833620Y-107052929D01*
X123833323Y-107296293D01*
X123832941Y-107563572D01*
X123832508Y-107855903D01*
X123832055Y-108174424D01*
X123832002Y-108213230D01*
X123831596Y-108533782D01*
X123831251Y-108828012D01*
X123830931Y-109097056D01*
X123830600Y-109342052D01*
X123830221Y-109564137D01*
X123829757Y-109764447D01*
X123829172Y-109944119D01*
X123828430Y-110104290D01*
X123827494Y-110246098D01*
X123826327Y-110370679D01*
X123824893Y-110479170D01*
X123823156Y-110572707D01*
X123821078Y-110652429D01*
X123818624Y-110719472D01*
X123815756Y-110774973D01*
X123812439Y-110820068D01*
X123808636Y-110855895D01*
X123804310Y-110883591D01*
X123799425Y-110904293D01*
X123793945Y-110919137D01*
X123787832Y-110929260D01*
X123781050Y-110935800D01*
X123773563Y-110939893D01*
X123765334Y-110942676D01*
X123756327Y-110945287D01*
X123746505Y-110948862D01*
X123744106Y-110949950D01*
X123736565Y-110952396D01*
X123723944Y-110954642D01*
X123705141Y-110956698D01*
X123679053Y-110958572D01*
X123644578Y-110960271D01*
X123600615Y-110961803D01*
X123546061Y-110963177D01*
X123479815Y-110964400D01*
X123400774Y-110965481D01*
X123307837Y-110966427D01*
X123199901Y-110967247D01*
X123075864Y-110967947D01*
X122934624Y-110968538D01*
X122775079Y-110969025D01*
X122596128Y-110969419D01*
X122396668Y-110969725D01*
X122175596Y-110969953D01*
X121931812Y-110970110D01*
X121664213Y-110970205D01*
X121371697Y-110970245D01*
X121053161Y-110970238D01*
X120949979Y-110970228D01*
X120624377Y-110970176D01*
X120325119Y-110970091D01*
X120051091Y-110969963D01*
X119801176Y-110969785D01*
X119574260Y-110969548D01*
X119369227Y-110969242D01*
X119184962Y-110968860D01*
X119020350Y-110968392D01*
X118874275Y-110967830D01*
X118745624Y-110967165D01*
X118633279Y-110966388D01*
X118536126Y-110965491D01*
X118453050Y-110964465D01*
X118382936Y-110963301D01*
X118324668Y-110961991D01*
X118277131Y-110960525D01*
X118239210Y-110958896D01*
X118209790Y-110957093D01*
X118187755Y-110955110D01*
X118171990Y-110952936D01*
X118161380Y-110950563D01*
X118155596Y-110948391D01*
X118145316Y-110944056D01*
X118135878Y-110940859D01*
X118127245Y-110937665D01*
X118119381Y-110933338D01*
X118112252Y-110926744D01*
X118105821Y-110916747D01*
X118100053Y-110902212D01*
X118094911Y-110882003D01*
X118090360Y-110854985D01*
X118086365Y-110820023D01*
X118082889Y-110775981D01*
X118079898Y-110721724D01*
X118077354Y-110656117D01*
X118075223Y-110578024D01*
X118073468Y-110486310D01*
X118072055Y-110379840D01*
X118071685Y-110338973D01*
X118438116Y-110338973D01*
X119733266Y-110338973D01*
X119708345Y-110301217D01*
X119683553Y-110262417D01*
X119662560Y-110225469D01*
X119645065Y-110187788D01*
X119630770Y-110146788D01*
X119619377Y-110099883D01*
X119610587Y-110044487D01*
X119604102Y-109978016D01*
X119599623Y-109897883D01*
X119596850Y-109801502D01*
X119595487Y-109686289D01*
X119595233Y-109549657D01*
X119595791Y-109389020D01*
X119596107Y-109329382D01*
X119599675Y-108690041D01*
X120004702Y-109241449D01*
X120119446Y-109397876D01*
X120218857Y-109534088D01*
X120304010Y-109651890D01*
X120375978Y-109753084D01*
X120435834Y-109839477D01*
X120484652Y-109912874D01*
X120523505Y-109975077D01*
X120553466Y-110027893D01*
X120575609Y-110073125D01*
X120591007Y-110112578D01*
X120600734Y-110148058D01*
X120605863Y-110181368D01*
X120607468Y-110214313D01*
X120606621Y-110248697D01*
X120606405Y-110253019D01*
X120601946Y-110339031D01*
X122021308Y-110338973D01*
X121915735Y-110232522D01*
X121887087Y-110203406D01*
X121859910Y-110175076D01*
X121833011Y-110145968D01*
X121805197Y-110114520D01*
X121775275Y-110079169D01*
X121742054Y-110038354D01*
X121704339Y-109990511D01*
X121660940Y-109934079D01*
X121610662Y-109867494D01*
X121552312Y-109789195D01*
X121484700Y-109697619D01*
X121406631Y-109591204D01*
X121316912Y-109468387D01*
X121214352Y-109327605D01*
X121097758Y-109167297D01*
X121002191Y-109035798D01*
X120882251Y-108870596D01*
X120777620Y-108726152D01*
X120687352Y-108601094D01*
X120610497Y-108494052D01*
X120546109Y-108403654D01*
X120493239Y-108328529D01*
X120450940Y-108267304D01*
X120418264Y-108218610D01*
X120394262Y-108181074D01*
X120377987Y-108153325D01*
X120368492Y-108133992D01*
X120364827Y-108121703D01*
X120365929Y-108115242D01*
X120379276Y-108098048D01*
X120408134Y-108061655D01*
X120450760Y-108008224D01*
X120505415Y-107939919D01*
X120570356Y-107858903D01*
X120643842Y-107767340D01*
X120724132Y-107667392D01*
X120809485Y-107561224D01*
X120898160Y-107450997D01*
X120988414Y-107338876D01*
X121038056Y-107277244D01*
X122270627Y-107277244D01*
X122321854Y-107369919D01*
X122373081Y-107462595D01*
X122373081Y-110153622D01*
X122321854Y-110246298D01*
X122270627Y-110338973D01*
X122876604Y-110338973D01*
X123021266Y-110338931D01*
X123140756Y-110338741D01*
X123237358Y-110338308D01*
X123313358Y-110337536D01*
X123371043Y-110336330D01*
X123412699Y-110334594D01*
X123440611Y-110332232D01*
X123457065Y-110329150D01*
X123464348Y-110325251D01*
X123464745Y-110320440D01*
X123460542Y-110314622D01*
X123460499Y-110314574D01*
X123443187Y-110289532D01*
X123420264Y-110248815D01*
X123400019Y-110208168D01*
X123361621Y-110126162D01*
X123353789Y-107277244D01*
X122270627Y-107277244D01*
X121038056Y-107277244D01*
X121078507Y-107227024D01*
X121166698Y-107117604D01*
X121251246Y-107012778D01*
X121330408Y-106914711D01*
X121402444Y-106825566D01*
X121465613Y-106747505D01*
X121518173Y-106682692D01*
X121558383Y-106633290D01*
X121582000Y-106604487D01*
X121673710Y-106496778D01*
X121761940Y-106399580D01*
X121843597Y-106316076D01*
X121915590Y-106249448D01*
X121966681Y-106208599D01*
X122027093Y-106165135D01*
X120637702Y-106165135D01*
X120638092Y-106246666D01*
X120634209Y-106306606D01*
X120619610Y-106362177D01*
X120597012Y-106414855D01*
X120582322Y-106444615D01*
X120566528Y-106474103D01*
X120548186Y-106505276D01*
X120525855Y-106540093D01*
X120498091Y-106580510D01*
X120463451Y-106628486D01*
X120420493Y-106685978D01*
X120367773Y-106754943D01*
X120303849Y-106837339D01*
X120227279Y-106935124D01*
X120136619Y-107050255D01*
X120030426Y-107184690D01*
X120018432Y-107199859D01*
X119599675Y-107729412D01*
X119595622Y-107142922D01*
X119594805Y-106967251D01*
X119594979Y-106818532D01*
X119596151Y-106696275D01*
X119598331Y-106599989D01*
X119601526Y-106529183D01*
X119605744Y-106483369D01*
X119607162Y-106474679D01*
X119629409Y-106383135D01*
X119658557Y-106300608D01*
X119691818Y-106234253D01*
X119711800Y-106206110D01*
X119746278Y-106165135D01*
X119092086Y-106165135D01*
X118936031Y-106165269D01*
X118805533Y-106165703D01*
X118698690Y-106166489D01*
X118613602Y-106167676D01*
X118548365Y-106169317D01*
X118501079Y-106171461D01*
X118469843Y-106174159D01*
X118452754Y-106177462D01*
X118447912Y-106181421D01*
X118448247Y-106182298D01*
X118462115Y-106203231D01*
X118485268Y-106236412D01*
X118497246Y-106253193D01*
X118509631Y-106269940D01*
X118520763Y-106284915D01*
X118530712Y-106299594D01*
X118539549Y-106315449D01*
X118547343Y-106333955D01*
X118554165Y-106356585D01*
X118560084Y-106384813D01*
X118565171Y-106420113D01*
X118569496Y-106463958D01*
X118573129Y-106517822D01*
X118576140Y-106583180D01*
X118578599Y-106661504D01*
X118580577Y-106754268D01*
X118582142Y-106862947D01*
X118583366Y-106989013D01*
X118584319Y-107133942D01*
X118585070Y-107299206D01*
X118585689Y-107486279D01*
X118586248Y-107696635D01*
X118586815Y-107931748D01*
X118587345Y-108147741D01*
X118587845Y-108388535D01*
X118588105Y-108618274D01*
X118588132Y-108835493D01*
X118587933Y-109038722D01*
X118587514Y-109226496D01*
X118586882Y-109397345D01*
X118586044Y-109549803D01*
X118585008Y-109682403D01*
X118583780Y-109793676D01*
X118582367Y-109882156D01*
X118580775Y-109946375D01*
X118579013Y-109984865D01*
X118578679Y-109988933D01*
X118566534Y-110082248D01*
X118547573Y-110157190D01*
X118518698Y-110222594D01*
X118476810Y-110287293D01*
X118471571Y-110294352D01*
X118438116Y-110338973D01*
X118071685Y-110338973D01*
X118070946Y-110257479D01*
X118070107Y-110118090D01*
X118069502Y-109960539D01*
X118069095Y-109783691D01*
X118068850Y-109586410D01*
X118068733Y-109367560D01*
X118068705Y-109126007D01*
X118068733Y-108860615D01*
X118068780Y-108570249D01*
X118068810Y-108253773D01*
X118068811Y-108190946D01*
X118068828Y-107871137D01*
X118068888Y-107577661D01*
X118068998Y-107309390D01*
X118069167Y-107065198D01*
X118069403Y-106843957D01*
X118069716Y-106644540D01*
X118070115Y-106465820D01*
X118070607Y-106306671D01*
X118071203Y-106165966D01*
X118071910Y-106042576D01*
X118072737Y-105935376D01*
X118073693Y-105843238D01*
X118074787Y-105765035D01*
X118076027Y-105699641D01*
X118077422Y-105645928D01*
X118078982Y-105602769D01*
X118080714Y-105569037D01*
X118082628Y-105543605D01*
X118084732Y-105525347D01*
X118087034Y-105513134D01*
X118089545Y-105505841D01*
X118089637Y-105505659D01*
X118094808Y-105494518D01*
X118099115Y-105484431D01*
X118103879Y-105475346D01*
X118110422Y-105467212D01*
X118120065Y-105459976D01*
X118134129Y-105453586D01*
X118153937Y-105447989D01*
X118180809Y-105443133D01*
X118216067Y-105438966D01*
X118261032Y-105435436D01*
X118317026Y-105432491D01*
X118385371Y-105430077D01*
X118467386Y-105428144D01*
X118564395Y-105426638D01*
X118677718Y-105425508D01*
X118808677Y-105424702D01*
X118958593Y-105424166D01*
X119128787Y-105423849D01*
X119320582Y-105423699D01*
X119535298Y-105423663D01*
X119774257Y-105423689D01*
G37*
X119774257Y-105423689D02*
X120038780Y-105423725D01*
X120161912Y-105423730D01*
X122132811Y-105423730D01*
X122132811Y-105539910D01*
X122145211Y-105681291D01*
X122182636Y-105811684D01*
X122245423Y-105931862D01*
X122333906Y-106042602D01*
X122363843Y-106072511D01*
X122471534Y-106157348D01*
X122590275Y-106219221D01*
X122716540Y-106258159D01*
X122846803Y-106274190D01*
X122977535Y-106267342D01*
X123105212Y-106237643D01*
X123226305Y-106185120D01*
X123337288Y-106109803D01*
X123387132Y-106064363D01*
X123480017Y-105952952D01*
X123548127Y-105830435D01*
X123590871Y-105698215D01*
X123607653Y-105557692D01*
X123607876Y-105543867D01*
X123608756Y-105423734D01*
X123661557Y-105423732D01*
X123708396Y-105430089D01*
X123751183Y-105445556D01*
X123754011Y-105447154D01*
X123763675Y-105452168D01*
X123772549Y-105456073D01*
X123780665Y-105460007D01*
X123788057Y-105465106D01*
X123794755Y-105472508D01*
X123800792Y-105483351D01*
X123806199Y-105498772D01*
X123811010Y-105519909D01*
X123815255Y-105547899D01*
X123818968Y-105583879D01*
X123822179Y-105628987D01*
X123824922Y-105684360D01*
X123827228Y-105751137D01*
X123829129Y-105830453D01*
X123830658Y-105923447D01*
X123831846Y-106031257D01*
X123832726Y-106155019D01*
X123833330Y-106295871D01*
X123833689Y-106454950D01*
X123833835Y-106633395D01*
X123833802Y-106832342D01*
X123833620Y-107052929D01*
X123833323Y-107296293D01*
X123832941Y-107563572D01*
X123832508Y-107855903D01*
X123832055Y-108174424D01*
X123832002Y-108213230D01*
X123831596Y-108533782D01*
X123831251Y-108828012D01*
X123830931Y-109097056D01*
X123830600Y-109342052D01*
X123830221Y-109564137D01*
X123829757Y-109764447D01*
X123829172Y-109944119D01*
X123828430Y-110104290D01*
X123827494Y-110246098D01*
X123826327Y-110370679D01*
X123824893Y-110479170D01*
X123823156Y-110572707D01*
X123821078Y-110652429D01*
X123818624Y-110719472D01*
X123815756Y-110774973D01*
X123812439Y-110820068D01*
X123808636Y-110855895D01*
X123804310Y-110883591D01*
X123799425Y-110904293D01*
X123793945Y-110919137D01*
X123787832Y-110929260D01*
X123781050Y-110935800D01*
X123773563Y-110939893D01*
X123765334Y-110942676D01*
X123756327Y-110945287D01*
X123746505Y-110948862D01*
X123744106Y-110949950D01*
X123736565Y-110952396D01*
X123723944Y-110954642D01*
X123705141Y-110956698D01*
X123679053Y-110958572D01*
X123644578Y-110960271D01*
X123600615Y-110961803D01*
X123546061Y-110963177D01*
X123479815Y-110964400D01*
X123400774Y-110965481D01*
X123307837Y-110966427D01*
X123199901Y-110967247D01*
X123075864Y-110967947D01*
X122934624Y-110968538D01*
X122775079Y-110969025D01*
X122596128Y-110969419D01*
X122396668Y-110969725D01*
X122175596Y-110969953D01*
X121931812Y-110970110D01*
X121664213Y-110970205D01*
X121371697Y-110970245D01*
X121053161Y-110970238D01*
X120949979Y-110970228D01*
X120624377Y-110970176D01*
X120325119Y-110970091D01*
X120051091Y-110969963D01*
X119801176Y-110969785D01*
X119574260Y-110969548D01*
X119369227Y-110969242D01*
X119184962Y-110968860D01*
X119020350Y-110968392D01*
X118874275Y-110967830D01*
X118745624Y-110967165D01*
X118633279Y-110966388D01*
X118536126Y-110965491D01*
X118453050Y-110964465D01*
X118382936Y-110963301D01*
X118324668Y-110961991D01*
X118277131Y-110960525D01*
X118239210Y-110958896D01*
X118209790Y-110957093D01*
X118187755Y-110955110D01*
X118171990Y-110952936D01*
X118161380Y-110950563D01*
X118155596Y-110948391D01*
X118145316Y-110944056D01*
X118135878Y-110940859D01*
X118127245Y-110937665D01*
X118119381Y-110933338D01*
X118112252Y-110926744D01*
X118105821Y-110916747D01*
X118100053Y-110902212D01*
X118094911Y-110882003D01*
X118090360Y-110854985D01*
X118086365Y-110820023D01*
X118082889Y-110775981D01*
X118079898Y-110721724D01*
X118077354Y-110656117D01*
X118075223Y-110578024D01*
X118073468Y-110486310D01*
X118072055Y-110379840D01*
X118071685Y-110338973D01*
X118438116Y-110338973D01*
X119733266Y-110338973D01*
X119708345Y-110301217D01*
X119683553Y-110262417D01*
X119662560Y-110225469D01*
X119645065Y-110187788D01*
X119630770Y-110146788D01*
X119619377Y-110099883D01*
X119610587Y-110044487D01*
X119604102Y-109978016D01*
X119599623Y-109897883D01*
X119596850Y-109801502D01*
X119595487Y-109686289D01*
X119595233Y-109549657D01*
X119595791Y-109389020D01*
X119596107Y-109329382D01*
X119599675Y-108690041D01*
X120004702Y-109241449D01*
X120119446Y-109397876D01*
X120218857Y-109534088D01*
X120304010Y-109651890D01*
X120375978Y-109753084D01*
X120435834Y-109839477D01*
X120484652Y-109912874D01*
X120523505Y-109975077D01*
X120553466Y-110027893D01*
X120575609Y-110073125D01*
X120591007Y-110112578D01*
X120600734Y-110148058D01*
X120605863Y-110181368D01*
X120607468Y-110214313D01*
X120606621Y-110248697D01*
X120606405Y-110253019D01*
X120601946Y-110339031D01*
X122021308Y-110338973D01*
X121915735Y-110232522D01*
X121887087Y-110203406D01*
X121859910Y-110175076D01*
X121833011Y-110145968D01*
X121805197Y-110114520D01*
X121775275Y-110079169D01*
X121742054Y-110038354D01*
X121704339Y-109990511D01*
X121660940Y-109934079D01*
X121610662Y-109867494D01*
X121552312Y-109789195D01*
X121484700Y-109697619D01*
X121406631Y-109591204D01*
X121316912Y-109468387D01*
X121214352Y-109327605D01*
X121097758Y-109167297D01*
X121002191Y-109035798D01*
X120882251Y-108870596D01*
X120777620Y-108726152D01*
X120687352Y-108601094D01*
X120610497Y-108494052D01*
X120546109Y-108403654D01*
X120493239Y-108328529D01*
X120450940Y-108267304D01*
X120418264Y-108218610D01*
X120394262Y-108181074D01*
X120377987Y-108153325D01*
X120368492Y-108133992D01*
X120364827Y-108121703D01*
X120365929Y-108115242D01*
X120379276Y-108098048D01*
X120408134Y-108061655D01*
X120450760Y-108008224D01*
X120505415Y-107939919D01*
X120570356Y-107858903D01*
X120643842Y-107767340D01*
X120724132Y-107667392D01*
X120809485Y-107561224D01*
X120898160Y-107450997D01*
X120988414Y-107338876D01*
X121038056Y-107277244D01*
X122270627Y-107277244D01*
X122321854Y-107369919D01*
X122373081Y-107462595D01*
X122373081Y-110153622D01*
X122321854Y-110246298D01*
X122270627Y-110338973D01*
X122876604Y-110338973D01*
X123021266Y-110338931D01*
X123140756Y-110338741D01*
X123237358Y-110338308D01*
X123313358Y-110337536D01*
X123371043Y-110336330D01*
X123412699Y-110334594D01*
X123440611Y-110332232D01*
X123457065Y-110329150D01*
X123464348Y-110325251D01*
X123464745Y-110320440D01*
X123460542Y-110314622D01*
X123460499Y-110314574D01*
X123443187Y-110289532D01*
X123420264Y-110248815D01*
X123400019Y-110208168D01*
X123361621Y-110126162D01*
X123353789Y-107277244D01*
X122270627Y-107277244D01*
X121038056Y-107277244D01*
X121078507Y-107227024D01*
X121166698Y-107117604D01*
X121251246Y-107012778D01*
X121330408Y-106914711D01*
X121402444Y-106825566D01*
X121465613Y-106747505D01*
X121518173Y-106682692D01*
X121558383Y-106633290D01*
X121582000Y-106604487D01*
X121673710Y-106496778D01*
X121761940Y-106399580D01*
X121843597Y-106316076D01*
X121915590Y-106249448D01*
X121966681Y-106208599D01*
X122027093Y-106165135D01*
X120637702Y-106165135D01*
X120638092Y-106246666D01*
X120634209Y-106306606D01*
X120619610Y-106362177D01*
X120597012Y-106414855D01*
X120582322Y-106444615D01*
X120566528Y-106474103D01*
X120548186Y-106505276D01*
X120525855Y-106540093D01*
X120498091Y-106580510D01*
X120463451Y-106628486D01*
X120420493Y-106685978D01*
X120367773Y-106754943D01*
X120303849Y-106837339D01*
X120227279Y-106935124D01*
X120136619Y-107050255D01*
X120030426Y-107184690D01*
X120018432Y-107199859D01*
X119599675Y-107729412D01*
X119595622Y-107142922D01*
X119594805Y-106967251D01*
X119594979Y-106818532D01*
X119596151Y-106696275D01*
X119598331Y-106599989D01*
X119601526Y-106529183D01*
X119605744Y-106483369D01*
X119607162Y-106474679D01*
X119629409Y-106383135D01*
X119658557Y-106300608D01*
X119691818Y-106234253D01*
X119711800Y-106206110D01*
X119746278Y-106165135D01*
X119092086Y-106165135D01*
X118936031Y-106165269D01*
X118805533Y-106165703D01*
X118698690Y-106166489D01*
X118613602Y-106167676D01*
X118548365Y-106169317D01*
X118501079Y-106171461D01*
X118469843Y-106174159D01*
X118452754Y-106177462D01*
X118447912Y-106181421D01*
X118448247Y-106182298D01*
X118462115Y-106203231D01*
X118485268Y-106236412D01*
X118497246Y-106253193D01*
X118509631Y-106269940D01*
X118520763Y-106284915D01*
X118530712Y-106299594D01*
X118539549Y-106315449D01*
X118547343Y-106333955D01*
X118554165Y-106356585D01*
X118560084Y-106384813D01*
X118565171Y-106420113D01*
X118569496Y-106463958D01*
X118573129Y-106517822D01*
X118576140Y-106583180D01*
X118578599Y-106661504D01*
X118580577Y-106754268D01*
X118582142Y-106862947D01*
X118583366Y-106989013D01*
X118584319Y-107133942D01*
X118585070Y-107299206D01*
X118585689Y-107486279D01*
X118586248Y-107696635D01*
X118586815Y-107931748D01*
X118587345Y-108147741D01*
X118587845Y-108388535D01*
X118588105Y-108618274D01*
X118588132Y-108835493D01*
X118587933Y-109038722D01*
X118587514Y-109226496D01*
X118586882Y-109397345D01*
X118586044Y-109549803D01*
X118585008Y-109682403D01*
X118583780Y-109793676D01*
X118582367Y-109882156D01*
X118580775Y-109946375D01*
X118579013Y-109984865D01*
X118578679Y-109988933D01*
X118566534Y-110082248D01*
X118547573Y-110157190D01*
X118518698Y-110222594D01*
X118476810Y-110287293D01*
X118471571Y-110294352D01*
X118438116Y-110338973D01*
X118071685Y-110338973D01*
X118070946Y-110257479D01*
X118070107Y-110118090D01*
X118069502Y-109960539D01*
X118069095Y-109783691D01*
X118068850Y-109586410D01*
X118068733Y-109367560D01*
X118068705Y-109126007D01*
X118068733Y-108860615D01*
X118068780Y-108570249D01*
X118068810Y-108253773D01*
X118068811Y-108190946D01*
X118068828Y-107871137D01*
X118068888Y-107577661D01*
X118068998Y-107309390D01*
X118069167Y-107065198D01*
X118069403Y-106843957D01*
X118069716Y-106644540D01*
X118070115Y-106465820D01*
X118070607Y-106306671D01*
X118071203Y-106165966D01*
X118071910Y-106042576D01*
X118072737Y-105935376D01*
X118073693Y-105843238D01*
X118074787Y-105765035D01*
X118076027Y-105699641D01*
X118077422Y-105645928D01*
X118078982Y-105602769D01*
X118080714Y-105569037D01*
X118082628Y-105543605D01*
X118084732Y-105525347D01*
X118087034Y-105513134D01*
X118089545Y-105505841D01*
X118089637Y-105505659D01*
X118094808Y-105494518D01*
X118099115Y-105484431D01*
X118103879Y-105475346D01*
X118110422Y-105467212D01*
X118120065Y-105459976D01*
X118134129Y-105453586D01*
X118153937Y-105447989D01*
X118180809Y-105443133D01*
X118216067Y-105438966D01*
X118261032Y-105435436D01*
X118317026Y-105432491D01*
X118385371Y-105430077D01*
X118467386Y-105428144D01*
X118564395Y-105426638D01*
X118677718Y-105425508D01*
X118808677Y-105424702D01*
X118958593Y-105424166D01*
X119128787Y-105423849D01*
X119320582Y-105423699D01*
X119535298Y-105423663D01*
X119774257Y-105423689D01*
D12*
X154580001Y-58779999D02*
X154580001Y-103780001D01*
X154580001Y-103780001D02*
X109579999Y-103780001D01*
X109579999Y-103780001D02*
X109579999Y-58779999D01*
X109579999Y-58779999D02*
X154580001Y-58779999D01*
X177800000Y-58420000D02*
G75*
G02*
X180340000Y-55880000I2540000J0D01*
G01*
X198120000Y-55880000D02*
G75*
G02*
X200660000Y-58420000I0J-2540000D01*
G01*
X180340000Y-106680000D02*
G75*
G02*
X177800000Y-104140000I0J2540000D01*
G01*
X200660000Y-104140000D02*
G75*
G02*
X198120000Y-106680000I-2540000J0D01*
G01*
X195580000Y-101600000D02*
X195580000Y-71120000D01*
X195580000Y-101600000D02*
X200660000Y-101600000D01*
X195580000Y-99060000D02*
X200660000Y-99060000D01*
X195580000Y-96520000D02*
X200660000Y-96520000D01*
X195580000Y-93980000D02*
X200660000Y-93980000D01*
X195580000Y-91440000D02*
X200660000Y-91440000D01*
X195580000Y-88900000D02*
X200660000Y-88900000D01*
X195580000Y-86360000D02*
X200660000Y-86360000D01*
X195580000Y-83820000D02*
X200660000Y-83820000D01*
X195580000Y-81280000D02*
X200660000Y-81280000D01*
X195580000Y-78740000D02*
X200660000Y-78740000D01*
X195580000Y-76200000D02*
X200660000Y-76200000D01*
X195580000Y-73660000D02*
X200660000Y-73660000D01*
X195580000Y-71120000D02*
X200660000Y-71120000D01*
X177800000Y-63500000D02*
X182880000Y-63500000D01*
X177800000Y-66040000D02*
X182880000Y-66040000D01*
X177800000Y-68580000D02*
X182880000Y-68580000D01*
X177800000Y-71120000D02*
X182880000Y-71120000D01*
X177800000Y-73660000D02*
X182880000Y-73660000D01*
X177800000Y-76200000D02*
X182880000Y-76200000D01*
X177800000Y-78740000D02*
X182880000Y-78740000D01*
X177800000Y-81280000D02*
X182880000Y-81280000D01*
X177800000Y-83820000D02*
X182880000Y-83820000D01*
X177800000Y-86360000D02*
X182880000Y-86360000D01*
X177800000Y-88900000D02*
X182880000Y-88900000D01*
X177800000Y-91440000D02*
X182880000Y-91440000D01*
X177800000Y-93980000D02*
X182880000Y-93980000D01*
X177800000Y-96520000D02*
X182880000Y-96520000D01*
X177800000Y-99060000D02*
X182880000Y-99060000D01*
X177800000Y-101600000D02*
X177800000Y-99060000D01*
X182880000Y-101600000D02*
X177800000Y-101600000D01*
X182880000Y-60960000D02*
X182880000Y-101600000D01*
X177800000Y-60960000D02*
X182880000Y-60960000D01*
X180340000Y-106680000D02*
X198120000Y-106680000D01*
X200660000Y-104140000D02*
X200660000Y-58420000D01*
X198120000Y-55880000D02*
X180340000Y-55880000D01*
X177800000Y-58420000D02*
X177800000Y-104140000D01*
X226060000Y-104140000D02*
G75*
G02*
X223520000Y-106680000I-2540000J0D01*
G01*
X205740000Y-106680000D02*
G75*
G02*
X203200000Y-104140000I0J2540000D01*
G01*
X223520000Y-55880000D02*
G75*
G02*
X226060000Y-58420000I0J-2540000D01*
G01*
X203200000Y-58420000D02*
G75*
G02*
X205740000Y-55880000I2540000J0D01*
G01*
X203200000Y-58420000D02*
X203200000Y-104140000D01*
X223520000Y-55880000D02*
X205740000Y-55880000D01*
X226060000Y-104140000D02*
X226060000Y-58420000D01*
X205740000Y-106680000D02*
X223520000Y-106680000D01*
X203200000Y-60960000D02*
X208280000Y-60960000D01*
X208280000Y-60960000D02*
X208280000Y-101600000D01*
X208280000Y-101600000D02*
X203200000Y-101600000D01*
X203200000Y-101600000D02*
X203200000Y-99060000D01*
X203200000Y-99060000D02*
X208280000Y-99060000D01*
X203200000Y-96520000D02*
X208280000Y-96520000D01*
X203200000Y-93980000D02*
X208280000Y-93980000D01*
X203200000Y-91440000D02*
X208280000Y-91440000D01*
X203200000Y-88900000D02*
X208280000Y-88900000D01*
X203200000Y-86360000D02*
X208280000Y-86360000D01*
X203200000Y-83820000D02*
X208280000Y-83820000D01*
X203200000Y-81280000D02*
X208280000Y-81280000D01*
X203200000Y-78740000D02*
X208280000Y-78740000D01*
X203200000Y-76200000D02*
X208280000Y-76200000D01*
X203200000Y-73660000D02*
X208280000Y-73660000D01*
X203200000Y-71120000D02*
X208280000Y-71120000D01*
X203200000Y-68580000D02*
X208280000Y-68580000D01*
X203200000Y-66040000D02*
X208280000Y-66040000D01*
X203200000Y-63500000D02*
X208280000Y-63500000D01*
X220980000Y-71120000D02*
X226060000Y-71120000D01*
X220980000Y-73660000D02*
X226060000Y-73660000D01*
X220980000Y-76200000D02*
X226060000Y-76200000D01*
X220980000Y-78740000D02*
X226060000Y-78740000D01*
X220980000Y-81280000D02*
X226060000Y-81280000D01*
X220980000Y-83820000D02*
X226060000Y-83820000D01*
X220980000Y-86360000D02*
X226060000Y-86360000D01*
X220980000Y-88900000D02*
X226060000Y-88900000D01*
X220980000Y-91440000D02*
X226060000Y-91440000D01*
X220980000Y-93980000D02*
X226060000Y-93980000D01*
X220980000Y-96520000D02*
X226060000Y-96520000D01*
X220980000Y-99060000D02*
X226060000Y-99060000D01*
X220980000Y-101600000D02*
X226060000Y-101600000D01*
X220980000Y-101600000D02*
X220980000Y-71120000D01*
X138725000Y-105790000D02*
X138725000Y-109210000D01*
X138725000Y-109210000D02*
X153195000Y-109210000D01*
X153195000Y-109210000D02*
X153195000Y-105790000D01*
X153195000Y-105790000D02*
X138725000Y-105790000D01*
X145960000Y-108700000D02*
X139235000Y-108700000D01*
X139235000Y-108700000D02*
X139235000Y-107950000D01*
X139235000Y-107950000D02*
X139035000Y-107950000D01*
X139035000Y-107950000D02*
X139035000Y-107150000D01*
X139035000Y-107150000D02*
X139235000Y-107150000D01*
X139235000Y-107150000D02*
X139235000Y-106300000D01*
X139235000Y-106300000D02*
X145960000Y-106300000D01*
X145960000Y-108700000D02*
X152685000Y-108700000D01*
X152685000Y-108700000D02*
X152685000Y-107950000D01*
X152685000Y-107950000D02*
X152885000Y-107950000D01*
X152885000Y-107950000D02*
X152885000Y-107150000D01*
X152885000Y-107150000D02*
X152685000Y-107150000D01*
X152685000Y-107150000D02*
X152685000Y-106300000D01*
X152685000Y-106300000D02*
X145960000Y-106300000D01*
X138435000Y-109500000D02*
X138435000Y-108500000D01*
X138435000Y-109500000D02*
X139435000Y-109500000D01*
X160020000Y-82550000D02*
X172720000Y-82550000D01*
X172720000Y-107950000D02*
X160020000Y-107950000D01*
X157480000Y-105410000D02*
X157480000Y-85090000D01*
X175260000Y-85090000D02*
X175260000Y-105410000D01*
X175260000Y-105410000D02*
G75*
G02*
X172720000Y-107950000I-2540000J0D01*
G01*
X172720000Y-82550000D02*
G75*
G02*
X175260000Y-85090000I0J-2540000D01*
G01*
X160020000Y-107950000D02*
G75*
G02*
X157480000Y-105410000I0J2540000D01*
G01*
X157480000Y-85090000D02*
G75*
G02*
X160020000Y-82550000I2540000J0D01*
G01*
X236060000Y-66175000D02*
X235435000Y-66175000D01*
X238275000Y-66175000D02*
X237650000Y-66175000D01*
X236060000Y-62135000D02*
X235435000Y-62135000D01*
X238275000Y-62135000D02*
X237650000Y-62135000D01*
X235435000Y-62135000D02*
X235435000Y-66175000D01*
X238275000Y-62135000D02*
X238275000Y-66175000D01*
X233680000Y-60095000D02*
X233680000Y-60865000D01*
X233680000Y-68175000D02*
X233680000Y-67405000D01*
X232310000Y-60865000D02*
X232310000Y-67405000D01*
X235050000Y-60865000D02*
X232310000Y-60865000D01*
X235050000Y-67405000D02*
X235050000Y-60865000D01*
X232310000Y-67405000D02*
X235050000Y-67405000D01*
X230505000Y-68175000D02*
X230505000Y-67405000D01*
X230505000Y-60095000D02*
X230505000Y-60865000D01*
X231875000Y-67405000D02*
X231875000Y-60865000D01*
X229135000Y-67405000D02*
X231875000Y-67405000D01*
X229135000Y-60865000D02*
X229135000Y-67405000D01*
X231875000Y-60865000D02*
X229135000Y-60865000D01*
X238760000Y-76200000D02*
X228600000Y-76200000D01*
X238760000Y-73660000D02*
X238760000Y-76200000D01*
X228600000Y-73660000D02*
X238760000Y-73660000D01*
X228600000Y-76200000D02*
X228600000Y-73660000D01*
X228600000Y-85090000D02*
X228600000Y-82550000D01*
X228600000Y-82550000D02*
X238760000Y-82550000D01*
X238760000Y-82550000D02*
X238760000Y-85090000D01*
X238760000Y-85090000D02*
X228600000Y-85090000D01*
X175260000Y-57150000D02*
X175260000Y-77470000D01*
X157480000Y-77470000D02*
X157480000Y-57150000D01*
X172720000Y-80010000D02*
X160020000Y-80010000D01*
X160020000Y-54610000D02*
X172720000Y-54610000D01*
X157480000Y-57150000D02*
G75*
G02*
X160020000Y-54610000I2540000J0D01*
G01*
X160020000Y-80010000D02*
G75*
G02*
X157480000Y-77470000I0J2540000D01*
G01*
X172720000Y-54610000D02*
G75*
G02*
X175260000Y-57150000I0J-2540000D01*
G01*
X175260000Y-77470000D02*
G75*
G02*
X172720000Y-80010000I-2540000J0D01*
G01*
X229030000Y-103980000D02*
X241250000Y-103980000D01*
X241250000Y-103980000D02*
X241250000Y-91600000D01*
X241250000Y-91600000D02*
X229030000Y-91600000D01*
X229030000Y-91600000D02*
X229030000Y-103980000D01*
X239750000Y-103980000D02*
X237950000Y-103980000D01*
X237950000Y-103980000D02*
X237950000Y-91600000D01*
X237950000Y-91600000D02*
X239750000Y-91600000D01*
X239750000Y-91600000D02*
X239750000Y-103980000D01*
X241250000Y-101330000D02*
X241250000Y-99330000D01*
X241250000Y-99330000D02*
X239750000Y-99580000D01*
X239750000Y-99580000D02*
X239750000Y-101080000D01*
X239750000Y-101080000D02*
X241250000Y-101330000D01*
X241250000Y-96250000D02*
X241250000Y-94250000D01*
X241250000Y-94250000D02*
X239750000Y-94500000D01*
X239750000Y-94500000D02*
X239750000Y-96000000D01*
X239750000Y-96000000D02*
X241250000Y-96250000D01*
X228230000Y-100030000D02*
X228830000Y-100330000D01*
X228830000Y-100330000D02*
X228230000Y-100630000D01*
X228230000Y-100630000D02*
X228230000Y-100030000D01*
D13*
X183787023Y-62682380D02*
X183453690Y-62206190D01*
X183215595Y-62682380D02*
X183215595Y-61682380D01*
X183596547Y-61682380D01*
X183691785Y-61730000D01*
X183739404Y-61777619D01*
X183787023Y-61872857D01*
X183787023Y-62015714D01*
X183739404Y-62110952D01*
X183691785Y-62158571D01*
X183596547Y-62206190D01*
X183215595Y-62206190D01*
X184167976Y-62634761D02*
X184310833Y-62682380D01*
X184548928Y-62682380D01*
X184644166Y-62634761D01*
X184691785Y-62587142D01*
X184739404Y-62491904D01*
X184739404Y-62396666D01*
X184691785Y-62301428D01*
X184644166Y-62253809D01*
X184548928Y-62206190D01*
X184358452Y-62158571D01*
X184263214Y-62110952D01*
X184215595Y-62063333D01*
X184167976Y-61968095D01*
X184167976Y-61872857D01*
X184215595Y-61777619D01*
X184263214Y-61730000D01*
X184358452Y-61682380D01*
X184596547Y-61682380D01*
X184739404Y-61730000D01*
X185025119Y-61682380D02*
X185596547Y-61682380D01*
X185310833Y-62682380D02*
X185310833Y-61682380D01*
X183120357Y-64222380D02*
X183739404Y-64222380D01*
X183406071Y-64603333D01*
X183548928Y-64603333D01*
X183644166Y-64650952D01*
X183691785Y-64698571D01*
X183739404Y-64793809D01*
X183739404Y-65031904D01*
X183691785Y-65127142D01*
X183644166Y-65174761D01*
X183548928Y-65222380D01*
X183263214Y-65222380D01*
X183167976Y-65174761D01*
X183120357Y-65127142D01*
X184025119Y-64222380D02*
X184358452Y-65222380D01*
X184691785Y-64222380D01*
X184929880Y-64222380D02*
X185548928Y-64222380D01*
X185215595Y-64603333D01*
X185358452Y-64603333D01*
X185453690Y-64650952D01*
X185501309Y-64698571D01*
X185548928Y-64793809D01*
X185548928Y-65031904D01*
X185501309Y-65127142D01*
X185453690Y-65174761D01*
X185358452Y-65222380D01*
X185072738Y-65222380D01*
X184977500Y-65174761D01*
X184929880Y-65127142D01*
X183739404Y-69350000D02*
X183644166Y-69302380D01*
X183501309Y-69302380D01*
X183358452Y-69350000D01*
X183263214Y-69445238D01*
X183215595Y-69540476D01*
X183167976Y-69730952D01*
X183167976Y-69873809D01*
X183215595Y-70064285D01*
X183263214Y-70159523D01*
X183358452Y-70254761D01*
X183501309Y-70302380D01*
X183596547Y-70302380D01*
X183739404Y-70254761D01*
X183787023Y-70207142D01*
X183787023Y-69873809D01*
X183596547Y-69873809D01*
X184215595Y-70302380D02*
X184215595Y-69302380D01*
X184787023Y-70302380D01*
X184787023Y-69302380D01*
X185263214Y-70302380D02*
X185263214Y-69302380D01*
X185501309Y-69302380D01*
X185644166Y-69350000D01*
X185739404Y-69445238D01*
X185787023Y-69540476D01*
X185834642Y-69730952D01*
X185834642Y-69873809D01*
X185787023Y-70064285D01*
X185739404Y-70159523D01*
X185644166Y-70254761D01*
X185501309Y-70302380D01*
X185263214Y-70302380D01*
X193434880Y-72318571D02*
X193577738Y-72366190D01*
X193625357Y-72413809D01*
X193672976Y-72509047D01*
X193672976Y-72651904D01*
X193625357Y-72747142D01*
X193577738Y-72794761D01*
X193482500Y-72842380D01*
X193101547Y-72842380D01*
X193101547Y-71842380D01*
X193434880Y-71842380D01*
X193530119Y-71890000D01*
X193577738Y-71937619D01*
X193625357Y-72032857D01*
X193625357Y-72128095D01*
X193577738Y-72223333D01*
X193530119Y-72270952D01*
X193434880Y-72318571D01*
X193101547Y-72318571D01*
X194053928Y-72556666D02*
X194530119Y-72556666D01*
X193958690Y-72842380D02*
X194292023Y-71842380D01*
X194625357Y-72842380D01*
X194815833Y-71842380D02*
X195387261Y-71842380D01*
X195101547Y-72842380D02*
X195101547Y-71842380D01*
X193768214Y-74858571D02*
X194101547Y-74858571D01*
X194244404Y-75382380D02*
X193768214Y-75382380D01*
X193768214Y-74382380D01*
X194244404Y-74382380D01*
X194672976Y-75382380D02*
X194672976Y-74382380D01*
X195244404Y-75382380D01*
X195244404Y-74382380D01*
X192720595Y-76922380D02*
X192720595Y-77731904D01*
X192768214Y-77827142D01*
X192815833Y-77874761D01*
X192911071Y-77922380D01*
X193101547Y-77922380D01*
X193196785Y-77874761D01*
X193244404Y-77827142D01*
X193292023Y-77731904D01*
X193292023Y-76922380D01*
X193720595Y-77874761D02*
X193863452Y-77922380D01*
X194101547Y-77922380D01*
X194196785Y-77874761D01*
X194244404Y-77827142D01*
X194292023Y-77731904D01*
X194292023Y-77636666D01*
X194244404Y-77541428D01*
X194196785Y-77493809D01*
X194101547Y-77446190D01*
X193911071Y-77398571D01*
X193815833Y-77350952D01*
X193768214Y-77303333D01*
X193720595Y-77208095D01*
X193720595Y-77112857D01*
X193768214Y-77017619D01*
X193815833Y-76970000D01*
X193911071Y-76922380D01*
X194149166Y-76922380D01*
X194292023Y-76970000D01*
X195053928Y-77398571D02*
X195196785Y-77446190D01*
X195244404Y-77493809D01*
X195292023Y-77589047D01*
X195292023Y-77731904D01*
X195244404Y-77827142D01*
X195196785Y-77874761D01*
X195101547Y-77922380D01*
X194720595Y-77922380D01*
X194720595Y-76922380D01*
X195053928Y-76922380D01*
X195149166Y-76970000D01*
X195196785Y-77017619D01*
X195244404Y-77112857D01*
X195244404Y-77208095D01*
X195196785Y-77303333D01*
X195149166Y-77350952D01*
X195053928Y-77398571D01*
X194720595Y-77398571D01*
X192911071Y-98194761D02*
X193053928Y-98242380D01*
X193292023Y-98242380D01*
X193387261Y-98194761D01*
X193434880Y-98147142D01*
X193482500Y-98051904D01*
X193482500Y-97956666D01*
X193434880Y-97861428D01*
X193387261Y-97813809D01*
X193292023Y-97766190D01*
X193101547Y-97718571D01*
X193006309Y-97670952D01*
X192958690Y-97623333D01*
X192911071Y-97528095D01*
X192911071Y-97432857D01*
X192958690Y-97337619D01*
X193006309Y-97290000D01*
X193101547Y-97242380D01*
X193339642Y-97242380D01*
X193482500Y-97290000D01*
X194482500Y-98147142D02*
X194434880Y-98194761D01*
X194292023Y-98242380D01*
X194196785Y-98242380D01*
X194053928Y-98194761D01*
X193958690Y-98099523D01*
X193911071Y-98004285D01*
X193863452Y-97813809D01*
X193863452Y-97670952D01*
X193911071Y-97480476D01*
X193958690Y-97385238D01*
X194053928Y-97290000D01*
X194196785Y-97242380D01*
X194292023Y-97242380D01*
X194434880Y-97290000D01*
X194482500Y-97337619D01*
X195387261Y-98242380D02*
X194911071Y-98242380D01*
X194911071Y-97242380D01*
X192863452Y-100734761D02*
X193006309Y-100782380D01*
X193244404Y-100782380D01*
X193339642Y-100734761D01*
X193387261Y-100687142D01*
X193434880Y-100591904D01*
X193434880Y-100496666D01*
X193387261Y-100401428D01*
X193339642Y-100353809D01*
X193244404Y-100306190D01*
X193053928Y-100258571D01*
X192958690Y-100210952D01*
X192911071Y-100163333D01*
X192863452Y-100068095D01*
X192863452Y-99972857D01*
X192911071Y-99877619D01*
X192958690Y-99830000D01*
X193053928Y-99782380D01*
X193292023Y-99782380D01*
X193434880Y-99830000D01*
X193863452Y-100782380D02*
X193863452Y-99782380D01*
X194101547Y-99782380D01*
X194244404Y-99830000D01*
X194339642Y-99925238D01*
X194387261Y-100020476D01*
X194434880Y-100210952D01*
X194434880Y-100353809D01*
X194387261Y-100544285D01*
X194339642Y-100639523D01*
X194244404Y-100734761D01*
X194101547Y-100782380D01*
X193863452Y-100782380D01*
X194815833Y-100496666D02*
X195292023Y-100496666D01*
X194720595Y-100782380D02*
X195053928Y-99782380D01*
X195387261Y-100782380D01*
X183072738Y-97242380D02*
X183644166Y-97242380D01*
X183358452Y-98242380D02*
X183358452Y-97242380D01*
X183882261Y-97242380D02*
X184548928Y-98242380D01*
X184548928Y-97242380D02*
X183882261Y-98242380D01*
X183787023Y-95702380D02*
X183453690Y-95226190D01*
X183215595Y-95702380D02*
X183215595Y-94702380D01*
X183596547Y-94702380D01*
X183691785Y-94750000D01*
X183739404Y-94797619D01*
X183787023Y-94892857D01*
X183787023Y-95035714D01*
X183739404Y-95130952D01*
X183691785Y-95178571D01*
X183596547Y-95226190D01*
X183215595Y-95226190D01*
X184120357Y-94702380D02*
X184787023Y-95702380D01*
X184787023Y-94702380D02*
X184120357Y-95702380D01*
X183215595Y-93162380D02*
X183215595Y-92162380D01*
X183548928Y-92876666D01*
X183882261Y-92162380D01*
X183882261Y-93162380D01*
X184358452Y-93162380D02*
X184358452Y-92162380D01*
X184787023Y-93114761D02*
X184929880Y-93162380D01*
X185167976Y-93162380D01*
X185263214Y-93114761D01*
X185310833Y-93067142D01*
X185358452Y-92971904D01*
X185358452Y-92876666D01*
X185310833Y-92781428D01*
X185263214Y-92733809D01*
X185167976Y-92686190D01*
X184977500Y-92638571D01*
X184882261Y-92590952D01*
X184834642Y-92543333D01*
X184787023Y-92448095D01*
X184787023Y-92352857D01*
X184834642Y-92257619D01*
X184882261Y-92210000D01*
X184977500Y-92162380D01*
X185215595Y-92162380D01*
X185358452Y-92210000D01*
X185977500Y-92162380D02*
X186167976Y-92162380D01*
X186263214Y-92210000D01*
X186358452Y-92305238D01*
X186406071Y-92495714D01*
X186406071Y-92829047D01*
X186358452Y-93019523D01*
X186263214Y-93114761D01*
X186167976Y-93162380D01*
X185977500Y-93162380D01*
X185882261Y-93114761D01*
X185787023Y-93019523D01*
X185739404Y-92829047D01*
X185739404Y-92495714D01*
X185787023Y-92305238D01*
X185882261Y-92210000D01*
X185977500Y-92162380D01*
X183215595Y-90622380D02*
X183215595Y-89622380D01*
X183548928Y-90336666D01*
X183882261Y-89622380D01*
X183882261Y-90622380D01*
X184548928Y-89622380D02*
X184739404Y-89622380D01*
X184834642Y-89670000D01*
X184929880Y-89765238D01*
X184977500Y-89955714D01*
X184977500Y-90289047D01*
X184929880Y-90479523D01*
X184834642Y-90574761D01*
X184739404Y-90622380D01*
X184548928Y-90622380D01*
X184453690Y-90574761D01*
X184358452Y-90479523D01*
X184310833Y-90289047D01*
X184310833Y-89955714D01*
X184358452Y-89765238D01*
X184453690Y-89670000D01*
X184548928Y-89622380D01*
X185358452Y-90574761D02*
X185501309Y-90622380D01*
X185739404Y-90622380D01*
X185834642Y-90574761D01*
X185882261Y-90527142D01*
X185929880Y-90431904D01*
X185929880Y-90336666D01*
X185882261Y-90241428D01*
X185834642Y-90193809D01*
X185739404Y-90146190D01*
X185548928Y-90098571D01*
X185453690Y-90050952D01*
X185406071Y-90003333D01*
X185358452Y-89908095D01*
X185358452Y-89812857D01*
X185406071Y-89717619D01*
X185453690Y-89670000D01*
X185548928Y-89622380D01*
X185787023Y-89622380D01*
X185929880Y-89670000D01*
X186358452Y-90622380D02*
X186358452Y-89622380D01*
X183167976Y-88034761D02*
X183310833Y-88082380D01*
X183548928Y-88082380D01*
X183644166Y-88034761D01*
X183691785Y-87987142D01*
X183739404Y-87891904D01*
X183739404Y-87796666D01*
X183691785Y-87701428D01*
X183644166Y-87653809D01*
X183548928Y-87606190D01*
X183358452Y-87558571D01*
X183263214Y-87510952D01*
X183215595Y-87463333D01*
X183167976Y-87368095D01*
X183167976Y-87272857D01*
X183215595Y-87177619D01*
X183263214Y-87130000D01*
X183358452Y-87082380D01*
X183596547Y-87082380D01*
X183739404Y-87130000D01*
X184739404Y-87987142D02*
X184691785Y-88034761D01*
X184548928Y-88082380D01*
X184453690Y-88082380D01*
X184310833Y-88034761D01*
X184215595Y-87939523D01*
X184167976Y-87844285D01*
X184120357Y-87653809D01*
X184120357Y-87510952D01*
X184167976Y-87320476D01*
X184215595Y-87225238D01*
X184310833Y-87130000D01*
X184453690Y-87082380D01*
X184548928Y-87082380D01*
X184691785Y-87130000D01*
X184739404Y-87177619D01*
X185167976Y-88082380D02*
X185167976Y-87082380D01*
X185739404Y-88082380D02*
X185310833Y-87510952D01*
X185739404Y-87082380D02*
X185167976Y-87653809D01*
X183167976Y-67476666D02*
X183644166Y-67476666D01*
X183072738Y-67762380D02*
X183406071Y-66762380D01*
X183739404Y-67762380D01*
X184644166Y-67762380D02*
X184310833Y-67286190D01*
X184072738Y-67762380D02*
X184072738Y-66762380D01*
X184453690Y-66762380D01*
X184548928Y-66810000D01*
X184596547Y-66857619D01*
X184644166Y-66952857D01*
X184644166Y-67095714D01*
X184596547Y-67190952D01*
X184548928Y-67238571D01*
X184453690Y-67286190D01*
X184072738Y-67286190D01*
X185072738Y-67238571D02*
X185406071Y-67238571D01*
X185548928Y-67762380D02*
X185072738Y-67762380D01*
X185072738Y-66762380D01*
X185548928Y-66762380D01*
X186310833Y-67238571D02*
X185977500Y-67238571D01*
X185977500Y-67762380D02*
X185977500Y-66762380D01*
X186453690Y-66762380D01*
X183167976Y-72556666D02*
X183644166Y-72556666D01*
X183072738Y-72842380D02*
X183406071Y-71842380D01*
X183739404Y-72842380D01*
X184263214Y-71842380D02*
X184358452Y-71842380D01*
X184453690Y-71890000D01*
X184501309Y-71937619D01*
X184548928Y-72032857D01*
X184596547Y-72223333D01*
X184596547Y-72461428D01*
X184548928Y-72651904D01*
X184501309Y-72747142D01*
X184453690Y-72794761D01*
X184358452Y-72842380D01*
X184263214Y-72842380D01*
X184167976Y-72794761D01*
X184120357Y-72747142D01*
X184072738Y-72651904D01*
X184025119Y-72461428D01*
X184025119Y-72223333D01*
X184072738Y-72032857D01*
X184120357Y-71937619D01*
X184167976Y-71890000D01*
X184263214Y-71842380D01*
X183167976Y-75096666D02*
X183644166Y-75096666D01*
X183072738Y-75382380D02*
X183406071Y-74382380D01*
X183739404Y-75382380D01*
X184596547Y-75382380D02*
X184025119Y-75382380D01*
X184310833Y-75382380D02*
X184310833Y-74382380D01*
X184215595Y-74525238D01*
X184120357Y-74620476D01*
X184025119Y-74668095D01*
X183167976Y-77636666D02*
X183644166Y-77636666D01*
X183072738Y-77922380D02*
X183406071Y-76922380D01*
X183739404Y-77922380D01*
X184025119Y-77017619D02*
X184072738Y-76970000D01*
X184167976Y-76922380D01*
X184406071Y-76922380D01*
X184501309Y-76970000D01*
X184548928Y-77017619D01*
X184596547Y-77112857D01*
X184596547Y-77208095D01*
X184548928Y-77350952D01*
X183977500Y-77922380D01*
X184596547Y-77922380D01*
X183167976Y-80176666D02*
X183644166Y-80176666D01*
X183072738Y-80462380D02*
X183406071Y-79462380D01*
X183739404Y-80462380D01*
X183977500Y-79462380D02*
X184596547Y-79462380D01*
X184263214Y-79843333D01*
X184406071Y-79843333D01*
X184501309Y-79890952D01*
X184548928Y-79938571D01*
X184596547Y-80033809D01*
X184596547Y-80271904D01*
X184548928Y-80367142D01*
X184501309Y-80414761D01*
X184406071Y-80462380D01*
X184120357Y-80462380D01*
X184025119Y-80414761D01*
X183977500Y-80367142D01*
X183167976Y-82716666D02*
X183644166Y-82716666D01*
X183072738Y-83002380D02*
X183406071Y-82002380D01*
X183739404Y-83002380D01*
X184501309Y-82335714D02*
X184501309Y-83002380D01*
X184263214Y-81954761D02*
X184025119Y-82669047D01*
X184644166Y-82669047D01*
X183167976Y-85256666D02*
X183644166Y-85256666D01*
X183072738Y-85542380D02*
X183406071Y-84542380D01*
X183739404Y-85542380D01*
X184548928Y-84542380D02*
X184072738Y-84542380D01*
X184025119Y-85018571D01*
X184072738Y-84970952D01*
X184167976Y-84923333D01*
X184406071Y-84923333D01*
X184501309Y-84970952D01*
X184548928Y-85018571D01*
X184596547Y-85113809D01*
X184596547Y-85351904D01*
X184548928Y-85447142D01*
X184501309Y-85494761D01*
X184406071Y-85542380D01*
X184167976Y-85542380D01*
X184072738Y-85494761D01*
X184025119Y-85447142D01*
X183739404Y-99830000D02*
X183644166Y-99782380D01*
X183501309Y-99782380D01*
X183358452Y-99830000D01*
X183263214Y-99925238D01*
X183215595Y-100020476D01*
X183167976Y-100210952D01*
X183167976Y-100353809D01*
X183215595Y-100544285D01*
X183263214Y-100639523D01*
X183358452Y-100734761D01*
X183501309Y-100782380D01*
X183596547Y-100782380D01*
X183739404Y-100734761D01*
X183787023Y-100687142D01*
X183787023Y-100353809D01*
X183596547Y-100353809D01*
X184215595Y-100782380D02*
X184215595Y-99782380D01*
X184787023Y-100782380D01*
X184787023Y-99782380D01*
X185263214Y-100782380D02*
X185263214Y-99782380D01*
X185501309Y-99782380D01*
X185644166Y-99830000D01*
X185739404Y-99925238D01*
X185787023Y-100020476D01*
X185834642Y-100210952D01*
X185834642Y-100353809D01*
X185787023Y-100544285D01*
X185739404Y-100639523D01*
X185644166Y-100734761D01*
X185501309Y-100782380D01*
X185263214Y-100782380D01*
X194339642Y-80462380D02*
X193768214Y-80462380D01*
X194053928Y-80462380D02*
X194053928Y-79462380D01*
X193958690Y-79605238D01*
X193863452Y-79700476D01*
X193768214Y-79748095D01*
X194672976Y-79462380D02*
X195292023Y-79462380D01*
X194958690Y-79843333D01*
X195101547Y-79843333D01*
X195196785Y-79890952D01*
X195244404Y-79938571D01*
X195292023Y-80033809D01*
X195292023Y-80271904D01*
X195244404Y-80367142D01*
X195196785Y-80414761D01*
X195101547Y-80462380D01*
X194815833Y-80462380D01*
X194720595Y-80414761D01*
X194672976Y-80367142D01*
X194339642Y-83002380D02*
X193768214Y-83002380D01*
X194053928Y-83002380D02*
X194053928Y-82002380D01*
X193958690Y-82145238D01*
X193863452Y-82240476D01*
X193768214Y-82288095D01*
X194720595Y-82097619D02*
X194768214Y-82050000D01*
X194863452Y-82002380D01*
X195101547Y-82002380D01*
X195196785Y-82050000D01*
X195244404Y-82097619D01*
X195292023Y-82192857D01*
X195292023Y-82288095D01*
X195244404Y-82430952D01*
X194672976Y-83002380D01*
X195292023Y-83002380D01*
X194339642Y-85542380D02*
X193768214Y-85542380D01*
X194053928Y-85542380D02*
X194053928Y-84542380D01*
X193958690Y-84685238D01*
X193863452Y-84780476D01*
X193768214Y-84828095D01*
X195292023Y-85542380D02*
X194720595Y-85542380D01*
X195006309Y-85542380D02*
X195006309Y-84542380D01*
X194911071Y-84685238D01*
X194815833Y-84780476D01*
X194720595Y-84828095D01*
X194339642Y-88082380D02*
X193768214Y-88082380D01*
X194053928Y-88082380D02*
X194053928Y-87082380D01*
X193958690Y-87225238D01*
X193863452Y-87320476D01*
X193768214Y-87368095D01*
X194958690Y-87082380D02*
X195053928Y-87082380D01*
X195149166Y-87130000D01*
X195196785Y-87177619D01*
X195244404Y-87272857D01*
X195292023Y-87463333D01*
X195292023Y-87701428D01*
X195244404Y-87891904D01*
X195196785Y-87987142D01*
X195149166Y-88034761D01*
X195053928Y-88082380D01*
X194958690Y-88082380D01*
X194863452Y-88034761D01*
X194815833Y-87987142D01*
X194768214Y-87891904D01*
X194720595Y-87701428D01*
X194720595Y-87463333D01*
X194768214Y-87272857D01*
X194815833Y-87177619D01*
X194863452Y-87130000D01*
X194958690Y-87082380D01*
X194815833Y-90622380D02*
X195006309Y-90622380D01*
X195101547Y-90574761D01*
X195149166Y-90527142D01*
X195244404Y-90384285D01*
X195292023Y-90193809D01*
X195292023Y-89812857D01*
X195244404Y-89717619D01*
X195196785Y-89670000D01*
X195101547Y-89622380D01*
X194911071Y-89622380D01*
X194815833Y-89670000D01*
X194768214Y-89717619D01*
X194720595Y-89812857D01*
X194720595Y-90050952D01*
X194768214Y-90146190D01*
X194815833Y-90193809D01*
X194911071Y-90241428D01*
X195101547Y-90241428D01*
X195196785Y-90193809D01*
X195244404Y-90146190D01*
X195292023Y-90050952D01*
X195196785Y-92162380D02*
X195006309Y-92162380D01*
X194911071Y-92210000D01*
X194863452Y-92257619D01*
X194768214Y-92400476D01*
X194720595Y-92590952D01*
X194720595Y-92971904D01*
X194768214Y-93067142D01*
X194815833Y-93114761D01*
X194911071Y-93162380D01*
X195101547Y-93162380D01*
X195196785Y-93114761D01*
X195244404Y-93067142D01*
X195292023Y-92971904D01*
X195292023Y-92733809D01*
X195244404Y-92638571D01*
X195196785Y-92590952D01*
X195101547Y-92543333D01*
X194911071Y-92543333D01*
X194815833Y-92590952D01*
X194768214Y-92638571D01*
X194720595Y-92733809D01*
X195244404Y-94702380D02*
X194768214Y-94702380D01*
X194720595Y-95178571D01*
X194768214Y-95130952D01*
X194863452Y-95083333D01*
X195101547Y-95083333D01*
X195196785Y-95130952D01*
X195244404Y-95178571D01*
X195292023Y-95273809D01*
X195292023Y-95511904D01*
X195244404Y-95607142D01*
X195196785Y-95654761D01*
X195101547Y-95702380D01*
X194863452Y-95702380D01*
X194768214Y-95654761D01*
X194720595Y-95607142D01*
X220644404Y-94702380D02*
X220168214Y-94702380D01*
X220120595Y-95178571D01*
X220168214Y-95130952D01*
X220263452Y-95083333D01*
X220501547Y-95083333D01*
X220596785Y-95130952D01*
X220644404Y-95178571D01*
X220692023Y-95273809D01*
X220692023Y-95511904D01*
X220644404Y-95607142D01*
X220596785Y-95654761D01*
X220501547Y-95702380D01*
X220263452Y-95702380D01*
X220168214Y-95654761D01*
X220120595Y-95607142D01*
X220596785Y-92162380D02*
X220406309Y-92162380D01*
X220311071Y-92210000D01*
X220263452Y-92257619D01*
X220168214Y-92400476D01*
X220120595Y-92590952D01*
X220120595Y-92971904D01*
X220168214Y-93067142D01*
X220215833Y-93114761D01*
X220311071Y-93162380D01*
X220501547Y-93162380D01*
X220596785Y-93114761D01*
X220644404Y-93067142D01*
X220692023Y-92971904D01*
X220692023Y-92733809D01*
X220644404Y-92638571D01*
X220596785Y-92590952D01*
X220501547Y-92543333D01*
X220311071Y-92543333D01*
X220215833Y-92590952D01*
X220168214Y-92638571D01*
X220120595Y-92733809D01*
X220215833Y-90622380D02*
X220406309Y-90622380D01*
X220501547Y-90574761D01*
X220549166Y-90527142D01*
X220644404Y-90384285D01*
X220692023Y-90193809D01*
X220692023Y-89812857D01*
X220644404Y-89717619D01*
X220596785Y-89670000D01*
X220501547Y-89622380D01*
X220311071Y-89622380D01*
X220215833Y-89670000D01*
X220168214Y-89717619D01*
X220120595Y-89812857D01*
X220120595Y-90050952D01*
X220168214Y-90146190D01*
X220215833Y-90193809D01*
X220311071Y-90241428D01*
X220501547Y-90241428D01*
X220596785Y-90193809D01*
X220644404Y-90146190D01*
X220692023Y-90050952D01*
X219739642Y-88082380D02*
X219168214Y-88082380D01*
X219453928Y-88082380D02*
X219453928Y-87082380D01*
X219358690Y-87225238D01*
X219263452Y-87320476D01*
X219168214Y-87368095D01*
X220358690Y-87082380D02*
X220453928Y-87082380D01*
X220549166Y-87130000D01*
X220596785Y-87177619D01*
X220644404Y-87272857D01*
X220692023Y-87463333D01*
X220692023Y-87701428D01*
X220644404Y-87891904D01*
X220596785Y-87987142D01*
X220549166Y-88034761D01*
X220453928Y-88082380D01*
X220358690Y-88082380D01*
X220263452Y-88034761D01*
X220215833Y-87987142D01*
X220168214Y-87891904D01*
X220120595Y-87701428D01*
X220120595Y-87463333D01*
X220168214Y-87272857D01*
X220215833Y-87177619D01*
X220263452Y-87130000D01*
X220358690Y-87082380D01*
X219739642Y-85542380D02*
X219168214Y-85542380D01*
X219453928Y-85542380D02*
X219453928Y-84542380D01*
X219358690Y-84685238D01*
X219263452Y-84780476D01*
X219168214Y-84828095D01*
X220692023Y-85542380D02*
X220120595Y-85542380D01*
X220406309Y-85542380D02*
X220406309Y-84542380D01*
X220311071Y-84685238D01*
X220215833Y-84780476D01*
X220120595Y-84828095D01*
X219739642Y-83002380D02*
X219168214Y-83002380D01*
X219453928Y-83002380D02*
X219453928Y-82002380D01*
X219358690Y-82145238D01*
X219263452Y-82240476D01*
X219168214Y-82288095D01*
X220120595Y-82097619D02*
X220168214Y-82050000D01*
X220263452Y-82002380D01*
X220501547Y-82002380D01*
X220596785Y-82050000D01*
X220644404Y-82097619D01*
X220692023Y-82192857D01*
X220692023Y-82288095D01*
X220644404Y-82430952D01*
X220072976Y-83002380D01*
X220692023Y-83002380D01*
X219739642Y-80462380D02*
X219168214Y-80462380D01*
X219453928Y-80462380D02*
X219453928Y-79462380D01*
X219358690Y-79605238D01*
X219263452Y-79700476D01*
X219168214Y-79748095D01*
X220072976Y-79462380D02*
X220692023Y-79462380D01*
X220358690Y-79843333D01*
X220501547Y-79843333D01*
X220596785Y-79890952D01*
X220644404Y-79938571D01*
X220692023Y-80033809D01*
X220692023Y-80271904D01*
X220644404Y-80367142D01*
X220596785Y-80414761D01*
X220501547Y-80462380D01*
X220215833Y-80462380D01*
X220120595Y-80414761D01*
X220072976Y-80367142D01*
X209139404Y-99830000D02*
X209044166Y-99782380D01*
X208901309Y-99782380D01*
X208758452Y-99830000D01*
X208663214Y-99925238D01*
X208615595Y-100020476D01*
X208567976Y-100210952D01*
X208567976Y-100353809D01*
X208615595Y-100544285D01*
X208663214Y-100639523D01*
X208758452Y-100734761D01*
X208901309Y-100782380D01*
X208996547Y-100782380D01*
X209139404Y-100734761D01*
X209187023Y-100687142D01*
X209187023Y-100353809D01*
X208996547Y-100353809D01*
X209615595Y-100782380D02*
X209615595Y-99782380D01*
X210187023Y-100782380D01*
X210187023Y-99782380D01*
X210663214Y-100782380D02*
X210663214Y-99782380D01*
X210901309Y-99782380D01*
X211044166Y-99830000D01*
X211139404Y-99925238D01*
X211187023Y-100020476D01*
X211234642Y-100210952D01*
X211234642Y-100353809D01*
X211187023Y-100544285D01*
X211139404Y-100639523D01*
X211044166Y-100734761D01*
X210901309Y-100782380D01*
X210663214Y-100782380D01*
X208567976Y-85256666D02*
X209044166Y-85256666D01*
X208472738Y-85542380D02*
X208806071Y-84542380D01*
X209139404Y-85542380D01*
X209948928Y-84542380D02*
X209472738Y-84542380D01*
X209425119Y-85018571D01*
X209472738Y-84970952D01*
X209567976Y-84923333D01*
X209806071Y-84923333D01*
X209901309Y-84970952D01*
X209948928Y-85018571D01*
X209996547Y-85113809D01*
X209996547Y-85351904D01*
X209948928Y-85447142D01*
X209901309Y-85494761D01*
X209806071Y-85542380D01*
X209567976Y-85542380D01*
X209472738Y-85494761D01*
X209425119Y-85447142D01*
X208567976Y-82716666D02*
X209044166Y-82716666D01*
X208472738Y-83002380D02*
X208806071Y-82002380D01*
X209139404Y-83002380D01*
X209901309Y-82335714D02*
X209901309Y-83002380D01*
X209663214Y-81954761D02*
X209425119Y-82669047D01*
X210044166Y-82669047D01*
X208567976Y-80176666D02*
X209044166Y-80176666D01*
X208472738Y-80462380D02*
X208806071Y-79462380D01*
X209139404Y-80462380D01*
X209377500Y-79462380D02*
X209996547Y-79462380D01*
X209663214Y-79843333D01*
X209806071Y-79843333D01*
X209901309Y-79890952D01*
X209948928Y-79938571D01*
X209996547Y-80033809D01*
X209996547Y-80271904D01*
X209948928Y-80367142D01*
X209901309Y-80414761D01*
X209806071Y-80462380D01*
X209520357Y-80462380D01*
X209425119Y-80414761D01*
X209377500Y-80367142D01*
X208567976Y-77636666D02*
X209044166Y-77636666D01*
X208472738Y-77922380D02*
X208806071Y-76922380D01*
X209139404Y-77922380D01*
X209425119Y-77017619D02*
X209472738Y-76970000D01*
X209567976Y-76922380D01*
X209806071Y-76922380D01*
X209901309Y-76970000D01*
X209948928Y-77017619D01*
X209996547Y-77112857D01*
X209996547Y-77208095D01*
X209948928Y-77350952D01*
X209377500Y-77922380D01*
X209996547Y-77922380D01*
X208567976Y-75096666D02*
X209044166Y-75096666D01*
X208472738Y-75382380D02*
X208806071Y-74382380D01*
X209139404Y-75382380D01*
X209996547Y-75382380D02*
X209425119Y-75382380D01*
X209710833Y-75382380D02*
X209710833Y-74382380D01*
X209615595Y-74525238D01*
X209520357Y-74620476D01*
X209425119Y-74668095D01*
X208567976Y-72556666D02*
X209044166Y-72556666D01*
X208472738Y-72842380D02*
X208806071Y-71842380D01*
X209139404Y-72842380D01*
X209663214Y-71842380D02*
X209758452Y-71842380D01*
X209853690Y-71890000D01*
X209901309Y-71937619D01*
X209948928Y-72032857D01*
X209996547Y-72223333D01*
X209996547Y-72461428D01*
X209948928Y-72651904D01*
X209901309Y-72747142D01*
X209853690Y-72794761D01*
X209758452Y-72842380D01*
X209663214Y-72842380D01*
X209567976Y-72794761D01*
X209520357Y-72747142D01*
X209472738Y-72651904D01*
X209425119Y-72461428D01*
X209425119Y-72223333D01*
X209472738Y-72032857D01*
X209520357Y-71937619D01*
X209567976Y-71890000D01*
X209663214Y-71842380D01*
X208567976Y-67476666D02*
X209044166Y-67476666D01*
X208472738Y-67762380D02*
X208806071Y-66762380D01*
X209139404Y-67762380D01*
X210044166Y-67762380D02*
X209710833Y-67286190D01*
X209472738Y-67762380D02*
X209472738Y-66762380D01*
X209853690Y-66762380D01*
X209948928Y-66810000D01*
X209996547Y-66857619D01*
X210044166Y-66952857D01*
X210044166Y-67095714D01*
X209996547Y-67190952D01*
X209948928Y-67238571D01*
X209853690Y-67286190D01*
X209472738Y-67286190D01*
X210472738Y-67238571D02*
X210806071Y-67238571D01*
X210948928Y-67762380D02*
X210472738Y-67762380D01*
X210472738Y-66762380D01*
X210948928Y-66762380D01*
X211710833Y-67238571D02*
X211377500Y-67238571D01*
X211377500Y-67762380D02*
X211377500Y-66762380D01*
X211853690Y-66762380D01*
X208567976Y-88034761D02*
X208710833Y-88082380D01*
X208948928Y-88082380D01*
X209044166Y-88034761D01*
X209091785Y-87987142D01*
X209139404Y-87891904D01*
X209139404Y-87796666D01*
X209091785Y-87701428D01*
X209044166Y-87653809D01*
X208948928Y-87606190D01*
X208758452Y-87558571D01*
X208663214Y-87510952D01*
X208615595Y-87463333D01*
X208567976Y-87368095D01*
X208567976Y-87272857D01*
X208615595Y-87177619D01*
X208663214Y-87130000D01*
X208758452Y-87082380D01*
X208996547Y-87082380D01*
X209139404Y-87130000D01*
X210139404Y-87987142D02*
X210091785Y-88034761D01*
X209948928Y-88082380D01*
X209853690Y-88082380D01*
X209710833Y-88034761D01*
X209615595Y-87939523D01*
X209567976Y-87844285D01*
X209520357Y-87653809D01*
X209520357Y-87510952D01*
X209567976Y-87320476D01*
X209615595Y-87225238D01*
X209710833Y-87130000D01*
X209853690Y-87082380D01*
X209948928Y-87082380D01*
X210091785Y-87130000D01*
X210139404Y-87177619D01*
X210567976Y-88082380D02*
X210567976Y-87082380D01*
X211139404Y-88082380D02*
X210710833Y-87510952D01*
X211139404Y-87082380D02*
X210567976Y-87653809D01*
X208615595Y-90622380D02*
X208615595Y-89622380D01*
X208948928Y-90336666D01*
X209282261Y-89622380D01*
X209282261Y-90622380D01*
X209948928Y-89622380D02*
X210139404Y-89622380D01*
X210234642Y-89670000D01*
X210329880Y-89765238D01*
X210377500Y-89955714D01*
X210377500Y-90289047D01*
X210329880Y-90479523D01*
X210234642Y-90574761D01*
X210139404Y-90622380D01*
X209948928Y-90622380D01*
X209853690Y-90574761D01*
X209758452Y-90479523D01*
X209710833Y-90289047D01*
X209710833Y-89955714D01*
X209758452Y-89765238D01*
X209853690Y-89670000D01*
X209948928Y-89622380D01*
X210758452Y-90574761D02*
X210901309Y-90622380D01*
X211139404Y-90622380D01*
X211234642Y-90574761D01*
X211282261Y-90527142D01*
X211329880Y-90431904D01*
X211329880Y-90336666D01*
X211282261Y-90241428D01*
X211234642Y-90193809D01*
X211139404Y-90146190D01*
X210948928Y-90098571D01*
X210853690Y-90050952D01*
X210806071Y-90003333D01*
X210758452Y-89908095D01*
X210758452Y-89812857D01*
X210806071Y-89717619D01*
X210853690Y-89670000D01*
X210948928Y-89622380D01*
X211187023Y-89622380D01*
X211329880Y-89670000D01*
X211758452Y-90622380D02*
X211758452Y-89622380D01*
X208615595Y-93162380D02*
X208615595Y-92162380D01*
X208948928Y-92876666D01*
X209282261Y-92162380D01*
X209282261Y-93162380D01*
X209758452Y-93162380D02*
X209758452Y-92162380D01*
X210187023Y-93114761D02*
X210329880Y-93162380D01*
X210567976Y-93162380D01*
X210663214Y-93114761D01*
X210710833Y-93067142D01*
X210758452Y-92971904D01*
X210758452Y-92876666D01*
X210710833Y-92781428D01*
X210663214Y-92733809D01*
X210567976Y-92686190D01*
X210377500Y-92638571D01*
X210282261Y-92590952D01*
X210234642Y-92543333D01*
X210187023Y-92448095D01*
X210187023Y-92352857D01*
X210234642Y-92257619D01*
X210282261Y-92210000D01*
X210377500Y-92162380D01*
X210615595Y-92162380D01*
X210758452Y-92210000D01*
X211377500Y-92162380D02*
X211567976Y-92162380D01*
X211663214Y-92210000D01*
X211758452Y-92305238D01*
X211806071Y-92495714D01*
X211806071Y-92829047D01*
X211758452Y-93019523D01*
X211663214Y-93114761D01*
X211567976Y-93162380D01*
X211377500Y-93162380D01*
X211282261Y-93114761D01*
X211187023Y-93019523D01*
X211139404Y-92829047D01*
X211139404Y-92495714D01*
X211187023Y-92305238D01*
X211282261Y-92210000D01*
X211377500Y-92162380D01*
X209187023Y-95702380D02*
X208853690Y-95226190D01*
X208615595Y-95702380D02*
X208615595Y-94702380D01*
X208996547Y-94702380D01*
X209091785Y-94750000D01*
X209139404Y-94797619D01*
X209187023Y-94892857D01*
X209187023Y-95035714D01*
X209139404Y-95130952D01*
X209091785Y-95178571D01*
X208996547Y-95226190D01*
X208615595Y-95226190D01*
X209520357Y-94702380D02*
X210187023Y-95702380D01*
X210187023Y-94702380D02*
X209520357Y-95702380D01*
X208472738Y-97242380D02*
X209044166Y-97242380D01*
X208758452Y-98242380D02*
X208758452Y-97242380D01*
X209282261Y-97242380D02*
X209948928Y-98242380D01*
X209948928Y-97242380D02*
X209282261Y-98242380D01*
X218263452Y-100734761D02*
X218406309Y-100782380D01*
X218644404Y-100782380D01*
X218739642Y-100734761D01*
X218787261Y-100687142D01*
X218834880Y-100591904D01*
X218834880Y-100496666D01*
X218787261Y-100401428D01*
X218739642Y-100353809D01*
X218644404Y-100306190D01*
X218453928Y-100258571D01*
X218358690Y-100210952D01*
X218311071Y-100163333D01*
X218263452Y-100068095D01*
X218263452Y-99972857D01*
X218311071Y-99877619D01*
X218358690Y-99830000D01*
X218453928Y-99782380D01*
X218692023Y-99782380D01*
X218834880Y-99830000D01*
X219263452Y-100782380D02*
X219263452Y-99782380D01*
X219501547Y-99782380D01*
X219644404Y-99830000D01*
X219739642Y-99925238D01*
X219787261Y-100020476D01*
X219834880Y-100210952D01*
X219834880Y-100353809D01*
X219787261Y-100544285D01*
X219739642Y-100639523D01*
X219644404Y-100734761D01*
X219501547Y-100782380D01*
X219263452Y-100782380D01*
X220215833Y-100496666D02*
X220692023Y-100496666D01*
X220120595Y-100782380D02*
X220453928Y-99782380D01*
X220787261Y-100782380D01*
X218311071Y-98194761D02*
X218453928Y-98242380D01*
X218692023Y-98242380D01*
X218787261Y-98194761D01*
X218834880Y-98147142D01*
X218882500Y-98051904D01*
X218882500Y-97956666D01*
X218834880Y-97861428D01*
X218787261Y-97813809D01*
X218692023Y-97766190D01*
X218501547Y-97718571D01*
X218406309Y-97670952D01*
X218358690Y-97623333D01*
X218311071Y-97528095D01*
X218311071Y-97432857D01*
X218358690Y-97337619D01*
X218406309Y-97290000D01*
X218501547Y-97242380D01*
X218739642Y-97242380D01*
X218882500Y-97290000D01*
X219882500Y-98147142D02*
X219834880Y-98194761D01*
X219692023Y-98242380D01*
X219596785Y-98242380D01*
X219453928Y-98194761D01*
X219358690Y-98099523D01*
X219311071Y-98004285D01*
X219263452Y-97813809D01*
X219263452Y-97670952D01*
X219311071Y-97480476D01*
X219358690Y-97385238D01*
X219453928Y-97290000D01*
X219596785Y-97242380D01*
X219692023Y-97242380D01*
X219834880Y-97290000D01*
X219882500Y-97337619D01*
X220787261Y-98242380D02*
X220311071Y-98242380D01*
X220311071Y-97242380D01*
X218120595Y-76922380D02*
X218120595Y-77731904D01*
X218168214Y-77827142D01*
X218215833Y-77874761D01*
X218311071Y-77922380D01*
X218501547Y-77922380D01*
X218596785Y-77874761D01*
X218644404Y-77827142D01*
X218692023Y-77731904D01*
X218692023Y-76922380D01*
X219120595Y-77874761D02*
X219263452Y-77922380D01*
X219501547Y-77922380D01*
X219596785Y-77874761D01*
X219644404Y-77827142D01*
X219692023Y-77731904D01*
X219692023Y-77636666D01*
X219644404Y-77541428D01*
X219596785Y-77493809D01*
X219501547Y-77446190D01*
X219311071Y-77398571D01*
X219215833Y-77350952D01*
X219168214Y-77303333D01*
X219120595Y-77208095D01*
X219120595Y-77112857D01*
X219168214Y-77017619D01*
X219215833Y-76970000D01*
X219311071Y-76922380D01*
X219549166Y-76922380D01*
X219692023Y-76970000D01*
X220453928Y-77398571D02*
X220596785Y-77446190D01*
X220644404Y-77493809D01*
X220692023Y-77589047D01*
X220692023Y-77731904D01*
X220644404Y-77827142D01*
X220596785Y-77874761D01*
X220501547Y-77922380D01*
X220120595Y-77922380D01*
X220120595Y-76922380D01*
X220453928Y-76922380D01*
X220549166Y-76970000D01*
X220596785Y-77017619D01*
X220644404Y-77112857D01*
X220644404Y-77208095D01*
X220596785Y-77303333D01*
X220549166Y-77350952D01*
X220453928Y-77398571D01*
X220120595Y-77398571D01*
X219168214Y-74858571D02*
X219501547Y-74858571D01*
X219644404Y-75382380D02*
X219168214Y-75382380D01*
X219168214Y-74382380D01*
X219644404Y-74382380D01*
X220072976Y-75382380D02*
X220072976Y-74382380D01*
X220644404Y-75382380D01*
X220644404Y-74382380D01*
X218834880Y-72318571D02*
X218977738Y-72366190D01*
X219025357Y-72413809D01*
X219072976Y-72509047D01*
X219072976Y-72651904D01*
X219025357Y-72747142D01*
X218977738Y-72794761D01*
X218882500Y-72842380D01*
X218501547Y-72842380D01*
X218501547Y-71842380D01*
X218834880Y-71842380D01*
X218930119Y-71890000D01*
X218977738Y-71937619D01*
X219025357Y-72032857D01*
X219025357Y-72128095D01*
X218977738Y-72223333D01*
X218930119Y-72270952D01*
X218834880Y-72318571D01*
X218501547Y-72318571D01*
X219453928Y-72556666D02*
X219930119Y-72556666D01*
X219358690Y-72842380D02*
X219692023Y-71842380D01*
X220025357Y-72842380D01*
X220215833Y-71842380D02*
X220787261Y-71842380D01*
X220501547Y-72842380D02*
X220501547Y-71842380D01*
X209139404Y-69350000D02*
X209044166Y-69302380D01*
X208901309Y-69302380D01*
X208758452Y-69350000D01*
X208663214Y-69445238D01*
X208615595Y-69540476D01*
X208567976Y-69730952D01*
X208567976Y-69873809D01*
X208615595Y-70064285D01*
X208663214Y-70159523D01*
X208758452Y-70254761D01*
X208901309Y-70302380D01*
X208996547Y-70302380D01*
X209139404Y-70254761D01*
X209187023Y-70207142D01*
X209187023Y-69873809D01*
X208996547Y-69873809D01*
X209615595Y-70302380D02*
X209615595Y-69302380D01*
X210187023Y-70302380D01*
X210187023Y-69302380D01*
X210663214Y-70302380D02*
X210663214Y-69302380D01*
X210901309Y-69302380D01*
X211044166Y-69350000D01*
X211139404Y-69445238D01*
X211187023Y-69540476D01*
X211234642Y-69730952D01*
X211234642Y-69873809D01*
X211187023Y-70064285D01*
X211139404Y-70159523D01*
X211044166Y-70254761D01*
X210901309Y-70302380D01*
X210663214Y-70302380D01*
X208520357Y-64222380D02*
X209139404Y-64222380D01*
X208806071Y-64603333D01*
X208948928Y-64603333D01*
X209044166Y-64650952D01*
X209091785Y-64698571D01*
X209139404Y-64793809D01*
X209139404Y-65031904D01*
X209091785Y-65127142D01*
X209044166Y-65174761D01*
X208948928Y-65222380D01*
X208663214Y-65222380D01*
X208567976Y-65174761D01*
X208520357Y-65127142D01*
X209425119Y-64222380D02*
X209758452Y-65222380D01*
X210091785Y-64222380D01*
X210329880Y-64222380D02*
X210948928Y-64222380D01*
X210615595Y-64603333D01*
X210758452Y-64603333D01*
X210853690Y-64650952D01*
X210901309Y-64698571D01*
X210948928Y-64793809D01*
X210948928Y-65031904D01*
X210901309Y-65127142D01*
X210853690Y-65174761D01*
X210758452Y-65222380D01*
X210472738Y-65222380D01*
X210377500Y-65174761D01*
X210329880Y-65127142D01*
X209187023Y-62682380D02*
X208853690Y-62206190D01*
X208615595Y-62682380D02*
X208615595Y-61682380D01*
X208996547Y-61682380D01*
X209091785Y-61730000D01*
X209139404Y-61777619D01*
X209187023Y-61872857D01*
X209187023Y-62015714D01*
X209139404Y-62110952D01*
X209091785Y-62158571D01*
X208996547Y-62206190D01*
X208615595Y-62206190D01*
X209567976Y-62634761D02*
X209710833Y-62682380D01*
X209948928Y-62682380D01*
X210044166Y-62634761D01*
X210091785Y-62587142D01*
X210139404Y-62491904D01*
X210139404Y-62396666D01*
X210091785Y-62301428D01*
X210044166Y-62253809D01*
X209948928Y-62206190D01*
X209758452Y-62158571D01*
X209663214Y-62110952D01*
X209615595Y-62063333D01*
X209567976Y-61968095D01*
X209567976Y-61872857D01*
X209615595Y-61777619D01*
X209663214Y-61730000D01*
X209758452Y-61682380D01*
X209996547Y-61682380D01*
X210139404Y-61730000D01*
X210425119Y-61682380D02*
X210996547Y-61682380D01*
X210710833Y-62682380D02*
X210710833Y-61682380D01*
X169066785Y-101052380D02*
X169400119Y-102052380D01*
X169733452Y-101052380D01*
X170066785Y-102052380D02*
X170066785Y-101052380D01*
X170542976Y-102052380D02*
X170542976Y-101052380D01*
X171114404Y-102052380D01*
X171114404Y-101052380D01*
X168733452Y-98512380D02*
X169352500Y-98512380D01*
X169019166Y-98893333D01*
X169162023Y-98893333D01*
X169257261Y-98940952D01*
X169304880Y-98988571D01*
X169352500Y-99083809D01*
X169352500Y-99321904D01*
X169304880Y-99417142D01*
X169257261Y-99464761D01*
X169162023Y-99512380D01*
X168876309Y-99512380D01*
X168781071Y-99464761D01*
X168733452Y-99417142D01*
X169638214Y-98512380D02*
X169971547Y-99512380D01*
X170304880Y-98512380D01*
X170542976Y-98512380D02*
X171162023Y-98512380D01*
X170828690Y-98893333D01*
X170971547Y-98893333D01*
X171066785Y-98940952D01*
X171114404Y-98988571D01*
X171162023Y-99083809D01*
X171162023Y-99321904D01*
X171114404Y-99417142D01*
X171066785Y-99464761D01*
X170971547Y-99512380D01*
X170685833Y-99512380D01*
X170590595Y-99464761D01*
X170542976Y-99417142D01*
X168733452Y-91844761D02*
X168876309Y-91892380D01*
X169114404Y-91892380D01*
X169209642Y-91844761D01*
X169257261Y-91797142D01*
X169304880Y-91701904D01*
X169304880Y-91606666D01*
X169257261Y-91511428D01*
X169209642Y-91463809D01*
X169114404Y-91416190D01*
X168923928Y-91368571D01*
X168828690Y-91320952D01*
X168781071Y-91273333D01*
X168733452Y-91178095D01*
X168733452Y-91082857D01*
X168781071Y-90987619D01*
X168828690Y-90940000D01*
X168923928Y-90892380D01*
X169162023Y-90892380D01*
X169304880Y-90940000D01*
X169733452Y-91892380D02*
X169733452Y-90892380D01*
X169971547Y-90892380D01*
X170114404Y-90940000D01*
X170209642Y-91035238D01*
X170257261Y-91130476D01*
X170304880Y-91320952D01*
X170304880Y-91463809D01*
X170257261Y-91654285D01*
X170209642Y-91749523D01*
X170114404Y-91844761D01*
X169971547Y-91892380D01*
X169733452Y-91892380D01*
X170685833Y-91606666D02*
X171162023Y-91606666D01*
X170590595Y-91892380D02*
X170923928Y-90892380D01*
X171257261Y-91892380D01*
X169066785Y-96020000D02*
X168971547Y-95972380D01*
X168828690Y-95972380D01*
X168685833Y-96020000D01*
X168590595Y-96115238D01*
X168542976Y-96210476D01*
X168495357Y-96400952D01*
X168495357Y-96543809D01*
X168542976Y-96734285D01*
X168590595Y-96829523D01*
X168685833Y-96924761D01*
X168828690Y-96972380D01*
X168923928Y-96972380D01*
X169066785Y-96924761D01*
X169114404Y-96877142D01*
X169114404Y-96543809D01*
X168923928Y-96543809D01*
X169542976Y-96972380D02*
X169542976Y-95972380D01*
X170114404Y-96972380D01*
X170114404Y-95972380D01*
X170590595Y-96972380D02*
X170590595Y-95972380D01*
X170828690Y-95972380D01*
X170971547Y-96020000D01*
X171066785Y-96115238D01*
X171114404Y-96210476D01*
X171162023Y-96400952D01*
X171162023Y-96543809D01*
X171114404Y-96734285D01*
X171066785Y-96829523D01*
X170971547Y-96924761D01*
X170828690Y-96972380D01*
X170590595Y-96972380D01*
X168781071Y-94384761D02*
X168923928Y-94432380D01*
X169162023Y-94432380D01*
X169257261Y-94384761D01*
X169304880Y-94337142D01*
X169352500Y-94241904D01*
X169352500Y-94146666D01*
X169304880Y-94051428D01*
X169257261Y-94003809D01*
X169162023Y-93956190D01*
X168971547Y-93908571D01*
X168876309Y-93860952D01*
X168828690Y-93813333D01*
X168781071Y-93718095D01*
X168781071Y-93622857D01*
X168828690Y-93527619D01*
X168876309Y-93480000D01*
X168971547Y-93432380D01*
X169209642Y-93432380D01*
X169352500Y-93480000D01*
X170352500Y-94337142D02*
X170304880Y-94384761D01*
X170162023Y-94432380D01*
X170066785Y-94432380D01*
X169923928Y-94384761D01*
X169828690Y-94289523D01*
X169781071Y-94194285D01*
X169733452Y-94003809D01*
X169733452Y-93860952D01*
X169781071Y-93670476D01*
X169828690Y-93575238D01*
X169923928Y-93480000D01*
X170066785Y-93432380D01*
X170162023Y-93432380D01*
X170304880Y-93480000D01*
X170352500Y-93527619D01*
X171257261Y-94432380D02*
X170781071Y-94432380D01*
X170781071Y-93432380D01*
X169304880Y-89352380D02*
X169304880Y-88352380D01*
X169781071Y-89352380D02*
X169781071Y-88352380D01*
X170352500Y-89352380D01*
X170352500Y-88352380D01*
X170685833Y-88352380D02*
X171257261Y-88352380D01*
X170971547Y-89352380D02*
X170971547Y-88352380D01*
X236688333Y-61317142D02*
X236640714Y-61364761D01*
X236497857Y-61412380D01*
X236402619Y-61412380D01*
X236259761Y-61364761D01*
X236164523Y-61269523D01*
X236116904Y-61174285D01*
X236069285Y-60983809D01*
X236069285Y-60840952D01*
X236116904Y-60650476D01*
X236164523Y-60555238D01*
X236259761Y-60460000D01*
X236402619Y-60412380D01*
X236497857Y-60412380D01*
X236640714Y-60460000D01*
X236688333Y-60507619D01*
X237640714Y-61412380D02*
X237069285Y-61412380D01*
X237355000Y-61412380D02*
X237355000Y-60412380D01*
X237259761Y-60555238D01*
X237164523Y-60650476D01*
X237069285Y-60698095D01*
X233513333Y-57602380D02*
X233180000Y-57126190D01*
X232941904Y-57602380D02*
X232941904Y-56602380D01*
X233322857Y-56602380D01*
X233418095Y-56650000D01*
X233465714Y-56697619D01*
X233513333Y-56792857D01*
X233513333Y-56935714D01*
X233465714Y-57030952D01*
X233418095Y-57078571D01*
X233322857Y-57126190D01*
X232941904Y-57126190D01*
X234465714Y-57602380D02*
X233894285Y-57602380D01*
X234180000Y-57602380D02*
X234180000Y-56602380D01*
X234084761Y-56745238D01*
X233989523Y-56840476D01*
X233894285Y-56888095D01*
X230338333Y-57602380D02*
X230005000Y-57126190D01*
X229766904Y-57602380D02*
X229766904Y-56602380D01*
X230147857Y-56602380D01*
X230243095Y-56650000D01*
X230290714Y-56697619D01*
X230338333Y-56792857D01*
X230338333Y-56935714D01*
X230290714Y-57030952D01*
X230243095Y-57078571D01*
X230147857Y-57126190D01*
X229766904Y-57126190D01*
X230719285Y-56697619D02*
X230766904Y-56650000D01*
X230862142Y-56602380D01*
X231100238Y-56602380D01*
X231195476Y-56650000D01*
X231243095Y-56697619D01*
X231290714Y-56792857D01*
X231290714Y-56888095D01*
X231243095Y-57030952D01*
X230671666Y-57602380D01*
X231290714Y-57602380D01*
X236575000Y-80345119D02*
X236575000Y-79392738D01*
X237894761Y-80154642D02*
X237942380Y-80011785D01*
X237942380Y-79773690D01*
X237894761Y-79678452D01*
X237847142Y-79630833D01*
X237751904Y-79583214D01*
X237656666Y-79583214D01*
X237561428Y-79630833D01*
X237513809Y-79678452D01*
X237466190Y-79773690D01*
X237418571Y-79964166D01*
X237370952Y-80059404D01*
X237323333Y-80107023D01*
X237228095Y-80154642D01*
X237132857Y-80154642D01*
X237037619Y-80107023D01*
X236990000Y-80059404D01*
X236942380Y-79964166D01*
X236942380Y-79726071D01*
X236990000Y-79583214D01*
X236575000Y-79392738D02*
X236575000Y-78345119D01*
X237942380Y-79154642D02*
X236942380Y-79154642D01*
X237418571Y-79154642D02*
X237418571Y-78583214D01*
X237942380Y-78583214D02*
X236942380Y-78583214D01*
X236575000Y-78345119D02*
X236575000Y-77345119D01*
X237942380Y-78107023D02*
X236942380Y-78107023D01*
X236942380Y-77868928D01*
X236990000Y-77726071D01*
X237085238Y-77630833D01*
X237180476Y-77583214D01*
X237370952Y-77535595D01*
X237513809Y-77535595D01*
X237704285Y-77583214D01*
X237799523Y-77630833D01*
X237894761Y-77726071D01*
X237942380Y-77868928D01*
X237942380Y-78107023D01*
X236575000Y-77345119D02*
X236575000Y-76297500D01*
X237942380Y-77107023D02*
X236942380Y-77107023D01*
X237942380Y-76535595D01*
X236942380Y-76535595D01*
X234402380Y-78583214D02*
X235402380Y-78249880D01*
X234402380Y-77916547D01*
X235402380Y-77583214D02*
X234402380Y-77583214D01*
X235402380Y-77107023D02*
X234402380Y-77107023D01*
X235402380Y-76535595D01*
X234402380Y-76535595D01*
X231910000Y-78583214D02*
X231862380Y-78678452D01*
X231862380Y-78821309D01*
X231910000Y-78964166D01*
X232005238Y-79059404D01*
X232100476Y-79107023D01*
X232290952Y-79154642D01*
X232433809Y-79154642D01*
X232624285Y-79107023D01*
X232719523Y-79059404D01*
X232814761Y-78964166D01*
X232862380Y-78821309D01*
X232862380Y-78726071D01*
X232814761Y-78583214D01*
X232767142Y-78535595D01*
X232433809Y-78535595D01*
X232433809Y-78726071D01*
X232862380Y-78107023D02*
X231862380Y-78107023D01*
X232862380Y-77535595D01*
X231862380Y-77535595D01*
X232862380Y-77059404D02*
X231862380Y-77059404D01*
X231862380Y-76821309D01*
X231910000Y-76678452D01*
X232005238Y-76583214D01*
X232100476Y-76535595D01*
X232290952Y-76487976D01*
X232433809Y-76487976D01*
X232624285Y-76535595D01*
X232719523Y-76583214D01*
X232814761Y-76678452D01*
X232862380Y-76821309D01*
X232862380Y-77059404D01*
X229322380Y-79916547D02*
X230322380Y-79583214D01*
X229322380Y-79249880D01*
X229322380Y-78726071D02*
X229322380Y-78535595D01*
X229370000Y-78440357D01*
X229465238Y-78345119D01*
X229655714Y-78297500D01*
X229989047Y-78297500D01*
X230179523Y-78345119D01*
X230274761Y-78440357D01*
X230322380Y-78535595D01*
X230322380Y-78726071D01*
X230274761Y-78821309D01*
X230179523Y-78916547D01*
X229989047Y-78964166D01*
X229655714Y-78964166D01*
X229465238Y-78916547D01*
X229370000Y-78821309D01*
X229322380Y-78726071D01*
X229322380Y-77868928D02*
X230131904Y-77868928D01*
X230227142Y-77821309D01*
X230274761Y-77773690D01*
X230322380Y-77678452D01*
X230322380Y-77487976D01*
X230274761Y-77392738D01*
X230227142Y-77345119D01*
X230131904Y-77297500D01*
X229322380Y-77297500D01*
X229322380Y-76964166D02*
X229322380Y-76392738D01*
X230322380Y-76678452D02*
X229322380Y-76678452D01*
X229322380Y-88806547D02*
X230322380Y-88473214D01*
X229322380Y-88139880D01*
X229322380Y-87616071D02*
X229322380Y-87425595D01*
X229370000Y-87330357D01*
X229465238Y-87235119D01*
X229655714Y-87187500D01*
X229989047Y-87187500D01*
X230179523Y-87235119D01*
X230274761Y-87330357D01*
X230322380Y-87425595D01*
X230322380Y-87616071D01*
X230274761Y-87711309D01*
X230179523Y-87806547D01*
X229989047Y-87854166D01*
X229655714Y-87854166D01*
X229465238Y-87806547D01*
X229370000Y-87711309D01*
X229322380Y-87616071D01*
X229322380Y-86758928D02*
X230131904Y-86758928D01*
X230227142Y-86711309D01*
X230274761Y-86663690D01*
X230322380Y-86568452D01*
X230322380Y-86377976D01*
X230274761Y-86282738D01*
X230227142Y-86235119D01*
X230131904Y-86187500D01*
X229322380Y-86187500D01*
X229322380Y-85854166D02*
X229322380Y-85282738D01*
X230322380Y-85568452D02*
X229322380Y-85568452D01*
X231910000Y-87473214D02*
X231862380Y-87568452D01*
X231862380Y-87711309D01*
X231910000Y-87854166D01*
X232005238Y-87949404D01*
X232100476Y-87997023D01*
X232290952Y-88044642D01*
X232433809Y-88044642D01*
X232624285Y-87997023D01*
X232719523Y-87949404D01*
X232814761Y-87854166D01*
X232862380Y-87711309D01*
X232862380Y-87616071D01*
X232814761Y-87473214D01*
X232767142Y-87425595D01*
X232433809Y-87425595D01*
X232433809Y-87616071D01*
X232862380Y-86997023D02*
X231862380Y-86997023D01*
X232862380Y-86425595D01*
X231862380Y-86425595D01*
X232862380Y-85949404D02*
X231862380Y-85949404D01*
X231862380Y-85711309D01*
X231910000Y-85568452D01*
X232005238Y-85473214D01*
X232100476Y-85425595D01*
X232290952Y-85377976D01*
X232433809Y-85377976D01*
X232624285Y-85425595D01*
X232719523Y-85473214D01*
X232814761Y-85568452D01*
X232862380Y-85711309D01*
X232862380Y-85949404D01*
X234402380Y-87473214D02*
X235402380Y-87139880D01*
X234402380Y-86806547D01*
X235402380Y-86473214D02*
X234402380Y-86473214D01*
X235402380Y-85997023D02*
X234402380Y-85997023D01*
X235402380Y-85425595D01*
X234402380Y-85425595D01*
X236575000Y-89235119D02*
X236575000Y-88282738D01*
X237894761Y-89044642D02*
X237942380Y-88901785D01*
X237942380Y-88663690D01*
X237894761Y-88568452D01*
X237847142Y-88520833D01*
X237751904Y-88473214D01*
X237656666Y-88473214D01*
X237561428Y-88520833D01*
X237513809Y-88568452D01*
X237466190Y-88663690D01*
X237418571Y-88854166D01*
X237370952Y-88949404D01*
X237323333Y-88997023D01*
X237228095Y-89044642D01*
X237132857Y-89044642D01*
X237037619Y-88997023D01*
X236990000Y-88949404D01*
X236942380Y-88854166D01*
X236942380Y-88616071D01*
X236990000Y-88473214D01*
X236575000Y-88282738D02*
X236575000Y-87235119D01*
X237942380Y-88044642D02*
X236942380Y-88044642D01*
X237418571Y-88044642D02*
X237418571Y-87473214D01*
X237942380Y-87473214D02*
X236942380Y-87473214D01*
X236575000Y-87235119D02*
X236575000Y-86235119D01*
X237942380Y-86997023D02*
X236942380Y-86997023D01*
X236942380Y-86758928D01*
X236990000Y-86616071D01*
X237085238Y-86520833D01*
X237180476Y-86473214D01*
X237370952Y-86425595D01*
X237513809Y-86425595D01*
X237704285Y-86473214D01*
X237799523Y-86520833D01*
X237894761Y-86616071D01*
X237942380Y-86758928D01*
X237942380Y-86997023D01*
X236575000Y-86235119D02*
X236575000Y-85187500D01*
X237942380Y-85997023D02*
X236942380Y-85997023D01*
X237942380Y-85425595D01*
X236942380Y-85425595D01*
X155662380Y-68071904D02*
X156471904Y-68071904D01*
X156567142Y-68024285D01*
X156614761Y-67976666D01*
X156662380Y-67881428D01*
X156662380Y-67690952D01*
X156614761Y-67595714D01*
X156567142Y-67548095D01*
X156471904Y-67500476D01*
X155662380Y-67500476D01*
X155757619Y-67071904D02*
X155710000Y-67024285D01*
X155662380Y-66929047D01*
X155662380Y-66690952D01*
X155710000Y-66595714D01*
X155757619Y-66548095D01*
X155852857Y-66500476D01*
X155948095Y-66500476D01*
X156090952Y-66548095D01*
X156662380Y-67119523D01*
X156662380Y-66500476D01*
X169066785Y-74382380D02*
X169400119Y-75382380D01*
X169733452Y-74382380D01*
X170066785Y-75382380D02*
X170066785Y-74382380D01*
X170542976Y-75382380D02*
X170542976Y-74382380D01*
X171114404Y-75382380D01*
X171114404Y-74382380D01*
X168733452Y-71842380D02*
X169352500Y-71842380D01*
X169019166Y-72223333D01*
X169162023Y-72223333D01*
X169257261Y-72270952D01*
X169304880Y-72318571D01*
X169352500Y-72413809D01*
X169352500Y-72651904D01*
X169304880Y-72747142D01*
X169257261Y-72794761D01*
X169162023Y-72842380D01*
X168876309Y-72842380D01*
X168781071Y-72794761D01*
X168733452Y-72747142D01*
X169638214Y-71842380D02*
X169971547Y-72842380D01*
X170304880Y-71842380D01*
X170542976Y-71842380D02*
X171162023Y-71842380D01*
X170828690Y-72223333D01*
X170971547Y-72223333D01*
X171066785Y-72270952D01*
X171114404Y-72318571D01*
X171162023Y-72413809D01*
X171162023Y-72651904D01*
X171114404Y-72747142D01*
X171066785Y-72794761D01*
X170971547Y-72842380D01*
X170685833Y-72842380D01*
X170590595Y-72794761D01*
X170542976Y-72747142D01*
X168542976Y-65174761D02*
X168685833Y-65222380D01*
X168923928Y-65222380D01*
X169019166Y-65174761D01*
X169066785Y-65127142D01*
X169114404Y-65031904D01*
X169114404Y-64936666D01*
X169066785Y-64841428D01*
X169019166Y-64793809D01*
X168923928Y-64746190D01*
X168733452Y-64698571D01*
X168638214Y-64650952D01*
X168590595Y-64603333D01*
X168542976Y-64508095D01*
X168542976Y-64412857D01*
X168590595Y-64317619D01*
X168638214Y-64270000D01*
X168733452Y-64222380D01*
X168971547Y-64222380D01*
X169114404Y-64270000D01*
X169542976Y-65222380D02*
X169542976Y-64222380D01*
X169781071Y-64222380D01*
X169923928Y-64270000D01*
X170019166Y-64365238D01*
X170066785Y-64460476D01*
X170114404Y-64650952D01*
X170114404Y-64793809D01*
X170066785Y-64984285D01*
X170019166Y-65079523D01*
X169923928Y-65174761D01*
X169781071Y-65222380D01*
X169542976Y-65222380D01*
X170733452Y-64222380D02*
X170923928Y-64222380D01*
X171019166Y-64270000D01*
X171114404Y-64365238D01*
X171162023Y-64555714D01*
X171162023Y-64889047D01*
X171114404Y-65079523D01*
X171019166Y-65174761D01*
X170923928Y-65222380D01*
X170733452Y-65222380D01*
X170638214Y-65174761D01*
X170542976Y-65079523D01*
X170495357Y-64889047D01*
X170495357Y-64555714D01*
X170542976Y-64365238D01*
X170638214Y-64270000D01*
X170733452Y-64222380D01*
X169066785Y-69350000D02*
X168971547Y-69302380D01*
X168828690Y-69302380D01*
X168685833Y-69350000D01*
X168590595Y-69445238D01*
X168542976Y-69540476D01*
X168495357Y-69730952D01*
X168495357Y-69873809D01*
X168542976Y-70064285D01*
X168590595Y-70159523D01*
X168685833Y-70254761D01*
X168828690Y-70302380D01*
X168923928Y-70302380D01*
X169066785Y-70254761D01*
X169114404Y-70207142D01*
X169114404Y-69873809D01*
X168923928Y-69873809D01*
X169542976Y-70302380D02*
X169542976Y-69302380D01*
X170114404Y-70302380D01*
X170114404Y-69302380D01*
X170590595Y-70302380D02*
X170590595Y-69302380D01*
X170828690Y-69302380D01*
X170971547Y-69350000D01*
X171066785Y-69445238D01*
X171114404Y-69540476D01*
X171162023Y-69730952D01*
X171162023Y-69873809D01*
X171114404Y-70064285D01*
X171066785Y-70159523D01*
X170971547Y-70254761D01*
X170828690Y-70302380D01*
X170590595Y-70302380D01*
X168590595Y-67714761D02*
X168733452Y-67762380D01*
X168971547Y-67762380D01*
X169066785Y-67714761D01*
X169114404Y-67667142D01*
X169162023Y-67571904D01*
X169162023Y-67476666D01*
X169114404Y-67381428D01*
X169066785Y-67333809D01*
X168971547Y-67286190D01*
X168781071Y-67238571D01*
X168685833Y-67190952D01*
X168638214Y-67143333D01*
X168590595Y-67048095D01*
X168590595Y-66952857D01*
X168638214Y-66857619D01*
X168685833Y-66810000D01*
X168781071Y-66762380D01*
X169019166Y-66762380D01*
X169162023Y-66810000D01*
X170162023Y-67667142D02*
X170114404Y-67714761D01*
X169971547Y-67762380D01*
X169876309Y-67762380D01*
X169733452Y-67714761D01*
X169638214Y-67619523D01*
X169590595Y-67524285D01*
X169542976Y-67333809D01*
X169542976Y-67190952D01*
X169590595Y-67000476D01*
X169638214Y-66905238D01*
X169733452Y-66810000D01*
X169876309Y-66762380D01*
X169971547Y-66762380D01*
X170114404Y-66810000D01*
X170162023Y-66857619D01*
X170590595Y-67762380D02*
X170590595Y-66762380D01*
X171162023Y-67762380D02*
X170733452Y-67190952D01*
X171162023Y-66762380D02*
X170590595Y-67333809D01*
X169114404Y-62634761D02*
X169257261Y-62682380D01*
X169495357Y-62682380D01*
X169590595Y-62634761D01*
X169638214Y-62587142D01*
X169685833Y-62491904D01*
X169685833Y-62396666D01*
X169638214Y-62301428D01*
X169590595Y-62253809D01*
X169495357Y-62206190D01*
X169304880Y-62158571D01*
X169209642Y-62110952D01*
X169162023Y-62063333D01*
X169114404Y-61968095D01*
X169114404Y-61872857D01*
X169162023Y-61777619D01*
X169209642Y-61730000D01*
X169304880Y-61682380D01*
X169542976Y-61682380D01*
X169685833Y-61730000D01*
X170114404Y-62682380D02*
X170114404Y-61682380D01*
X170352500Y-61682380D01*
X170495357Y-61730000D01*
X170590595Y-61825238D01*
X170638214Y-61920476D01*
X170685833Y-62110952D01*
X170685833Y-62253809D01*
X170638214Y-62444285D01*
X170590595Y-62539523D01*
X170495357Y-62634761D01*
X170352500Y-62682380D01*
X170114404Y-62682380D01*
X171114404Y-62682380D02*
X171114404Y-61682380D01*
X170209642Y-60047142D02*
X170162023Y-60094761D01*
X170019166Y-60142380D01*
X169923928Y-60142380D01*
X169781071Y-60094761D01*
X169685833Y-59999523D01*
X169638214Y-59904285D01*
X169590595Y-59713809D01*
X169590595Y-59570952D01*
X169638214Y-59380476D01*
X169685833Y-59285238D01*
X169781071Y-59190000D01*
X169923928Y-59142380D01*
X170019166Y-59142380D01*
X170162023Y-59190000D01*
X170209642Y-59237619D01*
X170590595Y-60094761D02*
X170733452Y-60142380D01*
X170971547Y-60142380D01*
X171066785Y-60094761D01*
X171114404Y-60047142D01*
X171162023Y-59951904D01*
X171162023Y-59856666D01*
X171114404Y-59761428D01*
X171066785Y-59713809D01*
X170971547Y-59666190D01*
X170781071Y-59618571D01*
X170685833Y-59570952D01*
X170638214Y-59523333D01*
X170590595Y-59428095D01*
X170590595Y-59332857D01*
X170638214Y-59237619D01*
X170685833Y-59190000D01*
X170781071Y-59142380D01*
X171019166Y-59142380D01*
X171162023Y-59190000D01*
%LPC*%
D14*
X151430000Y-61930000D03*
X151430000Y-100630000D03*
D15*
X179070000Y-62230000D03*
D16*
X180340000Y-58420000D03*
X198120000Y-58420000D03*
D17*
X180340000Y-104140000D03*
X198120000Y-104140000D03*
D15*
X179070000Y-64770000D03*
X179070000Y-67310000D03*
X179070000Y-69850000D03*
X179070000Y-72390000D03*
X179070000Y-74930000D03*
X179070000Y-77470000D03*
X179070000Y-80010000D03*
X179070000Y-82550000D03*
X179070000Y-85090000D03*
X179070000Y-87630000D03*
X179070000Y-90170000D03*
X179070000Y-92710000D03*
X179070000Y-95250000D03*
X179070000Y-97790000D03*
X179070000Y-100330000D03*
X199390000Y-72390000D03*
X199390000Y-74930000D03*
X199390000Y-77470000D03*
X199390000Y-80010000D03*
X199390000Y-82550000D03*
X199390000Y-85090000D03*
X199390000Y-87630000D03*
X199390000Y-90170000D03*
X199390000Y-92710000D03*
X199390000Y-95250000D03*
X199390000Y-97790000D03*
X199390000Y-100330000D03*
X181610000Y-69850000D03*
X181610000Y-74930000D03*
X181610000Y-77470000D03*
X181610000Y-64770000D03*
X181610000Y-72390000D03*
X181610000Y-67310000D03*
X181610000Y-80010000D03*
X181610000Y-97790000D03*
X181610000Y-100330000D03*
X181610000Y-92710000D03*
X181610000Y-95250000D03*
X181610000Y-85090000D03*
X181610000Y-87630000D03*
X181610000Y-90170000D03*
X181610000Y-82550000D03*
X181610000Y-62230000D03*
X196850000Y-82550000D03*
X196850000Y-74930000D03*
X196850000Y-80010000D03*
X196850000Y-85090000D03*
X196850000Y-77470000D03*
X196850000Y-72390000D03*
X196850000Y-87630000D03*
X196850000Y-92710000D03*
X196850000Y-90170000D03*
X196850000Y-100330000D03*
X196850000Y-95250000D03*
X196850000Y-97790000D03*
X222250000Y-97790000D03*
X222250000Y-95250000D03*
X222250000Y-100330000D03*
X222250000Y-90170000D03*
X222250000Y-92710000D03*
X222250000Y-87630000D03*
X222250000Y-72390000D03*
X222250000Y-77470000D03*
X222250000Y-85090000D03*
X222250000Y-80010000D03*
X222250000Y-74930000D03*
X222250000Y-82550000D03*
X207010000Y-62230000D03*
X207010000Y-82550000D03*
X207010000Y-90170000D03*
X207010000Y-87630000D03*
X207010000Y-85090000D03*
X207010000Y-95250000D03*
X207010000Y-92710000D03*
X207010000Y-100330000D03*
X207010000Y-97790000D03*
X207010000Y-80010000D03*
X207010000Y-67310000D03*
X207010000Y-72390000D03*
X207010000Y-64770000D03*
X207010000Y-77470000D03*
X207010000Y-74930000D03*
X207010000Y-69850000D03*
X224790000Y-100330000D03*
X224790000Y-97790000D03*
X224790000Y-95250000D03*
X224790000Y-92710000D03*
X224790000Y-90170000D03*
X224790000Y-87630000D03*
X224790000Y-85090000D03*
X224790000Y-82550000D03*
X224790000Y-80010000D03*
X224790000Y-77470000D03*
X224790000Y-74930000D03*
X224790000Y-72390000D03*
X204470000Y-100330000D03*
X204470000Y-97790000D03*
X204470000Y-95250000D03*
X204470000Y-92710000D03*
X204470000Y-90170000D03*
X204470000Y-87630000D03*
X204470000Y-85090000D03*
X204470000Y-82550000D03*
X204470000Y-80010000D03*
X204470000Y-77470000D03*
X204470000Y-74930000D03*
X204470000Y-72390000D03*
X204470000Y-69850000D03*
X204470000Y-67310000D03*
X204470000Y-64770000D03*
D17*
X223520000Y-104140000D03*
X205740000Y-104140000D03*
D16*
X223520000Y-58420000D03*
X205740000Y-58420000D03*
D15*
X204470000Y-62230000D03*
D18*
X151585000Y-107950000D03*
X150335000Y-107950000D03*
X149085000Y-107950000D03*
X147835000Y-107950000D03*
X146585000Y-107950000D03*
X145335000Y-107950000D03*
X144085000Y-107950000D03*
X142835000Y-107950000D03*
X141585000Y-107950000D03*
G36*
G01*
X139935000Y-108400000D02*
X139935000Y-107500000D01*
G75*
G02*
X140135000Y-107300000I200000J0D01*
G01*
X140535000Y-107300000D01*
G75*
G02*
X140735000Y-107500000I0J-200000D01*
G01*
X140735000Y-108400000D01*
G75*
G02*
X140535000Y-108600000I-200000J0D01*
G01*
X140135000Y-108600000D01*
G75*
G02*
X139935000Y-108400000I0J200000D01*
G01*
G37*
D19*
X110490000Y-109220000D03*
X110490000Y-53340000D03*
X237490000Y-53340000D03*
X237490000Y-109220000D03*
D16*
X160020000Y-85090000D03*
X160020000Y-105410000D03*
X172720000Y-85090000D03*
X172720000Y-105410000D03*
D15*
X172720000Y-91440000D03*
X172720000Y-88900000D03*
X160020000Y-99060000D03*
X160020000Y-96520000D03*
X160020000Y-93980000D03*
X160020000Y-91440000D03*
X172720000Y-101600000D03*
X172720000Y-99060000D03*
X172720000Y-96520000D03*
X172720000Y-93980000D03*
D20*
X236855000Y-65405000D03*
X236855000Y-62905000D03*
D21*
X233680000Y-59055000D03*
D20*
X233680000Y-69215000D03*
D21*
X230505000Y-69215000D03*
D20*
X230505000Y-59055000D03*
D15*
X237490000Y-74930000D03*
X234950000Y-74930000D03*
D22*
X232410000Y-74930000D03*
D15*
X229870000Y-74930000D03*
X229870000Y-83820000D03*
D22*
X232410000Y-83820000D03*
D15*
X234950000Y-83820000D03*
X237490000Y-83820000D03*
X172720000Y-67310000D03*
D16*
X160020000Y-77470000D03*
D15*
X172720000Y-69850000D03*
D17*
X172720000Y-77470000D03*
X172720000Y-57150000D03*
D15*
X172720000Y-72390000D03*
X172720000Y-74930000D03*
X172720000Y-64770000D03*
D16*
X160020000Y-57150000D03*
D15*
X172720000Y-62230000D03*
X172720000Y-59690000D03*
G36*
G01*
X232690002Y-101370000D02*
X229589998Y-101370000D01*
G75*
G02*
X229340000Y-101120002I0J249998D01*
G01*
X229340000Y-99539998D01*
G75*
G02*
X229589998Y-99290000I249998J0D01*
G01*
X232690002Y-99290000D01*
G75*
G02*
X232940000Y-99539998I0J-249998D01*
G01*
X232940000Y-101120002D01*
G75*
G02*
X232690002Y-101370000I-249998J0D01*
G01*
G37*
D23*
X231140000Y-95250000D03*
M02*
