M48
; DRILL file {KiCad (5.1.9-0-10_14)} date Tuesday, May 11, 2021 at 12:02:24 PM
; FORMAT={-:-/ absolute / metric / decimal}
; #@! TF.CreationDate,2021-05-11T12:02:24-04:00
; #@! TF.GenerationSoftware,Kicad,Pcbnew,(5.1.9-0-10_14)
; #@! TF.FileFunction,Plated,1,2,PTH
FMAT,2
METRIC
T1C0.400
T2C0.500
T3C0.800
T4C1.000
T5C1.016
T6C1.400
T7C2.500
T8C2.540
T9C3.000
%
G90
G05
T1
X110.49Y-59.69
X110.49Y-81.28
X110.49Y-102.87
X121.92Y-71.12
X121.92Y-91.44
X132.08Y-59.69
X132.08Y-81.28
X132.08Y-102.87
X142.24Y-71.12
X142.24Y-92.71
X153.67Y-81.28
X158.75Y-67.31
X166.37Y-58.42
X166.37Y-67.31
X166.37Y-76.2
X166.37Y-87.63
X166.37Y-95.25
X166.37Y-102.87
X175.26Y-92.71
X188.595Y-97.79
X189.23Y-58.42
X189.23Y-68.58
X189.23Y-80.01
X189.23Y-87.63
X189.23Y-104.14
X190.5Y-100.33
X214.63Y-58.42
X214.63Y-68.58
X214.63Y-80.01
X214.63Y-87.63
X214.63Y-95.25
X214.63Y-104.14
T2
X140.335Y-107.95
X141.585Y-107.95
X142.835Y-107.95
X144.085Y-107.95
X145.335Y-107.95
X146.585Y-107.95
X147.835Y-107.95
X149.085Y-107.95
X150.335Y-107.95
X151.585Y-107.95
T3
X230.505Y-59.055
X230.505Y-69.215
X233.68Y-59.055
X233.68Y-69.215
X236.855Y-62.905
X236.855Y-65.405
T4
X179.07Y-64.77
X179.07Y-67.31
X179.07Y-69.85
X179.07Y-72.39
X179.07Y-74.93
X179.07Y-77.47
X179.07Y-80.01
X179.07Y-82.55
X179.07Y-85.09
X179.07Y-87.63
X179.07Y-90.17
X179.07Y-92.71
X179.07Y-95.25
X179.07Y-97.79
X179.07Y-100.33
X181.61Y-64.77
X181.61Y-67.31
X181.61Y-69.85
X181.61Y-72.39
X181.61Y-74.93
X181.61Y-77.47
X181.61Y-80.01
X181.61Y-82.55
X181.61Y-85.09
X181.61Y-87.63
X181.61Y-90.17
X181.61Y-92.71
X181.61Y-95.25
X181.61Y-97.79
X181.61Y-100.33
X196.85Y-72.39
X196.85Y-74.93
X196.85Y-77.47
X196.85Y-80.01
X196.85Y-82.55
X196.85Y-85.09
X196.85Y-87.63
X196.85Y-90.17
X196.85Y-92.71
X196.85Y-95.25
X196.85Y-97.79
X196.85Y-100.33
X199.39Y-72.39
X199.39Y-74.93
X199.39Y-77.47
X199.39Y-80.01
X199.39Y-82.55
X199.39Y-85.09
X199.39Y-87.63
X199.39Y-90.17
X199.39Y-92.71
X199.39Y-95.25
X199.39Y-97.79
X199.39Y-100.33
X204.47Y-64.77
X204.47Y-67.31
X204.47Y-69.85
X204.47Y-72.39
X204.47Y-74.93
X204.47Y-77.47
X204.47Y-80.01
X204.47Y-82.55
X204.47Y-85.09
X204.47Y-87.63
X204.47Y-90.17
X204.47Y-92.71
X204.47Y-95.25
X204.47Y-97.79
X204.47Y-100.33
X207.01Y-64.77
X207.01Y-67.31
X207.01Y-69.85
X207.01Y-72.39
X207.01Y-74.93
X207.01Y-77.47
X207.01Y-80.01
X207.01Y-82.55
X207.01Y-85.09
X207.01Y-87.63
X207.01Y-90.17
X207.01Y-92.71
X207.01Y-95.25
X207.01Y-97.79
X207.01Y-100.33
X222.25Y-72.39
X222.25Y-74.93
X222.25Y-77.47
X222.25Y-80.01
X222.25Y-82.55
X222.25Y-85.09
X222.25Y-87.63
X222.25Y-90.17
X222.25Y-92.71
X222.25Y-95.25
X222.25Y-97.79
X222.25Y-100.33
X224.79Y-72.39
X224.79Y-74.93
X224.79Y-77.47
X224.79Y-80.01
X224.79Y-82.55
X224.79Y-85.09
X224.79Y-87.63
X224.79Y-90.17
X224.79Y-92.71
X224.79Y-95.25
X224.79Y-97.79
X224.79Y-100.33
T5
X160.02Y-91.44
X160.02Y-93.98
X160.02Y-96.52
X160.02Y-99.06
X172.72Y-59.69
X172.72Y-62.23
X172.72Y-64.77
X172.72Y-67.31
X172.72Y-69.85
X172.72Y-72.39
X172.72Y-74.93
X172.72Y-88.9
X172.72Y-91.44
X172.72Y-93.98
X172.72Y-96.52
X172.72Y-99.06
X172.72Y-101.6
X179.07Y-62.23
X181.61Y-62.23
X204.47Y-62.23
X207.01Y-62.23
X229.87Y-74.93
X229.87Y-83.82
X232.41Y-74.93
X232.41Y-83.82
X234.95Y-74.93
X234.95Y-83.82
X237.49Y-74.93
X237.49Y-83.82
T6
X231.14Y-95.25
X231.14Y-100.33
T7
X151.43Y-61.93
X151.43Y-100.63
T8
X180.34Y-58.42
X198.12Y-58.42
X205.74Y-58.42
X223.52Y-58.42
T9
X110.49Y-53.34
X110.49Y-109.22
X237.49Y-53.34
X237.49Y-109.22
T0
M30
