G04 #@! TF.GenerationSoftware,KiCad,Pcbnew,(7.0.0-0)*
G04 #@! TF.CreationDate,2023-03-05T11:15:20-05:00*
G04 #@! TF.ProjectId,Cryologger ITB,4372796f-6c6f-4676-9765-72204954422e,rev?*
G04 #@! TF.SameCoordinates,Original*
G04 #@! TF.FileFunction,Legend,Bot*
G04 #@! TF.FilePolarity,Positive*
%FSLAX46Y46*%
G04 Gerber Fmt 4.6, Leading zero omitted, Abs format (unit mm)*
G04 Created by KiCad (PCBNEW (7.0.0-0)) date 2023-03-05 11:15:20*
%MOMM*%
%LPD*%
G01*
G04 APERTURE LIST*
G04 Aperture macros list*
%AMRoundRect*
0 Rectangle with rounded corners*
0 $1 Rounding radius*
0 $2 $3 $4 $5 $6 $7 $8 $9 X,Y pos of 4 corners*
0 Add a 4 corners polygon primitive as box body*
4,1,4,$2,$3,$4,$5,$6,$7,$8,$9,$2,$3,0*
0 Add four circle primitives for the rounded corners*
1,1,$1+$1,$2,$3*
1,1,$1+$1,$4,$5*
1,1,$1+$1,$6,$7*
1,1,$1+$1,$8,$9*
0 Add four rect primitives between the rounded corners*
20,1,$1+$1,$2,$3,$4,$5,0*
20,1,$1+$1,$4,$5,$6,$7,0*
20,1,$1+$1,$6,$7,$8,$9,0*
20,1,$1+$1,$8,$9,$2,$3,0*%
G04 Aperture macros list end*
%ADD10C,0.100000*%
%ADD11C,0.300000*%
%ADD12C,6.000000*%
%ADD13C,4.999990*%
%ADD14O,3.600000X2.080000*%
%ADD15RoundRect,0.249999X1.550001X-0.790001X1.550001X0.790001X-1.550001X0.790001X-1.550001X-0.790001X0*%
%ADD16C,1.524000*%
%ADD17C,1.778000*%
%ADD18C,3.810000*%
%ADD19C,1.600000*%
%ADD20O,1.600000X1.600000*%
%ADD21RoundRect,0.200000X-0.200000X-0.450000X0.200000X-0.450000X0.200000X0.450000X-0.200000X0.450000X0*%
%ADD22O,0.800000X1.300000*%
%ADD23C,2.540000*%
G04 APERTURE END LIST*
D10*
G36*
X118020000Y-111275000D02*
G01*
X91350000Y-111275000D01*
X91350000Y-96670000D01*
X118020000Y-96670000D01*
X118020000Y-111275000D01*
G37*
X118020000Y-111275000D02*
X91350000Y-111275000D01*
X91350000Y-96670000D01*
X118020000Y-96670000D01*
X118020000Y-111275000D01*
D11*
X95670714Y-118931071D02*
X95313571Y-119931071D01*
X95313571Y-119931071D02*
X94956428Y-118931071D01*
X94527857Y-118431071D02*
X93599285Y-118431071D01*
X93599285Y-118431071D02*
X94099285Y-119002500D01*
X94099285Y-119002500D02*
X93885000Y-119002500D01*
X93885000Y-119002500D02*
X93742143Y-119073928D01*
X93742143Y-119073928D02*
X93670714Y-119145357D01*
X93670714Y-119145357D02*
X93599285Y-119288214D01*
X93599285Y-119288214D02*
X93599285Y-119645357D01*
X93599285Y-119645357D02*
X93670714Y-119788214D01*
X93670714Y-119788214D02*
X93742143Y-119859642D01*
X93742143Y-119859642D02*
X93885000Y-119931071D01*
X93885000Y-119931071D02*
X94313571Y-119931071D01*
X94313571Y-119931071D02*
X94456428Y-119859642D01*
X94456428Y-119859642D02*
X94527857Y-119788214D01*
X92956429Y-119788214D02*
X92885000Y-119859642D01*
X92885000Y-119859642D02*
X92956429Y-119931071D01*
X92956429Y-119931071D02*
X93027857Y-119859642D01*
X93027857Y-119859642D02*
X92956429Y-119788214D01*
X92956429Y-119788214D02*
X92956429Y-119931071D01*
X91456428Y-119931071D02*
X92313571Y-119931071D01*
X91885000Y-119931071D02*
X91885000Y-118431071D01*
X91885000Y-118431071D02*
X92027857Y-118645357D01*
X92027857Y-118645357D02*
X92170714Y-118788214D01*
X92170714Y-118788214D02*
X92313571Y-118859642D01*
X117752857Y-73436071D02*
X117752857Y-71936071D01*
X117752857Y-71936071D02*
X117395714Y-71936071D01*
X117395714Y-71936071D02*
X117181428Y-72007500D01*
X117181428Y-72007500D02*
X117038571Y-72150357D01*
X117038571Y-72150357D02*
X116967142Y-72293214D01*
X116967142Y-72293214D02*
X116895714Y-72578928D01*
X116895714Y-72578928D02*
X116895714Y-72793214D01*
X116895714Y-72793214D02*
X116967142Y-73078928D01*
X116967142Y-73078928D02*
X117038571Y-73221785D01*
X117038571Y-73221785D02*
X117181428Y-73364642D01*
X117181428Y-73364642D02*
X117395714Y-73436071D01*
X117395714Y-73436071D02*
X117752857Y-73436071D01*
X115681428Y-73364642D02*
X115824285Y-73436071D01*
X115824285Y-73436071D02*
X116110000Y-73436071D01*
X116110000Y-73436071D02*
X116252857Y-73364642D01*
X116252857Y-73364642D02*
X116324285Y-73221785D01*
X116324285Y-73221785D02*
X116324285Y-72650357D01*
X116324285Y-72650357D02*
X116252857Y-72507500D01*
X116252857Y-72507500D02*
X116110000Y-72436071D01*
X116110000Y-72436071D02*
X115824285Y-72436071D01*
X115824285Y-72436071D02*
X115681428Y-72507500D01*
X115681428Y-72507500D02*
X115610000Y-72650357D01*
X115610000Y-72650357D02*
X115610000Y-72793214D01*
X115610000Y-72793214D02*
X116324285Y-72936071D01*
X115038571Y-73364642D02*
X114895714Y-73436071D01*
X114895714Y-73436071D02*
X114610000Y-73436071D01*
X114610000Y-73436071D02*
X114467143Y-73364642D01*
X114467143Y-73364642D02*
X114395714Y-73221785D01*
X114395714Y-73221785D02*
X114395714Y-73150357D01*
X114395714Y-73150357D02*
X114467143Y-73007500D01*
X114467143Y-73007500D02*
X114610000Y-72936071D01*
X114610000Y-72936071D02*
X114824286Y-72936071D01*
X114824286Y-72936071D02*
X114967143Y-72864642D01*
X114967143Y-72864642D02*
X115038571Y-72721785D01*
X115038571Y-72721785D02*
X115038571Y-72650357D01*
X115038571Y-72650357D02*
X114967143Y-72507500D01*
X114967143Y-72507500D02*
X114824286Y-72436071D01*
X114824286Y-72436071D02*
X114610000Y-72436071D01*
X114610000Y-72436071D02*
X114467143Y-72507500D01*
X113752857Y-73436071D02*
X113752857Y-72436071D01*
X113752857Y-71936071D02*
X113824285Y-72007500D01*
X113824285Y-72007500D02*
X113752857Y-72078928D01*
X113752857Y-72078928D02*
X113681428Y-72007500D01*
X113681428Y-72007500D02*
X113752857Y-71936071D01*
X113752857Y-71936071D02*
X113752857Y-72078928D01*
X112395714Y-72436071D02*
X112395714Y-73650357D01*
X112395714Y-73650357D02*
X112467142Y-73793214D01*
X112467142Y-73793214D02*
X112538571Y-73864642D01*
X112538571Y-73864642D02*
X112681428Y-73936071D01*
X112681428Y-73936071D02*
X112895714Y-73936071D01*
X112895714Y-73936071D02*
X113038571Y-73864642D01*
X112395714Y-73364642D02*
X112538571Y-73436071D01*
X112538571Y-73436071D02*
X112824285Y-73436071D01*
X112824285Y-73436071D02*
X112967142Y-73364642D01*
X112967142Y-73364642D02*
X113038571Y-73293214D01*
X113038571Y-73293214D02*
X113109999Y-73150357D01*
X113109999Y-73150357D02*
X113109999Y-72721785D01*
X113109999Y-72721785D02*
X113038571Y-72578928D01*
X113038571Y-72578928D02*
X112967142Y-72507500D01*
X112967142Y-72507500D02*
X112824285Y-72436071D01*
X112824285Y-72436071D02*
X112538571Y-72436071D01*
X112538571Y-72436071D02*
X112395714Y-72507500D01*
X111681428Y-72436071D02*
X111681428Y-73436071D01*
X111681428Y-72578928D02*
X111609999Y-72507500D01*
X111609999Y-72507500D02*
X111467142Y-72436071D01*
X111467142Y-72436071D02*
X111252856Y-72436071D01*
X111252856Y-72436071D02*
X111109999Y-72507500D01*
X111109999Y-72507500D02*
X111038571Y-72650357D01*
X111038571Y-72650357D02*
X111038571Y-73436071D01*
X109752856Y-73364642D02*
X109895713Y-73436071D01*
X109895713Y-73436071D02*
X110181428Y-73436071D01*
X110181428Y-73436071D02*
X110324285Y-73364642D01*
X110324285Y-73364642D02*
X110395713Y-73221785D01*
X110395713Y-73221785D02*
X110395713Y-72650357D01*
X110395713Y-72650357D02*
X110324285Y-72507500D01*
X110324285Y-72507500D02*
X110181428Y-72436071D01*
X110181428Y-72436071D02*
X109895713Y-72436071D01*
X109895713Y-72436071D02*
X109752856Y-72507500D01*
X109752856Y-72507500D02*
X109681428Y-72650357D01*
X109681428Y-72650357D02*
X109681428Y-72793214D01*
X109681428Y-72793214D02*
X110395713Y-72936071D01*
X108395714Y-73436071D02*
X108395714Y-71936071D01*
X108395714Y-73364642D02*
X108538571Y-73436071D01*
X108538571Y-73436071D02*
X108824285Y-73436071D01*
X108824285Y-73436071D02*
X108967142Y-73364642D01*
X108967142Y-73364642D02*
X109038571Y-73293214D01*
X109038571Y-73293214D02*
X109109999Y-73150357D01*
X109109999Y-73150357D02*
X109109999Y-72721785D01*
X109109999Y-72721785D02*
X109038571Y-72578928D01*
X109038571Y-72578928D02*
X108967142Y-72507500D01*
X108967142Y-72507500D02*
X108824285Y-72436071D01*
X108824285Y-72436071D02*
X108538571Y-72436071D01*
X108538571Y-72436071D02*
X108395714Y-72507500D01*
X106781428Y-73436071D02*
X106781428Y-71936071D01*
X106781428Y-72507500D02*
X106638571Y-72436071D01*
X106638571Y-72436071D02*
X106352856Y-72436071D01*
X106352856Y-72436071D02*
X106209999Y-72507500D01*
X106209999Y-72507500D02*
X106138571Y-72578928D01*
X106138571Y-72578928D02*
X106067142Y-72721785D01*
X106067142Y-72721785D02*
X106067142Y-73150357D01*
X106067142Y-73150357D02*
X106138571Y-73293214D01*
X106138571Y-73293214D02*
X106209999Y-73364642D01*
X106209999Y-73364642D02*
X106352856Y-73436071D01*
X106352856Y-73436071D02*
X106638571Y-73436071D01*
X106638571Y-73436071D02*
X106781428Y-73364642D01*
X105567142Y-72436071D02*
X105209999Y-73436071D01*
X104852856Y-72436071D02*
X105209999Y-73436071D01*
X105209999Y-73436071D02*
X105352856Y-73793214D01*
X105352856Y-73793214D02*
X105424285Y-73864642D01*
X105424285Y-73864642D02*
X105567142Y-73936071D01*
X104281428Y-73293214D02*
X104209999Y-73364642D01*
X104209999Y-73364642D02*
X104281428Y-73436071D01*
X104281428Y-73436071D02*
X104352856Y-73364642D01*
X104352856Y-73364642D02*
X104281428Y-73293214D01*
X104281428Y-73293214D02*
X104281428Y-73436071D01*
X104281428Y-72507500D02*
X104209999Y-72578928D01*
X104209999Y-72578928D02*
X104281428Y-72650357D01*
X104281428Y-72650357D02*
X104352856Y-72578928D01*
X104352856Y-72578928D02*
X104281428Y-72507500D01*
X104281428Y-72507500D02*
X104281428Y-72650357D01*
X117824285Y-77867500D02*
X117110000Y-77867500D01*
X117967142Y-78296071D02*
X117467142Y-76796071D01*
X117467142Y-76796071D02*
X116967142Y-78296071D01*
X115824286Y-78296071D02*
X115824286Y-76796071D01*
X115824286Y-78224642D02*
X115967143Y-78296071D01*
X115967143Y-78296071D02*
X116252857Y-78296071D01*
X116252857Y-78296071D02*
X116395714Y-78224642D01*
X116395714Y-78224642D02*
X116467143Y-78153214D01*
X116467143Y-78153214D02*
X116538571Y-78010357D01*
X116538571Y-78010357D02*
X116538571Y-77581785D01*
X116538571Y-77581785D02*
X116467143Y-77438928D01*
X116467143Y-77438928D02*
X116395714Y-77367500D01*
X116395714Y-77367500D02*
X116252857Y-77296071D01*
X116252857Y-77296071D02*
X115967143Y-77296071D01*
X115967143Y-77296071D02*
X115824286Y-77367500D01*
X114467143Y-78296071D02*
X114467143Y-77510357D01*
X114467143Y-77510357D02*
X114538571Y-77367500D01*
X114538571Y-77367500D02*
X114681428Y-77296071D01*
X114681428Y-77296071D02*
X114967143Y-77296071D01*
X114967143Y-77296071D02*
X115110000Y-77367500D01*
X114467143Y-78224642D02*
X114610000Y-78296071D01*
X114610000Y-78296071D02*
X114967143Y-78296071D01*
X114967143Y-78296071D02*
X115110000Y-78224642D01*
X115110000Y-78224642D02*
X115181428Y-78081785D01*
X115181428Y-78081785D02*
X115181428Y-77938928D01*
X115181428Y-77938928D02*
X115110000Y-77796071D01*
X115110000Y-77796071D02*
X114967143Y-77724642D01*
X114967143Y-77724642D02*
X114610000Y-77724642D01*
X114610000Y-77724642D02*
X114467143Y-77653214D01*
X113752857Y-78296071D02*
X113752857Y-77296071D01*
X113752857Y-77438928D02*
X113681428Y-77367500D01*
X113681428Y-77367500D02*
X113538571Y-77296071D01*
X113538571Y-77296071D02*
X113324285Y-77296071D01*
X113324285Y-77296071D02*
X113181428Y-77367500D01*
X113181428Y-77367500D02*
X113110000Y-77510357D01*
X113110000Y-77510357D02*
X113110000Y-78296071D01*
X113110000Y-77510357D02*
X113038571Y-77367500D01*
X113038571Y-77367500D02*
X112895714Y-77296071D01*
X112895714Y-77296071D02*
X112681428Y-77296071D01*
X112681428Y-77296071D02*
X112538571Y-77367500D01*
X112538571Y-77367500D02*
X112467142Y-77510357D01*
X112467142Y-77510357D02*
X112467142Y-78296071D01*
X110067142Y-76867500D02*
X110210000Y-76796071D01*
X110210000Y-76796071D02*
X110424285Y-76796071D01*
X110424285Y-76796071D02*
X110638571Y-76867500D01*
X110638571Y-76867500D02*
X110781428Y-77010357D01*
X110781428Y-77010357D02*
X110852857Y-77153214D01*
X110852857Y-77153214D02*
X110924285Y-77438928D01*
X110924285Y-77438928D02*
X110924285Y-77653214D01*
X110924285Y-77653214D02*
X110852857Y-77938928D01*
X110852857Y-77938928D02*
X110781428Y-78081785D01*
X110781428Y-78081785D02*
X110638571Y-78224642D01*
X110638571Y-78224642D02*
X110424285Y-78296071D01*
X110424285Y-78296071D02*
X110281428Y-78296071D01*
X110281428Y-78296071D02*
X110067142Y-78224642D01*
X110067142Y-78224642D02*
X109995714Y-78153214D01*
X109995714Y-78153214D02*
X109995714Y-77653214D01*
X109995714Y-77653214D02*
X110281428Y-77653214D01*
X108710000Y-78296071D02*
X108710000Y-77510357D01*
X108710000Y-77510357D02*
X108781428Y-77367500D01*
X108781428Y-77367500D02*
X108924285Y-77296071D01*
X108924285Y-77296071D02*
X109210000Y-77296071D01*
X109210000Y-77296071D02*
X109352857Y-77367500D01*
X108710000Y-78224642D02*
X108852857Y-78296071D01*
X108852857Y-78296071D02*
X109210000Y-78296071D01*
X109210000Y-78296071D02*
X109352857Y-78224642D01*
X109352857Y-78224642D02*
X109424285Y-78081785D01*
X109424285Y-78081785D02*
X109424285Y-77938928D01*
X109424285Y-77938928D02*
X109352857Y-77796071D01*
X109352857Y-77796071D02*
X109210000Y-77724642D01*
X109210000Y-77724642D02*
X108852857Y-77724642D01*
X108852857Y-77724642D02*
X108710000Y-77653214D01*
X107995714Y-78296071D02*
X107995714Y-77296071D01*
X107995714Y-77581785D02*
X107924285Y-77438928D01*
X107924285Y-77438928D02*
X107852857Y-77367500D01*
X107852857Y-77367500D02*
X107709999Y-77296071D01*
X107709999Y-77296071D02*
X107567142Y-77296071D01*
X107067143Y-78296071D02*
X107067143Y-76796071D01*
X107067143Y-77367500D02*
X106924286Y-77296071D01*
X106924286Y-77296071D02*
X106638571Y-77296071D01*
X106638571Y-77296071D02*
X106495714Y-77367500D01*
X106495714Y-77367500D02*
X106424286Y-77438928D01*
X106424286Y-77438928D02*
X106352857Y-77581785D01*
X106352857Y-77581785D02*
X106352857Y-78010357D01*
X106352857Y-78010357D02*
X106424286Y-78153214D01*
X106424286Y-78153214D02*
X106495714Y-78224642D01*
X106495714Y-78224642D02*
X106638571Y-78296071D01*
X106638571Y-78296071D02*
X106924286Y-78296071D01*
X106924286Y-78296071D02*
X107067143Y-78224642D01*
X105495714Y-78296071D02*
X105638571Y-78224642D01*
X105638571Y-78224642D02*
X105710000Y-78153214D01*
X105710000Y-78153214D02*
X105781428Y-78010357D01*
X105781428Y-78010357D02*
X105781428Y-77581785D01*
X105781428Y-77581785D02*
X105710000Y-77438928D01*
X105710000Y-77438928D02*
X105638571Y-77367500D01*
X105638571Y-77367500D02*
X105495714Y-77296071D01*
X105495714Y-77296071D02*
X105281428Y-77296071D01*
X105281428Y-77296071D02*
X105138571Y-77367500D01*
X105138571Y-77367500D02*
X105067143Y-77438928D01*
X105067143Y-77438928D02*
X104995714Y-77581785D01*
X104995714Y-77581785D02*
X104995714Y-78010357D01*
X104995714Y-78010357D02*
X105067143Y-78153214D01*
X105067143Y-78153214D02*
X105138571Y-78224642D01*
X105138571Y-78224642D02*
X105281428Y-78296071D01*
X105281428Y-78296071D02*
X105495714Y-78296071D01*
X117110000Y-80726071D02*
X117110000Y-79940357D01*
X117110000Y-79940357D02*
X117181428Y-79797500D01*
X117181428Y-79797500D02*
X117324285Y-79726071D01*
X117324285Y-79726071D02*
X117610000Y-79726071D01*
X117610000Y-79726071D02*
X117752857Y-79797500D01*
X117110000Y-80654642D02*
X117252857Y-80726071D01*
X117252857Y-80726071D02*
X117610000Y-80726071D01*
X117610000Y-80726071D02*
X117752857Y-80654642D01*
X117752857Y-80654642D02*
X117824285Y-80511785D01*
X117824285Y-80511785D02*
X117824285Y-80368928D01*
X117824285Y-80368928D02*
X117752857Y-80226071D01*
X117752857Y-80226071D02*
X117610000Y-80154642D01*
X117610000Y-80154642D02*
X117252857Y-80154642D01*
X117252857Y-80154642D02*
X117110000Y-80083214D01*
X115752857Y-80726071D02*
X115752857Y-79226071D01*
X115752857Y-80654642D02*
X115895714Y-80726071D01*
X115895714Y-80726071D02*
X116181428Y-80726071D01*
X116181428Y-80726071D02*
X116324285Y-80654642D01*
X116324285Y-80654642D02*
X116395714Y-80583214D01*
X116395714Y-80583214D02*
X116467142Y-80440357D01*
X116467142Y-80440357D02*
X116467142Y-80011785D01*
X116467142Y-80011785D02*
X116395714Y-79868928D01*
X116395714Y-79868928D02*
X116324285Y-79797500D01*
X116324285Y-79797500D02*
X116181428Y-79726071D01*
X116181428Y-79726071D02*
X115895714Y-79726071D01*
X115895714Y-79726071D02*
X115752857Y-79797500D01*
X114395714Y-80726071D02*
X114395714Y-79940357D01*
X114395714Y-79940357D02*
X114467142Y-79797500D01*
X114467142Y-79797500D02*
X114609999Y-79726071D01*
X114609999Y-79726071D02*
X114895714Y-79726071D01*
X114895714Y-79726071D02*
X115038571Y-79797500D01*
X114395714Y-80654642D02*
X114538571Y-80726071D01*
X114538571Y-80726071D02*
X114895714Y-80726071D01*
X114895714Y-80726071D02*
X115038571Y-80654642D01*
X115038571Y-80654642D02*
X115109999Y-80511785D01*
X115109999Y-80511785D02*
X115109999Y-80368928D01*
X115109999Y-80368928D02*
X115038571Y-80226071D01*
X115038571Y-80226071D02*
X114895714Y-80154642D01*
X114895714Y-80154642D02*
X114538571Y-80154642D01*
X114538571Y-80154642D02*
X114395714Y-80083214D01*
X113681428Y-80726071D02*
X113681428Y-79726071D01*
X113681428Y-79868928D02*
X113609999Y-79797500D01*
X113609999Y-79797500D02*
X113467142Y-79726071D01*
X113467142Y-79726071D02*
X113252856Y-79726071D01*
X113252856Y-79726071D02*
X113109999Y-79797500D01*
X113109999Y-79797500D02*
X113038571Y-79940357D01*
X113038571Y-79940357D02*
X113038571Y-80726071D01*
X113038571Y-79940357D02*
X112967142Y-79797500D01*
X112967142Y-79797500D02*
X112824285Y-79726071D01*
X112824285Y-79726071D02*
X112609999Y-79726071D01*
X112609999Y-79726071D02*
X112467142Y-79797500D01*
X112467142Y-79797500D02*
X112395713Y-79940357D01*
X112395713Y-79940357D02*
X112395713Y-80726071D01*
X110752856Y-80011785D02*
X110824285Y-79940357D01*
X110824285Y-79940357D02*
X110967142Y-79868928D01*
X110967142Y-79868928D02*
X111109999Y-79868928D01*
X111109999Y-79868928D02*
X111252856Y-79940357D01*
X111252856Y-79940357D02*
X111324285Y-80011785D01*
X111324285Y-80011785D02*
X111395713Y-80154642D01*
X111395713Y-80154642D02*
X111395713Y-80297500D01*
X111395713Y-80297500D02*
X111324285Y-80440357D01*
X111324285Y-80440357D02*
X111252856Y-80511785D01*
X111252856Y-80511785D02*
X111109999Y-80583214D01*
X111109999Y-80583214D02*
X110967142Y-80583214D01*
X110967142Y-80583214D02*
X110824285Y-80511785D01*
X110824285Y-80511785D02*
X110752856Y-80440357D01*
X110752856Y-79868928D02*
X110752856Y-80440357D01*
X110752856Y-80440357D02*
X110681428Y-80511785D01*
X110681428Y-80511785D02*
X110609999Y-80511785D01*
X110609999Y-80511785D02*
X110467142Y-80440357D01*
X110467142Y-80440357D02*
X110395713Y-80297500D01*
X110395713Y-80297500D02*
X110395713Y-79940357D01*
X110395713Y-79940357D02*
X110538571Y-79726071D01*
X110538571Y-79726071D02*
X110752856Y-79583214D01*
X110752856Y-79583214D02*
X111038571Y-79511785D01*
X111038571Y-79511785D02*
X111324285Y-79583214D01*
X111324285Y-79583214D02*
X111538571Y-79726071D01*
X111538571Y-79726071D02*
X111681428Y-79940357D01*
X111681428Y-79940357D02*
X111752856Y-80226071D01*
X111752856Y-80226071D02*
X111681428Y-80511785D01*
X111681428Y-80511785D02*
X111538571Y-80726071D01*
X111538571Y-80726071D02*
X111324285Y-80868928D01*
X111324285Y-80868928D02*
X111038571Y-80940357D01*
X111038571Y-80940357D02*
X110752856Y-80868928D01*
X110752856Y-80868928D02*
X110538571Y-80726071D01*
X109110000Y-80654642D02*
X109252857Y-80726071D01*
X109252857Y-80726071D02*
X109538571Y-80726071D01*
X109538571Y-80726071D02*
X109681428Y-80654642D01*
X109681428Y-80654642D02*
X109752857Y-80583214D01*
X109752857Y-80583214D02*
X109824285Y-80440357D01*
X109824285Y-80440357D02*
X109824285Y-80011785D01*
X109824285Y-80011785D02*
X109752857Y-79868928D01*
X109752857Y-79868928D02*
X109681428Y-79797500D01*
X109681428Y-79797500D02*
X109538571Y-79726071D01*
X109538571Y-79726071D02*
X109252857Y-79726071D01*
X109252857Y-79726071D02*
X109110000Y-79797500D01*
X108467143Y-80726071D02*
X108467143Y-79726071D01*
X108467143Y-80011785D02*
X108395714Y-79868928D01*
X108395714Y-79868928D02*
X108324286Y-79797500D01*
X108324286Y-79797500D02*
X108181428Y-79726071D01*
X108181428Y-79726071D02*
X108038571Y-79726071D01*
X107681429Y-79726071D02*
X107324286Y-80726071D01*
X106967143Y-79726071D02*
X107324286Y-80726071D01*
X107324286Y-80726071D02*
X107467143Y-81083214D01*
X107467143Y-81083214D02*
X107538572Y-81154642D01*
X107538572Y-81154642D02*
X107681429Y-81226071D01*
X106181429Y-80726071D02*
X106324286Y-80654642D01*
X106324286Y-80654642D02*
X106395715Y-80583214D01*
X106395715Y-80583214D02*
X106467143Y-80440357D01*
X106467143Y-80440357D02*
X106467143Y-80011785D01*
X106467143Y-80011785D02*
X106395715Y-79868928D01*
X106395715Y-79868928D02*
X106324286Y-79797500D01*
X106324286Y-79797500D02*
X106181429Y-79726071D01*
X106181429Y-79726071D02*
X105967143Y-79726071D01*
X105967143Y-79726071D02*
X105824286Y-79797500D01*
X105824286Y-79797500D02*
X105752858Y-79868928D01*
X105752858Y-79868928D02*
X105681429Y-80011785D01*
X105681429Y-80011785D02*
X105681429Y-80440357D01*
X105681429Y-80440357D02*
X105752858Y-80583214D01*
X105752858Y-80583214D02*
X105824286Y-80654642D01*
X105824286Y-80654642D02*
X105967143Y-80726071D01*
X105967143Y-80726071D02*
X106181429Y-80726071D01*
X104824286Y-80726071D02*
X104967143Y-80654642D01*
X104967143Y-80654642D02*
X105038572Y-80511785D01*
X105038572Y-80511785D02*
X105038572Y-79226071D01*
X104038572Y-80726071D02*
X104181429Y-80654642D01*
X104181429Y-80654642D02*
X104252858Y-80583214D01*
X104252858Y-80583214D02*
X104324286Y-80440357D01*
X104324286Y-80440357D02*
X104324286Y-80011785D01*
X104324286Y-80011785D02*
X104252858Y-79868928D01*
X104252858Y-79868928D02*
X104181429Y-79797500D01*
X104181429Y-79797500D02*
X104038572Y-79726071D01*
X104038572Y-79726071D02*
X103824286Y-79726071D01*
X103824286Y-79726071D02*
X103681429Y-79797500D01*
X103681429Y-79797500D02*
X103610001Y-79868928D01*
X103610001Y-79868928D02*
X103538572Y-80011785D01*
X103538572Y-80011785D02*
X103538572Y-80440357D01*
X103538572Y-80440357D02*
X103610001Y-80583214D01*
X103610001Y-80583214D02*
X103681429Y-80654642D01*
X103681429Y-80654642D02*
X103824286Y-80726071D01*
X103824286Y-80726071D02*
X104038572Y-80726071D01*
X102252858Y-79726071D02*
X102252858Y-80940357D01*
X102252858Y-80940357D02*
X102324286Y-81083214D01*
X102324286Y-81083214D02*
X102395715Y-81154642D01*
X102395715Y-81154642D02*
X102538572Y-81226071D01*
X102538572Y-81226071D02*
X102752858Y-81226071D01*
X102752858Y-81226071D02*
X102895715Y-81154642D01*
X102252858Y-80654642D02*
X102395715Y-80726071D01*
X102395715Y-80726071D02*
X102681429Y-80726071D01*
X102681429Y-80726071D02*
X102824286Y-80654642D01*
X102824286Y-80654642D02*
X102895715Y-80583214D01*
X102895715Y-80583214D02*
X102967143Y-80440357D01*
X102967143Y-80440357D02*
X102967143Y-80011785D01*
X102967143Y-80011785D02*
X102895715Y-79868928D01*
X102895715Y-79868928D02*
X102824286Y-79797500D01*
X102824286Y-79797500D02*
X102681429Y-79726071D01*
X102681429Y-79726071D02*
X102395715Y-79726071D01*
X102395715Y-79726071D02*
X102252858Y-79797500D01*
X100895715Y-79726071D02*
X100895715Y-80940357D01*
X100895715Y-80940357D02*
X100967143Y-81083214D01*
X100967143Y-81083214D02*
X101038572Y-81154642D01*
X101038572Y-81154642D02*
X101181429Y-81226071D01*
X101181429Y-81226071D02*
X101395715Y-81226071D01*
X101395715Y-81226071D02*
X101538572Y-81154642D01*
X100895715Y-80654642D02*
X101038572Y-80726071D01*
X101038572Y-80726071D02*
X101324286Y-80726071D01*
X101324286Y-80726071D02*
X101467143Y-80654642D01*
X101467143Y-80654642D02*
X101538572Y-80583214D01*
X101538572Y-80583214D02*
X101610000Y-80440357D01*
X101610000Y-80440357D02*
X101610000Y-80011785D01*
X101610000Y-80011785D02*
X101538572Y-79868928D01*
X101538572Y-79868928D02*
X101467143Y-79797500D01*
X101467143Y-79797500D02*
X101324286Y-79726071D01*
X101324286Y-79726071D02*
X101038572Y-79726071D01*
X101038572Y-79726071D02*
X100895715Y-79797500D01*
X99610000Y-80654642D02*
X99752857Y-80726071D01*
X99752857Y-80726071D02*
X100038572Y-80726071D01*
X100038572Y-80726071D02*
X100181429Y-80654642D01*
X100181429Y-80654642D02*
X100252857Y-80511785D01*
X100252857Y-80511785D02*
X100252857Y-79940357D01*
X100252857Y-79940357D02*
X100181429Y-79797500D01*
X100181429Y-79797500D02*
X100038572Y-79726071D01*
X100038572Y-79726071D02*
X99752857Y-79726071D01*
X99752857Y-79726071D02*
X99610000Y-79797500D01*
X99610000Y-79797500D02*
X99538572Y-79940357D01*
X99538572Y-79940357D02*
X99538572Y-80083214D01*
X99538572Y-80083214D02*
X100252857Y-80226071D01*
X98895715Y-80726071D02*
X98895715Y-79726071D01*
X98895715Y-80011785D02*
X98824286Y-79868928D01*
X98824286Y-79868928D02*
X98752858Y-79797500D01*
X98752858Y-79797500D02*
X98610000Y-79726071D01*
X98610000Y-79726071D02*
X98467143Y-79726071D01*
X97967144Y-80583214D02*
X97895715Y-80654642D01*
X97895715Y-80654642D02*
X97967144Y-80726071D01*
X97967144Y-80726071D02*
X98038572Y-80654642D01*
X98038572Y-80654642D02*
X97967144Y-80583214D01*
X97967144Y-80583214D02*
X97967144Y-80726071D01*
X97038572Y-80726071D02*
X97181429Y-80654642D01*
X97181429Y-80654642D02*
X97252858Y-80583214D01*
X97252858Y-80583214D02*
X97324286Y-80440357D01*
X97324286Y-80440357D02*
X97324286Y-80011785D01*
X97324286Y-80011785D02*
X97252858Y-79868928D01*
X97252858Y-79868928D02*
X97181429Y-79797500D01*
X97181429Y-79797500D02*
X97038572Y-79726071D01*
X97038572Y-79726071D02*
X96824286Y-79726071D01*
X96824286Y-79726071D02*
X96681429Y-79797500D01*
X96681429Y-79797500D02*
X96610001Y-79868928D01*
X96610001Y-79868928D02*
X96538572Y-80011785D01*
X96538572Y-80011785D02*
X96538572Y-80440357D01*
X96538572Y-80440357D02*
X96610001Y-80583214D01*
X96610001Y-80583214D02*
X96681429Y-80654642D01*
X96681429Y-80654642D02*
X96824286Y-80726071D01*
X96824286Y-80726071D02*
X97038572Y-80726071D01*
X95895715Y-80726071D02*
X95895715Y-79726071D01*
X95895715Y-80011785D02*
X95824286Y-79868928D01*
X95824286Y-79868928D02*
X95752858Y-79797500D01*
X95752858Y-79797500D02*
X95610000Y-79726071D01*
X95610000Y-79726071D02*
X95467143Y-79726071D01*
X94324287Y-79726071D02*
X94324287Y-80940357D01*
X94324287Y-80940357D02*
X94395715Y-81083214D01*
X94395715Y-81083214D02*
X94467144Y-81154642D01*
X94467144Y-81154642D02*
X94610001Y-81226071D01*
X94610001Y-81226071D02*
X94824287Y-81226071D01*
X94824287Y-81226071D02*
X94967144Y-81154642D01*
X94324287Y-80654642D02*
X94467144Y-80726071D01*
X94467144Y-80726071D02*
X94752858Y-80726071D01*
X94752858Y-80726071D02*
X94895715Y-80654642D01*
X94895715Y-80654642D02*
X94967144Y-80583214D01*
X94967144Y-80583214D02*
X95038572Y-80440357D01*
X95038572Y-80440357D02*
X95038572Y-80011785D01*
X95038572Y-80011785D02*
X94967144Y-79868928D01*
X94967144Y-79868928D02*
X94895715Y-79797500D01*
X94895715Y-79797500D02*
X94752858Y-79726071D01*
X94752858Y-79726071D02*
X94467144Y-79726071D01*
X94467144Y-79726071D02*
X94324287Y-79797500D01*
X117252857Y-84800357D02*
X117752857Y-84800357D01*
X117752857Y-85586071D02*
X117752857Y-84086071D01*
X117752857Y-84086071D02*
X117038571Y-84086071D01*
X116252857Y-85586071D02*
X116395714Y-85514642D01*
X116395714Y-85514642D02*
X116467143Y-85443214D01*
X116467143Y-85443214D02*
X116538571Y-85300357D01*
X116538571Y-85300357D02*
X116538571Y-84871785D01*
X116538571Y-84871785D02*
X116467143Y-84728928D01*
X116467143Y-84728928D02*
X116395714Y-84657500D01*
X116395714Y-84657500D02*
X116252857Y-84586071D01*
X116252857Y-84586071D02*
X116038571Y-84586071D01*
X116038571Y-84586071D02*
X115895714Y-84657500D01*
X115895714Y-84657500D02*
X115824286Y-84728928D01*
X115824286Y-84728928D02*
X115752857Y-84871785D01*
X115752857Y-84871785D02*
X115752857Y-85300357D01*
X115752857Y-85300357D02*
X115824286Y-85443214D01*
X115824286Y-85443214D02*
X115895714Y-85514642D01*
X115895714Y-85514642D02*
X116038571Y-85586071D01*
X116038571Y-85586071D02*
X116252857Y-85586071D01*
X115110000Y-85586071D02*
X115110000Y-84586071D01*
X115110000Y-84871785D02*
X115038571Y-84728928D01*
X115038571Y-84728928D02*
X114967143Y-84657500D01*
X114967143Y-84657500D02*
X114824285Y-84586071D01*
X114824285Y-84586071D02*
X114681428Y-84586071D01*
X113281429Y-85586071D02*
X113281429Y-84586071D01*
X113281429Y-84728928D02*
X113210000Y-84657500D01*
X113210000Y-84657500D02*
X113067143Y-84586071D01*
X113067143Y-84586071D02*
X112852857Y-84586071D01*
X112852857Y-84586071D02*
X112710000Y-84657500D01*
X112710000Y-84657500D02*
X112638572Y-84800357D01*
X112638572Y-84800357D02*
X112638572Y-85586071D01*
X112638572Y-84800357D02*
X112567143Y-84657500D01*
X112567143Y-84657500D02*
X112424286Y-84586071D01*
X112424286Y-84586071D02*
X112210000Y-84586071D01*
X112210000Y-84586071D02*
X112067143Y-84657500D01*
X112067143Y-84657500D02*
X111995714Y-84800357D01*
X111995714Y-84800357D02*
X111995714Y-85586071D01*
X111067143Y-85586071D02*
X111210000Y-85514642D01*
X111210000Y-85514642D02*
X111281429Y-85443214D01*
X111281429Y-85443214D02*
X111352857Y-85300357D01*
X111352857Y-85300357D02*
X111352857Y-84871785D01*
X111352857Y-84871785D02*
X111281429Y-84728928D01*
X111281429Y-84728928D02*
X111210000Y-84657500D01*
X111210000Y-84657500D02*
X111067143Y-84586071D01*
X111067143Y-84586071D02*
X110852857Y-84586071D01*
X110852857Y-84586071D02*
X110710000Y-84657500D01*
X110710000Y-84657500D02*
X110638572Y-84728928D01*
X110638572Y-84728928D02*
X110567143Y-84871785D01*
X110567143Y-84871785D02*
X110567143Y-85300357D01*
X110567143Y-85300357D02*
X110638572Y-85443214D01*
X110638572Y-85443214D02*
X110710000Y-85514642D01*
X110710000Y-85514642D02*
X110852857Y-85586071D01*
X110852857Y-85586071D02*
X111067143Y-85586071D01*
X109924286Y-85586071D02*
X109924286Y-84586071D01*
X109924286Y-84871785D02*
X109852857Y-84728928D01*
X109852857Y-84728928D02*
X109781429Y-84657500D01*
X109781429Y-84657500D02*
X109638571Y-84586071D01*
X109638571Y-84586071D02*
X109495714Y-84586071D01*
X108424286Y-85514642D02*
X108567143Y-85586071D01*
X108567143Y-85586071D02*
X108852858Y-85586071D01*
X108852858Y-85586071D02*
X108995715Y-85514642D01*
X108995715Y-85514642D02*
X109067143Y-85371785D01*
X109067143Y-85371785D02*
X109067143Y-84800357D01*
X109067143Y-84800357D02*
X108995715Y-84657500D01*
X108995715Y-84657500D02*
X108852858Y-84586071D01*
X108852858Y-84586071D02*
X108567143Y-84586071D01*
X108567143Y-84586071D02*
X108424286Y-84657500D01*
X108424286Y-84657500D02*
X108352858Y-84800357D01*
X108352858Y-84800357D02*
X108352858Y-84943214D01*
X108352858Y-84943214D02*
X109067143Y-85086071D01*
X106810001Y-85586071D02*
X106810001Y-84586071D01*
X106810001Y-84086071D02*
X106881429Y-84157500D01*
X106881429Y-84157500D02*
X106810001Y-84228928D01*
X106810001Y-84228928D02*
X106738572Y-84157500D01*
X106738572Y-84157500D02*
X106810001Y-84086071D01*
X106810001Y-84086071D02*
X106810001Y-84228928D01*
X106095715Y-84586071D02*
X106095715Y-85586071D01*
X106095715Y-84728928D02*
X106024286Y-84657500D01*
X106024286Y-84657500D02*
X105881429Y-84586071D01*
X105881429Y-84586071D02*
X105667143Y-84586071D01*
X105667143Y-84586071D02*
X105524286Y-84657500D01*
X105524286Y-84657500D02*
X105452858Y-84800357D01*
X105452858Y-84800357D02*
X105452858Y-85586071D01*
X104952857Y-84586071D02*
X104381429Y-84586071D01*
X104738572Y-85586071D02*
X104738572Y-84300357D01*
X104738572Y-84300357D02*
X104667143Y-84157500D01*
X104667143Y-84157500D02*
X104524286Y-84086071D01*
X104524286Y-84086071D02*
X104381429Y-84086071D01*
X103667143Y-85586071D02*
X103810000Y-85514642D01*
X103810000Y-85514642D02*
X103881429Y-85443214D01*
X103881429Y-85443214D02*
X103952857Y-85300357D01*
X103952857Y-85300357D02*
X103952857Y-84871785D01*
X103952857Y-84871785D02*
X103881429Y-84728928D01*
X103881429Y-84728928D02*
X103810000Y-84657500D01*
X103810000Y-84657500D02*
X103667143Y-84586071D01*
X103667143Y-84586071D02*
X103452857Y-84586071D01*
X103452857Y-84586071D02*
X103310000Y-84657500D01*
X103310000Y-84657500D02*
X103238572Y-84728928D01*
X103238572Y-84728928D02*
X103167143Y-84871785D01*
X103167143Y-84871785D02*
X103167143Y-85300357D01*
X103167143Y-85300357D02*
X103238572Y-85443214D01*
X103238572Y-85443214D02*
X103310000Y-85514642D01*
X103310000Y-85514642D02*
X103452857Y-85586071D01*
X103452857Y-85586071D02*
X103667143Y-85586071D01*
X102524286Y-85586071D02*
X102524286Y-84586071D01*
X102524286Y-84871785D02*
X102452857Y-84728928D01*
X102452857Y-84728928D02*
X102381429Y-84657500D01*
X102381429Y-84657500D02*
X102238571Y-84586071D01*
X102238571Y-84586071D02*
X102095714Y-84586071D01*
X101595715Y-85586071D02*
X101595715Y-84586071D01*
X101595715Y-84728928D02*
X101524286Y-84657500D01*
X101524286Y-84657500D02*
X101381429Y-84586071D01*
X101381429Y-84586071D02*
X101167143Y-84586071D01*
X101167143Y-84586071D02*
X101024286Y-84657500D01*
X101024286Y-84657500D02*
X100952858Y-84800357D01*
X100952858Y-84800357D02*
X100952858Y-85586071D01*
X100952858Y-84800357D02*
X100881429Y-84657500D01*
X100881429Y-84657500D02*
X100738572Y-84586071D01*
X100738572Y-84586071D02*
X100524286Y-84586071D01*
X100524286Y-84586071D02*
X100381429Y-84657500D01*
X100381429Y-84657500D02*
X100310000Y-84800357D01*
X100310000Y-84800357D02*
X100310000Y-85586071D01*
X98952858Y-85586071D02*
X98952858Y-84800357D01*
X98952858Y-84800357D02*
X99024286Y-84657500D01*
X99024286Y-84657500D02*
X99167143Y-84586071D01*
X99167143Y-84586071D02*
X99452858Y-84586071D01*
X99452858Y-84586071D02*
X99595715Y-84657500D01*
X98952858Y-85514642D02*
X99095715Y-85586071D01*
X99095715Y-85586071D02*
X99452858Y-85586071D01*
X99452858Y-85586071D02*
X99595715Y-85514642D01*
X99595715Y-85514642D02*
X99667143Y-85371785D01*
X99667143Y-85371785D02*
X99667143Y-85228928D01*
X99667143Y-85228928D02*
X99595715Y-85086071D01*
X99595715Y-85086071D02*
X99452858Y-85014642D01*
X99452858Y-85014642D02*
X99095715Y-85014642D01*
X99095715Y-85014642D02*
X98952858Y-84943214D01*
X98452857Y-84586071D02*
X97881429Y-84586071D01*
X98238572Y-84086071D02*
X98238572Y-85371785D01*
X98238572Y-85371785D02*
X98167143Y-85514642D01*
X98167143Y-85514642D02*
X98024286Y-85586071D01*
X98024286Y-85586071D02*
X97881429Y-85586071D01*
X97381429Y-85586071D02*
X97381429Y-84586071D01*
X97381429Y-84086071D02*
X97452857Y-84157500D01*
X97452857Y-84157500D02*
X97381429Y-84228928D01*
X97381429Y-84228928D02*
X97310000Y-84157500D01*
X97310000Y-84157500D02*
X97381429Y-84086071D01*
X97381429Y-84086071D02*
X97381429Y-84228928D01*
X96452857Y-85586071D02*
X96595714Y-85514642D01*
X96595714Y-85514642D02*
X96667143Y-85443214D01*
X96667143Y-85443214D02*
X96738571Y-85300357D01*
X96738571Y-85300357D02*
X96738571Y-84871785D01*
X96738571Y-84871785D02*
X96667143Y-84728928D01*
X96667143Y-84728928D02*
X96595714Y-84657500D01*
X96595714Y-84657500D02*
X96452857Y-84586071D01*
X96452857Y-84586071D02*
X96238571Y-84586071D01*
X96238571Y-84586071D02*
X96095714Y-84657500D01*
X96095714Y-84657500D02*
X96024286Y-84728928D01*
X96024286Y-84728928D02*
X95952857Y-84871785D01*
X95952857Y-84871785D02*
X95952857Y-85300357D01*
X95952857Y-85300357D02*
X96024286Y-85443214D01*
X96024286Y-85443214D02*
X96095714Y-85514642D01*
X96095714Y-85514642D02*
X96238571Y-85586071D01*
X96238571Y-85586071D02*
X96452857Y-85586071D01*
X95310000Y-84586071D02*
X95310000Y-85586071D01*
X95310000Y-84728928D02*
X95238571Y-84657500D01*
X95238571Y-84657500D02*
X95095714Y-84586071D01*
X95095714Y-84586071D02*
X94881428Y-84586071D01*
X94881428Y-84586071D02*
X94738571Y-84657500D01*
X94738571Y-84657500D02*
X94667143Y-84800357D01*
X94667143Y-84800357D02*
X94667143Y-85586071D01*
X93952857Y-85443214D02*
X93881428Y-85514642D01*
X93881428Y-85514642D02*
X93952857Y-85586071D01*
X93952857Y-85586071D02*
X94024285Y-85514642D01*
X94024285Y-85514642D02*
X93952857Y-85443214D01*
X93952857Y-85443214D02*
X93952857Y-85586071D01*
X93952857Y-84657500D02*
X93881428Y-84728928D01*
X93881428Y-84728928D02*
X93952857Y-84800357D01*
X93952857Y-84800357D02*
X94024285Y-84728928D01*
X94024285Y-84728928D02*
X93952857Y-84657500D01*
X93952857Y-84657500D02*
X93952857Y-84800357D01*
X117752857Y-90446071D02*
X117752857Y-88946071D01*
X117110000Y-90446071D02*
X117110000Y-89660357D01*
X117110000Y-89660357D02*
X117181428Y-89517500D01*
X117181428Y-89517500D02*
X117324285Y-89446071D01*
X117324285Y-89446071D02*
X117538571Y-89446071D01*
X117538571Y-89446071D02*
X117681428Y-89517500D01*
X117681428Y-89517500D02*
X117752857Y-89588928D01*
X116609999Y-89446071D02*
X116038571Y-89446071D01*
X116395714Y-88946071D02*
X116395714Y-90231785D01*
X116395714Y-90231785D02*
X116324285Y-90374642D01*
X116324285Y-90374642D02*
X116181428Y-90446071D01*
X116181428Y-90446071D02*
X116038571Y-90446071D01*
X115752856Y-89446071D02*
X115181428Y-89446071D01*
X115538571Y-88946071D02*
X115538571Y-90231785D01*
X115538571Y-90231785D02*
X115467142Y-90374642D01*
X115467142Y-90374642D02*
X115324285Y-90446071D01*
X115324285Y-90446071D02*
X115181428Y-90446071D01*
X114681428Y-89446071D02*
X114681428Y-90946071D01*
X114681428Y-89517500D02*
X114538571Y-89446071D01*
X114538571Y-89446071D02*
X114252856Y-89446071D01*
X114252856Y-89446071D02*
X114109999Y-89517500D01*
X114109999Y-89517500D02*
X114038571Y-89588928D01*
X114038571Y-89588928D02*
X113967142Y-89731785D01*
X113967142Y-89731785D02*
X113967142Y-90160357D01*
X113967142Y-90160357D02*
X114038571Y-90303214D01*
X114038571Y-90303214D02*
X114109999Y-90374642D01*
X114109999Y-90374642D02*
X114252856Y-90446071D01*
X114252856Y-90446071D02*
X114538571Y-90446071D01*
X114538571Y-90446071D02*
X114681428Y-90374642D01*
X113395713Y-90374642D02*
X113252856Y-90446071D01*
X113252856Y-90446071D02*
X112967142Y-90446071D01*
X112967142Y-90446071D02*
X112824285Y-90374642D01*
X112824285Y-90374642D02*
X112752856Y-90231785D01*
X112752856Y-90231785D02*
X112752856Y-90160357D01*
X112752856Y-90160357D02*
X112824285Y-90017500D01*
X112824285Y-90017500D02*
X112967142Y-89946071D01*
X112967142Y-89946071D02*
X113181428Y-89946071D01*
X113181428Y-89946071D02*
X113324285Y-89874642D01*
X113324285Y-89874642D02*
X113395713Y-89731785D01*
X113395713Y-89731785D02*
X113395713Y-89660357D01*
X113395713Y-89660357D02*
X113324285Y-89517500D01*
X113324285Y-89517500D02*
X113181428Y-89446071D01*
X113181428Y-89446071D02*
X112967142Y-89446071D01*
X112967142Y-89446071D02*
X112824285Y-89517500D01*
X112109999Y-90303214D02*
X112038570Y-90374642D01*
X112038570Y-90374642D02*
X112109999Y-90446071D01*
X112109999Y-90446071D02*
X112181427Y-90374642D01*
X112181427Y-90374642D02*
X112109999Y-90303214D01*
X112109999Y-90303214D02*
X112109999Y-90446071D01*
X112109999Y-89517500D02*
X112038570Y-89588928D01*
X112038570Y-89588928D02*
X112109999Y-89660357D01*
X112109999Y-89660357D02*
X112181427Y-89588928D01*
X112181427Y-89588928D02*
X112109999Y-89517500D01*
X112109999Y-89517500D02*
X112109999Y-89660357D01*
X110324284Y-88874642D02*
X111609998Y-90803214D01*
X108752855Y-88874642D02*
X110038569Y-90803214D01*
X107609998Y-90374642D02*
X107752855Y-90446071D01*
X107752855Y-90446071D02*
X108038569Y-90446071D01*
X108038569Y-90446071D02*
X108181426Y-90374642D01*
X108181426Y-90374642D02*
X108252855Y-90303214D01*
X108252855Y-90303214D02*
X108324283Y-90160357D01*
X108324283Y-90160357D02*
X108324283Y-89731785D01*
X108324283Y-89731785D02*
X108252855Y-89588928D01*
X108252855Y-89588928D02*
X108181426Y-89517500D01*
X108181426Y-89517500D02*
X108038569Y-89446071D01*
X108038569Y-89446071D02*
X107752855Y-89446071D01*
X107752855Y-89446071D02*
X107609998Y-89517500D01*
X106967141Y-90446071D02*
X106967141Y-89446071D01*
X106967141Y-89731785D02*
X106895712Y-89588928D01*
X106895712Y-89588928D02*
X106824284Y-89517500D01*
X106824284Y-89517500D02*
X106681426Y-89446071D01*
X106681426Y-89446071D02*
X106538569Y-89446071D01*
X106181427Y-89446071D02*
X105824284Y-90446071D01*
X105467141Y-89446071D02*
X105824284Y-90446071D01*
X105824284Y-90446071D02*
X105967141Y-90803214D01*
X105967141Y-90803214D02*
X106038570Y-90874642D01*
X106038570Y-90874642D02*
X106181427Y-90946071D01*
X104681427Y-90446071D02*
X104824284Y-90374642D01*
X104824284Y-90374642D02*
X104895713Y-90303214D01*
X104895713Y-90303214D02*
X104967141Y-90160357D01*
X104967141Y-90160357D02*
X104967141Y-89731785D01*
X104967141Y-89731785D02*
X104895713Y-89588928D01*
X104895713Y-89588928D02*
X104824284Y-89517500D01*
X104824284Y-89517500D02*
X104681427Y-89446071D01*
X104681427Y-89446071D02*
X104467141Y-89446071D01*
X104467141Y-89446071D02*
X104324284Y-89517500D01*
X104324284Y-89517500D02*
X104252856Y-89588928D01*
X104252856Y-89588928D02*
X104181427Y-89731785D01*
X104181427Y-89731785D02*
X104181427Y-90160357D01*
X104181427Y-90160357D02*
X104252856Y-90303214D01*
X104252856Y-90303214D02*
X104324284Y-90374642D01*
X104324284Y-90374642D02*
X104467141Y-90446071D01*
X104467141Y-90446071D02*
X104681427Y-90446071D01*
X103324284Y-90446071D02*
X103467141Y-90374642D01*
X103467141Y-90374642D02*
X103538570Y-90231785D01*
X103538570Y-90231785D02*
X103538570Y-88946071D01*
X102538570Y-90446071D02*
X102681427Y-90374642D01*
X102681427Y-90374642D02*
X102752856Y-90303214D01*
X102752856Y-90303214D02*
X102824284Y-90160357D01*
X102824284Y-90160357D02*
X102824284Y-89731785D01*
X102824284Y-89731785D02*
X102752856Y-89588928D01*
X102752856Y-89588928D02*
X102681427Y-89517500D01*
X102681427Y-89517500D02*
X102538570Y-89446071D01*
X102538570Y-89446071D02*
X102324284Y-89446071D01*
X102324284Y-89446071D02*
X102181427Y-89517500D01*
X102181427Y-89517500D02*
X102109999Y-89588928D01*
X102109999Y-89588928D02*
X102038570Y-89731785D01*
X102038570Y-89731785D02*
X102038570Y-90160357D01*
X102038570Y-90160357D02*
X102109999Y-90303214D01*
X102109999Y-90303214D02*
X102181427Y-90374642D01*
X102181427Y-90374642D02*
X102324284Y-90446071D01*
X102324284Y-90446071D02*
X102538570Y-90446071D01*
X100752856Y-89446071D02*
X100752856Y-90660357D01*
X100752856Y-90660357D02*
X100824284Y-90803214D01*
X100824284Y-90803214D02*
X100895713Y-90874642D01*
X100895713Y-90874642D02*
X101038570Y-90946071D01*
X101038570Y-90946071D02*
X101252856Y-90946071D01*
X101252856Y-90946071D02*
X101395713Y-90874642D01*
X100752856Y-90374642D02*
X100895713Y-90446071D01*
X100895713Y-90446071D02*
X101181427Y-90446071D01*
X101181427Y-90446071D02*
X101324284Y-90374642D01*
X101324284Y-90374642D02*
X101395713Y-90303214D01*
X101395713Y-90303214D02*
X101467141Y-90160357D01*
X101467141Y-90160357D02*
X101467141Y-89731785D01*
X101467141Y-89731785D02*
X101395713Y-89588928D01*
X101395713Y-89588928D02*
X101324284Y-89517500D01*
X101324284Y-89517500D02*
X101181427Y-89446071D01*
X101181427Y-89446071D02*
X100895713Y-89446071D01*
X100895713Y-89446071D02*
X100752856Y-89517500D01*
X99395713Y-89446071D02*
X99395713Y-90660357D01*
X99395713Y-90660357D02*
X99467141Y-90803214D01*
X99467141Y-90803214D02*
X99538570Y-90874642D01*
X99538570Y-90874642D02*
X99681427Y-90946071D01*
X99681427Y-90946071D02*
X99895713Y-90946071D01*
X99895713Y-90946071D02*
X100038570Y-90874642D01*
X99395713Y-90374642D02*
X99538570Y-90446071D01*
X99538570Y-90446071D02*
X99824284Y-90446071D01*
X99824284Y-90446071D02*
X99967141Y-90374642D01*
X99967141Y-90374642D02*
X100038570Y-90303214D01*
X100038570Y-90303214D02*
X100109998Y-90160357D01*
X100109998Y-90160357D02*
X100109998Y-89731785D01*
X100109998Y-89731785D02*
X100038570Y-89588928D01*
X100038570Y-89588928D02*
X99967141Y-89517500D01*
X99967141Y-89517500D02*
X99824284Y-89446071D01*
X99824284Y-89446071D02*
X99538570Y-89446071D01*
X99538570Y-89446071D02*
X99395713Y-89517500D01*
X98109998Y-90374642D02*
X98252855Y-90446071D01*
X98252855Y-90446071D02*
X98538570Y-90446071D01*
X98538570Y-90446071D02*
X98681427Y-90374642D01*
X98681427Y-90374642D02*
X98752855Y-90231785D01*
X98752855Y-90231785D02*
X98752855Y-89660357D01*
X98752855Y-89660357D02*
X98681427Y-89517500D01*
X98681427Y-89517500D02*
X98538570Y-89446071D01*
X98538570Y-89446071D02*
X98252855Y-89446071D01*
X98252855Y-89446071D02*
X98109998Y-89517500D01*
X98109998Y-89517500D02*
X98038570Y-89660357D01*
X98038570Y-89660357D02*
X98038570Y-89803214D01*
X98038570Y-89803214D02*
X98752855Y-89946071D01*
X97395713Y-90446071D02*
X97395713Y-89446071D01*
X97395713Y-89731785D02*
X97324284Y-89588928D01*
X97324284Y-89588928D02*
X97252856Y-89517500D01*
X97252856Y-89517500D02*
X97109998Y-89446071D01*
X97109998Y-89446071D02*
X96967141Y-89446071D01*
X96467142Y-90303214D02*
X96395713Y-90374642D01*
X96395713Y-90374642D02*
X96467142Y-90446071D01*
X96467142Y-90446071D02*
X96538570Y-90374642D01*
X96538570Y-90374642D02*
X96467142Y-90303214D01*
X96467142Y-90303214D02*
X96467142Y-90446071D01*
X95538570Y-90446071D02*
X95681427Y-90374642D01*
X95681427Y-90374642D02*
X95752856Y-90303214D01*
X95752856Y-90303214D02*
X95824284Y-90160357D01*
X95824284Y-90160357D02*
X95824284Y-89731785D01*
X95824284Y-89731785D02*
X95752856Y-89588928D01*
X95752856Y-89588928D02*
X95681427Y-89517500D01*
X95681427Y-89517500D02*
X95538570Y-89446071D01*
X95538570Y-89446071D02*
X95324284Y-89446071D01*
X95324284Y-89446071D02*
X95181427Y-89517500D01*
X95181427Y-89517500D02*
X95109999Y-89588928D01*
X95109999Y-89588928D02*
X95038570Y-89731785D01*
X95038570Y-89731785D02*
X95038570Y-90160357D01*
X95038570Y-90160357D02*
X95109999Y-90303214D01*
X95109999Y-90303214D02*
X95181427Y-90374642D01*
X95181427Y-90374642D02*
X95324284Y-90446071D01*
X95324284Y-90446071D02*
X95538570Y-90446071D01*
X94395713Y-90446071D02*
X94395713Y-89446071D01*
X94395713Y-89731785D02*
X94324284Y-89588928D01*
X94324284Y-89588928D02*
X94252856Y-89517500D01*
X94252856Y-89517500D02*
X94109998Y-89446071D01*
X94109998Y-89446071D02*
X93967141Y-89446071D01*
X92824285Y-89446071D02*
X92824285Y-90660357D01*
X92824285Y-90660357D02*
X92895713Y-90803214D01*
X92895713Y-90803214D02*
X92967142Y-90874642D01*
X92967142Y-90874642D02*
X93109999Y-90946071D01*
X93109999Y-90946071D02*
X93324285Y-90946071D01*
X93324285Y-90946071D02*
X93467142Y-90874642D01*
X92824285Y-90374642D02*
X92967142Y-90446071D01*
X92967142Y-90446071D02*
X93252856Y-90446071D01*
X93252856Y-90446071D02*
X93395713Y-90374642D01*
X93395713Y-90374642D02*
X93467142Y-90303214D01*
X93467142Y-90303214D02*
X93538570Y-90160357D01*
X93538570Y-90160357D02*
X93538570Y-89731785D01*
X93538570Y-89731785D02*
X93467142Y-89588928D01*
X93467142Y-89588928D02*
X93395713Y-89517500D01*
X93395713Y-89517500D02*
X93252856Y-89446071D01*
X93252856Y-89446071D02*
X92967142Y-89446071D01*
X92967142Y-89446071D02*
X92824285Y-89517500D01*
X117752857Y-95306071D02*
X117752857Y-93806071D01*
X117752857Y-93806071D02*
X116895714Y-95306071D01*
X116895714Y-95306071D02*
X116895714Y-93806071D01*
X115967142Y-95306071D02*
X116109999Y-95234642D01*
X116109999Y-95234642D02*
X116181428Y-95163214D01*
X116181428Y-95163214D02*
X116252856Y-95020357D01*
X116252856Y-95020357D02*
X116252856Y-94591785D01*
X116252856Y-94591785D02*
X116181428Y-94448928D01*
X116181428Y-94448928D02*
X116109999Y-94377500D01*
X116109999Y-94377500D02*
X115967142Y-94306071D01*
X115967142Y-94306071D02*
X115752856Y-94306071D01*
X115752856Y-94306071D02*
X115609999Y-94377500D01*
X115609999Y-94377500D02*
X115538571Y-94448928D01*
X115538571Y-94448928D02*
X115467142Y-94591785D01*
X115467142Y-94591785D02*
X115467142Y-95020357D01*
X115467142Y-95020357D02*
X115538571Y-95163214D01*
X115538571Y-95163214D02*
X115609999Y-95234642D01*
X115609999Y-95234642D02*
X115752856Y-95306071D01*
X115752856Y-95306071D02*
X115967142Y-95306071D01*
X115038570Y-94306071D02*
X114467142Y-94306071D01*
X114824285Y-93806071D02*
X114824285Y-95091785D01*
X114824285Y-95091785D02*
X114752856Y-95234642D01*
X114752856Y-95234642D02*
X114609999Y-95306071D01*
X114609999Y-95306071D02*
X114467142Y-95306071D01*
X113395713Y-95234642D02*
X113538570Y-95306071D01*
X113538570Y-95306071D02*
X113824285Y-95306071D01*
X113824285Y-95306071D02*
X113967142Y-95234642D01*
X113967142Y-95234642D02*
X114038570Y-95091785D01*
X114038570Y-95091785D02*
X114038570Y-94520357D01*
X114038570Y-94520357D02*
X113967142Y-94377500D01*
X113967142Y-94377500D02*
X113824285Y-94306071D01*
X113824285Y-94306071D02*
X113538570Y-94306071D01*
X113538570Y-94306071D02*
X113395713Y-94377500D01*
X113395713Y-94377500D02*
X113324285Y-94520357D01*
X113324285Y-94520357D02*
X113324285Y-94663214D01*
X113324285Y-94663214D02*
X114038570Y-94806071D01*
X112752856Y-95234642D02*
X112609999Y-95306071D01*
X112609999Y-95306071D02*
X112324285Y-95306071D01*
X112324285Y-95306071D02*
X112181428Y-95234642D01*
X112181428Y-95234642D02*
X112109999Y-95091785D01*
X112109999Y-95091785D02*
X112109999Y-95020357D01*
X112109999Y-95020357D02*
X112181428Y-94877500D01*
X112181428Y-94877500D02*
X112324285Y-94806071D01*
X112324285Y-94806071D02*
X112538571Y-94806071D01*
X112538571Y-94806071D02*
X112681428Y-94734642D01*
X112681428Y-94734642D02*
X112752856Y-94591785D01*
X112752856Y-94591785D02*
X112752856Y-94520357D01*
X112752856Y-94520357D02*
X112681428Y-94377500D01*
X112681428Y-94377500D02*
X112538571Y-94306071D01*
X112538571Y-94306071D02*
X112324285Y-94306071D01*
X112324285Y-94306071D02*
X112181428Y-94377500D01*
X111467142Y-95163214D02*
X111395713Y-95234642D01*
X111395713Y-95234642D02*
X111467142Y-95306071D01*
X111467142Y-95306071D02*
X111538570Y-95234642D01*
X111538570Y-95234642D02*
X111467142Y-95163214D01*
X111467142Y-95163214D02*
X111467142Y-95306071D01*
X111467142Y-94377500D02*
X111395713Y-94448928D01*
X111395713Y-94448928D02*
X111467142Y-94520357D01*
X111467142Y-94520357D02*
X111538570Y-94448928D01*
X111538570Y-94448928D02*
X111467142Y-94377500D01*
X111467142Y-94377500D02*
X111467142Y-94520357D01*
%LPC*%
D12*
X87000000Y-64000000D03*
X212000000Y-119000000D03*
X212000000Y-64000000D03*
X87000000Y-119000000D03*
D13*
X125850000Y-72150000D03*
X125850000Y-110850000D03*
D14*
X205999999Y-104919999D03*
D15*
X206000000Y-110000000D03*
D16*
X204380000Y-85240000D03*
X206920000Y-85240000D03*
X209460000Y-85240000D03*
X212000000Y-85240000D03*
D17*
X147230000Y-99210000D03*
X147230000Y-101750000D03*
X147230000Y-104290000D03*
X147230000Y-106830000D03*
X147230000Y-109370000D03*
X147230000Y-111910000D03*
D18*
X147230000Y-115720000D03*
X147230000Y-95400000D03*
X134530000Y-115720000D03*
D17*
X134530000Y-109370000D03*
X134530000Y-106830000D03*
X134530000Y-104290000D03*
X134530000Y-101750000D03*
D18*
X134530000Y-95400000D03*
D19*
X208190000Y-79525000D03*
D20*
X208189999Y-69364999D03*
D21*
X112000000Y-118500000D03*
D22*
X113249999Y-118499999D03*
X114499999Y-118499999D03*
X115749999Y-118499999D03*
X116999999Y-118499999D03*
X118249999Y-118499999D03*
X119499999Y-118499999D03*
X120749999Y-118499999D03*
X121999999Y-118499999D03*
X123249999Y-118499999D03*
D16*
X204380000Y-94130000D03*
X206920000Y-94130000D03*
X209460000Y-94130000D03*
X212000000Y-94130000D03*
D19*
X205015000Y-69365000D03*
D20*
X205014999Y-79524999D03*
D18*
X154850000Y-68730000D03*
D23*
X154850000Y-114450000D03*
D18*
X172630000Y-68730000D03*
D23*
X172630000Y-114450000D03*
D17*
X153580000Y-72540000D03*
X156120000Y-72540000D03*
X153580000Y-75080000D03*
X156120000Y-75080000D03*
X153580000Y-77620000D03*
X156120000Y-77620000D03*
X153580000Y-80160000D03*
X156120000Y-80160000D03*
X153580000Y-82700000D03*
X156120000Y-82700000D03*
X153580000Y-85240000D03*
X156120000Y-85240000D03*
X153580000Y-87780000D03*
X156120000Y-87780000D03*
X153580000Y-90320000D03*
X156120000Y-90320000D03*
X153580000Y-92860000D03*
X156120000Y-92860000D03*
X153580000Y-95400000D03*
X156120000Y-95400000D03*
X153580000Y-97940000D03*
X156120000Y-97940000D03*
X153580000Y-100480000D03*
X156120000Y-100480000D03*
X153580000Y-103020000D03*
X156120000Y-103020000D03*
X153580000Y-105560000D03*
X156120000Y-105560000D03*
X153580000Y-108100000D03*
X156120000Y-108100000D03*
X153580000Y-110640000D03*
X156120000Y-110640000D03*
X171360000Y-110640000D03*
X173900000Y-110640000D03*
X171360000Y-108100000D03*
X173900000Y-108100000D03*
X171360000Y-105560000D03*
X173900000Y-105560000D03*
X171360000Y-103020000D03*
X173900000Y-103020000D03*
X171360000Y-100480000D03*
X173900000Y-100480000D03*
X171360000Y-97940000D03*
X173900000Y-97940000D03*
X171360000Y-95400000D03*
X173900000Y-95400000D03*
X171360000Y-92860000D03*
X173900000Y-92860000D03*
X171360000Y-90320000D03*
X173900000Y-90320000D03*
X171360000Y-87780000D03*
X173900000Y-87780000D03*
X171360000Y-85240000D03*
X173900000Y-85240000D03*
X171360000Y-82700000D03*
X173900000Y-82700000D03*
D18*
X134530000Y-67460000D03*
X134530000Y-87780000D03*
D23*
X147230000Y-67460000D03*
X147230000Y-87780000D03*
D17*
X147230000Y-85240000D03*
X147230000Y-82700000D03*
X147230000Y-80160000D03*
X147230000Y-77620000D03*
X147230000Y-75080000D03*
X147230000Y-72540000D03*
X147230000Y-70000000D03*
D19*
X211365000Y-73215000D03*
X211365000Y-75715000D03*
D18*
X180250000Y-68730000D03*
D23*
X180250000Y-114450000D03*
D18*
X198030000Y-68730000D03*
D23*
X198030000Y-114450000D03*
D17*
X178980000Y-72540000D03*
X181520000Y-72540000D03*
X178980000Y-75080000D03*
X181520000Y-75080000D03*
X178980000Y-77620000D03*
X181520000Y-77620000D03*
X178980000Y-80160000D03*
X181520000Y-80160000D03*
X178980000Y-82700000D03*
X181520000Y-82700000D03*
X178980000Y-85240000D03*
X181520000Y-85240000D03*
X178980000Y-87780000D03*
X181520000Y-87780000D03*
X178980000Y-90320000D03*
X181520000Y-90320000D03*
X178980000Y-92860000D03*
X181520000Y-92860000D03*
X178980000Y-95400000D03*
X181520000Y-95400000D03*
X178980000Y-97940000D03*
X181520000Y-97940000D03*
X178980000Y-100480000D03*
X181520000Y-100480000D03*
X178980000Y-103020000D03*
X181520000Y-103020000D03*
X178980000Y-105560000D03*
X181520000Y-105560000D03*
X178980000Y-108100000D03*
X181520000Y-108100000D03*
X178980000Y-110640000D03*
X181520000Y-110640000D03*
X196760000Y-110640000D03*
X199300000Y-110640000D03*
X196760000Y-108100000D03*
X199300000Y-108100000D03*
X196760000Y-105560000D03*
X199300000Y-105560000D03*
X196760000Y-103020000D03*
X199300000Y-103020000D03*
X196760000Y-100480000D03*
X199300000Y-100480000D03*
X196760000Y-97940000D03*
X199300000Y-97940000D03*
X196760000Y-95400000D03*
X199300000Y-95400000D03*
X196760000Y-92860000D03*
X199300000Y-92860000D03*
X196760000Y-90320000D03*
X199300000Y-90320000D03*
X196760000Y-87780000D03*
X199300000Y-87780000D03*
X196760000Y-85240000D03*
X199300000Y-85240000D03*
X196760000Y-82700000D03*
X199300000Y-82700000D03*
M02*
