M48
; DRILL file {KiCad (7.0.0-0)} date Sunday, March 05, 2023 at 11:15:21 AM
; FORMAT={-:-/ absolute / metric / decimal}
; #@! TF.CreationDate,2023-03-05T11:15:21-05:00
; #@! TF.GenerationSoftware,Kicad,Pcbnew,(7.0.0-0)
; #@! TF.FileFunction,Plated,1,2,PTH
FMAT,2
METRIC
; #@! TA.AperFunction,Plated,PTH,ViaDrill
T1C0.400
; #@! TA.AperFunction,Plated,PTH,ComponentDrill
T2C0.500
; #@! TA.AperFunction,Plated,PTH,ComponentDrill
T3C0.762
; #@! TA.AperFunction,Plated,PTH,ComponentDrill
T4C0.800
; #@! TA.AperFunction,Plated,PTH,ComponentDrill
T5C1.000
; #@! TA.AperFunction,Plated,PTH,ComponentDrill
T6C1.016
; #@! TA.AperFunction,Plated,PTH,ComponentDrill
T7C1.400
; #@! TA.AperFunction,Plated,PTH,ComponentDrill
T8C2.500
; #@! TA.AperFunction,Plated,PTH,ComponentDrill
T9C2.540
; #@! TA.AperFunction,Plated,PTH,ComponentDrill
T10C3.000
%
G90
G05
T1
X85.0Y-70.0
X85.0Y-91.59
X85.0Y-113.18
X96.43Y-81.43
X96.43Y-101.75
X106.59Y-70.0
X106.59Y-91.59
X106.59Y-113.18
X116.75Y-81.43
X116.75Y-103.02
X117.094Y-120.396
X128.18Y-91.59
X133.26Y-77.62
X140.88Y-68.73
X140.88Y-77.62
X140.88Y-86.51
X140.88Y-97.94
X140.88Y-105.56
X140.88Y-113.18
X149.77Y-103.02
X163.105Y-108.1
X163.74Y-68.73
X163.74Y-79.525
X163.74Y-90.32
X163.74Y-97.94
X163.74Y-114.45
X165.01Y-110.64
X176.5Y-95.5
X176.5Y-98.0
X189.14Y-68.73
X189.14Y-78.89
X189.14Y-90.32
X189.14Y-97.94
X189.14Y-105.56
X189.14Y-114.45
T2
X112.0Y-118.5
X113.25Y-118.5
X114.5Y-118.5
X115.75Y-118.5
X117.0Y-118.5
X118.25Y-118.5
X119.5Y-118.5
X120.75Y-118.5
X122.0Y-118.5
X123.25Y-118.5
T3
X204.38Y-85.24
X204.38Y-94.13
X206.92Y-85.24
X206.92Y-94.13
X209.46Y-85.24
X209.46Y-94.13
X212.0Y-85.24
X212.0Y-94.13
T4
X205.015Y-69.365
X205.015Y-79.525
X208.19Y-69.365
X208.19Y-79.525
X211.365Y-73.215
X211.365Y-75.715
T5
X153.58Y-75.08
X153.58Y-77.62
X153.58Y-80.16
X153.58Y-82.7
X153.58Y-85.24
X153.58Y-87.78
X153.58Y-90.32
X153.58Y-92.86
X153.58Y-95.4
X153.58Y-97.94
X153.58Y-100.48
X153.58Y-103.02
X153.58Y-105.56
X153.58Y-108.1
X153.58Y-110.64
X156.12Y-75.08
X156.12Y-77.62
X156.12Y-80.16
X156.12Y-82.7
X156.12Y-85.24
X156.12Y-87.78
X156.12Y-90.32
X156.12Y-92.86
X156.12Y-95.4
X156.12Y-97.94
X156.12Y-100.48
X156.12Y-103.02
X156.12Y-105.56
X156.12Y-108.1
X156.12Y-110.64
X171.36Y-82.7
X171.36Y-85.24
X171.36Y-87.78
X171.36Y-90.32
X171.36Y-92.86
X171.36Y-95.4
X171.36Y-97.94
X171.36Y-100.48
X171.36Y-103.02
X171.36Y-105.56
X171.36Y-108.1
X171.36Y-110.64
X173.9Y-82.7
X173.9Y-85.24
X173.9Y-87.78
X173.9Y-90.32
X173.9Y-92.86
X173.9Y-95.4
X173.9Y-97.94
X173.9Y-100.48
X173.9Y-103.02
X173.9Y-105.56
X173.9Y-108.1
X173.9Y-110.64
X178.98Y-75.08
X178.98Y-77.62
X178.98Y-80.16
X178.98Y-82.7
X178.98Y-85.24
X178.98Y-87.78
X178.98Y-90.32
X178.98Y-92.86
X178.98Y-95.4
X178.98Y-97.94
X178.98Y-100.48
X178.98Y-103.02
X178.98Y-105.56
X178.98Y-108.1
X178.98Y-110.64
X181.52Y-75.08
X181.52Y-77.62
X181.52Y-80.16
X181.52Y-82.7
X181.52Y-85.24
X181.52Y-87.78
X181.52Y-90.32
X181.52Y-92.86
X181.52Y-95.4
X181.52Y-97.94
X181.52Y-100.48
X181.52Y-103.02
X181.52Y-105.56
X181.52Y-108.1
X181.52Y-110.64
X196.76Y-82.7
X196.76Y-85.24
X196.76Y-87.78
X196.76Y-90.32
X196.76Y-92.86
X196.76Y-95.4
X196.76Y-97.94
X196.76Y-100.48
X196.76Y-103.02
X196.76Y-105.56
X196.76Y-108.1
X196.76Y-110.64
X199.3Y-82.7
X199.3Y-85.24
X199.3Y-87.78
X199.3Y-90.32
X199.3Y-92.86
X199.3Y-95.4
X199.3Y-97.94
X199.3Y-100.48
X199.3Y-103.02
X199.3Y-105.56
X199.3Y-108.1
X199.3Y-110.64
T6
X134.53Y-101.75
X134.53Y-104.29
X134.53Y-106.83
X134.53Y-109.37
X147.23Y-70.0
X147.23Y-72.54
X147.23Y-75.08
X147.23Y-77.62
X147.23Y-80.16
X147.23Y-82.7
X147.23Y-85.24
X147.23Y-99.21
X147.23Y-101.75
X147.23Y-104.29
X147.23Y-106.83
X147.23Y-109.37
X147.23Y-111.91
X153.58Y-72.54
X156.12Y-72.54
X178.98Y-72.54
X181.52Y-72.54
T7
X206.0Y-104.92
X206.0Y-110.0
T8
X125.85Y-72.15
X125.85Y-110.85
T9
X154.85Y-68.73
X172.63Y-68.73
X180.25Y-68.73
X198.03Y-68.73
T10
X87.0Y-64.0
X87.0Y-119.0
X212.0Y-64.0
X212.0Y-119.0
T0
M30
