%TF.GenerationSoftware,KiCad,Pcbnew,(7.0.0-0)*%
%TF.CreationDate,2023-03-05T11:15:22-05:00*%
%TF.ProjectId,Cryologger ITB,4372796f-6c6f-4676-9765-72204954422e,rev?*%
%TF.SameCoordinates,Original*%
%TF.FileFunction,Drillmap*%
%TF.FilePolarity,Positive*%
%FSLAX45Y45*%
G04 Gerber Fmt 4.5, Leading zero omitted, Abs format (unit mm)*
G04 Created by KiCad (PCBNEW (7.0.0-0)) date 2023-03-05 11:15:22*
%MOMM*%
%LPD*%
G01*
G04 APERTURE LIST*
%ADD10C,0.200000*%
%ADD11C,0.254000*%
G04 APERTURE END LIST*
D10*
X21600000Y-6400000D02*
G75*
G03*
X21200000Y-6000000I-400000J0D01*
G01*
X8300000Y-6400000D02*
X8300000Y-11900000D01*
X21600000Y-6400000D02*
X21600000Y-11900000D01*
X21200000Y-6000000D02*
X8700000Y-6000000D01*
X8700000Y-6000000D02*
G75*
G03*
X8300000Y-6400000I0J-400000D01*
G01*
X8300000Y-11900000D02*
G75*
G03*
X8700000Y-12300000I400000J0D01*
G01*
X8700000Y-12300000D02*
X21200000Y-12300000D01*
X21200000Y-12300000D02*
G75*
G03*
X21600000Y-11900000I0J400000D01*
G01*
D11*
X13326000Y-6619000D02*
X13580000Y-6873000D01*
X13580000Y-6619000D02*
X13326000Y-6873000D01*
X13326000Y-8651000D02*
X13580000Y-8905000D01*
X13580000Y-8651000D02*
X13326000Y-8905000D01*
X13326000Y-9413000D02*
X13580000Y-9667000D01*
X13580000Y-9413000D02*
X13326000Y-9667000D01*
X13326000Y-11445000D02*
X13580000Y-11699000D01*
X13580000Y-11445000D02*
X13326000Y-11699000D01*
X14596000Y-6619000D02*
X14850000Y-6873000D01*
X14850000Y-6619000D02*
X14596000Y-6873000D01*
X14596000Y-8651000D02*
X14850000Y-8905000D01*
X14850000Y-8651000D02*
X14596000Y-8905000D01*
X14596000Y-9413000D02*
X14850000Y-9667000D01*
X14850000Y-9413000D02*
X14596000Y-9667000D01*
X14596000Y-11445000D02*
X14850000Y-11699000D01*
X14850000Y-11445000D02*
X14596000Y-11699000D01*
X15358000Y-11318000D02*
X15612000Y-11572000D01*
X15612000Y-11318000D02*
X15358000Y-11572000D01*
X17136000Y-11318000D02*
X17390000Y-11572000D01*
X17390000Y-11318000D02*
X17136000Y-11572000D01*
X17898000Y-11318000D02*
X18152000Y-11572000D01*
X18152000Y-11318000D02*
X17898000Y-11572000D01*
X19676000Y-11318000D02*
X19930000Y-11572000D01*
X19930000Y-11318000D02*
X19676000Y-11572000D01*
D10*
X8537619Y-12603476D02*
X8537619Y-12403476D01*
X8537619Y-12403476D02*
X8585238Y-12403476D01*
X8585238Y-12403476D02*
X8613810Y-12413000D01*
X8613810Y-12413000D02*
X8632857Y-12432048D01*
X8632857Y-12432048D02*
X8642381Y-12451095D01*
X8642381Y-12451095D02*
X8651905Y-12489190D01*
X8651905Y-12489190D02*
X8651905Y-12517762D01*
X8651905Y-12517762D02*
X8642381Y-12555857D01*
X8642381Y-12555857D02*
X8632857Y-12574905D01*
X8632857Y-12574905D02*
X8613810Y-12593952D01*
X8613810Y-12593952D02*
X8585238Y-12603476D01*
X8585238Y-12603476D02*
X8537619Y-12603476D01*
X8737619Y-12603476D02*
X8737619Y-12470143D01*
X8737619Y-12508238D02*
X8747143Y-12489190D01*
X8747143Y-12489190D02*
X8756667Y-12479667D01*
X8756667Y-12479667D02*
X8775714Y-12470143D01*
X8775714Y-12470143D02*
X8794762Y-12470143D01*
X8861429Y-12603476D02*
X8861429Y-12470143D01*
X8861429Y-12403476D02*
X8851905Y-12413000D01*
X8851905Y-12413000D02*
X8861429Y-12422524D01*
X8861429Y-12422524D02*
X8870952Y-12413000D01*
X8870952Y-12413000D02*
X8861429Y-12403476D01*
X8861429Y-12403476D02*
X8861429Y-12422524D01*
X8985238Y-12603476D02*
X8966190Y-12593952D01*
X8966190Y-12593952D02*
X8956667Y-12574905D01*
X8956667Y-12574905D02*
X8956667Y-12403476D01*
X9090000Y-12603476D02*
X9070952Y-12593952D01*
X9070952Y-12593952D02*
X9061429Y-12574905D01*
X9061429Y-12574905D02*
X9061429Y-12403476D01*
X9286190Y-12603476D02*
X9286190Y-12403476D01*
X9286190Y-12403476D02*
X9352857Y-12546333D01*
X9352857Y-12546333D02*
X9419524Y-12403476D01*
X9419524Y-12403476D02*
X9419524Y-12603476D01*
X9600476Y-12603476D02*
X9600476Y-12498714D01*
X9600476Y-12498714D02*
X9590952Y-12479667D01*
X9590952Y-12479667D02*
X9571905Y-12470143D01*
X9571905Y-12470143D02*
X9533809Y-12470143D01*
X9533809Y-12470143D02*
X9514762Y-12479667D01*
X9600476Y-12593952D02*
X9581429Y-12603476D01*
X9581429Y-12603476D02*
X9533809Y-12603476D01*
X9533809Y-12603476D02*
X9514762Y-12593952D01*
X9514762Y-12593952D02*
X9505238Y-12574905D01*
X9505238Y-12574905D02*
X9505238Y-12555857D01*
X9505238Y-12555857D02*
X9514762Y-12536809D01*
X9514762Y-12536809D02*
X9533809Y-12527286D01*
X9533809Y-12527286D02*
X9581429Y-12527286D01*
X9581429Y-12527286D02*
X9600476Y-12517762D01*
X9695714Y-12470143D02*
X9695714Y-12670143D01*
X9695714Y-12479667D02*
X9714762Y-12470143D01*
X9714762Y-12470143D02*
X9752857Y-12470143D01*
X9752857Y-12470143D02*
X9771905Y-12479667D01*
X9771905Y-12479667D02*
X9781429Y-12489190D01*
X9781429Y-12489190D02*
X9790952Y-12508238D01*
X9790952Y-12508238D02*
X9790952Y-12565381D01*
X9790952Y-12565381D02*
X9781429Y-12584428D01*
X9781429Y-12584428D02*
X9771905Y-12593952D01*
X9771905Y-12593952D02*
X9752857Y-12603476D01*
X9752857Y-12603476D02*
X9714762Y-12603476D01*
X9714762Y-12603476D02*
X9695714Y-12593952D01*
X9876667Y-12584428D02*
X9886190Y-12593952D01*
X9886190Y-12593952D02*
X9876667Y-12603476D01*
X9876667Y-12603476D02*
X9867143Y-12593952D01*
X9867143Y-12593952D02*
X9876667Y-12584428D01*
X9876667Y-12584428D02*
X9876667Y-12603476D01*
X9876667Y-12479667D02*
X9886190Y-12489190D01*
X9886190Y-12489190D02*
X9876667Y-12498714D01*
X9876667Y-12498714D02*
X9867143Y-12489190D01*
X9867143Y-12489190D02*
X9876667Y-12479667D01*
X9876667Y-12479667D02*
X9876667Y-12498714D01*
X8090000Y-12850000D02*
X8290000Y-13050000D01*
X8290000Y-12850000D02*
X8090000Y-13050000D01*
X8528095Y-12842524D02*
X8537619Y-12833000D01*
X8537619Y-12833000D02*
X8556667Y-12823476D01*
X8556667Y-12823476D02*
X8604286Y-12823476D01*
X8604286Y-12823476D02*
X8623333Y-12833000D01*
X8623333Y-12833000D02*
X8632857Y-12842524D01*
X8632857Y-12842524D02*
X8642381Y-12861571D01*
X8642381Y-12861571D02*
X8642381Y-12880619D01*
X8642381Y-12880619D02*
X8632857Y-12909190D01*
X8632857Y-12909190D02*
X8518571Y-13023476D01*
X8518571Y-13023476D02*
X8642381Y-13023476D01*
X8728095Y-13004428D02*
X8737619Y-13013952D01*
X8737619Y-13013952D02*
X8728095Y-13023476D01*
X8728095Y-13023476D02*
X8718571Y-13013952D01*
X8718571Y-13013952D02*
X8728095Y-13004428D01*
X8728095Y-13004428D02*
X8728095Y-13023476D01*
X8918571Y-12823476D02*
X8823333Y-12823476D01*
X8823333Y-12823476D02*
X8813810Y-12918714D01*
X8813810Y-12918714D02*
X8823333Y-12909190D01*
X8823333Y-12909190D02*
X8842381Y-12899667D01*
X8842381Y-12899667D02*
X8890000Y-12899667D01*
X8890000Y-12899667D02*
X8909048Y-12909190D01*
X8909048Y-12909190D02*
X8918571Y-12918714D01*
X8918571Y-12918714D02*
X8928095Y-12937762D01*
X8928095Y-12937762D02*
X8928095Y-12985381D01*
X8928095Y-12985381D02*
X8918571Y-13004428D01*
X8918571Y-13004428D02*
X8909048Y-13013952D01*
X8909048Y-13013952D02*
X8890000Y-13023476D01*
X8890000Y-13023476D02*
X8842381Y-13023476D01*
X8842381Y-13023476D02*
X8823333Y-13013952D01*
X8823333Y-13013952D02*
X8813810Y-13004428D01*
X9099524Y-12890143D02*
X9099524Y-13023476D01*
X9051905Y-12813952D02*
X9004286Y-12956809D01*
X9004286Y-12956809D02*
X9128095Y-12956809D01*
X9242381Y-12823476D02*
X9261429Y-12823476D01*
X9261429Y-12823476D02*
X9280476Y-12833000D01*
X9280476Y-12833000D02*
X9290000Y-12842524D01*
X9290000Y-12842524D02*
X9299524Y-12861571D01*
X9299524Y-12861571D02*
X9309048Y-12899667D01*
X9309048Y-12899667D02*
X9309048Y-12947286D01*
X9309048Y-12947286D02*
X9299524Y-12985381D01*
X9299524Y-12985381D02*
X9290000Y-13004428D01*
X9290000Y-13004428D02*
X9280476Y-13013952D01*
X9280476Y-13013952D02*
X9261429Y-13023476D01*
X9261429Y-13023476D02*
X9242381Y-13023476D01*
X9242381Y-13023476D02*
X9223333Y-13013952D01*
X9223333Y-13013952D02*
X9213810Y-13004428D01*
X9213810Y-13004428D02*
X9204286Y-12985381D01*
X9204286Y-12985381D02*
X9194762Y-12947286D01*
X9194762Y-12947286D02*
X9194762Y-12899667D01*
X9194762Y-12899667D02*
X9204286Y-12861571D01*
X9204286Y-12861571D02*
X9213810Y-12842524D01*
X9213810Y-12842524D02*
X9223333Y-12833000D01*
X9223333Y-12833000D02*
X9242381Y-12823476D01*
X9394762Y-13023476D02*
X9394762Y-12890143D01*
X9394762Y-12909190D02*
X9404286Y-12899667D01*
X9404286Y-12899667D02*
X9423333Y-12890143D01*
X9423333Y-12890143D02*
X9451905Y-12890143D01*
X9451905Y-12890143D02*
X9470952Y-12899667D01*
X9470952Y-12899667D02*
X9480476Y-12918714D01*
X9480476Y-12918714D02*
X9480476Y-13023476D01*
X9480476Y-12918714D02*
X9490000Y-12899667D01*
X9490000Y-12899667D02*
X9509048Y-12890143D01*
X9509048Y-12890143D02*
X9537619Y-12890143D01*
X9537619Y-12890143D02*
X9556667Y-12899667D01*
X9556667Y-12899667D02*
X9566191Y-12918714D01*
X9566191Y-12918714D02*
X9566191Y-13023476D01*
X9661429Y-13023476D02*
X9661429Y-12890143D01*
X9661429Y-12909190D02*
X9670952Y-12899667D01*
X9670952Y-12899667D02*
X9690000Y-12890143D01*
X9690000Y-12890143D02*
X9718572Y-12890143D01*
X9718572Y-12890143D02*
X9737619Y-12899667D01*
X9737619Y-12899667D02*
X9747143Y-12918714D01*
X9747143Y-12918714D02*
X9747143Y-13023476D01*
X9747143Y-12918714D02*
X9756667Y-12899667D01*
X9756667Y-12899667D02*
X9775714Y-12890143D01*
X9775714Y-12890143D02*
X9804286Y-12890143D01*
X9804286Y-12890143D02*
X9823333Y-12899667D01*
X9823333Y-12899667D02*
X9832857Y-12918714D01*
X9832857Y-12918714D02*
X9832857Y-13023476D01*
X10190952Y-12813952D02*
X10019524Y-13071095D01*
X10415714Y-12823476D02*
X10434762Y-12823476D01*
X10434762Y-12823476D02*
X10453810Y-12833000D01*
X10453810Y-12833000D02*
X10463333Y-12842524D01*
X10463333Y-12842524D02*
X10472857Y-12861571D01*
X10472857Y-12861571D02*
X10482381Y-12899667D01*
X10482381Y-12899667D02*
X10482381Y-12947286D01*
X10482381Y-12947286D02*
X10472857Y-12985381D01*
X10472857Y-12985381D02*
X10463333Y-13004428D01*
X10463333Y-13004428D02*
X10453810Y-13013952D01*
X10453810Y-13013952D02*
X10434762Y-13023476D01*
X10434762Y-13023476D02*
X10415714Y-13023476D01*
X10415714Y-13023476D02*
X10396667Y-13013952D01*
X10396667Y-13013952D02*
X10387143Y-13004428D01*
X10387143Y-13004428D02*
X10377619Y-12985381D01*
X10377619Y-12985381D02*
X10368095Y-12947286D01*
X10368095Y-12947286D02*
X10368095Y-12899667D01*
X10368095Y-12899667D02*
X10377619Y-12861571D01*
X10377619Y-12861571D02*
X10387143Y-12842524D01*
X10387143Y-12842524D02*
X10396667Y-12833000D01*
X10396667Y-12833000D02*
X10415714Y-12823476D01*
X10568095Y-13004428D02*
X10577619Y-13013952D01*
X10577619Y-13013952D02*
X10568095Y-13023476D01*
X10568095Y-13023476D02*
X10558572Y-13013952D01*
X10558572Y-13013952D02*
X10568095Y-13004428D01*
X10568095Y-13004428D02*
X10568095Y-13023476D01*
X10768095Y-13023476D02*
X10653810Y-13023476D01*
X10710952Y-13023476D02*
X10710952Y-12823476D01*
X10710952Y-12823476D02*
X10691905Y-12852048D01*
X10691905Y-12852048D02*
X10672857Y-12871095D01*
X10672857Y-12871095D02*
X10653810Y-12880619D01*
X10891905Y-12823476D02*
X10910953Y-12823476D01*
X10910953Y-12823476D02*
X10930000Y-12833000D01*
X10930000Y-12833000D02*
X10939524Y-12842524D01*
X10939524Y-12842524D02*
X10949048Y-12861571D01*
X10949048Y-12861571D02*
X10958572Y-12899667D01*
X10958572Y-12899667D02*
X10958572Y-12947286D01*
X10958572Y-12947286D02*
X10949048Y-12985381D01*
X10949048Y-12985381D02*
X10939524Y-13004428D01*
X10939524Y-13004428D02*
X10930000Y-13013952D01*
X10930000Y-13013952D02*
X10910953Y-13023476D01*
X10910953Y-13023476D02*
X10891905Y-13023476D01*
X10891905Y-13023476D02*
X10872857Y-13013952D01*
X10872857Y-13013952D02*
X10863333Y-13004428D01*
X10863333Y-13004428D02*
X10853810Y-12985381D01*
X10853810Y-12985381D02*
X10844286Y-12947286D01*
X10844286Y-12947286D02*
X10844286Y-12899667D01*
X10844286Y-12899667D02*
X10853810Y-12861571D01*
X10853810Y-12861571D02*
X10863333Y-12842524D01*
X10863333Y-12842524D02*
X10872857Y-12833000D01*
X10872857Y-12833000D02*
X10891905Y-12823476D01*
X11082381Y-12823476D02*
X11101429Y-12823476D01*
X11101429Y-12823476D02*
X11120476Y-12833000D01*
X11120476Y-12833000D02*
X11130000Y-12842524D01*
X11130000Y-12842524D02*
X11139524Y-12861571D01*
X11139524Y-12861571D02*
X11149048Y-12899667D01*
X11149048Y-12899667D02*
X11149048Y-12947286D01*
X11149048Y-12947286D02*
X11139524Y-12985381D01*
X11139524Y-12985381D02*
X11130000Y-13004428D01*
X11130000Y-13004428D02*
X11120476Y-13013952D01*
X11120476Y-13013952D02*
X11101429Y-13023476D01*
X11101429Y-13023476D02*
X11082381Y-13023476D01*
X11082381Y-13023476D02*
X11063333Y-13013952D01*
X11063333Y-13013952D02*
X11053810Y-13004428D01*
X11053810Y-13004428D02*
X11044286Y-12985381D01*
X11044286Y-12985381D02*
X11034762Y-12947286D01*
X11034762Y-12947286D02*
X11034762Y-12899667D01*
X11034762Y-12899667D02*
X11044286Y-12861571D01*
X11044286Y-12861571D02*
X11053810Y-12842524D01*
X11053810Y-12842524D02*
X11063333Y-12833000D01*
X11063333Y-12833000D02*
X11082381Y-12823476D01*
X11272857Y-12823476D02*
X11291905Y-12823476D01*
X11291905Y-12823476D02*
X11310952Y-12833000D01*
X11310952Y-12833000D02*
X11320476Y-12842524D01*
X11320476Y-12842524D02*
X11330000Y-12861571D01*
X11330000Y-12861571D02*
X11339524Y-12899667D01*
X11339524Y-12899667D02*
X11339524Y-12947286D01*
X11339524Y-12947286D02*
X11330000Y-12985381D01*
X11330000Y-12985381D02*
X11320476Y-13004428D01*
X11320476Y-13004428D02*
X11310952Y-13013952D01*
X11310952Y-13013952D02*
X11291905Y-13023476D01*
X11291905Y-13023476D02*
X11272857Y-13023476D01*
X11272857Y-13023476D02*
X11253810Y-13013952D01*
X11253810Y-13013952D02*
X11244286Y-13004428D01*
X11244286Y-13004428D02*
X11234762Y-12985381D01*
X11234762Y-12985381D02*
X11225238Y-12947286D01*
X11225238Y-12947286D02*
X11225238Y-12899667D01*
X11225238Y-12899667D02*
X11234762Y-12861571D01*
X11234762Y-12861571D02*
X11244286Y-12842524D01*
X11244286Y-12842524D02*
X11253810Y-12833000D01*
X11253810Y-12833000D02*
X11272857Y-12823476D01*
X11415714Y-12823476D02*
X11415714Y-12861571D01*
X11491905Y-12823476D02*
X11491905Y-12861571D01*
X11754762Y-13099667D02*
X11745238Y-13090143D01*
X11745238Y-13090143D02*
X11726191Y-13061571D01*
X11726191Y-13061571D02*
X11716667Y-13042524D01*
X11716667Y-13042524D02*
X11707143Y-13013952D01*
X11707143Y-13013952D02*
X11697619Y-12966333D01*
X11697619Y-12966333D02*
X11697619Y-12928238D01*
X11697619Y-12928238D02*
X11707143Y-12880619D01*
X11707143Y-12880619D02*
X11716667Y-12852048D01*
X11716667Y-12852048D02*
X11726191Y-12833000D01*
X11726191Y-12833000D02*
X11745238Y-12804428D01*
X11745238Y-12804428D02*
X11754762Y-12794905D01*
X11935714Y-13023476D02*
X11821429Y-13023476D01*
X11878571Y-13023476D02*
X11878571Y-12823476D01*
X11878571Y-12823476D02*
X11859524Y-12852048D01*
X11859524Y-12852048D02*
X11840476Y-12871095D01*
X11840476Y-12871095D02*
X11821429Y-12880619D01*
X12011905Y-12842524D02*
X12021429Y-12833000D01*
X12021429Y-12833000D02*
X12040476Y-12823476D01*
X12040476Y-12823476D02*
X12088095Y-12823476D01*
X12088095Y-12823476D02*
X12107143Y-12833000D01*
X12107143Y-12833000D02*
X12116667Y-12842524D01*
X12116667Y-12842524D02*
X12126191Y-12861571D01*
X12126191Y-12861571D02*
X12126191Y-12880619D01*
X12126191Y-12880619D02*
X12116667Y-12909190D01*
X12116667Y-12909190D02*
X12002381Y-13023476D01*
X12002381Y-13023476D02*
X12126191Y-13023476D01*
X12331905Y-13023476D02*
X12331905Y-12823476D01*
X12417619Y-13023476D02*
X12417619Y-12918714D01*
X12417619Y-12918714D02*
X12408095Y-12899667D01*
X12408095Y-12899667D02*
X12389048Y-12890143D01*
X12389048Y-12890143D02*
X12360476Y-12890143D01*
X12360476Y-12890143D02*
X12341429Y-12899667D01*
X12341429Y-12899667D02*
X12331905Y-12909190D01*
X12541429Y-13023476D02*
X12522381Y-13013952D01*
X12522381Y-13013952D02*
X12512857Y-13004428D01*
X12512857Y-13004428D02*
X12503333Y-12985381D01*
X12503333Y-12985381D02*
X12503333Y-12928238D01*
X12503333Y-12928238D02*
X12512857Y-12909190D01*
X12512857Y-12909190D02*
X12522381Y-12899667D01*
X12522381Y-12899667D02*
X12541429Y-12890143D01*
X12541429Y-12890143D02*
X12570000Y-12890143D01*
X12570000Y-12890143D02*
X12589048Y-12899667D01*
X12589048Y-12899667D02*
X12598572Y-12909190D01*
X12598572Y-12909190D02*
X12608095Y-12928238D01*
X12608095Y-12928238D02*
X12608095Y-12985381D01*
X12608095Y-12985381D02*
X12598572Y-13004428D01*
X12598572Y-13004428D02*
X12589048Y-13013952D01*
X12589048Y-13013952D02*
X12570000Y-13023476D01*
X12570000Y-13023476D02*
X12541429Y-13023476D01*
X12722381Y-13023476D02*
X12703333Y-13013952D01*
X12703333Y-13013952D02*
X12693810Y-12994905D01*
X12693810Y-12994905D02*
X12693810Y-12823476D01*
X12874762Y-13013952D02*
X12855714Y-13023476D01*
X12855714Y-13023476D02*
X12817619Y-13023476D01*
X12817619Y-13023476D02*
X12798572Y-13013952D01*
X12798572Y-13013952D02*
X12789048Y-12994905D01*
X12789048Y-12994905D02*
X12789048Y-12918714D01*
X12789048Y-12918714D02*
X12798572Y-12899667D01*
X12798572Y-12899667D02*
X12817619Y-12890143D01*
X12817619Y-12890143D02*
X12855714Y-12890143D01*
X12855714Y-12890143D02*
X12874762Y-12899667D01*
X12874762Y-12899667D02*
X12884286Y-12918714D01*
X12884286Y-12918714D02*
X12884286Y-12937762D01*
X12884286Y-12937762D02*
X12789048Y-12956809D01*
X12960476Y-13013952D02*
X12979524Y-13023476D01*
X12979524Y-13023476D02*
X13017619Y-13023476D01*
X13017619Y-13023476D02*
X13036667Y-13013952D01*
X13036667Y-13013952D02*
X13046191Y-12994905D01*
X13046191Y-12994905D02*
X13046191Y-12985381D01*
X13046191Y-12985381D02*
X13036667Y-12966333D01*
X13036667Y-12966333D02*
X13017619Y-12956809D01*
X13017619Y-12956809D02*
X12989048Y-12956809D01*
X12989048Y-12956809D02*
X12970000Y-12947286D01*
X12970000Y-12947286D02*
X12960476Y-12928238D01*
X12960476Y-12928238D02*
X12960476Y-12918714D01*
X12960476Y-12918714D02*
X12970000Y-12899667D01*
X12970000Y-12899667D02*
X12989048Y-12890143D01*
X12989048Y-12890143D02*
X13017619Y-12890143D01*
X13017619Y-12890143D02*
X13036667Y-12899667D01*
X13112857Y-13099667D02*
X13122381Y-13090143D01*
X13122381Y-13090143D02*
X13141429Y-13061571D01*
X13141429Y-13061571D02*
X13150953Y-13042524D01*
X13150953Y-13042524D02*
X13160476Y-13013952D01*
X13160476Y-13013952D02*
X13170000Y-12966333D01*
X13170000Y-12966333D02*
X13170000Y-12928238D01*
X13170000Y-12928238D02*
X13160476Y-12880619D01*
X13160476Y-12880619D02*
X13150953Y-12852048D01*
X13150953Y-12852048D02*
X13141429Y-12833000D01*
X13141429Y-12833000D02*
X13122381Y-12804428D01*
X13122381Y-12804428D02*
X13112857Y-12794905D01*
X13442381Y-13099667D02*
X13432857Y-13090143D01*
X13432857Y-13090143D02*
X13413810Y-13061571D01*
X13413810Y-13061571D02*
X13404286Y-13042524D01*
X13404286Y-13042524D02*
X13394762Y-13013952D01*
X13394762Y-13013952D02*
X13385238Y-12966333D01*
X13385238Y-12966333D02*
X13385238Y-12928238D01*
X13385238Y-12928238D02*
X13394762Y-12880619D01*
X13394762Y-12880619D02*
X13404286Y-12852048D01*
X13404286Y-12852048D02*
X13413810Y-12833000D01*
X13413810Y-12833000D02*
X13432857Y-12804428D01*
X13432857Y-12804428D02*
X13442381Y-12794905D01*
X13518572Y-12890143D02*
X13518572Y-13023476D01*
X13518572Y-12909190D02*
X13528095Y-12899667D01*
X13528095Y-12899667D02*
X13547143Y-12890143D01*
X13547143Y-12890143D02*
X13575714Y-12890143D01*
X13575714Y-12890143D02*
X13594762Y-12899667D01*
X13594762Y-12899667D02*
X13604286Y-12918714D01*
X13604286Y-12918714D02*
X13604286Y-13023476D01*
X13728095Y-13023476D02*
X13709048Y-13013952D01*
X13709048Y-13013952D02*
X13699524Y-13004428D01*
X13699524Y-13004428D02*
X13690000Y-12985381D01*
X13690000Y-12985381D02*
X13690000Y-12928238D01*
X13690000Y-12928238D02*
X13699524Y-12909190D01*
X13699524Y-12909190D02*
X13709048Y-12899667D01*
X13709048Y-12899667D02*
X13728095Y-12890143D01*
X13728095Y-12890143D02*
X13756667Y-12890143D01*
X13756667Y-12890143D02*
X13775714Y-12899667D01*
X13775714Y-12899667D02*
X13785238Y-12909190D01*
X13785238Y-12909190D02*
X13794762Y-12928238D01*
X13794762Y-12928238D02*
X13794762Y-12985381D01*
X13794762Y-12985381D02*
X13785238Y-13004428D01*
X13785238Y-13004428D02*
X13775714Y-13013952D01*
X13775714Y-13013952D02*
X13756667Y-13023476D01*
X13756667Y-13023476D02*
X13728095Y-13023476D01*
X13851905Y-12890143D02*
X13928095Y-12890143D01*
X13880476Y-12823476D02*
X13880476Y-12994905D01*
X13880476Y-12994905D02*
X13890000Y-13013952D01*
X13890000Y-13013952D02*
X13909048Y-13023476D01*
X13909048Y-13023476D02*
X13928095Y-13023476D01*
X14114762Y-12890143D02*
X14114762Y-13090143D01*
X14114762Y-12899667D02*
X14133810Y-12890143D01*
X14133810Y-12890143D02*
X14171905Y-12890143D01*
X14171905Y-12890143D02*
X14190953Y-12899667D01*
X14190953Y-12899667D02*
X14200476Y-12909190D01*
X14200476Y-12909190D02*
X14210000Y-12928238D01*
X14210000Y-12928238D02*
X14210000Y-12985381D01*
X14210000Y-12985381D02*
X14200476Y-13004428D01*
X14200476Y-13004428D02*
X14190953Y-13013952D01*
X14190953Y-13013952D02*
X14171905Y-13023476D01*
X14171905Y-13023476D02*
X14133810Y-13023476D01*
X14133810Y-13023476D02*
X14114762Y-13013952D01*
X14324286Y-13023476D02*
X14305238Y-13013952D01*
X14305238Y-13013952D02*
X14295714Y-12994905D01*
X14295714Y-12994905D02*
X14295714Y-12823476D01*
X14486191Y-13023476D02*
X14486191Y-12918714D01*
X14486191Y-12918714D02*
X14476667Y-12899667D01*
X14476667Y-12899667D02*
X14457619Y-12890143D01*
X14457619Y-12890143D02*
X14419524Y-12890143D01*
X14419524Y-12890143D02*
X14400476Y-12899667D01*
X14486191Y-13013952D02*
X14467143Y-13023476D01*
X14467143Y-13023476D02*
X14419524Y-13023476D01*
X14419524Y-13023476D02*
X14400476Y-13013952D01*
X14400476Y-13013952D02*
X14390953Y-12994905D01*
X14390953Y-12994905D02*
X14390953Y-12975857D01*
X14390953Y-12975857D02*
X14400476Y-12956809D01*
X14400476Y-12956809D02*
X14419524Y-12947286D01*
X14419524Y-12947286D02*
X14467143Y-12947286D01*
X14467143Y-12947286D02*
X14486191Y-12937762D01*
X14552857Y-12890143D02*
X14629048Y-12890143D01*
X14581429Y-12823476D02*
X14581429Y-12994905D01*
X14581429Y-12994905D02*
X14590953Y-13013952D01*
X14590953Y-13013952D02*
X14610000Y-13023476D01*
X14610000Y-13023476D02*
X14629048Y-13023476D01*
X14771905Y-13013952D02*
X14752857Y-13023476D01*
X14752857Y-13023476D02*
X14714762Y-13023476D01*
X14714762Y-13023476D02*
X14695714Y-13013952D01*
X14695714Y-13013952D02*
X14686191Y-12994905D01*
X14686191Y-12994905D02*
X14686191Y-12918714D01*
X14686191Y-12918714D02*
X14695714Y-12899667D01*
X14695714Y-12899667D02*
X14714762Y-12890143D01*
X14714762Y-12890143D02*
X14752857Y-12890143D01*
X14752857Y-12890143D02*
X14771905Y-12899667D01*
X14771905Y-12899667D02*
X14781429Y-12918714D01*
X14781429Y-12918714D02*
X14781429Y-12937762D01*
X14781429Y-12937762D02*
X14686191Y-12956809D01*
X14952857Y-13023476D02*
X14952857Y-12823476D01*
X14952857Y-13013952D02*
X14933810Y-13023476D01*
X14933810Y-13023476D02*
X14895714Y-13023476D01*
X14895714Y-13023476D02*
X14876667Y-13013952D01*
X14876667Y-13013952D02*
X14867143Y-13004428D01*
X14867143Y-13004428D02*
X14857619Y-12985381D01*
X14857619Y-12985381D02*
X14857619Y-12928238D01*
X14857619Y-12928238D02*
X14867143Y-12909190D01*
X14867143Y-12909190D02*
X14876667Y-12899667D01*
X14876667Y-12899667D02*
X14895714Y-12890143D01*
X14895714Y-12890143D02*
X14933810Y-12890143D01*
X14933810Y-12890143D02*
X14952857Y-12899667D01*
X15029048Y-13099667D02*
X15038572Y-13090143D01*
X15038572Y-13090143D02*
X15057619Y-13061571D01*
X15057619Y-13061571D02*
X15067143Y-13042524D01*
X15067143Y-13042524D02*
X15076667Y-13013952D01*
X15076667Y-13013952D02*
X15086191Y-12966333D01*
X15086191Y-12966333D02*
X15086191Y-12928238D01*
X15086191Y-12928238D02*
X15076667Y-12880619D01*
X15076667Y-12880619D02*
X15067143Y-12852048D01*
X15067143Y-12852048D02*
X15057619Y-12833000D01*
X15057619Y-12833000D02*
X15038572Y-12804428D01*
X15038572Y-12804428D02*
X15029048Y-12794905D01*
M02*
