G04 #@! TF.GenerationSoftware,KiCad,Pcbnew,(7.0.0-0)*
G04 #@! TF.CreationDate,2023-03-05T11:15:20-05:00*
G04 #@! TF.ProjectId,Cryologger ITB,4372796f-6c6f-4676-9765-72204954422e,rev?*
G04 #@! TF.SameCoordinates,Original*
G04 #@! TF.FileFunction,Soldermask,Top*
G04 #@! TF.FilePolarity,Negative*
%FSLAX46Y46*%
G04 Gerber Fmt 4.6, Leading zero omitted, Abs format (unit mm)*
G04 Created by KiCad (PCBNEW (7.0.0-0)) date 2023-03-05 11:15:20*
%MOMM*%
%LPD*%
G01*
G04 APERTURE LIST*
G04 Aperture macros list*
%AMRoundRect*
0 Rectangle with rounded corners*
0 $1 Rounding radius*
0 $2 $3 $4 $5 $6 $7 $8 $9 X,Y pos of 4 corners*
0 Add a 4 corners polygon primitive as box body*
4,1,4,$2,$3,$4,$5,$6,$7,$8,$9,$2,$3,0*
0 Add four circle primitives for the rounded corners*
1,1,$1+$1,$2,$3*
1,1,$1+$1,$4,$5*
1,1,$1+$1,$6,$7*
1,1,$1+$1,$8,$9*
0 Add four rect primitives between the rounded corners*
20,1,$1+$1,$2,$3,$4,$5,0*
20,1,$1+$1,$4,$5,$6,$7,0*
20,1,$1+$1,$6,$7,$8,$9,0*
20,1,$1+$1,$8,$9,$2,$3,0*%
G04 Aperture macros list end*
%ADD10C,6.000000*%
%ADD11C,4.999990*%
%ADD12O,3.600000X2.080000*%
%ADD13RoundRect,0.249999X1.550001X-0.790001X1.550001X0.790001X-1.550001X0.790001X-1.550001X-0.790001X0*%
%ADD14C,1.524000*%
%ADD15C,1.778000*%
%ADD16C,3.810000*%
%ADD17C,1.600000*%
%ADD18O,1.600000X1.600000*%
%ADD19RoundRect,0.200000X-0.200000X-0.450000X0.200000X-0.450000X0.200000X0.450000X-0.200000X0.450000X0*%
%ADD20O,0.800000X1.300000*%
%ADD21C,2.540000*%
G04 APERTURE END LIST*
D10*
X87000000Y-64000000D03*
X212000000Y-119000000D03*
X212000000Y-64000000D03*
X87000000Y-119000000D03*
D11*
X125850000Y-72150000D03*
X125850000Y-110850000D03*
D12*
X205999999Y-104919999D03*
D13*
X206000000Y-110000000D03*
D14*
X204380000Y-85240000D03*
X206920000Y-85240000D03*
X209460000Y-85240000D03*
X212000000Y-85240000D03*
D15*
X147230000Y-99210000D03*
X147230000Y-101750000D03*
X147230000Y-104290000D03*
X147230000Y-106830000D03*
X147230000Y-109370000D03*
X147230000Y-111910000D03*
D16*
X147230000Y-115720000D03*
X147230000Y-95400000D03*
X134530000Y-115720000D03*
D15*
X134530000Y-109370000D03*
X134530000Y-106830000D03*
X134530000Y-104290000D03*
X134530000Y-101750000D03*
D16*
X134530000Y-95400000D03*
D17*
X208190000Y-79525000D03*
D18*
X208189999Y-69364999D03*
D19*
X112000000Y-118500000D03*
D20*
X113249999Y-118499999D03*
X114499999Y-118499999D03*
X115749999Y-118499999D03*
X116999999Y-118499999D03*
X118249999Y-118499999D03*
X119499999Y-118499999D03*
X120749999Y-118499999D03*
X121999999Y-118499999D03*
X123249999Y-118499999D03*
D14*
X204380000Y-94130000D03*
X206920000Y-94130000D03*
X209460000Y-94130000D03*
X212000000Y-94130000D03*
D17*
X205015000Y-69365000D03*
D18*
X205014999Y-79524999D03*
D16*
X154850000Y-68730000D03*
D21*
X154850000Y-114450000D03*
D16*
X172630000Y-68730000D03*
D21*
X172630000Y-114450000D03*
D15*
X153580000Y-72540000D03*
X156120000Y-72540000D03*
X153580000Y-75080000D03*
X156120000Y-75080000D03*
X153580000Y-77620000D03*
X156120000Y-77620000D03*
X153580000Y-80160000D03*
X156120000Y-80160000D03*
X153580000Y-82700000D03*
X156120000Y-82700000D03*
X153580000Y-85240000D03*
X156120000Y-85240000D03*
X153580000Y-87780000D03*
X156120000Y-87780000D03*
X153580000Y-90320000D03*
X156120000Y-90320000D03*
X153580000Y-92860000D03*
X156120000Y-92860000D03*
X153580000Y-95400000D03*
X156120000Y-95400000D03*
X153580000Y-97940000D03*
X156120000Y-97940000D03*
X153580000Y-100480000D03*
X156120000Y-100480000D03*
X153580000Y-103020000D03*
X156120000Y-103020000D03*
X153580000Y-105560000D03*
X156120000Y-105560000D03*
X153580000Y-108100000D03*
X156120000Y-108100000D03*
X153580000Y-110640000D03*
X156120000Y-110640000D03*
X171360000Y-110640000D03*
X173900000Y-110640000D03*
X171360000Y-108100000D03*
X173900000Y-108100000D03*
X171360000Y-105560000D03*
X173900000Y-105560000D03*
X171360000Y-103020000D03*
X173900000Y-103020000D03*
X171360000Y-100480000D03*
X173900000Y-100480000D03*
X171360000Y-97940000D03*
X173900000Y-97940000D03*
X171360000Y-95400000D03*
X173900000Y-95400000D03*
X171360000Y-92860000D03*
X173900000Y-92860000D03*
X171360000Y-90320000D03*
X173900000Y-90320000D03*
X171360000Y-87780000D03*
X173900000Y-87780000D03*
X171360000Y-85240000D03*
X173900000Y-85240000D03*
X171360000Y-82700000D03*
X173900000Y-82700000D03*
D16*
X134530000Y-67460000D03*
X134530000Y-87780000D03*
D21*
X147230000Y-67460000D03*
X147230000Y-87780000D03*
D15*
X147230000Y-85240000D03*
X147230000Y-82700000D03*
X147230000Y-80160000D03*
X147230000Y-77620000D03*
X147230000Y-75080000D03*
X147230000Y-72540000D03*
X147230000Y-70000000D03*
D17*
X211365000Y-73215000D03*
X211365000Y-75715000D03*
D16*
X180250000Y-68730000D03*
D21*
X180250000Y-114450000D03*
D16*
X198030000Y-68730000D03*
D21*
X198030000Y-114450000D03*
D15*
X178980000Y-72540000D03*
X181520000Y-72540000D03*
X178980000Y-75080000D03*
X181520000Y-75080000D03*
X178980000Y-77620000D03*
X181520000Y-77620000D03*
X178980000Y-80160000D03*
X181520000Y-80160000D03*
X178980000Y-82700000D03*
X181520000Y-82700000D03*
X178980000Y-85240000D03*
X181520000Y-85240000D03*
X178980000Y-87780000D03*
X181520000Y-87780000D03*
X178980000Y-90320000D03*
X181520000Y-90320000D03*
X178980000Y-92860000D03*
X181520000Y-92860000D03*
X178980000Y-95400000D03*
X181520000Y-95400000D03*
X178980000Y-97940000D03*
X181520000Y-97940000D03*
X178980000Y-100480000D03*
X181520000Y-100480000D03*
X178980000Y-103020000D03*
X181520000Y-103020000D03*
X178980000Y-105560000D03*
X181520000Y-105560000D03*
X178980000Y-108100000D03*
X181520000Y-108100000D03*
X178980000Y-110640000D03*
X181520000Y-110640000D03*
X196760000Y-110640000D03*
X199300000Y-110640000D03*
X196760000Y-108100000D03*
X199300000Y-108100000D03*
X196760000Y-105560000D03*
X199300000Y-105560000D03*
X196760000Y-103020000D03*
X199300000Y-103020000D03*
X196760000Y-100480000D03*
X199300000Y-100480000D03*
X196760000Y-97940000D03*
X199300000Y-97940000D03*
X196760000Y-95400000D03*
X199300000Y-95400000D03*
X196760000Y-92860000D03*
X199300000Y-92860000D03*
X196760000Y-90320000D03*
X199300000Y-90320000D03*
X196760000Y-87780000D03*
X199300000Y-87780000D03*
X196760000Y-85240000D03*
X199300000Y-85240000D03*
X196760000Y-82700000D03*
X199300000Y-82700000D03*
M02*
