M48
; DRILL file {KiCad 8.0.0} date 2024-04-24T13:51:33+0200
; FORMAT={-:-/ absolute / metric / decimal}
; #@! TF.CreationDate,2024-04-24T13:51:33+02:00
; #@! TF.GenerationSoftware,Kicad,Pcbnew,8.0.0
; #@! TF.FileFunction,Plated,1,2,PTH
FMAT,2
METRIC
; #@! TA.AperFunction,Plated,PTH,ViaDrill
T1C0.400
; #@! TA.AperFunction,Plated,PTH,ComponentDrill
T2C0.500
; #@! TA.AperFunction,Plated,PTH,ComponentDrill
T3C0.750
; #@! TA.AperFunction,Plated,PTH,ComponentDrill
T4C0.762
; #@! TA.AperFunction,Plated,PTH,ComponentDrill
T5C0.800
; #@! TA.AperFunction,Plated,PTH,ComponentDrill
T6C1.000
; #@! TA.AperFunction,Plated,PTH,ComponentDrill
T7C1.016
; #@! TA.AperFunction,Plated,PTH,ComponentDrill
T8C1.400
; #@! TA.AperFunction,Plated,PTH,ComponentDrill
T9C2.500
; #@! TA.AperFunction,Plated,PTH,ComponentDrill
T10C2.540
; #@! TA.AperFunction,Plated,PTH,ComponentDrill
T11C3.000
%
G90
G05
T1
X85.09Y-74.0
X85.09Y-95.59
X85.09Y-117.18
X96.52Y-85.43
X96.52Y-105.75
X106.68Y-74.0
X106.68Y-95.59
X106.68Y-117.18
X116.84Y-85.43
X116.84Y-107.02
X117.184Y-124.396
X128.27Y-95.59
X133.35Y-81.62
X140.97Y-72.73
X140.97Y-81.62
X140.97Y-90.51
X140.97Y-101.94
X140.97Y-109.56
X140.97Y-117.18
X149.86Y-107.02
X163.195Y-112.1
X163.83Y-72.73
X163.83Y-83.525
X163.83Y-94.32
X163.83Y-101.94
X163.83Y-118.45
X165.1Y-114.64
X176.59Y-99.5
X176.59Y-102.0
X189.23Y-72.73
X189.23Y-82.89
X189.23Y-94.32
X189.23Y-101.94
X189.23Y-109.56
X189.23Y-118.45
T2
X112.068Y-122.61
X113.318Y-122.61
X114.568Y-122.61
X115.818Y-122.61
X117.068Y-122.61
X118.318Y-122.61
X119.568Y-122.61
X120.818Y-122.61
X122.068Y-122.61
X123.318Y-122.61
T3
X105.538Y-122.356
X106.808Y-121.086
X108.078Y-122.356
T4
X204.47Y-89.24
X204.47Y-98.13
X207.01Y-89.24
X207.01Y-98.13
X209.55Y-89.24
X209.55Y-98.13
X212.09Y-89.24
X212.09Y-98.13
T5
X205.105Y-73.365
X205.105Y-83.525
X208.28Y-73.365
X208.28Y-83.525
X211.455Y-77.215
X211.455Y-79.715
T6
X153.67Y-79.08
X153.67Y-81.62
X153.67Y-84.16
X153.67Y-86.7
X153.67Y-89.24
X153.67Y-91.78
X153.67Y-94.32
X153.67Y-96.86
X153.67Y-99.4
X153.67Y-101.94
X153.67Y-104.48
X153.67Y-107.02
X153.67Y-109.56
X153.67Y-112.1
X153.67Y-114.64
X156.21Y-79.08
X156.21Y-81.62
X156.21Y-84.16
X156.21Y-86.7
X156.21Y-89.24
X156.21Y-91.78
X156.21Y-94.32
X156.21Y-96.86
X156.21Y-99.4
X156.21Y-101.94
X156.21Y-104.48
X156.21Y-107.02
X156.21Y-109.56
X156.21Y-112.1
X156.21Y-114.64
X171.45Y-86.7
X171.45Y-89.24
X171.45Y-91.78
X171.45Y-94.32
X171.45Y-96.86
X171.45Y-99.4
X171.45Y-101.94
X171.45Y-104.48
X171.45Y-107.02
X171.45Y-109.56
X171.45Y-112.1
X171.45Y-114.64
X173.99Y-86.7
X173.99Y-89.24
X173.99Y-91.78
X173.99Y-94.32
X173.99Y-96.86
X173.99Y-99.4
X173.99Y-101.94
X173.99Y-104.48
X173.99Y-107.02
X173.99Y-109.56
X173.99Y-112.1
X173.99Y-114.64
X179.07Y-79.08
X179.07Y-81.62
X179.07Y-84.16
X179.07Y-86.7
X179.07Y-89.24
X179.07Y-91.78
X179.07Y-94.32
X179.07Y-96.86
X179.07Y-99.4
X179.07Y-101.94
X179.07Y-104.48
X179.07Y-107.02
X179.07Y-109.56
X179.07Y-112.1
X179.07Y-114.64
X181.61Y-79.08
X181.61Y-81.62
X181.61Y-84.16
X181.61Y-86.7
X181.61Y-89.24
X181.61Y-91.78
X181.61Y-94.32
X181.61Y-96.86
X181.61Y-99.4
X181.61Y-101.94
X181.61Y-104.48
X181.61Y-107.02
X181.61Y-109.56
X181.61Y-112.1
X181.61Y-114.64
X196.85Y-86.7
X196.85Y-89.24
X196.85Y-91.78
X196.85Y-94.32
X196.85Y-96.86
X196.85Y-99.4
X196.85Y-101.94
X196.85Y-104.48
X196.85Y-107.02
X196.85Y-109.56
X196.85Y-112.1
X196.85Y-114.64
X199.39Y-86.7
X199.39Y-89.24
X199.39Y-91.78
X199.39Y-94.32
X199.39Y-96.86
X199.39Y-99.4
X199.39Y-101.94
X199.39Y-104.48
X199.39Y-107.02
X199.39Y-109.56
X199.39Y-112.1
X199.39Y-114.64
T7
X134.62Y-103.21
X134.62Y-105.75
X134.62Y-108.29
X134.62Y-110.83
X134.62Y-113.37
X134.62Y-115.91
X147.32Y-74.0
X147.32Y-76.54
X147.32Y-79.08
X147.32Y-81.62
X147.32Y-84.16
X147.32Y-86.7
X147.32Y-89.24
X147.32Y-103.21
X147.32Y-105.75
X147.32Y-108.29
X147.32Y-110.83
X147.32Y-113.37
X147.32Y-115.91
X153.67Y-76.54
X156.21Y-76.54
X179.07Y-76.54
X181.61Y-76.54
T8
X206.09Y-108.92
X206.09Y-114.0
T9
X125.94Y-76.15
X125.94Y-114.85
T10
X154.94Y-72.73
X172.72Y-72.73
X180.34Y-72.73
X198.12Y-72.73
T11
X87.09Y-68.0
X87.09Y-123.0
X212.09Y-68.0
X212.09Y-123.0
M30
