%TF.GenerationSoftware,KiCad,Pcbnew,8.0.0*%
%TF.CreationDate,2024-04-24T13:51:35+02:00*%
%TF.ProjectId,Cryologger ITB,4372796f-6c6f-4676-9765-72204954422e,v3.2*%
%TF.SameCoordinates,Original*%
%TF.FileFunction,Drillmap*%
%TF.FilePolarity,Positive*%
%FSLAX45Y45*%
G04 Gerber Fmt 4.5, Leading zero omitted, Abs format (unit mm)*
G04 Created by KiCad (PCBNEW 8.0.0) date 2024-04-24 13:51:35*
%MOMM*%
%LPD*%
G01*
G04 APERTURE LIST*
%ADD10C,0.200000*%
%ADD11C,0.100000*%
%ADD12C,0.101600*%
%ADD13C,0.140000*%
%ADD14C,0.250000*%
%ADD15C,0.254000*%
%ADD16C,0.300000*%
G04 APERTURE END LIST*
D10*
X21209000Y-6400000D02*
G75*
G02*
X21609000Y-6800000I0J-400000D01*
G01*
X8309000Y-6800000D02*
X8309000Y-12300000D01*
X21609000Y-6800000D02*
X21609000Y-12300000D01*
X21209000Y-6400000D02*
X8709000Y-6400000D01*
X8309000Y-6800000D02*
G75*
G02*
X8709000Y-6400000I400000J0D01*
G01*
X8709000Y-12700000D02*
G75*
G02*
X8309000Y-12300000I0J400000D01*
G01*
X8709000Y-12700000D02*
X21209000Y-12700000D01*
X21609000Y-12300000D02*
G75*
G02*
X21209000Y-12700000I-400000J0D01*
G01*
D11*
X8489000Y-7380000D02*
X8529000Y-7420000D01*
X8529000Y-7380000D02*
X8489000Y-7420000D01*
X8489000Y-9539000D02*
X8529000Y-9579000D01*
X8529000Y-9539000D02*
X8489000Y-9579000D01*
X8489000Y-11698000D02*
X8529000Y-11738000D01*
X8529000Y-11698000D02*
X8489000Y-11738000D01*
X9632000Y-8523000D02*
X9672000Y-8563000D01*
X9672000Y-8523000D02*
X9632000Y-8563000D01*
X9632000Y-10555000D02*
X9672000Y-10595000D01*
X9672000Y-10555000D02*
X9632000Y-10595000D01*
X10648000Y-7380000D02*
X10688000Y-7420000D01*
X10688000Y-7380000D02*
X10648000Y-7420000D01*
X10648000Y-9539000D02*
X10688000Y-9579000D01*
X10688000Y-9539000D02*
X10648000Y-9579000D01*
X10648000Y-11698000D02*
X10688000Y-11738000D01*
X10688000Y-11698000D02*
X10648000Y-11738000D01*
X11664000Y-8523000D02*
X11704000Y-8563000D01*
X11704000Y-8523000D02*
X11664000Y-8563000D01*
X11664000Y-10682000D02*
X11704000Y-10722000D01*
X11704000Y-10682000D02*
X11664000Y-10722000D01*
X11698400Y-12419600D02*
X11738400Y-12459600D01*
X11738400Y-12419600D02*
X11698400Y-12459600D01*
X12807000Y-9539000D02*
X12847000Y-9579000D01*
X12847000Y-9539000D02*
X12807000Y-9579000D01*
X13315000Y-8142000D02*
X13355000Y-8182000D01*
X13355000Y-8142000D02*
X13315000Y-8182000D01*
X14077000Y-7253000D02*
X14117000Y-7293000D01*
X14117000Y-7253000D02*
X14077000Y-7293000D01*
X14077000Y-8142000D02*
X14117000Y-8182000D01*
X14117000Y-8142000D02*
X14077000Y-8182000D01*
X14077000Y-9031000D02*
X14117000Y-9071000D01*
X14117000Y-9031000D02*
X14077000Y-9071000D01*
X14077000Y-10174000D02*
X14117000Y-10214000D01*
X14117000Y-10174000D02*
X14077000Y-10214000D01*
X14077000Y-10936000D02*
X14117000Y-10976000D01*
X14117000Y-10936000D02*
X14077000Y-10976000D01*
X14077000Y-11698000D02*
X14117000Y-11738000D01*
X14117000Y-11698000D02*
X14077000Y-11738000D01*
X14966000Y-10682000D02*
X15006000Y-10722000D01*
X15006000Y-10682000D02*
X14966000Y-10722000D01*
X16299500Y-11190000D02*
X16339500Y-11230000D01*
X16339500Y-11190000D02*
X16299500Y-11230000D01*
X16363000Y-7253000D02*
X16403000Y-7293000D01*
X16403000Y-7253000D02*
X16363000Y-7293000D01*
X16363000Y-8332500D02*
X16403000Y-8372500D01*
X16403000Y-8332500D02*
X16363000Y-8372500D01*
X16363000Y-9412000D02*
X16403000Y-9452000D01*
X16403000Y-9412000D02*
X16363000Y-9452000D01*
X16363000Y-10174000D02*
X16403000Y-10214000D01*
X16403000Y-10174000D02*
X16363000Y-10214000D01*
X16363000Y-11825000D02*
X16403000Y-11865000D01*
X16403000Y-11825000D02*
X16363000Y-11865000D01*
X16490000Y-11444000D02*
X16530000Y-11484000D01*
X16530000Y-11444000D02*
X16490000Y-11484000D01*
X17639000Y-9930000D02*
X17679000Y-9970000D01*
X17679000Y-9930000D02*
X17639000Y-9970000D01*
X17639000Y-10180000D02*
X17679000Y-10220000D01*
X17679000Y-10180000D02*
X17639000Y-10220000D01*
X18903000Y-7253000D02*
X18943000Y-7293000D01*
X18943000Y-7253000D02*
X18903000Y-7293000D01*
X18903000Y-8269000D02*
X18943000Y-8309000D01*
X18943000Y-8269000D02*
X18903000Y-8309000D01*
X18903000Y-9412000D02*
X18943000Y-9452000D01*
X18943000Y-9412000D02*
X18903000Y-9452000D01*
X18903000Y-10174000D02*
X18943000Y-10214000D01*
X18943000Y-10174000D02*
X18903000Y-10214000D01*
X18903000Y-10936000D02*
X18943000Y-10976000D01*
X18943000Y-10936000D02*
X18903000Y-10976000D01*
X18903000Y-11825000D02*
X18943000Y-11865000D01*
X18943000Y-11825000D02*
X18903000Y-11865000D01*
X11231800Y-12261000D02*
G75*
G02*
X11181800Y-12261000I-25000J0D01*
G01*
X11181800Y-12261000D02*
G75*
G02*
X11231800Y-12261000I25000J0D01*
G01*
X11356800Y-12261000D02*
G75*
G02*
X11306800Y-12261000I-25000J0D01*
G01*
X11306800Y-12261000D02*
G75*
G02*
X11356800Y-12261000I25000J0D01*
G01*
X11481800Y-12261000D02*
G75*
G02*
X11431800Y-12261000I-25000J0D01*
G01*
X11431800Y-12261000D02*
G75*
G02*
X11481800Y-12261000I25000J0D01*
G01*
X11606800Y-12261000D02*
G75*
G02*
X11556800Y-12261000I-25000J0D01*
G01*
X11556800Y-12261000D02*
G75*
G02*
X11606800Y-12261000I25000J0D01*
G01*
X11731800Y-12261000D02*
G75*
G02*
X11681800Y-12261000I-25000J0D01*
G01*
X11681800Y-12261000D02*
G75*
G02*
X11731800Y-12261000I25000J0D01*
G01*
X11856800Y-12261000D02*
G75*
G02*
X11806800Y-12261000I-25000J0D01*
G01*
X11806800Y-12261000D02*
G75*
G02*
X11856800Y-12261000I25000J0D01*
G01*
X11981800Y-12261000D02*
G75*
G02*
X11931800Y-12261000I-25000J0D01*
G01*
X11931800Y-12261000D02*
G75*
G02*
X11981800Y-12261000I25000J0D01*
G01*
X12106800Y-12261000D02*
G75*
G02*
X12056800Y-12261000I-25000J0D01*
G01*
X12056800Y-12261000D02*
G75*
G02*
X12106800Y-12261000I25000J0D01*
G01*
X12231800Y-12261000D02*
G75*
G02*
X12181800Y-12261000I-25000J0D01*
G01*
X12181800Y-12261000D02*
G75*
G02*
X12231800Y-12261000I25000J0D01*
G01*
X12356800Y-12261000D02*
G75*
G02*
X12306800Y-12261000I-25000J0D01*
G01*
X12306800Y-12261000D02*
G75*
G02*
X12356800Y-12261000I25000J0D01*
G01*
X10553800Y-12198100D02*
X10553800Y-12273100D01*
X10516300Y-12235600D02*
X10591300Y-12235600D01*
X10680800Y-12071100D02*
X10680800Y-12146100D01*
X10643300Y-12108600D02*
X10718300Y-12108600D01*
X10807800Y-12198100D02*
X10807800Y-12273100D01*
X10770300Y-12235600D02*
X10845300Y-12235600D01*
X20473941Y-8950941D02*
X20473941Y-8897059D01*
X20420059Y-8897059D01*
X20420059Y-8950941D01*
X20473941Y-8950941D01*
X20473941Y-9839941D02*
X20473941Y-9786059D01*
X20420059Y-9786059D01*
X20420059Y-9839941D01*
X20473941Y-9839941D01*
X20727941Y-8950941D02*
X20727941Y-8897059D01*
X20674059Y-8897059D01*
X20674059Y-8950941D01*
X20727941Y-8950941D01*
X20727941Y-9839941D02*
X20727941Y-9786059D01*
X20674059Y-9786059D01*
X20674059Y-9839941D01*
X20727941Y-9839941D01*
X20981941Y-8950941D02*
X20981941Y-8897059D01*
X20928059Y-8897059D01*
X20928059Y-8950941D01*
X20981941Y-8950941D01*
X20981941Y-9839941D02*
X20981941Y-9786059D01*
X20928059Y-9786059D01*
X20928059Y-9839941D01*
X20981941Y-9839941D01*
X21235941Y-8950941D02*
X21235941Y-8897059D01*
X21182059Y-8897059D01*
X21182059Y-8950941D01*
X21235941Y-8950941D01*
X21235941Y-9839941D02*
X21235941Y-9786059D01*
X21182059Y-9786059D01*
X21182059Y-9839941D01*
X21235941Y-9839941D01*
X20510500Y-7376500D02*
X20550500Y-7336500D01*
X20510500Y-7296500D01*
X20470500Y-7336500D01*
X20510500Y-7376500D01*
X20510500Y-8392500D02*
X20550500Y-8352500D01*
X20510500Y-8312500D01*
X20470500Y-8352500D01*
X20510500Y-8392500D01*
X20828000Y-7376500D02*
X20868000Y-7336500D01*
X20828000Y-7296500D01*
X20788000Y-7336500D01*
X20828000Y-7376500D01*
X20828000Y-8392500D02*
X20868000Y-8352500D01*
X20828000Y-8312500D01*
X20788000Y-8352500D01*
X20828000Y-8392500D01*
X21145500Y-7761500D02*
X21185500Y-7721500D01*
X21145500Y-7681500D01*
X21105500Y-7721500D01*
X21145500Y-7761500D01*
X21145500Y-8011500D02*
X21185500Y-7971500D01*
X21145500Y-7931500D01*
X21105500Y-7971500D01*
X21145500Y-8011500D01*
X15317000Y-7858000D02*
X15417000Y-7958000D01*
X15417000Y-7858000D02*
X15317000Y-7958000D01*
X15417000Y-7908000D02*
G75*
G02*
X15317000Y-7908000I-50000J0D01*
G01*
X15317000Y-7908000D02*
G75*
G02*
X15417000Y-7908000I50000J0D01*
G01*
X15317000Y-8112000D02*
X15417000Y-8212000D01*
X15417000Y-8112000D02*
X15317000Y-8212000D01*
X15417000Y-8162000D02*
G75*
G02*
X15317000Y-8162000I-50000J0D01*
G01*
X15317000Y-8162000D02*
G75*
G02*
X15417000Y-8162000I50000J0D01*
G01*
X15317000Y-8366000D02*
X15417000Y-8466000D01*
X15417000Y-8366000D02*
X15317000Y-8466000D01*
X15417000Y-8416000D02*
G75*
G02*
X15317000Y-8416000I-50000J0D01*
G01*
X15317000Y-8416000D02*
G75*
G02*
X15417000Y-8416000I50000J0D01*
G01*
X15317000Y-8620000D02*
X15417000Y-8720000D01*
X15417000Y-8620000D02*
X15317000Y-8720000D01*
X15417000Y-8670000D02*
G75*
G02*
X15317000Y-8670000I-50000J0D01*
G01*
X15317000Y-8670000D02*
G75*
G02*
X15417000Y-8670000I50000J0D01*
G01*
X15317000Y-8874000D02*
X15417000Y-8974000D01*
X15417000Y-8874000D02*
X15317000Y-8974000D01*
X15417000Y-8924000D02*
G75*
G02*
X15317000Y-8924000I-50000J0D01*
G01*
X15317000Y-8924000D02*
G75*
G02*
X15417000Y-8924000I50000J0D01*
G01*
X15317000Y-9128000D02*
X15417000Y-9228000D01*
X15417000Y-9128000D02*
X15317000Y-9228000D01*
X15417000Y-9178000D02*
G75*
G02*
X15317000Y-9178000I-50000J0D01*
G01*
X15317000Y-9178000D02*
G75*
G02*
X15417000Y-9178000I50000J0D01*
G01*
X15317000Y-9382000D02*
X15417000Y-9482000D01*
X15417000Y-9382000D02*
X15317000Y-9482000D01*
X15417000Y-9432000D02*
G75*
G02*
X15317000Y-9432000I-50000J0D01*
G01*
X15317000Y-9432000D02*
G75*
G02*
X15417000Y-9432000I50000J0D01*
G01*
X15317000Y-9636000D02*
X15417000Y-9736000D01*
X15417000Y-9636000D02*
X15317000Y-9736000D01*
X15417000Y-9686000D02*
G75*
G02*
X15317000Y-9686000I-50000J0D01*
G01*
X15317000Y-9686000D02*
G75*
G02*
X15417000Y-9686000I50000J0D01*
G01*
X15317000Y-9890000D02*
X15417000Y-9990000D01*
X15417000Y-9890000D02*
X15317000Y-9990000D01*
X15417000Y-9940000D02*
G75*
G02*
X15317000Y-9940000I-50000J0D01*
G01*
X15317000Y-9940000D02*
G75*
G02*
X15417000Y-9940000I50000J0D01*
G01*
X15317000Y-10144000D02*
X15417000Y-10244000D01*
X15417000Y-10144000D02*
X15317000Y-10244000D01*
X15417000Y-10194000D02*
G75*
G02*
X15317000Y-10194000I-50000J0D01*
G01*
X15317000Y-10194000D02*
G75*
G02*
X15417000Y-10194000I50000J0D01*
G01*
X15317000Y-10398000D02*
X15417000Y-10498000D01*
X15417000Y-10398000D02*
X15317000Y-10498000D01*
X15417000Y-10448000D02*
G75*
G02*
X15317000Y-10448000I-50000J0D01*
G01*
X15317000Y-10448000D02*
G75*
G02*
X15417000Y-10448000I50000J0D01*
G01*
X15317000Y-10652000D02*
X15417000Y-10752000D01*
X15417000Y-10652000D02*
X15317000Y-10752000D01*
X15417000Y-10702000D02*
G75*
G02*
X15317000Y-10702000I-50000J0D01*
G01*
X15317000Y-10702000D02*
G75*
G02*
X15417000Y-10702000I50000J0D01*
G01*
X15317000Y-10906000D02*
X15417000Y-11006000D01*
X15417000Y-10906000D02*
X15317000Y-11006000D01*
X15417000Y-10956000D02*
G75*
G02*
X15317000Y-10956000I-50000J0D01*
G01*
X15317000Y-10956000D02*
G75*
G02*
X15417000Y-10956000I50000J0D01*
G01*
X15317000Y-11160000D02*
X15417000Y-11260000D01*
X15417000Y-11160000D02*
X15317000Y-11260000D01*
X15417000Y-11210000D02*
G75*
G02*
X15317000Y-11210000I-50000J0D01*
G01*
X15317000Y-11210000D02*
G75*
G02*
X15417000Y-11210000I50000J0D01*
G01*
X15317000Y-11414000D02*
X15417000Y-11514000D01*
X15417000Y-11414000D02*
X15317000Y-11514000D01*
X15417000Y-11464000D02*
G75*
G02*
X15317000Y-11464000I-50000J0D01*
G01*
X15317000Y-11464000D02*
G75*
G02*
X15417000Y-11464000I50000J0D01*
G01*
X15571000Y-7858000D02*
X15671000Y-7958000D01*
X15671000Y-7858000D02*
X15571000Y-7958000D01*
X15671000Y-7908000D02*
G75*
G02*
X15571000Y-7908000I-50000J0D01*
G01*
X15571000Y-7908000D02*
G75*
G02*
X15671000Y-7908000I50000J0D01*
G01*
X15571000Y-8112000D02*
X15671000Y-8212000D01*
X15671000Y-8112000D02*
X15571000Y-8212000D01*
X15671000Y-8162000D02*
G75*
G02*
X15571000Y-8162000I-50000J0D01*
G01*
X15571000Y-8162000D02*
G75*
G02*
X15671000Y-8162000I50000J0D01*
G01*
X15571000Y-8366000D02*
X15671000Y-8466000D01*
X15671000Y-8366000D02*
X15571000Y-8466000D01*
X15671000Y-8416000D02*
G75*
G02*
X15571000Y-8416000I-50000J0D01*
G01*
X15571000Y-8416000D02*
G75*
G02*
X15671000Y-8416000I50000J0D01*
G01*
X15571000Y-8620000D02*
X15671000Y-8720000D01*
X15671000Y-8620000D02*
X15571000Y-8720000D01*
X15671000Y-8670000D02*
G75*
G02*
X15571000Y-8670000I-50000J0D01*
G01*
X15571000Y-8670000D02*
G75*
G02*
X15671000Y-8670000I50000J0D01*
G01*
X15571000Y-8874000D02*
X15671000Y-8974000D01*
X15671000Y-8874000D02*
X15571000Y-8974000D01*
X15671000Y-8924000D02*
G75*
G02*
X15571000Y-8924000I-50000J0D01*
G01*
X15571000Y-8924000D02*
G75*
G02*
X15671000Y-8924000I50000J0D01*
G01*
X15571000Y-9128000D02*
X15671000Y-9228000D01*
X15671000Y-9128000D02*
X15571000Y-9228000D01*
X15671000Y-9178000D02*
G75*
G02*
X15571000Y-9178000I-50000J0D01*
G01*
X15571000Y-9178000D02*
G75*
G02*
X15671000Y-9178000I50000J0D01*
G01*
X15571000Y-9382000D02*
X15671000Y-9482000D01*
X15671000Y-9382000D02*
X15571000Y-9482000D01*
X15671000Y-9432000D02*
G75*
G02*
X15571000Y-9432000I-50000J0D01*
G01*
X15571000Y-9432000D02*
G75*
G02*
X15671000Y-9432000I50000J0D01*
G01*
X15571000Y-9636000D02*
X15671000Y-9736000D01*
X15671000Y-9636000D02*
X15571000Y-9736000D01*
X15671000Y-9686000D02*
G75*
G02*
X15571000Y-9686000I-50000J0D01*
G01*
X15571000Y-9686000D02*
G75*
G02*
X15671000Y-9686000I50000J0D01*
G01*
X15571000Y-9890000D02*
X15671000Y-9990000D01*
X15671000Y-9890000D02*
X15571000Y-9990000D01*
X15671000Y-9940000D02*
G75*
G02*
X15571000Y-9940000I-50000J0D01*
G01*
X15571000Y-9940000D02*
G75*
G02*
X15671000Y-9940000I50000J0D01*
G01*
X15571000Y-10144000D02*
X15671000Y-10244000D01*
X15671000Y-10144000D02*
X15571000Y-10244000D01*
X15671000Y-10194000D02*
G75*
G02*
X15571000Y-10194000I-50000J0D01*
G01*
X15571000Y-10194000D02*
G75*
G02*
X15671000Y-10194000I50000J0D01*
G01*
X15571000Y-10398000D02*
X15671000Y-10498000D01*
X15671000Y-10398000D02*
X15571000Y-10498000D01*
X15671000Y-10448000D02*
G75*
G02*
X15571000Y-10448000I-50000J0D01*
G01*
X15571000Y-10448000D02*
G75*
G02*
X15671000Y-10448000I50000J0D01*
G01*
X15571000Y-10652000D02*
X15671000Y-10752000D01*
X15671000Y-10652000D02*
X15571000Y-10752000D01*
X15671000Y-10702000D02*
G75*
G02*
X15571000Y-10702000I-50000J0D01*
G01*
X15571000Y-10702000D02*
G75*
G02*
X15671000Y-10702000I50000J0D01*
G01*
X15571000Y-10906000D02*
X15671000Y-11006000D01*
X15671000Y-10906000D02*
X15571000Y-11006000D01*
X15671000Y-10956000D02*
G75*
G02*
X15571000Y-10956000I-50000J0D01*
G01*
X15571000Y-10956000D02*
G75*
G02*
X15671000Y-10956000I50000J0D01*
G01*
X15571000Y-11160000D02*
X15671000Y-11260000D01*
X15671000Y-11160000D02*
X15571000Y-11260000D01*
X15671000Y-11210000D02*
G75*
G02*
X15571000Y-11210000I-50000J0D01*
G01*
X15571000Y-11210000D02*
G75*
G02*
X15671000Y-11210000I50000J0D01*
G01*
X15571000Y-11414000D02*
X15671000Y-11514000D01*
X15671000Y-11414000D02*
X15571000Y-11514000D01*
X15671000Y-11464000D02*
G75*
G02*
X15571000Y-11464000I-50000J0D01*
G01*
X15571000Y-11464000D02*
G75*
G02*
X15671000Y-11464000I50000J0D01*
G01*
X17095000Y-8620000D02*
X17195000Y-8720000D01*
X17195000Y-8620000D02*
X17095000Y-8720000D01*
X17195000Y-8670000D02*
G75*
G02*
X17095000Y-8670000I-50000J0D01*
G01*
X17095000Y-8670000D02*
G75*
G02*
X17195000Y-8670000I50000J0D01*
G01*
X17095000Y-8874000D02*
X17195000Y-8974000D01*
X17195000Y-8874000D02*
X17095000Y-8974000D01*
X17195000Y-8924000D02*
G75*
G02*
X17095000Y-8924000I-50000J0D01*
G01*
X17095000Y-8924000D02*
G75*
G02*
X17195000Y-8924000I50000J0D01*
G01*
X17095000Y-9128000D02*
X17195000Y-9228000D01*
X17195000Y-9128000D02*
X17095000Y-9228000D01*
X17195000Y-9178000D02*
G75*
G02*
X17095000Y-9178000I-50000J0D01*
G01*
X17095000Y-9178000D02*
G75*
G02*
X17195000Y-9178000I50000J0D01*
G01*
X17095000Y-9382000D02*
X17195000Y-9482000D01*
X17195000Y-9382000D02*
X17095000Y-9482000D01*
X17195000Y-9432000D02*
G75*
G02*
X17095000Y-9432000I-50000J0D01*
G01*
X17095000Y-9432000D02*
G75*
G02*
X17195000Y-9432000I50000J0D01*
G01*
X17095000Y-9636000D02*
X17195000Y-9736000D01*
X17195000Y-9636000D02*
X17095000Y-9736000D01*
X17195000Y-9686000D02*
G75*
G02*
X17095000Y-9686000I-50000J0D01*
G01*
X17095000Y-9686000D02*
G75*
G02*
X17195000Y-9686000I50000J0D01*
G01*
X17095000Y-9890000D02*
X17195000Y-9990000D01*
X17195000Y-9890000D02*
X17095000Y-9990000D01*
X17195000Y-9940000D02*
G75*
G02*
X17095000Y-9940000I-50000J0D01*
G01*
X17095000Y-9940000D02*
G75*
G02*
X17195000Y-9940000I50000J0D01*
G01*
X17095000Y-10144000D02*
X17195000Y-10244000D01*
X17195000Y-10144000D02*
X17095000Y-10244000D01*
X17195000Y-10194000D02*
G75*
G02*
X17095000Y-10194000I-50000J0D01*
G01*
X17095000Y-10194000D02*
G75*
G02*
X17195000Y-10194000I50000J0D01*
G01*
X17095000Y-10398000D02*
X17195000Y-10498000D01*
X17195000Y-10398000D02*
X17095000Y-10498000D01*
X17195000Y-10448000D02*
G75*
G02*
X17095000Y-10448000I-50000J0D01*
G01*
X17095000Y-10448000D02*
G75*
G02*
X17195000Y-10448000I50000J0D01*
G01*
X17095000Y-10652000D02*
X17195000Y-10752000D01*
X17195000Y-10652000D02*
X17095000Y-10752000D01*
X17195000Y-10702000D02*
G75*
G02*
X17095000Y-10702000I-50000J0D01*
G01*
X17095000Y-10702000D02*
G75*
G02*
X17195000Y-10702000I50000J0D01*
G01*
X17095000Y-10906000D02*
X17195000Y-11006000D01*
X17195000Y-10906000D02*
X17095000Y-11006000D01*
X17195000Y-10956000D02*
G75*
G02*
X17095000Y-10956000I-50000J0D01*
G01*
X17095000Y-10956000D02*
G75*
G02*
X17195000Y-10956000I50000J0D01*
G01*
X17095000Y-11160000D02*
X17195000Y-11260000D01*
X17195000Y-11160000D02*
X17095000Y-11260000D01*
X17195000Y-11210000D02*
G75*
G02*
X17095000Y-11210000I-50000J0D01*
G01*
X17095000Y-11210000D02*
G75*
G02*
X17195000Y-11210000I50000J0D01*
G01*
X17095000Y-11414000D02*
X17195000Y-11514000D01*
X17195000Y-11414000D02*
X17095000Y-11514000D01*
X17195000Y-11464000D02*
G75*
G02*
X17095000Y-11464000I-50000J0D01*
G01*
X17095000Y-11464000D02*
G75*
G02*
X17195000Y-11464000I50000J0D01*
G01*
X17349000Y-8620000D02*
X17449000Y-8720000D01*
X17449000Y-8620000D02*
X17349000Y-8720000D01*
X17449000Y-8670000D02*
G75*
G02*
X17349000Y-8670000I-50000J0D01*
G01*
X17349000Y-8670000D02*
G75*
G02*
X17449000Y-8670000I50000J0D01*
G01*
X17349000Y-8874000D02*
X17449000Y-8974000D01*
X17449000Y-8874000D02*
X17349000Y-8974000D01*
X17449000Y-8924000D02*
G75*
G02*
X17349000Y-8924000I-50000J0D01*
G01*
X17349000Y-8924000D02*
G75*
G02*
X17449000Y-8924000I50000J0D01*
G01*
X17349000Y-9128000D02*
X17449000Y-9228000D01*
X17449000Y-9128000D02*
X17349000Y-9228000D01*
X17449000Y-9178000D02*
G75*
G02*
X17349000Y-9178000I-50000J0D01*
G01*
X17349000Y-9178000D02*
G75*
G02*
X17449000Y-9178000I50000J0D01*
G01*
X17349000Y-9382000D02*
X17449000Y-9482000D01*
X17449000Y-9382000D02*
X17349000Y-9482000D01*
X17449000Y-9432000D02*
G75*
G02*
X17349000Y-9432000I-50000J0D01*
G01*
X17349000Y-9432000D02*
G75*
G02*
X17449000Y-9432000I50000J0D01*
G01*
X17349000Y-9636000D02*
X17449000Y-9736000D01*
X17449000Y-9636000D02*
X17349000Y-9736000D01*
X17449000Y-9686000D02*
G75*
G02*
X17349000Y-9686000I-50000J0D01*
G01*
X17349000Y-9686000D02*
G75*
G02*
X17449000Y-9686000I50000J0D01*
G01*
X17349000Y-9890000D02*
X17449000Y-9990000D01*
X17449000Y-9890000D02*
X17349000Y-9990000D01*
X17449000Y-9940000D02*
G75*
G02*
X17349000Y-9940000I-50000J0D01*
G01*
X17349000Y-9940000D02*
G75*
G02*
X17449000Y-9940000I50000J0D01*
G01*
X17349000Y-10144000D02*
X17449000Y-10244000D01*
X17449000Y-10144000D02*
X17349000Y-10244000D01*
X17449000Y-10194000D02*
G75*
G02*
X17349000Y-10194000I-50000J0D01*
G01*
X17349000Y-10194000D02*
G75*
G02*
X17449000Y-10194000I50000J0D01*
G01*
X17349000Y-10398000D02*
X17449000Y-10498000D01*
X17449000Y-10398000D02*
X17349000Y-10498000D01*
X17449000Y-10448000D02*
G75*
G02*
X17349000Y-10448000I-50000J0D01*
G01*
X17349000Y-10448000D02*
G75*
G02*
X17449000Y-10448000I50000J0D01*
G01*
X17349000Y-10652000D02*
X17449000Y-10752000D01*
X17449000Y-10652000D02*
X17349000Y-10752000D01*
X17449000Y-10702000D02*
G75*
G02*
X17349000Y-10702000I-50000J0D01*
G01*
X17349000Y-10702000D02*
G75*
G02*
X17449000Y-10702000I50000J0D01*
G01*
X17349000Y-10906000D02*
X17449000Y-11006000D01*
X17449000Y-10906000D02*
X17349000Y-11006000D01*
X17449000Y-10956000D02*
G75*
G02*
X17349000Y-10956000I-50000J0D01*
G01*
X17349000Y-10956000D02*
G75*
G02*
X17449000Y-10956000I50000J0D01*
G01*
X17349000Y-11160000D02*
X17449000Y-11260000D01*
X17449000Y-11160000D02*
X17349000Y-11260000D01*
X17449000Y-11210000D02*
G75*
G02*
X17349000Y-11210000I-50000J0D01*
G01*
X17349000Y-11210000D02*
G75*
G02*
X17449000Y-11210000I50000J0D01*
G01*
X17349000Y-11414000D02*
X17449000Y-11514000D01*
X17449000Y-11414000D02*
X17349000Y-11514000D01*
X17449000Y-11464000D02*
G75*
G02*
X17349000Y-11464000I-50000J0D01*
G01*
X17349000Y-11464000D02*
G75*
G02*
X17449000Y-11464000I50000J0D01*
G01*
X17857000Y-7858000D02*
X17957000Y-7958000D01*
X17957000Y-7858000D02*
X17857000Y-7958000D01*
X17957000Y-7908000D02*
G75*
G02*
X17857000Y-7908000I-50000J0D01*
G01*
X17857000Y-7908000D02*
G75*
G02*
X17957000Y-7908000I50000J0D01*
G01*
X17857000Y-8112000D02*
X17957000Y-8212000D01*
X17957000Y-8112000D02*
X17857000Y-8212000D01*
X17957000Y-8162000D02*
G75*
G02*
X17857000Y-8162000I-50000J0D01*
G01*
X17857000Y-8162000D02*
G75*
G02*
X17957000Y-8162000I50000J0D01*
G01*
X17857000Y-8366000D02*
X17957000Y-8466000D01*
X17957000Y-8366000D02*
X17857000Y-8466000D01*
X17957000Y-8416000D02*
G75*
G02*
X17857000Y-8416000I-50000J0D01*
G01*
X17857000Y-8416000D02*
G75*
G02*
X17957000Y-8416000I50000J0D01*
G01*
X17857000Y-8620000D02*
X17957000Y-8720000D01*
X17957000Y-8620000D02*
X17857000Y-8720000D01*
X17957000Y-8670000D02*
G75*
G02*
X17857000Y-8670000I-50000J0D01*
G01*
X17857000Y-8670000D02*
G75*
G02*
X17957000Y-8670000I50000J0D01*
G01*
X17857000Y-8874000D02*
X17957000Y-8974000D01*
X17957000Y-8874000D02*
X17857000Y-8974000D01*
X17957000Y-8924000D02*
G75*
G02*
X17857000Y-8924000I-50000J0D01*
G01*
X17857000Y-8924000D02*
G75*
G02*
X17957000Y-8924000I50000J0D01*
G01*
X17857000Y-9128000D02*
X17957000Y-9228000D01*
X17957000Y-9128000D02*
X17857000Y-9228000D01*
X17957000Y-9178000D02*
G75*
G02*
X17857000Y-9178000I-50000J0D01*
G01*
X17857000Y-9178000D02*
G75*
G02*
X17957000Y-9178000I50000J0D01*
G01*
X17857000Y-9382000D02*
X17957000Y-9482000D01*
X17957000Y-9382000D02*
X17857000Y-9482000D01*
X17957000Y-9432000D02*
G75*
G02*
X17857000Y-9432000I-50000J0D01*
G01*
X17857000Y-9432000D02*
G75*
G02*
X17957000Y-9432000I50000J0D01*
G01*
X17857000Y-9636000D02*
X17957000Y-9736000D01*
X17957000Y-9636000D02*
X17857000Y-9736000D01*
X17957000Y-9686000D02*
G75*
G02*
X17857000Y-9686000I-50000J0D01*
G01*
X17857000Y-9686000D02*
G75*
G02*
X17957000Y-9686000I50000J0D01*
G01*
X17857000Y-9890000D02*
X17957000Y-9990000D01*
X17957000Y-9890000D02*
X17857000Y-9990000D01*
X17957000Y-9940000D02*
G75*
G02*
X17857000Y-9940000I-50000J0D01*
G01*
X17857000Y-9940000D02*
G75*
G02*
X17957000Y-9940000I50000J0D01*
G01*
X17857000Y-10144000D02*
X17957000Y-10244000D01*
X17957000Y-10144000D02*
X17857000Y-10244000D01*
X17957000Y-10194000D02*
G75*
G02*
X17857000Y-10194000I-50000J0D01*
G01*
X17857000Y-10194000D02*
G75*
G02*
X17957000Y-10194000I50000J0D01*
G01*
X17857000Y-10398000D02*
X17957000Y-10498000D01*
X17957000Y-10398000D02*
X17857000Y-10498000D01*
X17957000Y-10448000D02*
G75*
G02*
X17857000Y-10448000I-50000J0D01*
G01*
X17857000Y-10448000D02*
G75*
G02*
X17957000Y-10448000I50000J0D01*
G01*
X17857000Y-10652000D02*
X17957000Y-10752000D01*
X17957000Y-10652000D02*
X17857000Y-10752000D01*
X17957000Y-10702000D02*
G75*
G02*
X17857000Y-10702000I-50000J0D01*
G01*
X17857000Y-10702000D02*
G75*
G02*
X17957000Y-10702000I50000J0D01*
G01*
X17857000Y-10906000D02*
X17957000Y-11006000D01*
X17957000Y-10906000D02*
X17857000Y-11006000D01*
X17957000Y-10956000D02*
G75*
G02*
X17857000Y-10956000I-50000J0D01*
G01*
X17857000Y-10956000D02*
G75*
G02*
X17957000Y-10956000I50000J0D01*
G01*
X17857000Y-11160000D02*
X17957000Y-11260000D01*
X17957000Y-11160000D02*
X17857000Y-11260000D01*
X17957000Y-11210000D02*
G75*
G02*
X17857000Y-11210000I-50000J0D01*
G01*
X17857000Y-11210000D02*
G75*
G02*
X17957000Y-11210000I50000J0D01*
G01*
X17857000Y-11414000D02*
X17957000Y-11514000D01*
X17957000Y-11414000D02*
X17857000Y-11514000D01*
X17957000Y-11464000D02*
G75*
G02*
X17857000Y-11464000I-50000J0D01*
G01*
X17857000Y-11464000D02*
G75*
G02*
X17957000Y-11464000I50000J0D01*
G01*
X18111000Y-7858000D02*
X18211000Y-7958000D01*
X18211000Y-7858000D02*
X18111000Y-7958000D01*
X18211000Y-7908000D02*
G75*
G02*
X18111000Y-7908000I-50000J0D01*
G01*
X18111000Y-7908000D02*
G75*
G02*
X18211000Y-7908000I50000J0D01*
G01*
X18111000Y-8112000D02*
X18211000Y-8212000D01*
X18211000Y-8112000D02*
X18111000Y-8212000D01*
X18211000Y-8162000D02*
G75*
G02*
X18111000Y-8162000I-50000J0D01*
G01*
X18111000Y-8162000D02*
G75*
G02*
X18211000Y-8162000I50000J0D01*
G01*
X18111000Y-8366000D02*
X18211000Y-8466000D01*
X18211000Y-8366000D02*
X18111000Y-8466000D01*
X18211000Y-8416000D02*
G75*
G02*
X18111000Y-8416000I-50000J0D01*
G01*
X18111000Y-8416000D02*
G75*
G02*
X18211000Y-8416000I50000J0D01*
G01*
X18111000Y-8620000D02*
X18211000Y-8720000D01*
X18211000Y-8620000D02*
X18111000Y-8720000D01*
X18211000Y-8670000D02*
G75*
G02*
X18111000Y-8670000I-50000J0D01*
G01*
X18111000Y-8670000D02*
G75*
G02*
X18211000Y-8670000I50000J0D01*
G01*
X18111000Y-8874000D02*
X18211000Y-8974000D01*
X18211000Y-8874000D02*
X18111000Y-8974000D01*
X18211000Y-8924000D02*
G75*
G02*
X18111000Y-8924000I-50000J0D01*
G01*
X18111000Y-8924000D02*
G75*
G02*
X18211000Y-8924000I50000J0D01*
G01*
X18111000Y-9128000D02*
X18211000Y-9228000D01*
X18211000Y-9128000D02*
X18111000Y-9228000D01*
X18211000Y-9178000D02*
G75*
G02*
X18111000Y-9178000I-50000J0D01*
G01*
X18111000Y-9178000D02*
G75*
G02*
X18211000Y-9178000I50000J0D01*
G01*
X18111000Y-9382000D02*
X18211000Y-9482000D01*
X18211000Y-9382000D02*
X18111000Y-9482000D01*
X18211000Y-9432000D02*
G75*
G02*
X18111000Y-9432000I-50000J0D01*
G01*
X18111000Y-9432000D02*
G75*
G02*
X18211000Y-9432000I50000J0D01*
G01*
X18111000Y-9636000D02*
X18211000Y-9736000D01*
X18211000Y-9636000D02*
X18111000Y-9736000D01*
X18211000Y-9686000D02*
G75*
G02*
X18111000Y-9686000I-50000J0D01*
G01*
X18111000Y-9686000D02*
G75*
G02*
X18211000Y-9686000I50000J0D01*
G01*
X18111000Y-9890000D02*
X18211000Y-9990000D01*
X18211000Y-9890000D02*
X18111000Y-9990000D01*
X18211000Y-9940000D02*
G75*
G02*
X18111000Y-9940000I-50000J0D01*
G01*
X18111000Y-9940000D02*
G75*
G02*
X18211000Y-9940000I50000J0D01*
G01*
X18111000Y-10144000D02*
X18211000Y-10244000D01*
X18211000Y-10144000D02*
X18111000Y-10244000D01*
X18211000Y-10194000D02*
G75*
G02*
X18111000Y-10194000I-50000J0D01*
G01*
X18111000Y-10194000D02*
G75*
G02*
X18211000Y-10194000I50000J0D01*
G01*
X18111000Y-10398000D02*
X18211000Y-10498000D01*
X18211000Y-10398000D02*
X18111000Y-10498000D01*
X18211000Y-10448000D02*
G75*
G02*
X18111000Y-10448000I-50000J0D01*
G01*
X18111000Y-10448000D02*
G75*
G02*
X18211000Y-10448000I50000J0D01*
G01*
X18111000Y-10652000D02*
X18211000Y-10752000D01*
X18211000Y-10652000D02*
X18111000Y-10752000D01*
X18211000Y-10702000D02*
G75*
G02*
X18111000Y-10702000I-50000J0D01*
G01*
X18111000Y-10702000D02*
G75*
G02*
X18211000Y-10702000I50000J0D01*
G01*
X18111000Y-10906000D02*
X18211000Y-11006000D01*
X18211000Y-10906000D02*
X18111000Y-11006000D01*
X18211000Y-10956000D02*
G75*
G02*
X18111000Y-10956000I-50000J0D01*
G01*
X18111000Y-10956000D02*
G75*
G02*
X18211000Y-10956000I50000J0D01*
G01*
X18111000Y-11160000D02*
X18211000Y-11260000D01*
X18211000Y-11160000D02*
X18111000Y-11260000D01*
X18211000Y-11210000D02*
G75*
G02*
X18111000Y-11210000I-50000J0D01*
G01*
X18111000Y-11210000D02*
G75*
G02*
X18211000Y-11210000I50000J0D01*
G01*
X18111000Y-11414000D02*
X18211000Y-11514000D01*
X18211000Y-11414000D02*
X18111000Y-11514000D01*
X18211000Y-11464000D02*
G75*
G02*
X18111000Y-11464000I-50000J0D01*
G01*
X18111000Y-11464000D02*
G75*
G02*
X18211000Y-11464000I50000J0D01*
G01*
X19635000Y-8620000D02*
X19735000Y-8720000D01*
X19735000Y-8620000D02*
X19635000Y-8720000D01*
X19735000Y-8670000D02*
G75*
G02*
X19635000Y-8670000I-50000J0D01*
G01*
X19635000Y-8670000D02*
G75*
G02*
X19735000Y-8670000I50000J0D01*
G01*
X19635000Y-8874000D02*
X19735000Y-8974000D01*
X19735000Y-8874000D02*
X19635000Y-8974000D01*
X19735000Y-8924000D02*
G75*
G02*
X19635000Y-8924000I-50000J0D01*
G01*
X19635000Y-8924000D02*
G75*
G02*
X19735000Y-8924000I50000J0D01*
G01*
X19635000Y-9128000D02*
X19735000Y-9228000D01*
X19735000Y-9128000D02*
X19635000Y-9228000D01*
X19735000Y-9178000D02*
G75*
G02*
X19635000Y-9178000I-50000J0D01*
G01*
X19635000Y-9178000D02*
G75*
G02*
X19735000Y-9178000I50000J0D01*
G01*
X19635000Y-9382000D02*
X19735000Y-9482000D01*
X19735000Y-9382000D02*
X19635000Y-9482000D01*
X19735000Y-9432000D02*
G75*
G02*
X19635000Y-9432000I-50000J0D01*
G01*
X19635000Y-9432000D02*
G75*
G02*
X19735000Y-9432000I50000J0D01*
G01*
X19635000Y-9636000D02*
X19735000Y-9736000D01*
X19735000Y-9636000D02*
X19635000Y-9736000D01*
X19735000Y-9686000D02*
G75*
G02*
X19635000Y-9686000I-50000J0D01*
G01*
X19635000Y-9686000D02*
G75*
G02*
X19735000Y-9686000I50000J0D01*
G01*
X19635000Y-9890000D02*
X19735000Y-9990000D01*
X19735000Y-9890000D02*
X19635000Y-9990000D01*
X19735000Y-9940000D02*
G75*
G02*
X19635000Y-9940000I-50000J0D01*
G01*
X19635000Y-9940000D02*
G75*
G02*
X19735000Y-9940000I50000J0D01*
G01*
X19635000Y-10144000D02*
X19735000Y-10244000D01*
X19735000Y-10144000D02*
X19635000Y-10244000D01*
X19735000Y-10194000D02*
G75*
G02*
X19635000Y-10194000I-50000J0D01*
G01*
X19635000Y-10194000D02*
G75*
G02*
X19735000Y-10194000I50000J0D01*
G01*
X19635000Y-10398000D02*
X19735000Y-10498000D01*
X19735000Y-10398000D02*
X19635000Y-10498000D01*
X19735000Y-10448000D02*
G75*
G02*
X19635000Y-10448000I-50000J0D01*
G01*
X19635000Y-10448000D02*
G75*
G02*
X19735000Y-10448000I50000J0D01*
G01*
X19635000Y-10652000D02*
X19735000Y-10752000D01*
X19735000Y-10652000D02*
X19635000Y-10752000D01*
X19735000Y-10702000D02*
G75*
G02*
X19635000Y-10702000I-50000J0D01*
G01*
X19635000Y-10702000D02*
G75*
G02*
X19735000Y-10702000I50000J0D01*
G01*
X19635000Y-10906000D02*
X19735000Y-11006000D01*
X19735000Y-10906000D02*
X19635000Y-11006000D01*
X19735000Y-10956000D02*
G75*
G02*
X19635000Y-10956000I-50000J0D01*
G01*
X19635000Y-10956000D02*
G75*
G02*
X19735000Y-10956000I50000J0D01*
G01*
X19635000Y-11160000D02*
X19735000Y-11260000D01*
X19735000Y-11160000D02*
X19635000Y-11260000D01*
X19735000Y-11210000D02*
G75*
G02*
X19635000Y-11210000I-50000J0D01*
G01*
X19635000Y-11210000D02*
G75*
G02*
X19735000Y-11210000I50000J0D01*
G01*
X19635000Y-11414000D02*
X19735000Y-11514000D01*
X19735000Y-11414000D02*
X19635000Y-11514000D01*
X19735000Y-11464000D02*
G75*
G02*
X19635000Y-11464000I-50000J0D01*
G01*
X19635000Y-11464000D02*
G75*
G02*
X19735000Y-11464000I50000J0D01*
G01*
X19889000Y-8620000D02*
X19989000Y-8720000D01*
X19989000Y-8620000D02*
X19889000Y-8720000D01*
X19989000Y-8670000D02*
G75*
G02*
X19889000Y-8670000I-50000J0D01*
G01*
X19889000Y-8670000D02*
G75*
G02*
X19989000Y-8670000I50000J0D01*
G01*
X19889000Y-8874000D02*
X19989000Y-8974000D01*
X19989000Y-8874000D02*
X19889000Y-8974000D01*
X19989000Y-8924000D02*
G75*
G02*
X19889000Y-8924000I-50000J0D01*
G01*
X19889000Y-8924000D02*
G75*
G02*
X19989000Y-8924000I50000J0D01*
G01*
X19889000Y-9128000D02*
X19989000Y-9228000D01*
X19989000Y-9128000D02*
X19889000Y-9228000D01*
X19989000Y-9178000D02*
G75*
G02*
X19889000Y-9178000I-50000J0D01*
G01*
X19889000Y-9178000D02*
G75*
G02*
X19989000Y-9178000I50000J0D01*
G01*
X19889000Y-9382000D02*
X19989000Y-9482000D01*
X19989000Y-9382000D02*
X19889000Y-9482000D01*
X19989000Y-9432000D02*
G75*
G02*
X19889000Y-9432000I-50000J0D01*
G01*
X19889000Y-9432000D02*
G75*
G02*
X19989000Y-9432000I50000J0D01*
G01*
X19889000Y-9636000D02*
X19989000Y-9736000D01*
X19989000Y-9636000D02*
X19889000Y-9736000D01*
X19989000Y-9686000D02*
G75*
G02*
X19889000Y-9686000I-50000J0D01*
G01*
X19889000Y-9686000D02*
G75*
G02*
X19989000Y-9686000I50000J0D01*
G01*
X19889000Y-9890000D02*
X19989000Y-9990000D01*
X19989000Y-9890000D02*
X19889000Y-9990000D01*
X19989000Y-9940000D02*
G75*
G02*
X19889000Y-9940000I-50000J0D01*
G01*
X19889000Y-9940000D02*
G75*
G02*
X19989000Y-9940000I50000J0D01*
G01*
X19889000Y-10144000D02*
X19989000Y-10244000D01*
X19989000Y-10144000D02*
X19889000Y-10244000D01*
X19989000Y-10194000D02*
G75*
G02*
X19889000Y-10194000I-50000J0D01*
G01*
X19889000Y-10194000D02*
G75*
G02*
X19989000Y-10194000I50000J0D01*
G01*
X19889000Y-10398000D02*
X19989000Y-10498000D01*
X19989000Y-10398000D02*
X19889000Y-10498000D01*
X19989000Y-10448000D02*
G75*
G02*
X19889000Y-10448000I-50000J0D01*
G01*
X19889000Y-10448000D02*
G75*
G02*
X19989000Y-10448000I50000J0D01*
G01*
X19889000Y-10652000D02*
X19989000Y-10752000D01*
X19989000Y-10652000D02*
X19889000Y-10752000D01*
X19989000Y-10702000D02*
G75*
G02*
X19889000Y-10702000I-50000J0D01*
G01*
X19889000Y-10702000D02*
G75*
G02*
X19989000Y-10702000I50000J0D01*
G01*
X19889000Y-10906000D02*
X19989000Y-11006000D01*
X19989000Y-10906000D02*
X19889000Y-11006000D01*
X19989000Y-10956000D02*
G75*
G02*
X19889000Y-10956000I-50000J0D01*
G01*
X19889000Y-10956000D02*
G75*
G02*
X19989000Y-10956000I50000J0D01*
G01*
X19889000Y-11160000D02*
X19989000Y-11260000D01*
X19989000Y-11160000D02*
X19889000Y-11260000D01*
X19989000Y-11210000D02*
G75*
G02*
X19889000Y-11210000I-50000J0D01*
G01*
X19889000Y-11210000D02*
G75*
G02*
X19989000Y-11210000I50000J0D01*
G01*
X19889000Y-11414000D02*
X19989000Y-11514000D01*
X19989000Y-11414000D02*
X19889000Y-11514000D01*
X19989000Y-11464000D02*
G75*
G02*
X19889000Y-11464000I-50000J0D01*
G01*
X19889000Y-11464000D02*
G75*
G02*
X19989000Y-11464000I50000J0D01*
G01*
D12*
X13411200Y-10270200D02*
X13512800Y-10371800D01*
X13512800Y-10270200D02*
X13411200Y-10371800D01*
X13462000Y-10270200D02*
X13462000Y-10371800D01*
X13411200Y-10321000D02*
X13512800Y-10321000D01*
X13411200Y-10524200D02*
X13512800Y-10625800D01*
X13512800Y-10524200D02*
X13411200Y-10625800D01*
X13462000Y-10524200D02*
X13462000Y-10625800D01*
X13411200Y-10575000D02*
X13512800Y-10575000D01*
X13411200Y-10778200D02*
X13512800Y-10879800D01*
X13512800Y-10778200D02*
X13411200Y-10879800D01*
X13462000Y-10778200D02*
X13462000Y-10879800D01*
X13411200Y-10829000D02*
X13512800Y-10829000D01*
X13411200Y-11032200D02*
X13512800Y-11133800D01*
X13512800Y-11032200D02*
X13411200Y-11133800D01*
X13462000Y-11032200D02*
X13462000Y-11133800D01*
X13411200Y-11083000D02*
X13512800Y-11083000D01*
X13411200Y-11286200D02*
X13512800Y-11387800D01*
X13512800Y-11286200D02*
X13411200Y-11387800D01*
X13462000Y-11286200D02*
X13462000Y-11387800D01*
X13411200Y-11337000D02*
X13512800Y-11337000D01*
X13411200Y-11540200D02*
X13512800Y-11641800D01*
X13512800Y-11540200D02*
X13411200Y-11641800D01*
X13462000Y-11540200D02*
X13462000Y-11641800D01*
X13411200Y-11591000D02*
X13512800Y-11591000D01*
X14681200Y-7349200D02*
X14782800Y-7450800D01*
X14782800Y-7349200D02*
X14681200Y-7450800D01*
X14732000Y-7349200D02*
X14732000Y-7450800D01*
X14681200Y-7400000D02*
X14782800Y-7400000D01*
X14681200Y-7603200D02*
X14782800Y-7704800D01*
X14782800Y-7603200D02*
X14681200Y-7704800D01*
X14732000Y-7603200D02*
X14732000Y-7704800D01*
X14681200Y-7654000D02*
X14782800Y-7654000D01*
X14681200Y-7857200D02*
X14782800Y-7958800D01*
X14782800Y-7857200D02*
X14681200Y-7958800D01*
X14732000Y-7857200D02*
X14732000Y-7958800D01*
X14681200Y-7908000D02*
X14782800Y-7908000D01*
X14681200Y-8111200D02*
X14782800Y-8212800D01*
X14782800Y-8111200D02*
X14681200Y-8212800D01*
X14732000Y-8111200D02*
X14732000Y-8212800D01*
X14681200Y-8162000D02*
X14782800Y-8162000D01*
X14681200Y-8365200D02*
X14782800Y-8466800D01*
X14782800Y-8365200D02*
X14681200Y-8466800D01*
X14732000Y-8365200D02*
X14732000Y-8466800D01*
X14681200Y-8416000D02*
X14782800Y-8416000D01*
X14681200Y-8619200D02*
X14782800Y-8720800D01*
X14782800Y-8619200D02*
X14681200Y-8720800D01*
X14732000Y-8619200D02*
X14732000Y-8720800D01*
X14681200Y-8670000D02*
X14782800Y-8670000D01*
X14681200Y-8873200D02*
X14782800Y-8974800D01*
X14782800Y-8873200D02*
X14681200Y-8974800D01*
X14732000Y-8873200D02*
X14732000Y-8974800D01*
X14681200Y-8924000D02*
X14782800Y-8924000D01*
X14681200Y-10270200D02*
X14782800Y-10371800D01*
X14782800Y-10270200D02*
X14681200Y-10371800D01*
X14732000Y-10270200D02*
X14732000Y-10371800D01*
X14681200Y-10321000D02*
X14782800Y-10321000D01*
X14681200Y-10524200D02*
X14782800Y-10625800D01*
X14782800Y-10524200D02*
X14681200Y-10625800D01*
X14732000Y-10524200D02*
X14732000Y-10625800D01*
X14681200Y-10575000D02*
X14782800Y-10575000D01*
X14681200Y-10778200D02*
X14782800Y-10879800D01*
X14782800Y-10778200D02*
X14681200Y-10879800D01*
X14732000Y-10778200D02*
X14732000Y-10879800D01*
X14681200Y-10829000D02*
X14782800Y-10829000D01*
X14681200Y-11032200D02*
X14782800Y-11133800D01*
X14782800Y-11032200D02*
X14681200Y-11133800D01*
X14732000Y-11032200D02*
X14732000Y-11133800D01*
X14681200Y-11083000D02*
X14782800Y-11083000D01*
X14681200Y-11286200D02*
X14782800Y-11387800D01*
X14782800Y-11286200D02*
X14681200Y-11387800D01*
X14732000Y-11286200D02*
X14732000Y-11387800D01*
X14681200Y-11337000D02*
X14782800Y-11337000D01*
X14681200Y-11540200D02*
X14782800Y-11641800D01*
X14782800Y-11540200D02*
X14681200Y-11641800D01*
X14732000Y-11540200D02*
X14732000Y-11641800D01*
X14681200Y-11591000D02*
X14782800Y-11591000D01*
X15316200Y-7603200D02*
X15417800Y-7704800D01*
X15417800Y-7603200D02*
X15316200Y-7704800D01*
X15367000Y-7603200D02*
X15367000Y-7704800D01*
X15316200Y-7654000D02*
X15417800Y-7654000D01*
X15570200Y-7603200D02*
X15671800Y-7704800D01*
X15671800Y-7603200D02*
X15570200Y-7704800D01*
X15621000Y-7603200D02*
X15621000Y-7704800D01*
X15570200Y-7654000D02*
X15671800Y-7654000D01*
X17856200Y-7603200D02*
X17957800Y-7704800D01*
X17957800Y-7603200D02*
X17856200Y-7704800D01*
X17907000Y-7603200D02*
X17907000Y-7704800D01*
X17856200Y-7654000D02*
X17957800Y-7654000D01*
X18110200Y-7603200D02*
X18211800Y-7704800D01*
X18211800Y-7603200D02*
X18110200Y-7704800D01*
X18161000Y-7603200D02*
X18161000Y-7704800D01*
X18110200Y-7654000D02*
X18211800Y-7654000D01*
D13*
X20539000Y-10822000D02*
X20679000Y-10962000D01*
X20679000Y-10822000D02*
X20539000Y-10962000D01*
X20658498Y-10941498D02*
X20658498Y-10842502D01*
X20559502Y-10842502D01*
X20559502Y-10941498D01*
X20658498Y-10941498D01*
X20539000Y-11330000D02*
X20679000Y-11470000D01*
X20679000Y-11330000D02*
X20539000Y-11470000D01*
X20658498Y-11449498D02*
X20658498Y-11350502D01*
X20559502Y-11350502D01*
X20559502Y-11449498D01*
X20658498Y-11449498D01*
D14*
X12469000Y-7490000D02*
X12719000Y-7740000D01*
X12719000Y-7490000D02*
X12469000Y-7740000D01*
X12594000Y-7740000D02*
X12719000Y-7615000D01*
X12594000Y-7490000D01*
X12469000Y-7615000D01*
X12594000Y-7740000D01*
X12469000Y-11360000D02*
X12719000Y-11610000D01*
X12719000Y-11360000D02*
X12469000Y-11610000D01*
X12594000Y-11610000D02*
X12719000Y-11485000D01*
X12594000Y-11360000D01*
X12469000Y-11485000D01*
X12594000Y-11610000D01*
D15*
X15494000Y-7146000D02*
X15494000Y-7400000D01*
X15367000Y-7273000D02*
X15621000Y-7273000D01*
X15621000Y-7273000D02*
G75*
G02*
X15367000Y-7273000I-127000J0D01*
G01*
X15367000Y-7273000D02*
G75*
G02*
X15621000Y-7273000I127000J0D01*
G01*
X17272000Y-7146000D02*
X17272000Y-7400000D01*
X17145000Y-7273000D02*
X17399000Y-7273000D01*
X17399000Y-7273000D02*
G75*
G02*
X17145000Y-7273000I-127000J0D01*
G01*
X17145000Y-7273000D02*
G75*
G02*
X17399000Y-7273000I127000J0D01*
G01*
X18034000Y-7146000D02*
X18034000Y-7400000D01*
X17907000Y-7273000D02*
X18161000Y-7273000D01*
X18161000Y-7273000D02*
G75*
G02*
X17907000Y-7273000I-127000J0D01*
G01*
X17907000Y-7273000D02*
G75*
G02*
X18161000Y-7273000I127000J0D01*
G01*
X19812000Y-7146000D02*
X19812000Y-7400000D01*
X19685000Y-7273000D02*
X19939000Y-7273000D01*
X19939000Y-7273000D02*
G75*
G02*
X19685000Y-7273000I-127000J0D01*
G01*
X19685000Y-7273000D02*
G75*
G02*
X19939000Y-7273000I127000J0D01*
G01*
D16*
X8815067Y-6906067D02*
X8815067Y-6693933D01*
X8602933Y-6693933D01*
X8602933Y-6906067D01*
X8815067Y-6906067D01*
X8859000Y-6800000D02*
G75*
G02*
X8559000Y-6800000I-150000J0D01*
G01*
X8559000Y-6800000D02*
G75*
G02*
X8859000Y-6800000I150000J0D01*
G01*
X8815067Y-12406067D02*
X8815067Y-12193933D01*
X8602933Y-12193933D01*
X8602933Y-12406067D01*
X8815067Y-12406067D01*
X8859000Y-12300000D02*
G75*
G02*
X8559000Y-12300000I-150000J0D01*
G01*
X8559000Y-12300000D02*
G75*
G02*
X8859000Y-12300000I150000J0D01*
G01*
X21315067Y-6906067D02*
X21315067Y-6693933D01*
X21102933Y-6693933D01*
X21102933Y-6906067D01*
X21315067Y-6906067D01*
X21359000Y-6800000D02*
G75*
G02*
X21059000Y-6800000I-150000J0D01*
G01*
X21059000Y-6800000D02*
G75*
G02*
X21359000Y-6800000I150000J0D01*
G01*
X21315067Y-12406067D02*
X21315067Y-12193933D01*
X21102933Y-12193933D01*
X21102933Y-12406067D01*
X21315067Y-12406067D01*
X21359000Y-12300000D02*
G75*
G02*
X21059000Y-12300000I-150000J0D01*
G01*
X21059000Y-12300000D02*
G75*
G02*
X21359000Y-12300000I150000J0D01*
G01*
D10*
X8559777Y-13021484D02*
X8559777Y-12821484D01*
X8559777Y-12821484D02*
X8607396Y-12821484D01*
X8607396Y-12821484D02*
X8635967Y-12831008D01*
X8635967Y-12831008D02*
X8655015Y-12850055D01*
X8655015Y-12850055D02*
X8664539Y-12869103D01*
X8664539Y-12869103D02*
X8674063Y-12907198D01*
X8674063Y-12907198D02*
X8674063Y-12935769D01*
X8674063Y-12935769D02*
X8664539Y-12973865D01*
X8664539Y-12973865D02*
X8655015Y-12992912D01*
X8655015Y-12992912D02*
X8635967Y-13011960D01*
X8635967Y-13011960D02*
X8607396Y-13021484D01*
X8607396Y-13021484D02*
X8559777Y-13021484D01*
X8759777Y-13021484D02*
X8759777Y-12888150D01*
X8759777Y-12926246D02*
X8769301Y-12907198D01*
X8769301Y-12907198D02*
X8778824Y-12897674D01*
X8778824Y-12897674D02*
X8797872Y-12888150D01*
X8797872Y-12888150D02*
X8816920Y-12888150D01*
X8883586Y-13021484D02*
X8883586Y-12888150D01*
X8883586Y-12821484D02*
X8874063Y-12831008D01*
X8874063Y-12831008D02*
X8883586Y-12840531D01*
X8883586Y-12840531D02*
X8893110Y-12831008D01*
X8893110Y-12831008D02*
X8883586Y-12821484D01*
X8883586Y-12821484D02*
X8883586Y-12840531D01*
X9007396Y-13021484D02*
X8988348Y-13011960D01*
X8988348Y-13011960D02*
X8978824Y-12992912D01*
X8978824Y-12992912D02*
X8978824Y-12821484D01*
X9112158Y-13021484D02*
X9093110Y-13011960D01*
X9093110Y-13011960D02*
X9083586Y-12992912D01*
X9083586Y-12992912D02*
X9083586Y-12821484D01*
X9340729Y-13021484D02*
X9340729Y-12821484D01*
X9340729Y-12821484D02*
X9407396Y-12964341D01*
X9407396Y-12964341D02*
X9474063Y-12821484D01*
X9474063Y-12821484D02*
X9474063Y-13021484D01*
X9655015Y-13021484D02*
X9655015Y-12916722D01*
X9655015Y-12916722D02*
X9645491Y-12897674D01*
X9645491Y-12897674D02*
X9626444Y-12888150D01*
X9626444Y-12888150D02*
X9588348Y-12888150D01*
X9588348Y-12888150D02*
X9569301Y-12897674D01*
X9655015Y-13011960D02*
X9635967Y-13021484D01*
X9635967Y-13021484D02*
X9588348Y-13021484D01*
X9588348Y-13021484D02*
X9569301Y-13011960D01*
X9569301Y-13011960D02*
X9559777Y-12992912D01*
X9559777Y-12992912D02*
X9559777Y-12973865D01*
X9559777Y-12973865D02*
X9569301Y-12954817D01*
X9569301Y-12954817D02*
X9588348Y-12945293D01*
X9588348Y-12945293D02*
X9635967Y-12945293D01*
X9635967Y-12945293D02*
X9655015Y-12935769D01*
X9750253Y-12888150D02*
X9750253Y-13088150D01*
X9750253Y-12897674D02*
X9769301Y-12888150D01*
X9769301Y-12888150D02*
X9807396Y-12888150D01*
X9807396Y-12888150D02*
X9826444Y-12897674D01*
X9826444Y-12897674D02*
X9835967Y-12907198D01*
X9835967Y-12907198D02*
X9845491Y-12926246D01*
X9845491Y-12926246D02*
X9845491Y-12983388D01*
X9845491Y-12983388D02*
X9835967Y-13002436D01*
X9835967Y-13002436D02*
X9826444Y-13011960D01*
X9826444Y-13011960D02*
X9807396Y-13021484D01*
X9807396Y-13021484D02*
X9769301Y-13021484D01*
X9769301Y-13021484D02*
X9750253Y-13011960D01*
X9931205Y-13002436D02*
X9940729Y-13011960D01*
X9940729Y-13011960D02*
X9931205Y-13021484D01*
X9931205Y-13021484D02*
X9921682Y-13011960D01*
X9921682Y-13011960D02*
X9931205Y-13002436D01*
X9931205Y-13002436D02*
X9931205Y-13021484D01*
X9931205Y-12897674D02*
X9940729Y-12907198D01*
X9940729Y-12907198D02*
X9931205Y-12916722D01*
X9931205Y-12916722D02*
X9921682Y-12907198D01*
X9921682Y-12907198D02*
X9931205Y-12897674D01*
X9931205Y-12897674D02*
X9931205Y-12916722D01*
D11*
X8259000Y-13330000D02*
X8299000Y-13370000D01*
X8299000Y-13330000D02*
X8259000Y-13370000D01*
D10*
X8597872Y-13241484D02*
X8616920Y-13241484D01*
X8616920Y-13241484D02*
X8635967Y-13251008D01*
X8635967Y-13251008D02*
X8645491Y-13260531D01*
X8645491Y-13260531D02*
X8655015Y-13279579D01*
X8655015Y-13279579D02*
X8664539Y-13317674D01*
X8664539Y-13317674D02*
X8664539Y-13365293D01*
X8664539Y-13365293D02*
X8655015Y-13403388D01*
X8655015Y-13403388D02*
X8645491Y-13422436D01*
X8645491Y-13422436D02*
X8635967Y-13431960D01*
X8635967Y-13431960D02*
X8616920Y-13441484D01*
X8616920Y-13441484D02*
X8597872Y-13441484D01*
X8597872Y-13441484D02*
X8578824Y-13431960D01*
X8578824Y-13431960D02*
X8569301Y-13422436D01*
X8569301Y-13422436D02*
X8559777Y-13403388D01*
X8559777Y-13403388D02*
X8550253Y-13365293D01*
X8550253Y-13365293D02*
X8550253Y-13317674D01*
X8550253Y-13317674D02*
X8559777Y-13279579D01*
X8559777Y-13279579D02*
X8569301Y-13260531D01*
X8569301Y-13260531D02*
X8578824Y-13251008D01*
X8578824Y-13251008D02*
X8597872Y-13241484D01*
X8750253Y-13422436D02*
X8759777Y-13431960D01*
X8759777Y-13431960D02*
X8750253Y-13441484D01*
X8750253Y-13441484D02*
X8740729Y-13431960D01*
X8740729Y-13431960D02*
X8750253Y-13422436D01*
X8750253Y-13422436D02*
X8750253Y-13441484D01*
X8931205Y-13308150D02*
X8931205Y-13441484D01*
X8883586Y-13231960D02*
X8835967Y-13374817D01*
X8835967Y-13374817D02*
X8959777Y-13374817D01*
X9074063Y-13241484D02*
X9093110Y-13241484D01*
X9093110Y-13241484D02*
X9112158Y-13251008D01*
X9112158Y-13251008D02*
X9121682Y-13260531D01*
X9121682Y-13260531D02*
X9131205Y-13279579D01*
X9131205Y-13279579D02*
X9140729Y-13317674D01*
X9140729Y-13317674D02*
X9140729Y-13365293D01*
X9140729Y-13365293D02*
X9131205Y-13403388D01*
X9131205Y-13403388D02*
X9121682Y-13422436D01*
X9121682Y-13422436D02*
X9112158Y-13431960D01*
X9112158Y-13431960D02*
X9093110Y-13441484D01*
X9093110Y-13441484D02*
X9074063Y-13441484D01*
X9074063Y-13441484D02*
X9055015Y-13431960D01*
X9055015Y-13431960D02*
X9045491Y-13422436D01*
X9045491Y-13422436D02*
X9035967Y-13403388D01*
X9035967Y-13403388D02*
X9026444Y-13365293D01*
X9026444Y-13365293D02*
X9026444Y-13317674D01*
X9026444Y-13317674D02*
X9035967Y-13279579D01*
X9035967Y-13279579D02*
X9045491Y-13260531D01*
X9045491Y-13260531D02*
X9055015Y-13251008D01*
X9055015Y-13251008D02*
X9074063Y-13241484D01*
X9264539Y-13241484D02*
X9283586Y-13241484D01*
X9283586Y-13241484D02*
X9302634Y-13251008D01*
X9302634Y-13251008D02*
X9312158Y-13260531D01*
X9312158Y-13260531D02*
X9321682Y-13279579D01*
X9321682Y-13279579D02*
X9331205Y-13317674D01*
X9331205Y-13317674D02*
X9331205Y-13365293D01*
X9331205Y-13365293D02*
X9321682Y-13403388D01*
X9321682Y-13403388D02*
X9312158Y-13422436D01*
X9312158Y-13422436D02*
X9302634Y-13431960D01*
X9302634Y-13431960D02*
X9283586Y-13441484D01*
X9283586Y-13441484D02*
X9264539Y-13441484D01*
X9264539Y-13441484D02*
X9245491Y-13431960D01*
X9245491Y-13431960D02*
X9235967Y-13422436D01*
X9235967Y-13422436D02*
X9226444Y-13403388D01*
X9226444Y-13403388D02*
X9216920Y-13365293D01*
X9216920Y-13365293D02*
X9216920Y-13317674D01*
X9216920Y-13317674D02*
X9226444Y-13279579D01*
X9226444Y-13279579D02*
X9235967Y-13260531D01*
X9235967Y-13260531D02*
X9245491Y-13251008D01*
X9245491Y-13251008D02*
X9264539Y-13241484D01*
X9416920Y-13441484D02*
X9416920Y-13308150D01*
X9416920Y-13327198D02*
X9426444Y-13317674D01*
X9426444Y-13317674D02*
X9445491Y-13308150D01*
X9445491Y-13308150D02*
X9474063Y-13308150D01*
X9474063Y-13308150D02*
X9493110Y-13317674D01*
X9493110Y-13317674D02*
X9502634Y-13336722D01*
X9502634Y-13336722D02*
X9502634Y-13441484D01*
X9502634Y-13336722D02*
X9512158Y-13317674D01*
X9512158Y-13317674D02*
X9531205Y-13308150D01*
X9531205Y-13308150D02*
X9559777Y-13308150D01*
X9559777Y-13308150D02*
X9578825Y-13317674D01*
X9578825Y-13317674D02*
X9588348Y-13336722D01*
X9588348Y-13336722D02*
X9588348Y-13441484D01*
X9683586Y-13441484D02*
X9683586Y-13308150D01*
X9683586Y-13327198D02*
X9693110Y-13317674D01*
X9693110Y-13317674D02*
X9712158Y-13308150D01*
X9712158Y-13308150D02*
X9740729Y-13308150D01*
X9740729Y-13308150D02*
X9759777Y-13317674D01*
X9759777Y-13317674D02*
X9769301Y-13336722D01*
X9769301Y-13336722D02*
X9769301Y-13441484D01*
X9769301Y-13336722D02*
X9778825Y-13317674D01*
X9778825Y-13317674D02*
X9797872Y-13308150D01*
X9797872Y-13308150D02*
X9826444Y-13308150D01*
X9826444Y-13308150D02*
X9845491Y-13317674D01*
X9845491Y-13317674D02*
X9855015Y-13336722D01*
X9855015Y-13336722D02*
X9855015Y-13441484D01*
X10245491Y-13231960D02*
X10074063Y-13489103D01*
X10502634Y-13241484D02*
X10521682Y-13241484D01*
X10521682Y-13241484D02*
X10540729Y-13251008D01*
X10540729Y-13251008D02*
X10550253Y-13260531D01*
X10550253Y-13260531D02*
X10559777Y-13279579D01*
X10559777Y-13279579D02*
X10569301Y-13317674D01*
X10569301Y-13317674D02*
X10569301Y-13365293D01*
X10569301Y-13365293D02*
X10559777Y-13403388D01*
X10559777Y-13403388D02*
X10550253Y-13422436D01*
X10550253Y-13422436D02*
X10540729Y-13431960D01*
X10540729Y-13431960D02*
X10521682Y-13441484D01*
X10521682Y-13441484D02*
X10502634Y-13441484D01*
X10502634Y-13441484D02*
X10483587Y-13431960D01*
X10483587Y-13431960D02*
X10474063Y-13422436D01*
X10474063Y-13422436D02*
X10464539Y-13403388D01*
X10464539Y-13403388D02*
X10455015Y-13365293D01*
X10455015Y-13365293D02*
X10455015Y-13317674D01*
X10455015Y-13317674D02*
X10464539Y-13279579D01*
X10464539Y-13279579D02*
X10474063Y-13260531D01*
X10474063Y-13260531D02*
X10483587Y-13251008D01*
X10483587Y-13251008D02*
X10502634Y-13241484D01*
X10655015Y-13422436D02*
X10664539Y-13431960D01*
X10664539Y-13431960D02*
X10655015Y-13441484D01*
X10655015Y-13441484D02*
X10645491Y-13431960D01*
X10645491Y-13431960D02*
X10655015Y-13422436D01*
X10655015Y-13422436D02*
X10655015Y-13441484D01*
X10788348Y-13241484D02*
X10807396Y-13241484D01*
X10807396Y-13241484D02*
X10826444Y-13251008D01*
X10826444Y-13251008D02*
X10835968Y-13260531D01*
X10835968Y-13260531D02*
X10845491Y-13279579D01*
X10845491Y-13279579D02*
X10855015Y-13317674D01*
X10855015Y-13317674D02*
X10855015Y-13365293D01*
X10855015Y-13365293D02*
X10845491Y-13403388D01*
X10845491Y-13403388D02*
X10835968Y-13422436D01*
X10835968Y-13422436D02*
X10826444Y-13431960D01*
X10826444Y-13431960D02*
X10807396Y-13441484D01*
X10807396Y-13441484D02*
X10788348Y-13441484D01*
X10788348Y-13441484D02*
X10769301Y-13431960D01*
X10769301Y-13431960D02*
X10759777Y-13422436D01*
X10759777Y-13422436D02*
X10750253Y-13403388D01*
X10750253Y-13403388D02*
X10740729Y-13365293D01*
X10740729Y-13365293D02*
X10740729Y-13317674D01*
X10740729Y-13317674D02*
X10750253Y-13279579D01*
X10750253Y-13279579D02*
X10759777Y-13260531D01*
X10759777Y-13260531D02*
X10769301Y-13251008D01*
X10769301Y-13251008D02*
X10788348Y-13241484D01*
X11045491Y-13441484D02*
X10931206Y-13441484D01*
X10988348Y-13441484D02*
X10988348Y-13241484D01*
X10988348Y-13241484D02*
X10969301Y-13270055D01*
X10969301Y-13270055D02*
X10950253Y-13289103D01*
X10950253Y-13289103D02*
X10931206Y-13298627D01*
X11226444Y-13241484D02*
X11131206Y-13241484D01*
X11131206Y-13241484D02*
X11121682Y-13336722D01*
X11121682Y-13336722D02*
X11131206Y-13327198D01*
X11131206Y-13327198D02*
X11150253Y-13317674D01*
X11150253Y-13317674D02*
X11197872Y-13317674D01*
X11197872Y-13317674D02*
X11216920Y-13327198D01*
X11216920Y-13327198D02*
X11226444Y-13336722D01*
X11226444Y-13336722D02*
X11235967Y-13355769D01*
X11235967Y-13355769D02*
X11235967Y-13403388D01*
X11235967Y-13403388D02*
X11226444Y-13422436D01*
X11226444Y-13422436D02*
X11216920Y-13431960D01*
X11216920Y-13431960D02*
X11197872Y-13441484D01*
X11197872Y-13441484D02*
X11150253Y-13441484D01*
X11150253Y-13441484D02*
X11131206Y-13431960D01*
X11131206Y-13431960D02*
X11121682Y-13422436D01*
X11302634Y-13241484D02*
X11435967Y-13241484D01*
X11435967Y-13241484D02*
X11350253Y-13441484D01*
X11502634Y-13241484D02*
X11502634Y-13279579D01*
X11578825Y-13241484D02*
X11578825Y-13279579D01*
X11874063Y-13517674D02*
X11864539Y-13508150D01*
X11864539Y-13508150D02*
X11845491Y-13479579D01*
X11845491Y-13479579D02*
X11835968Y-13460531D01*
X11835968Y-13460531D02*
X11826444Y-13431960D01*
X11826444Y-13431960D02*
X11816920Y-13384341D01*
X11816920Y-13384341D02*
X11816920Y-13346246D01*
X11816920Y-13346246D02*
X11826444Y-13298627D01*
X11826444Y-13298627D02*
X11835968Y-13270055D01*
X11835968Y-13270055D02*
X11845491Y-13251008D01*
X11845491Y-13251008D02*
X11864539Y-13222436D01*
X11864539Y-13222436D02*
X11874063Y-13212912D01*
X11931206Y-13241484D02*
X12055015Y-13241484D01*
X12055015Y-13241484D02*
X11988348Y-13317674D01*
X11988348Y-13317674D02*
X12016920Y-13317674D01*
X12016920Y-13317674D02*
X12035968Y-13327198D01*
X12035968Y-13327198D02*
X12045491Y-13336722D01*
X12045491Y-13336722D02*
X12055015Y-13355769D01*
X12055015Y-13355769D02*
X12055015Y-13403388D01*
X12055015Y-13403388D02*
X12045491Y-13422436D01*
X12045491Y-13422436D02*
X12035968Y-13431960D01*
X12035968Y-13431960D02*
X12016920Y-13441484D01*
X12016920Y-13441484D02*
X11959777Y-13441484D01*
X11959777Y-13441484D02*
X11940729Y-13431960D01*
X11940729Y-13431960D02*
X11931206Y-13422436D01*
X12235968Y-13241484D02*
X12140729Y-13241484D01*
X12140729Y-13241484D02*
X12131206Y-13336722D01*
X12131206Y-13336722D02*
X12140729Y-13327198D01*
X12140729Y-13327198D02*
X12159777Y-13317674D01*
X12159777Y-13317674D02*
X12207396Y-13317674D01*
X12207396Y-13317674D02*
X12226444Y-13327198D01*
X12226444Y-13327198D02*
X12235968Y-13336722D01*
X12235968Y-13336722D02*
X12245491Y-13355769D01*
X12245491Y-13355769D02*
X12245491Y-13403388D01*
X12245491Y-13403388D02*
X12235968Y-13422436D01*
X12235968Y-13422436D02*
X12226444Y-13431960D01*
X12226444Y-13431960D02*
X12207396Y-13441484D01*
X12207396Y-13441484D02*
X12159777Y-13441484D01*
X12159777Y-13441484D02*
X12140729Y-13431960D01*
X12140729Y-13431960D02*
X12131206Y-13422436D01*
X12483587Y-13441484D02*
X12483587Y-13241484D01*
X12569301Y-13441484D02*
X12569301Y-13336722D01*
X12569301Y-13336722D02*
X12559777Y-13317674D01*
X12559777Y-13317674D02*
X12540730Y-13308150D01*
X12540730Y-13308150D02*
X12512158Y-13308150D01*
X12512158Y-13308150D02*
X12493110Y-13317674D01*
X12493110Y-13317674D02*
X12483587Y-13327198D01*
X12693110Y-13441484D02*
X12674063Y-13431960D01*
X12674063Y-13431960D02*
X12664539Y-13422436D01*
X12664539Y-13422436D02*
X12655015Y-13403388D01*
X12655015Y-13403388D02*
X12655015Y-13346246D01*
X12655015Y-13346246D02*
X12664539Y-13327198D01*
X12664539Y-13327198D02*
X12674063Y-13317674D01*
X12674063Y-13317674D02*
X12693110Y-13308150D01*
X12693110Y-13308150D02*
X12721682Y-13308150D01*
X12721682Y-13308150D02*
X12740730Y-13317674D01*
X12740730Y-13317674D02*
X12750253Y-13327198D01*
X12750253Y-13327198D02*
X12759777Y-13346246D01*
X12759777Y-13346246D02*
X12759777Y-13403388D01*
X12759777Y-13403388D02*
X12750253Y-13422436D01*
X12750253Y-13422436D02*
X12740730Y-13431960D01*
X12740730Y-13431960D02*
X12721682Y-13441484D01*
X12721682Y-13441484D02*
X12693110Y-13441484D01*
X12874063Y-13441484D02*
X12855015Y-13431960D01*
X12855015Y-13431960D02*
X12845491Y-13412912D01*
X12845491Y-13412912D02*
X12845491Y-13241484D01*
X13026444Y-13431960D02*
X13007396Y-13441484D01*
X13007396Y-13441484D02*
X12969301Y-13441484D01*
X12969301Y-13441484D02*
X12950253Y-13431960D01*
X12950253Y-13431960D02*
X12940730Y-13412912D01*
X12940730Y-13412912D02*
X12940730Y-13336722D01*
X12940730Y-13336722D02*
X12950253Y-13317674D01*
X12950253Y-13317674D02*
X12969301Y-13308150D01*
X12969301Y-13308150D02*
X13007396Y-13308150D01*
X13007396Y-13308150D02*
X13026444Y-13317674D01*
X13026444Y-13317674D02*
X13035968Y-13336722D01*
X13035968Y-13336722D02*
X13035968Y-13355769D01*
X13035968Y-13355769D02*
X12940730Y-13374817D01*
X13112158Y-13431960D02*
X13131206Y-13441484D01*
X13131206Y-13441484D02*
X13169301Y-13441484D01*
X13169301Y-13441484D02*
X13188349Y-13431960D01*
X13188349Y-13431960D02*
X13197872Y-13412912D01*
X13197872Y-13412912D02*
X13197872Y-13403388D01*
X13197872Y-13403388D02*
X13188349Y-13384341D01*
X13188349Y-13384341D02*
X13169301Y-13374817D01*
X13169301Y-13374817D02*
X13140730Y-13374817D01*
X13140730Y-13374817D02*
X13121682Y-13365293D01*
X13121682Y-13365293D02*
X13112158Y-13346246D01*
X13112158Y-13346246D02*
X13112158Y-13336722D01*
X13112158Y-13336722D02*
X13121682Y-13317674D01*
X13121682Y-13317674D02*
X13140730Y-13308150D01*
X13140730Y-13308150D02*
X13169301Y-13308150D01*
X13169301Y-13308150D02*
X13188349Y-13317674D01*
X13264539Y-13517674D02*
X13274063Y-13508150D01*
X13274063Y-13508150D02*
X13293111Y-13479579D01*
X13293111Y-13479579D02*
X13302634Y-13460531D01*
X13302634Y-13460531D02*
X13312158Y-13431960D01*
X13312158Y-13431960D02*
X13321682Y-13384341D01*
X13321682Y-13384341D02*
X13321682Y-13346246D01*
X13321682Y-13346246D02*
X13312158Y-13298627D01*
X13312158Y-13298627D02*
X13302634Y-13270055D01*
X13302634Y-13270055D02*
X13293111Y-13251008D01*
X13293111Y-13251008D02*
X13274063Y-13222436D01*
X13274063Y-13222436D02*
X13264539Y-13212912D01*
D11*
X8299000Y-13614000D02*
G75*
G02*
X8249000Y-13614000I-25000J0D01*
G01*
X8249000Y-13614000D02*
G75*
G02*
X8299000Y-13614000I25000J0D01*
G01*
D10*
X8597872Y-13505484D02*
X8616920Y-13505484D01*
X8616920Y-13505484D02*
X8635967Y-13515008D01*
X8635967Y-13515008D02*
X8645491Y-13524531D01*
X8645491Y-13524531D02*
X8655015Y-13543579D01*
X8655015Y-13543579D02*
X8664539Y-13581674D01*
X8664539Y-13581674D02*
X8664539Y-13629293D01*
X8664539Y-13629293D02*
X8655015Y-13667388D01*
X8655015Y-13667388D02*
X8645491Y-13686436D01*
X8645491Y-13686436D02*
X8635967Y-13695960D01*
X8635967Y-13695960D02*
X8616920Y-13705484D01*
X8616920Y-13705484D02*
X8597872Y-13705484D01*
X8597872Y-13705484D02*
X8578824Y-13695960D01*
X8578824Y-13695960D02*
X8569301Y-13686436D01*
X8569301Y-13686436D02*
X8559777Y-13667388D01*
X8559777Y-13667388D02*
X8550253Y-13629293D01*
X8550253Y-13629293D02*
X8550253Y-13581674D01*
X8550253Y-13581674D02*
X8559777Y-13543579D01*
X8559777Y-13543579D02*
X8569301Y-13524531D01*
X8569301Y-13524531D02*
X8578824Y-13515008D01*
X8578824Y-13515008D02*
X8597872Y-13505484D01*
X8750253Y-13686436D02*
X8759777Y-13695960D01*
X8759777Y-13695960D02*
X8750253Y-13705484D01*
X8750253Y-13705484D02*
X8740729Y-13695960D01*
X8740729Y-13695960D02*
X8750253Y-13686436D01*
X8750253Y-13686436D02*
X8750253Y-13705484D01*
X8940729Y-13505484D02*
X8845491Y-13505484D01*
X8845491Y-13505484D02*
X8835967Y-13600722D01*
X8835967Y-13600722D02*
X8845491Y-13591198D01*
X8845491Y-13591198D02*
X8864539Y-13581674D01*
X8864539Y-13581674D02*
X8912158Y-13581674D01*
X8912158Y-13581674D02*
X8931205Y-13591198D01*
X8931205Y-13591198D02*
X8940729Y-13600722D01*
X8940729Y-13600722D02*
X8950253Y-13619769D01*
X8950253Y-13619769D02*
X8950253Y-13667388D01*
X8950253Y-13667388D02*
X8940729Y-13686436D01*
X8940729Y-13686436D02*
X8931205Y-13695960D01*
X8931205Y-13695960D02*
X8912158Y-13705484D01*
X8912158Y-13705484D02*
X8864539Y-13705484D01*
X8864539Y-13705484D02*
X8845491Y-13695960D01*
X8845491Y-13695960D02*
X8835967Y-13686436D01*
X9074063Y-13505484D02*
X9093110Y-13505484D01*
X9093110Y-13505484D02*
X9112158Y-13515008D01*
X9112158Y-13515008D02*
X9121682Y-13524531D01*
X9121682Y-13524531D02*
X9131205Y-13543579D01*
X9131205Y-13543579D02*
X9140729Y-13581674D01*
X9140729Y-13581674D02*
X9140729Y-13629293D01*
X9140729Y-13629293D02*
X9131205Y-13667388D01*
X9131205Y-13667388D02*
X9121682Y-13686436D01*
X9121682Y-13686436D02*
X9112158Y-13695960D01*
X9112158Y-13695960D02*
X9093110Y-13705484D01*
X9093110Y-13705484D02*
X9074063Y-13705484D01*
X9074063Y-13705484D02*
X9055015Y-13695960D01*
X9055015Y-13695960D02*
X9045491Y-13686436D01*
X9045491Y-13686436D02*
X9035967Y-13667388D01*
X9035967Y-13667388D02*
X9026444Y-13629293D01*
X9026444Y-13629293D02*
X9026444Y-13581674D01*
X9026444Y-13581674D02*
X9035967Y-13543579D01*
X9035967Y-13543579D02*
X9045491Y-13524531D01*
X9045491Y-13524531D02*
X9055015Y-13515008D01*
X9055015Y-13515008D02*
X9074063Y-13505484D01*
X9264539Y-13505484D02*
X9283586Y-13505484D01*
X9283586Y-13505484D02*
X9302634Y-13515008D01*
X9302634Y-13515008D02*
X9312158Y-13524531D01*
X9312158Y-13524531D02*
X9321682Y-13543579D01*
X9321682Y-13543579D02*
X9331205Y-13581674D01*
X9331205Y-13581674D02*
X9331205Y-13629293D01*
X9331205Y-13629293D02*
X9321682Y-13667388D01*
X9321682Y-13667388D02*
X9312158Y-13686436D01*
X9312158Y-13686436D02*
X9302634Y-13695960D01*
X9302634Y-13695960D02*
X9283586Y-13705484D01*
X9283586Y-13705484D02*
X9264539Y-13705484D01*
X9264539Y-13705484D02*
X9245491Y-13695960D01*
X9245491Y-13695960D02*
X9235967Y-13686436D01*
X9235967Y-13686436D02*
X9226444Y-13667388D01*
X9226444Y-13667388D02*
X9216920Y-13629293D01*
X9216920Y-13629293D02*
X9216920Y-13581674D01*
X9216920Y-13581674D02*
X9226444Y-13543579D01*
X9226444Y-13543579D02*
X9235967Y-13524531D01*
X9235967Y-13524531D02*
X9245491Y-13515008D01*
X9245491Y-13515008D02*
X9264539Y-13505484D01*
X9416920Y-13705484D02*
X9416920Y-13572150D01*
X9416920Y-13591198D02*
X9426444Y-13581674D01*
X9426444Y-13581674D02*
X9445491Y-13572150D01*
X9445491Y-13572150D02*
X9474063Y-13572150D01*
X9474063Y-13572150D02*
X9493110Y-13581674D01*
X9493110Y-13581674D02*
X9502634Y-13600722D01*
X9502634Y-13600722D02*
X9502634Y-13705484D01*
X9502634Y-13600722D02*
X9512158Y-13581674D01*
X9512158Y-13581674D02*
X9531205Y-13572150D01*
X9531205Y-13572150D02*
X9559777Y-13572150D01*
X9559777Y-13572150D02*
X9578825Y-13581674D01*
X9578825Y-13581674D02*
X9588348Y-13600722D01*
X9588348Y-13600722D02*
X9588348Y-13705484D01*
X9683586Y-13705484D02*
X9683586Y-13572150D01*
X9683586Y-13591198D02*
X9693110Y-13581674D01*
X9693110Y-13581674D02*
X9712158Y-13572150D01*
X9712158Y-13572150D02*
X9740729Y-13572150D01*
X9740729Y-13572150D02*
X9759777Y-13581674D01*
X9759777Y-13581674D02*
X9769301Y-13600722D01*
X9769301Y-13600722D02*
X9769301Y-13705484D01*
X9769301Y-13600722D02*
X9778825Y-13581674D01*
X9778825Y-13581674D02*
X9797872Y-13572150D01*
X9797872Y-13572150D02*
X9826444Y-13572150D01*
X9826444Y-13572150D02*
X9845491Y-13581674D01*
X9845491Y-13581674D02*
X9855015Y-13600722D01*
X9855015Y-13600722D02*
X9855015Y-13705484D01*
X10245491Y-13495960D02*
X10074063Y-13753103D01*
X10502634Y-13505484D02*
X10521682Y-13505484D01*
X10521682Y-13505484D02*
X10540729Y-13515008D01*
X10540729Y-13515008D02*
X10550253Y-13524531D01*
X10550253Y-13524531D02*
X10559777Y-13543579D01*
X10559777Y-13543579D02*
X10569301Y-13581674D01*
X10569301Y-13581674D02*
X10569301Y-13629293D01*
X10569301Y-13629293D02*
X10559777Y-13667388D01*
X10559777Y-13667388D02*
X10550253Y-13686436D01*
X10550253Y-13686436D02*
X10540729Y-13695960D01*
X10540729Y-13695960D02*
X10521682Y-13705484D01*
X10521682Y-13705484D02*
X10502634Y-13705484D01*
X10502634Y-13705484D02*
X10483587Y-13695960D01*
X10483587Y-13695960D02*
X10474063Y-13686436D01*
X10474063Y-13686436D02*
X10464539Y-13667388D01*
X10464539Y-13667388D02*
X10455015Y-13629293D01*
X10455015Y-13629293D02*
X10455015Y-13581674D01*
X10455015Y-13581674D02*
X10464539Y-13543579D01*
X10464539Y-13543579D02*
X10474063Y-13524531D01*
X10474063Y-13524531D02*
X10483587Y-13515008D01*
X10483587Y-13515008D02*
X10502634Y-13505484D01*
X10655015Y-13686436D02*
X10664539Y-13695960D01*
X10664539Y-13695960D02*
X10655015Y-13705484D01*
X10655015Y-13705484D02*
X10645491Y-13695960D01*
X10645491Y-13695960D02*
X10655015Y-13686436D01*
X10655015Y-13686436D02*
X10655015Y-13705484D01*
X10788348Y-13505484D02*
X10807396Y-13505484D01*
X10807396Y-13505484D02*
X10826444Y-13515008D01*
X10826444Y-13515008D02*
X10835968Y-13524531D01*
X10835968Y-13524531D02*
X10845491Y-13543579D01*
X10845491Y-13543579D02*
X10855015Y-13581674D01*
X10855015Y-13581674D02*
X10855015Y-13629293D01*
X10855015Y-13629293D02*
X10845491Y-13667388D01*
X10845491Y-13667388D02*
X10835968Y-13686436D01*
X10835968Y-13686436D02*
X10826444Y-13695960D01*
X10826444Y-13695960D02*
X10807396Y-13705484D01*
X10807396Y-13705484D02*
X10788348Y-13705484D01*
X10788348Y-13705484D02*
X10769301Y-13695960D01*
X10769301Y-13695960D02*
X10759777Y-13686436D01*
X10759777Y-13686436D02*
X10750253Y-13667388D01*
X10750253Y-13667388D02*
X10740729Y-13629293D01*
X10740729Y-13629293D02*
X10740729Y-13581674D01*
X10740729Y-13581674D02*
X10750253Y-13543579D01*
X10750253Y-13543579D02*
X10759777Y-13524531D01*
X10759777Y-13524531D02*
X10769301Y-13515008D01*
X10769301Y-13515008D02*
X10788348Y-13505484D01*
X11045491Y-13705484D02*
X10931206Y-13705484D01*
X10988348Y-13705484D02*
X10988348Y-13505484D01*
X10988348Y-13505484D02*
X10969301Y-13534055D01*
X10969301Y-13534055D02*
X10950253Y-13553103D01*
X10950253Y-13553103D02*
X10931206Y-13562627D01*
X11140729Y-13705484D02*
X11178825Y-13705484D01*
X11178825Y-13705484D02*
X11197872Y-13695960D01*
X11197872Y-13695960D02*
X11207396Y-13686436D01*
X11207396Y-13686436D02*
X11226444Y-13657865D01*
X11226444Y-13657865D02*
X11235967Y-13619769D01*
X11235967Y-13619769D02*
X11235967Y-13543579D01*
X11235967Y-13543579D02*
X11226444Y-13524531D01*
X11226444Y-13524531D02*
X11216920Y-13515008D01*
X11216920Y-13515008D02*
X11197872Y-13505484D01*
X11197872Y-13505484D02*
X11159777Y-13505484D01*
X11159777Y-13505484D02*
X11140729Y-13515008D01*
X11140729Y-13515008D02*
X11131206Y-13524531D01*
X11131206Y-13524531D02*
X11121682Y-13543579D01*
X11121682Y-13543579D02*
X11121682Y-13591198D01*
X11121682Y-13591198D02*
X11131206Y-13610246D01*
X11131206Y-13610246D02*
X11140729Y-13619769D01*
X11140729Y-13619769D02*
X11159777Y-13629293D01*
X11159777Y-13629293D02*
X11197872Y-13629293D01*
X11197872Y-13629293D02*
X11216920Y-13619769D01*
X11216920Y-13619769D02*
X11226444Y-13610246D01*
X11226444Y-13610246D02*
X11235967Y-13591198D01*
X11302634Y-13505484D02*
X11435967Y-13505484D01*
X11435967Y-13505484D02*
X11350253Y-13705484D01*
X11502634Y-13505484D02*
X11502634Y-13543579D01*
X11578825Y-13505484D02*
X11578825Y-13543579D01*
X11874063Y-13781674D02*
X11864539Y-13772150D01*
X11864539Y-13772150D02*
X11845491Y-13743579D01*
X11845491Y-13743579D02*
X11835968Y-13724531D01*
X11835968Y-13724531D02*
X11826444Y-13695960D01*
X11826444Y-13695960D02*
X11816920Y-13648341D01*
X11816920Y-13648341D02*
X11816920Y-13610246D01*
X11816920Y-13610246D02*
X11826444Y-13562627D01*
X11826444Y-13562627D02*
X11835968Y-13534055D01*
X11835968Y-13534055D02*
X11845491Y-13515008D01*
X11845491Y-13515008D02*
X11864539Y-13486436D01*
X11864539Y-13486436D02*
X11874063Y-13476912D01*
X12055015Y-13705484D02*
X11940729Y-13705484D01*
X11997872Y-13705484D02*
X11997872Y-13505484D01*
X11997872Y-13505484D02*
X11978825Y-13534055D01*
X11978825Y-13534055D02*
X11959777Y-13553103D01*
X11959777Y-13553103D02*
X11940729Y-13562627D01*
X12178825Y-13505484D02*
X12197872Y-13505484D01*
X12197872Y-13505484D02*
X12216920Y-13515008D01*
X12216920Y-13515008D02*
X12226444Y-13524531D01*
X12226444Y-13524531D02*
X12235968Y-13543579D01*
X12235968Y-13543579D02*
X12245491Y-13581674D01*
X12245491Y-13581674D02*
X12245491Y-13629293D01*
X12245491Y-13629293D02*
X12235968Y-13667388D01*
X12235968Y-13667388D02*
X12226444Y-13686436D01*
X12226444Y-13686436D02*
X12216920Y-13695960D01*
X12216920Y-13695960D02*
X12197872Y-13705484D01*
X12197872Y-13705484D02*
X12178825Y-13705484D01*
X12178825Y-13705484D02*
X12159777Y-13695960D01*
X12159777Y-13695960D02*
X12150253Y-13686436D01*
X12150253Y-13686436D02*
X12140729Y-13667388D01*
X12140729Y-13667388D02*
X12131206Y-13629293D01*
X12131206Y-13629293D02*
X12131206Y-13581674D01*
X12131206Y-13581674D02*
X12140729Y-13543579D01*
X12140729Y-13543579D02*
X12150253Y-13524531D01*
X12150253Y-13524531D02*
X12159777Y-13515008D01*
X12159777Y-13515008D02*
X12178825Y-13505484D01*
X12483587Y-13705484D02*
X12483587Y-13505484D01*
X12569301Y-13705484D02*
X12569301Y-13600722D01*
X12569301Y-13600722D02*
X12559777Y-13581674D01*
X12559777Y-13581674D02*
X12540730Y-13572150D01*
X12540730Y-13572150D02*
X12512158Y-13572150D01*
X12512158Y-13572150D02*
X12493110Y-13581674D01*
X12493110Y-13581674D02*
X12483587Y-13591198D01*
X12693110Y-13705484D02*
X12674063Y-13695960D01*
X12674063Y-13695960D02*
X12664539Y-13686436D01*
X12664539Y-13686436D02*
X12655015Y-13667388D01*
X12655015Y-13667388D02*
X12655015Y-13610246D01*
X12655015Y-13610246D02*
X12664539Y-13591198D01*
X12664539Y-13591198D02*
X12674063Y-13581674D01*
X12674063Y-13581674D02*
X12693110Y-13572150D01*
X12693110Y-13572150D02*
X12721682Y-13572150D01*
X12721682Y-13572150D02*
X12740730Y-13581674D01*
X12740730Y-13581674D02*
X12750253Y-13591198D01*
X12750253Y-13591198D02*
X12759777Y-13610246D01*
X12759777Y-13610246D02*
X12759777Y-13667388D01*
X12759777Y-13667388D02*
X12750253Y-13686436D01*
X12750253Y-13686436D02*
X12740730Y-13695960D01*
X12740730Y-13695960D02*
X12721682Y-13705484D01*
X12721682Y-13705484D02*
X12693110Y-13705484D01*
X12874063Y-13705484D02*
X12855015Y-13695960D01*
X12855015Y-13695960D02*
X12845491Y-13676912D01*
X12845491Y-13676912D02*
X12845491Y-13505484D01*
X13026444Y-13695960D02*
X13007396Y-13705484D01*
X13007396Y-13705484D02*
X12969301Y-13705484D01*
X12969301Y-13705484D02*
X12950253Y-13695960D01*
X12950253Y-13695960D02*
X12940730Y-13676912D01*
X12940730Y-13676912D02*
X12940730Y-13600722D01*
X12940730Y-13600722D02*
X12950253Y-13581674D01*
X12950253Y-13581674D02*
X12969301Y-13572150D01*
X12969301Y-13572150D02*
X13007396Y-13572150D01*
X13007396Y-13572150D02*
X13026444Y-13581674D01*
X13026444Y-13581674D02*
X13035968Y-13600722D01*
X13035968Y-13600722D02*
X13035968Y-13619769D01*
X13035968Y-13619769D02*
X12940730Y-13638817D01*
X13112158Y-13695960D02*
X13131206Y-13705484D01*
X13131206Y-13705484D02*
X13169301Y-13705484D01*
X13169301Y-13705484D02*
X13188349Y-13695960D01*
X13188349Y-13695960D02*
X13197872Y-13676912D01*
X13197872Y-13676912D02*
X13197872Y-13667388D01*
X13197872Y-13667388D02*
X13188349Y-13648341D01*
X13188349Y-13648341D02*
X13169301Y-13638817D01*
X13169301Y-13638817D02*
X13140730Y-13638817D01*
X13140730Y-13638817D02*
X13121682Y-13629293D01*
X13121682Y-13629293D02*
X13112158Y-13610246D01*
X13112158Y-13610246D02*
X13112158Y-13600722D01*
X13112158Y-13600722D02*
X13121682Y-13581674D01*
X13121682Y-13581674D02*
X13140730Y-13572150D01*
X13140730Y-13572150D02*
X13169301Y-13572150D01*
X13169301Y-13572150D02*
X13188349Y-13581674D01*
X13264539Y-13781674D02*
X13274063Y-13772150D01*
X13274063Y-13772150D02*
X13293111Y-13743579D01*
X13293111Y-13743579D02*
X13302634Y-13724531D01*
X13302634Y-13724531D02*
X13312158Y-13695960D01*
X13312158Y-13695960D02*
X13321682Y-13648341D01*
X13321682Y-13648341D02*
X13321682Y-13610246D01*
X13321682Y-13610246D02*
X13312158Y-13562627D01*
X13312158Y-13562627D02*
X13302634Y-13534055D01*
X13302634Y-13534055D02*
X13293111Y-13515008D01*
X13293111Y-13515008D02*
X13274063Y-13486436D01*
X13274063Y-13486436D02*
X13264539Y-13476912D01*
D11*
X8261500Y-13840500D02*
X8261500Y-13915500D01*
X8224000Y-13878000D02*
X8299000Y-13878000D01*
D10*
X8597872Y-13769484D02*
X8616920Y-13769484D01*
X8616920Y-13769484D02*
X8635967Y-13779008D01*
X8635967Y-13779008D02*
X8645491Y-13788531D01*
X8645491Y-13788531D02*
X8655015Y-13807579D01*
X8655015Y-13807579D02*
X8664539Y-13845674D01*
X8664539Y-13845674D02*
X8664539Y-13893293D01*
X8664539Y-13893293D02*
X8655015Y-13931388D01*
X8655015Y-13931388D02*
X8645491Y-13950436D01*
X8645491Y-13950436D02*
X8635967Y-13959960D01*
X8635967Y-13959960D02*
X8616920Y-13969484D01*
X8616920Y-13969484D02*
X8597872Y-13969484D01*
X8597872Y-13969484D02*
X8578824Y-13959960D01*
X8578824Y-13959960D02*
X8569301Y-13950436D01*
X8569301Y-13950436D02*
X8559777Y-13931388D01*
X8559777Y-13931388D02*
X8550253Y-13893293D01*
X8550253Y-13893293D02*
X8550253Y-13845674D01*
X8550253Y-13845674D02*
X8559777Y-13807579D01*
X8559777Y-13807579D02*
X8569301Y-13788531D01*
X8569301Y-13788531D02*
X8578824Y-13779008D01*
X8578824Y-13779008D02*
X8597872Y-13769484D01*
X8750253Y-13950436D02*
X8759777Y-13959960D01*
X8759777Y-13959960D02*
X8750253Y-13969484D01*
X8750253Y-13969484D02*
X8740729Y-13959960D01*
X8740729Y-13959960D02*
X8750253Y-13950436D01*
X8750253Y-13950436D02*
X8750253Y-13969484D01*
X8826444Y-13769484D02*
X8959777Y-13769484D01*
X8959777Y-13769484D02*
X8874063Y-13969484D01*
X9131205Y-13769484D02*
X9035967Y-13769484D01*
X9035967Y-13769484D02*
X9026444Y-13864722D01*
X9026444Y-13864722D02*
X9035967Y-13855198D01*
X9035967Y-13855198D02*
X9055015Y-13845674D01*
X9055015Y-13845674D02*
X9102634Y-13845674D01*
X9102634Y-13845674D02*
X9121682Y-13855198D01*
X9121682Y-13855198D02*
X9131205Y-13864722D01*
X9131205Y-13864722D02*
X9140729Y-13883769D01*
X9140729Y-13883769D02*
X9140729Y-13931388D01*
X9140729Y-13931388D02*
X9131205Y-13950436D01*
X9131205Y-13950436D02*
X9121682Y-13959960D01*
X9121682Y-13959960D02*
X9102634Y-13969484D01*
X9102634Y-13969484D02*
X9055015Y-13969484D01*
X9055015Y-13969484D02*
X9035967Y-13959960D01*
X9035967Y-13959960D02*
X9026444Y-13950436D01*
X9264539Y-13769484D02*
X9283586Y-13769484D01*
X9283586Y-13769484D02*
X9302634Y-13779008D01*
X9302634Y-13779008D02*
X9312158Y-13788531D01*
X9312158Y-13788531D02*
X9321682Y-13807579D01*
X9321682Y-13807579D02*
X9331205Y-13845674D01*
X9331205Y-13845674D02*
X9331205Y-13893293D01*
X9331205Y-13893293D02*
X9321682Y-13931388D01*
X9321682Y-13931388D02*
X9312158Y-13950436D01*
X9312158Y-13950436D02*
X9302634Y-13959960D01*
X9302634Y-13959960D02*
X9283586Y-13969484D01*
X9283586Y-13969484D02*
X9264539Y-13969484D01*
X9264539Y-13969484D02*
X9245491Y-13959960D01*
X9245491Y-13959960D02*
X9235967Y-13950436D01*
X9235967Y-13950436D02*
X9226444Y-13931388D01*
X9226444Y-13931388D02*
X9216920Y-13893293D01*
X9216920Y-13893293D02*
X9216920Y-13845674D01*
X9216920Y-13845674D02*
X9226444Y-13807579D01*
X9226444Y-13807579D02*
X9235967Y-13788531D01*
X9235967Y-13788531D02*
X9245491Y-13779008D01*
X9245491Y-13779008D02*
X9264539Y-13769484D01*
X9416920Y-13969484D02*
X9416920Y-13836150D01*
X9416920Y-13855198D02*
X9426444Y-13845674D01*
X9426444Y-13845674D02*
X9445491Y-13836150D01*
X9445491Y-13836150D02*
X9474063Y-13836150D01*
X9474063Y-13836150D02*
X9493110Y-13845674D01*
X9493110Y-13845674D02*
X9502634Y-13864722D01*
X9502634Y-13864722D02*
X9502634Y-13969484D01*
X9502634Y-13864722D02*
X9512158Y-13845674D01*
X9512158Y-13845674D02*
X9531205Y-13836150D01*
X9531205Y-13836150D02*
X9559777Y-13836150D01*
X9559777Y-13836150D02*
X9578825Y-13845674D01*
X9578825Y-13845674D02*
X9588348Y-13864722D01*
X9588348Y-13864722D02*
X9588348Y-13969484D01*
X9683586Y-13969484D02*
X9683586Y-13836150D01*
X9683586Y-13855198D02*
X9693110Y-13845674D01*
X9693110Y-13845674D02*
X9712158Y-13836150D01*
X9712158Y-13836150D02*
X9740729Y-13836150D01*
X9740729Y-13836150D02*
X9759777Y-13845674D01*
X9759777Y-13845674D02*
X9769301Y-13864722D01*
X9769301Y-13864722D02*
X9769301Y-13969484D01*
X9769301Y-13864722D02*
X9778825Y-13845674D01*
X9778825Y-13845674D02*
X9797872Y-13836150D01*
X9797872Y-13836150D02*
X9826444Y-13836150D01*
X9826444Y-13836150D02*
X9845491Y-13845674D01*
X9845491Y-13845674D02*
X9855015Y-13864722D01*
X9855015Y-13864722D02*
X9855015Y-13969484D01*
X10245491Y-13759960D02*
X10074063Y-14017103D01*
X10502634Y-13769484D02*
X10521682Y-13769484D01*
X10521682Y-13769484D02*
X10540729Y-13779008D01*
X10540729Y-13779008D02*
X10550253Y-13788531D01*
X10550253Y-13788531D02*
X10559777Y-13807579D01*
X10559777Y-13807579D02*
X10569301Y-13845674D01*
X10569301Y-13845674D02*
X10569301Y-13893293D01*
X10569301Y-13893293D02*
X10559777Y-13931388D01*
X10559777Y-13931388D02*
X10550253Y-13950436D01*
X10550253Y-13950436D02*
X10540729Y-13959960D01*
X10540729Y-13959960D02*
X10521682Y-13969484D01*
X10521682Y-13969484D02*
X10502634Y-13969484D01*
X10502634Y-13969484D02*
X10483587Y-13959960D01*
X10483587Y-13959960D02*
X10474063Y-13950436D01*
X10474063Y-13950436D02*
X10464539Y-13931388D01*
X10464539Y-13931388D02*
X10455015Y-13893293D01*
X10455015Y-13893293D02*
X10455015Y-13845674D01*
X10455015Y-13845674D02*
X10464539Y-13807579D01*
X10464539Y-13807579D02*
X10474063Y-13788531D01*
X10474063Y-13788531D02*
X10483587Y-13779008D01*
X10483587Y-13779008D02*
X10502634Y-13769484D01*
X10655015Y-13950436D02*
X10664539Y-13959960D01*
X10664539Y-13959960D02*
X10655015Y-13969484D01*
X10655015Y-13969484D02*
X10645491Y-13959960D01*
X10645491Y-13959960D02*
X10655015Y-13950436D01*
X10655015Y-13950436D02*
X10655015Y-13969484D01*
X10788348Y-13769484D02*
X10807396Y-13769484D01*
X10807396Y-13769484D02*
X10826444Y-13779008D01*
X10826444Y-13779008D02*
X10835968Y-13788531D01*
X10835968Y-13788531D02*
X10845491Y-13807579D01*
X10845491Y-13807579D02*
X10855015Y-13845674D01*
X10855015Y-13845674D02*
X10855015Y-13893293D01*
X10855015Y-13893293D02*
X10845491Y-13931388D01*
X10845491Y-13931388D02*
X10835968Y-13950436D01*
X10835968Y-13950436D02*
X10826444Y-13959960D01*
X10826444Y-13959960D02*
X10807396Y-13969484D01*
X10807396Y-13969484D02*
X10788348Y-13969484D01*
X10788348Y-13969484D02*
X10769301Y-13959960D01*
X10769301Y-13959960D02*
X10759777Y-13950436D01*
X10759777Y-13950436D02*
X10750253Y-13931388D01*
X10750253Y-13931388D02*
X10740729Y-13893293D01*
X10740729Y-13893293D02*
X10740729Y-13845674D01*
X10740729Y-13845674D02*
X10750253Y-13807579D01*
X10750253Y-13807579D02*
X10759777Y-13788531D01*
X10759777Y-13788531D02*
X10769301Y-13779008D01*
X10769301Y-13779008D02*
X10788348Y-13769484D01*
X10931206Y-13788531D02*
X10940729Y-13779008D01*
X10940729Y-13779008D02*
X10959777Y-13769484D01*
X10959777Y-13769484D02*
X11007396Y-13769484D01*
X11007396Y-13769484D02*
X11026444Y-13779008D01*
X11026444Y-13779008D02*
X11035968Y-13788531D01*
X11035968Y-13788531D02*
X11045491Y-13807579D01*
X11045491Y-13807579D02*
X11045491Y-13826627D01*
X11045491Y-13826627D02*
X11035968Y-13855198D01*
X11035968Y-13855198D02*
X10921682Y-13969484D01*
X10921682Y-13969484D02*
X11045491Y-13969484D01*
X11140729Y-13969484D02*
X11178825Y-13969484D01*
X11178825Y-13969484D02*
X11197872Y-13959960D01*
X11197872Y-13959960D02*
X11207396Y-13950436D01*
X11207396Y-13950436D02*
X11226444Y-13921865D01*
X11226444Y-13921865D02*
X11235967Y-13883769D01*
X11235967Y-13883769D02*
X11235967Y-13807579D01*
X11235967Y-13807579D02*
X11226444Y-13788531D01*
X11226444Y-13788531D02*
X11216920Y-13779008D01*
X11216920Y-13779008D02*
X11197872Y-13769484D01*
X11197872Y-13769484D02*
X11159777Y-13769484D01*
X11159777Y-13769484D02*
X11140729Y-13779008D01*
X11140729Y-13779008D02*
X11131206Y-13788531D01*
X11131206Y-13788531D02*
X11121682Y-13807579D01*
X11121682Y-13807579D02*
X11121682Y-13855198D01*
X11121682Y-13855198D02*
X11131206Y-13874246D01*
X11131206Y-13874246D02*
X11140729Y-13883769D01*
X11140729Y-13883769D02*
X11159777Y-13893293D01*
X11159777Y-13893293D02*
X11197872Y-13893293D01*
X11197872Y-13893293D02*
X11216920Y-13883769D01*
X11216920Y-13883769D02*
X11226444Y-13874246D01*
X11226444Y-13874246D02*
X11235967Y-13855198D01*
X11416920Y-13769484D02*
X11321682Y-13769484D01*
X11321682Y-13769484D02*
X11312158Y-13864722D01*
X11312158Y-13864722D02*
X11321682Y-13855198D01*
X11321682Y-13855198D02*
X11340729Y-13845674D01*
X11340729Y-13845674D02*
X11388348Y-13845674D01*
X11388348Y-13845674D02*
X11407396Y-13855198D01*
X11407396Y-13855198D02*
X11416920Y-13864722D01*
X11416920Y-13864722D02*
X11426444Y-13883769D01*
X11426444Y-13883769D02*
X11426444Y-13931388D01*
X11426444Y-13931388D02*
X11416920Y-13950436D01*
X11416920Y-13950436D02*
X11407396Y-13959960D01*
X11407396Y-13959960D02*
X11388348Y-13969484D01*
X11388348Y-13969484D02*
X11340729Y-13969484D01*
X11340729Y-13969484D02*
X11321682Y-13959960D01*
X11321682Y-13959960D02*
X11312158Y-13950436D01*
X11502634Y-13769484D02*
X11502634Y-13807579D01*
X11578825Y-13769484D02*
X11578825Y-13807579D01*
X11874063Y-14045674D02*
X11864539Y-14036150D01*
X11864539Y-14036150D02*
X11845491Y-14007579D01*
X11845491Y-14007579D02*
X11835968Y-13988531D01*
X11835968Y-13988531D02*
X11826444Y-13959960D01*
X11826444Y-13959960D02*
X11816920Y-13912341D01*
X11816920Y-13912341D02*
X11816920Y-13874246D01*
X11816920Y-13874246D02*
X11826444Y-13826627D01*
X11826444Y-13826627D02*
X11835968Y-13798055D01*
X11835968Y-13798055D02*
X11845491Y-13779008D01*
X11845491Y-13779008D02*
X11864539Y-13750436D01*
X11864539Y-13750436D02*
X11874063Y-13740912D01*
X11931206Y-13769484D02*
X12055015Y-13769484D01*
X12055015Y-13769484D02*
X11988348Y-13845674D01*
X11988348Y-13845674D02*
X12016920Y-13845674D01*
X12016920Y-13845674D02*
X12035968Y-13855198D01*
X12035968Y-13855198D02*
X12045491Y-13864722D01*
X12045491Y-13864722D02*
X12055015Y-13883769D01*
X12055015Y-13883769D02*
X12055015Y-13931388D01*
X12055015Y-13931388D02*
X12045491Y-13950436D01*
X12045491Y-13950436D02*
X12035968Y-13959960D01*
X12035968Y-13959960D02*
X12016920Y-13969484D01*
X12016920Y-13969484D02*
X11959777Y-13969484D01*
X11959777Y-13969484D02*
X11940729Y-13959960D01*
X11940729Y-13959960D02*
X11931206Y-13950436D01*
X12293110Y-13969484D02*
X12293110Y-13769484D01*
X12378825Y-13969484D02*
X12378825Y-13864722D01*
X12378825Y-13864722D02*
X12369301Y-13845674D01*
X12369301Y-13845674D02*
X12350253Y-13836150D01*
X12350253Y-13836150D02*
X12321682Y-13836150D01*
X12321682Y-13836150D02*
X12302634Y-13845674D01*
X12302634Y-13845674D02*
X12293110Y-13855198D01*
X12502634Y-13969484D02*
X12483587Y-13959960D01*
X12483587Y-13959960D02*
X12474063Y-13950436D01*
X12474063Y-13950436D02*
X12464539Y-13931388D01*
X12464539Y-13931388D02*
X12464539Y-13874246D01*
X12464539Y-13874246D02*
X12474063Y-13855198D01*
X12474063Y-13855198D02*
X12483587Y-13845674D01*
X12483587Y-13845674D02*
X12502634Y-13836150D01*
X12502634Y-13836150D02*
X12531206Y-13836150D01*
X12531206Y-13836150D02*
X12550253Y-13845674D01*
X12550253Y-13845674D02*
X12559777Y-13855198D01*
X12559777Y-13855198D02*
X12569301Y-13874246D01*
X12569301Y-13874246D02*
X12569301Y-13931388D01*
X12569301Y-13931388D02*
X12559777Y-13950436D01*
X12559777Y-13950436D02*
X12550253Y-13959960D01*
X12550253Y-13959960D02*
X12531206Y-13969484D01*
X12531206Y-13969484D02*
X12502634Y-13969484D01*
X12683587Y-13969484D02*
X12664539Y-13959960D01*
X12664539Y-13959960D02*
X12655015Y-13940912D01*
X12655015Y-13940912D02*
X12655015Y-13769484D01*
X12835968Y-13959960D02*
X12816920Y-13969484D01*
X12816920Y-13969484D02*
X12778825Y-13969484D01*
X12778825Y-13969484D02*
X12759777Y-13959960D01*
X12759777Y-13959960D02*
X12750253Y-13940912D01*
X12750253Y-13940912D02*
X12750253Y-13864722D01*
X12750253Y-13864722D02*
X12759777Y-13845674D01*
X12759777Y-13845674D02*
X12778825Y-13836150D01*
X12778825Y-13836150D02*
X12816920Y-13836150D01*
X12816920Y-13836150D02*
X12835968Y-13845674D01*
X12835968Y-13845674D02*
X12845491Y-13864722D01*
X12845491Y-13864722D02*
X12845491Y-13883769D01*
X12845491Y-13883769D02*
X12750253Y-13902817D01*
X12921682Y-13959960D02*
X12940730Y-13969484D01*
X12940730Y-13969484D02*
X12978825Y-13969484D01*
X12978825Y-13969484D02*
X12997872Y-13959960D01*
X12997872Y-13959960D02*
X13007396Y-13940912D01*
X13007396Y-13940912D02*
X13007396Y-13931388D01*
X13007396Y-13931388D02*
X12997872Y-13912341D01*
X12997872Y-13912341D02*
X12978825Y-13902817D01*
X12978825Y-13902817D02*
X12950253Y-13902817D01*
X12950253Y-13902817D02*
X12931206Y-13893293D01*
X12931206Y-13893293D02*
X12921682Y-13874246D01*
X12921682Y-13874246D02*
X12921682Y-13864722D01*
X12921682Y-13864722D02*
X12931206Y-13845674D01*
X12931206Y-13845674D02*
X12950253Y-13836150D01*
X12950253Y-13836150D02*
X12978825Y-13836150D01*
X12978825Y-13836150D02*
X12997872Y-13845674D01*
X13074063Y-14045674D02*
X13083587Y-14036150D01*
X13083587Y-14036150D02*
X13102634Y-14007579D01*
X13102634Y-14007579D02*
X13112158Y-13988531D01*
X13112158Y-13988531D02*
X13121682Y-13959960D01*
X13121682Y-13959960D02*
X13131206Y-13912341D01*
X13131206Y-13912341D02*
X13131206Y-13874246D01*
X13131206Y-13874246D02*
X13121682Y-13826627D01*
X13121682Y-13826627D02*
X13112158Y-13798055D01*
X13112158Y-13798055D02*
X13102634Y-13779008D01*
X13102634Y-13779008D02*
X13083587Y-13750436D01*
X13083587Y-13750436D02*
X13074063Y-13740912D01*
D11*
X8287841Y-14168941D02*
X8287841Y-14115059D01*
X8233959Y-14115059D01*
X8233959Y-14168941D01*
X8287841Y-14168941D01*
D10*
X8597872Y-14033484D02*
X8616920Y-14033484D01*
X8616920Y-14033484D02*
X8635967Y-14043008D01*
X8635967Y-14043008D02*
X8645491Y-14052531D01*
X8645491Y-14052531D02*
X8655015Y-14071579D01*
X8655015Y-14071579D02*
X8664539Y-14109674D01*
X8664539Y-14109674D02*
X8664539Y-14157293D01*
X8664539Y-14157293D02*
X8655015Y-14195388D01*
X8655015Y-14195388D02*
X8645491Y-14214436D01*
X8645491Y-14214436D02*
X8635967Y-14223960D01*
X8635967Y-14223960D02*
X8616920Y-14233484D01*
X8616920Y-14233484D02*
X8597872Y-14233484D01*
X8597872Y-14233484D02*
X8578824Y-14223960D01*
X8578824Y-14223960D02*
X8569301Y-14214436D01*
X8569301Y-14214436D02*
X8559777Y-14195388D01*
X8559777Y-14195388D02*
X8550253Y-14157293D01*
X8550253Y-14157293D02*
X8550253Y-14109674D01*
X8550253Y-14109674D02*
X8559777Y-14071579D01*
X8559777Y-14071579D02*
X8569301Y-14052531D01*
X8569301Y-14052531D02*
X8578824Y-14043008D01*
X8578824Y-14043008D02*
X8597872Y-14033484D01*
X8750253Y-14214436D02*
X8759777Y-14223960D01*
X8759777Y-14223960D02*
X8750253Y-14233484D01*
X8750253Y-14233484D02*
X8740729Y-14223960D01*
X8740729Y-14223960D02*
X8750253Y-14214436D01*
X8750253Y-14214436D02*
X8750253Y-14233484D01*
X8826444Y-14033484D02*
X8959777Y-14033484D01*
X8959777Y-14033484D02*
X8874063Y-14233484D01*
X9121682Y-14033484D02*
X9083586Y-14033484D01*
X9083586Y-14033484D02*
X9064539Y-14043008D01*
X9064539Y-14043008D02*
X9055015Y-14052531D01*
X9055015Y-14052531D02*
X9035967Y-14081103D01*
X9035967Y-14081103D02*
X9026444Y-14119198D01*
X9026444Y-14119198D02*
X9026444Y-14195388D01*
X9026444Y-14195388D02*
X9035967Y-14214436D01*
X9035967Y-14214436D02*
X9045491Y-14223960D01*
X9045491Y-14223960D02*
X9064539Y-14233484D01*
X9064539Y-14233484D02*
X9102634Y-14233484D01*
X9102634Y-14233484D02*
X9121682Y-14223960D01*
X9121682Y-14223960D02*
X9131205Y-14214436D01*
X9131205Y-14214436D02*
X9140729Y-14195388D01*
X9140729Y-14195388D02*
X9140729Y-14147769D01*
X9140729Y-14147769D02*
X9131205Y-14128722D01*
X9131205Y-14128722D02*
X9121682Y-14119198D01*
X9121682Y-14119198D02*
X9102634Y-14109674D01*
X9102634Y-14109674D02*
X9064539Y-14109674D01*
X9064539Y-14109674D02*
X9045491Y-14119198D01*
X9045491Y-14119198D02*
X9035967Y-14128722D01*
X9035967Y-14128722D02*
X9026444Y-14147769D01*
X9216920Y-14052531D02*
X9226444Y-14043008D01*
X9226444Y-14043008D02*
X9245491Y-14033484D01*
X9245491Y-14033484D02*
X9293110Y-14033484D01*
X9293110Y-14033484D02*
X9312158Y-14043008D01*
X9312158Y-14043008D02*
X9321682Y-14052531D01*
X9321682Y-14052531D02*
X9331205Y-14071579D01*
X9331205Y-14071579D02*
X9331205Y-14090627D01*
X9331205Y-14090627D02*
X9321682Y-14119198D01*
X9321682Y-14119198D02*
X9207396Y-14233484D01*
X9207396Y-14233484D02*
X9331205Y-14233484D01*
X9416920Y-14233484D02*
X9416920Y-14100150D01*
X9416920Y-14119198D02*
X9426444Y-14109674D01*
X9426444Y-14109674D02*
X9445491Y-14100150D01*
X9445491Y-14100150D02*
X9474063Y-14100150D01*
X9474063Y-14100150D02*
X9493110Y-14109674D01*
X9493110Y-14109674D02*
X9502634Y-14128722D01*
X9502634Y-14128722D02*
X9502634Y-14233484D01*
X9502634Y-14128722D02*
X9512158Y-14109674D01*
X9512158Y-14109674D02*
X9531205Y-14100150D01*
X9531205Y-14100150D02*
X9559777Y-14100150D01*
X9559777Y-14100150D02*
X9578825Y-14109674D01*
X9578825Y-14109674D02*
X9588348Y-14128722D01*
X9588348Y-14128722D02*
X9588348Y-14233484D01*
X9683586Y-14233484D02*
X9683586Y-14100150D01*
X9683586Y-14119198D02*
X9693110Y-14109674D01*
X9693110Y-14109674D02*
X9712158Y-14100150D01*
X9712158Y-14100150D02*
X9740729Y-14100150D01*
X9740729Y-14100150D02*
X9759777Y-14109674D01*
X9759777Y-14109674D02*
X9769301Y-14128722D01*
X9769301Y-14128722D02*
X9769301Y-14233484D01*
X9769301Y-14128722D02*
X9778825Y-14109674D01*
X9778825Y-14109674D02*
X9797872Y-14100150D01*
X9797872Y-14100150D02*
X9826444Y-14100150D01*
X9826444Y-14100150D02*
X9845491Y-14109674D01*
X9845491Y-14109674D02*
X9855015Y-14128722D01*
X9855015Y-14128722D02*
X9855015Y-14233484D01*
X10245491Y-14023960D02*
X10074063Y-14281103D01*
X10502634Y-14033484D02*
X10521682Y-14033484D01*
X10521682Y-14033484D02*
X10540729Y-14043008D01*
X10540729Y-14043008D02*
X10550253Y-14052531D01*
X10550253Y-14052531D02*
X10559777Y-14071579D01*
X10559777Y-14071579D02*
X10569301Y-14109674D01*
X10569301Y-14109674D02*
X10569301Y-14157293D01*
X10569301Y-14157293D02*
X10559777Y-14195388D01*
X10559777Y-14195388D02*
X10550253Y-14214436D01*
X10550253Y-14214436D02*
X10540729Y-14223960D01*
X10540729Y-14223960D02*
X10521682Y-14233484D01*
X10521682Y-14233484D02*
X10502634Y-14233484D01*
X10502634Y-14233484D02*
X10483587Y-14223960D01*
X10483587Y-14223960D02*
X10474063Y-14214436D01*
X10474063Y-14214436D02*
X10464539Y-14195388D01*
X10464539Y-14195388D02*
X10455015Y-14157293D01*
X10455015Y-14157293D02*
X10455015Y-14109674D01*
X10455015Y-14109674D02*
X10464539Y-14071579D01*
X10464539Y-14071579D02*
X10474063Y-14052531D01*
X10474063Y-14052531D02*
X10483587Y-14043008D01*
X10483587Y-14043008D02*
X10502634Y-14033484D01*
X10655015Y-14214436D02*
X10664539Y-14223960D01*
X10664539Y-14223960D02*
X10655015Y-14233484D01*
X10655015Y-14233484D02*
X10645491Y-14223960D01*
X10645491Y-14223960D02*
X10655015Y-14214436D01*
X10655015Y-14214436D02*
X10655015Y-14233484D01*
X10788348Y-14033484D02*
X10807396Y-14033484D01*
X10807396Y-14033484D02*
X10826444Y-14043008D01*
X10826444Y-14043008D02*
X10835968Y-14052531D01*
X10835968Y-14052531D02*
X10845491Y-14071579D01*
X10845491Y-14071579D02*
X10855015Y-14109674D01*
X10855015Y-14109674D02*
X10855015Y-14157293D01*
X10855015Y-14157293D02*
X10845491Y-14195388D01*
X10845491Y-14195388D02*
X10835968Y-14214436D01*
X10835968Y-14214436D02*
X10826444Y-14223960D01*
X10826444Y-14223960D02*
X10807396Y-14233484D01*
X10807396Y-14233484D02*
X10788348Y-14233484D01*
X10788348Y-14233484D02*
X10769301Y-14223960D01*
X10769301Y-14223960D02*
X10759777Y-14214436D01*
X10759777Y-14214436D02*
X10750253Y-14195388D01*
X10750253Y-14195388D02*
X10740729Y-14157293D01*
X10740729Y-14157293D02*
X10740729Y-14109674D01*
X10740729Y-14109674D02*
X10750253Y-14071579D01*
X10750253Y-14071579D02*
X10759777Y-14052531D01*
X10759777Y-14052531D02*
X10769301Y-14043008D01*
X10769301Y-14043008D02*
X10788348Y-14033484D01*
X10921682Y-14033484D02*
X11045491Y-14033484D01*
X11045491Y-14033484D02*
X10978825Y-14109674D01*
X10978825Y-14109674D02*
X11007396Y-14109674D01*
X11007396Y-14109674D02*
X11026444Y-14119198D01*
X11026444Y-14119198D02*
X11035968Y-14128722D01*
X11035968Y-14128722D02*
X11045491Y-14147769D01*
X11045491Y-14147769D02*
X11045491Y-14195388D01*
X11045491Y-14195388D02*
X11035968Y-14214436D01*
X11035968Y-14214436D02*
X11026444Y-14223960D01*
X11026444Y-14223960D02*
X11007396Y-14233484D01*
X11007396Y-14233484D02*
X10950253Y-14233484D01*
X10950253Y-14233484D02*
X10931206Y-14223960D01*
X10931206Y-14223960D02*
X10921682Y-14214436D01*
X11169301Y-14033484D02*
X11188348Y-14033484D01*
X11188348Y-14033484D02*
X11207396Y-14043008D01*
X11207396Y-14043008D02*
X11216920Y-14052531D01*
X11216920Y-14052531D02*
X11226444Y-14071579D01*
X11226444Y-14071579D02*
X11235967Y-14109674D01*
X11235967Y-14109674D02*
X11235967Y-14157293D01*
X11235967Y-14157293D02*
X11226444Y-14195388D01*
X11226444Y-14195388D02*
X11216920Y-14214436D01*
X11216920Y-14214436D02*
X11207396Y-14223960D01*
X11207396Y-14223960D02*
X11188348Y-14233484D01*
X11188348Y-14233484D02*
X11169301Y-14233484D01*
X11169301Y-14233484D02*
X11150253Y-14223960D01*
X11150253Y-14223960D02*
X11140729Y-14214436D01*
X11140729Y-14214436D02*
X11131206Y-14195388D01*
X11131206Y-14195388D02*
X11121682Y-14157293D01*
X11121682Y-14157293D02*
X11121682Y-14109674D01*
X11121682Y-14109674D02*
X11131206Y-14071579D01*
X11131206Y-14071579D02*
X11140729Y-14052531D01*
X11140729Y-14052531D02*
X11150253Y-14043008D01*
X11150253Y-14043008D02*
X11169301Y-14033484D01*
X11359777Y-14033484D02*
X11378825Y-14033484D01*
X11378825Y-14033484D02*
X11397872Y-14043008D01*
X11397872Y-14043008D02*
X11407396Y-14052531D01*
X11407396Y-14052531D02*
X11416920Y-14071579D01*
X11416920Y-14071579D02*
X11426444Y-14109674D01*
X11426444Y-14109674D02*
X11426444Y-14157293D01*
X11426444Y-14157293D02*
X11416920Y-14195388D01*
X11416920Y-14195388D02*
X11407396Y-14214436D01*
X11407396Y-14214436D02*
X11397872Y-14223960D01*
X11397872Y-14223960D02*
X11378825Y-14233484D01*
X11378825Y-14233484D02*
X11359777Y-14233484D01*
X11359777Y-14233484D02*
X11340729Y-14223960D01*
X11340729Y-14223960D02*
X11331206Y-14214436D01*
X11331206Y-14214436D02*
X11321682Y-14195388D01*
X11321682Y-14195388D02*
X11312158Y-14157293D01*
X11312158Y-14157293D02*
X11312158Y-14109674D01*
X11312158Y-14109674D02*
X11321682Y-14071579D01*
X11321682Y-14071579D02*
X11331206Y-14052531D01*
X11331206Y-14052531D02*
X11340729Y-14043008D01*
X11340729Y-14043008D02*
X11359777Y-14033484D01*
X11502634Y-14033484D02*
X11502634Y-14071579D01*
X11578825Y-14033484D02*
X11578825Y-14071579D01*
X11874063Y-14309674D02*
X11864539Y-14300150D01*
X11864539Y-14300150D02*
X11845491Y-14271579D01*
X11845491Y-14271579D02*
X11835968Y-14252531D01*
X11835968Y-14252531D02*
X11826444Y-14223960D01*
X11826444Y-14223960D02*
X11816920Y-14176341D01*
X11816920Y-14176341D02*
X11816920Y-14138246D01*
X11816920Y-14138246D02*
X11826444Y-14090627D01*
X11826444Y-14090627D02*
X11835968Y-14062055D01*
X11835968Y-14062055D02*
X11845491Y-14043008D01*
X11845491Y-14043008D02*
X11864539Y-14014436D01*
X11864539Y-14014436D02*
X11874063Y-14004912D01*
X11978825Y-14119198D02*
X11959777Y-14109674D01*
X11959777Y-14109674D02*
X11950253Y-14100150D01*
X11950253Y-14100150D02*
X11940729Y-14081103D01*
X11940729Y-14081103D02*
X11940729Y-14071579D01*
X11940729Y-14071579D02*
X11950253Y-14052531D01*
X11950253Y-14052531D02*
X11959777Y-14043008D01*
X11959777Y-14043008D02*
X11978825Y-14033484D01*
X11978825Y-14033484D02*
X12016920Y-14033484D01*
X12016920Y-14033484D02*
X12035968Y-14043008D01*
X12035968Y-14043008D02*
X12045491Y-14052531D01*
X12045491Y-14052531D02*
X12055015Y-14071579D01*
X12055015Y-14071579D02*
X12055015Y-14081103D01*
X12055015Y-14081103D02*
X12045491Y-14100150D01*
X12045491Y-14100150D02*
X12035968Y-14109674D01*
X12035968Y-14109674D02*
X12016920Y-14119198D01*
X12016920Y-14119198D02*
X11978825Y-14119198D01*
X11978825Y-14119198D02*
X11959777Y-14128722D01*
X11959777Y-14128722D02*
X11950253Y-14138246D01*
X11950253Y-14138246D02*
X11940729Y-14157293D01*
X11940729Y-14157293D02*
X11940729Y-14195388D01*
X11940729Y-14195388D02*
X11950253Y-14214436D01*
X11950253Y-14214436D02*
X11959777Y-14223960D01*
X11959777Y-14223960D02*
X11978825Y-14233484D01*
X11978825Y-14233484D02*
X12016920Y-14233484D01*
X12016920Y-14233484D02*
X12035968Y-14223960D01*
X12035968Y-14223960D02*
X12045491Y-14214436D01*
X12045491Y-14214436D02*
X12055015Y-14195388D01*
X12055015Y-14195388D02*
X12055015Y-14157293D01*
X12055015Y-14157293D02*
X12045491Y-14138246D01*
X12045491Y-14138246D02*
X12035968Y-14128722D01*
X12035968Y-14128722D02*
X12016920Y-14119198D01*
X12293110Y-14233484D02*
X12293110Y-14033484D01*
X12378825Y-14233484D02*
X12378825Y-14128722D01*
X12378825Y-14128722D02*
X12369301Y-14109674D01*
X12369301Y-14109674D02*
X12350253Y-14100150D01*
X12350253Y-14100150D02*
X12321682Y-14100150D01*
X12321682Y-14100150D02*
X12302634Y-14109674D01*
X12302634Y-14109674D02*
X12293110Y-14119198D01*
X12502634Y-14233484D02*
X12483587Y-14223960D01*
X12483587Y-14223960D02*
X12474063Y-14214436D01*
X12474063Y-14214436D02*
X12464539Y-14195388D01*
X12464539Y-14195388D02*
X12464539Y-14138246D01*
X12464539Y-14138246D02*
X12474063Y-14119198D01*
X12474063Y-14119198D02*
X12483587Y-14109674D01*
X12483587Y-14109674D02*
X12502634Y-14100150D01*
X12502634Y-14100150D02*
X12531206Y-14100150D01*
X12531206Y-14100150D02*
X12550253Y-14109674D01*
X12550253Y-14109674D02*
X12559777Y-14119198D01*
X12559777Y-14119198D02*
X12569301Y-14138246D01*
X12569301Y-14138246D02*
X12569301Y-14195388D01*
X12569301Y-14195388D02*
X12559777Y-14214436D01*
X12559777Y-14214436D02*
X12550253Y-14223960D01*
X12550253Y-14223960D02*
X12531206Y-14233484D01*
X12531206Y-14233484D02*
X12502634Y-14233484D01*
X12683587Y-14233484D02*
X12664539Y-14223960D01*
X12664539Y-14223960D02*
X12655015Y-14204912D01*
X12655015Y-14204912D02*
X12655015Y-14033484D01*
X12835968Y-14223960D02*
X12816920Y-14233484D01*
X12816920Y-14233484D02*
X12778825Y-14233484D01*
X12778825Y-14233484D02*
X12759777Y-14223960D01*
X12759777Y-14223960D02*
X12750253Y-14204912D01*
X12750253Y-14204912D02*
X12750253Y-14128722D01*
X12750253Y-14128722D02*
X12759777Y-14109674D01*
X12759777Y-14109674D02*
X12778825Y-14100150D01*
X12778825Y-14100150D02*
X12816920Y-14100150D01*
X12816920Y-14100150D02*
X12835968Y-14109674D01*
X12835968Y-14109674D02*
X12845491Y-14128722D01*
X12845491Y-14128722D02*
X12845491Y-14147769D01*
X12845491Y-14147769D02*
X12750253Y-14166817D01*
X12921682Y-14223960D02*
X12940730Y-14233484D01*
X12940730Y-14233484D02*
X12978825Y-14233484D01*
X12978825Y-14233484D02*
X12997872Y-14223960D01*
X12997872Y-14223960D02*
X13007396Y-14204912D01*
X13007396Y-14204912D02*
X13007396Y-14195388D01*
X13007396Y-14195388D02*
X12997872Y-14176341D01*
X12997872Y-14176341D02*
X12978825Y-14166817D01*
X12978825Y-14166817D02*
X12950253Y-14166817D01*
X12950253Y-14166817D02*
X12931206Y-14157293D01*
X12931206Y-14157293D02*
X12921682Y-14138246D01*
X12921682Y-14138246D02*
X12921682Y-14128722D01*
X12921682Y-14128722D02*
X12931206Y-14109674D01*
X12931206Y-14109674D02*
X12950253Y-14100150D01*
X12950253Y-14100150D02*
X12978825Y-14100150D01*
X12978825Y-14100150D02*
X12997872Y-14109674D01*
X13074063Y-14309674D02*
X13083587Y-14300150D01*
X13083587Y-14300150D02*
X13102634Y-14271579D01*
X13102634Y-14271579D02*
X13112158Y-14252531D01*
X13112158Y-14252531D02*
X13121682Y-14223960D01*
X13121682Y-14223960D02*
X13131206Y-14176341D01*
X13131206Y-14176341D02*
X13131206Y-14138246D01*
X13131206Y-14138246D02*
X13121682Y-14090627D01*
X13121682Y-14090627D02*
X13112158Y-14062055D01*
X13112158Y-14062055D02*
X13102634Y-14043008D01*
X13102634Y-14043008D02*
X13083587Y-14014436D01*
X13083587Y-14014436D02*
X13074063Y-14004912D01*
D11*
X8259000Y-14446000D02*
X8299000Y-14406000D01*
X8259000Y-14366000D01*
X8219000Y-14406000D01*
X8259000Y-14446000D01*
D10*
X8597872Y-14297484D02*
X8616920Y-14297484D01*
X8616920Y-14297484D02*
X8635967Y-14307008D01*
X8635967Y-14307008D02*
X8645491Y-14316531D01*
X8645491Y-14316531D02*
X8655015Y-14335579D01*
X8655015Y-14335579D02*
X8664539Y-14373674D01*
X8664539Y-14373674D02*
X8664539Y-14421293D01*
X8664539Y-14421293D02*
X8655015Y-14459388D01*
X8655015Y-14459388D02*
X8645491Y-14478436D01*
X8645491Y-14478436D02*
X8635967Y-14487960D01*
X8635967Y-14487960D02*
X8616920Y-14497484D01*
X8616920Y-14497484D02*
X8597872Y-14497484D01*
X8597872Y-14497484D02*
X8578824Y-14487960D01*
X8578824Y-14487960D02*
X8569301Y-14478436D01*
X8569301Y-14478436D02*
X8559777Y-14459388D01*
X8559777Y-14459388D02*
X8550253Y-14421293D01*
X8550253Y-14421293D02*
X8550253Y-14373674D01*
X8550253Y-14373674D02*
X8559777Y-14335579D01*
X8559777Y-14335579D02*
X8569301Y-14316531D01*
X8569301Y-14316531D02*
X8578824Y-14307008D01*
X8578824Y-14307008D02*
X8597872Y-14297484D01*
X8750253Y-14478436D02*
X8759777Y-14487960D01*
X8759777Y-14487960D02*
X8750253Y-14497484D01*
X8750253Y-14497484D02*
X8740729Y-14487960D01*
X8740729Y-14487960D02*
X8750253Y-14478436D01*
X8750253Y-14478436D02*
X8750253Y-14497484D01*
X8874063Y-14383198D02*
X8855015Y-14373674D01*
X8855015Y-14373674D02*
X8845491Y-14364150D01*
X8845491Y-14364150D02*
X8835967Y-14345103D01*
X8835967Y-14345103D02*
X8835967Y-14335579D01*
X8835967Y-14335579D02*
X8845491Y-14316531D01*
X8845491Y-14316531D02*
X8855015Y-14307008D01*
X8855015Y-14307008D02*
X8874063Y-14297484D01*
X8874063Y-14297484D02*
X8912158Y-14297484D01*
X8912158Y-14297484D02*
X8931205Y-14307008D01*
X8931205Y-14307008D02*
X8940729Y-14316531D01*
X8940729Y-14316531D02*
X8950253Y-14335579D01*
X8950253Y-14335579D02*
X8950253Y-14345103D01*
X8950253Y-14345103D02*
X8940729Y-14364150D01*
X8940729Y-14364150D02*
X8931205Y-14373674D01*
X8931205Y-14373674D02*
X8912158Y-14383198D01*
X8912158Y-14383198D02*
X8874063Y-14383198D01*
X8874063Y-14383198D02*
X8855015Y-14392722D01*
X8855015Y-14392722D02*
X8845491Y-14402246D01*
X8845491Y-14402246D02*
X8835967Y-14421293D01*
X8835967Y-14421293D02*
X8835967Y-14459388D01*
X8835967Y-14459388D02*
X8845491Y-14478436D01*
X8845491Y-14478436D02*
X8855015Y-14487960D01*
X8855015Y-14487960D02*
X8874063Y-14497484D01*
X8874063Y-14497484D02*
X8912158Y-14497484D01*
X8912158Y-14497484D02*
X8931205Y-14487960D01*
X8931205Y-14487960D02*
X8940729Y-14478436D01*
X8940729Y-14478436D02*
X8950253Y-14459388D01*
X8950253Y-14459388D02*
X8950253Y-14421293D01*
X8950253Y-14421293D02*
X8940729Y-14402246D01*
X8940729Y-14402246D02*
X8931205Y-14392722D01*
X8931205Y-14392722D02*
X8912158Y-14383198D01*
X9074063Y-14297484D02*
X9093110Y-14297484D01*
X9093110Y-14297484D02*
X9112158Y-14307008D01*
X9112158Y-14307008D02*
X9121682Y-14316531D01*
X9121682Y-14316531D02*
X9131205Y-14335579D01*
X9131205Y-14335579D02*
X9140729Y-14373674D01*
X9140729Y-14373674D02*
X9140729Y-14421293D01*
X9140729Y-14421293D02*
X9131205Y-14459388D01*
X9131205Y-14459388D02*
X9121682Y-14478436D01*
X9121682Y-14478436D02*
X9112158Y-14487960D01*
X9112158Y-14487960D02*
X9093110Y-14497484D01*
X9093110Y-14497484D02*
X9074063Y-14497484D01*
X9074063Y-14497484D02*
X9055015Y-14487960D01*
X9055015Y-14487960D02*
X9045491Y-14478436D01*
X9045491Y-14478436D02*
X9035967Y-14459388D01*
X9035967Y-14459388D02*
X9026444Y-14421293D01*
X9026444Y-14421293D02*
X9026444Y-14373674D01*
X9026444Y-14373674D02*
X9035967Y-14335579D01*
X9035967Y-14335579D02*
X9045491Y-14316531D01*
X9045491Y-14316531D02*
X9055015Y-14307008D01*
X9055015Y-14307008D02*
X9074063Y-14297484D01*
X9264539Y-14297484D02*
X9283586Y-14297484D01*
X9283586Y-14297484D02*
X9302634Y-14307008D01*
X9302634Y-14307008D02*
X9312158Y-14316531D01*
X9312158Y-14316531D02*
X9321682Y-14335579D01*
X9321682Y-14335579D02*
X9331205Y-14373674D01*
X9331205Y-14373674D02*
X9331205Y-14421293D01*
X9331205Y-14421293D02*
X9321682Y-14459388D01*
X9321682Y-14459388D02*
X9312158Y-14478436D01*
X9312158Y-14478436D02*
X9302634Y-14487960D01*
X9302634Y-14487960D02*
X9283586Y-14497484D01*
X9283586Y-14497484D02*
X9264539Y-14497484D01*
X9264539Y-14497484D02*
X9245491Y-14487960D01*
X9245491Y-14487960D02*
X9235967Y-14478436D01*
X9235967Y-14478436D02*
X9226444Y-14459388D01*
X9226444Y-14459388D02*
X9216920Y-14421293D01*
X9216920Y-14421293D02*
X9216920Y-14373674D01*
X9216920Y-14373674D02*
X9226444Y-14335579D01*
X9226444Y-14335579D02*
X9235967Y-14316531D01*
X9235967Y-14316531D02*
X9245491Y-14307008D01*
X9245491Y-14307008D02*
X9264539Y-14297484D01*
X9416920Y-14497484D02*
X9416920Y-14364150D01*
X9416920Y-14383198D02*
X9426444Y-14373674D01*
X9426444Y-14373674D02*
X9445491Y-14364150D01*
X9445491Y-14364150D02*
X9474063Y-14364150D01*
X9474063Y-14364150D02*
X9493110Y-14373674D01*
X9493110Y-14373674D02*
X9502634Y-14392722D01*
X9502634Y-14392722D02*
X9502634Y-14497484D01*
X9502634Y-14392722D02*
X9512158Y-14373674D01*
X9512158Y-14373674D02*
X9531205Y-14364150D01*
X9531205Y-14364150D02*
X9559777Y-14364150D01*
X9559777Y-14364150D02*
X9578825Y-14373674D01*
X9578825Y-14373674D02*
X9588348Y-14392722D01*
X9588348Y-14392722D02*
X9588348Y-14497484D01*
X9683586Y-14497484D02*
X9683586Y-14364150D01*
X9683586Y-14383198D02*
X9693110Y-14373674D01*
X9693110Y-14373674D02*
X9712158Y-14364150D01*
X9712158Y-14364150D02*
X9740729Y-14364150D01*
X9740729Y-14364150D02*
X9759777Y-14373674D01*
X9759777Y-14373674D02*
X9769301Y-14392722D01*
X9769301Y-14392722D02*
X9769301Y-14497484D01*
X9769301Y-14392722D02*
X9778825Y-14373674D01*
X9778825Y-14373674D02*
X9797872Y-14364150D01*
X9797872Y-14364150D02*
X9826444Y-14364150D01*
X9826444Y-14364150D02*
X9845491Y-14373674D01*
X9845491Y-14373674D02*
X9855015Y-14392722D01*
X9855015Y-14392722D02*
X9855015Y-14497484D01*
X10245491Y-14287960D02*
X10074063Y-14545103D01*
X10502634Y-14297484D02*
X10521682Y-14297484D01*
X10521682Y-14297484D02*
X10540729Y-14307008D01*
X10540729Y-14307008D02*
X10550253Y-14316531D01*
X10550253Y-14316531D02*
X10559777Y-14335579D01*
X10559777Y-14335579D02*
X10569301Y-14373674D01*
X10569301Y-14373674D02*
X10569301Y-14421293D01*
X10569301Y-14421293D02*
X10559777Y-14459388D01*
X10559777Y-14459388D02*
X10550253Y-14478436D01*
X10550253Y-14478436D02*
X10540729Y-14487960D01*
X10540729Y-14487960D02*
X10521682Y-14497484D01*
X10521682Y-14497484D02*
X10502634Y-14497484D01*
X10502634Y-14497484D02*
X10483587Y-14487960D01*
X10483587Y-14487960D02*
X10474063Y-14478436D01*
X10474063Y-14478436D02*
X10464539Y-14459388D01*
X10464539Y-14459388D02*
X10455015Y-14421293D01*
X10455015Y-14421293D02*
X10455015Y-14373674D01*
X10455015Y-14373674D02*
X10464539Y-14335579D01*
X10464539Y-14335579D02*
X10474063Y-14316531D01*
X10474063Y-14316531D02*
X10483587Y-14307008D01*
X10483587Y-14307008D02*
X10502634Y-14297484D01*
X10655015Y-14478436D02*
X10664539Y-14487960D01*
X10664539Y-14487960D02*
X10655015Y-14497484D01*
X10655015Y-14497484D02*
X10645491Y-14487960D01*
X10645491Y-14487960D02*
X10655015Y-14478436D01*
X10655015Y-14478436D02*
X10655015Y-14497484D01*
X10788348Y-14297484D02*
X10807396Y-14297484D01*
X10807396Y-14297484D02*
X10826444Y-14307008D01*
X10826444Y-14307008D02*
X10835968Y-14316531D01*
X10835968Y-14316531D02*
X10845491Y-14335579D01*
X10845491Y-14335579D02*
X10855015Y-14373674D01*
X10855015Y-14373674D02*
X10855015Y-14421293D01*
X10855015Y-14421293D02*
X10845491Y-14459388D01*
X10845491Y-14459388D02*
X10835968Y-14478436D01*
X10835968Y-14478436D02*
X10826444Y-14487960D01*
X10826444Y-14487960D02*
X10807396Y-14497484D01*
X10807396Y-14497484D02*
X10788348Y-14497484D01*
X10788348Y-14497484D02*
X10769301Y-14487960D01*
X10769301Y-14487960D02*
X10759777Y-14478436D01*
X10759777Y-14478436D02*
X10750253Y-14459388D01*
X10750253Y-14459388D02*
X10740729Y-14421293D01*
X10740729Y-14421293D02*
X10740729Y-14373674D01*
X10740729Y-14373674D02*
X10750253Y-14335579D01*
X10750253Y-14335579D02*
X10759777Y-14316531D01*
X10759777Y-14316531D02*
X10769301Y-14307008D01*
X10769301Y-14307008D02*
X10788348Y-14297484D01*
X10921682Y-14297484D02*
X11045491Y-14297484D01*
X11045491Y-14297484D02*
X10978825Y-14373674D01*
X10978825Y-14373674D02*
X11007396Y-14373674D01*
X11007396Y-14373674D02*
X11026444Y-14383198D01*
X11026444Y-14383198D02*
X11035968Y-14392722D01*
X11035968Y-14392722D02*
X11045491Y-14411769D01*
X11045491Y-14411769D02*
X11045491Y-14459388D01*
X11045491Y-14459388D02*
X11035968Y-14478436D01*
X11035968Y-14478436D02*
X11026444Y-14487960D01*
X11026444Y-14487960D02*
X11007396Y-14497484D01*
X11007396Y-14497484D02*
X10950253Y-14497484D01*
X10950253Y-14497484D02*
X10931206Y-14487960D01*
X10931206Y-14487960D02*
X10921682Y-14478436D01*
X11235967Y-14497484D02*
X11121682Y-14497484D01*
X11178825Y-14497484D02*
X11178825Y-14297484D01*
X11178825Y-14297484D02*
X11159777Y-14326055D01*
X11159777Y-14326055D02*
X11140729Y-14345103D01*
X11140729Y-14345103D02*
X11121682Y-14354627D01*
X11416920Y-14297484D02*
X11321682Y-14297484D01*
X11321682Y-14297484D02*
X11312158Y-14392722D01*
X11312158Y-14392722D02*
X11321682Y-14383198D01*
X11321682Y-14383198D02*
X11340729Y-14373674D01*
X11340729Y-14373674D02*
X11388348Y-14373674D01*
X11388348Y-14373674D02*
X11407396Y-14383198D01*
X11407396Y-14383198D02*
X11416920Y-14392722D01*
X11416920Y-14392722D02*
X11426444Y-14411769D01*
X11426444Y-14411769D02*
X11426444Y-14459388D01*
X11426444Y-14459388D02*
X11416920Y-14478436D01*
X11416920Y-14478436D02*
X11407396Y-14487960D01*
X11407396Y-14487960D02*
X11388348Y-14497484D01*
X11388348Y-14497484D02*
X11340729Y-14497484D01*
X11340729Y-14497484D02*
X11321682Y-14487960D01*
X11321682Y-14487960D02*
X11312158Y-14478436D01*
X11502634Y-14297484D02*
X11502634Y-14335579D01*
X11578825Y-14297484D02*
X11578825Y-14335579D01*
X11874063Y-14573674D02*
X11864539Y-14564150D01*
X11864539Y-14564150D02*
X11845491Y-14535579D01*
X11845491Y-14535579D02*
X11835968Y-14516531D01*
X11835968Y-14516531D02*
X11826444Y-14487960D01*
X11826444Y-14487960D02*
X11816920Y-14440341D01*
X11816920Y-14440341D02*
X11816920Y-14402246D01*
X11816920Y-14402246D02*
X11826444Y-14354627D01*
X11826444Y-14354627D02*
X11835968Y-14326055D01*
X11835968Y-14326055D02*
X11845491Y-14307008D01*
X11845491Y-14307008D02*
X11864539Y-14278436D01*
X11864539Y-14278436D02*
X11874063Y-14268912D01*
X12035968Y-14297484D02*
X11997872Y-14297484D01*
X11997872Y-14297484D02*
X11978825Y-14307008D01*
X11978825Y-14307008D02*
X11969301Y-14316531D01*
X11969301Y-14316531D02*
X11950253Y-14345103D01*
X11950253Y-14345103D02*
X11940729Y-14383198D01*
X11940729Y-14383198D02*
X11940729Y-14459388D01*
X11940729Y-14459388D02*
X11950253Y-14478436D01*
X11950253Y-14478436D02*
X11959777Y-14487960D01*
X11959777Y-14487960D02*
X11978825Y-14497484D01*
X11978825Y-14497484D02*
X12016920Y-14497484D01*
X12016920Y-14497484D02*
X12035968Y-14487960D01*
X12035968Y-14487960D02*
X12045491Y-14478436D01*
X12045491Y-14478436D02*
X12055015Y-14459388D01*
X12055015Y-14459388D02*
X12055015Y-14411769D01*
X12055015Y-14411769D02*
X12045491Y-14392722D01*
X12045491Y-14392722D02*
X12035968Y-14383198D01*
X12035968Y-14383198D02*
X12016920Y-14373674D01*
X12016920Y-14373674D02*
X11978825Y-14373674D01*
X11978825Y-14373674D02*
X11959777Y-14383198D01*
X11959777Y-14383198D02*
X11950253Y-14392722D01*
X11950253Y-14392722D02*
X11940729Y-14411769D01*
X12293110Y-14497484D02*
X12293110Y-14297484D01*
X12378825Y-14497484D02*
X12378825Y-14392722D01*
X12378825Y-14392722D02*
X12369301Y-14373674D01*
X12369301Y-14373674D02*
X12350253Y-14364150D01*
X12350253Y-14364150D02*
X12321682Y-14364150D01*
X12321682Y-14364150D02*
X12302634Y-14373674D01*
X12302634Y-14373674D02*
X12293110Y-14383198D01*
X12502634Y-14497484D02*
X12483587Y-14487960D01*
X12483587Y-14487960D02*
X12474063Y-14478436D01*
X12474063Y-14478436D02*
X12464539Y-14459388D01*
X12464539Y-14459388D02*
X12464539Y-14402246D01*
X12464539Y-14402246D02*
X12474063Y-14383198D01*
X12474063Y-14383198D02*
X12483587Y-14373674D01*
X12483587Y-14373674D02*
X12502634Y-14364150D01*
X12502634Y-14364150D02*
X12531206Y-14364150D01*
X12531206Y-14364150D02*
X12550253Y-14373674D01*
X12550253Y-14373674D02*
X12559777Y-14383198D01*
X12559777Y-14383198D02*
X12569301Y-14402246D01*
X12569301Y-14402246D02*
X12569301Y-14459388D01*
X12569301Y-14459388D02*
X12559777Y-14478436D01*
X12559777Y-14478436D02*
X12550253Y-14487960D01*
X12550253Y-14487960D02*
X12531206Y-14497484D01*
X12531206Y-14497484D02*
X12502634Y-14497484D01*
X12683587Y-14497484D02*
X12664539Y-14487960D01*
X12664539Y-14487960D02*
X12655015Y-14468912D01*
X12655015Y-14468912D02*
X12655015Y-14297484D01*
X12835968Y-14487960D02*
X12816920Y-14497484D01*
X12816920Y-14497484D02*
X12778825Y-14497484D01*
X12778825Y-14497484D02*
X12759777Y-14487960D01*
X12759777Y-14487960D02*
X12750253Y-14468912D01*
X12750253Y-14468912D02*
X12750253Y-14392722D01*
X12750253Y-14392722D02*
X12759777Y-14373674D01*
X12759777Y-14373674D02*
X12778825Y-14364150D01*
X12778825Y-14364150D02*
X12816920Y-14364150D01*
X12816920Y-14364150D02*
X12835968Y-14373674D01*
X12835968Y-14373674D02*
X12845491Y-14392722D01*
X12845491Y-14392722D02*
X12845491Y-14411769D01*
X12845491Y-14411769D02*
X12750253Y-14430817D01*
X12921682Y-14487960D02*
X12940730Y-14497484D01*
X12940730Y-14497484D02*
X12978825Y-14497484D01*
X12978825Y-14497484D02*
X12997872Y-14487960D01*
X12997872Y-14487960D02*
X13007396Y-14468912D01*
X13007396Y-14468912D02*
X13007396Y-14459388D01*
X13007396Y-14459388D02*
X12997872Y-14440341D01*
X12997872Y-14440341D02*
X12978825Y-14430817D01*
X12978825Y-14430817D02*
X12950253Y-14430817D01*
X12950253Y-14430817D02*
X12931206Y-14421293D01*
X12931206Y-14421293D02*
X12921682Y-14402246D01*
X12921682Y-14402246D02*
X12921682Y-14392722D01*
X12921682Y-14392722D02*
X12931206Y-14373674D01*
X12931206Y-14373674D02*
X12950253Y-14364150D01*
X12950253Y-14364150D02*
X12978825Y-14364150D01*
X12978825Y-14364150D02*
X12997872Y-14373674D01*
X13074063Y-14573674D02*
X13083587Y-14564150D01*
X13083587Y-14564150D02*
X13102634Y-14535579D01*
X13102634Y-14535579D02*
X13112158Y-14516531D01*
X13112158Y-14516531D02*
X13121682Y-14487960D01*
X13121682Y-14487960D02*
X13131206Y-14440341D01*
X13131206Y-14440341D02*
X13131206Y-14402246D01*
X13131206Y-14402246D02*
X13121682Y-14354627D01*
X13121682Y-14354627D02*
X13112158Y-14326055D01*
X13112158Y-14326055D02*
X13102634Y-14307008D01*
X13102634Y-14307008D02*
X13083587Y-14278436D01*
X13083587Y-14278436D02*
X13074063Y-14268912D01*
D11*
X8199000Y-14620000D02*
X8299000Y-14720000D01*
X8299000Y-14620000D02*
X8199000Y-14720000D01*
X8299000Y-14670000D02*
G75*
G02*
X8199000Y-14670000I-50000J0D01*
G01*
X8199000Y-14670000D02*
G75*
G02*
X8299000Y-14670000I50000J0D01*
G01*
D10*
X8664539Y-14761484D02*
X8550253Y-14761484D01*
X8607396Y-14761484D02*
X8607396Y-14561484D01*
X8607396Y-14561484D02*
X8588348Y-14590055D01*
X8588348Y-14590055D02*
X8569301Y-14609103D01*
X8569301Y-14609103D02*
X8550253Y-14618627D01*
X8750253Y-14742436D02*
X8759777Y-14751960D01*
X8759777Y-14751960D02*
X8750253Y-14761484D01*
X8750253Y-14761484D02*
X8740729Y-14751960D01*
X8740729Y-14751960D02*
X8750253Y-14742436D01*
X8750253Y-14742436D02*
X8750253Y-14761484D01*
X8883586Y-14561484D02*
X8902634Y-14561484D01*
X8902634Y-14561484D02*
X8921682Y-14571008D01*
X8921682Y-14571008D02*
X8931205Y-14580531D01*
X8931205Y-14580531D02*
X8940729Y-14599579D01*
X8940729Y-14599579D02*
X8950253Y-14637674D01*
X8950253Y-14637674D02*
X8950253Y-14685293D01*
X8950253Y-14685293D02*
X8940729Y-14723388D01*
X8940729Y-14723388D02*
X8931205Y-14742436D01*
X8931205Y-14742436D02*
X8921682Y-14751960D01*
X8921682Y-14751960D02*
X8902634Y-14761484D01*
X8902634Y-14761484D02*
X8883586Y-14761484D01*
X8883586Y-14761484D02*
X8864539Y-14751960D01*
X8864539Y-14751960D02*
X8855015Y-14742436D01*
X8855015Y-14742436D02*
X8845491Y-14723388D01*
X8845491Y-14723388D02*
X8835967Y-14685293D01*
X8835967Y-14685293D02*
X8835967Y-14637674D01*
X8835967Y-14637674D02*
X8845491Y-14599579D01*
X8845491Y-14599579D02*
X8855015Y-14580531D01*
X8855015Y-14580531D02*
X8864539Y-14571008D01*
X8864539Y-14571008D02*
X8883586Y-14561484D01*
X9074063Y-14561484D02*
X9093110Y-14561484D01*
X9093110Y-14561484D02*
X9112158Y-14571008D01*
X9112158Y-14571008D02*
X9121682Y-14580531D01*
X9121682Y-14580531D02*
X9131205Y-14599579D01*
X9131205Y-14599579D02*
X9140729Y-14637674D01*
X9140729Y-14637674D02*
X9140729Y-14685293D01*
X9140729Y-14685293D02*
X9131205Y-14723388D01*
X9131205Y-14723388D02*
X9121682Y-14742436D01*
X9121682Y-14742436D02*
X9112158Y-14751960D01*
X9112158Y-14751960D02*
X9093110Y-14761484D01*
X9093110Y-14761484D02*
X9074063Y-14761484D01*
X9074063Y-14761484D02*
X9055015Y-14751960D01*
X9055015Y-14751960D02*
X9045491Y-14742436D01*
X9045491Y-14742436D02*
X9035967Y-14723388D01*
X9035967Y-14723388D02*
X9026444Y-14685293D01*
X9026444Y-14685293D02*
X9026444Y-14637674D01*
X9026444Y-14637674D02*
X9035967Y-14599579D01*
X9035967Y-14599579D02*
X9045491Y-14580531D01*
X9045491Y-14580531D02*
X9055015Y-14571008D01*
X9055015Y-14571008D02*
X9074063Y-14561484D01*
X9264539Y-14561484D02*
X9283586Y-14561484D01*
X9283586Y-14561484D02*
X9302634Y-14571008D01*
X9302634Y-14571008D02*
X9312158Y-14580531D01*
X9312158Y-14580531D02*
X9321682Y-14599579D01*
X9321682Y-14599579D02*
X9331205Y-14637674D01*
X9331205Y-14637674D02*
X9331205Y-14685293D01*
X9331205Y-14685293D02*
X9321682Y-14723388D01*
X9321682Y-14723388D02*
X9312158Y-14742436D01*
X9312158Y-14742436D02*
X9302634Y-14751960D01*
X9302634Y-14751960D02*
X9283586Y-14761484D01*
X9283586Y-14761484D02*
X9264539Y-14761484D01*
X9264539Y-14761484D02*
X9245491Y-14751960D01*
X9245491Y-14751960D02*
X9235967Y-14742436D01*
X9235967Y-14742436D02*
X9226444Y-14723388D01*
X9226444Y-14723388D02*
X9216920Y-14685293D01*
X9216920Y-14685293D02*
X9216920Y-14637674D01*
X9216920Y-14637674D02*
X9226444Y-14599579D01*
X9226444Y-14599579D02*
X9235967Y-14580531D01*
X9235967Y-14580531D02*
X9245491Y-14571008D01*
X9245491Y-14571008D02*
X9264539Y-14561484D01*
X9416920Y-14761484D02*
X9416920Y-14628150D01*
X9416920Y-14647198D02*
X9426444Y-14637674D01*
X9426444Y-14637674D02*
X9445491Y-14628150D01*
X9445491Y-14628150D02*
X9474063Y-14628150D01*
X9474063Y-14628150D02*
X9493110Y-14637674D01*
X9493110Y-14637674D02*
X9502634Y-14656722D01*
X9502634Y-14656722D02*
X9502634Y-14761484D01*
X9502634Y-14656722D02*
X9512158Y-14637674D01*
X9512158Y-14637674D02*
X9531205Y-14628150D01*
X9531205Y-14628150D02*
X9559777Y-14628150D01*
X9559777Y-14628150D02*
X9578825Y-14637674D01*
X9578825Y-14637674D02*
X9588348Y-14656722D01*
X9588348Y-14656722D02*
X9588348Y-14761484D01*
X9683586Y-14761484D02*
X9683586Y-14628150D01*
X9683586Y-14647198D02*
X9693110Y-14637674D01*
X9693110Y-14637674D02*
X9712158Y-14628150D01*
X9712158Y-14628150D02*
X9740729Y-14628150D01*
X9740729Y-14628150D02*
X9759777Y-14637674D01*
X9759777Y-14637674D02*
X9769301Y-14656722D01*
X9769301Y-14656722D02*
X9769301Y-14761484D01*
X9769301Y-14656722D02*
X9778825Y-14637674D01*
X9778825Y-14637674D02*
X9797872Y-14628150D01*
X9797872Y-14628150D02*
X9826444Y-14628150D01*
X9826444Y-14628150D02*
X9845491Y-14637674D01*
X9845491Y-14637674D02*
X9855015Y-14656722D01*
X9855015Y-14656722D02*
X9855015Y-14761484D01*
X10245491Y-14551960D02*
X10074063Y-14809103D01*
X10502634Y-14561484D02*
X10521682Y-14561484D01*
X10521682Y-14561484D02*
X10540729Y-14571008D01*
X10540729Y-14571008D02*
X10550253Y-14580531D01*
X10550253Y-14580531D02*
X10559777Y-14599579D01*
X10559777Y-14599579D02*
X10569301Y-14637674D01*
X10569301Y-14637674D02*
X10569301Y-14685293D01*
X10569301Y-14685293D02*
X10559777Y-14723388D01*
X10559777Y-14723388D02*
X10550253Y-14742436D01*
X10550253Y-14742436D02*
X10540729Y-14751960D01*
X10540729Y-14751960D02*
X10521682Y-14761484D01*
X10521682Y-14761484D02*
X10502634Y-14761484D01*
X10502634Y-14761484D02*
X10483587Y-14751960D01*
X10483587Y-14751960D02*
X10474063Y-14742436D01*
X10474063Y-14742436D02*
X10464539Y-14723388D01*
X10464539Y-14723388D02*
X10455015Y-14685293D01*
X10455015Y-14685293D02*
X10455015Y-14637674D01*
X10455015Y-14637674D02*
X10464539Y-14599579D01*
X10464539Y-14599579D02*
X10474063Y-14580531D01*
X10474063Y-14580531D02*
X10483587Y-14571008D01*
X10483587Y-14571008D02*
X10502634Y-14561484D01*
X10655015Y-14742436D02*
X10664539Y-14751960D01*
X10664539Y-14751960D02*
X10655015Y-14761484D01*
X10655015Y-14761484D02*
X10645491Y-14751960D01*
X10645491Y-14751960D02*
X10655015Y-14742436D01*
X10655015Y-14742436D02*
X10655015Y-14761484D01*
X10788348Y-14561484D02*
X10807396Y-14561484D01*
X10807396Y-14561484D02*
X10826444Y-14571008D01*
X10826444Y-14571008D02*
X10835968Y-14580531D01*
X10835968Y-14580531D02*
X10845491Y-14599579D01*
X10845491Y-14599579D02*
X10855015Y-14637674D01*
X10855015Y-14637674D02*
X10855015Y-14685293D01*
X10855015Y-14685293D02*
X10845491Y-14723388D01*
X10845491Y-14723388D02*
X10835968Y-14742436D01*
X10835968Y-14742436D02*
X10826444Y-14751960D01*
X10826444Y-14751960D02*
X10807396Y-14761484D01*
X10807396Y-14761484D02*
X10788348Y-14761484D01*
X10788348Y-14761484D02*
X10769301Y-14751960D01*
X10769301Y-14751960D02*
X10759777Y-14742436D01*
X10759777Y-14742436D02*
X10750253Y-14723388D01*
X10750253Y-14723388D02*
X10740729Y-14685293D01*
X10740729Y-14685293D02*
X10740729Y-14637674D01*
X10740729Y-14637674D02*
X10750253Y-14599579D01*
X10750253Y-14599579D02*
X10759777Y-14580531D01*
X10759777Y-14580531D02*
X10769301Y-14571008D01*
X10769301Y-14571008D02*
X10788348Y-14561484D01*
X10921682Y-14561484D02*
X11045491Y-14561484D01*
X11045491Y-14561484D02*
X10978825Y-14637674D01*
X10978825Y-14637674D02*
X11007396Y-14637674D01*
X11007396Y-14637674D02*
X11026444Y-14647198D01*
X11026444Y-14647198D02*
X11035968Y-14656722D01*
X11035968Y-14656722D02*
X11045491Y-14675769D01*
X11045491Y-14675769D02*
X11045491Y-14723388D01*
X11045491Y-14723388D02*
X11035968Y-14742436D01*
X11035968Y-14742436D02*
X11026444Y-14751960D01*
X11026444Y-14751960D02*
X11007396Y-14761484D01*
X11007396Y-14761484D02*
X10950253Y-14761484D01*
X10950253Y-14761484D02*
X10931206Y-14751960D01*
X10931206Y-14751960D02*
X10921682Y-14742436D01*
X11140729Y-14761484D02*
X11178825Y-14761484D01*
X11178825Y-14761484D02*
X11197872Y-14751960D01*
X11197872Y-14751960D02*
X11207396Y-14742436D01*
X11207396Y-14742436D02*
X11226444Y-14713865D01*
X11226444Y-14713865D02*
X11235967Y-14675769D01*
X11235967Y-14675769D02*
X11235967Y-14599579D01*
X11235967Y-14599579D02*
X11226444Y-14580531D01*
X11226444Y-14580531D02*
X11216920Y-14571008D01*
X11216920Y-14571008D02*
X11197872Y-14561484D01*
X11197872Y-14561484D02*
X11159777Y-14561484D01*
X11159777Y-14561484D02*
X11140729Y-14571008D01*
X11140729Y-14571008D02*
X11131206Y-14580531D01*
X11131206Y-14580531D02*
X11121682Y-14599579D01*
X11121682Y-14599579D02*
X11121682Y-14647198D01*
X11121682Y-14647198D02*
X11131206Y-14666246D01*
X11131206Y-14666246D02*
X11140729Y-14675769D01*
X11140729Y-14675769D02*
X11159777Y-14685293D01*
X11159777Y-14685293D02*
X11197872Y-14685293D01*
X11197872Y-14685293D02*
X11216920Y-14675769D01*
X11216920Y-14675769D02*
X11226444Y-14666246D01*
X11226444Y-14666246D02*
X11235967Y-14647198D01*
X11407396Y-14628150D02*
X11407396Y-14761484D01*
X11359777Y-14551960D02*
X11312158Y-14694817D01*
X11312158Y-14694817D02*
X11435967Y-14694817D01*
X11502634Y-14561484D02*
X11502634Y-14599579D01*
X11578825Y-14561484D02*
X11578825Y-14599579D01*
X11874063Y-14837674D02*
X11864539Y-14828150D01*
X11864539Y-14828150D02*
X11845491Y-14799579D01*
X11845491Y-14799579D02*
X11835968Y-14780531D01*
X11835968Y-14780531D02*
X11826444Y-14751960D01*
X11826444Y-14751960D02*
X11816920Y-14704341D01*
X11816920Y-14704341D02*
X11816920Y-14666246D01*
X11816920Y-14666246D02*
X11826444Y-14618627D01*
X11826444Y-14618627D02*
X11835968Y-14590055D01*
X11835968Y-14590055D02*
X11845491Y-14571008D01*
X11845491Y-14571008D02*
X11864539Y-14542436D01*
X11864539Y-14542436D02*
X11874063Y-14532912D01*
X12055015Y-14761484D02*
X11940729Y-14761484D01*
X11997872Y-14761484D02*
X11997872Y-14561484D01*
X11997872Y-14561484D02*
X11978825Y-14590055D01*
X11978825Y-14590055D02*
X11959777Y-14609103D01*
X11959777Y-14609103D02*
X11940729Y-14618627D01*
X12178825Y-14561484D02*
X12197872Y-14561484D01*
X12197872Y-14561484D02*
X12216920Y-14571008D01*
X12216920Y-14571008D02*
X12226444Y-14580531D01*
X12226444Y-14580531D02*
X12235968Y-14599579D01*
X12235968Y-14599579D02*
X12245491Y-14637674D01*
X12245491Y-14637674D02*
X12245491Y-14685293D01*
X12245491Y-14685293D02*
X12235968Y-14723388D01*
X12235968Y-14723388D02*
X12226444Y-14742436D01*
X12226444Y-14742436D02*
X12216920Y-14751960D01*
X12216920Y-14751960D02*
X12197872Y-14761484D01*
X12197872Y-14761484D02*
X12178825Y-14761484D01*
X12178825Y-14761484D02*
X12159777Y-14751960D01*
X12159777Y-14751960D02*
X12150253Y-14742436D01*
X12150253Y-14742436D02*
X12140729Y-14723388D01*
X12140729Y-14723388D02*
X12131206Y-14685293D01*
X12131206Y-14685293D02*
X12131206Y-14637674D01*
X12131206Y-14637674D02*
X12140729Y-14599579D01*
X12140729Y-14599579D02*
X12150253Y-14580531D01*
X12150253Y-14580531D02*
X12159777Y-14571008D01*
X12159777Y-14571008D02*
X12178825Y-14561484D01*
X12359777Y-14647198D02*
X12340729Y-14637674D01*
X12340729Y-14637674D02*
X12331206Y-14628150D01*
X12331206Y-14628150D02*
X12321682Y-14609103D01*
X12321682Y-14609103D02*
X12321682Y-14599579D01*
X12321682Y-14599579D02*
X12331206Y-14580531D01*
X12331206Y-14580531D02*
X12340729Y-14571008D01*
X12340729Y-14571008D02*
X12359777Y-14561484D01*
X12359777Y-14561484D02*
X12397872Y-14561484D01*
X12397872Y-14561484D02*
X12416920Y-14571008D01*
X12416920Y-14571008D02*
X12426444Y-14580531D01*
X12426444Y-14580531D02*
X12435968Y-14599579D01*
X12435968Y-14599579D02*
X12435968Y-14609103D01*
X12435968Y-14609103D02*
X12426444Y-14628150D01*
X12426444Y-14628150D02*
X12416920Y-14637674D01*
X12416920Y-14637674D02*
X12397872Y-14647198D01*
X12397872Y-14647198D02*
X12359777Y-14647198D01*
X12359777Y-14647198D02*
X12340729Y-14656722D01*
X12340729Y-14656722D02*
X12331206Y-14666246D01*
X12331206Y-14666246D02*
X12321682Y-14685293D01*
X12321682Y-14685293D02*
X12321682Y-14723388D01*
X12321682Y-14723388D02*
X12331206Y-14742436D01*
X12331206Y-14742436D02*
X12340729Y-14751960D01*
X12340729Y-14751960D02*
X12359777Y-14761484D01*
X12359777Y-14761484D02*
X12397872Y-14761484D01*
X12397872Y-14761484D02*
X12416920Y-14751960D01*
X12416920Y-14751960D02*
X12426444Y-14742436D01*
X12426444Y-14742436D02*
X12435968Y-14723388D01*
X12435968Y-14723388D02*
X12435968Y-14685293D01*
X12435968Y-14685293D02*
X12426444Y-14666246D01*
X12426444Y-14666246D02*
X12416920Y-14656722D01*
X12416920Y-14656722D02*
X12397872Y-14647198D01*
X12674063Y-14761484D02*
X12674063Y-14561484D01*
X12759777Y-14761484D02*
X12759777Y-14656722D01*
X12759777Y-14656722D02*
X12750253Y-14637674D01*
X12750253Y-14637674D02*
X12731206Y-14628150D01*
X12731206Y-14628150D02*
X12702634Y-14628150D01*
X12702634Y-14628150D02*
X12683587Y-14637674D01*
X12683587Y-14637674D02*
X12674063Y-14647198D01*
X12883587Y-14761484D02*
X12864539Y-14751960D01*
X12864539Y-14751960D02*
X12855015Y-14742436D01*
X12855015Y-14742436D02*
X12845491Y-14723388D01*
X12845491Y-14723388D02*
X12845491Y-14666246D01*
X12845491Y-14666246D02*
X12855015Y-14647198D01*
X12855015Y-14647198D02*
X12864539Y-14637674D01*
X12864539Y-14637674D02*
X12883587Y-14628150D01*
X12883587Y-14628150D02*
X12912158Y-14628150D01*
X12912158Y-14628150D02*
X12931206Y-14637674D01*
X12931206Y-14637674D02*
X12940730Y-14647198D01*
X12940730Y-14647198D02*
X12950253Y-14666246D01*
X12950253Y-14666246D02*
X12950253Y-14723388D01*
X12950253Y-14723388D02*
X12940730Y-14742436D01*
X12940730Y-14742436D02*
X12931206Y-14751960D01*
X12931206Y-14751960D02*
X12912158Y-14761484D01*
X12912158Y-14761484D02*
X12883587Y-14761484D01*
X13064539Y-14761484D02*
X13045491Y-14751960D01*
X13045491Y-14751960D02*
X13035968Y-14732912D01*
X13035968Y-14732912D02*
X13035968Y-14561484D01*
X13216920Y-14751960D02*
X13197872Y-14761484D01*
X13197872Y-14761484D02*
X13159777Y-14761484D01*
X13159777Y-14761484D02*
X13140730Y-14751960D01*
X13140730Y-14751960D02*
X13131206Y-14732912D01*
X13131206Y-14732912D02*
X13131206Y-14656722D01*
X13131206Y-14656722D02*
X13140730Y-14637674D01*
X13140730Y-14637674D02*
X13159777Y-14628150D01*
X13159777Y-14628150D02*
X13197872Y-14628150D01*
X13197872Y-14628150D02*
X13216920Y-14637674D01*
X13216920Y-14637674D02*
X13226444Y-14656722D01*
X13226444Y-14656722D02*
X13226444Y-14675769D01*
X13226444Y-14675769D02*
X13131206Y-14694817D01*
X13302634Y-14751960D02*
X13321682Y-14761484D01*
X13321682Y-14761484D02*
X13359777Y-14761484D01*
X13359777Y-14761484D02*
X13378825Y-14751960D01*
X13378825Y-14751960D02*
X13388349Y-14732912D01*
X13388349Y-14732912D02*
X13388349Y-14723388D01*
X13388349Y-14723388D02*
X13378825Y-14704341D01*
X13378825Y-14704341D02*
X13359777Y-14694817D01*
X13359777Y-14694817D02*
X13331206Y-14694817D01*
X13331206Y-14694817D02*
X13312158Y-14685293D01*
X13312158Y-14685293D02*
X13302634Y-14666246D01*
X13302634Y-14666246D02*
X13302634Y-14656722D01*
X13302634Y-14656722D02*
X13312158Y-14637674D01*
X13312158Y-14637674D02*
X13331206Y-14628150D01*
X13331206Y-14628150D02*
X13359777Y-14628150D01*
X13359777Y-14628150D02*
X13378825Y-14637674D01*
X13455015Y-14837674D02*
X13464539Y-14828150D01*
X13464539Y-14828150D02*
X13483587Y-14799579D01*
X13483587Y-14799579D02*
X13493111Y-14780531D01*
X13493111Y-14780531D02*
X13502634Y-14751960D01*
X13502634Y-14751960D02*
X13512158Y-14704341D01*
X13512158Y-14704341D02*
X13512158Y-14666246D01*
X13512158Y-14666246D02*
X13502634Y-14618627D01*
X13502634Y-14618627D02*
X13493111Y-14590055D01*
X13493111Y-14590055D02*
X13483587Y-14571008D01*
X13483587Y-14571008D02*
X13464539Y-14542436D01*
X13464539Y-14542436D02*
X13455015Y-14532912D01*
D12*
X8197400Y-14883200D02*
X8299000Y-14984800D01*
X8299000Y-14883200D02*
X8197400Y-14984800D01*
X8248200Y-14883200D02*
X8248200Y-14984800D01*
X8197400Y-14934000D02*
X8299000Y-14934000D01*
D10*
X8664539Y-15025484D02*
X8550253Y-15025484D01*
X8607396Y-15025484D02*
X8607396Y-14825484D01*
X8607396Y-14825484D02*
X8588348Y-14854055D01*
X8588348Y-14854055D02*
X8569301Y-14873103D01*
X8569301Y-14873103D02*
X8550253Y-14882627D01*
X8750253Y-15006436D02*
X8759777Y-15015960D01*
X8759777Y-15015960D02*
X8750253Y-15025484D01*
X8750253Y-15025484D02*
X8740729Y-15015960D01*
X8740729Y-15015960D02*
X8750253Y-15006436D01*
X8750253Y-15006436D02*
X8750253Y-15025484D01*
X8883586Y-14825484D02*
X8902634Y-14825484D01*
X8902634Y-14825484D02*
X8921682Y-14835008D01*
X8921682Y-14835008D02*
X8931205Y-14844531D01*
X8931205Y-14844531D02*
X8940729Y-14863579D01*
X8940729Y-14863579D02*
X8950253Y-14901674D01*
X8950253Y-14901674D02*
X8950253Y-14949293D01*
X8950253Y-14949293D02*
X8940729Y-14987388D01*
X8940729Y-14987388D02*
X8931205Y-15006436D01*
X8931205Y-15006436D02*
X8921682Y-15015960D01*
X8921682Y-15015960D02*
X8902634Y-15025484D01*
X8902634Y-15025484D02*
X8883586Y-15025484D01*
X8883586Y-15025484D02*
X8864539Y-15015960D01*
X8864539Y-15015960D02*
X8855015Y-15006436D01*
X8855015Y-15006436D02*
X8845491Y-14987388D01*
X8845491Y-14987388D02*
X8835967Y-14949293D01*
X8835967Y-14949293D02*
X8835967Y-14901674D01*
X8835967Y-14901674D02*
X8845491Y-14863579D01*
X8845491Y-14863579D02*
X8855015Y-14844531D01*
X8855015Y-14844531D02*
X8864539Y-14835008D01*
X8864539Y-14835008D02*
X8883586Y-14825484D01*
X9140729Y-15025484D02*
X9026444Y-15025484D01*
X9083586Y-15025484D02*
X9083586Y-14825484D01*
X9083586Y-14825484D02*
X9064539Y-14854055D01*
X9064539Y-14854055D02*
X9045491Y-14873103D01*
X9045491Y-14873103D02*
X9026444Y-14882627D01*
X9312158Y-14825484D02*
X9274063Y-14825484D01*
X9274063Y-14825484D02*
X9255015Y-14835008D01*
X9255015Y-14835008D02*
X9245491Y-14844531D01*
X9245491Y-14844531D02*
X9226444Y-14873103D01*
X9226444Y-14873103D02*
X9216920Y-14911198D01*
X9216920Y-14911198D02*
X9216920Y-14987388D01*
X9216920Y-14987388D02*
X9226444Y-15006436D01*
X9226444Y-15006436D02*
X9235967Y-15015960D01*
X9235967Y-15015960D02*
X9255015Y-15025484D01*
X9255015Y-15025484D02*
X9293110Y-15025484D01*
X9293110Y-15025484D02*
X9312158Y-15015960D01*
X9312158Y-15015960D02*
X9321682Y-15006436D01*
X9321682Y-15006436D02*
X9331205Y-14987388D01*
X9331205Y-14987388D02*
X9331205Y-14939769D01*
X9331205Y-14939769D02*
X9321682Y-14920722D01*
X9321682Y-14920722D02*
X9312158Y-14911198D01*
X9312158Y-14911198D02*
X9293110Y-14901674D01*
X9293110Y-14901674D02*
X9255015Y-14901674D01*
X9255015Y-14901674D02*
X9235967Y-14911198D01*
X9235967Y-14911198D02*
X9226444Y-14920722D01*
X9226444Y-14920722D02*
X9216920Y-14939769D01*
X9416920Y-15025484D02*
X9416920Y-14892150D01*
X9416920Y-14911198D02*
X9426444Y-14901674D01*
X9426444Y-14901674D02*
X9445491Y-14892150D01*
X9445491Y-14892150D02*
X9474063Y-14892150D01*
X9474063Y-14892150D02*
X9493110Y-14901674D01*
X9493110Y-14901674D02*
X9502634Y-14920722D01*
X9502634Y-14920722D02*
X9502634Y-15025484D01*
X9502634Y-14920722D02*
X9512158Y-14901674D01*
X9512158Y-14901674D02*
X9531205Y-14892150D01*
X9531205Y-14892150D02*
X9559777Y-14892150D01*
X9559777Y-14892150D02*
X9578825Y-14901674D01*
X9578825Y-14901674D02*
X9588348Y-14920722D01*
X9588348Y-14920722D02*
X9588348Y-15025484D01*
X9683586Y-15025484D02*
X9683586Y-14892150D01*
X9683586Y-14911198D02*
X9693110Y-14901674D01*
X9693110Y-14901674D02*
X9712158Y-14892150D01*
X9712158Y-14892150D02*
X9740729Y-14892150D01*
X9740729Y-14892150D02*
X9759777Y-14901674D01*
X9759777Y-14901674D02*
X9769301Y-14920722D01*
X9769301Y-14920722D02*
X9769301Y-15025484D01*
X9769301Y-14920722D02*
X9778825Y-14901674D01*
X9778825Y-14901674D02*
X9797872Y-14892150D01*
X9797872Y-14892150D02*
X9826444Y-14892150D01*
X9826444Y-14892150D02*
X9845491Y-14901674D01*
X9845491Y-14901674D02*
X9855015Y-14920722D01*
X9855015Y-14920722D02*
X9855015Y-15025484D01*
X10245491Y-14815960D02*
X10074063Y-15073103D01*
X10502634Y-14825484D02*
X10521682Y-14825484D01*
X10521682Y-14825484D02*
X10540729Y-14835008D01*
X10540729Y-14835008D02*
X10550253Y-14844531D01*
X10550253Y-14844531D02*
X10559777Y-14863579D01*
X10559777Y-14863579D02*
X10569301Y-14901674D01*
X10569301Y-14901674D02*
X10569301Y-14949293D01*
X10569301Y-14949293D02*
X10559777Y-14987388D01*
X10559777Y-14987388D02*
X10550253Y-15006436D01*
X10550253Y-15006436D02*
X10540729Y-15015960D01*
X10540729Y-15015960D02*
X10521682Y-15025484D01*
X10521682Y-15025484D02*
X10502634Y-15025484D01*
X10502634Y-15025484D02*
X10483587Y-15015960D01*
X10483587Y-15015960D02*
X10474063Y-15006436D01*
X10474063Y-15006436D02*
X10464539Y-14987388D01*
X10464539Y-14987388D02*
X10455015Y-14949293D01*
X10455015Y-14949293D02*
X10455015Y-14901674D01*
X10455015Y-14901674D02*
X10464539Y-14863579D01*
X10464539Y-14863579D02*
X10474063Y-14844531D01*
X10474063Y-14844531D02*
X10483587Y-14835008D01*
X10483587Y-14835008D02*
X10502634Y-14825484D01*
X10655015Y-15006436D02*
X10664539Y-15015960D01*
X10664539Y-15015960D02*
X10655015Y-15025484D01*
X10655015Y-15025484D02*
X10645491Y-15015960D01*
X10645491Y-15015960D02*
X10655015Y-15006436D01*
X10655015Y-15006436D02*
X10655015Y-15025484D01*
X10788348Y-14825484D02*
X10807396Y-14825484D01*
X10807396Y-14825484D02*
X10826444Y-14835008D01*
X10826444Y-14835008D02*
X10835968Y-14844531D01*
X10835968Y-14844531D02*
X10845491Y-14863579D01*
X10845491Y-14863579D02*
X10855015Y-14901674D01*
X10855015Y-14901674D02*
X10855015Y-14949293D01*
X10855015Y-14949293D02*
X10845491Y-14987388D01*
X10845491Y-14987388D02*
X10835968Y-15006436D01*
X10835968Y-15006436D02*
X10826444Y-15015960D01*
X10826444Y-15015960D02*
X10807396Y-15025484D01*
X10807396Y-15025484D02*
X10788348Y-15025484D01*
X10788348Y-15025484D02*
X10769301Y-15015960D01*
X10769301Y-15015960D02*
X10759777Y-15006436D01*
X10759777Y-15006436D02*
X10750253Y-14987388D01*
X10750253Y-14987388D02*
X10740729Y-14949293D01*
X10740729Y-14949293D02*
X10740729Y-14901674D01*
X10740729Y-14901674D02*
X10750253Y-14863579D01*
X10750253Y-14863579D02*
X10759777Y-14844531D01*
X10759777Y-14844531D02*
X10769301Y-14835008D01*
X10769301Y-14835008D02*
X10788348Y-14825484D01*
X11026444Y-14892150D02*
X11026444Y-15025484D01*
X10978825Y-14815960D02*
X10931206Y-14958817D01*
X10931206Y-14958817D02*
X11055015Y-14958817D01*
X11169301Y-14825484D02*
X11188348Y-14825484D01*
X11188348Y-14825484D02*
X11207396Y-14835008D01*
X11207396Y-14835008D02*
X11216920Y-14844531D01*
X11216920Y-14844531D02*
X11226444Y-14863579D01*
X11226444Y-14863579D02*
X11235967Y-14901674D01*
X11235967Y-14901674D02*
X11235967Y-14949293D01*
X11235967Y-14949293D02*
X11226444Y-14987388D01*
X11226444Y-14987388D02*
X11216920Y-15006436D01*
X11216920Y-15006436D02*
X11207396Y-15015960D01*
X11207396Y-15015960D02*
X11188348Y-15025484D01*
X11188348Y-15025484D02*
X11169301Y-15025484D01*
X11169301Y-15025484D02*
X11150253Y-15015960D01*
X11150253Y-15015960D02*
X11140729Y-15006436D01*
X11140729Y-15006436D02*
X11131206Y-14987388D01*
X11131206Y-14987388D02*
X11121682Y-14949293D01*
X11121682Y-14949293D02*
X11121682Y-14901674D01*
X11121682Y-14901674D02*
X11131206Y-14863579D01*
X11131206Y-14863579D02*
X11140729Y-14844531D01*
X11140729Y-14844531D02*
X11150253Y-14835008D01*
X11150253Y-14835008D02*
X11169301Y-14825484D01*
X11359777Y-14825484D02*
X11378825Y-14825484D01*
X11378825Y-14825484D02*
X11397872Y-14835008D01*
X11397872Y-14835008D02*
X11407396Y-14844531D01*
X11407396Y-14844531D02*
X11416920Y-14863579D01*
X11416920Y-14863579D02*
X11426444Y-14901674D01*
X11426444Y-14901674D02*
X11426444Y-14949293D01*
X11426444Y-14949293D02*
X11416920Y-14987388D01*
X11416920Y-14987388D02*
X11407396Y-15006436D01*
X11407396Y-15006436D02*
X11397872Y-15015960D01*
X11397872Y-15015960D02*
X11378825Y-15025484D01*
X11378825Y-15025484D02*
X11359777Y-15025484D01*
X11359777Y-15025484D02*
X11340729Y-15015960D01*
X11340729Y-15015960D02*
X11331206Y-15006436D01*
X11331206Y-15006436D02*
X11321682Y-14987388D01*
X11321682Y-14987388D02*
X11312158Y-14949293D01*
X11312158Y-14949293D02*
X11312158Y-14901674D01*
X11312158Y-14901674D02*
X11321682Y-14863579D01*
X11321682Y-14863579D02*
X11331206Y-14844531D01*
X11331206Y-14844531D02*
X11340729Y-14835008D01*
X11340729Y-14835008D02*
X11359777Y-14825484D01*
X11502634Y-14825484D02*
X11502634Y-14863579D01*
X11578825Y-14825484D02*
X11578825Y-14863579D01*
X11874063Y-15101674D02*
X11864539Y-15092150D01*
X11864539Y-15092150D02*
X11845491Y-15063579D01*
X11845491Y-15063579D02*
X11835968Y-15044531D01*
X11835968Y-15044531D02*
X11826444Y-15015960D01*
X11826444Y-15015960D02*
X11816920Y-14968341D01*
X11816920Y-14968341D02*
X11816920Y-14930246D01*
X11816920Y-14930246D02*
X11826444Y-14882627D01*
X11826444Y-14882627D02*
X11835968Y-14854055D01*
X11835968Y-14854055D02*
X11845491Y-14835008D01*
X11845491Y-14835008D02*
X11864539Y-14806436D01*
X11864539Y-14806436D02*
X11874063Y-14796912D01*
X11940729Y-14844531D02*
X11950253Y-14835008D01*
X11950253Y-14835008D02*
X11969301Y-14825484D01*
X11969301Y-14825484D02*
X12016920Y-14825484D01*
X12016920Y-14825484D02*
X12035968Y-14835008D01*
X12035968Y-14835008D02*
X12045491Y-14844531D01*
X12045491Y-14844531D02*
X12055015Y-14863579D01*
X12055015Y-14863579D02*
X12055015Y-14882627D01*
X12055015Y-14882627D02*
X12045491Y-14911198D01*
X12045491Y-14911198D02*
X11931206Y-15025484D01*
X11931206Y-15025484D02*
X12055015Y-15025484D01*
X12121682Y-14825484D02*
X12245491Y-14825484D01*
X12245491Y-14825484D02*
X12178825Y-14901674D01*
X12178825Y-14901674D02*
X12207396Y-14901674D01*
X12207396Y-14901674D02*
X12226444Y-14911198D01*
X12226444Y-14911198D02*
X12235968Y-14920722D01*
X12235968Y-14920722D02*
X12245491Y-14939769D01*
X12245491Y-14939769D02*
X12245491Y-14987388D01*
X12245491Y-14987388D02*
X12235968Y-15006436D01*
X12235968Y-15006436D02*
X12226444Y-15015960D01*
X12226444Y-15015960D02*
X12207396Y-15025484D01*
X12207396Y-15025484D02*
X12150253Y-15025484D01*
X12150253Y-15025484D02*
X12131206Y-15015960D01*
X12131206Y-15015960D02*
X12121682Y-15006436D01*
X12483587Y-15025484D02*
X12483587Y-14825484D01*
X12569301Y-15025484D02*
X12569301Y-14920722D01*
X12569301Y-14920722D02*
X12559777Y-14901674D01*
X12559777Y-14901674D02*
X12540730Y-14892150D01*
X12540730Y-14892150D02*
X12512158Y-14892150D01*
X12512158Y-14892150D02*
X12493110Y-14901674D01*
X12493110Y-14901674D02*
X12483587Y-14911198D01*
X12693110Y-15025484D02*
X12674063Y-15015960D01*
X12674063Y-15015960D02*
X12664539Y-15006436D01*
X12664539Y-15006436D02*
X12655015Y-14987388D01*
X12655015Y-14987388D02*
X12655015Y-14930246D01*
X12655015Y-14930246D02*
X12664539Y-14911198D01*
X12664539Y-14911198D02*
X12674063Y-14901674D01*
X12674063Y-14901674D02*
X12693110Y-14892150D01*
X12693110Y-14892150D02*
X12721682Y-14892150D01*
X12721682Y-14892150D02*
X12740730Y-14901674D01*
X12740730Y-14901674D02*
X12750253Y-14911198D01*
X12750253Y-14911198D02*
X12759777Y-14930246D01*
X12759777Y-14930246D02*
X12759777Y-14987388D01*
X12759777Y-14987388D02*
X12750253Y-15006436D01*
X12750253Y-15006436D02*
X12740730Y-15015960D01*
X12740730Y-15015960D02*
X12721682Y-15025484D01*
X12721682Y-15025484D02*
X12693110Y-15025484D01*
X12874063Y-15025484D02*
X12855015Y-15015960D01*
X12855015Y-15015960D02*
X12845491Y-14996912D01*
X12845491Y-14996912D02*
X12845491Y-14825484D01*
X13026444Y-15015960D02*
X13007396Y-15025484D01*
X13007396Y-15025484D02*
X12969301Y-15025484D01*
X12969301Y-15025484D02*
X12950253Y-15015960D01*
X12950253Y-15015960D02*
X12940730Y-14996912D01*
X12940730Y-14996912D02*
X12940730Y-14920722D01*
X12940730Y-14920722D02*
X12950253Y-14901674D01*
X12950253Y-14901674D02*
X12969301Y-14892150D01*
X12969301Y-14892150D02*
X13007396Y-14892150D01*
X13007396Y-14892150D02*
X13026444Y-14901674D01*
X13026444Y-14901674D02*
X13035968Y-14920722D01*
X13035968Y-14920722D02*
X13035968Y-14939769D01*
X13035968Y-14939769D02*
X12940730Y-14958817D01*
X13112158Y-15015960D02*
X13131206Y-15025484D01*
X13131206Y-15025484D02*
X13169301Y-15025484D01*
X13169301Y-15025484D02*
X13188349Y-15015960D01*
X13188349Y-15015960D02*
X13197872Y-14996912D01*
X13197872Y-14996912D02*
X13197872Y-14987388D01*
X13197872Y-14987388D02*
X13188349Y-14968341D01*
X13188349Y-14968341D02*
X13169301Y-14958817D01*
X13169301Y-14958817D02*
X13140730Y-14958817D01*
X13140730Y-14958817D02*
X13121682Y-14949293D01*
X13121682Y-14949293D02*
X13112158Y-14930246D01*
X13112158Y-14930246D02*
X13112158Y-14920722D01*
X13112158Y-14920722D02*
X13121682Y-14901674D01*
X13121682Y-14901674D02*
X13140730Y-14892150D01*
X13140730Y-14892150D02*
X13169301Y-14892150D01*
X13169301Y-14892150D02*
X13188349Y-14901674D01*
X13264539Y-15101674D02*
X13274063Y-15092150D01*
X13274063Y-15092150D02*
X13293111Y-15063579D01*
X13293111Y-15063579D02*
X13302634Y-15044531D01*
X13302634Y-15044531D02*
X13312158Y-15015960D01*
X13312158Y-15015960D02*
X13321682Y-14968341D01*
X13321682Y-14968341D02*
X13321682Y-14930246D01*
X13321682Y-14930246D02*
X13312158Y-14882627D01*
X13312158Y-14882627D02*
X13302634Y-14854055D01*
X13302634Y-14854055D02*
X13293111Y-14835008D01*
X13293111Y-14835008D02*
X13274063Y-14806436D01*
X13274063Y-14806436D02*
X13264539Y-14796912D01*
D13*
X8159000Y-15128000D02*
X8299000Y-15268000D01*
X8299000Y-15128000D02*
X8159000Y-15268000D01*
X8278498Y-15247498D02*
X8278498Y-15148502D01*
X8179502Y-15148502D01*
X8179502Y-15247498D01*
X8278498Y-15247498D01*
D10*
X8664539Y-15289484D02*
X8550253Y-15289484D01*
X8607396Y-15289484D02*
X8607396Y-15089484D01*
X8607396Y-15089484D02*
X8588348Y-15118055D01*
X8588348Y-15118055D02*
X8569301Y-15137103D01*
X8569301Y-15137103D02*
X8550253Y-15146627D01*
X8750253Y-15270436D02*
X8759777Y-15279960D01*
X8759777Y-15279960D02*
X8750253Y-15289484D01*
X8750253Y-15289484D02*
X8740729Y-15279960D01*
X8740729Y-15279960D02*
X8750253Y-15270436D01*
X8750253Y-15270436D02*
X8750253Y-15289484D01*
X8931205Y-15156150D02*
X8931205Y-15289484D01*
X8883586Y-15079960D02*
X8835967Y-15222817D01*
X8835967Y-15222817D02*
X8959777Y-15222817D01*
X9074063Y-15089484D02*
X9093110Y-15089484D01*
X9093110Y-15089484D02*
X9112158Y-15099008D01*
X9112158Y-15099008D02*
X9121682Y-15108531D01*
X9121682Y-15108531D02*
X9131205Y-15127579D01*
X9131205Y-15127579D02*
X9140729Y-15165674D01*
X9140729Y-15165674D02*
X9140729Y-15213293D01*
X9140729Y-15213293D02*
X9131205Y-15251388D01*
X9131205Y-15251388D02*
X9121682Y-15270436D01*
X9121682Y-15270436D02*
X9112158Y-15279960D01*
X9112158Y-15279960D02*
X9093110Y-15289484D01*
X9093110Y-15289484D02*
X9074063Y-15289484D01*
X9074063Y-15289484D02*
X9055015Y-15279960D01*
X9055015Y-15279960D02*
X9045491Y-15270436D01*
X9045491Y-15270436D02*
X9035967Y-15251388D01*
X9035967Y-15251388D02*
X9026444Y-15213293D01*
X9026444Y-15213293D02*
X9026444Y-15165674D01*
X9026444Y-15165674D02*
X9035967Y-15127579D01*
X9035967Y-15127579D02*
X9045491Y-15108531D01*
X9045491Y-15108531D02*
X9055015Y-15099008D01*
X9055015Y-15099008D02*
X9074063Y-15089484D01*
X9264539Y-15089484D02*
X9283586Y-15089484D01*
X9283586Y-15089484D02*
X9302634Y-15099008D01*
X9302634Y-15099008D02*
X9312158Y-15108531D01*
X9312158Y-15108531D02*
X9321682Y-15127579D01*
X9321682Y-15127579D02*
X9331205Y-15165674D01*
X9331205Y-15165674D02*
X9331205Y-15213293D01*
X9331205Y-15213293D02*
X9321682Y-15251388D01*
X9321682Y-15251388D02*
X9312158Y-15270436D01*
X9312158Y-15270436D02*
X9302634Y-15279960D01*
X9302634Y-15279960D02*
X9283586Y-15289484D01*
X9283586Y-15289484D02*
X9264539Y-15289484D01*
X9264539Y-15289484D02*
X9245491Y-15279960D01*
X9245491Y-15279960D02*
X9235967Y-15270436D01*
X9235967Y-15270436D02*
X9226444Y-15251388D01*
X9226444Y-15251388D02*
X9216920Y-15213293D01*
X9216920Y-15213293D02*
X9216920Y-15165674D01*
X9216920Y-15165674D02*
X9226444Y-15127579D01*
X9226444Y-15127579D02*
X9235967Y-15108531D01*
X9235967Y-15108531D02*
X9245491Y-15099008D01*
X9245491Y-15099008D02*
X9264539Y-15089484D01*
X9416920Y-15289484D02*
X9416920Y-15156150D01*
X9416920Y-15175198D02*
X9426444Y-15165674D01*
X9426444Y-15165674D02*
X9445491Y-15156150D01*
X9445491Y-15156150D02*
X9474063Y-15156150D01*
X9474063Y-15156150D02*
X9493110Y-15165674D01*
X9493110Y-15165674D02*
X9502634Y-15184722D01*
X9502634Y-15184722D02*
X9502634Y-15289484D01*
X9502634Y-15184722D02*
X9512158Y-15165674D01*
X9512158Y-15165674D02*
X9531205Y-15156150D01*
X9531205Y-15156150D02*
X9559777Y-15156150D01*
X9559777Y-15156150D02*
X9578825Y-15165674D01*
X9578825Y-15165674D02*
X9588348Y-15184722D01*
X9588348Y-15184722D02*
X9588348Y-15289484D01*
X9683586Y-15289484D02*
X9683586Y-15156150D01*
X9683586Y-15175198D02*
X9693110Y-15165674D01*
X9693110Y-15165674D02*
X9712158Y-15156150D01*
X9712158Y-15156150D02*
X9740729Y-15156150D01*
X9740729Y-15156150D02*
X9759777Y-15165674D01*
X9759777Y-15165674D02*
X9769301Y-15184722D01*
X9769301Y-15184722D02*
X9769301Y-15289484D01*
X9769301Y-15184722D02*
X9778825Y-15165674D01*
X9778825Y-15165674D02*
X9797872Y-15156150D01*
X9797872Y-15156150D02*
X9826444Y-15156150D01*
X9826444Y-15156150D02*
X9845491Y-15165674D01*
X9845491Y-15165674D02*
X9855015Y-15184722D01*
X9855015Y-15184722D02*
X9855015Y-15289484D01*
X10245491Y-15079960D02*
X10074063Y-15337103D01*
X10502634Y-15089484D02*
X10521682Y-15089484D01*
X10521682Y-15089484D02*
X10540729Y-15099008D01*
X10540729Y-15099008D02*
X10550253Y-15108531D01*
X10550253Y-15108531D02*
X10559777Y-15127579D01*
X10559777Y-15127579D02*
X10569301Y-15165674D01*
X10569301Y-15165674D02*
X10569301Y-15213293D01*
X10569301Y-15213293D02*
X10559777Y-15251388D01*
X10559777Y-15251388D02*
X10550253Y-15270436D01*
X10550253Y-15270436D02*
X10540729Y-15279960D01*
X10540729Y-15279960D02*
X10521682Y-15289484D01*
X10521682Y-15289484D02*
X10502634Y-15289484D01*
X10502634Y-15289484D02*
X10483587Y-15279960D01*
X10483587Y-15279960D02*
X10474063Y-15270436D01*
X10474063Y-15270436D02*
X10464539Y-15251388D01*
X10464539Y-15251388D02*
X10455015Y-15213293D01*
X10455015Y-15213293D02*
X10455015Y-15165674D01*
X10455015Y-15165674D02*
X10464539Y-15127579D01*
X10464539Y-15127579D02*
X10474063Y-15108531D01*
X10474063Y-15108531D02*
X10483587Y-15099008D01*
X10483587Y-15099008D02*
X10502634Y-15089484D01*
X10655015Y-15270436D02*
X10664539Y-15279960D01*
X10664539Y-15279960D02*
X10655015Y-15289484D01*
X10655015Y-15289484D02*
X10645491Y-15279960D01*
X10645491Y-15279960D02*
X10655015Y-15270436D01*
X10655015Y-15270436D02*
X10655015Y-15289484D01*
X10788348Y-15089484D02*
X10807396Y-15089484D01*
X10807396Y-15089484D02*
X10826444Y-15099008D01*
X10826444Y-15099008D02*
X10835968Y-15108531D01*
X10835968Y-15108531D02*
X10845491Y-15127579D01*
X10845491Y-15127579D02*
X10855015Y-15165674D01*
X10855015Y-15165674D02*
X10855015Y-15213293D01*
X10855015Y-15213293D02*
X10845491Y-15251388D01*
X10845491Y-15251388D02*
X10835968Y-15270436D01*
X10835968Y-15270436D02*
X10826444Y-15279960D01*
X10826444Y-15279960D02*
X10807396Y-15289484D01*
X10807396Y-15289484D02*
X10788348Y-15289484D01*
X10788348Y-15289484D02*
X10769301Y-15279960D01*
X10769301Y-15279960D02*
X10759777Y-15270436D01*
X10759777Y-15270436D02*
X10750253Y-15251388D01*
X10750253Y-15251388D02*
X10740729Y-15213293D01*
X10740729Y-15213293D02*
X10740729Y-15165674D01*
X10740729Y-15165674D02*
X10750253Y-15127579D01*
X10750253Y-15127579D02*
X10759777Y-15108531D01*
X10759777Y-15108531D02*
X10769301Y-15099008D01*
X10769301Y-15099008D02*
X10788348Y-15089484D01*
X11035968Y-15089484D02*
X10940729Y-15089484D01*
X10940729Y-15089484D02*
X10931206Y-15184722D01*
X10931206Y-15184722D02*
X10940729Y-15175198D01*
X10940729Y-15175198D02*
X10959777Y-15165674D01*
X10959777Y-15165674D02*
X11007396Y-15165674D01*
X11007396Y-15165674D02*
X11026444Y-15175198D01*
X11026444Y-15175198D02*
X11035968Y-15184722D01*
X11035968Y-15184722D02*
X11045491Y-15203769D01*
X11045491Y-15203769D02*
X11045491Y-15251388D01*
X11045491Y-15251388D02*
X11035968Y-15270436D01*
X11035968Y-15270436D02*
X11026444Y-15279960D01*
X11026444Y-15279960D02*
X11007396Y-15289484D01*
X11007396Y-15289484D02*
X10959777Y-15289484D01*
X10959777Y-15289484D02*
X10940729Y-15279960D01*
X10940729Y-15279960D02*
X10931206Y-15270436D01*
X11226444Y-15089484D02*
X11131206Y-15089484D01*
X11131206Y-15089484D02*
X11121682Y-15184722D01*
X11121682Y-15184722D02*
X11131206Y-15175198D01*
X11131206Y-15175198D02*
X11150253Y-15165674D01*
X11150253Y-15165674D02*
X11197872Y-15165674D01*
X11197872Y-15165674D02*
X11216920Y-15175198D01*
X11216920Y-15175198D02*
X11226444Y-15184722D01*
X11226444Y-15184722D02*
X11235967Y-15203769D01*
X11235967Y-15203769D02*
X11235967Y-15251388D01*
X11235967Y-15251388D02*
X11226444Y-15270436D01*
X11226444Y-15270436D02*
X11216920Y-15279960D01*
X11216920Y-15279960D02*
X11197872Y-15289484D01*
X11197872Y-15289484D02*
X11150253Y-15289484D01*
X11150253Y-15289484D02*
X11131206Y-15279960D01*
X11131206Y-15279960D02*
X11121682Y-15270436D01*
X11426444Y-15289484D02*
X11312158Y-15289484D01*
X11369301Y-15289484D02*
X11369301Y-15089484D01*
X11369301Y-15089484D02*
X11350253Y-15118055D01*
X11350253Y-15118055D02*
X11331206Y-15137103D01*
X11331206Y-15137103D02*
X11312158Y-15146627D01*
X11502634Y-15089484D02*
X11502634Y-15127579D01*
X11578825Y-15089484D02*
X11578825Y-15127579D01*
X11874063Y-15365674D02*
X11864539Y-15356150D01*
X11864539Y-15356150D02*
X11845491Y-15327579D01*
X11845491Y-15327579D02*
X11835968Y-15308531D01*
X11835968Y-15308531D02*
X11826444Y-15279960D01*
X11826444Y-15279960D02*
X11816920Y-15232341D01*
X11816920Y-15232341D02*
X11816920Y-15194246D01*
X11816920Y-15194246D02*
X11826444Y-15146627D01*
X11826444Y-15146627D02*
X11835968Y-15118055D01*
X11835968Y-15118055D02*
X11845491Y-15099008D01*
X11845491Y-15099008D02*
X11864539Y-15070436D01*
X11864539Y-15070436D02*
X11874063Y-15060912D01*
X11940729Y-15108531D02*
X11950253Y-15099008D01*
X11950253Y-15099008D02*
X11969301Y-15089484D01*
X11969301Y-15089484D02*
X12016920Y-15089484D01*
X12016920Y-15089484D02*
X12035968Y-15099008D01*
X12035968Y-15099008D02*
X12045491Y-15108531D01*
X12045491Y-15108531D02*
X12055015Y-15127579D01*
X12055015Y-15127579D02*
X12055015Y-15146627D01*
X12055015Y-15146627D02*
X12045491Y-15175198D01*
X12045491Y-15175198D02*
X11931206Y-15289484D01*
X11931206Y-15289484D02*
X12055015Y-15289484D01*
X12293110Y-15289484D02*
X12293110Y-15089484D01*
X12378825Y-15289484D02*
X12378825Y-15184722D01*
X12378825Y-15184722D02*
X12369301Y-15165674D01*
X12369301Y-15165674D02*
X12350253Y-15156150D01*
X12350253Y-15156150D02*
X12321682Y-15156150D01*
X12321682Y-15156150D02*
X12302634Y-15165674D01*
X12302634Y-15165674D02*
X12293110Y-15175198D01*
X12502634Y-15289484D02*
X12483587Y-15279960D01*
X12483587Y-15279960D02*
X12474063Y-15270436D01*
X12474063Y-15270436D02*
X12464539Y-15251388D01*
X12464539Y-15251388D02*
X12464539Y-15194246D01*
X12464539Y-15194246D02*
X12474063Y-15175198D01*
X12474063Y-15175198D02*
X12483587Y-15165674D01*
X12483587Y-15165674D02*
X12502634Y-15156150D01*
X12502634Y-15156150D02*
X12531206Y-15156150D01*
X12531206Y-15156150D02*
X12550253Y-15165674D01*
X12550253Y-15165674D02*
X12559777Y-15175198D01*
X12559777Y-15175198D02*
X12569301Y-15194246D01*
X12569301Y-15194246D02*
X12569301Y-15251388D01*
X12569301Y-15251388D02*
X12559777Y-15270436D01*
X12559777Y-15270436D02*
X12550253Y-15279960D01*
X12550253Y-15279960D02*
X12531206Y-15289484D01*
X12531206Y-15289484D02*
X12502634Y-15289484D01*
X12683587Y-15289484D02*
X12664539Y-15279960D01*
X12664539Y-15279960D02*
X12655015Y-15260912D01*
X12655015Y-15260912D02*
X12655015Y-15089484D01*
X12835968Y-15279960D02*
X12816920Y-15289484D01*
X12816920Y-15289484D02*
X12778825Y-15289484D01*
X12778825Y-15289484D02*
X12759777Y-15279960D01*
X12759777Y-15279960D02*
X12750253Y-15260912D01*
X12750253Y-15260912D02*
X12750253Y-15184722D01*
X12750253Y-15184722D02*
X12759777Y-15165674D01*
X12759777Y-15165674D02*
X12778825Y-15156150D01*
X12778825Y-15156150D02*
X12816920Y-15156150D01*
X12816920Y-15156150D02*
X12835968Y-15165674D01*
X12835968Y-15165674D02*
X12845491Y-15184722D01*
X12845491Y-15184722D02*
X12845491Y-15203769D01*
X12845491Y-15203769D02*
X12750253Y-15222817D01*
X12921682Y-15279960D02*
X12940730Y-15289484D01*
X12940730Y-15289484D02*
X12978825Y-15289484D01*
X12978825Y-15289484D02*
X12997872Y-15279960D01*
X12997872Y-15279960D02*
X13007396Y-15260912D01*
X13007396Y-15260912D02*
X13007396Y-15251388D01*
X13007396Y-15251388D02*
X12997872Y-15232341D01*
X12997872Y-15232341D02*
X12978825Y-15222817D01*
X12978825Y-15222817D02*
X12950253Y-15222817D01*
X12950253Y-15222817D02*
X12931206Y-15213293D01*
X12931206Y-15213293D02*
X12921682Y-15194246D01*
X12921682Y-15194246D02*
X12921682Y-15184722D01*
X12921682Y-15184722D02*
X12931206Y-15165674D01*
X12931206Y-15165674D02*
X12950253Y-15156150D01*
X12950253Y-15156150D02*
X12978825Y-15156150D01*
X12978825Y-15156150D02*
X12997872Y-15165674D01*
X13074063Y-15365674D02*
X13083587Y-15356150D01*
X13083587Y-15356150D02*
X13102634Y-15327579D01*
X13102634Y-15327579D02*
X13112158Y-15308531D01*
X13112158Y-15308531D02*
X13121682Y-15279960D01*
X13121682Y-15279960D02*
X13131206Y-15232341D01*
X13131206Y-15232341D02*
X13131206Y-15194246D01*
X13131206Y-15194246D02*
X13121682Y-15146627D01*
X13121682Y-15146627D02*
X13112158Y-15118055D01*
X13112158Y-15118055D02*
X13102634Y-15099008D01*
X13102634Y-15099008D02*
X13083587Y-15070436D01*
X13083587Y-15070436D02*
X13074063Y-15060912D01*
X8099000Y-15362000D02*
X8299000Y-15562000D01*
X8299000Y-15362000D02*
X8099000Y-15562000D01*
X8199000Y-15562000D02*
X8299000Y-15462000D01*
X8199000Y-15362000D01*
X8099000Y-15462000D01*
X8199000Y-15562000D01*
X8550253Y-15372531D02*
X8559777Y-15363008D01*
X8559777Y-15363008D02*
X8578824Y-15353484D01*
X8578824Y-15353484D02*
X8626444Y-15353484D01*
X8626444Y-15353484D02*
X8645491Y-15363008D01*
X8645491Y-15363008D02*
X8655015Y-15372531D01*
X8655015Y-15372531D02*
X8664539Y-15391579D01*
X8664539Y-15391579D02*
X8664539Y-15410627D01*
X8664539Y-15410627D02*
X8655015Y-15439198D01*
X8655015Y-15439198D02*
X8540729Y-15553484D01*
X8540729Y-15553484D02*
X8664539Y-15553484D01*
X8750253Y-15534436D02*
X8759777Y-15543960D01*
X8759777Y-15543960D02*
X8750253Y-15553484D01*
X8750253Y-15553484D02*
X8740729Y-15543960D01*
X8740729Y-15543960D02*
X8750253Y-15534436D01*
X8750253Y-15534436D02*
X8750253Y-15553484D01*
X8940729Y-15353484D02*
X8845491Y-15353484D01*
X8845491Y-15353484D02*
X8835967Y-15448722D01*
X8835967Y-15448722D02*
X8845491Y-15439198D01*
X8845491Y-15439198D02*
X8864539Y-15429674D01*
X8864539Y-15429674D02*
X8912158Y-15429674D01*
X8912158Y-15429674D02*
X8931205Y-15439198D01*
X8931205Y-15439198D02*
X8940729Y-15448722D01*
X8940729Y-15448722D02*
X8950253Y-15467769D01*
X8950253Y-15467769D02*
X8950253Y-15515388D01*
X8950253Y-15515388D02*
X8940729Y-15534436D01*
X8940729Y-15534436D02*
X8931205Y-15543960D01*
X8931205Y-15543960D02*
X8912158Y-15553484D01*
X8912158Y-15553484D02*
X8864539Y-15553484D01*
X8864539Y-15553484D02*
X8845491Y-15543960D01*
X8845491Y-15543960D02*
X8835967Y-15534436D01*
X9074063Y-15353484D02*
X9093110Y-15353484D01*
X9093110Y-15353484D02*
X9112158Y-15363008D01*
X9112158Y-15363008D02*
X9121682Y-15372531D01*
X9121682Y-15372531D02*
X9131205Y-15391579D01*
X9131205Y-15391579D02*
X9140729Y-15429674D01*
X9140729Y-15429674D02*
X9140729Y-15477293D01*
X9140729Y-15477293D02*
X9131205Y-15515388D01*
X9131205Y-15515388D02*
X9121682Y-15534436D01*
X9121682Y-15534436D02*
X9112158Y-15543960D01*
X9112158Y-15543960D02*
X9093110Y-15553484D01*
X9093110Y-15553484D02*
X9074063Y-15553484D01*
X9074063Y-15553484D02*
X9055015Y-15543960D01*
X9055015Y-15543960D02*
X9045491Y-15534436D01*
X9045491Y-15534436D02*
X9035967Y-15515388D01*
X9035967Y-15515388D02*
X9026444Y-15477293D01*
X9026444Y-15477293D02*
X9026444Y-15429674D01*
X9026444Y-15429674D02*
X9035967Y-15391579D01*
X9035967Y-15391579D02*
X9045491Y-15372531D01*
X9045491Y-15372531D02*
X9055015Y-15363008D01*
X9055015Y-15363008D02*
X9074063Y-15353484D01*
X9264539Y-15353484D02*
X9283586Y-15353484D01*
X9283586Y-15353484D02*
X9302634Y-15363008D01*
X9302634Y-15363008D02*
X9312158Y-15372531D01*
X9312158Y-15372531D02*
X9321682Y-15391579D01*
X9321682Y-15391579D02*
X9331205Y-15429674D01*
X9331205Y-15429674D02*
X9331205Y-15477293D01*
X9331205Y-15477293D02*
X9321682Y-15515388D01*
X9321682Y-15515388D02*
X9312158Y-15534436D01*
X9312158Y-15534436D02*
X9302634Y-15543960D01*
X9302634Y-15543960D02*
X9283586Y-15553484D01*
X9283586Y-15553484D02*
X9264539Y-15553484D01*
X9264539Y-15553484D02*
X9245491Y-15543960D01*
X9245491Y-15543960D02*
X9235967Y-15534436D01*
X9235967Y-15534436D02*
X9226444Y-15515388D01*
X9226444Y-15515388D02*
X9216920Y-15477293D01*
X9216920Y-15477293D02*
X9216920Y-15429674D01*
X9216920Y-15429674D02*
X9226444Y-15391579D01*
X9226444Y-15391579D02*
X9235967Y-15372531D01*
X9235967Y-15372531D02*
X9245491Y-15363008D01*
X9245491Y-15363008D02*
X9264539Y-15353484D01*
X9416920Y-15553484D02*
X9416920Y-15420150D01*
X9416920Y-15439198D02*
X9426444Y-15429674D01*
X9426444Y-15429674D02*
X9445491Y-15420150D01*
X9445491Y-15420150D02*
X9474063Y-15420150D01*
X9474063Y-15420150D02*
X9493110Y-15429674D01*
X9493110Y-15429674D02*
X9502634Y-15448722D01*
X9502634Y-15448722D02*
X9502634Y-15553484D01*
X9502634Y-15448722D02*
X9512158Y-15429674D01*
X9512158Y-15429674D02*
X9531205Y-15420150D01*
X9531205Y-15420150D02*
X9559777Y-15420150D01*
X9559777Y-15420150D02*
X9578825Y-15429674D01*
X9578825Y-15429674D02*
X9588348Y-15448722D01*
X9588348Y-15448722D02*
X9588348Y-15553484D01*
X9683586Y-15553484D02*
X9683586Y-15420150D01*
X9683586Y-15439198D02*
X9693110Y-15429674D01*
X9693110Y-15429674D02*
X9712158Y-15420150D01*
X9712158Y-15420150D02*
X9740729Y-15420150D01*
X9740729Y-15420150D02*
X9759777Y-15429674D01*
X9759777Y-15429674D02*
X9769301Y-15448722D01*
X9769301Y-15448722D02*
X9769301Y-15553484D01*
X9769301Y-15448722D02*
X9778825Y-15429674D01*
X9778825Y-15429674D02*
X9797872Y-15420150D01*
X9797872Y-15420150D02*
X9826444Y-15420150D01*
X9826444Y-15420150D02*
X9845491Y-15429674D01*
X9845491Y-15429674D02*
X9855015Y-15448722D01*
X9855015Y-15448722D02*
X9855015Y-15553484D01*
X10245491Y-15343960D02*
X10074063Y-15601103D01*
X10502634Y-15353484D02*
X10521682Y-15353484D01*
X10521682Y-15353484D02*
X10540729Y-15363008D01*
X10540729Y-15363008D02*
X10550253Y-15372531D01*
X10550253Y-15372531D02*
X10559777Y-15391579D01*
X10559777Y-15391579D02*
X10569301Y-15429674D01*
X10569301Y-15429674D02*
X10569301Y-15477293D01*
X10569301Y-15477293D02*
X10559777Y-15515388D01*
X10559777Y-15515388D02*
X10550253Y-15534436D01*
X10550253Y-15534436D02*
X10540729Y-15543960D01*
X10540729Y-15543960D02*
X10521682Y-15553484D01*
X10521682Y-15553484D02*
X10502634Y-15553484D01*
X10502634Y-15553484D02*
X10483587Y-15543960D01*
X10483587Y-15543960D02*
X10474063Y-15534436D01*
X10474063Y-15534436D02*
X10464539Y-15515388D01*
X10464539Y-15515388D02*
X10455015Y-15477293D01*
X10455015Y-15477293D02*
X10455015Y-15429674D01*
X10455015Y-15429674D02*
X10464539Y-15391579D01*
X10464539Y-15391579D02*
X10474063Y-15372531D01*
X10474063Y-15372531D02*
X10483587Y-15363008D01*
X10483587Y-15363008D02*
X10502634Y-15353484D01*
X10655015Y-15534436D02*
X10664539Y-15543960D01*
X10664539Y-15543960D02*
X10655015Y-15553484D01*
X10655015Y-15553484D02*
X10645491Y-15543960D01*
X10645491Y-15543960D02*
X10655015Y-15534436D01*
X10655015Y-15534436D02*
X10655015Y-15553484D01*
X10788348Y-15353484D02*
X10807396Y-15353484D01*
X10807396Y-15353484D02*
X10826444Y-15363008D01*
X10826444Y-15363008D02*
X10835968Y-15372531D01*
X10835968Y-15372531D02*
X10845491Y-15391579D01*
X10845491Y-15391579D02*
X10855015Y-15429674D01*
X10855015Y-15429674D02*
X10855015Y-15477293D01*
X10855015Y-15477293D02*
X10845491Y-15515388D01*
X10845491Y-15515388D02*
X10835968Y-15534436D01*
X10835968Y-15534436D02*
X10826444Y-15543960D01*
X10826444Y-15543960D02*
X10807396Y-15553484D01*
X10807396Y-15553484D02*
X10788348Y-15553484D01*
X10788348Y-15553484D02*
X10769301Y-15543960D01*
X10769301Y-15543960D02*
X10759777Y-15534436D01*
X10759777Y-15534436D02*
X10750253Y-15515388D01*
X10750253Y-15515388D02*
X10740729Y-15477293D01*
X10740729Y-15477293D02*
X10740729Y-15429674D01*
X10740729Y-15429674D02*
X10750253Y-15391579D01*
X10750253Y-15391579D02*
X10759777Y-15372531D01*
X10759777Y-15372531D02*
X10769301Y-15363008D01*
X10769301Y-15363008D02*
X10788348Y-15353484D01*
X10950253Y-15553484D02*
X10988348Y-15553484D01*
X10988348Y-15553484D02*
X11007396Y-15543960D01*
X11007396Y-15543960D02*
X11016920Y-15534436D01*
X11016920Y-15534436D02*
X11035968Y-15505865D01*
X11035968Y-15505865D02*
X11045491Y-15467769D01*
X11045491Y-15467769D02*
X11045491Y-15391579D01*
X11045491Y-15391579D02*
X11035968Y-15372531D01*
X11035968Y-15372531D02*
X11026444Y-15363008D01*
X11026444Y-15363008D02*
X11007396Y-15353484D01*
X11007396Y-15353484D02*
X10969301Y-15353484D01*
X10969301Y-15353484D02*
X10950253Y-15363008D01*
X10950253Y-15363008D02*
X10940729Y-15372531D01*
X10940729Y-15372531D02*
X10931206Y-15391579D01*
X10931206Y-15391579D02*
X10931206Y-15439198D01*
X10931206Y-15439198D02*
X10940729Y-15458246D01*
X10940729Y-15458246D02*
X10950253Y-15467769D01*
X10950253Y-15467769D02*
X10969301Y-15477293D01*
X10969301Y-15477293D02*
X11007396Y-15477293D01*
X11007396Y-15477293D02*
X11026444Y-15467769D01*
X11026444Y-15467769D02*
X11035968Y-15458246D01*
X11035968Y-15458246D02*
X11045491Y-15439198D01*
X11159777Y-15439198D02*
X11140729Y-15429674D01*
X11140729Y-15429674D02*
X11131206Y-15420150D01*
X11131206Y-15420150D02*
X11121682Y-15401103D01*
X11121682Y-15401103D02*
X11121682Y-15391579D01*
X11121682Y-15391579D02*
X11131206Y-15372531D01*
X11131206Y-15372531D02*
X11140729Y-15363008D01*
X11140729Y-15363008D02*
X11159777Y-15353484D01*
X11159777Y-15353484D02*
X11197872Y-15353484D01*
X11197872Y-15353484D02*
X11216920Y-15363008D01*
X11216920Y-15363008D02*
X11226444Y-15372531D01*
X11226444Y-15372531D02*
X11235967Y-15391579D01*
X11235967Y-15391579D02*
X11235967Y-15401103D01*
X11235967Y-15401103D02*
X11226444Y-15420150D01*
X11226444Y-15420150D02*
X11216920Y-15429674D01*
X11216920Y-15429674D02*
X11197872Y-15439198D01*
X11197872Y-15439198D02*
X11159777Y-15439198D01*
X11159777Y-15439198D02*
X11140729Y-15448722D01*
X11140729Y-15448722D02*
X11131206Y-15458246D01*
X11131206Y-15458246D02*
X11121682Y-15477293D01*
X11121682Y-15477293D02*
X11121682Y-15515388D01*
X11121682Y-15515388D02*
X11131206Y-15534436D01*
X11131206Y-15534436D02*
X11140729Y-15543960D01*
X11140729Y-15543960D02*
X11159777Y-15553484D01*
X11159777Y-15553484D02*
X11197872Y-15553484D01*
X11197872Y-15553484D02*
X11216920Y-15543960D01*
X11216920Y-15543960D02*
X11226444Y-15534436D01*
X11226444Y-15534436D02*
X11235967Y-15515388D01*
X11235967Y-15515388D02*
X11235967Y-15477293D01*
X11235967Y-15477293D02*
X11226444Y-15458246D01*
X11226444Y-15458246D02*
X11216920Y-15448722D01*
X11216920Y-15448722D02*
X11197872Y-15439198D01*
X11407396Y-15420150D02*
X11407396Y-15553484D01*
X11359777Y-15343960D02*
X11312158Y-15486817D01*
X11312158Y-15486817D02*
X11435967Y-15486817D01*
X11502634Y-15353484D02*
X11502634Y-15391579D01*
X11578825Y-15353484D02*
X11578825Y-15391579D01*
X11874063Y-15629674D02*
X11864539Y-15620150D01*
X11864539Y-15620150D02*
X11845491Y-15591579D01*
X11845491Y-15591579D02*
X11835968Y-15572531D01*
X11835968Y-15572531D02*
X11826444Y-15543960D01*
X11826444Y-15543960D02*
X11816920Y-15496341D01*
X11816920Y-15496341D02*
X11816920Y-15458246D01*
X11816920Y-15458246D02*
X11826444Y-15410627D01*
X11826444Y-15410627D02*
X11835968Y-15382055D01*
X11835968Y-15382055D02*
X11845491Y-15363008D01*
X11845491Y-15363008D02*
X11864539Y-15334436D01*
X11864539Y-15334436D02*
X11874063Y-15324912D01*
X11940729Y-15372531D02*
X11950253Y-15363008D01*
X11950253Y-15363008D02*
X11969301Y-15353484D01*
X11969301Y-15353484D02*
X12016920Y-15353484D01*
X12016920Y-15353484D02*
X12035968Y-15363008D01*
X12035968Y-15363008D02*
X12045491Y-15372531D01*
X12045491Y-15372531D02*
X12055015Y-15391579D01*
X12055015Y-15391579D02*
X12055015Y-15410627D01*
X12055015Y-15410627D02*
X12045491Y-15439198D01*
X12045491Y-15439198D02*
X11931206Y-15553484D01*
X11931206Y-15553484D02*
X12055015Y-15553484D01*
X12293110Y-15553484D02*
X12293110Y-15353484D01*
X12378825Y-15553484D02*
X12378825Y-15448722D01*
X12378825Y-15448722D02*
X12369301Y-15429674D01*
X12369301Y-15429674D02*
X12350253Y-15420150D01*
X12350253Y-15420150D02*
X12321682Y-15420150D01*
X12321682Y-15420150D02*
X12302634Y-15429674D01*
X12302634Y-15429674D02*
X12293110Y-15439198D01*
X12502634Y-15553484D02*
X12483587Y-15543960D01*
X12483587Y-15543960D02*
X12474063Y-15534436D01*
X12474063Y-15534436D02*
X12464539Y-15515388D01*
X12464539Y-15515388D02*
X12464539Y-15458246D01*
X12464539Y-15458246D02*
X12474063Y-15439198D01*
X12474063Y-15439198D02*
X12483587Y-15429674D01*
X12483587Y-15429674D02*
X12502634Y-15420150D01*
X12502634Y-15420150D02*
X12531206Y-15420150D01*
X12531206Y-15420150D02*
X12550253Y-15429674D01*
X12550253Y-15429674D02*
X12559777Y-15439198D01*
X12559777Y-15439198D02*
X12569301Y-15458246D01*
X12569301Y-15458246D02*
X12569301Y-15515388D01*
X12569301Y-15515388D02*
X12559777Y-15534436D01*
X12559777Y-15534436D02*
X12550253Y-15543960D01*
X12550253Y-15543960D02*
X12531206Y-15553484D01*
X12531206Y-15553484D02*
X12502634Y-15553484D01*
X12683587Y-15553484D02*
X12664539Y-15543960D01*
X12664539Y-15543960D02*
X12655015Y-15524912D01*
X12655015Y-15524912D02*
X12655015Y-15353484D01*
X12835968Y-15543960D02*
X12816920Y-15553484D01*
X12816920Y-15553484D02*
X12778825Y-15553484D01*
X12778825Y-15553484D02*
X12759777Y-15543960D01*
X12759777Y-15543960D02*
X12750253Y-15524912D01*
X12750253Y-15524912D02*
X12750253Y-15448722D01*
X12750253Y-15448722D02*
X12759777Y-15429674D01*
X12759777Y-15429674D02*
X12778825Y-15420150D01*
X12778825Y-15420150D02*
X12816920Y-15420150D01*
X12816920Y-15420150D02*
X12835968Y-15429674D01*
X12835968Y-15429674D02*
X12845491Y-15448722D01*
X12845491Y-15448722D02*
X12845491Y-15467769D01*
X12845491Y-15467769D02*
X12750253Y-15486817D01*
X12921682Y-15543960D02*
X12940730Y-15553484D01*
X12940730Y-15553484D02*
X12978825Y-15553484D01*
X12978825Y-15553484D02*
X12997872Y-15543960D01*
X12997872Y-15543960D02*
X13007396Y-15524912D01*
X13007396Y-15524912D02*
X13007396Y-15515388D01*
X13007396Y-15515388D02*
X12997872Y-15496341D01*
X12997872Y-15496341D02*
X12978825Y-15486817D01*
X12978825Y-15486817D02*
X12950253Y-15486817D01*
X12950253Y-15486817D02*
X12931206Y-15477293D01*
X12931206Y-15477293D02*
X12921682Y-15458246D01*
X12921682Y-15458246D02*
X12921682Y-15448722D01*
X12921682Y-15448722D02*
X12931206Y-15429674D01*
X12931206Y-15429674D02*
X12950253Y-15420150D01*
X12950253Y-15420150D02*
X12978825Y-15420150D01*
X12978825Y-15420150D02*
X12997872Y-15429674D01*
X13074063Y-15629674D02*
X13083587Y-15620150D01*
X13083587Y-15620150D02*
X13102634Y-15591579D01*
X13102634Y-15591579D02*
X13112158Y-15572531D01*
X13112158Y-15572531D02*
X13121682Y-15543960D01*
X13121682Y-15543960D02*
X13131206Y-15496341D01*
X13131206Y-15496341D02*
X13131206Y-15458246D01*
X13131206Y-15458246D02*
X13121682Y-15410627D01*
X13121682Y-15410627D02*
X13112158Y-15382055D01*
X13112158Y-15382055D02*
X13102634Y-15363008D01*
X13102634Y-15363008D02*
X13083587Y-15334436D01*
X13083587Y-15334436D02*
X13074063Y-15324912D01*
X8199000Y-15682000D02*
X8199000Y-15882000D01*
X8099000Y-15782000D02*
X8299000Y-15782000D01*
X8299000Y-15782000D02*
G75*
G02*
X8099000Y-15782000I-100000J0D01*
G01*
X8099000Y-15782000D02*
G75*
G02*
X8299000Y-15782000I100000J0D01*
G01*
X8550253Y-15692531D02*
X8559777Y-15683008D01*
X8559777Y-15683008D02*
X8578824Y-15673484D01*
X8578824Y-15673484D02*
X8626444Y-15673484D01*
X8626444Y-15673484D02*
X8645491Y-15683008D01*
X8645491Y-15683008D02*
X8655015Y-15692531D01*
X8655015Y-15692531D02*
X8664539Y-15711579D01*
X8664539Y-15711579D02*
X8664539Y-15730627D01*
X8664539Y-15730627D02*
X8655015Y-15759198D01*
X8655015Y-15759198D02*
X8540729Y-15873484D01*
X8540729Y-15873484D02*
X8664539Y-15873484D01*
X8750253Y-15854436D02*
X8759777Y-15863960D01*
X8759777Y-15863960D02*
X8750253Y-15873484D01*
X8750253Y-15873484D02*
X8740729Y-15863960D01*
X8740729Y-15863960D02*
X8750253Y-15854436D01*
X8750253Y-15854436D02*
X8750253Y-15873484D01*
X8940729Y-15673484D02*
X8845491Y-15673484D01*
X8845491Y-15673484D02*
X8835967Y-15768722D01*
X8835967Y-15768722D02*
X8845491Y-15759198D01*
X8845491Y-15759198D02*
X8864539Y-15749674D01*
X8864539Y-15749674D02*
X8912158Y-15749674D01*
X8912158Y-15749674D02*
X8931205Y-15759198D01*
X8931205Y-15759198D02*
X8940729Y-15768722D01*
X8940729Y-15768722D02*
X8950253Y-15787769D01*
X8950253Y-15787769D02*
X8950253Y-15835388D01*
X8950253Y-15835388D02*
X8940729Y-15854436D01*
X8940729Y-15854436D02*
X8931205Y-15863960D01*
X8931205Y-15863960D02*
X8912158Y-15873484D01*
X8912158Y-15873484D02*
X8864539Y-15873484D01*
X8864539Y-15873484D02*
X8845491Y-15863960D01*
X8845491Y-15863960D02*
X8835967Y-15854436D01*
X9121682Y-15740150D02*
X9121682Y-15873484D01*
X9074063Y-15663960D02*
X9026444Y-15806817D01*
X9026444Y-15806817D02*
X9150253Y-15806817D01*
X9264539Y-15673484D02*
X9283586Y-15673484D01*
X9283586Y-15673484D02*
X9302634Y-15683008D01*
X9302634Y-15683008D02*
X9312158Y-15692531D01*
X9312158Y-15692531D02*
X9321682Y-15711579D01*
X9321682Y-15711579D02*
X9331205Y-15749674D01*
X9331205Y-15749674D02*
X9331205Y-15797293D01*
X9331205Y-15797293D02*
X9321682Y-15835388D01*
X9321682Y-15835388D02*
X9312158Y-15854436D01*
X9312158Y-15854436D02*
X9302634Y-15863960D01*
X9302634Y-15863960D02*
X9283586Y-15873484D01*
X9283586Y-15873484D02*
X9264539Y-15873484D01*
X9264539Y-15873484D02*
X9245491Y-15863960D01*
X9245491Y-15863960D02*
X9235967Y-15854436D01*
X9235967Y-15854436D02*
X9226444Y-15835388D01*
X9226444Y-15835388D02*
X9216920Y-15797293D01*
X9216920Y-15797293D02*
X9216920Y-15749674D01*
X9216920Y-15749674D02*
X9226444Y-15711579D01*
X9226444Y-15711579D02*
X9235967Y-15692531D01*
X9235967Y-15692531D02*
X9245491Y-15683008D01*
X9245491Y-15683008D02*
X9264539Y-15673484D01*
X9416920Y-15873484D02*
X9416920Y-15740150D01*
X9416920Y-15759198D02*
X9426444Y-15749674D01*
X9426444Y-15749674D02*
X9445491Y-15740150D01*
X9445491Y-15740150D02*
X9474063Y-15740150D01*
X9474063Y-15740150D02*
X9493110Y-15749674D01*
X9493110Y-15749674D02*
X9502634Y-15768722D01*
X9502634Y-15768722D02*
X9502634Y-15873484D01*
X9502634Y-15768722D02*
X9512158Y-15749674D01*
X9512158Y-15749674D02*
X9531205Y-15740150D01*
X9531205Y-15740150D02*
X9559777Y-15740150D01*
X9559777Y-15740150D02*
X9578825Y-15749674D01*
X9578825Y-15749674D02*
X9588348Y-15768722D01*
X9588348Y-15768722D02*
X9588348Y-15873484D01*
X9683586Y-15873484D02*
X9683586Y-15740150D01*
X9683586Y-15759198D02*
X9693110Y-15749674D01*
X9693110Y-15749674D02*
X9712158Y-15740150D01*
X9712158Y-15740150D02*
X9740729Y-15740150D01*
X9740729Y-15740150D02*
X9759777Y-15749674D01*
X9759777Y-15749674D02*
X9769301Y-15768722D01*
X9769301Y-15768722D02*
X9769301Y-15873484D01*
X9769301Y-15768722D02*
X9778825Y-15749674D01*
X9778825Y-15749674D02*
X9797872Y-15740150D01*
X9797872Y-15740150D02*
X9826444Y-15740150D01*
X9826444Y-15740150D02*
X9845491Y-15749674D01*
X9845491Y-15749674D02*
X9855015Y-15768722D01*
X9855015Y-15768722D02*
X9855015Y-15873484D01*
X10245491Y-15663960D02*
X10074063Y-15921103D01*
X10502634Y-15673484D02*
X10521682Y-15673484D01*
X10521682Y-15673484D02*
X10540729Y-15683008D01*
X10540729Y-15683008D02*
X10550253Y-15692531D01*
X10550253Y-15692531D02*
X10559777Y-15711579D01*
X10559777Y-15711579D02*
X10569301Y-15749674D01*
X10569301Y-15749674D02*
X10569301Y-15797293D01*
X10569301Y-15797293D02*
X10559777Y-15835388D01*
X10559777Y-15835388D02*
X10550253Y-15854436D01*
X10550253Y-15854436D02*
X10540729Y-15863960D01*
X10540729Y-15863960D02*
X10521682Y-15873484D01*
X10521682Y-15873484D02*
X10502634Y-15873484D01*
X10502634Y-15873484D02*
X10483587Y-15863960D01*
X10483587Y-15863960D02*
X10474063Y-15854436D01*
X10474063Y-15854436D02*
X10464539Y-15835388D01*
X10464539Y-15835388D02*
X10455015Y-15797293D01*
X10455015Y-15797293D02*
X10455015Y-15749674D01*
X10455015Y-15749674D02*
X10464539Y-15711579D01*
X10464539Y-15711579D02*
X10474063Y-15692531D01*
X10474063Y-15692531D02*
X10483587Y-15683008D01*
X10483587Y-15683008D02*
X10502634Y-15673484D01*
X10655015Y-15854436D02*
X10664539Y-15863960D01*
X10664539Y-15863960D02*
X10655015Y-15873484D01*
X10655015Y-15873484D02*
X10645491Y-15863960D01*
X10645491Y-15863960D02*
X10655015Y-15854436D01*
X10655015Y-15854436D02*
X10655015Y-15873484D01*
X10855015Y-15873484D02*
X10740729Y-15873484D01*
X10797872Y-15873484D02*
X10797872Y-15673484D01*
X10797872Y-15673484D02*
X10778825Y-15702055D01*
X10778825Y-15702055D02*
X10759777Y-15721103D01*
X10759777Y-15721103D02*
X10740729Y-15730627D01*
X10978825Y-15673484D02*
X10997872Y-15673484D01*
X10997872Y-15673484D02*
X11016920Y-15683008D01*
X11016920Y-15683008D02*
X11026444Y-15692531D01*
X11026444Y-15692531D02*
X11035968Y-15711579D01*
X11035968Y-15711579D02*
X11045491Y-15749674D01*
X11045491Y-15749674D02*
X11045491Y-15797293D01*
X11045491Y-15797293D02*
X11035968Y-15835388D01*
X11035968Y-15835388D02*
X11026444Y-15854436D01*
X11026444Y-15854436D02*
X11016920Y-15863960D01*
X11016920Y-15863960D02*
X10997872Y-15873484D01*
X10997872Y-15873484D02*
X10978825Y-15873484D01*
X10978825Y-15873484D02*
X10959777Y-15863960D01*
X10959777Y-15863960D02*
X10950253Y-15854436D01*
X10950253Y-15854436D02*
X10940729Y-15835388D01*
X10940729Y-15835388D02*
X10931206Y-15797293D01*
X10931206Y-15797293D02*
X10931206Y-15749674D01*
X10931206Y-15749674D02*
X10940729Y-15711579D01*
X10940729Y-15711579D02*
X10950253Y-15692531D01*
X10950253Y-15692531D02*
X10959777Y-15683008D01*
X10959777Y-15683008D02*
X10978825Y-15673484D01*
X11169301Y-15673484D02*
X11188348Y-15673484D01*
X11188348Y-15673484D02*
X11207396Y-15683008D01*
X11207396Y-15683008D02*
X11216920Y-15692531D01*
X11216920Y-15692531D02*
X11226444Y-15711579D01*
X11226444Y-15711579D02*
X11235967Y-15749674D01*
X11235967Y-15749674D02*
X11235967Y-15797293D01*
X11235967Y-15797293D02*
X11226444Y-15835388D01*
X11226444Y-15835388D02*
X11216920Y-15854436D01*
X11216920Y-15854436D02*
X11207396Y-15863960D01*
X11207396Y-15863960D02*
X11188348Y-15873484D01*
X11188348Y-15873484D02*
X11169301Y-15873484D01*
X11169301Y-15873484D02*
X11150253Y-15863960D01*
X11150253Y-15863960D02*
X11140729Y-15854436D01*
X11140729Y-15854436D02*
X11131206Y-15835388D01*
X11131206Y-15835388D02*
X11121682Y-15797293D01*
X11121682Y-15797293D02*
X11121682Y-15749674D01*
X11121682Y-15749674D02*
X11131206Y-15711579D01*
X11131206Y-15711579D02*
X11140729Y-15692531D01*
X11140729Y-15692531D02*
X11150253Y-15683008D01*
X11150253Y-15683008D02*
X11169301Y-15673484D01*
X11359777Y-15673484D02*
X11378825Y-15673484D01*
X11378825Y-15673484D02*
X11397872Y-15683008D01*
X11397872Y-15683008D02*
X11407396Y-15692531D01*
X11407396Y-15692531D02*
X11416920Y-15711579D01*
X11416920Y-15711579D02*
X11426444Y-15749674D01*
X11426444Y-15749674D02*
X11426444Y-15797293D01*
X11426444Y-15797293D02*
X11416920Y-15835388D01*
X11416920Y-15835388D02*
X11407396Y-15854436D01*
X11407396Y-15854436D02*
X11397872Y-15863960D01*
X11397872Y-15863960D02*
X11378825Y-15873484D01*
X11378825Y-15873484D02*
X11359777Y-15873484D01*
X11359777Y-15873484D02*
X11340729Y-15863960D01*
X11340729Y-15863960D02*
X11331206Y-15854436D01*
X11331206Y-15854436D02*
X11321682Y-15835388D01*
X11321682Y-15835388D02*
X11312158Y-15797293D01*
X11312158Y-15797293D02*
X11312158Y-15749674D01*
X11312158Y-15749674D02*
X11321682Y-15711579D01*
X11321682Y-15711579D02*
X11331206Y-15692531D01*
X11331206Y-15692531D02*
X11340729Y-15683008D01*
X11340729Y-15683008D02*
X11359777Y-15673484D01*
X11502634Y-15673484D02*
X11502634Y-15711579D01*
X11578825Y-15673484D02*
X11578825Y-15711579D01*
X11874063Y-15949674D02*
X11864539Y-15940150D01*
X11864539Y-15940150D02*
X11845491Y-15911579D01*
X11845491Y-15911579D02*
X11835968Y-15892531D01*
X11835968Y-15892531D02*
X11826444Y-15863960D01*
X11826444Y-15863960D02*
X11816920Y-15816341D01*
X11816920Y-15816341D02*
X11816920Y-15778246D01*
X11816920Y-15778246D02*
X11826444Y-15730627D01*
X11826444Y-15730627D02*
X11835968Y-15702055D01*
X11835968Y-15702055D02*
X11845491Y-15683008D01*
X11845491Y-15683008D02*
X11864539Y-15654436D01*
X11864539Y-15654436D02*
X11874063Y-15644912D01*
X12035968Y-15740150D02*
X12035968Y-15873484D01*
X11988348Y-15663960D02*
X11940729Y-15806817D01*
X11940729Y-15806817D02*
X12064539Y-15806817D01*
X12293110Y-15873484D02*
X12293110Y-15673484D01*
X12378825Y-15873484D02*
X12378825Y-15768722D01*
X12378825Y-15768722D02*
X12369301Y-15749674D01*
X12369301Y-15749674D02*
X12350253Y-15740150D01*
X12350253Y-15740150D02*
X12321682Y-15740150D01*
X12321682Y-15740150D02*
X12302634Y-15749674D01*
X12302634Y-15749674D02*
X12293110Y-15759198D01*
X12502634Y-15873484D02*
X12483587Y-15863960D01*
X12483587Y-15863960D02*
X12474063Y-15854436D01*
X12474063Y-15854436D02*
X12464539Y-15835388D01*
X12464539Y-15835388D02*
X12464539Y-15778246D01*
X12464539Y-15778246D02*
X12474063Y-15759198D01*
X12474063Y-15759198D02*
X12483587Y-15749674D01*
X12483587Y-15749674D02*
X12502634Y-15740150D01*
X12502634Y-15740150D02*
X12531206Y-15740150D01*
X12531206Y-15740150D02*
X12550253Y-15749674D01*
X12550253Y-15749674D02*
X12559777Y-15759198D01*
X12559777Y-15759198D02*
X12569301Y-15778246D01*
X12569301Y-15778246D02*
X12569301Y-15835388D01*
X12569301Y-15835388D02*
X12559777Y-15854436D01*
X12559777Y-15854436D02*
X12550253Y-15863960D01*
X12550253Y-15863960D02*
X12531206Y-15873484D01*
X12531206Y-15873484D02*
X12502634Y-15873484D01*
X12683587Y-15873484D02*
X12664539Y-15863960D01*
X12664539Y-15863960D02*
X12655015Y-15844912D01*
X12655015Y-15844912D02*
X12655015Y-15673484D01*
X12835968Y-15863960D02*
X12816920Y-15873484D01*
X12816920Y-15873484D02*
X12778825Y-15873484D01*
X12778825Y-15873484D02*
X12759777Y-15863960D01*
X12759777Y-15863960D02*
X12750253Y-15844912D01*
X12750253Y-15844912D02*
X12750253Y-15768722D01*
X12750253Y-15768722D02*
X12759777Y-15749674D01*
X12759777Y-15749674D02*
X12778825Y-15740150D01*
X12778825Y-15740150D02*
X12816920Y-15740150D01*
X12816920Y-15740150D02*
X12835968Y-15749674D01*
X12835968Y-15749674D02*
X12845491Y-15768722D01*
X12845491Y-15768722D02*
X12845491Y-15787769D01*
X12845491Y-15787769D02*
X12750253Y-15806817D01*
X12921682Y-15863960D02*
X12940730Y-15873484D01*
X12940730Y-15873484D02*
X12978825Y-15873484D01*
X12978825Y-15873484D02*
X12997872Y-15863960D01*
X12997872Y-15863960D02*
X13007396Y-15844912D01*
X13007396Y-15844912D02*
X13007396Y-15835388D01*
X13007396Y-15835388D02*
X12997872Y-15816341D01*
X12997872Y-15816341D02*
X12978825Y-15806817D01*
X12978825Y-15806817D02*
X12950253Y-15806817D01*
X12950253Y-15806817D02*
X12931206Y-15797293D01*
X12931206Y-15797293D02*
X12921682Y-15778246D01*
X12921682Y-15778246D02*
X12921682Y-15768722D01*
X12921682Y-15768722D02*
X12931206Y-15749674D01*
X12931206Y-15749674D02*
X12950253Y-15740150D01*
X12950253Y-15740150D02*
X12978825Y-15740150D01*
X12978825Y-15740150D02*
X12997872Y-15749674D01*
X13074063Y-15949674D02*
X13083587Y-15940150D01*
X13083587Y-15940150D02*
X13102634Y-15911579D01*
X13102634Y-15911579D02*
X13112158Y-15892531D01*
X13112158Y-15892531D02*
X13121682Y-15863960D01*
X13121682Y-15863960D02*
X13131206Y-15816341D01*
X13131206Y-15816341D02*
X13131206Y-15778246D01*
X13131206Y-15778246D02*
X13121682Y-15730627D01*
X13121682Y-15730627D02*
X13112158Y-15702055D01*
X13112158Y-15702055D02*
X13102634Y-15683008D01*
X13102634Y-15683008D02*
X13083587Y-15654436D01*
X13083587Y-15654436D02*
X13074063Y-15644912D01*
X8269711Y-16172711D02*
X8269711Y-16031289D01*
X8128289Y-16031289D01*
X8128289Y-16172711D01*
X8269711Y-16172711D01*
X8299000Y-16102000D02*
G75*
G02*
X8099000Y-16102000I-100000J0D01*
G01*
X8099000Y-16102000D02*
G75*
G02*
X8299000Y-16102000I100000J0D01*
G01*
X8540729Y-15993484D02*
X8664539Y-15993484D01*
X8664539Y-15993484D02*
X8597872Y-16069674D01*
X8597872Y-16069674D02*
X8626444Y-16069674D01*
X8626444Y-16069674D02*
X8645491Y-16079198D01*
X8645491Y-16079198D02*
X8655015Y-16088722D01*
X8655015Y-16088722D02*
X8664539Y-16107769D01*
X8664539Y-16107769D02*
X8664539Y-16155388D01*
X8664539Y-16155388D02*
X8655015Y-16174436D01*
X8655015Y-16174436D02*
X8645491Y-16183960D01*
X8645491Y-16183960D02*
X8626444Y-16193484D01*
X8626444Y-16193484D02*
X8569301Y-16193484D01*
X8569301Y-16193484D02*
X8550253Y-16183960D01*
X8550253Y-16183960D02*
X8540729Y-16174436D01*
X8750253Y-16174436D02*
X8759777Y-16183960D01*
X8759777Y-16183960D02*
X8750253Y-16193484D01*
X8750253Y-16193484D02*
X8740729Y-16183960D01*
X8740729Y-16183960D02*
X8750253Y-16174436D01*
X8750253Y-16174436D02*
X8750253Y-16193484D01*
X8883586Y-15993484D02*
X8902634Y-15993484D01*
X8902634Y-15993484D02*
X8921682Y-16003008D01*
X8921682Y-16003008D02*
X8931205Y-16012531D01*
X8931205Y-16012531D02*
X8940729Y-16031579D01*
X8940729Y-16031579D02*
X8950253Y-16069674D01*
X8950253Y-16069674D02*
X8950253Y-16117293D01*
X8950253Y-16117293D02*
X8940729Y-16155388D01*
X8940729Y-16155388D02*
X8931205Y-16174436D01*
X8931205Y-16174436D02*
X8921682Y-16183960D01*
X8921682Y-16183960D02*
X8902634Y-16193484D01*
X8902634Y-16193484D02*
X8883586Y-16193484D01*
X8883586Y-16193484D02*
X8864539Y-16183960D01*
X8864539Y-16183960D02*
X8855015Y-16174436D01*
X8855015Y-16174436D02*
X8845491Y-16155388D01*
X8845491Y-16155388D02*
X8835967Y-16117293D01*
X8835967Y-16117293D02*
X8835967Y-16069674D01*
X8835967Y-16069674D02*
X8845491Y-16031579D01*
X8845491Y-16031579D02*
X8855015Y-16012531D01*
X8855015Y-16012531D02*
X8864539Y-16003008D01*
X8864539Y-16003008D02*
X8883586Y-15993484D01*
X9074063Y-15993484D02*
X9093110Y-15993484D01*
X9093110Y-15993484D02*
X9112158Y-16003008D01*
X9112158Y-16003008D02*
X9121682Y-16012531D01*
X9121682Y-16012531D02*
X9131205Y-16031579D01*
X9131205Y-16031579D02*
X9140729Y-16069674D01*
X9140729Y-16069674D02*
X9140729Y-16117293D01*
X9140729Y-16117293D02*
X9131205Y-16155388D01*
X9131205Y-16155388D02*
X9121682Y-16174436D01*
X9121682Y-16174436D02*
X9112158Y-16183960D01*
X9112158Y-16183960D02*
X9093110Y-16193484D01*
X9093110Y-16193484D02*
X9074063Y-16193484D01*
X9074063Y-16193484D02*
X9055015Y-16183960D01*
X9055015Y-16183960D02*
X9045491Y-16174436D01*
X9045491Y-16174436D02*
X9035967Y-16155388D01*
X9035967Y-16155388D02*
X9026444Y-16117293D01*
X9026444Y-16117293D02*
X9026444Y-16069674D01*
X9026444Y-16069674D02*
X9035967Y-16031579D01*
X9035967Y-16031579D02*
X9045491Y-16012531D01*
X9045491Y-16012531D02*
X9055015Y-16003008D01*
X9055015Y-16003008D02*
X9074063Y-15993484D01*
X9264539Y-15993484D02*
X9283586Y-15993484D01*
X9283586Y-15993484D02*
X9302634Y-16003008D01*
X9302634Y-16003008D02*
X9312158Y-16012531D01*
X9312158Y-16012531D02*
X9321682Y-16031579D01*
X9321682Y-16031579D02*
X9331205Y-16069674D01*
X9331205Y-16069674D02*
X9331205Y-16117293D01*
X9331205Y-16117293D02*
X9321682Y-16155388D01*
X9321682Y-16155388D02*
X9312158Y-16174436D01*
X9312158Y-16174436D02*
X9302634Y-16183960D01*
X9302634Y-16183960D02*
X9283586Y-16193484D01*
X9283586Y-16193484D02*
X9264539Y-16193484D01*
X9264539Y-16193484D02*
X9245491Y-16183960D01*
X9245491Y-16183960D02*
X9235967Y-16174436D01*
X9235967Y-16174436D02*
X9226444Y-16155388D01*
X9226444Y-16155388D02*
X9216920Y-16117293D01*
X9216920Y-16117293D02*
X9216920Y-16069674D01*
X9216920Y-16069674D02*
X9226444Y-16031579D01*
X9226444Y-16031579D02*
X9235967Y-16012531D01*
X9235967Y-16012531D02*
X9245491Y-16003008D01*
X9245491Y-16003008D02*
X9264539Y-15993484D01*
X9416920Y-16193484D02*
X9416920Y-16060150D01*
X9416920Y-16079198D02*
X9426444Y-16069674D01*
X9426444Y-16069674D02*
X9445491Y-16060150D01*
X9445491Y-16060150D02*
X9474063Y-16060150D01*
X9474063Y-16060150D02*
X9493110Y-16069674D01*
X9493110Y-16069674D02*
X9502634Y-16088722D01*
X9502634Y-16088722D02*
X9502634Y-16193484D01*
X9502634Y-16088722D02*
X9512158Y-16069674D01*
X9512158Y-16069674D02*
X9531205Y-16060150D01*
X9531205Y-16060150D02*
X9559777Y-16060150D01*
X9559777Y-16060150D02*
X9578825Y-16069674D01*
X9578825Y-16069674D02*
X9588348Y-16088722D01*
X9588348Y-16088722D02*
X9588348Y-16193484D01*
X9683586Y-16193484D02*
X9683586Y-16060150D01*
X9683586Y-16079198D02*
X9693110Y-16069674D01*
X9693110Y-16069674D02*
X9712158Y-16060150D01*
X9712158Y-16060150D02*
X9740729Y-16060150D01*
X9740729Y-16060150D02*
X9759777Y-16069674D01*
X9759777Y-16069674D02*
X9769301Y-16088722D01*
X9769301Y-16088722D02*
X9769301Y-16193484D01*
X9769301Y-16088722D02*
X9778825Y-16069674D01*
X9778825Y-16069674D02*
X9797872Y-16060150D01*
X9797872Y-16060150D02*
X9826444Y-16060150D01*
X9826444Y-16060150D02*
X9845491Y-16069674D01*
X9845491Y-16069674D02*
X9855015Y-16088722D01*
X9855015Y-16088722D02*
X9855015Y-16193484D01*
X10245491Y-15983960D02*
X10074063Y-16241103D01*
X10502634Y-15993484D02*
X10521682Y-15993484D01*
X10521682Y-15993484D02*
X10540729Y-16003008D01*
X10540729Y-16003008D02*
X10550253Y-16012531D01*
X10550253Y-16012531D02*
X10559777Y-16031579D01*
X10559777Y-16031579D02*
X10569301Y-16069674D01*
X10569301Y-16069674D02*
X10569301Y-16117293D01*
X10569301Y-16117293D02*
X10559777Y-16155388D01*
X10559777Y-16155388D02*
X10550253Y-16174436D01*
X10550253Y-16174436D02*
X10540729Y-16183960D01*
X10540729Y-16183960D02*
X10521682Y-16193484D01*
X10521682Y-16193484D02*
X10502634Y-16193484D01*
X10502634Y-16193484D02*
X10483587Y-16183960D01*
X10483587Y-16183960D02*
X10474063Y-16174436D01*
X10474063Y-16174436D02*
X10464539Y-16155388D01*
X10464539Y-16155388D02*
X10455015Y-16117293D01*
X10455015Y-16117293D02*
X10455015Y-16069674D01*
X10455015Y-16069674D02*
X10464539Y-16031579D01*
X10464539Y-16031579D02*
X10474063Y-16012531D01*
X10474063Y-16012531D02*
X10483587Y-16003008D01*
X10483587Y-16003008D02*
X10502634Y-15993484D01*
X10655015Y-16174436D02*
X10664539Y-16183960D01*
X10664539Y-16183960D02*
X10655015Y-16193484D01*
X10655015Y-16193484D02*
X10645491Y-16183960D01*
X10645491Y-16183960D02*
X10655015Y-16174436D01*
X10655015Y-16174436D02*
X10655015Y-16193484D01*
X10855015Y-16193484D02*
X10740729Y-16193484D01*
X10797872Y-16193484D02*
X10797872Y-15993484D01*
X10797872Y-15993484D02*
X10778825Y-16022055D01*
X10778825Y-16022055D02*
X10759777Y-16041103D01*
X10759777Y-16041103D02*
X10740729Y-16050627D01*
X11045491Y-16193484D02*
X10931206Y-16193484D01*
X10988348Y-16193484D02*
X10988348Y-15993484D01*
X10988348Y-15993484D02*
X10969301Y-16022055D01*
X10969301Y-16022055D02*
X10950253Y-16041103D01*
X10950253Y-16041103D02*
X10931206Y-16050627D01*
X11159777Y-16079198D02*
X11140729Y-16069674D01*
X11140729Y-16069674D02*
X11131206Y-16060150D01*
X11131206Y-16060150D02*
X11121682Y-16041103D01*
X11121682Y-16041103D02*
X11121682Y-16031579D01*
X11121682Y-16031579D02*
X11131206Y-16012531D01*
X11131206Y-16012531D02*
X11140729Y-16003008D01*
X11140729Y-16003008D02*
X11159777Y-15993484D01*
X11159777Y-15993484D02*
X11197872Y-15993484D01*
X11197872Y-15993484D02*
X11216920Y-16003008D01*
X11216920Y-16003008D02*
X11226444Y-16012531D01*
X11226444Y-16012531D02*
X11235967Y-16031579D01*
X11235967Y-16031579D02*
X11235967Y-16041103D01*
X11235967Y-16041103D02*
X11226444Y-16060150D01*
X11226444Y-16060150D02*
X11216920Y-16069674D01*
X11216920Y-16069674D02*
X11197872Y-16079198D01*
X11197872Y-16079198D02*
X11159777Y-16079198D01*
X11159777Y-16079198D02*
X11140729Y-16088722D01*
X11140729Y-16088722D02*
X11131206Y-16098246D01*
X11131206Y-16098246D02*
X11121682Y-16117293D01*
X11121682Y-16117293D02*
X11121682Y-16155388D01*
X11121682Y-16155388D02*
X11131206Y-16174436D01*
X11131206Y-16174436D02*
X11140729Y-16183960D01*
X11140729Y-16183960D02*
X11159777Y-16193484D01*
X11159777Y-16193484D02*
X11197872Y-16193484D01*
X11197872Y-16193484D02*
X11216920Y-16183960D01*
X11216920Y-16183960D02*
X11226444Y-16174436D01*
X11226444Y-16174436D02*
X11235967Y-16155388D01*
X11235967Y-16155388D02*
X11235967Y-16117293D01*
X11235967Y-16117293D02*
X11226444Y-16098246D01*
X11226444Y-16098246D02*
X11216920Y-16088722D01*
X11216920Y-16088722D02*
X11197872Y-16079198D01*
X11426444Y-16193484D02*
X11312158Y-16193484D01*
X11369301Y-16193484D02*
X11369301Y-15993484D01*
X11369301Y-15993484D02*
X11350253Y-16022055D01*
X11350253Y-16022055D02*
X11331206Y-16041103D01*
X11331206Y-16041103D02*
X11312158Y-16050627D01*
X11502634Y-15993484D02*
X11502634Y-16031579D01*
X11578825Y-15993484D02*
X11578825Y-16031579D01*
X11874063Y-16269674D02*
X11864539Y-16260150D01*
X11864539Y-16260150D02*
X11845491Y-16231579D01*
X11845491Y-16231579D02*
X11835968Y-16212531D01*
X11835968Y-16212531D02*
X11826444Y-16183960D01*
X11826444Y-16183960D02*
X11816920Y-16136341D01*
X11816920Y-16136341D02*
X11816920Y-16098246D01*
X11816920Y-16098246D02*
X11826444Y-16050627D01*
X11826444Y-16050627D02*
X11835968Y-16022055D01*
X11835968Y-16022055D02*
X11845491Y-16003008D01*
X11845491Y-16003008D02*
X11864539Y-15974436D01*
X11864539Y-15974436D02*
X11874063Y-15964912D01*
X12035968Y-16060150D02*
X12035968Y-16193484D01*
X11988348Y-15983960D02*
X11940729Y-16126817D01*
X11940729Y-16126817D02*
X12064539Y-16126817D01*
X12293110Y-16193484D02*
X12293110Y-15993484D01*
X12378825Y-16193484D02*
X12378825Y-16088722D01*
X12378825Y-16088722D02*
X12369301Y-16069674D01*
X12369301Y-16069674D02*
X12350253Y-16060150D01*
X12350253Y-16060150D02*
X12321682Y-16060150D01*
X12321682Y-16060150D02*
X12302634Y-16069674D01*
X12302634Y-16069674D02*
X12293110Y-16079198D01*
X12502634Y-16193484D02*
X12483587Y-16183960D01*
X12483587Y-16183960D02*
X12474063Y-16174436D01*
X12474063Y-16174436D02*
X12464539Y-16155388D01*
X12464539Y-16155388D02*
X12464539Y-16098246D01*
X12464539Y-16098246D02*
X12474063Y-16079198D01*
X12474063Y-16079198D02*
X12483587Y-16069674D01*
X12483587Y-16069674D02*
X12502634Y-16060150D01*
X12502634Y-16060150D02*
X12531206Y-16060150D01*
X12531206Y-16060150D02*
X12550253Y-16069674D01*
X12550253Y-16069674D02*
X12559777Y-16079198D01*
X12559777Y-16079198D02*
X12569301Y-16098246D01*
X12569301Y-16098246D02*
X12569301Y-16155388D01*
X12569301Y-16155388D02*
X12559777Y-16174436D01*
X12559777Y-16174436D02*
X12550253Y-16183960D01*
X12550253Y-16183960D02*
X12531206Y-16193484D01*
X12531206Y-16193484D02*
X12502634Y-16193484D01*
X12683587Y-16193484D02*
X12664539Y-16183960D01*
X12664539Y-16183960D02*
X12655015Y-16164912D01*
X12655015Y-16164912D02*
X12655015Y-15993484D01*
X12835968Y-16183960D02*
X12816920Y-16193484D01*
X12816920Y-16193484D02*
X12778825Y-16193484D01*
X12778825Y-16193484D02*
X12759777Y-16183960D01*
X12759777Y-16183960D02*
X12750253Y-16164912D01*
X12750253Y-16164912D02*
X12750253Y-16088722D01*
X12750253Y-16088722D02*
X12759777Y-16069674D01*
X12759777Y-16069674D02*
X12778825Y-16060150D01*
X12778825Y-16060150D02*
X12816920Y-16060150D01*
X12816920Y-16060150D02*
X12835968Y-16069674D01*
X12835968Y-16069674D02*
X12845491Y-16088722D01*
X12845491Y-16088722D02*
X12845491Y-16107769D01*
X12845491Y-16107769D02*
X12750253Y-16126817D01*
X12921682Y-16183960D02*
X12940730Y-16193484D01*
X12940730Y-16193484D02*
X12978825Y-16193484D01*
X12978825Y-16193484D02*
X12997872Y-16183960D01*
X12997872Y-16183960D02*
X13007396Y-16164912D01*
X13007396Y-16164912D02*
X13007396Y-16155388D01*
X13007396Y-16155388D02*
X12997872Y-16136341D01*
X12997872Y-16136341D02*
X12978825Y-16126817D01*
X12978825Y-16126817D02*
X12950253Y-16126817D01*
X12950253Y-16126817D02*
X12931206Y-16117293D01*
X12931206Y-16117293D02*
X12921682Y-16098246D01*
X12921682Y-16098246D02*
X12921682Y-16088722D01*
X12921682Y-16088722D02*
X12931206Y-16069674D01*
X12931206Y-16069674D02*
X12950253Y-16060150D01*
X12950253Y-16060150D02*
X12978825Y-16060150D01*
X12978825Y-16060150D02*
X12997872Y-16069674D01*
X13074063Y-16269674D02*
X13083587Y-16260150D01*
X13083587Y-16260150D02*
X13102634Y-16231579D01*
X13102634Y-16231579D02*
X13112158Y-16212531D01*
X13112158Y-16212531D02*
X13121682Y-16183960D01*
X13121682Y-16183960D02*
X13131206Y-16136341D01*
X13131206Y-16136341D02*
X13131206Y-16098246D01*
X13131206Y-16098246D02*
X13121682Y-16050627D01*
X13121682Y-16050627D02*
X13112158Y-16022055D01*
X13112158Y-16022055D02*
X13102634Y-16003008D01*
X13102634Y-16003008D02*
X13083587Y-15974436D01*
X13083587Y-15974436D02*
X13074063Y-15964912D01*
M02*
