%FSLAX45Y45*%
G04 Gerber Fmt 4.5, Leading zero omitted, Abs format (unit mm)*
G04 Created by KiCad (PCBNEW (5.1.9-0-10_14)) date 2021-05-11 12:02:24*
%MOMM*%
%LPD*%
G01*
G04 APERTURE LIST*
%TA.AperFunction,Profile*%
%ADD10C,0.050000*%
%TD*%
%ADD11C,0.200000*%
%ADD12C,0.300000*%
G04 APERTURE END LIST*
D10*
X24130000Y-10922000D02*
G75*
G02*
X23749000Y-11303000I-381000J0D01*
G01*
X23749000Y-4953000D02*
G75*
G02*
X24130000Y-5334000I0J-381000D01*
G01*
X10668000Y-5334000D02*
G75*
G02*
X11049000Y-4953000I381000J0D01*
G01*
X11049000Y-11303000D02*
G75*
G02*
X10668000Y-10922000I0J381000D01*
G01*
X10668000Y-10922000D02*
X10668000Y-5334000D01*
X23749000Y-11303000D02*
X11049000Y-11303000D01*
X24130000Y-5334000D02*
X24130000Y-10922000D01*
X11049000Y-4953000D02*
X23749000Y-4953000D01*
D11*
X15875000Y-5588000D02*
X16129000Y-5842000D01*
X16129000Y-5588000D02*
X15875000Y-5842000D01*
X15875000Y-7620000D02*
X16129000Y-7874000D01*
X16129000Y-7620000D02*
X15875000Y-7874000D01*
X15875000Y-8382000D02*
X16129000Y-8636000D01*
X16129000Y-8382000D02*
X15875000Y-8636000D01*
X15875000Y-10414000D02*
X16129000Y-10668000D01*
X16129000Y-10414000D02*
X15875000Y-10668000D01*
X17145000Y-5588000D02*
X17399000Y-5842000D01*
X17399000Y-5588000D02*
X17145000Y-5842000D01*
X17145000Y-7620000D02*
X17399000Y-7874000D01*
X17399000Y-7620000D02*
X17145000Y-7874000D01*
X17145000Y-8382000D02*
X17399000Y-8636000D01*
X17399000Y-8382000D02*
X17145000Y-8636000D01*
X17145000Y-10414000D02*
X17399000Y-10668000D01*
X17399000Y-10414000D02*
X17145000Y-10668000D01*
X17907000Y-10287000D02*
X18161000Y-10541000D01*
X18161000Y-10287000D02*
X17907000Y-10541000D01*
X19685000Y-10287000D02*
X19939000Y-10541000D01*
X19939000Y-10287000D02*
X19685000Y-10541000D01*
X20447000Y-10287000D02*
X20701000Y-10541000D01*
X20701000Y-10287000D02*
X20447000Y-10541000D01*
X22225000Y-10287000D02*
X22479000Y-10541000D01*
X22479000Y-10287000D02*
X22225000Y-10541000D01*
D12*
X10951928Y-11771214D02*
X10951928Y-11471214D01*
X11023357Y-11471214D01*
X11066214Y-11485500D01*
X11094786Y-11514071D01*
X11109071Y-11542643D01*
X11123357Y-11599786D01*
X11123357Y-11642643D01*
X11109071Y-11699786D01*
X11094786Y-11728357D01*
X11066214Y-11756929D01*
X11023357Y-11771214D01*
X10951928Y-11771214D01*
X11251928Y-11771214D02*
X11251928Y-11571214D01*
X11251928Y-11628357D02*
X11266214Y-11599786D01*
X11280500Y-11585500D01*
X11309071Y-11571214D01*
X11337643Y-11571214D01*
X11437643Y-11771214D02*
X11437643Y-11571214D01*
X11437643Y-11471214D02*
X11423357Y-11485500D01*
X11437643Y-11499786D01*
X11451928Y-11485500D01*
X11437643Y-11471214D01*
X11437643Y-11499786D01*
X11623357Y-11771214D02*
X11594786Y-11756929D01*
X11580500Y-11728357D01*
X11580500Y-11471214D01*
X11780500Y-11771214D02*
X11751928Y-11756929D01*
X11737643Y-11728357D01*
X11737643Y-11471214D01*
X12123357Y-11771214D02*
X12123357Y-11471214D01*
X12223357Y-11685500D01*
X12323357Y-11471214D01*
X12323357Y-11771214D01*
X12594786Y-11771214D02*
X12594786Y-11614071D01*
X12580500Y-11585500D01*
X12551928Y-11571214D01*
X12494786Y-11571214D01*
X12466214Y-11585500D01*
X12594786Y-11756929D02*
X12566214Y-11771214D01*
X12494786Y-11771214D01*
X12466214Y-11756929D01*
X12451928Y-11728357D01*
X12451928Y-11699786D01*
X12466214Y-11671214D01*
X12494786Y-11656929D01*
X12566214Y-11656929D01*
X12594786Y-11642643D01*
X12737643Y-11571214D02*
X12737643Y-11871214D01*
X12737643Y-11585500D02*
X12766214Y-11571214D01*
X12823357Y-11571214D01*
X12851928Y-11585500D01*
X12866214Y-11599786D01*
X12880500Y-11628357D01*
X12880500Y-11714071D01*
X12866214Y-11742643D01*
X12851928Y-11756929D01*
X12823357Y-11771214D01*
X12766214Y-11771214D01*
X12737643Y-11756929D01*
X13009071Y-11742643D02*
X13023357Y-11756929D01*
X13009071Y-11771214D01*
X12994786Y-11756929D01*
X13009071Y-11742643D01*
X13009071Y-11771214D01*
X13009071Y-11585500D02*
X13023357Y-11599786D01*
X13009071Y-11614071D01*
X12994786Y-11599786D01*
X13009071Y-11585500D01*
X13009071Y-11614071D01*
X10411500Y-12138500D02*
X10665500Y-12392500D01*
X10665500Y-12138500D02*
X10411500Y-12392500D01*
X10937643Y-12129786D02*
X10951928Y-12115500D01*
X10980500Y-12101214D01*
X11051928Y-12101214D01*
X11080500Y-12115500D01*
X11094786Y-12129786D01*
X11109071Y-12158357D01*
X11109071Y-12186929D01*
X11094786Y-12229786D01*
X10923357Y-12401214D01*
X11109071Y-12401214D01*
X11237643Y-12372643D02*
X11251928Y-12386929D01*
X11237643Y-12401214D01*
X11223357Y-12386929D01*
X11237643Y-12372643D01*
X11237643Y-12401214D01*
X11523357Y-12101214D02*
X11380500Y-12101214D01*
X11366214Y-12244071D01*
X11380500Y-12229786D01*
X11409071Y-12215500D01*
X11480500Y-12215500D01*
X11509071Y-12229786D01*
X11523357Y-12244071D01*
X11537643Y-12272643D01*
X11537643Y-12344071D01*
X11523357Y-12372643D01*
X11509071Y-12386929D01*
X11480500Y-12401214D01*
X11409071Y-12401214D01*
X11380500Y-12386929D01*
X11366214Y-12372643D01*
X11794786Y-12201214D02*
X11794786Y-12401214D01*
X11723357Y-12086929D02*
X11651928Y-12301214D01*
X11837643Y-12301214D01*
X11951928Y-12401214D02*
X11951928Y-12201214D01*
X11951928Y-12229786D02*
X11966214Y-12215500D01*
X11994786Y-12201214D01*
X12037643Y-12201214D01*
X12066214Y-12215500D01*
X12080500Y-12244071D01*
X12080500Y-12401214D01*
X12080500Y-12244071D02*
X12094786Y-12215500D01*
X12123357Y-12201214D01*
X12166214Y-12201214D01*
X12194786Y-12215500D01*
X12209071Y-12244071D01*
X12209071Y-12401214D01*
X12351928Y-12401214D02*
X12351928Y-12201214D01*
X12351928Y-12229786D02*
X12366214Y-12215500D01*
X12394786Y-12201214D01*
X12437643Y-12201214D01*
X12466214Y-12215500D01*
X12480500Y-12244071D01*
X12480500Y-12401214D01*
X12480500Y-12244071D02*
X12494786Y-12215500D01*
X12523357Y-12201214D01*
X12566214Y-12201214D01*
X12594786Y-12215500D01*
X12609071Y-12244071D01*
X12609071Y-12401214D01*
X13194786Y-12086929D02*
X12937643Y-12472643D01*
X13580500Y-12101214D02*
X13609071Y-12101214D01*
X13637643Y-12115500D01*
X13651928Y-12129786D01*
X13666214Y-12158357D01*
X13680500Y-12215500D01*
X13680500Y-12286929D01*
X13666214Y-12344071D01*
X13651928Y-12372643D01*
X13637643Y-12386929D01*
X13609071Y-12401214D01*
X13580500Y-12401214D01*
X13551928Y-12386929D01*
X13537643Y-12372643D01*
X13523357Y-12344071D01*
X13509071Y-12286929D01*
X13509071Y-12215500D01*
X13523357Y-12158357D01*
X13537643Y-12129786D01*
X13551928Y-12115500D01*
X13580500Y-12101214D01*
X13809071Y-12372643D02*
X13823357Y-12386929D01*
X13809071Y-12401214D01*
X13794786Y-12386929D01*
X13809071Y-12372643D01*
X13809071Y-12401214D01*
X14109071Y-12401214D02*
X13937643Y-12401214D01*
X14023357Y-12401214D02*
X14023357Y-12101214D01*
X13994786Y-12144071D01*
X13966214Y-12172643D01*
X13937643Y-12186929D01*
X14294786Y-12101214D02*
X14323357Y-12101214D01*
X14351928Y-12115500D01*
X14366214Y-12129786D01*
X14380500Y-12158357D01*
X14394786Y-12215500D01*
X14394786Y-12286929D01*
X14380500Y-12344071D01*
X14366214Y-12372643D01*
X14351928Y-12386929D01*
X14323357Y-12401214D01*
X14294786Y-12401214D01*
X14266214Y-12386929D01*
X14251928Y-12372643D01*
X14237643Y-12344071D01*
X14223357Y-12286929D01*
X14223357Y-12215500D01*
X14237643Y-12158357D01*
X14251928Y-12129786D01*
X14266214Y-12115500D01*
X14294786Y-12101214D01*
X14580500Y-12101214D02*
X14609071Y-12101214D01*
X14637643Y-12115500D01*
X14651928Y-12129786D01*
X14666214Y-12158357D01*
X14680500Y-12215500D01*
X14680500Y-12286929D01*
X14666214Y-12344071D01*
X14651928Y-12372643D01*
X14637643Y-12386929D01*
X14609071Y-12401214D01*
X14580500Y-12401214D01*
X14551928Y-12386929D01*
X14537643Y-12372643D01*
X14523357Y-12344071D01*
X14509071Y-12286929D01*
X14509071Y-12215500D01*
X14523357Y-12158357D01*
X14537643Y-12129786D01*
X14551928Y-12115500D01*
X14580500Y-12101214D01*
X14794786Y-12101214D02*
X14794786Y-12158357D01*
X14909071Y-12101214D02*
X14909071Y-12158357D01*
X15351928Y-12515500D02*
X15337643Y-12501214D01*
X15309071Y-12458357D01*
X15294786Y-12429786D01*
X15280500Y-12386929D01*
X15266214Y-12315500D01*
X15266214Y-12258357D01*
X15280500Y-12186929D01*
X15294786Y-12144071D01*
X15309071Y-12115500D01*
X15337643Y-12072643D01*
X15351928Y-12058357D01*
X15623357Y-12401214D02*
X15451928Y-12401214D01*
X15537643Y-12401214D02*
X15537643Y-12101214D01*
X15509071Y-12144071D01*
X15480500Y-12172643D01*
X15451928Y-12186929D01*
X15737643Y-12129786D02*
X15751928Y-12115500D01*
X15780500Y-12101214D01*
X15851928Y-12101214D01*
X15880500Y-12115500D01*
X15894786Y-12129786D01*
X15909071Y-12158357D01*
X15909071Y-12186929D01*
X15894786Y-12229786D01*
X15723357Y-12401214D01*
X15909071Y-12401214D01*
X16266214Y-12401214D02*
X16266214Y-12101214D01*
X16394786Y-12401214D02*
X16394786Y-12244071D01*
X16380500Y-12215500D01*
X16351928Y-12201214D01*
X16309071Y-12201214D01*
X16280500Y-12215500D01*
X16266214Y-12229786D01*
X16580500Y-12401214D02*
X16551928Y-12386929D01*
X16537643Y-12372643D01*
X16523357Y-12344071D01*
X16523357Y-12258357D01*
X16537643Y-12229786D01*
X16551928Y-12215500D01*
X16580500Y-12201214D01*
X16623357Y-12201214D01*
X16651928Y-12215500D01*
X16666214Y-12229786D01*
X16680500Y-12258357D01*
X16680500Y-12344071D01*
X16666214Y-12372643D01*
X16651928Y-12386929D01*
X16623357Y-12401214D01*
X16580500Y-12401214D01*
X16851928Y-12401214D02*
X16823357Y-12386929D01*
X16809071Y-12358357D01*
X16809071Y-12101214D01*
X17080500Y-12386929D02*
X17051928Y-12401214D01*
X16994786Y-12401214D01*
X16966214Y-12386929D01*
X16951928Y-12358357D01*
X16951928Y-12244071D01*
X16966214Y-12215500D01*
X16994786Y-12201214D01*
X17051928Y-12201214D01*
X17080500Y-12215500D01*
X17094786Y-12244071D01*
X17094786Y-12272643D01*
X16951928Y-12301214D01*
X17209071Y-12386929D02*
X17237643Y-12401214D01*
X17294786Y-12401214D01*
X17323357Y-12386929D01*
X17337643Y-12358357D01*
X17337643Y-12344071D01*
X17323357Y-12315500D01*
X17294786Y-12301214D01*
X17251928Y-12301214D01*
X17223357Y-12286929D01*
X17209071Y-12258357D01*
X17209071Y-12244071D01*
X17223357Y-12215500D01*
X17251928Y-12201214D01*
X17294786Y-12201214D01*
X17323357Y-12215500D01*
X17437643Y-12515500D02*
X17451928Y-12501214D01*
X17480500Y-12458357D01*
X17494786Y-12429786D01*
X17509071Y-12386929D01*
X17523357Y-12315500D01*
X17523357Y-12258357D01*
X17509071Y-12186929D01*
X17494786Y-12144071D01*
X17480500Y-12115500D01*
X17451928Y-12072643D01*
X17437643Y-12058357D01*
X17980500Y-12515500D02*
X17966214Y-12501214D01*
X17937643Y-12458357D01*
X17923357Y-12429786D01*
X17909071Y-12386929D01*
X17894786Y-12315500D01*
X17894786Y-12258357D01*
X17909071Y-12186929D01*
X17923357Y-12144071D01*
X17937643Y-12115500D01*
X17966214Y-12072643D01*
X17980500Y-12058357D01*
X18094786Y-12201214D02*
X18094786Y-12401214D01*
X18094786Y-12229786D02*
X18109071Y-12215500D01*
X18137643Y-12201214D01*
X18180500Y-12201214D01*
X18209071Y-12215500D01*
X18223357Y-12244071D01*
X18223357Y-12401214D01*
X18409071Y-12401214D02*
X18380500Y-12386929D01*
X18366214Y-12372643D01*
X18351928Y-12344071D01*
X18351928Y-12258357D01*
X18366214Y-12229786D01*
X18380500Y-12215500D01*
X18409071Y-12201214D01*
X18451928Y-12201214D01*
X18480500Y-12215500D01*
X18494786Y-12229786D01*
X18509071Y-12258357D01*
X18509071Y-12344071D01*
X18494786Y-12372643D01*
X18480500Y-12386929D01*
X18451928Y-12401214D01*
X18409071Y-12401214D01*
X18594786Y-12201214D02*
X18709071Y-12201214D01*
X18637643Y-12101214D02*
X18637643Y-12358357D01*
X18651928Y-12386929D01*
X18680500Y-12401214D01*
X18709071Y-12401214D01*
X19037643Y-12201214D02*
X19037643Y-12501214D01*
X19037643Y-12215500D02*
X19066214Y-12201214D01*
X19123357Y-12201214D01*
X19151928Y-12215500D01*
X19166214Y-12229786D01*
X19180500Y-12258357D01*
X19180500Y-12344071D01*
X19166214Y-12372643D01*
X19151928Y-12386929D01*
X19123357Y-12401214D01*
X19066214Y-12401214D01*
X19037643Y-12386929D01*
X19351928Y-12401214D02*
X19323357Y-12386929D01*
X19309071Y-12358357D01*
X19309071Y-12101214D01*
X19594786Y-12401214D02*
X19594786Y-12244071D01*
X19580500Y-12215500D01*
X19551928Y-12201214D01*
X19494786Y-12201214D01*
X19466214Y-12215500D01*
X19594786Y-12386929D02*
X19566214Y-12401214D01*
X19494786Y-12401214D01*
X19466214Y-12386929D01*
X19451928Y-12358357D01*
X19451928Y-12329786D01*
X19466214Y-12301214D01*
X19494786Y-12286929D01*
X19566214Y-12286929D01*
X19594786Y-12272643D01*
X19694786Y-12201214D02*
X19809071Y-12201214D01*
X19737643Y-12101214D02*
X19737643Y-12358357D01*
X19751928Y-12386929D01*
X19780500Y-12401214D01*
X19809071Y-12401214D01*
X20023357Y-12386929D02*
X19994786Y-12401214D01*
X19937643Y-12401214D01*
X19909071Y-12386929D01*
X19894786Y-12358357D01*
X19894786Y-12244071D01*
X19909071Y-12215500D01*
X19937643Y-12201214D01*
X19994786Y-12201214D01*
X20023357Y-12215500D01*
X20037643Y-12244071D01*
X20037643Y-12272643D01*
X19894786Y-12301214D01*
X20294786Y-12401214D02*
X20294786Y-12101214D01*
X20294786Y-12386929D02*
X20266214Y-12401214D01*
X20209071Y-12401214D01*
X20180500Y-12386929D01*
X20166214Y-12372643D01*
X20151928Y-12344071D01*
X20151928Y-12258357D01*
X20166214Y-12229786D01*
X20180500Y-12215500D01*
X20209071Y-12201214D01*
X20266214Y-12201214D01*
X20294786Y-12215500D01*
X20409071Y-12515500D02*
X20423357Y-12501214D01*
X20451928Y-12458357D01*
X20466214Y-12429786D01*
X20480500Y-12386929D01*
X20494786Y-12315500D01*
X20494786Y-12258357D01*
X20480500Y-12186929D01*
X20466214Y-12144071D01*
X20451928Y-12115500D01*
X20423357Y-12072643D01*
X20409071Y-12058357D01*
M02*
