G04 #@! TF.GenerationSoftware,KiCad,Pcbnew,(5.1.9-0-10_14)*
G04 #@! TF.CreationDate,2021-05-11T12:02:21-04:00*
G04 #@! TF.ProjectId,Cryologger ITB - Adafruit,4372796f-6c6f-4676-9765-722049544220,rev?*
G04 #@! TF.SameCoordinates,Original*
G04 #@! TF.FileFunction,Soldermask,Top*
G04 #@! TF.FilePolarity,Negative*
%FSLAX46Y46*%
G04 Gerber Fmt 4.6, Leading zero omitted, Abs format (unit mm)*
G04 Created by KiCad (PCBNEW (5.1.9-0-10_14)) date 2021-05-11 12:02:21*
%MOMM*%
%LPD*%
G01*
G04 APERTURE LIST*
%ADD10C,4.999990*%
%ADD11C,1.778000*%
%ADD12C,3.810000*%
%ADD13C,2.540000*%
%ADD14O,0.800000X1.300000*%
%ADD15C,6.000000*%
%ADD16C,1.600000*%
%ADD17O,1.600000X1.600000*%
%ADD18R,1.778000X1.778000*%
%ADD19O,3.600000X2.080000*%
G04 APERTURE END LIST*
D10*
X151430000Y-61930000D03*
X151430000Y-100630000D03*
D11*
X179070000Y-62230000D03*
D12*
X180340000Y-58420000D03*
X198120000Y-58420000D03*
D13*
X180340000Y-104140000D03*
X198120000Y-104140000D03*
D11*
X179070000Y-64770000D03*
X179070000Y-67310000D03*
X179070000Y-69850000D03*
X179070000Y-72390000D03*
X179070000Y-74930000D03*
X179070000Y-77470000D03*
X179070000Y-80010000D03*
X179070000Y-82550000D03*
X179070000Y-85090000D03*
X179070000Y-87630000D03*
X179070000Y-90170000D03*
X179070000Y-92710000D03*
X179070000Y-95250000D03*
X179070000Y-97790000D03*
X179070000Y-100330000D03*
X199390000Y-72390000D03*
X199390000Y-74930000D03*
X199390000Y-77470000D03*
X199390000Y-80010000D03*
X199390000Y-82550000D03*
X199390000Y-85090000D03*
X199390000Y-87630000D03*
X199390000Y-90170000D03*
X199390000Y-92710000D03*
X199390000Y-95250000D03*
X199390000Y-97790000D03*
X199390000Y-100330000D03*
X181610000Y-69850000D03*
X181610000Y-74930000D03*
X181610000Y-77470000D03*
X181610000Y-64770000D03*
X181610000Y-72390000D03*
X181610000Y-67310000D03*
X181610000Y-80010000D03*
X181610000Y-97790000D03*
X181610000Y-100330000D03*
X181610000Y-92710000D03*
X181610000Y-95250000D03*
X181610000Y-85090000D03*
X181610000Y-87630000D03*
X181610000Y-90170000D03*
X181610000Y-82550000D03*
X181610000Y-62230000D03*
X196850000Y-82550000D03*
X196850000Y-74930000D03*
X196850000Y-80010000D03*
X196850000Y-85090000D03*
X196850000Y-77470000D03*
X196850000Y-72390000D03*
X196850000Y-87630000D03*
X196850000Y-92710000D03*
X196850000Y-90170000D03*
X196850000Y-100330000D03*
X196850000Y-95250000D03*
X196850000Y-97790000D03*
X222250000Y-97790000D03*
X222250000Y-95250000D03*
X222250000Y-100330000D03*
X222250000Y-90170000D03*
X222250000Y-92710000D03*
X222250000Y-87630000D03*
X222250000Y-72390000D03*
X222250000Y-77470000D03*
X222250000Y-85090000D03*
X222250000Y-80010000D03*
X222250000Y-74930000D03*
X222250000Y-82550000D03*
X207010000Y-62230000D03*
X207010000Y-82550000D03*
X207010000Y-90170000D03*
X207010000Y-87630000D03*
X207010000Y-85090000D03*
X207010000Y-95250000D03*
X207010000Y-92710000D03*
X207010000Y-100330000D03*
X207010000Y-97790000D03*
X207010000Y-80010000D03*
X207010000Y-67310000D03*
X207010000Y-72390000D03*
X207010000Y-64770000D03*
X207010000Y-77470000D03*
X207010000Y-74930000D03*
X207010000Y-69850000D03*
X224790000Y-100330000D03*
X224790000Y-97790000D03*
X224790000Y-95250000D03*
X224790000Y-92710000D03*
X224790000Y-90170000D03*
X224790000Y-87630000D03*
X224790000Y-85090000D03*
X224790000Y-82550000D03*
X224790000Y-80010000D03*
X224790000Y-77470000D03*
X224790000Y-74930000D03*
X224790000Y-72390000D03*
X204470000Y-100330000D03*
X204470000Y-97790000D03*
X204470000Y-95250000D03*
X204470000Y-92710000D03*
X204470000Y-90170000D03*
X204470000Y-87630000D03*
X204470000Y-85090000D03*
X204470000Y-82550000D03*
X204470000Y-80010000D03*
X204470000Y-77470000D03*
X204470000Y-74930000D03*
X204470000Y-72390000D03*
X204470000Y-69850000D03*
X204470000Y-67310000D03*
X204470000Y-64770000D03*
D13*
X223520000Y-104140000D03*
X205740000Y-104140000D03*
D12*
X223520000Y-58420000D03*
X205740000Y-58420000D03*
D11*
X204470000Y-62230000D03*
D14*
X151585000Y-107950000D03*
X150335000Y-107950000D03*
X149085000Y-107950000D03*
X147835000Y-107950000D03*
X146585000Y-107950000D03*
X145335000Y-107950000D03*
X144085000Y-107950000D03*
X142835000Y-107950000D03*
X141585000Y-107950000D03*
G36*
G01*
X139935000Y-108400000D02*
X139935000Y-107500000D01*
G75*
G02*
X140135000Y-107300000I200000J0D01*
G01*
X140535000Y-107300000D01*
G75*
G02*
X140735000Y-107500000I0J-200000D01*
G01*
X140735000Y-108400000D01*
G75*
G02*
X140535000Y-108600000I-200000J0D01*
G01*
X140135000Y-108600000D01*
G75*
G02*
X139935000Y-108400000I0J200000D01*
G01*
G37*
D15*
X110490000Y-109220000D03*
X110490000Y-53340000D03*
X237490000Y-53340000D03*
X237490000Y-109220000D03*
D12*
X160020000Y-85090000D03*
X160020000Y-105410000D03*
X172720000Y-85090000D03*
X172720000Y-105410000D03*
D11*
X172720000Y-91440000D03*
X172720000Y-88900000D03*
X160020000Y-99060000D03*
X160020000Y-96520000D03*
X160020000Y-93980000D03*
X160020000Y-91440000D03*
X172720000Y-101600000D03*
X172720000Y-99060000D03*
X172720000Y-96520000D03*
X172720000Y-93980000D03*
D16*
X236855000Y-65405000D03*
X236855000Y-62905000D03*
D17*
X233680000Y-59055000D03*
D16*
X233680000Y-69215000D03*
D17*
X230505000Y-69215000D03*
D16*
X230505000Y-59055000D03*
D11*
X237490000Y-74930000D03*
X234950000Y-74930000D03*
D18*
X232410000Y-74930000D03*
D11*
X229870000Y-74930000D03*
X229870000Y-83820000D03*
D18*
X232410000Y-83820000D03*
D11*
X234950000Y-83820000D03*
X237490000Y-83820000D03*
X172720000Y-67310000D03*
D12*
X160020000Y-77470000D03*
D11*
X172720000Y-69850000D03*
D13*
X172720000Y-77470000D03*
X172720000Y-57150000D03*
D11*
X172720000Y-72390000D03*
X172720000Y-74930000D03*
X172720000Y-64770000D03*
D12*
X160020000Y-57150000D03*
D11*
X172720000Y-62230000D03*
X172720000Y-59690000D03*
G36*
G01*
X232690002Y-101370000D02*
X229589998Y-101370000D01*
G75*
G02*
X229340000Y-101120002I0J249998D01*
G01*
X229340000Y-99539998D01*
G75*
G02*
X229589998Y-99290000I249998J0D01*
G01*
X232690002Y-99290000D01*
G75*
G02*
X232940000Y-99539998I0J-249998D01*
G01*
X232940000Y-101120002D01*
G75*
G02*
X232690002Y-101370000I-249998J0D01*
G01*
G37*
D19*
X231140000Y-95250000D03*
M02*
