G04 #@! TF.GenerationSoftware,KiCad,Pcbnew,(5.1.9-0-10_14)*
G04 #@! TF.CreationDate,2021-05-11T12:02:21-04:00*
G04 #@! TF.ProjectId,Cryologger ITB - Adafruit,4372796f-6c6f-4676-9765-722049544220,rev?*
G04 #@! TF.SameCoordinates,Original*
G04 #@! TF.FileFunction,Copper,L1,Top*
G04 #@! TF.FilePolarity,Positive*
%FSLAX46Y46*%
G04 Gerber Fmt 4.6, Leading zero omitted, Abs format (unit mm)*
G04 Created by KiCad (PCBNEW (5.1.9-0-10_14)) date 2021-05-11 12:02:21*
%MOMM*%
%LPD*%
G01*
G04 APERTURE LIST*
G04 #@! TA.AperFunction,ComponentPad*
%ADD10C,4.999990*%
G04 #@! TD*
G04 #@! TA.AperFunction,ComponentPad*
%ADD11C,1.778000*%
G04 #@! TD*
G04 #@! TA.AperFunction,ComponentPad*
%ADD12C,3.810000*%
G04 #@! TD*
G04 #@! TA.AperFunction,ComponentPad*
%ADD13O,0.800000X1.300000*%
G04 #@! TD*
G04 #@! TA.AperFunction,ComponentPad*
%ADD14C,6.000000*%
G04 #@! TD*
G04 #@! TA.AperFunction,WasherPad*
%ADD15C,3.810000*%
G04 #@! TD*
G04 #@! TA.AperFunction,ComponentPad*
%ADD16C,1.600000*%
G04 #@! TD*
G04 #@! TA.AperFunction,ComponentPad*
%ADD17O,1.600000X1.600000*%
G04 #@! TD*
G04 #@! TA.AperFunction,ComponentPad*
%ADD18R,1.778000X1.778000*%
G04 #@! TD*
G04 #@! TA.AperFunction,ComponentPad*
%ADD19O,3.600000X2.080000*%
G04 #@! TD*
G04 #@! TA.AperFunction,ViaPad*
%ADD20C,0.800000*%
G04 #@! TD*
G04 #@! TA.AperFunction,Conductor*
%ADD21C,0.406400*%
G04 #@! TD*
G04 #@! TA.AperFunction,Conductor*
%ADD22C,0.304800*%
G04 #@! TD*
G04 #@! TA.AperFunction,Conductor*
%ADD23C,0.812800*%
G04 #@! TD*
G04 #@! TA.AperFunction,Conductor*
%ADD24C,0.609600*%
G04 #@! TD*
G04 #@! TA.AperFunction,Conductor*
%ADD25C,0.254000*%
G04 #@! TD*
G04 #@! TA.AperFunction,Conductor*
%ADD26C,0.150000*%
G04 #@! TD*
G04 APERTURE END LIST*
D10*
X151430000Y-61930000D03*
X151430000Y-100630000D03*
D11*
X179070000Y-62230000D03*
D12*
X180340000Y-58420000D03*
X198120000Y-58420000D03*
D11*
X179070000Y-64770000D03*
X179070000Y-67310000D03*
X179070000Y-69850000D03*
X179070000Y-72390000D03*
X179070000Y-74930000D03*
X179070000Y-77470000D03*
X179070000Y-80010000D03*
X179070000Y-82550000D03*
X179070000Y-85090000D03*
X179070000Y-87630000D03*
X179070000Y-90170000D03*
X179070000Y-92710000D03*
X179070000Y-95250000D03*
X179070000Y-97790000D03*
X179070000Y-100330000D03*
X199390000Y-72390000D03*
X199390000Y-74930000D03*
X199390000Y-77470000D03*
X199390000Y-80010000D03*
X199390000Y-82550000D03*
X199390000Y-85090000D03*
X199390000Y-87630000D03*
X199390000Y-90170000D03*
X199390000Y-92710000D03*
X199390000Y-95250000D03*
X199390000Y-97790000D03*
X199390000Y-100330000D03*
X181610000Y-69850000D03*
X181610000Y-74930000D03*
X181610000Y-77470000D03*
X181610000Y-64770000D03*
X181610000Y-72390000D03*
X181610000Y-67310000D03*
X181610000Y-80010000D03*
X181610000Y-97790000D03*
X181610000Y-100330000D03*
X181610000Y-92710000D03*
X181610000Y-95250000D03*
X181610000Y-85090000D03*
X181610000Y-87630000D03*
X181610000Y-90170000D03*
X181610000Y-82550000D03*
X181610000Y-62230000D03*
X196850000Y-82550000D03*
X196850000Y-74930000D03*
X196850000Y-80010000D03*
X196850000Y-85090000D03*
X196850000Y-77470000D03*
X196850000Y-72390000D03*
X196850000Y-87630000D03*
X196850000Y-92710000D03*
X196850000Y-90170000D03*
X196850000Y-100330000D03*
X196850000Y-95250000D03*
X196850000Y-97790000D03*
X222250000Y-97790000D03*
X222250000Y-95250000D03*
X222250000Y-100330000D03*
X222250000Y-90170000D03*
X222250000Y-92710000D03*
X222250000Y-87630000D03*
X222250000Y-72390000D03*
X222250000Y-77470000D03*
X222250000Y-85090000D03*
X222250000Y-80010000D03*
X222250000Y-74930000D03*
X222250000Y-82550000D03*
X207010000Y-62230000D03*
X207010000Y-82550000D03*
X207010000Y-90170000D03*
X207010000Y-87630000D03*
X207010000Y-85090000D03*
X207010000Y-95250000D03*
X207010000Y-92710000D03*
X207010000Y-100330000D03*
X207010000Y-97790000D03*
X207010000Y-80010000D03*
X207010000Y-67310000D03*
X207010000Y-72390000D03*
X207010000Y-64770000D03*
X207010000Y-77470000D03*
X207010000Y-74930000D03*
X207010000Y-69850000D03*
X224790000Y-100330000D03*
X224790000Y-97790000D03*
X224790000Y-95250000D03*
X224790000Y-92710000D03*
X224790000Y-90170000D03*
X224790000Y-87630000D03*
X224790000Y-85090000D03*
X224790000Y-82550000D03*
X224790000Y-80010000D03*
X224790000Y-77470000D03*
X224790000Y-74930000D03*
X224790000Y-72390000D03*
X204470000Y-100330000D03*
X204470000Y-97790000D03*
X204470000Y-95250000D03*
X204470000Y-92710000D03*
X204470000Y-90170000D03*
X204470000Y-87630000D03*
X204470000Y-85090000D03*
X204470000Y-82550000D03*
X204470000Y-80010000D03*
X204470000Y-77470000D03*
X204470000Y-74930000D03*
X204470000Y-72390000D03*
X204470000Y-69850000D03*
X204470000Y-67310000D03*
X204470000Y-64770000D03*
D12*
X223520000Y-58420000D03*
X205740000Y-58420000D03*
D11*
X204470000Y-62230000D03*
D13*
X151585000Y-107950000D03*
X150335000Y-107950000D03*
X149085000Y-107950000D03*
X147835000Y-107950000D03*
X146585000Y-107950000D03*
X145335000Y-107950000D03*
X144085000Y-107950000D03*
X142835000Y-107950000D03*
X141585000Y-107950000D03*
G04 #@! TA.AperFunction,ComponentPad*
G36*
G01*
X139935000Y-108400000D02*
X139935000Y-107500000D01*
G75*
G02*
X140135000Y-107300000I200000J0D01*
G01*
X140535000Y-107300000D01*
G75*
G02*
X140735000Y-107500000I0J-200000D01*
G01*
X140735000Y-108400000D01*
G75*
G02*
X140535000Y-108600000I-200000J0D01*
G01*
X140135000Y-108600000D01*
G75*
G02*
X139935000Y-108400000I0J200000D01*
G01*
G37*
G04 #@! TD.AperFunction*
D14*
X110490000Y-109220000D03*
X110490000Y-53340000D03*
X237490000Y-53340000D03*
X237490000Y-109220000D03*
D15*
X160020000Y-85090000D03*
X160020000Y-105410000D03*
X172720000Y-85090000D03*
X172720000Y-105410000D03*
D11*
X172720000Y-91440000D03*
X172720000Y-88900000D03*
X160020000Y-99060000D03*
X160020000Y-96520000D03*
X160020000Y-93980000D03*
X160020000Y-91440000D03*
X172720000Y-101600000D03*
X172720000Y-99060000D03*
X172720000Y-96520000D03*
X172720000Y-93980000D03*
D16*
X236855000Y-65405000D03*
X236855000Y-62905000D03*
D17*
X233680000Y-59055000D03*
D16*
X233680000Y-69215000D03*
D17*
X230505000Y-69215000D03*
D16*
X230505000Y-59055000D03*
D11*
X237490000Y-74930000D03*
X234950000Y-74930000D03*
D18*
X232410000Y-74930000D03*
D11*
X229870000Y-74930000D03*
X229870000Y-83820000D03*
D18*
X232410000Y-83820000D03*
D11*
X234950000Y-83820000D03*
X237490000Y-83820000D03*
X172720000Y-67310000D03*
D15*
X160020000Y-77470000D03*
D11*
X172720000Y-69850000D03*
X172720000Y-72390000D03*
X172720000Y-74930000D03*
X172720000Y-64770000D03*
D15*
X160020000Y-57150000D03*
D11*
X172720000Y-62230000D03*
X172720000Y-59690000D03*
G04 #@! TA.AperFunction,ComponentPad*
G36*
G01*
X232690002Y-101370000D02*
X229589998Y-101370000D01*
G75*
G02*
X229340000Y-101120002I0J249998D01*
G01*
X229340000Y-99539998D01*
G75*
G02*
X229589998Y-99290000I249998J0D01*
G01*
X232690002Y-99290000D01*
G75*
G02*
X232940000Y-99539998I0J-249998D01*
G01*
X232940000Y-101120002D01*
G75*
G02*
X232690002Y-101370000I-249998J0D01*
G01*
G37*
G04 #@! TD.AperFunction*
D19*
X231140000Y-95250000D03*
D20*
X188595000Y-97790000D03*
X190500000Y-100330000D03*
X110490000Y-59690000D03*
X132080000Y-81280000D03*
X110490000Y-102870000D03*
X166370000Y-67310000D03*
X166370000Y-95250000D03*
X142240000Y-71120000D03*
X121920000Y-71120000D03*
X121920000Y-91440000D03*
X142240000Y-92710000D03*
X166370000Y-58420000D03*
X166370000Y-76200000D03*
X166370000Y-87630000D03*
X166370000Y-102870000D03*
X189230000Y-58420000D03*
X189230000Y-104140000D03*
X153670000Y-81280000D03*
X110490000Y-81280000D03*
X158750000Y-67310000D03*
X214630000Y-104140000D03*
X214630000Y-58420000D03*
X132080000Y-59690000D03*
X132080000Y-102870000D03*
X189230000Y-87630000D03*
X214630000Y-87630000D03*
X214630000Y-95250000D03*
X214630000Y-80010000D03*
X214630000Y-68580000D03*
X189230000Y-68580000D03*
X189230000Y-80010000D03*
X175260000Y-92710000D03*
D21*
X179070000Y-62230000D02*
X181610000Y-62230000D01*
D22*
X181610000Y-62230000D02*
X204470000Y-62230000D01*
X204470000Y-62230000D02*
X207010000Y-62230000D01*
X196850000Y-97790000D02*
X188595000Y-97790000D01*
X196850000Y-100330000D02*
X190500000Y-100330000D01*
D21*
X179070000Y-82550000D02*
X181610000Y-82550000D01*
D22*
X181610000Y-82550000D02*
X182880000Y-81280000D01*
X182880000Y-81280000D02*
X203200000Y-81280000D01*
X203200000Y-81280000D02*
X204470000Y-82550000D01*
D21*
X204470000Y-82550000D02*
X207010000Y-82550000D01*
D22*
X177800000Y-82550000D02*
X179070000Y-82550000D01*
X176530000Y-83820000D02*
X177800000Y-82550000D01*
X176530000Y-97790000D02*
X176530000Y-83820000D01*
X175260000Y-99060000D02*
X176530000Y-97790000D01*
X172720000Y-99060000D02*
X175260000Y-99060000D01*
D21*
X179070000Y-90170000D02*
X181610000Y-90170000D01*
D22*
X181610000Y-90170000D02*
X182880000Y-88900000D01*
X182880000Y-88900000D02*
X203200000Y-88900000D01*
X203200000Y-88900000D02*
X204470000Y-90170000D01*
D21*
X204470000Y-90170000D02*
X207010000Y-90170000D01*
X179070000Y-87630000D02*
X181610000Y-87630000D01*
D22*
X181610000Y-87630000D02*
X182880000Y-86360000D01*
X182880000Y-86360000D02*
X203200000Y-86360000D01*
X203200000Y-86360000D02*
X204470000Y-87630000D01*
D21*
X204470000Y-87630000D02*
X207010000Y-87630000D01*
X179070000Y-85090000D02*
X181610000Y-85090000D01*
D22*
X181610000Y-85090000D02*
X182880000Y-83820000D01*
X182880000Y-83820000D02*
X203200000Y-83820000D01*
X203200000Y-83820000D02*
X204470000Y-85090000D01*
D21*
X204470000Y-85090000D02*
X207010000Y-85090000D01*
X207010000Y-95250000D02*
X204470000Y-95250000D01*
D22*
X203228599Y-94008599D02*
X182851401Y-94008599D01*
X204470000Y-95250000D02*
X203228599Y-94008599D01*
X182851401Y-94008599D02*
X181610000Y-95250000D01*
D21*
X181610000Y-95250000D02*
X179070000Y-95250000D01*
X179070000Y-92710000D02*
X181610000Y-92710000D01*
D22*
X181610000Y-92710000D02*
X182880000Y-91440000D01*
X182880000Y-91440000D02*
X203200000Y-91440000D01*
X203200000Y-91440000D02*
X204470000Y-92710000D01*
D21*
X204470000Y-92710000D02*
X207010000Y-92710000D01*
X207010000Y-97790000D02*
X204470000Y-97790000D01*
D22*
X203228599Y-96548599D02*
X182851401Y-96548599D01*
X204470000Y-97790000D02*
X203228599Y-96548599D01*
X182851401Y-96548599D02*
X181610000Y-97790000D01*
D21*
X181610000Y-97790000D02*
X179070000Y-97790000D01*
X179070000Y-80010000D02*
X181610000Y-80010000D01*
D22*
X181610000Y-80010000D02*
X182880000Y-78740000D01*
X182880000Y-78740000D02*
X203200000Y-78740000D01*
X203200000Y-78740000D02*
X204470000Y-80010000D01*
D21*
X204470000Y-80010000D02*
X207010000Y-80010000D01*
D22*
X172720000Y-72390000D02*
X173990000Y-72390000D01*
X173990000Y-72390000D02*
X175260000Y-72390000D01*
X175260000Y-72390000D02*
X176530000Y-73660000D01*
X176530000Y-73660000D02*
X176530000Y-78740000D01*
X176530000Y-78740000D02*
X177800000Y-80010000D01*
X177800000Y-80010000D02*
X179070000Y-80010000D01*
D21*
X179070000Y-67310000D02*
X181610000Y-67310000D01*
D22*
X181610000Y-67310000D02*
X204470000Y-67310000D01*
X204470000Y-67310000D02*
X207010000Y-67310000D01*
D21*
X204470000Y-72390000D02*
X207010000Y-72390000D01*
X179070000Y-72390000D02*
X181610000Y-72390000D01*
D22*
X181610000Y-72390000D02*
X182880000Y-71120000D01*
X182880000Y-71120000D02*
X203200000Y-71120000D01*
X203200000Y-71120000D02*
X204470000Y-72390000D01*
D21*
X233680000Y-59055000D02*
X234950000Y-59055000D01*
X234950000Y-59055000D02*
X235585000Y-59055000D01*
X235585000Y-59055000D02*
X236855000Y-60325000D01*
X236855000Y-60325000D02*
X236855000Y-62865000D01*
X233680000Y-59055000D02*
X230505000Y-59055000D01*
X207010000Y-72390000D02*
X215900000Y-72390000D01*
X215900000Y-72390000D02*
X229235000Y-59055000D01*
X229235000Y-59055000D02*
X230505000Y-59055000D01*
X179070000Y-77470000D02*
X181610000Y-77470000D01*
D22*
X181610000Y-77470000D02*
X182880000Y-76200000D01*
X182880000Y-76200000D02*
X203200000Y-76200000D01*
X203200000Y-76200000D02*
X204470000Y-77470000D01*
D21*
X204470000Y-77470000D02*
X207010000Y-77470000D01*
X179070000Y-74930000D02*
X181610000Y-74930000D01*
D22*
X181610000Y-74930000D02*
X182880000Y-73660000D01*
X182880000Y-73660000D02*
X203200000Y-73660000D01*
X203200000Y-73660000D02*
X204470000Y-74930000D01*
D21*
X204470000Y-74930000D02*
X207010000Y-74930000D01*
D23*
X204470000Y-69850000D02*
X207010000Y-69850000D01*
X234950000Y-92710000D02*
X234950000Y-83820000D01*
X234950000Y-83820000D02*
X234950000Y-74930000D01*
D24*
X233680000Y-69215000D02*
X233680000Y-70485000D01*
X233680000Y-70485000D02*
X233680000Y-72390000D01*
X233680000Y-72390000D02*
X234950000Y-73660000D01*
X234950000Y-73660000D02*
X234950000Y-74930000D01*
D23*
X232410000Y-95250000D02*
X234950000Y-92710000D01*
X230505000Y-95250000D02*
X232410000Y-95250000D01*
D24*
X149085000Y-107950000D02*
X149085000Y-108229594D01*
D21*
X149352000Y-109220000D02*
X149098000Y-108966000D01*
X149098000Y-108966000D02*
X149098000Y-107950000D01*
X229870000Y-83820000D02*
X229235000Y-83820000D01*
X229235000Y-83820000D02*
X227330000Y-85725000D01*
X227330000Y-106680000D02*
X224790000Y-109220000D01*
X227330000Y-85725000D02*
X227330000Y-106680000D01*
X224790000Y-109220000D02*
X149352000Y-109220000D01*
D23*
X204470000Y-64770000D02*
X181610000Y-64770000D01*
X181610000Y-64770000D02*
X179070000Y-64770000D01*
X204470000Y-64770000D02*
X207010000Y-64770000D01*
D25*
X238150793Y-50002738D02*
X238786423Y-50194646D01*
X239372669Y-50506359D01*
X239887203Y-50926002D01*
X240310431Y-51437598D01*
X240626227Y-52021650D01*
X240822567Y-52655921D01*
X240893981Y-53335382D01*
X240894000Y-53340847D01*
X240894001Y-109200136D01*
X240827262Y-109880791D01*
X240635354Y-110516423D01*
X240323641Y-111102669D01*
X239903998Y-111617203D01*
X239392406Y-112040429D01*
X238808349Y-112356227D01*
X238174079Y-112552567D01*
X237494618Y-112623981D01*
X237489152Y-112624000D01*
X110509854Y-112624000D01*
X109829209Y-112557262D01*
X109193577Y-112365354D01*
X108607331Y-112053641D01*
X108092797Y-111633998D01*
X107669571Y-111122406D01*
X107353773Y-110538349D01*
X107157433Y-109904079D01*
X107086019Y-109224618D01*
X107086000Y-109219152D01*
X107086000Y-107500000D01*
X139552157Y-107500000D01*
X139552157Y-108400000D01*
X139563356Y-108513707D01*
X139596523Y-108623044D01*
X139650384Y-108723810D01*
X139722868Y-108812132D01*
X139811190Y-108884616D01*
X139911956Y-108938477D01*
X140021293Y-108971644D01*
X140135000Y-108982843D01*
X140535000Y-108982843D01*
X140648707Y-108971644D01*
X140758044Y-108938477D01*
X140858810Y-108884616D01*
X140947132Y-108812132D01*
X141012081Y-108732991D01*
X141030079Y-108754922D01*
X141149002Y-108852519D01*
X141284679Y-108925040D01*
X141431898Y-108969699D01*
X141585000Y-108984778D01*
X141738103Y-108969699D01*
X141885322Y-108925040D01*
X142020999Y-108852519D01*
X142139922Y-108754922D01*
X142210000Y-108669531D01*
X142280079Y-108754922D01*
X142399002Y-108852519D01*
X142534679Y-108925040D01*
X142681898Y-108969699D01*
X142835000Y-108984778D01*
X142988103Y-108969699D01*
X143135322Y-108925040D01*
X143270999Y-108852519D01*
X143389922Y-108754922D01*
X143460000Y-108669531D01*
X143530079Y-108754922D01*
X143649002Y-108852519D01*
X143784679Y-108925040D01*
X143931898Y-108969699D01*
X144085000Y-108984778D01*
X144238103Y-108969699D01*
X144385322Y-108925040D01*
X144520999Y-108852519D01*
X144639922Y-108754922D01*
X144710000Y-108669531D01*
X144780079Y-108754922D01*
X144899002Y-108852519D01*
X145034679Y-108925040D01*
X145181898Y-108969699D01*
X145335000Y-108984778D01*
X145488103Y-108969699D01*
X145635322Y-108925040D01*
X145770999Y-108852519D01*
X145889922Y-108754922D01*
X145960000Y-108669531D01*
X146030079Y-108754922D01*
X146149002Y-108852519D01*
X146284679Y-108925040D01*
X146431898Y-108969699D01*
X146585000Y-108984778D01*
X146738103Y-108969699D01*
X146885322Y-108925040D01*
X147020999Y-108852519D01*
X147139922Y-108754922D01*
X147210000Y-108669531D01*
X147280079Y-108754922D01*
X147399002Y-108852519D01*
X147534679Y-108925040D01*
X147681898Y-108969699D01*
X147835000Y-108984778D01*
X147988103Y-108969699D01*
X148135322Y-108925040D01*
X148270999Y-108852519D01*
X148389922Y-108754922D01*
X148460000Y-108669531D01*
X148513800Y-108735086D01*
X148513800Y-108937315D01*
X148510975Y-108966000D01*
X148513800Y-108994684D01*
X148513800Y-108994691D01*
X148516727Y-109024408D01*
X148522254Y-109080523D01*
X148552546Y-109180381D01*
X148555659Y-109190644D01*
X148609906Y-109292133D01*
X148682910Y-109381090D01*
X148705200Y-109399383D01*
X148918614Y-109612796D01*
X148936910Y-109635090D01*
X149025866Y-109708094D01*
X149127355Y-109762341D01*
X149237477Y-109795746D01*
X149323308Y-109804200D01*
X149323317Y-109804200D01*
X149351999Y-109807025D01*
X149380681Y-109804200D01*
X224761316Y-109804200D01*
X224790000Y-109807025D01*
X224818684Y-109804200D01*
X224818692Y-109804200D01*
X224904523Y-109795746D01*
X225014645Y-109762341D01*
X225116134Y-109708094D01*
X225205090Y-109635090D01*
X225223382Y-109612801D01*
X227722801Y-107113382D01*
X227745090Y-107095090D01*
X227818094Y-107006134D01*
X227872341Y-106904645D01*
X227905746Y-106794523D01*
X227914200Y-106708692D01*
X227914200Y-106708683D01*
X227917025Y-106680001D01*
X227914200Y-106651319D01*
X227914200Y-101370000D01*
X228701928Y-101370000D01*
X228714188Y-101494482D01*
X228750498Y-101614180D01*
X228809463Y-101724494D01*
X228888815Y-101821185D01*
X228985506Y-101900537D01*
X229095820Y-101959502D01*
X229215518Y-101995812D01*
X229340000Y-102008072D01*
X230854250Y-102005000D01*
X231013000Y-101846250D01*
X231013000Y-100457000D01*
X231267000Y-100457000D01*
X231267000Y-101846250D01*
X231425750Y-102005000D01*
X232940000Y-102008072D01*
X233064482Y-101995812D01*
X233184180Y-101959502D01*
X233294494Y-101900537D01*
X233391185Y-101821185D01*
X233470537Y-101724494D01*
X233529502Y-101614180D01*
X233565812Y-101494482D01*
X233578072Y-101370000D01*
X233575000Y-100615750D01*
X233416250Y-100457000D01*
X231267000Y-100457000D01*
X231013000Y-100457000D01*
X228863750Y-100457000D01*
X228705000Y-100615750D01*
X228701928Y-101370000D01*
X227914200Y-101370000D01*
X227914200Y-99290000D01*
X228701928Y-99290000D01*
X228705000Y-100044250D01*
X228863750Y-100203000D01*
X231013000Y-100203000D01*
X231013000Y-98813750D01*
X231267000Y-98813750D01*
X231267000Y-100203000D01*
X233416250Y-100203000D01*
X233575000Y-100044250D01*
X233578072Y-99290000D01*
X233565812Y-99165518D01*
X233529502Y-99045820D01*
X233470537Y-98935506D01*
X233391185Y-98838815D01*
X233294494Y-98759463D01*
X233184180Y-98700498D01*
X233064482Y-98664188D01*
X232940000Y-98651928D01*
X231425750Y-98655000D01*
X231267000Y-98813750D01*
X231013000Y-98813750D01*
X230854250Y-98655000D01*
X229340000Y-98651928D01*
X229215518Y-98664188D01*
X229095820Y-98700498D01*
X228985506Y-98759463D01*
X228888815Y-98838815D01*
X228809463Y-98935506D01*
X228750498Y-99045820D01*
X228714188Y-99165518D01*
X228701928Y-99290000D01*
X227914200Y-99290000D01*
X227914200Y-95250000D01*
X228952125Y-95250000D01*
X228979561Y-95528565D01*
X229060816Y-95796424D01*
X229192765Y-96043285D01*
X229370340Y-96259660D01*
X229586715Y-96437235D01*
X229833576Y-96569184D01*
X230101435Y-96650439D01*
X230310196Y-96671000D01*
X231969804Y-96671000D01*
X232178565Y-96650439D01*
X232446424Y-96569184D01*
X232693285Y-96437235D01*
X232909660Y-96259660D01*
X233087235Y-96043285D01*
X233219184Y-95796424D01*
X233300439Y-95528565D01*
X233306497Y-95467053D01*
X235479434Y-93294118D01*
X235509469Y-93269469D01*
X235537199Y-93235681D01*
X235607865Y-93149573D01*
X235607866Y-93149572D01*
X235680982Y-93012783D01*
X235726006Y-92864357D01*
X235737400Y-92748673D01*
X235737400Y-92748664D01*
X235741208Y-92710001D01*
X235737400Y-92671338D01*
X235737400Y-84821292D01*
X235759578Y-84806473D01*
X235936473Y-84629578D01*
X236075459Y-84421571D01*
X236171195Y-84190445D01*
X236220000Y-83945084D01*
X236268805Y-84190445D01*
X236364541Y-84421571D01*
X236503527Y-84629578D01*
X236680422Y-84806473D01*
X236888429Y-84945459D01*
X237119555Y-85041195D01*
X237364916Y-85090000D01*
X237615084Y-85090000D01*
X237860445Y-85041195D01*
X238091571Y-84945459D01*
X238299578Y-84806473D01*
X238476473Y-84629578D01*
X238615459Y-84421571D01*
X238711195Y-84190445D01*
X238760000Y-83945084D01*
X238760000Y-83694916D01*
X238711195Y-83449555D01*
X238615459Y-83218429D01*
X238476473Y-83010422D01*
X238299578Y-82833527D01*
X238091571Y-82694541D01*
X237860445Y-82598805D01*
X237615084Y-82550000D01*
X237364916Y-82550000D01*
X237119555Y-82598805D01*
X236888429Y-82694541D01*
X236680422Y-82833527D01*
X236503527Y-83010422D01*
X236364541Y-83218429D01*
X236268805Y-83449555D01*
X236220000Y-83694916D01*
X236171195Y-83449555D01*
X236075459Y-83218429D01*
X235936473Y-83010422D01*
X235759578Y-82833527D01*
X235737400Y-82818708D01*
X235737400Y-75931292D01*
X235759578Y-75916473D01*
X235936473Y-75739578D01*
X236075459Y-75531571D01*
X236171195Y-75300445D01*
X236220000Y-75055084D01*
X236268805Y-75300445D01*
X236364541Y-75531571D01*
X236503527Y-75739578D01*
X236680422Y-75916473D01*
X236888429Y-76055459D01*
X237119555Y-76151195D01*
X237364916Y-76200000D01*
X237615084Y-76200000D01*
X237860445Y-76151195D01*
X238091571Y-76055459D01*
X238299578Y-75916473D01*
X238476473Y-75739578D01*
X238615459Y-75531571D01*
X238711195Y-75300445D01*
X238760000Y-75055084D01*
X238760000Y-74804916D01*
X238711195Y-74559555D01*
X238615459Y-74328429D01*
X238476473Y-74120422D01*
X238299578Y-73943527D01*
X238091571Y-73804541D01*
X237860445Y-73708805D01*
X237615084Y-73660000D01*
X237364916Y-73660000D01*
X237119555Y-73708805D01*
X236888429Y-73804541D01*
X236680422Y-73943527D01*
X236503527Y-74120422D01*
X236364541Y-74328429D01*
X236268805Y-74559555D01*
X236220000Y-74804916D01*
X236171195Y-74559555D01*
X236075459Y-74328429D01*
X235936473Y-74120422D01*
X235759578Y-73943527D01*
X235635800Y-73860821D01*
X235635800Y-73693678D01*
X235639117Y-73659999D01*
X235635800Y-73626320D01*
X235635800Y-73626311D01*
X235625877Y-73525560D01*
X235586662Y-73396286D01*
X235522981Y-73277147D01*
X235512443Y-73264307D01*
X235458755Y-73198887D01*
X235458749Y-73198881D01*
X235437279Y-73172720D01*
X235411119Y-73151251D01*
X234365800Y-72105933D01*
X234365800Y-70177139D01*
X234432843Y-70132342D01*
X234597342Y-69967843D01*
X234726588Y-69774413D01*
X234815614Y-69559485D01*
X234861000Y-69331318D01*
X234861000Y-69098682D01*
X234815614Y-68870515D01*
X234726588Y-68655587D01*
X234597342Y-68462157D01*
X234432843Y-68297658D01*
X234239413Y-68168412D01*
X234024485Y-68079386D01*
X233796318Y-68034000D01*
X233563682Y-68034000D01*
X233335515Y-68079386D01*
X233120587Y-68168412D01*
X232927157Y-68297658D01*
X232762658Y-68462157D01*
X232633412Y-68655587D01*
X232544386Y-68870515D01*
X232499000Y-69098682D01*
X232499000Y-69331318D01*
X232544386Y-69559485D01*
X232633412Y-69774413D01*
X232762658Y-69967843D01*
X232927157Y-70132342D01*
X232994201Y-70177139D01*
X232994201Y-70451302D01*
X232994200Y-70451312D01*
X232994201Y-72356312D01*
X232990883Y-72390000D01*
X233004124Y-72524440D01*
X233043339Y-72653714D01*
X233107020Y-72772853D01*
X233117558Y-72785693D01*
X233192721Y-72877280D01*
X233218886Y-72898753D01*
X234214297Y-73894165D01*
X234140422Y-73943527D01*
X233963527Y-74120422D01*
X233936461Y-74160929D01*
X233937072Y-74041000D01*
X233924812Y-73916518D01*
X233888502Y-73796820D01*
X233829537Y-73686506D01*
X233750185Y-73589815D01*
X233653494Y-73510463D01*
X233543180Y-73451498D01*
X233423482Y-73415188D01*
X233299000Y-73402928D01*
X232695750Y-73406000D01*
X232537000Y-73564750D01*
X232537000Y-74803000D01*
X232557000Y-74803000D01*
X232557000Y-75057000D01*
X232537000Y-75057000D01*
X232537000Y-76295250D01*
X232695750Y-76454000D01*
X233299000Y-76457072D01*
X233423482Y-76444812D01*
X233543180Y-76408502D01*
X233653494Y-76349537D01*
X233750185Y-76270185D01*
X233829537Y-76173494D01*
X233888502Y-76063180D01*
X233924812Y-75943482D01*
X233937072Y-75819000D01*
X233936461Y-75699071D01*
X233963527Y-75739578D01*
X234140422Y-75916473D01*
X234162601Y-75931292D01*
X234162600Y-82818708D01*
X234140422Y-82833527D01*
X233963527Y-83010422D01*
X233936461Y-83050929D01*
X233937072Y-82931000D01*
X233924812Y-82806518D01*
X233888502Y-82686820D01*
X233829537Y-82576506D01*
X233750185Y-82479815D01*
X233653494Y-82400463D01*
X233543180Y-82341498D01*
X233423482Y-82305188D01*
X233299000Y-82292928D01*
X232695750Y-82296000D01*
X232537000Y-82454750D01*
X232537000Y-83693000D01*
X232557000Y-83693000D01*
X232557000Y-83947000D01*
X232537000Y-83947000D01*
X232537000Y-85185250D01*
X232695750Y-85344000D01*
X233299000Y-85347072D01*
X233423482Y-85334812D01*
X233543180Y-85298502D01*
X233653494Y-85239537D01*
X233750185Y-85160185D01*
X233829537Y-85063494D01*
X233888502Y-84953180D01*
X233924812Y-84833482D01*
X233937072Y-84709000D01*
X233936461Y-84589071D01*
X233963527Y-84629578D01*
X234140422Y-84806473D01*
X234162601Y-84821292D01*
X234162600Y-92383848D01*
X232556694Y-93989756D01*
X232446424Y-93930816D01*
X232178565Y-93849561D01*
X231969804Y-93829000D01*
X230310196Y-93829000D01*
X230101435Y-93849561D01*
X229833576Y-93930816D01*
X229586715Y-94062765D01*
X229370340Y-94240340D01*
X229192765Y-94456715D01*
X229060816Y-94703576D01*
X228979561Y-94971435D01*
X228952125Y-95250000D01*
X227914200Y-95250000D01*
X227914200Y-85966983D01*
X229068987Y-84812196D01*
X229268429Y-84945459D01*
X229499555Y-85041195D01*
X229744916Y-85090000D01*
X229995084Y-85090000D01*
X230240445Y-85041195D01*
X230471571Y-84945459D01*
X230679578Y-84806473D01*
X230856473Y-84629578D01*
X230883539Y-84589071D01*
X230882928Y-84709000D01*
X230895188Y-84833482D01*
X230931498Y-84953180D01*
X230990463Y-85063494D01*
X231069815Y-85160185D01*
X231166506Y-85239537D01*
X231276820Y-85298502D01*
X231396518Y-85334812D01*
X231521000Y-85347072D01*
X232124250Y-85344000D01*
X232283000Y-85185250D01*
X232283000Y-83947000D01*
X232263000Y-83947000D01*
X232263000Y-83693000D01*
X232283000Y-83693000D01*
X232283000Y-82454750D01*
X232124250Y-82296000D01*
X231521000Y-82292928D01*
X231396518Y-82305188D01*
X231276820Y-82341498D01*
X231166506Y-82400463D01*
X231069815Y-82479815D01*
X230990463Y-82576506D01*
X230931498Y-82686820D01*
X230895188Y-82806518D01*
X230882928Y-82931000D01*
X230883539Y-83050929D01*
X230856473Y-83010422D01*
X230679578Y-82833527D01*
X230471571Y-82694541D01*
X230240445Y-82598805D01*
X229995084Y-82550000D01*
X229744916Y-82550000D01*
X229499555Y-82598805D01*
X229268429Y-82694541D01*
X229060422Y-82833527D01*
X228883527Y-83010422D01*
X228744541Y-83218429D01*
X228648805Y-83449555D01*
X228616413Y-83612403D01*
X226937199Y-85291618D01*
X226914910Y-85309910D01*
X226841906Y-85398867D01*
X226804422Y-85468995D01*
X226787659Y-85500356D01*
X226754254Y-85610477D01*
X226753190Y-85621283D01*
X226745800Y-85696309D01*
X226745800Y-85696316D01*
X226742975Y-85725000D01*
X226745800Y-85753684D01*
X226745801Y-106438016D01*
X224548017Y-108635800D01*
X152539556Y-108635800D01*
X152605648Y-108445433D01*
X152633918Y-108241599D01*
X152468762Y-108077000D01*
X151712000Y-108077000D01*
X151712000Y-108097000D01*
X151458000Y-108097000D01*
X151458000Y-108077000D01*
X151438000Y-108077000D01*
X151438000Y-107823000D01*
X151458000Y-107823000D01*
X151458000Y-106833002D01*
X151712000Y-106833002D01*
X151712000Y-107823000D01*
X152468762Y-107823000D01*
X152633918Y-107658401D01*
X152605648Y-107454567D01*
X152538155Y-107260164D01*
X152434033Y-107082664D01*
X152297283Y-106928888D01*
X152133160Y-106804745D01*
X151947972Y-106715006D01*
X151871123Y-106705334D01*
X151712000Y-106833002D01*
X151458000Y-106833002D01*
X151298877Y-106705334D01*
X151222028Y-106715006D01*
X151036840Y-106804745D01*
X150872717Y-106928888D01*
X150768461Y-107046125D01*
X150635321Y-106974960D01*
X150488102Y-106930301D01*
X150335000Y-106915222D01*
X150181897Y-106930301D01*
X150034678Y-106974960D01*
X149899001Y-107047481D01*
X149780078Y-107145078D01*
X149710000Y-107230469D01*
X149639922Y-107145078D01*
X149520998Y-107047481D01*
X149385321Y-106974960D01*
X149238102Y-106930301D01*
X149085000Y-106915222D01*
X148931897Y-106930301D01*
X148784678Y-106974960D01*
X148649001Y-107047481D01*
X148530078Y-107145078D01*
X148460000Y-107230469D01*
X148389922Y-107145078D01*
X148270998Y-107047481D01*
X148135321Y-106974960D01*
X147988102Y-106930301D01*
X147835000Y-106915222D01*
X147681897Y-106930301D01*
X147534678Y-106974960D01*
X147399001Y-107047481D01*
X147280078Y-107145078D01*
X147210000Y-107230469D01*
X147139922Y-107145078D01*
X147020998Y-107047481D01*
X146885321Y-106974960D01*
X146738102Y-106930301D01*
X146585000Y-106915222D01*
X146431897Y-106930301D01*
X146284678Y-106974960D01*
X146149001Y-107047481D01*
X146030078Y-107145078D01*
X145960000Y-107230469D01*
X145889922Y-107145078D01*
X145770998Y-107047481D01*
X145635321Y-106974960D01*
X145488102Y-106930301D01*
X145335000Y-106915222D01*
X145181897Y-106930301D01*
X145034678Y-106974960D01*
X144899001Y-107047481D01*
X144780078Y-107145078D01*
X144710000Y-107230469D01*
X144639922Y-107145078D01*
X144520998Y-107047481D01*
X144385321Y-106974960D01*
X144238102Y-106930301D01*
X144085000Y-106915222D01*
X143931897Y-106930301D01*
X143784678Y-106974960D01*
X143649001Y-107047481D01*
X143530078Y-107145078D01*
X143460000Y-107230469D01*
X143389922Y-107145078D01*
X143270998Y-107047481D01*
X143135321Y-106974960D01*
X142988102Y-106930301D01*
X142835000Y-106915222D01*
X142681897Y-106930301D01*
X142534678Y-106974960D01*
X142399001Y-107047481D01*
X142280078Y-107145078D01*
X142210000Y-107230469D01*
X142139922Y-107145078D01*
X142020998Y-107047481D01*
X141885321Y-106974960D01*
X141738102Y-106930301D01*
X141585000Y-106915222D01*
X141431897Y-106930301D01*
X141284678Y-106974960D01*
X141149001Y-107047481D01*
X141030078Y-107145078D01*
X141012081Y-107167008D01*
X140947132Y-107087868D01*
X140858810Y-107015384D01*
X140758044Y-106961523D01*
X140648707Y-106928356D01*
X140535000Y-106917157D01*
X140135000Y-106917157D01*
X140021293Y-106928356D01*
X139911956Y-106961523D01*
X139811190Y-107015384D01*
X139722868Y-107087868D01*
X139650384Y-107176190D01*
X139596523Y-107276956D01*
X139563356Y-107386293D01*
X139552157Y-107500000D01*
X107086000Y-107500000D01*
X107086000Y-105184849D01*
X157734000Y-105184849D01*
X157734000Y-105635151D01*
X157821850Y-106076802D01*
X157994173Y-106492827D01*
X158244348Y-106867240D01*
X158562760Y-107185652D01*
X158937173Y-107435827D01*
X159353198Y-107608150D01*
X159794849Y-107696000D01*
X160245151Y-107696000D01*
X160686802Y-107608150D01*
X161102827Y-107435827D01*
X161477240Y-107185652D01*
X161795652Y-106867240D01*
X162045827Y-106492827D01*
X162218150Y-106076802D01*
X162306000Y-105635151D01*
X162306000Y-105184849D01*
X170434000Y-105184849D01*
X170434000Y-105635151D01*
X170521850Y-106076802D01*
X170694173Y-106492827D01*
X170944348Y-106867240D01*
X171262760Y-107185652D01*
X171637173Y-107435827D01*
X172053198Y-107608150D01*
X172494849Y-107696000D01*
X172945151Y-107696000D01*
X173386802Y-107608150D01*
X173802827Y-107435827D01*
X174177240Y-107185652D01*
X174495652Y-106867240D01*
X174745827Y-106492827D01*
X174918150Y-106076802D01*
X175006000Y-105635151D01*
X175006000Y-105184849D01*
X174918150Y-104743198D01*
X174745827Y-104327173D01*
X174512110Y-103977391D01*
X178689000Y-103977391D01*
X178689000Y-104302609D01*
X178752447Y-104621579D01*
X178876903Y-104922042D01*
X179057585Y-105192451D01*
X179287549Y-105422415D01*
X179557958Y-105603097D01*
X179858421Y-105727553D01*
X180177391Y-105791000D01*
X180502609Y-105791000D01*
X180821579Y-105727553D01*
X181122042Y-105603097D01*
X181392451Y-105422415D01*
X181622415Y-105192451D01*
X181803097Y-104922042D01*
X181927553Y-104621579D01*
X181991000Y-104302609D01*
X181991000Y-103977391D01*
X196469000Y-103977391D01*
X196469000Y-104302609D01*
X196532447Y-104621579D01*
X196656903Y-104922042D01*
X196837585Y-105192451D01*
X197067549Y-105422415D01*
X197337958Y-105603097D01*
X197638421Y-105727553D01*
X197957391Y-105791000D01*
X198282609Y-105791000D01*
X198601579Y-105727553D01*
X198902042Y-105603097D01*
X199172451Y-105422415D01*
X199402415Y-105192451D01*
X199583097Y-104922042D01*
X199707553Y-104621579D01*
X199771000Y-104302609D01*
X199771000Y-103977391D01*
X204089000Y-103977391D01*
X204089000Y-104302609D01*
X204152447Y-104621579D01*
X204276903Y-104922042D01*
X204457585Y-105192451D01*
X204687549Y-105422415D01*
X204957958Y-105603097D01*
X205258421Y-105727553D01*
X205577391Y-105791000D01*
X205902609Y-105791000D01*
X206221579Y-105727553D01*
X206522042Y-105603097D01*
X206792451Y-105422415D01*
X207022415Y-105192451D01*
X207203097Y-104922042D01*
X207327553Y-104621579D01*
X207391000Y-104302609D01*
X207391000Y-103977391D01*
X221869000Y-103977391D01*
X221869000Y-104302609D01*
X221932447Y-104621579D01*
X222056903Y-104922042D01*
X222237585Y-105192451D01*
X222467549Y-105422415D01*
X222737958Y-105603097D01*
X223038421Y-105727553D01*
X223357391Y-105791000D01*
X223682609Y-105791000D01*
X224001579Y-105727553D01*
X224302042Y-105603097D01*
X224572451Y-105422415D01*
X224802415Y-105192451D01*
X224983097Y-104922042D01*
X225107553Y-104621579D01*
X225171000Y-104302609D01*
X225171000Y-103977391D01*
X225107553Y-103658421D01*
X224983097Y-103357958D01*
X224802415Y-103087549D01*
X224572451Y-102857585D01*
X224302042Y-102676903D01*
X224001579Y-102552447D01*
X223682609Y-102489000D01*
X223357391Y-102489000D01*
X223038421Y-102552447D01*
X222737958Y-102676903D01*
X222467549Y-102857585D01*
X222237585Y-103087549D01*
X222056903Y-103357958D01*
X221932447Y-103658421D01*
X221869000Y-103977391D01*
X207391000Y-103977391D01*
X207327553Y-103658421D01*
X207203097Y-103357958D01*
X207022415Y-103087549D01*
X206792451Y-102857585D01*
X206522042Y-102676903D01*
X206221579Y-102552447D01*
X205902609Y-102489000D01*
X205577391Y-102489000D01*
X205258421Y-102552447D01*
X204957958Y-102676903D01*
X204687549Y-102857585D01*
X204457585Y-103087549D01*
X204276903Y-103357958D01*
X204152447Y-103658421D01*
X204089000Y-103977391D01*
X199771000Y-103977391D01*
X199707553Y-103658421D01*
X199583097Y-103357958D01*
X199402415Y-103087549D01*
X199172451Y-102857585D01*
X198902042Y-102676903D01*
X198601579Y-102552447D01*
X198282609Y-102489000D01*
X197957391Y-102489000D01*
X197638421Y-102552447D01*
X197337958Y-102676903D01*
X197067549Y-102857585D01*
X196837585Y-103087549D01*
X196656903Y-103357958D01*
X196532447Y-103658421D01*
X196469000Y-103977391D01*
X181991000Y-103977391D01*
X181927553Y-103658421D01*
X181803097Y-103357958D01*
X181622415Y-103087549D01*
X181392451Y-102857585D01*
X181122042Y-102676903D01*
X180821579Y-102552447D01*
X180502609Y-102489000D01*
X180177391Y-102489000D01*
X179858421Y-102552447D01*
X179557958Y-102676903D01*
X179287549Y-102857585D01*
X179057585Y-103087549D01*
X178876903Y-103357958D01*
X178752447Y-103658421D01*
X178689000Y-103977391D01*
X174512110Y-103977391D01*
X174495652Y-103952760D01*
X174177240Y-103634348D01*
X173802827Y-103384173D01*
X173386802Y-103211850D01*
X172945151Y-103124000D01*
X172494849Y-103124000D01*
X172053198Y-103211850D01*
X171637173Y-103384173D01*
X171262760Y-103634348D01*
X170944348Y-103952760D01*
X170694173Y-104327173D01*
X170521850Y-104743198D01*
X170434000Y-105184849D01*
X162306000Y-105184849D01*
X162218150Y-104743198D01*
X162045827Y-104327173D01*
X161795652Y-103952760D01*
X161477240Y-103634348D01*
X161102827Y-103384173D01*
X160686802Y-103211850D01*
X160245151Y-103124000D01*
X159794849Y-103124000D01*
X159353198Y-103211850D01*
X158937173Y-103384173D01*
X158562760Y-103634348D01*
X158244348Y-103952760D01*
X157994173Y-104327173D01*
X157821850Y-104743198D01*
X157734000Y-105184849D01*
X107086000Y-105184849D01*
X107086000Y-100346247D01*
X148549005Y-100346247D01*
X148549005Y-100913753D01*
X148659720Y-101470355D01*
X148876895Y-101994663D01*
X149192185Y-102466527D01*
X149593473Y-102867815D01*
X150065337Y-103183105D01*
X150589645Y-103400280D01*
X151146247Y-103510995D01*
X151713753Y-103510995D01*
X152270355Y-103400280D01*
X152794663Y-103183105D01*
X153266527Y-102867815D01*
X153667815Y-102466527D01*
X153983105Y-101994663D01*
X154200280Y-101470355D01*
X154310995Y-100913753D01*
X154310995Y-100346247D01*
X154200280Y-99789645D01*
X153983105Y-99265337D01*
X153667815Y-98793473D01*
X153266527Y-98392185D01*
X152794663Y-98076895D01*
X152270355Y-97859720D01*
X151713753Y-97749005D01*
X151146247Y-97749005D01*
X150589645Y-97859720D01*
X150065337Y-98076895D01*
X149593473Y-98392185D01*
X149192185Y-98793473D01*
X148876895Y-99265337D01*
X148659720Y-99789645D01*
X148549005Y-100346247D01*
X107086000Y-100346247D01*
X107086000Y-91314916D01*
X158750000Y-91314916D01*
X158750000Y-91565084D01*
X158798805Y-91810445D01*
X158894541Y-92041571D01*
X159033527Y-92249578D01*
X159210422Y-92426473D01*
X159418429Y-92565459D01*
X159649555Y-92661195D01*
X159894916Y-92710000D01*
X159649555Y-92758805D01*
X159418429Y-92854541D01*
X159210422Y-92993527D01*
X159033527Y-93170422D01*
X158894541Y-93378429D01*
X158798805Y-93609555D01*
X158750000Y-93854916D01*
X158750000Y-94105084D01*
X158798805Y-94350445D01*
X158894541Y-94581571D01*
X159033527Y-94789578D01*
X159210422Y-94966473D01*
X159418429Y-95105459D01*
X159649555Y-95201195D01*
X159894916Y-95250000D01*
X159649555Y-95298805D01*
X159418429Y-95394541D01*
X159210422Y-95533527D01*
X159033527Y-95710422D01*
X158894541Y-95918429D01*
X158798805Y-96149555D01*
X158750000Y-96394916D01*
X158750000Y-96645084D01*
X158798805Y-96890445D01*
X158894541Y-97121571D01*
X159033527Y-97329578D01*
X159210422Y-97506473D01*
X159418429Y-97645459D01*
X159649555Y-97741195D01*
X159894916Y-97790000D01*
X159649555Y-97838805D01*
X159418429Y-97934541D01*
X159210422Y-98073527D01*
X159033527Y-98250422D01*
X158894541Y-98458429D01*
X158798805Y-98689555D01*
X158750000Y-98934916D01*
X158750000Y-99185084D01*
X158798805Y-99430445D01*
X158894541Y-99661571D01*
X159033527Y-99869578D01*
X159210422Y-100046473D01*
X159418429Y-100185459D01*
X159649555Y-100281195D01*
X159894916Y-100330000D01*
X160145084Y-100330000D01*
X160390445Y-100281195D01*
X160621571Y-100185459D01*
X160829578Y-100046473D01*
X161006473Y-99869578D01*
X161145459Y-99661571D01*
X161241195Y-99430445D01*
X161290000Y-99185084D01*
X161290000Y-98934916D01*
X161241195Y-98689555D01*
X161145459Y-98458429D01*
X161006473Y-98250422D01*
X160829578Y-98073527D01*
X160621571Y-97934541D01*
X160390445Y-97838805D01*
X160145084Y-97790000D01*
X160390445Y-97741195D01*
X160621571Y-97645459D01*
X160829578Y-97506473D01*
X161006473Y-97329578D01*
X161145459Y-97121571D01*
X161241195Y-96890445D01*
X161290000Y-96645084D01*
X161290000Y-96586988D01*
X171190092Y-96586988D01*
X171232557Y-96884171D01*
X171332184Y-97167359D01*
X171410711Y-97314273D01*
X171663769Y-97396626D01*
X172540395Y-96520000D01*
X172899605Y-96520000D01*
X173776231Y-97396626D01*
X174029289Y-97314273D01*
X174159086Y-97043582D01*
X174233580Y-96752770D01*
X174249908Y-96453012D01*
X174207443Y-96155829D01*
X174107816Y-95872641D01*
X174029289Y-95725727D01*
X173776231Y-95643374D01*
X172899605Y-96520000D01*
X172540395Y-96520000D01*
X171663769Y-95643374D01*
X171410711Y-95725727D01*
X171280914Y-95996418D01*
X171206420Y-96287230D01*
X171190092Y-96586988D01*
X161290000Y-96586988D01*
X161290000Y-96394916D01*
X161241195Y-96149555D01*
X161145459Y-95918429D01*
X161006473Y-95710422D01*
X160829578Y-95533527D01*
X160621571Y-95394541D01*
X160390445Y-95298805D01*
X160145084Y-95250000D01*
X160390445Y-95201195D01*
X160621571Y-95105459D01*
X160829578Y-94966473D01*
X161006473Y-94789578D01*
X161145459Y-94581571D01*
X161241195Y-94350445D01*
X161290000Y-94105084D01*
X161290000Y-93854916D01*
X161241195Y-93609555D01*
X161145459Y-93378429D01*
X161006473Y-93170422D01*
X160829578Y-92993527D01*
X160621571Y-92854541D01*
X160390445Y-92758805D01*
X160145084Y-92710000D01*
X160390445Y-92661195D01*
X160621571Y-92565459D01*
X160829578Y-92426473D01*
X161006473Y-92249578D01*
X161145459Y-92041571D01*
X161241195Y-91810445D01*
X161290000Y-91565084D01*
X161290000Y-91314916D01*
X161241195Y-91069555D01*
X161145459Y-90838429D01*
X161006473Y-90630422D01*
X160829578Y-90453527D01*
X160621571Y-90314541D01*
X160390445Y-90218805D01*
X160145084Y-90170000D01*
X159894916Y-90170000D01*
X159649555Y-90218805D01*
X159418429Y-90314541D01*
X159210422Y-90453527D01*
X159033527Y-90630422D01*
X158894541Y-90838429D01*
X158798805Y-91069555D01*
X158750000Y-91314916D01*
X107086000Y-91314916D01*
X107086000Y-88774916D01*
X171450000Y-88774916D01*
X171450000Y-89025084D01*
X171498805Y-89270445D01*
X171594541Y-89501571D01*
X171733527Y-89709578D01*
X171910422Y-89886473D01*
X172118429Y-90025459D01*
X172349555Y-90121195D01*
X172594916Y-90170000D01*
X172349555Y-90218805D01*
X172118429Y-90314541D01*
X171910422Y-90453527D01*
X171733527Y-90630422D01*
X171594541Y-90838429D01*
X171498805Y-91069555D01*
X171450000Y-91314916D01*
X171450000Y-91565084D01*
X171498805Y-91810445D01*
X171594541Y-92041571D01*
X171733527Y-92249578D01*
X171910422Y-92426473D01*
X172118429Y-92565459D01*
X172349555Y-92661195D01*
X172594916Y-92710000D01*
X172349555Y-92758805D01*
X172118429Y-92854541D01*
X171910422Y-92993527D01*
X171733527Y-93170422D01*
X171594541Y-93378429D01*
X171498805Y-93609555D01*
X171450000Y-93854916D01*
X171450000Y-94105084D01*
X171498805Y-94350445D01*
X171594541Y-94581571D01*
X171733527Y-94789578D01*
X171910422Y-94966473D01*
X172118429Y-95105459D01*
X172132288Y-95111200D01*
X172072641Y-95132184D01*
X171925727Y-95210711D01*
X171843374Y-95463769D01*
X172720000Y-96340395D01*
X173596626Y-95463769D01*
X173514273Y-95210711D01*
X173307192Y-95111415D01*
X173321571Y-95105459D01*
X173529578Y-94966473D01*
X173706473Y-94789578D01*
X173845459Y-94581571D01*
X173941195Y-94350445D01*
X173990000Y-94105084D01*
X173990000Y-93854916D01*
X173941195Y-93609555D01*
X173845459Y-93378429D01*
X173706473Y-93170422D01*
X173529578Y-92993527D01*
X173321571Y-92854541D01*
X173090445Y-92758805D01*
X172845084Y-92710000D01*
X173090445Y-92661195D01*
X173321571Y-92565459D01*
X173529578Y-92426473D01*
X173706473Y-92249578D01*
X173845459Y-92041571D01*
X173941195Y-91810445D01*
X173990000Y-91565084D01*
X173990000Y-91314916D01*
X173941195Y-91069555D01*
X173845459Y-90838429D01*
X173706473Y-90630422D01*
X173529578Y-90453527D01*
X173321571Y-90314541D01*
X173090445Y-90218805D01*
X172845084Y-90170000D01*
X173090445Y-90121195D01*
X173321571Y-90025459D01*
X173529578Y-89886473D01*
X173706473Y-89709578D01*
X173845459Y-89501571D01*
X173941195Y-89270445D01*
X173990000Y-89025084D01*
X173990000Y-88774916D01*
X173941195Y-88529555D01*
X173845459Y-88298429D01*
X173706473Y-88090422D01*
X173529578Y-87913527D01*
X173321571Y-87774541D01*
X173090445Y-87678805D01*
X172845084Y-87630000D01*
X172594916Y-87630000D01*
X172349555Y-87678805D01*
X172118429Y-87774541D01*
X171910422Y-87913527D01*
X171733527Y-88090422D01*
X171594541Y-88298429D01*
X171498805Y-88529555D01*
X171450000Y-88774916D01*
X107086000Y-88774916D01*
X107086000Y-84864849D01*
X157734000Y-84864849D01*
X157734000Y-85315151D01*
X157821850Y-85756802D01*
X157994173Y-86172827D01*
X158244348Y-86547240D01*
X158562760Y-86865652D01*
X158937173Y-87115827D01*
X159353198Y-87288150D01*
X159794849Y-87376000D01*
X160245151Y-87376000D01*
X160686802Y-87288150D01*
X161102827Y-87115827D01*
X161477240Y-86865652D01*
X161795652Y-86547240D01*
X162045827Y-86172827D01*
X162218150Y-85756802D01*
X162306000Y-85315151D01*
X162306000Y-84864849D01*
X170434000Y-84864849D01*
X170434000Y-85315151D01*
X170521850Y-85756802D01*
X170694173Y-86172827D01*
X170944348Y-86547240D01*
X171262760Y-86865652D01*
X171637173Y-87115827D01*
X172053198Y-87288150D01*
X172494849Y-87376000D01*
X172945151Y-87376000D01*
X173386802Y-87288150D01*
X173802827Y-87115827D01*
X174177240Y-86865652D01*
X174495652Y-86547240D01*
X174745827Y-86172827D01*
X174918150Y-85756802D01*
X175006000Y-85315151D01*
X175006000Y-84864849D01*
X174918150Y-84423198D01*
X174745827Y-84007173D01*
X174495652Y-83632760D01*
X174177240Y-83314348D01*
X173802827Y-83064173D01*
X173386802Y-82891850D01*
X172945151Y-82804000D01*
X172494849Y-82804000D01*
X172053198Y-82891850D01*
X171637173Y-83064173D01*
X171262760Y-83314348D01*
X170944348Y-83632760D01*
X170694173Y-84007173D01*
X170521850Y-84423198D01*
X170434000Y-84864849D01*
X162306000Y-84864849D01*
X162218150Y-84423198D01*
X162045827Y-84007173D01*
X161795652Y-83632760D01*
X161477240Y-83314348D01*
X161102827Y-83064173D01*
X160686802Y-82891850D01*
X160245151Y-82804000D01*
X159794849Y-82804000D01*
X159353198Y-82891850D01*
X158937173Y-83064173D01*
X158562760Y-83314348D01*
X158244348Y-83632760D01*
X157994173Y-84007173D01*
X157821850Y-84423198D01*
X157734000Y-84864849D01*
X107086000Y-84864849D01*
X107086000Y-77244849D01*
X157734000Y-77244849D01*
X157734000Y-77695151D01*
X157821850Y-78136802D01*
X157994173Y-78552827D01*
X158244348Y-78927240D01*
X158562760Y-79245652D01*
X158937173Y-79495827D01*
X159353198Y-79668150D01*
X159794849Y-79756000D01*
X160245151Y-79756000D01*
X160686802Y-79668150D01*
X161102827Y-79495827D01*
X161477240Y-79245652D01*
X161795652Y-78927240D01*
X162045827Y-78552827D01*
X162218150Y-78136802D01*
X162306000Y-77695151D01*
X162306000Y-77307391D01*
X171069000Y-77307391D01*
X171069000Y-77632609D01*
X171132447Y-77951579D01*
X171256903Y-78252042D01*
X171437585Y-78522451D01*
X171667549Y-78752415D01*
X171937958Y-78933097D01*
X172238421Y-79057553D01*
X172557391Y-79121000D01*
X172882609Y-79121000D01*
X173201579Y-79057553D01*
X173502042Y-78933097D01*
X173772451Y-78752415D01*
X174002415Y-78522451D01*
X174183097Y-78252042D01*
X174307553Y-77951579D01*
X174371000Y-77632609D01*
X174371000Y-77307391D01*
X174307553Y-76988421D01*
X174183097Y-76687958D01*
X174002415Y-76417549D01*
X173772451Y-76187585D01*
X173502042Y-76006903D01*
X173435494Y-75979338D01*
X173529578Y-75916473D01*
X173706473Y-75739578D01*
X173845459Y-75531571D01*
X173941195Y-75300445D01*
X173990000Y-75055084D01*
X173990000Y-74804916D01*
X173941195Y-74559555D01*
X173845459Y-74328429D01*
X173706473Y-74120422D01*
X173529578Y-73943527D01*
X173321571Y-73804541D01*
X173090445Y-73708805D01*
X172845084Y-73660000D01*
X173090445Y-73611195D01*
X173321571Y-73515459D01*
X173529578Y-73376473D01*
X173706473Y-73199578D01*
X173845459Y-72991571D01*
X173873696Y-72923400D01*
X175039059Y-72923400D01*
X175996600Y-73880942D01*
X175996601Y-78713803D01*
X175994021Y-78740000D01*
X176004319Y-78844564D01*
X176034819Y-78945110D01*
X176034820Y-78945111D01*
X176084350Y-79037775D01*
X176111674Y-79071069D01*
X176134307Y-79098648D01*
X176134308Y-79098649D01*
X176151006Y-79118995D01*
X176171350Y-79135691D01*
X177404309Y-80368651D01*
X177421005Y-80388995D01*
X177441349Y-80405691D01*
X177441351Y-80405693D01*
X177502225Y-80455651D01*
X177594889Y-80505181D01*
X177695435Y-80535681D01*
X177773805Y-80543400D01*
X177773812Y-80543400D01*
X177799999Y-80545979D01*
X177826186Y-80543400D01*
X177916304Y-80543400D01*
X177944541Y-80611571D01*
X178083527Y-80819578D01*
X178260422Y-80996473D01*
X178468429Y-81135459D01*
X178699555Y-81231195D01*
X178944916Y-81280000D01*
X178699555Y-81328805D01*
X178468429Y-81424541D01*
X178260422Y-81563527D01*
X178083527Y-81740422D01*
X177944541Y-81948429D01*
X177916304Y-82016600D01*
X177826186Y-82016600D01*
X177799999Y-82014021D01*
X177773812Y-82016600D01*
X177773805Y-82016600D01*
X177695435Y-82024319D01*
X177594889Y-82054819D01*
X177502225Y-82104349D01*
X177464987Y-82134910D01*
X177421005Y-82171005D01*
X177404309Y-82191349D01*
X176171352Y-83424307D01*
X176151006Y-83441005D01*
X176134310Y-83461349D01*
X176134307Y-83461352D01*
X176111674Y-83488931D01*
X176084350Y-83522225D01*
X176084349Y-83522227D01*
X176034819Y-83614890D01*
X176004319Y-83715436D01*
X175994021Y-83820000D01*
X175996601Y-83846197D01*
X175996600Y-97569058D01*
X175039059Y-98526600D01*
X173873696Y-98526600D01*
X173845459Y-98458429D01*
X173706473Y-98250422D01*
X173529578Y-98073527D01*
X173321571Y-97934541D01*
X173307712Y-97928800D01*
X173367359Y-97907816D01*
X173514273Y-97829289D01*
X173596626Y-97576231D01*
X172720000Y-96699605D01*
X171843374Y-97576231D01*
X171925727Y-97829289D01*
X172132808Y-97928585D01*
X172118429Y-97934541D01*
X171910422Y-98073527D01*
X171733527Y-98250422D01*
X171594541Y-98458429D01*
X171498805Y-98689555D01*
X171450000Y-98934916D01*
X171450000Y-99185084D01*
X171498805Y-99430445D01*
X171594541Y-99661571D01*
X171733527Y-99869578D01*
X171910422Y-100046473D01*
X172118429Y-100185459D01*
X172349555Y-100281195D01*
X172594916Y-100330000D01*
X172349555Y-100378805D01*
X172118429Y-100474541D01*
X171910422Y-100613527D01*
X171733527Y-100790422D01*
X171594541Y-100998429D01*
X171498805Y-101229555D01*
X171450000Y-101474916D01*
X171450000Y-101725084D01*
X171498805Y-101970445D01*
X171594541Y-102201571D01*
X171733527Y-102409578D01*
X171910422Y-102586473D01*
X172118429Y-102725459D01*
X172349555Y-102821195D01*
X172594916Y-102870000D01*
X172845084Y-102870000D01*
X173090445Y-102821195D01*
X173321571Y-102725459D01*
X173529578Y-102586473D01*
X173706473Y-102409578D01*
X173845459Y-102201571D01*
X173941195Y-101970445D01*
X173990000Y-101725084D01*
X173990000Y-101474916D01*
X173972360Y-101386231D01*
X178193374Y-101386231D01*
X178275727Y-101639289D01*
X178546418Y-101769086D01*
X178837230Y-101843580D01*
X179136988Y-101859908D01*
X179434171Y-101817443D01*
X179717359Y-101717816D01*
X179864273Y-101639289D01*
X179946626Y-101386231D01*
X180733374Y-101386231D01*
X180815727Y-101639289D01*
X181086418Y-101769086D01*
X181377230Y-101843580D01*
X181676988Y-101859908D01*
X181974171Y-101817443D01*
X182257359Y-101717816D01*
X182404273Y-101639289D01*
X182486626Y-101386231D01*
X181610000Y-100509605D01*
X180733374Y-101386231D01*
X179946626Y-101386231D01*
X179070000Y-100509605D01*
X178193374Y-101386231D01*
X173972360Y-101386231D01*
X173941195Y-101229555D01*
X173845459Y-100998429D01*
X173706473Y-100790422D01*
X173529578Y-100613527D01*
X173321571Y-100474541D01*
X173134343Y-100396988D01*
X177540092Y-100396988D01*
X177582557Y-100694171D01*
X177682184Y-100977359D01*
X177760711Y-101124273D01*
X178013769Y-101206626D01*
X178890395Y-100330000D01*
X179249605Y-100330000D01*
X180126231Y-101206626D01*
X180340000Y-101137059D01*
X180553769Y-101206626D01*
X181430395Y-100330000D01*
X181789605Y-100330000D01*
X182666231Y-101206626D01*
X182919289Y-101124273D01*
X183049086Y-100853582D01*
X183123580Y-100562770D01*
X183139908Y-100263012D01*
X183097443Y-99965829D01*
X182997816Y-99682641D01*
X182919289Y-99535727D01*
X182666231Y-99453374D01*
X181789605Y-100330000D01*
X181430395Y-100330000D01*
X180553769Y-99453374D01*
X180340000Y-99522941D01*
X180126231Y-99453374D01*
X179249605Y-100330000D01*
X178890395Y-100330000D01*
X178013769Y-99453374D01*
X177760711Y-99535727D01*
X177630914Y-99806418D01*
X177556420Y-100097230D01*
X177540092Y-100396988D01*
X173134343Y-100396988D01*
X173090445Y-100378805D01*
X172845084Y-100330000D01*
X173090445Y-100281195D01*
X173321571Y-100185459D01*
X173529578Y-100046473D01*
X173706473Y-99869578D01*
X173845459Y-99661571D01*
X173873696Y-99593400D01*
X175233813Y-99593400D01*
X175260000Y-99595979D01*
X175286187Y-99593400D01*
X175286195Y-99593400D01*
X175364565Y-99585681D01*
X175465111Y-99555181D01*
X175557775Y-99505651D01*
X175638995Y-99438995D01*
X175655695Y-99418646D01*
X176888651Y-98185691D01*
X176908995Y-98168995D01*
X176975651Y-98087775D01*
X177025181Y-97995111D01*
X177055681Y-97894565D01*
X177063400Y-97816195D01*
X177063400Y-97816188D01*
X177065979Y-97790001D01*
X177063400Y-97763814D01*
X177063400Y-84040941D01*
X177947837Y-83156504D01*
X178083527Y-83359578D01*
X178260422Y-83536473D01*
X178468429Y-83675459D01*
X178699555Y-83771195D01*
X178944916Y-83820000D01*
X178699555Y-83868805D01*
X178468429Y-83964541D01*
X178260422Y-84103527D01*
X178083527Y-84280422D01*
X177944541Y-84488429D01*
X177848805Y-84719555D01*
X177800000Y-84964916D01*
X177800000Y-85215084D01*
X177848805Y-85460445D01*
X177944541Y-85691571D01*
X178083527Y-85899578D01*
X178260422Y-86076473D01*
X178468429Y-86215459D01*
X178699555Y-86311195D01*
X178944916Y-86360000D01*
X178699555Y-86408805D01*
X178468429Y-86504541D01*
X178260422Y-86643527D01*
X178083527Y-86820422D01*
X177944541Y-87028429D01*
X177848805Y-87259555D01*
X177800000Y-87504916D01*
X177800000Y-87755084D01*
X177848805Y-88000445D01*
X177944541Y-88231571D01*
X178083527Y-88439578D01*
X178260422Y-88616473D01*
X178468429Y-88755459D01*
X178699555Y-88851195D01*
X178944916Y-88900000D01*
X178699555Y-88948805D01*
X178468429Y-89044541D01*
X178260422Y-89183527D01*
X178083527Y-89360422D01*
X177944541Y-89568429D01*
X177848805Y-89799555D01*
X177800000Y-90044916D01*
X177800000Y-90295084D01*
X177848805Y-90540445D01*
X177944541Y-90771571D01*
X178083527Y-90979578D01*
X178260422Y-91156473D01*
X178468429Y-91295459D01*
X178699555Y-91391195D01*
X178944916Y-91440000D01*
X178699555Y-91488805D01*
X178468429Y-91584541D01*
X178260422Y-91723527D01*
X178083527Y-91900422D01*
X177944541Y-92108429D01*
X177848805Y-92339555D01*
X177800000Y-92584916D01*
X177800000Y-92835084D01*
X177848805Y-93080445D01*
X177944541Y-93311571D01*
X178083527Y-93519578D01*
X178260422Y-93696473D01*
X178468429Y-93835459D01*
X178699555Y-93931195D01*
X178944916Y-93980000D01*
X178699555Y-94028805D01*
X178468429Y-94124541D01*
X178260422Y-94263527D01*
X178083527Y-94440422D01*
X177944541Y-94648429D01*
X177848805Y-94879555D01*
X177800000Y-95124916D01*
X177800000Y-95375084D01*
X177848805Y-95620445D01*
X177944541Y-95851571D01*
X178083527Y-96059578D01*
X178260422Y-96236473D01*
X178468429Y-96375459D01*
X178699555Y-96471195D01*
X178944916Y-96520000D01*
X178699555Y-96568805D01*
X178468429Y-96664541D01*
X178260422Y-96803527D01*
X178083527Y-96980422D01*
X177944541Y-97188429D01*
X177848805Y-97419555D01*
X177800000Y-97664916D01*
X177800000Y-97915084D01*
X177848805Y-98160445D01*
X177944541Y-98391571D01*
X178083527Y-98599578D01*
X178260422Y-98776473D01*
X178468429Y-98915459D01*
X178482288Y-98921200D01*
X178422641Y-98942184D01*
X178275727Y-99020711D01*
X178193374Y-99273769D01*
X179070000Y-100150395D01*
X179946626Y-99273769D01*
X179864273Y-99020711D01*
X179657192Y-98921415D01*
X179671571Y-98915459D01*
X179879578Y-98776473D01*
X180056473Y-98599578D01*
X180195459Y-98391571D01*
X180202654Y-98374200D01*
X180477346Y-98374200D01*
X180484541Y-98391571D01*
X180623527Y-98599578D01*
X180800422Y-98776473D01*
X181008429Y-98915459D01*
X181022288Y-98921200D01*
X180962641Y-98942184D01*
X180815727Y-99020711D01*
X180733374Y-99273769D01*
X181610000Y-100150395D01*
X182486626Y-99273769D01*
X182404273Y-99020711D01*
X182197192Y-98921415D01*
X182211571Y-98915459D01*
X182419578Y-98776473D01*
X182596473Y-98599578D01*
X182735459Y-98391571D01*
X182831195Y-98160445D01*
X182880000Y-97915084D01*
X182880000Y-97664916D01*
X182831195Y-97419555D01*
X182802958Y-97351384D01*
X183072343Y-97081999D01*
X188263415Y-97081999D01*
X188225058Y-97097887D01*
X188097141Y-97183358D01*
X187988358Y-97292141D01*
X187902887Y-97420058D01*
X187844013Y-97562191D01*
X187814000Y-97713078D01*
X187814000Y-97866922D01*
X187844013Y-98017809D01*
X187902887Y-98159942D01*
X187988358Y-98287859D01*
X188097141Y-98396642D01*
X188225058Y-98482113D01*
X188367191Y-98540987D01*
X188518078Y-98571000D01*
X188671922Y-98571000D01*
X188822809Y-98540987D01*
X188964942Y-98482113D01*
X189092859Y-98396642D01*
X189166101Y-98323400D01*
X195696304Y-98323400D01*
X195724541Y-98391571D01*
X195863527Y-98599578D01*
X196040422Y-98776473D01*
X196248429Y-98915459D01*
X196479555Y-99011195D01*
X196724916Y-99060000D01*
X196479555Y-99108805D01*
X196248429Y-99204541D01*
X196040422Y-99343527D01*
X195863527Y-99520422D01*
X195724541Y-99728429D01*
X195696304Y-99796600D01*
X191071101Y-99796600D01*
X190997859Y-99723358D01*
X190869942Y-99637887D01*
X190727809Y-99579013D01*
X190576922Y-99549000D01*
X190423078Y-99549000D01*
X190272191Y-99579013D01*
X190130058Y-99637887D01*
X190002141Y-99723358D01*
X189893358Y-99832141D01*
X189807887Y-99960058D01*
X189749013Y-100102191D01*
X189719000Y-100253078D01*
X189719000Y-100406922D01*
X189749013Y-100557809D01*
X189807887Y-100699942D01*
X189893358Y-100827859D01*
X190002141Y-100936642D01*
X190130058Y-101022113D01*
X190272191Y-101080987D01*
X190423078Y-101111000D01*
X190576922Y-101111000D01*
X190727809Y-101080987D01*
X190869942Y-101022113D01*
X190997859Y-100936642D01*
X191071101Y-100863400D01*
X195696304Y-100863400D01*
X195724541Y-100931571D01*
X195863527Y-101139578D01*
X196040422Y-101316473D01*
X196248429Y-101455459D01*
X196479555Y-101551195D01*
X196724916Y-101600000D01*
X196975084Y-101600000D01*
X197220445Y-101551195D01*
X197451571Y-101455459D01*
X197659578Y-101316473D01*
X197836473Y-101139578D01*
X197975459Y-100931571D01*
X198071195Y-100700445D01*
X198120000Y-100455084D01*
X198168805Y-100700445D01*
X198264541Y-100931571D01*
X198403527Y-101139578D01*
X198580422Y-101316473D01*
X198788429Y-101455459D01*
X199019555Y-101551195D01*
X199264916Y-101600000D01*
X199515084Y-101600000D01*
X199760445Y-101551195D01*
X199991571Y-101455459D01*
X200095177Y-101386231D01*
X203593374Y-101386231D01*
X203675727Y-101639289D01*
X203946418Y-101769086D01*
X204237230Y-101843580D01*
X204536988Y-101859908D01*
X204834171Y-101817443D01*
X205117359Y-101717816D01*
X205264273Y-101639289D01*
X205346626Y-101386231D01*
X206133374Y-101386231D01*
X206215727Y-101639289D01*
X206486418Y-101769086D01*
X206777230Y-101843580D01*
X207076988Y-101859908D01*
X207374171Y-101817443D01*
X207657359Y-101717816D01*
X207804273Y-101639289D01*
X207886626Y-101386231D01*
X207010000Y-100509605D01*
X206133374Y-101386231D01*
X205346626Y-101386231D01*
X204470000Y-100509605D01*
X203593374Y-101386231D01*
X200095177Y-101386231D01*
X200199578Y-101316473D01*
X200376473Y-101139578D01*
X200515459Y-100931571D01*
X200611195Y-100700445D01*
X200660000Y-100455084D01*
X200660000Y-100396988D01*
X202940092Y-100396988D01*
X202982557Y-100694171D01*
X203082184Y-100977359D01*
X203160711Y-101124273D01*
X203413769Y-101206626D01*
X204290395Y-100330000D01*
X204649605Y-100330000D01*
X205526231Y-101206626D01*
X205740000Y-101137059D01*
X205953769Y-101206626D01*
X206830395Y-100330000D01*
X207189605Y-100330000D01*
X208066231Y-101206626D01*
X208319289Y-101124273D01*
X208449086Y-100853582D01*
X208523580Y-100562770D01*
X208539908Y-100263012D01*
X208497443Y-99965829D01*
X208397816Y-99682641D01*
X208319289Y-99535727D01*
X208066231Y-99453374D01*
X207189605Y-100330000D01*
X206830395Y-100330000D01*
X205953769Y-99453374D01*
X205740000Y-99522941D01*
X205526231Y-99453374D01*
X204649605Y-100330000D01*
X204290395Y-100330000D01*
X203413769Y-99453374D01*
X203160711Y-99535727D01*
X203030914Y-99806418D01*
X202956420Y-100097230D01*
X202940092Y-100396988D01*
X200660000Y-100396988D01*
X200660000Y-100204916D01*
X200611195Y-99959555D01*
X200515459Y-99728429D01*
X200376473Y-99520422D01*
X200199578Y-99343527D01*
X199991571Y-99204541D01*
X199760445Y-99108805D01*
X199515084Y-99060000D01*
X199760445Y-99011195D01*
X199991571Y-98915459D01*
X200199578Y-98776473D01*
X200376473Y-98599578D01*
X200515459Y-98391571D01*
X200611195Y-98160445D01*
X200660000Y-97915084D01*
X200660000Y-97664916D01*
X200611195Y-97419555D01*
X200515459Y-97188429D01*
X200444345Y-97081999D01*
X203007658Y-97081999D01*
X203277043Y-97351384D01*
X203248805Y-97419555D01*
X203200000Y-97664916D01*
X203200000Y-97915084D01*
X203248805Y-98160445D01*
X203344541Y-98391571D01*
X203483527Y-98599578D01*
X203660422Y-98776473D01*
X203868429Y-98915459D01*
X203882288Y-98921200D01*
X203822641Y-98942184D01*
X203675727Y-99020711D01*
X203593374Y-99273769D01*
X204470000Y-100150395D01*
X205346626Y-99273769D01*
X205264273Y-99020711D01*
X205057192Y-98921415D01*
X205071571Y-98915459D01*
X205279578Y-98776473D01*
X205456473Y-98599578D01*
X205595459Y-98391571D01*
X205602654Y-98374200D01*
X205877346Y-98374200D01*
X205884541Y-98391571D01*
X206023527Y-98599578D01*
X206200422Y-98776473D01*
X206408429Y-98915459D01*
X206422288Y-98921200D01*
X206362641Y-98942184D01*
X206215727Y-99020711D01*
X206133374Y-99273769D01*
X207010000Y-100150395D01*
X207886626Y-99273769D01*
X207804273Y-99020711D01*
X207597192Y-98921415D01*
X207611571Y-98915459D01*
X207819578Y-98776473D01*
X207996473Y-98599578D01*
X208135459Y-98391571D01*
X208231195Y-98160445D01*
X208280000Y-97915084D01*
X208280000Y-97664916D01*
X208231195Y-97419555D01*
X208135459Y-97188429D01*
X207996473Y-96980422D01*
X207819578Y-96803527D01*
X207611571Y-96664541D01*
X207380445Y-96568805D01*
X207135084Y-96520000D01*
X207380445Y-96471195D01*
X207611571Y-96375459D01*
X207819578Y-96236473D01*
X207996473Y-96059578D01*
X208135459Y-95851571D01*
X208231195Y-95620445D01*
X208280000Y-95375084D01*
X208280000Y-95124916D01*
X208231195Y-94879555D01*
X208135459Y-94648429D01*
X207996473Y-94440422D01*
X207819578Y-94263527D01*
X207611571Y-94124541D01*
X207380445Y-94028805D01*
X207135084Y-93980000D01*
X207380445Y-93931195D01*
X207611571Y-93835459D01*
X207819578Y-93696473D01*
X207996473Y-93519578D01*
X208135459Y-93311571D01*
X208231195Y-93080445D01*
X208280000Y-92835084D01*
X208280000Y-92584916D01*
X208231195Y-92339555D01*
X208135459Y-92108429D01*
X207996473Y-91900422D01*
X207819578Y-91723527D01*
X207611571Y-91584541D01*
X207380445Y-91488805D01*
X207135084Y-91440000D01*
X207380445Y-91391195D01*
X207611571Y-91295459D01*
X207819578Y-91156473D01*
X207996473Y-90979578D01*
X208135459Y-90771571D01*
X208231195Y-90540445D01*
X208280000Y-90295084D01*
X208280000Y-90044916D01*
X208231195Y-89799555D01*
X208135459Y-89568429D01*
X207996473Y-89360422D01*
X207819578Y-89183527D01*
X207611571Y-89044541D01*
X207380445Y-88948805D01*
X207135084Y-88900000D01*
X207380445Y-88851195D01*
X207611571Y-88755459D01*
X207819578Y-88616473D01*
X207996473Y-88439578D01*
X208135459Y-88231571D01*
X208231195Y-88000445D01*
X208280000Y-87755084D01*
X208280000Y-87504916D01*
X208231195Y-87259555D01*
X208135459Y-87028429D01*
X207996473Y-86820422D01*
X207819578Y-86643527D01*
X207611571Y-86504541D01*
X207380445Y-86408805D01*
X207135084Y-86360000D01*
X207380445Y-86311195D01*
X207611571Y-86215459D01*
X207819578Y-86076473D01*
X207996473Y-85899578D01*
X208135459Y-85691571D01*
X208231195Y-85460445D01*
X208280000Y-85215084D01*
X208280000Y-84964916D01*
X208231195Y-84719555D01*
X208135459Y-84488429D01*
X207996473Y-84280422D01*
X207819578Y-84103527D01*
X207611571Y-83964541D01*
X207380445Y-83868805D01*
X207135084Y-83820000D01*
X207380445Y-83771195D01*
X207611571Y-83675459D01*
X207819578Y-83536473D01*
X207996473Y-83359578D01*
X208135459Y-83151571D01*
X208231195Y-82920445D01*
X208280000Y-82675084D01*
X208280000Y-82424916D01*
X208231195Y-82179555D01*
X208135459Y-81948429D01*
X207996473Y-81740422D01*
X207819578Y-81563527D01*
X207611571Y-81424541D01*
X207380445Y-81328805D01*
X207135084Y-81280000D01*
X207380445Y-81231195D01*
X207611571Y-81135459D01*
X207819578Y-80996473D01*
X207996473Y-80819578D01*
X208135459Y-80611571D01*
X208231195Y-80380445D01*
X208280000Y-80135084D01*
X208280000Y-79884916D01*
X208231195Y-79639555D01*
X208135459Y-79408429D01*
X207996473Y-79200422D01*
X207819578Y-79023527D01*
X207611571Y-78884541D01*
X207380445Y-78788805D01*
X207135084Y-78740000D01*
X207380445Y-78691195D01*
X207611571Y-78595459D01*
X207819578Y-78456473D01*
X207996473Y-78279578D01*
X208135459Y-78071571D01*
X208231195Y-77840445D01*
X208280000Y-77595084D01*
X208280000Y-77344916D01*
X208231195Y-77099555D01*
X208135459Y-76868429D01*
X207996473Y-76660422D01*
X207819578Y-76483527D01*
X207611571Y-76344541D01*
X207380445Y-76248805D01*
X207135084Y-76200000D01*
X207380445Y-76151195D01*
X207611571Y-76055459D01*
X207819578Y-75916473D01*
X207996473Y-75739578D01*
X208135459Y-75531571D01*
X208231195Y-75300445D01*
X208280000Y-75055084D01*
X208280000Y-74804916D01*
X208231195Y-74559555D01*
X208135459Y-74328429D01*
X207996473Y-74120422D01*
X207819578Y-73943527D01*
X207611571Y-73804541D01*
X207380445Y-73708805D01*
X207135084Y-73660000D01*
X207380445Y-73611195D01*
X207611571Y-73515459D01*
X207819578Y-73376473D01*
X207996473Y-73199578D01*
X208135459Y-72991571D01*
X208142654Y-72974200D01*
X215871316Y-72974200D01*
X215900000Y-72977025D01*
X215928684Y-72974200D01*
X215928692Y-72974200D01*
X216014523Y-72965746D01*
X216124645Y-72932341D01*
X216226134Y-72878094D01*
X216315090Y-72805090D01*
X216333382Y-72782801D01*
X216851267Y-72264916D01*
X220980000Y-72264916D01*
X220980000Y-72515084D01*
X221028805Y-72760445D01*
X221124541Y-72991571D01*
X221263527Y-73199578D01*
X221440422Y-73376473D01*
X221648429Y-73515459D01*
X221879555Y-73611195D01*
X222124916Y-73660000D01*
X221879555Y-73708805D01*
X221648429Y-73804541D01*
X221440422Y-73943527D01*
X221263527Y-74120422D01*
X221124541Y-74328429D01*
X221028805Y-74559555D01*
X220980000Y-74804916D01*
X220980000Y-75055084D01*
X221028805Y-75300445D01*
X221124541Y-75531571D01*
X221263527Y-75739578D01*
X221440422Y-75916473D01*
X221648429Y-76055459D01*
X221879555Y-76151195D01*
X222124916Y-76200000D01*
X221879555Y-76248805D01*
X221648429Y-76344541D01*
X221440422Y-76483527D01*
X221263527Y-76660422D01*
X221124541Y-76868429D01*
X221028805Y-77099555D01*
X220980000Y-77344916D01*
X220980000Y-77595084D01*
X221028805Y-77840445D01*
X221124541Y-78071571D01*
X221263527Y-78279578D01*
X221440422Y-78456473D01*
X221648429Y-78595459D01*
X221879555Y-78691195D01*
X222124916Y-78740000D01*
X221879555Y-78788805D01*
X221648429Y-78884541D01*
X221440422Y-79023527D01*
X221263527Y-79200422D01*
X221124541Y-79408429D01*
X221028805Y-79639555D01*
X220980000Y-79884916D01*
X220980000Y-80135084D01*
X221028805Y-80380445D01*
X221124541Y-80611571D01*
X221263527Y-80819578D01*
X221440422Y-80996473D01*
X221648429Y-81135459D01*
X221879555Y-81231195D01*
X222124916Y-81280000D01*
X221879555Y-81328805D01*
X221648429Y-81424541D01*
X221440422Y-81563527D01*
X221263527Y-81740422D01*
X221124541Y-81948429D01*
X221028805Y-82179555D01*
X220980000Y-82424916D01*
X220980000Y-82675084D01*
X221028805Y-82920445D01*
X221124541Y-83151571D01*
X221263527Y-83359578D01*
X221440422Y-83536473D01*
X221648429Y-83675459D01*
X221879555Y-83771195D01*
X222124916Y-83820000D01*
X221879555Y-83868805D01*
X221648429Y-83964541D01*
X221440422Y-84103527D01*
X221263527Y-84280422D01*
X221124541Y-84488429D01*
X221028805Y-84719555D01*
X220980000Y-84964916D01*
X220980000Y-85215084D01*
X221028805Y-85460445D01*
X221124541Y-85691571D01*
X221263527Y-85899578D01*
X221440422Y-86076473D01*
X221648429Y-86215459D01*
X221879555Y-86311195D01*
X222124916Y-86360000D01*
X221879555Y-86408805D01*
X221648429Y-86504541D01*
X221440422Y-86643527D01*
X221263527Y-86820422D01*
X221124541Y-87028429D01*
X221028805Y-87259555D01*
X220980000Y-87504916D01*
X220980000Y-87755084D01*
X221028805Y-88000445D01*
X221124541Y-88231571D01*
X221263527Y-88439578D01*
X221440422Y-88616473D01*
X221648429Y-88755459D01*
X221879555Y-88851195D01*
X222124916Y-88900000D01*
X221879555Y-88948805D01*
X221648429Y-89044541D01*
X221440422Y-89183527D01*
X221263527Y-89360422D01*
X221124541Y-89568429D01*
X221028805Y-89799555D01*
X220980000Y-90044916D01*
X220980000Y-90295084D01*
X221028805Y-90540445D01*
X221124541Y-90771571D01*
X221263527Y-90979578D01*
X221440422Y-91156473D01*
X221648429Y-91295459D01*
X221879555Y-91391195D01*
X222124916Y-91440000D01*
X221879555Y-91488805D01*
X221648429Y-91584541D01*
X221440422Y-91723527D01*
X221263527Y-91900422D01*
X221124541Y-92108429D01*
X221028805Y-92339555D01*
X220980000Y-92584916D01*
X220980000Y-92835084D01*
X221028805Y-93080445D01*
X221124541Y-93311571D01*
X221263527Y-93519578D01*
X221440422Y-93696473D01*
X221648429Y-93835459D01*
X221879555Y-93931195D01*
X222124916Y-93980000D01*
X221879555Y-94028805D01*
X221648429Y-94124541D01*
X221440422Y-94263527D01*
X221263527Y-94440422D01*
X221124541Y-94648429D01*
X221028805Y-94879555D01*
X220980000Y-95124916D01*
X220980000Y-95375084D01*
X221028805Y-95620445D01*
X221124541Y-95851571D01*
X221263527Y-96059578D01*
X221440422Y-96236473D01*
X221648429Y-96375459D01*
X221879555Y-96471195D01*
X222124916Y-96520000D01*
X221879555Y-96568805D01*
X221648429Y-96664541D01*
X221440422Y-96803527D01*
X221263527Y-96980422D01*
X221124541Y-97188429D01*
X221028805Y-97419555D01*
X220980000Y-97664916D01*
X220980000Y-97915084D01*
X221028805Y-98160445D01*
X221124541Y-98391571D01*
X221263527Y-98599578D01*
X221440422Y-98776473D01*
X221648429Y-98915459D01*
X221879555Y-99011195D01*
X222124916Y-99060000D01*
X221879555Y-99108805D01*
X221648429Y-99204541D01*
X221440422Y-99343527D01*
X221263527Y-99520422D01*
X221124541Y-99728429D01*
X221028805Y-99959555D01*
X220980000Y-100204916D01*
X220980000Y-100455084D01*
X221028805Y-100700445D01*
X221124541Y-100931571D01*
X221263527Y-101139578D01*
X221440422Y-101316473D01*
X221648429Y-101455459D01*
X221879555Y-101551195D01*
X222124916Y-101600000D01*
X222375084Y-101600000D01*
X222620445Y-101551195D01*
X222851571Y-101455459D01*
X223059578Y-101316473D01*
X223236473Y-101139578D01*
X223375459Y-100931571D01*
X223471195Y-100700445D01*
X223520000Y-100455084D01*
X223568805Y-100700445D01*
X223664541Y-100931571D01*
X223803527Y-101139578D01*
X223980422Y-101316473D01*
X224188429Y-101455459D01*
X224419555Y-101551195D01*
X224664916Y-101600000D01*
X224915084Y-101600000D01*
X225160445Y-101551195D01*
X225391571Y-101455459D01*
X225599578Y-101316473D01*
X225776473Y-101139578D01*
X225915459Y-100931571D01*
X226011195Y-100700445D01*
X226060000Y-100455084D01*
X226060000Y-100204916D01*
X226011195Y-99959555D01*
X225915459Y-99728429D01*
X225776473Y-99520422D01*
X225599578Y-99343527D01*
X225391571Y-99204541D01*
X225160445Y-99108805D01*
X224915084Y-99060000D01*
X225160445Y-99011195D01*
X225391571Y-98915459D01*
X225599578Y-98776473D01*
X225776473Y-98599578D01*
X225915459Y-98391571D01*
X226011195Y-98160445D01*
X226060000Y-97915084D01*
X226060000Y-97664916D01*
X226011195Y-97419555D01*
X225915459Y-97188429D01*
X225776473Y-96980422D01*
X225599578Y-96803527D01*
X225391571Y-96664541D01*
X225160445Y-96568805D01*
X224915084Y-96520000D01*
X225160445Y-96471195D01*
X225391571Y-96375459D01*
X225599578Y-96236473D01*
X225776473Y-96059578D01*
X225915459Y-95851571D01*
X226011195Y-95620445D01*
X226060000Y-95375084D01*
X226060000Y-95124916D01*
X226011195Y-94879555D01*
X225915459Y-94648429D01*
X225776473Y-94440422D01*
X225599578Y-94263527D01*
X225391571Y-94124541D01*
X225160445Y-94028805D01*
X224915084Y-93980000D01*
X225160445Y-93931195D01*
X225391571Y-93835459D01*
X225599578Y-93696473D01*
X225776473Y-93519578D01*
X225915459Y-93311571D01*
X226011195Y-93080445D01*
X226060000Y-92835084D01*
X226060000Y-92584916D01*
X226011195Y-92339555D01*
X225915459Y-92108429D01*
X225776473Y-91900422D01*
X225599578Y-91723527D01*
X225391571Y-91584541D01*
X225160445Y-91488805D01*
X224915084Y-91440000D01*
X225160445Y-91391195D01*
X225391571Y-91295459D01*
X225599578Y-91156473D01*
X225776473Y-90979578D01*
X225915459Y-90771571D01*
X226011195Y-90540445D01*
X226060000Y-90295084D01*
X226060000Y-90044916D01*
X226011195Y-89799555D01*
X225915459Y-89568429D01*
X225776473Y-89360422D01*
X225599578Y-89183527D01*
X225391571Y-89044541D01*
X225160445Y-88948805D01*
X224915084Y-88900000D01*
X225160445Y-88851195D01*
X225391571Y-88755459D01*
X225599578Y-88616473D01*
X225776473Y-88439578D01*
X225915459Y-88231571D01*
X226011195Y-88000445D01*
X226060000Y-87755084D01*
X226060000Y-87504916D01*
X226011195Y-87259555D01*
X225915459Y-87028429D01*
X225776473Y-86820422D01*
X225599578Y-86643527D01*
X225391571Y-86504541D01*
X225160445Y-86408805D01*
X224915084Y-86360000D01*
X225160445Y-86311195D01*
X225391571Y-86215459D01*
X225599578Y-86076473D01*
X225776473Y-85899578D01*
X225915459Y-85691571D01*
X226011195Y-85460445D01*
X226060000Y-85215084D01*
X226060000Y-84964916D01*
X226011195Y-84719555D01*
X225915459Y-84488429D01*
X225776473Y-84280422D01*
X225599578Y-84103527D01*
X225391571Y-83964541D01*
X225160445Y-83868805D01*
X224915084Y-83820000D01*
X225160445Y-83771195D01*
X225391571Y-83675459D01*
X225599578Y-83536473D01*
X225776473Y-83359578D01*
X225915459Y-83151571D01*
X226011195Y-82920445D01*
X226060000Y-82675084D01*
X226060000Y-82424916D01*
X226011195Y-82179555D01*
X225915459Y-81948429D01*
X225776473Y-81740422D01*
X225599578Y-81563527D01*
X225391571Y-81424541D01*
X225160445Y-81328805D01*
X224915084Y-81280000D01*
X225160445Y-81231195D01*
X225391571Y-81135459D01*
X225599578Y-80996473D01*
X225776473Y-80819578D01*
X225915459Y-80611571D01*
X226011195Y-80380445D01*
X226060000Y-80135084D01*
X226060000Y-79884916D01*
X226011195Y-79639555D01*
X225915459Y-79408429D01*
X225776473Y-79200422D01*
X225599578Y-79023527D01*
X225391571Y-78884541D01*
X225160445Y-78788805D01*
X224915084Y-78740000D01*
X225160445Y-78691195D01*
X225391571Y-78595459D01*
X225599578Y-78456473D01*
X225776473Y-78279578D01*
X225915459Y-78071571D01*
X226011195Y-77840445D01*
X226060000Y-77595084D01*
X226060000Y-77344916D01*
X226011195Y-77099555D01*
X225915459Y-76868429D01*
X225776473Y-76660422D01*
X225599578Y-76483527D01*
X225391571Y-76344541D01*
X225160445Y-76248805D01*
X224915084Y-76200000D01*
X225160445Y-76151195D01*
X225391571Y-76055459D01*
X225599578Y-75916473D01*
X225776473Y-75739578D01*
X225915459Y-75531571D01*
X226011195Y-75300445D01*
X226060000Y-75055084D01*
X226060000Y-74804916D01*
X228600000Y-74804916D01*
X228600000Y-75055084D01*
X228648805Y-75300445D01*
X228744541Y-75531571D01*
X228883527Y-75739578D01*
X229060422Y-75916473D01*
X229268429Y-76055459D01*
X229499555Y-76151195D01*
X229744916Y-76200000D01*
X229995084Y-76200000D01*
X230240445Y-76151195D01*
X230471571Y-76055459D01*
X230679578Y-75916473D01*
X230856473Y-75739578D01*
X230883539Y-75699071D01*
X230882928Y-75819000D01*
X230895188Y-75943482D01*
X230931498Y-76063180D01*
X230990463Y-76173494D01*
X231069815Y-76270185D01*
X231166506Y-76349537D01*
X231276820Y-76408502D01*
X231396518Y-76444812D01*
X231521000Y-76457072D01*
X232124250Y-76454000D01*
X232283000Y-76295250D01*
X232283000Y-75057000D01*
X232263000Y-75057000D01*
X232263000Y-74803000D01*
X232283000Y-74803000D01*
X232283000Y-73564750D01*
X232124250Y-73406000D01*
X231521000Y-73402928D01*
X231396518Y-73415188D01*
X231276820Y-73451498D01*
X231166506Y-73510463D01*
X231069815Y-73589815D01*
X230990463Y-73686506D01*
X230931498Y-73796820D01*
X230895188Y-73916518D01*
X230882928Y-74041000D01*
X230883539Y-74160929D01*
X230856473Y-74120422D01*
X230679578Y-73943527D01*
X230471571Y-73804541D01*
X230240445Y-73708805D01*
X229995084Y-73660000D01*
X229744916Y-73660000D01*
X229499555Y-73708805D01*
X229268429Y-73804541D01*
X229060422Y-73943527D01*
X228883527Y-74120422D01*
X228744541Y-74328429D01*
X228648805Y-74559555D01*
X228600000Y-74804916D01*
X226060000Y-74804916D01*
X226011195Y-74559555D01*
X225915459Y-74328429D01*
X225776473Y-74120422D01*
X225599578Y-73943527D01*
X225391571Y-73804541D01*
X225160445Y-73708805D01*
X224915084Y-73660000D01*
X225160445Y-73611195D01*
X225391571Y-73515459D01*
X225599578Y-73376473D01*
X225776473Y-73199578D01*
X225915459Y-72991571D01*
X226011195Y-72760445D01*
X226060000Y-72515084D01*
X226060000Y-72264916D01*
X226011195Y-72019555D01*
X225915459Y-71788429D01*
X225776473Y-71580422D01*
X225599578Y-71403527D01*
X225391571Y-71264541D01*
X225160445Y-71168805D01*
X224915084Y-71120000D01*
X224664916Y-71120000D01*
X224419555Y-71168805D01*
X224188429Y-71264541D01*
X223980422Y-71403527D01*
X223803527Y-71580422D01*
X223664541Y-71788429D01*
X223568805Y-72019555D01*
X223520000Y-72264916D01*
X223471195Y-72019555D01*
X223375459Y-71788429D01*
X223236473Y-71580422D01*
X223059578Y-71403527D01*
X222851571Y-71264541D01*
X222620445Y-71168805D01*
X222375084Y-71120000D01*
X222124916Y-71120000D01*
X221879555Y-71168805D01*
X221648429Y-71264541D01*
X221440422Y-71403527D01*
X221263527Y-71580422D01*
X221124541Y-71788429D01*
X221028805Y-72019555D01*
X220980000Y-72264916D01*
X216851267Y-72264916D01*
X219552143Y-69564040D01*
X229113091Y-69564040D01*
X229207930Y-69828881D01*
X229352615Y-70070131D01*
X229541586Y-70278519D01*
X229767580Y-70446037D01*
X230021913Y-70566246D01*
X230155961Y-70606904D01*
X230378000Y-70484915D01*
X230378000Y-69342000D01*
X230632000Y-69342000D01*
X230632000Y-70484915D01*
X230854039Y-70606904D01*
X230988087Y-70566246D01*
X231242420Y-70446037D01*
X231468414Y-70278519D01*
X231657385Y-70070131D01*
X231802070Y-69828881D01*
X231896909Y-69564040D01*
X231775624Y-69342000D01*
X230632000Y-69342000D01*
X230378000Y-69342000D01*
X229234376Y-69342000D01*
X229113091Y-69564040D01*
X219552143Y-69564040D01*
X220250223Y-68865960D01*
X229113091Y-68865960D01*
X229234376Y-69088000D01*
X230378000Y-69088000D01*
X230378000Y-67945085D01*
X230632000Y-67945085D01*
X230632000Y-69088000D01*
X231775624Y-69088000D01*
X231896909Y-68865960D01*
X231802070Y-68601119D01*
X231657385Y-68359869D01*
X231468414Y-68151481D01*
X231242420Y-67983963D01*
X230988087Y-67863754D01*
X230854039Y-67823096D01*
X230632000Y-67945085D01*
X230378000Y-67945085D01*
X230155961Y-67823096D01*
X230021913Y-67863754D01*
X229767580Y-67983963D01*
X229541586Y-68151481D01*
X229352615Y-68359869D01*
X229207930Y-68601119D01*
X229113091Y-68865960D01*
X220250223Y-68865960D01*
X222718481Y-66397702D01*
X236041903Y-66397702D01*
X236113486Y-66641671D01*
X236368996Y-66762571D01*
X236643184Y-66831300D01*
X236925512Y-66845217D01*
X237205130Y-66803787D01*
X237471292Y-66708603D01*
X237596514Y-66641671D01*
X237668097Y-66397702D01*
X236855000Y-65584605D01*
X236041903Y-66397702D01*
X222718481Y-66397702D01*
X223640671Y-65475512D01*
X235414783Y-65475512D01*
X235456213Y-65755130D01*
X235551397Y-66021292D01*
X235618329Y-66146514D01*
X235862298Y-66218097D01*
X236675395Y-65405000D01*
X237034605Y-65405000D01*
X237847702Y-66218097D01*
X238091671Y-66146514D01*
X238212571Y-65891004D01*
X238281300Y-65616816D01*
X238295217Y-65334488D01*
X238253787Y-65054870D01*
X238158603Y-64788708D01*
X238091671Y-64663486D01*
X237847702Y-64591903D01*
X237034605Y-65405000D01*
X236675395Y-65405000D01*
X235862298Y-64591903D01*
X235618329Y-64663486D01*
X235497429Y-64918996D01*
X235428700Y-65193184D01*
X235414783Y-65475512D01*
X223640671Y-65475512D01*
X229475779Y-59640405D01*
X229587658Y-59807843D01*
X229752157Y-59972342D01*
X229945587Y-60101588D01*
X230160515Y-60190614D01*
X230388682Y-60236000D01*
X230621318Y-60236000D01*
X230849485Y-60190614D01*
X231064413Y-60101588D01*
X231257843Y-59972342D01*
X231422342Y-59807843D01*
X231535026Y-59639200D01*
X232649974Y-59639200D01*
X232762658Y-59807843D01*
X232927157Y-59972342D01*
X233120587Y-60101588D01*
X233335515Y-60190614D01*
X233563682Y-60236000D01*
X233796318Y-60236000D01*
X234024485Y-60190614D01*
X234239413Y-60101588D01*
X234432843Y-59972342D01*
X234597342Y-59807843D01*
X234710026Y-59639200D01*
X235343017Y-59639200D01*
X236270800Y-60566983D01*
X236270801Y-61874974D01*
X236102157Y-61987658D01*
X235937658Y-62152157D01*
X235808412Y-62345587D01*
X235719386Y-62560515D01*
X235674000Y-62788682D01*
X235674000Y-63021318D01*
X235719386Y-63249485D01*
X235808412Y-63464413D01*
X235937658Y-63657843D01*
X236102157Y-63822342D01*
X236295587Y-63951588D01*
X236463329Y-64021069D01*
X236238708Y-64101397D01*
X236113486Y-64168329D01*
X236041903Y-64412298D01*
X236855000Y-65225395D01*
X237668097Y-64412298D01*
X237596514Y-64168329D01*
X237341004Y-64047429D01*
X237242589Y-64022760D01*
X237414413Y-63951588D01*
X237607843Y-63822342D01*
X237772342Y-63657843D01*
X237901588Y-63464413D01*
X237990614Y-63249485D01*
X238036000Y-63021318D01*
X238036000Y-62788682D01*
X237990614Y-62560515D01*
X237901588Y-62345587D01*
X237772342Y-62152157D01*
X237607843Y-61987658D01*
X237439200Y-61874974D01*
X237439200Y-60353681D01*
X237442025Y-60324999D01*
X237439200Y-60296317D01*
X237439200Y-60296308D01*
X237430746Y-60210477D01*
X237397341Y-60100355D01*
X237343094Y-59998866D01*
X237270090Y-59909910D01*
X237247802Y-59891619D01*
X236018382Y-58662199D01*
X236000090Y-58639910D01*
X235911134Y-58566906D01*
X235809645Y-58512659D01*
X235699523Y-58479254D01*
X235613692Y-58470800D01*
X235613684Y-58470800D01*
X235585000Y-58467975D01*
X235556316Y-58470800D01*
X234710026Y-58470800D01*
X234597342Y-58302157D01*
X234432843Y-58137658D01*
X234239413Y-58008412D01*
X234024485Y-57919386D01*
X233796318Y-57874000D01*
X233563682Y-57874000D01*
X233335515Y-57919386D01*
X233120587Y-58008412D01*
X232927157Y-58137658D01*
X232762658Y-58302157D01*
X232649974Y-58470800D01*
X231535026Y-58470800D01*
X231422342Y-58302157D01*
X231257843Y-58137658D01*
X231064413Y-58008412D01*
X230849485Y-57919386D01*
X230621318Y-57874000D01*
X230388682Y-57874000D01*
X230160515Y-57919386D01*
X229945587Y-58008412D01*
X229752157Y-58137658D01*
X229587658Y-58302157D01*
X229474974Y-58470800D01*
X229263692Y-58470800D01*
X229235000Y-58467974D01*
X229206308Y-58470800D01*
X229120477Y-58479254D01*
X229010355Y-58512659D01*
X228908866Y-58566906D01*
X228862187Y-58605215D01*
X228842196Y-58621620D01*
X228842194Y-58621622D01*
X228819910Y-58639910D01*
X228801622Y-58662194D01*
X215658017Y-71805800D01*
X208142654Y-71805800D01*
X208135459Y-71788429D01*
X207996473Y-71580422D01*
X207819578Y-71403527D01*
X207611571Y-71264541D01*
X207597712Y-71258800D01*
X207657359Y-71237816D01*
X207804273Y-71159289D01*
X207886626Y-70906231D01*
X207010000Y-70029605D01*
X206133374Y-70906231D01*
X206215727Y-71159289D01*
X206422808Y-71258585D01*
X206408429Y-71264541D01*
X206200422Y-71403527D01*
X206023527Y-71580422D01*
X205884541Y-71788429D01*
X205877346Y-71805800D01*
X205602654Y-71805800D01*
X205595459Y-71788429D01*
X205456473Y-71580422D01*
X205279578Y-71403527D01*
X205071571Y-71264541D01*
X205057712Y-71258800D01*
X205117359Y-71237816D01*
X205264273Y-71159289D01*
X205346626Y-70906231D01*
X204470000Y-70029605D01*
X204455858Y-70043748D01*
X204276253Y-69864143D01*
X204290395Y-69850000D01*
X204649605Y-69850000D01*
X205526231Y-70726626D01*
X205740000Y-70657059D01*
X205953769Y-70726626D01*
X206830395Y-69850000D01*
X207189605Y-69850000D01*
X208066231Y-70726626D01*
X208319289Y-70644273D01*
X208449086Y-70373582D01*
X208523580Y-70082770D01*
X208539908Y-69783012D01*
X208497443Y-69485829D01*
X208397816Y-69202641D01*
X208319289Y-69055727D01*
X208066231Y-68973374D01*
X207189605Y-69850000D01*
X206830395Y-69850000D01*
X205953769Y-68973374D01*
X205740000Y-69042941D01*
X205526231Y-68973374D01*
X204649605Y-69850000D01*
X204290395Y-69850000D01*
X203413769Y-68973374D01*
X203160711Y-69055727D01*
X203030914Y-69326418D01*
X202956420Y-69617230D01*
X202940092Y-69916988D01*
X202982557Y-70214171D01*
X203082184Y-70497359D01*
X203129884Y-70586600D01*
X182946943Y-70586600D01*
X183049086Y-70373582D01*
X183123580Y-70082770D01*
X183139908Y-69783012D01*
X183097443Y-69485829D01*
X182997816Y-69202641D01*
X182919289Y-69055727D01*
X182666231Y-68973374D01*
X181789605Y-69850000D01*
X181803748Y-69864143D01*
X181624143Y-70043748D01*
X181610000Y-70029605D01*
X180733374Y-70906231D01*
X180815727Y-71159289D01*
X181022808Y-71258585D01*
X181008429Y-71264541D01*
X180800422Y-71403527D01*
X180623527Y-71580422D01*
X180484541Y-71788429D01*
X180477346Y-71805800D01*
X180202654Y-71805800D01*
X180195459Y-71788429D01*
X180056473Y-71580422D01*
X179879578Y-71403527D01*
X179671571Y-71264541D01*
X179657712Y-71258800D01*
X179717359Y-71237816D01*
X179864273Y-71159289D01*
X179946626Y-70906231D01*
X179070000Y-70029605D01*
X178193374Y-70906231D01*
X178275727Y-71159289D01*
X178482808Y-71258585D01*
X178468429Y-71264541D01*
X178260422Y-71403527D01*
X178083527Y-71580422D01*
X177944541Y-71788429D01*
X177848805Y-72019555D01*
X177800000Y-72264916D01*
X177800000Y-72515084D01*
X177848805Y-72760445D01*
X177944541Y-72991571D01*
X178083527Y-73199578D01*
X178260422Y-73376473D01*
X178468429Y-73515459D01*
X178699555Y-73611195D01*
X178944916Y-73660000D01*
X178699555Y-73708805D01*
X178468429Y-73804541D01*
X178260422Y-73943527D01*
X178083527Y-74120422D01*
X177944541Y-74328429D01*
X177848805Y-74559555D01*
X177800000Y-74804916D01*
X177800000Y-75055084D01*
X177848805Y-75300445D01*
X177944541Y-75531571D01*
X178083527Y-75739578D01*
X178260422Y-75916473D01*
X178468429Y-76055459D01*
X178699555Y-76151195D01*
X178944916Y-76200000D01*
X178699555Y-76248805D01*
X178468429Y-76344541D01*
X178260422Y-76483527D01*
X178083527Y-76660422D01*
X177944541Y-76868429D01*
X177848805Y-77099555D01*
X177800000Y-77344916D01*
X177800000Y-77595084D01*
X177848805Y-77840445D01*
X177944541Y-78071571D01*
X178083527Y-78279578D01*
X178260422Y-78456473D01*
X178468429Y-78595459D01*
X178699555Y-78691195D01*
X178944916Y-78740000D01*
X178699555Y-78788805D01*
X178468429Y-78884541D01*
X178260422Y-79023527D01*
X178083527Y-79200422D01*
X177947837Y-79403496D01*
X177063400Y-78519059D01*
X177063400Y-73686186D01*
X177065979Y-73659999D01*
X177063400Y-73633812D01*
X177063400Y-73633805D01*
X177055681Y-73555435D01*
X177025181Y-73454889D01*
X176975651Y-73362225D01*
X176908995Y-73281005D01*
X176888649Y-73264307D01*
X175655693Y-72031352D01*
X175638995Y-72011005D01*
X175557775Y-71944349D01*
X175465111Y-71894819D01*
X175364565Y-71864319D01*
X175286195Y-71856600D01*
X175286187Y-71856600D01*
X175260000Y-71854021D01*
X175233813Y-71856600D01*
X173873696Y-71856600D01*
X173845459Y-71788429D01*
X173706473Y-71580422D01*
X173529578Y-71403527D01*
X173321571Y-71264541D01*
X173307712Y-71258800D01*
X173367359Y-71237816D01*
X173514273Y-71159289D01*
X173596626Y-70906231D01*
X172720000Y-70029605D01*
X171843374Y-70906231D01*
X171925727Y-71159289D01*
X172132808Y-71258585D01*
X172118429Y-71264541D01*
X171910422Y-71403527D01*
X171733527Y-71580422D01*
X171594541Y-71788429D01*
X171498805Y-72019555D01*
X171450000Y-72264916D01*
X171450000Y-72515084D01*
X171498805Y-72760445D01*
X171594541Y-72991571D01*
X171733527Y-73199578D01*
X171910422Y-73376473D01*
X172118429Y-73515459D01*
X172349555Y-73611195D01*
X172594916Y-73660000D01*
X172349555Y-73708805D01*
X172118429Y-73804541D01*
X171910422Y-73943527D01*
X171733527Y-74120422D01*
X171594541Y-74328429D01*
X171498805Y-74559555D01*
X171450000Y-74804916D01*
X171450000Y-75055084D01*
X171498805Y-75300445D01*
X171594541Y-75531571D01*
X171733527Y-75739578D01*
X171910422Y-75916473D01*
X172004506Y-75979338D01*
X171937958Y-76006903D01*
X171667549Y-76187585D01*
X171437585Y-76417549D01*
X171256903Y-76687958D01*
X171132447Y-76988421D01*
X171069000Y-77307391D01*
X162306000Y-77307391D01*
X162306000Y-77244849D01*
X162218150Y-76803198D01*
X162045827Y-76387173D01*
X161795652Y-76012760D01*
X161477240Y-75694348D01*
X161102827Y-75444173D01*
X160686802Y-75271850D01*
X160245151Y-75184000D01*
X159794849Y-75184000D01*
X159353198Y-75271850D01*
X158937173Y-75444173D01*
X158562760Y-75694348D01*
X158244348Y-76012760D01*
X157994173Y-76387173D01*
X157821850Y-76803198D01*
X157734000Y-77244849D01*
X107086000Y-77244849D01*
X107086000Y-69916988D01*
X171190092Y-69916988D01*
X171232557Y-70214171D01*
X171332184Y-70497359D01*
X171410711Y-70644273D01*
X171663769Y-70726626D01*
X172540395Y-69850000D01*
X172899605Y-69850000D01*
X173776231Y-70726626D01*
X174029289Y-70644273D01*
X174159086Y-70373582D01*
X174233580Y-70082770D01*
X174242610Y-69916988D01*
X177540092Y-69916988D01*
X177582557Y-70214171D01*
X177682184Y-70497359D01*
X177760711Y-70644273D01*
X178013769Y-70726626D01*
X178890395Y-69850000D01*
X179249605Y-69850000D01*
X180126231Y-70726626D01*
X180340000Y-70657059D01*
X180553769Y-70726626D01*
X181430395Y-69850000D01*
X180553769Y-68973374D01*
X180340000Y-69042941D01*
X180126231Y-68973374D01*
X179249605Y-69850000D01*
X178890395Y-69850000D01*
X178013769Y-68973374D01*
X177760711Y-69055727D01*
X177630914Y-69326418D01*
X177556420Y-69617230D01*
X177540092Y-69916988D01*
X174242610Y-69916988D01*
X174249908Y-69783012D01*
X174207443Y-69485829D01*
X174107816Y-69202641D01*
X174029289Y-69055727D01*
X173776231Y-68973374D01*
X172899605Y-69850000D01*
X172540395Y-69850000D01*
X171663769Y-68973374D01*
X171410711Y-69055727D01*
X171280914Y-69326418D01*
X171206420Y-69617230D01*
X171190092Y-69916988D01*
X107086000Y-69916988D01*
X107086000Y-61646247D01*
X148549005Y-61646247D01*
X148549005Y-62213753D01*
X148659720Y-62770355D01*
X148876895Y-63294663D01*
X149192185Y-63766527D01*
X149593473Y-64167815D01*
X150065337Y-64483105D01*
X150589645Y-64700280D01*
X151146247Y-64810995D01*
X151713753Y-64810995D01*
X152270355Y-64700280D01*
X152794663Y-64483105D01*
X153266527Y-64167815D01*
X153667815Y-63766527D01*
X153983105Y-63294663D01*
X154200280Y-62770355D01*
X154310995Y-62213753D01*
X154310995Y-61646247D01*
X154200280Y-61089645D01*
X153983105Y-60565337D01*
X153667815Y-60093473D01*
X153266527Y-59692185D01*
X152794663Y-59376895D01*
X152270355Y-59159720D01*
X151713753Y-59049005D01*
X151146247Y-59049005D01*
X150589645Y-59159720D01*
X150065337Y-59376895D01*
X149593473Y-59692185D01*
X149192185Y-60093473D01*
X148876895Y-60565337D01*
X148659720Y-61089645D01*
X148549005Y-61646247D01*
X107086000Y-61646247D01*
X107086000Y-56924849D01*
X157734000Y-56924849D01*
X157734000Y-57375151D01*
X157821850Y-57816802D01*
X157994173Y-58232827D01*
X158244348Y-58607240D01*
X158562760Y-58925652D01*
X158937173Y-59175827D01*
X159353198Y-59348150D01*
X159794849Y-59436000D01*
X160245151Y-59436000D01*
X160686802Y-59348150D01*
X161102827Y-59175827D01*
X161477240Y-58925652D01*
X161795652Y-58607240D01*
X162045827Y-58232827D01*
X162218150Y-57816802D01*
X162306000Y-57375151D01*
X162306000Y-56987391D01*
X171069000Y-56987391D01*
X171069000Y-57312609D01*
X171132447Y-57631579D01*
X171256903Y-57932042D01*
X171437585Y-58202451D01*
X171667549Y-58432415D01*
X171937958Y-58613097D01*
X172004506Y-58640662D01*
X171910422Y-58703527D01*
X171733527Y-58880422D01*
X171594541Y-59088429D01*
X171498805Y-59319555D01*
X171450000Y-59564916D01*
X171450000Y-59815084D01*
X171498805Y-60060445D01*
X171594541Y-60291571D01*
X171733527Y-60499578D01*
X171910422Y-60676473D01*
X172118429Y-60815459D01*
X172349555Y-60911195D01*
X172594916Y-60960000D01*
X172349555Y-61008805D01*
X172118429Y-61104541D01*
X171910422Y-61243527D01*
X171733527Y-61420422D01*
X171594541Y-61628429D01*
X171498805Y-61859555D01*
X171450000Y-62104916D01*
X171450000Y-62355084D01*
X171498805Y-62600445D01*
X171594541Y-62831571D01*
X171733527Y-63039578D01*
X171910422Y-63216473D01*
X172118429Y-63355459D01*
X172349555Y-63451195D01*
X172594916Y-63500000D01*
X172349555Y-63548805D01*
X172118429Y-63644541D01*
X171910422Y-63783527D01*
X171733527Y-63960422D01*
X171594541Y-64168429D01*
X171498805Y-64399555D01*
X171450000Y-64644916D01*
X171450000Y-64895084D01*
X171498805Y-65140445D01*
X171594541Y-65371571D01*
X171733527Y-65579578D01*
X171910422Y-65756473D01*
X172118429Y-65895459D01*
X172349555Y-65991195D01*
X172594916Y-66040000D01*
X172349555Y-66088805D01*
X172118429Y-66184541D01*
X171910422Y-66323527D01*
X171733527Y-66500422D01*
X171594541Y-66708429D01*
X171498805Y-66939555D01*
X171450000Y-67184916D01*
X171450000Y-67435084D01*
X171498805Y-67680445D01*
X171594541Y-67911571D01*
X171733527Y-68119578D01*
X171910422Y-68296473D01*
X172118429Y-68435459D01*
X172132288Y-68441200D01*
X172072641Y-68462184D01*
X171925727Y-68540711D01*
X171843374Y-68793769D01*
X172720000Y-69670395D01*
X173596626Y-68793769D01*
X173514273Y-68540711D01*
X173307192Y-68441415D01*
X173321571Y-68435459D01*
X173529578Y-68296473D01*
X173706473Y-68119578D01*
X173845459Y-67911571D01*
X173941195Y-67680445D01*
X173990000Y-67435084D01*
X173990000Y-67184916D01*
X173941195Y-66939555D01*
X173845459Y-66708429D01*
X173706473Y-66500422D01*
X173529578Y-66323527D01*
X173321571Y-66184541D01*
X173090445Y-66088805D01*
X172845084Y-66040000D01*
X173090445Y-65991195D01*
X173321571Y-65895459D01*
X173529578Y-65756473D01*
X173706473Y-65579578D01*
X173845459Y-65371571D01*
X173941195Y-65140445D01*
X173990000Y-64895084D01*
X173990000Y-64644916D01*
X173941195Y-64399555D01*
X173845459Y-64168429D01*
X173706473Y-63960422D01*
X173529578Y-63783527D01*
X173321571Y-63644541D01*
X173090445Y-63548805D01*
X172845084Y-63500000D01*
X173090445Y-63451195D01*
X173321571Y-63355459D01*
X173529578Y-63216473D01*
X173706473Y-63039578D01*
X173845459Y-62831571D01*
X173941195Y-62600445D01*
X173990000Y-62355084D01*
X173990000Y-62104916D01*
X177800000Y-62104916D01*
X177800000Y-62355084D01*
X177848805Y-62600445D01*
X177944541Y-62831571D01*
X178083527Y-63039578D01*
X178260422Y-63216473D01*
X178468429Y-63355459D01*
X178699555Y-63451195D01*
X178944916Y-63500000D01*
X178699555Y-63548805D01*
X178468429Y-63644541D01*
X178260422Y-63783527D01*
X178083527Y-63960422D01*
X177944541Y-64168429D01*
X177848805Y-64399555D01*
X177800000Y-64644916D01*
X177800000Y-64895084D01*
X177848805Y-65140445D01*
X177944541Y-65371571D01*
X178083527Y-65579578D01*
X178260422Y-65756473D01*
X178468429Y-65895459D01*
X178699555Y-65991195D01*
X178944916Y-66040000D01*
X178699555Y-66088805D01*
X178468429Y-66184541D01*
X178260422Y-66323527D01*
X178083527Y-66500422D01*
X177944541Y-66708429D01*
X177848805Y-66939555D01*
X177800000Y-67184916D01*
X177800000Y-67435084D01*
X177848805Y-67680445D01*
X177944541Y-67911571D01*
X178083527Y-68119578D01*
X178260422Y-68296473D01*
X178468429Y-68435459D01*
X178482288Y-68441200D01*
X178422641Y-68462184D01*
X178275727Y-68540711D01*
X178193374Y-68793769D01*
X179070000Y-69670395D01*
X179946626Y-68793769D01*
X179864273Y-68540711D01*
X179657192Y-68441415D01*
X179671571Y-68435459D01*
X179879578Y-68296473D01*
X180056473Y-68119578D01*
X180195459Y-67911571D01*
X180202654Y-67894200D01*
X180477346Y-67894200D01*
X180484541Y-67911571D01*
X180623527Y-68119578D01*
X180800422Y-68296473D01*
X181008429Y-68435459D01*
X181022288Y-68441200D01*
X180962641Y-68462184D01*
X180815727Y-68540711D01*
X180733374Y-68793769D01*
X181610000Y-69670395D01*
X182486626Y-68793769D01*
X182404273Y-68540711D01*
X182197192Y-68441415D01*
X182211571Y-68435459D01*
X182419578Y-68296473D01*
X182596473Y-68119578D01*
X182735459Y-67911571D01*
X182763696Y-67843400D01*
X203316304Y-67843400D01*
X203344541Y-67911571D01*
X203483527Y-68119578D01*
X203660422Y-68296473D01*
X203868429Y-68435459D01*
X203882288Y-68441200D01*
X203822641Y-68462184D01*
X203675727Y-68540711D01*
X203593374Y-68793769D01*
X204470000Y-69670395D01*
X205346626Y-68793769D01*
X205264273Y-68540711D01*
X205057192Y-68441415D01*
X205071571Y-68435459D01*
X205279578Y-68296473D01*
X205456473Y-68119578D01*
X205595459Y-67911571D01*
X205623696Y-67843400D01*
X205856304Y-67843400D01*
X205884541Y-67911571D01*
X206023527Y-68119578D01*
X206200422Y-68296473D01*
X206408429Y-68435459D01*
X206422288Y-68441200D01*
X206362641Y-68462184D01*
X206215727Y-68540711D01*
X206133374Y-68793769D01*
X207010000Y-69670395D01*
X207886626Y-68793769D01*
X207804273Y-68540711D01*
X207597192Y-68441415D01*
X207611571Y-68435459D01*
X207819578Y-68296473D01*
X207996473Y-68119578D01*
X208135459Y-67911571D01*
X208231195Y-67680445D01*
X208280000Y-67435084D01*
X208280000Y-67184916D01*
X208231195Y-66939555D01*
X208135459Y-66708429D01*
X207996473Y-66500422D01*
X207819578Y-66323527D01*
X207611571Y-66184541D01*
X207380445Y-66088805D01*
X207135084Y-66040000D01*
X207380445Y-65991195D01*
X207611571Y-65895459D01*
X207819578Y-65756473D01*
X207996473Y-65579578D01*
X208135459Y-65371571D01*
X208231195Y-65140445D01*
X208280000Y-64895084D01*
X208280000Y-64644916D01*
X208231195Y-64399555D01*
X208135459Y-64168429D01*
X207996473Y-63960422D01*
X207819578Y-63783527D01*
X207611571Y-63644541D01*
X207380445Y-63548805D01*
X207135084Y-63500000D01*
X207380445Y-63451195D01*
X207611571Y-63355459D01*
X207819578Y-63216473D01*
X207996473Y-63039578D01*
X208135459Y-62831571D01*
X208231195Y-62600445D01*
X208280000Y-62355084D01*
X208280000Y-62104916D01*
X208231195Y-61859555D01*
X208135459Y-61628429D01*
X207996473Y-61420422D01*
X207819578Y-61243527D01*
X207611571Y-61104541D01*
X207380445Y-61008805D01*
X207135084Y-60960000D01*
X206884916Y-60960000D01*
X206639555Y-61008805D01*
X206408429Y-61104541D01*
X206200422Y-61243527D01*
X206023527Y-61420422D01*
X205884541Y-61628429D01*
X205856304Y-61696600D01*
X205623696Y-61696600D01*
X205595459Y-61628429D01*
X205456473Y-61420422D01*
X205279578Y-61243527D01*
X205071571Y-61104541D01*
X204840445Y-61008805D01*
X204595084Y-60960000D01*
X204344916Y-60960000D01*
X204099555Y-61008805D01*
X203868429Y-61104541D01*
X203660422Y-61243527D01*
X203483527Y-61420422D01*
X203344541Y-61628429D01*
X203316304Y-61696600D01*
X182763696Y-61696600D01*
X182735459Y-61628429D01*
X182596473Y-61420422D01*
X182419578Y-61243527D01*
X182211571Y-61104541D01*
X181980445Y-61008805D01*
X181735084Y-60960000D01*
X181484916Y-60960000D01*
X181239555Y-61008805D01*
X181008429Y-61104541D01*
X180800422Y-61243527D01*
X180623527Y-61420422D01*
X180484541Y-61628429D01*
X180477346Y-61645800D01*
X180202654Y-61645800D01*
X180195459Y-61628429D01*
X180056473Y-61420422D01*
X179879578Y-61243527D01*
X179671571Y-61104541D01*
X179440445Y-61008805D01*
X179195084Y-60960000D01*
X178944916Y-60960000D01*
X178699555Y-61008805D01*
X178468429Y-61104541D01*
X178260422Y-61243527D01*
X178083527Y-61420422D01*
X177944541Y-61628429D01*
X177848805Y-61859555D01*
X177800000Y-62104916D01*
X173990000Y-62104916D01*
X173941195Y-61859555D01*
X173845459Y-61628429D01*
X173706473Y-61420422D01*
X173529578Y-61243527D01*
X173321571Y-61104541D01*
X173090445Y-61008805D01*
X172845084Y-60960000D01*
X173090445Y-60911195D01*
X173321571Y-60815459D01*
X173529578Y-60676473D01*
X173706473Y-60499578D01*
X173845459Y-60291571D01*
X173941195Y-60060445D01*
X173990000Y-59815084D01*
X173990000Y-59564916D01*
X173941195Y-59319555D01*
X173845459Y-59088429D01*
X173706473Y-58880422D01*
X173529578Y-58703527D01*
X173435494Y-58640662D01*
X173502042Y-58613097D01*
X173772451Y-58432415D01*
X174002415Y-58202451D01*
X174007494Y-58194849D01*
X178054000Y-58194849D01*
X178054000Y-58645151D01*
X178141850Y-59086802D01*
X178314173Y-59502827D01*
X178564348Y-59877240D01*
X178882760Y-60195652D01*
X179257173Y-60445827D01*
X179673198Y-60618150D01*
X180114849Y-60706000D01*
X180565151Y-60706000D01*
X181006802Y-60618150D01*
X181422827Y-60445827D01*
X181797240Y-60195652D01*
X182115652Y-59877240D01*
X182365827Y-59502827D01*
X182538150Y-59086802D01*
X182626000Y-58645151D01*
X182626000Y-58194849D01*
X195834000Y-58194849D01*
X195834000Y-58645151D01*
X195921850Y-59086802D01*
X196094173Y-59502827D01*
X196344348Y-59877240D01*
X196662760Y-60195652D01*
X197037173Y-60445827D01*
X197453198Y-60618150D01*
X197894849Y-60706000D01*
X198345151Y-60706000D01*
X198786802Y-60618150D01*
X199202827Y-60445827D01*
X199577240Y-60195652D01*
X199895652Y-59877240D01*
X200145827Y-59502827D01*
X200318150Y-59086802D01*
X200406000Y-58645151D01*
X200406000Y-58194849D01*
X203454000Y-58194849D01*
X203454000Y-58645151D01*
X203541850Y-59086802D01*
X203714173Y-59502827D01*
X203964348Y-59877240D01*
X204282760Y-60195652D01*
X204657173Y-60445827D01*
X205073198Y-60618150D01*
X205514849Y-60706000D01*
X205965151Y-60706000D01*
X206406802Y-60618150D01*
X206822827Y-60445827D01*
X207197240Y-60195652D01*
X207515652Y-59877240D01*
X207765827Y-59502827D01*
X207938150Y-59086802D01*
X208026000Y-58645151D01*
X208026000Y-58194849D01*
X221234000Y-58194849D01*
X221234000Y-58645151D01*
X221321850Y-59086802D01*
X221494173Y-59502827D01*
X221744348Y-59877240D01*
X222062760Y-60195652D01*
X222437173Y-60445827D01*
X222853198Y-60618150D01*
X223294849Y-60706000D01*
X223745151Y-60706000D01*
X224186802Y-60618150D01*
X224602827Y-60445827D01*
X224977240Y-60195652D01*
X225295652Y-59877240D01*
X225545827Y-59502827D01*
X225718150Y-59086802D01*
X225806000Y-58645151D01*
X225806000Y-58194849D01*
X225718150Y-57753198D01*
X225545827Y-57337173D01*
X225295652Y-56962760D01*
X224977240Y-56644348D01*
X224602827Y-56394173D01*
X224186802Y-56221850D01*
X223745151Y-56134000D01*
X223294849Y-56134000D01*
X222853198Y-56221850D01*
X222437173Y-56394173D01*
X222062760Y-56644348D01*
X221744348Y-56962760D01*
X221494173Y-57337173D01*
X221321850Y-57753198D01*
X221234000Y-58194849D01*
X208026000Y-58194849D01*
X207938150Y-57753198D01*
X207765827Y-57337173D01*
X207515652Y-56962760D01*
X207197240Y-56644348D01*
X206822827Y-56394173D01*
X206406802Y-56221850D01*
X205965151Y-56134000D01*
X205514849Y-56134000D01*
X205073198Y-56221850D01*
X204657173Y-56394173D01*
X204282760Y-56644348D01*
X203964348Y-56962760D01*
X203714173Y-57337173D01*
X203541850Y-57753198D01*
X203454000Y-58194849D01*
X200406000Y-58194849D01*
X200318150Y-57753198D01*
X200145827Y-57337173D01*
X199895652Y-56962760D01*
X199577240Y-56644348D01*
X199202827Y-56394173D01*
X198786802Y-56221850D01*
X198345151Y-56134000D01*
X197894849Y-56134000D01*
X197453198Y-56221850D01*
X197037173Y-56394173D01*
X196662760Y-56644348D01*
X196344348Y-56962760D01*
X196094173Y-57337173D01*
X195921850Y-57753198D01*
X195834000Y-58194849D01*
X182626000Y-58194849D01*
X182538150Y-57753198D01*
X182365827Y-57337173D01*
X182115652Y-56962760D01*
X181797240Y-56644348D01*
X181422827Y-56394173D01*
X181006802Y-56221850D01*
X180565151Y-56134000D01*
X180114849Y-56134000D01*
X179673198Y-56221850D01*
X179257173Y-56394173D01*
X178882760Y-56644348D01*
X178564348Y-56962760D01*
X178314173Y-57337173D01*
X178141850Y-57753198D01*
X178054000Y-58194849D01*
X174007494Y-58194849D01*
X174183097Y-57932042D01*
X174307553Y-57631579D01*
X174371000Y-57312609D01*
X174371000Y-56987391D01*
X174307553Y-56668421D01*
X174183097Y-56367958D01*
X174002415Y-56097549D01*
X173772451Y-55867585D01*
X173502042Y-55686903D01*
X173201579Y-55562447D01*
X172882609Y-55499000D01*
X172557391Y-55499000D01*
X172238421Y-55562447D01*
X171937958Y-55686903D01*
X171667549Y-55867585D01*
X171437585Y-56097549D01*
X171256903Y-56367958D01*
X171132447Y-56668421D01*
X171069000Y-56987391D01*
X162306000Y-56987391D01*
X162306000Y-56924849D01*
X162218150Y-56483198D01*
X162045827Y-56067173D01*
X161795652Y-55692760D01*
X161477240Y-55374348D01*
X161102827Y-55124173D01*
X160686802Y-54951850D01*
X160245151Y-54864000D01*
X159794849Y-54864000D01*
X159353198Y-54951850D01*
X158937173Y-55124173D01*
X158562760Y-55374348D01*
X158244348Y-55692760D01*
X157994173Y-56067173D01*
X157821850Y-56483198D01*
X157734000Y-56924849D01*
X107086000Y-56924849D01*
X107086000Y-53359854D01*
X107152738Y-52679207D01*
X107344646Y-52043577D01*
X107656359Y-51457331D01*
X108076002Y-50942797D01*
X108587598Y-50519569D01*
X109171650Y-50203773D01*
X109805921Y-50007433D01*
X110485382Y-49936019D01*
X110490847Y-49936000D01*
X237470146Y-49936000D01*
X238150793Y-50002738D01*
G04 #@! TA.AperFunction,Conductor*
D26*
G36*
X238150793Y-50002738D02*
G01*
X238786423Y-50194646D01*
X239372669Y-50506359D01*
X239887203Y-50926002D01*
X240310431Y-51437598D01*
X240626227Y-52021650D01*
X240822567Y-52655921D01*
X240893981Y-53335382D01*
X240894000Y-53340847D01*
X240894001Y-109200136D01*
X240827262Y-109880791D01*
X240635354Y-110516423D01*
X240323641Y-111102669D01*
X239903998Y-111617203D01*
X239392406Y-112040429D01*
X238808349Y-112356227D01*
X238174079Y-112552567D01*
X237494618Y-112623981D01*
X237489152Y-112624000D01*
X110509854Y-112624000D01*
X109829209Y-112557262D01*
X109193577Y-112365354D01*
X108607331Y-112053641D01*
X108092797Y-111633998D01*
X107669571Y-111122406D01*
X107353773Y-110538349D01*
X107157433Y-109904079D01*
X107086019Y-109224618D01*
X107086000Y-109219152D01*
X107086000Y-107500000D01*
X139552157Y-107500000D01*
X139552157Y-108400000D01*
X139563356Y-108513707D01*
X139596523Y-108623044D01*
X139650384Y-108723810D01*
X139722868Y-108812132D01*
X139811190Y-108884616D01*
X139911956Y-108938477D01*
X140021293Y-108971644D01*
X140135000Y-108982843D01*
X140535000Y-108982843D01*
X140648707Y-108971644D01*
X140758044Y-108938477D01*
X140858810Y-108884616D01*
X140947132Y-108812132D01*
X141012081Y-108732991D01*
X141030079Y-108754922D01*
X141149002Y-108852519D01*
X141284679Y-108925040D01*
X141431898Y-108969699D01*
X141585000Y-108984778D01*
X141738103Y-108969699D01*
X141885322Y-108925040D01*
X142020999Y-108852519D01*
X142139922Y-108754922D01*
X142210000Y-108669531D01*
X142280079Y-108754922D01*
X142399002Y-108852519D01*
X142534679Y-108925040D01*
X142681898Y-108969699D01*
X142835000Y-108984778D01*
X142988103Y-108969699D01*
X143135322Y-108925040D01*
X143270999Y-108852519D01*
X143389922Y-108754922D01*
X143460000Y-108669531D01*
X143530079Y-108754922D01*
X143649002Y-108852519D01*
X143784679Y-108925040D01*
X143931898Y-108969699D01*
X144085000Y-108984778D01*
X144238103Y-108969699D01*
X144385322Y-108925040D01*
X144520999Y-108852519D01*
X144639922Y-108754922D01*
X144710000Y-108669531D01*
X144780079Y-108754922D01*
X144899002Y-108852519D01*
X145034679Y-108925040D01*
X145181898Y-108969699D01*
X145335000Y-108984778D01*
X145488103Y-108969699D01*
X145635322Y-108925040D01*
X145770999Y-108852519D01*
X145889922Y-108754922D01*
X145960000Y-108669531D01*
X146030079Y-108754922D01*
X146149002Y-108852519D01*
X146284679Y-108925040D01*
X146431898Y-108969699D01*
X146585000Y-108984778D01*
X146738103Y-108969699D01*
X146885322Y-108925040D01*
X147020999Y-108852519D01*
X147139922Y-108754922D01*
X147210000Y-108669531D01*
X147280079Y-108754922D01*
X147399002Y-108852519D01*
X147534679Y-108925040D01*
X147681898Y-108969699D01*
X147835000Y-108984778D01*
X147988103Y-108969699D01*
X148135322Y-108925040D01*
X148270999Y-108852519D01*
X148389922Y-108754922D01*
X148460000Y-108669531D01*
X148513800Y-108735086D01*
X148513800Y-108937315D01*
X148510975Y-108966000D01*
X148513800Y-108994684D01*
X148513800Y-108994691D01*
X148516727Y-109024408D01*
X148522254Y-109080523D01*
X148552546Y-109180381D01*
X148555659Y-109190644D01*
X148609906Y-109292133D01*
X148682910Y-109381090D01*
X148705200Y-109399383D01*
X148918614Y-109612796D01*
X148936910Y-109635090D01*
X149025866Y-109708094D01*
X149127355Y-109762341D01*
X149237477Y-109795746D01*
X149323308Y-109804200D01*
X149323317Y-109804200D01*
X149351999Y-109807025D01*
X149380681Y-109804200D01*
X224761316Y-109804200D01*
X224790000Y-109807025D01*
X224818684Y-109804200D01*
X224818692Y-109804200D01*
X224904523Y-109795746D01*
X225014645Y-109762341D01*
X225116134Y-109708094D01*
X225205090Y-109635090D01*
X225223382Y-109612801D01*
X227722801Y-107113382D01*
X227745090Y-107095090D01*
X227818094Y-107006134D01*
X227872341Y-106904645D01*
X227905746Y-106794523D01*
X227914200Y-106708692D01*
X227914200Y-106708683D01*
X227917025Y-106680001D01*
X227914200Y-106651319D01*
X227914200Y-101370000D01*
X228701928Y-101370000D01*
X228714188Y-101494482D01*
X228750498Y-101614180D01*
X228809463Y-101724494D01*
X228888815Y-101821185D01*
X228985506Y-101900537D01*
X229095820Y-101959502D01*
X229215518Y-101995812D01*
X229340000Y-102008072D01*
X230854250Y-102005000D01*
X231013000Y-101846250D01*
X231013000Y-100457000D01*
X231267000Y-100457000D01*
X231267000Y-101846250D01*
X231425750Y-102005000D01*
X232940000Y-102008072D01*
X233064482Y-101995812D01*
X233184180Y-101959502D01*
X233294494Y-101900537D01*
X233391185Y-101821185D01*
X233470537Y-101724494D01*
X233529502Y-101614180D01*
X233565812Y-101494482D01*
X233578072Y-101370000D01*
X233575000Y-100615750D01*
X233416250Y-100457000D01*
X231267000Y-100457000D01*
X231013000Y-100457000D01*
X228863750Y-100457000D01*
X228705000Y-100615750D01*
X228701928Y-101370000D01*
X227914200Y-101370000D01*
X227914200Y-99290000D01*
X228701928Y-99290000D01*
X228705000Y-100044250D01*
X228863750Y-100203000D01*
X231013000Y-100203000D01*
X231013000Y-98813750D01*
X231267000Y-98813750D01*
X231267000Y-100203000D01*
X233416250Y-100203000D01*
X233575000Y-100044250D01*
X233578072Y-99290000D01*
X233565812Y-99165518D01*
X233529502Y-99045820D01*
X233470537Y-98935506D01*
X233391185Y-98838815D01*
X233294494Y-98759463D01*
X233184180Y-98700498D01*
X233064482Y-98664188D01*
X232940000Y-98651928D01*
X231425750Y-98655000D01*
X231267000Y-98813750D01*
X231013000Y-98813750D01*
X230854250Y-98655000D01*
X229340000Y-98651928D01*
X229215518Y-98664188D01*
X229095820Y-98700498D01*
X228985506Y-98759463D01*
X228888815Y-98838815D01*
X228809463Y-98935506D01*
X228750498Y-99045820D01*
X228714188Y-99165518D01*
X228701928Y-99290000D01*
X227914200Y-99290000D01*
X227914200Y-95250000D01*
X228952125Y-95250000D01*
X228979561Y-95528565D01*
X229060816Y-95796424D01*
X229192765Y-96043285D01*
X229370340Y-96259660D01*
X229586715Y-96437235D01*
X229833576Y-96569184D01*
X230101435Y-96650439D01*
X230310196Y-96671000D01*
X231969804Y-96671000D01*
X232178565Y-96650439D01*
X232446424Y-96569184D01*
X232693285Y-96437235D01*
X232909660Y-96259660D01*
X233087235Y-96043285D01*
X233219184Y-95796424D01*
X233300439Y-95528565D01*
X233306497Y-95467053D01*
X235479434Y-93294118D01*
X235509469Y-93269469D01*
X235537199Y-93235681D01*
X235607865Y-93149573D01*
X235607866Y-93149572D01*
X235680982Y-93012783D01*
X235726006Y-92864357D01*
X235737400Y-92748673D01*
X235737400Y-92748664D01*
X235741208Y-92710001D01*
X235737400Y-92671338D01*
X235737400Y-84821292D01*
X235759578Y-84806473D01*
X235936473Y-84629578D01*
X236075459Y-84421571D01*
X236171195Y-84190445D01*
X236220000Y-83945084D01*
X236268805Y-84190445D01*
X236364541Y-84421571D01*
X236503527Y-84629578D01*
X236680422Y-84806473D01*
X236888429Y-84945459D01*
X237119555Y-85041195D01*
X237364916Y-85090000D01*
X237615084Y-85090000D01*
X237860445Y-85041195D01*
X238091571Y-84945459D01*
X238299578Y-84806473D01*
X238476473Y-84629578D01*
X238615459Y-84421571D01*
X238711195Y-84190445D01*
X238760000Y-83945084D01*
X238760000Y-83694916D01*
X238711195Y-83449555D01*
X238615459Y-83218429D01*
X238476473Y-83010422D01*
X238299578Y-82833527D01*
X238091571Y-82694541D01*
X237860445Y-82598805D01*
X237615084Y-82550000D01*
X237364916Y-82550000D01*
X237119555Y-82598805D01*
X236888429Y-82694541D01*
X236680422Y-82833527D01*
X236503527Y-83010422D01*
X236364541Y-83218429D01*
X236268805Y-83449555D01*
X236220000Y-83694916D01*
X236171195Y-83449555D01*
X236075459Y-83218429D01*
X235936473Y-83010422D01*
X235759578Y-82833527D01*
X235737400Y-82818708D01*
X235737400Y-75931292D01*
X235759578Y-75916473D01*
X235936473Y-75739578D01*
X236075459Y-75531571D01*
X236171195Y-75300445D01*
X236220000Y-75055084D01*
X236268805Y-75300445D01*
X236364541Y-75531571D01*
X236503527Y-75739578D01*
X236680422Y-75916473D01*
X236888429Y-76055459D01*
X237119555Y-76151195D01*
X237364916Y-76200000D01*
X237615084Y-76200000D01*
X237860445Y-76151195D01*
X238091571Y-76055459D01*
X238299578Y-75916473D01*
X238476473Y-75739578D01*
X238615459Y-75531571D01*
X238711195Y-75300445D01*
X238760000Y-75055084D01*
X238760000Y-74804916D01*
X238711195Y-74559555D01*
X238615459Y-74328429D01*
X238476473Y-74120422D01*
X238299578Y-73943527D01*
X238091571Y-73804541D01*
X237860445Y-73708805D01*
X237615084Y-73660000D01*
X237364916Y-73660000D01*
X237119555Y-73708805D01*
X236888429Y-73804541D01*
X236680422Y-73943527D01*
X236503527Y-74120422D01*
X236364541Y-74328429D01*
X236268805Y-74559555D01*
X236220000Y-74804916D01*
X236171195Y-74559555D01*
X236075459Y-74328429D01*
X235936473Y-74120422D01*
X235759578Y-73943527D01*
X235635800Y-73860821D01*
X235635800Y-73693678D01*
X235639117Y-73659999D01*
X235635800Y-73626320D01*
X235635800Y-73626311D01*
X235625877Y-73525560D01*
X235586662Y-73396286D01*
X235522981Y-73277147D01*
X235512443Y-73264307D01*
X235458755Y-73198887D01*
X235458749Y-73198881D01*
X235437279Y-73172720D01*
X235411119Y-73151251D01*
X234365800Y-72105933D01*
X234365800Y-70177139D01*
X234432843Y-70132342D01*
X234597342Y-69967843D01*
X234726588Y-69774413D01*
X234815614Y-69559485D01*
X234861000Y-69331318D01*
X234861000Y-69098682D01*
X234815614Y-68870515D01*
X234726588Y-68655587D01*
X234597342Y-68462157D01*
X234432843Y-68297658D01*
X234239413Y-68168412D01*
X234024485Y-68079386D01*
X233796318Y-68034000D01*
X233563682Y-68034000D01*
X233335515Y-68079386D01*
X233120587Y-68168412D01*
X232927157Y-68297658D01*
X232762658Y-68462157D01*
X232633412Y-68655587D01*
X232544386Y-68870515D01*
X232499000Y-69098682D01*
X232499000Y-69331318D01*
X232544386Y-69559485D01*
X232633412Y-69774413D01*
X232762658Y-69967843D01*
X232927157Y-70132342D01*
X232994201Y-70177139D01*
X232994201Y-70451302D01*
X232994200Y-70451312D01*
X232994201Y-72356312D01*
X232990883Y-72390000D01*
X233004124Y-72524440D01*
X233043339Y-72653714D01*
X233107020Y-72772853D01*
X233117558Y-72785693D01*
X233192721Y-72877280D01*
X233218886Y-72898753D01*
X234214297Y-73894165D01*
X234140422Y-73943527D01*
X233963527Y-74120422D01*
X233936461Y-74160929D01*
X233937072Y-74041000D01*
X233924812Y-73916518D01*
X233888502Y-73796820D01*
X233829537Y-73686506D01*
X233750185Y-73589815D01*
X233653494Y-73510463D01*
X233543180Y-73451498D01*
X233423482Y-73415188D01*
X233299000Y-73402928D01*
X232695750Y-73406000D01*
X232537000Y-73564750D01*
X232537000Y-74803000D01*
X232557000Y-74803000D01*
X232557000Y-75057000D01*
X232537000Y-75057000D01*
X232537000Y-76295250D01*
X232695750Y-76454000D01*
X233299000Y-76457072D01*
X233423482Y-76444812D01*
X233543180Y-76408502D01*
X233653494Y-76349537D01*
X233750185Y-76270185D01*
X233829537Y-76173494D01*
X233888502Y-76063180D01*
X233924812Y-75943482D01*
X233937072Y-75819000D01*
X233936461Y-75699071D01*
X233963527Y-75739578D01*
X234140422Y-75916473D01*
X234162601Y-75931292D01*
X234162600Y-82818708D01*
X234140422Y-82833527D01*
X233963527Y-83010422D01*
X233936461Y-83050929D01*
X233937072Y-82931000D01*
X233924812Y-82806518D01*
X233888502Y-82686820D01*
X233829537Y-82576506D01*
X233750185Y-82479815D01*
X233653494Y-82400463D01*
X233543180Y-82341498D01*
X233423482Y-82305188D01*
X233299000Y-82292928D01*
X232695750Y-82296000D01*
X232537000Y-82454750D01*
X232537000Y-83693000D01*
X232557000Y-83693000D01*
X232557000Y-83947000D01*
X232537000Y-83947000D01*
X232537000Y-85185250D01*
X232695750Y-85344000D01*
X233299000Y-85347072D01*
X233423482Y-85334812D01*
X233543180Y-85298502D01*
X233653494Y-85239537D01*
X233750185Y-85160185D01*
X233829537Y-85063494D01*
X233888502Y-84953180D01*
X233924812Y-84833482D01*
X233937072Y-84709000D01*
X233936461Y-84589071D01*
X233963527Y-84629578D01*
X234140422Y-84806473D01*
X234162601Y-84821292D01*
X234162600Y-92383848D01*
X232556694Y-93989756D01*
X232446424Y-93930816D01*
X232178565Y-93849561D01*
X231969804Y-93829000D01*
X230310196Y-93829000D01*
X230101435Y-93849561D01*
X229833576Y-93930816D01*
X229586715Y-94062765D01*
X229370340Y-94240340D01*
X229192765Y-94456715D01*
X229060816Y-94703576D01*
X228979561Y-94971435D01*
X228952125Y-95250000D01*
X227914200Y-95250000D01*
X227914200Y-85966983D01*
X229068987Y-84812196D01*
X229268429Y-84945459D01*
X229499555Y-85041195D01*
X229744916Y-85090000D01*
X229995084Y-85090000D01*
X230240445Y-85041195D01*
X230471571Y-84945459D01*
X230679578Y-84806473D01*
X230856473Y-84629578D01*
X230883539Y-84589071D01*
X230882928Y-84709000D01*
X230895188Y-84833482D01*
X230931498Y-84953180D01*
X230990463Y-85063494D01*
X231069815Y-85160185D01*
X231166506Y-85239537D01*
X231276820Y-85298502D01*
X231396518Y-85334812D01*
X231521000Y-85347072D01*
X232124250Y-85344000D01*
X232283000Y-85185250D01*
X232283000Y-83947000D01*
X232263000Y-83947000D01*
X232263000Y-83693000D01*
X232283000Y-83693000D01*
X232283000Y-82454750D01*
X232124250Y-82296000D01*
X231521000Y-82292928D01*
X231396518Y-82305188D01*
X231276820Y-82341498D01*
X231166506Y-82400463D01*
X231069815Y-82479815D01*
X230990463Y-82576506D01*
X230931498Y-82686820D01*
X230895188Y-82806518D01*
X230882928Y-82931000D01*
X230883539Y-83050929D01*
X230856473Y-83010422D01*
X230679578Y-82833527D01*
X230471571Y-82694541D01*
X230240445Y-82598805D01*
X229995084Y-82550000D01*
X229744916Y-82550000D01*
X229499555Y-82598805D01*
X229268429Y-82694541D01*
X229060422Y-82833527D01*
X228883527Y-83010422D01*
X228744541Y-83218429D01*
X228648805Y-83449555D01*
X228616413Y-83612403D01*
X226937199Y-85291618D01*
X226914910Y-85309910D01*
X226841906Y-85398867D01*
X226804422Y-85468995D01*
X226787659Y-85500356D01*
X226754254Y-85610477D01*
X226753190Y-85621283D01*
X226745800Y-85696309D01*
X226745800Y-85696316D01*
X226742975Y-85725000D01*
X226745800Y-85753684D01*
X226745801Y-106438016D01*
X224548017Y-108635800D01*
X152539556Y-108635800D01*
X152605648Y-108445433D01*
X152633918Y-108241599D01*
X152468762Y-108077000D01*
X151712000Y-108077000D01*
X151712000Y-108097000D01*
X151458000Y-108097000D01*
X151458000Y-108077000D01*
X151438000Y-108077000D01*
X151438000Y-107823000D01*
X151458000Y-107823000D01*
X151458000Y-106833002D01*
X151712000Y-106833002D01*
X151712000Y-107823000D01*
X152468762Y-107823000D01*
X152633918Y-107658401D01*
X152605648Y-107454567D01*
X152538155Y-107260164D01*
X152434033Y-107082664D01*
X152297283Y-106928888D01*
X152133160Y-106804745D01*
X151947972Y-106715006D01*
X151871123Y-106705334D01*
X151712000Y-106833002D01*
X151458000Y-106833002D01*
X151298877Y-106705334D01*
X151222028Y-106715006D01*
X151036840Y-106804745D01*
X150872717Y-106928888D01*
X150768461Y-107046125D01*
X150635321Y-106974960D01*
X150488102Y-106930301D01*
X150335000Y-106915222D01*
X150181897Y-106930301D01*
X150034678Y-106974960D01*
X149899001Y-107047481D01*
X149780078Y-107145078D01*
X149710000Y-107230469D01*
X149639922Y-107145078D01*
X149520998Y-107047481D01*
X149385321Y-106974960D01*
X149238102Y-106930301D01*
X149085000Y-106915222D01*
X148931897Y-106930301D01*
X148784678Y-106974960D01*
X148649001Y-107047481D01*
X148530078Y-107145078D01*
X148460000Y-107230469D01*
X148389922Y-107145078D01*
X148270998Y-107047481D01*
X148135321Y-106974960D01*
X147988102Y-106930301D01*
X147835000Y-106915222D01*
X147681897Y-106930301D01*
X147534678Y-106974960D01*
X147399001Y-107047481D01*
X147280078Y-107145078D01*
X147210000Y-107230469D01*
X147139922Y-107145078D01*
X147020998Y-107047481D01*
X146885321Y-106974960D01*
X146738102Y-106930301D01*
X146585000Y-106915222D01*
X146431897Y-106930301D01*
X146284678Y-106974960D01*
X146149001Y-107047481D01*
X146030078Y-107145078D01*
X145960000Y-107230469D01*
X145889922Y-107145078D01*
X145770998Y-107047481D01*
X145635321Y-106974960D01*
X145488102Y-106930301D01*
X145335000Y-106915222D01*
X145181897Y-106930301D01*
X145034678Y-106974960D01*
X144899001Y-107047481D01*
X144780078Y-107145078D01*
X144710000Y-107230469D01*
X144639922Y-107145078D01*
X144520998Y-107047481D01*
X144385321Y-106974960D01*
X144238102Y-106930301D01*
X144085000Y-106915222D01*
X143931897Y-106930301D01*
X143784678Y-106974960D01*
X143649001Y-107047481D01*
X143530078Y-107145078D01*
X143460000Y-107230469D01*
X143389922Y-107145078D01*
X143270998Y-107047481D01*
X143135321Y-106974960D01*
X142988102Y-106930301D01*
X142835000Y-106915222D01*
X142681897Y-106930301D01*
X142534678Y-106974960D01*
X142399001Y-107047481D01*
X142280078Y-107145078D01*
X142210000Y-107230469D01*
X142139922Y-107145078D01*
X142020998Y-107047481D01*
X141885321Y-106974960D01*
X141738102Y-106930301D01*
X141585000Y-106915222D01*
X141431897Y-106930301D01*
X141284678Y-106974960D01*
X141149001Y-107047481D01*
X141030078Y-107145078D01*
X141012081Y-107167008D01*
X140947132Y-107087868D01*
X140858810Y-107015384D01*
X140758044Y-106961523D01*
X140648707Y-106928356D01*
X140535000Y-106917157D01*
X140135000Y-106917157D01*
X140021293Y-106928356D01*
X139911956Y-106961523D01*
X139811190Y-107015384D01*
X139722868Y-107087868D01*
X139650384Y-107176190D01*
X139596523Y-107276956D01*
X139563356Y-107386293D01*
X139552157Y-107500000D01*
X107086000Y-107500000D01*
X107086000Y-105184849D01*
X157734000Y-105184849D01*
X157734000Y-105635151D01*
X157821850Y-106076802D01*
X157994173Y-106492827D01*
X158244348Y-106867240D01*
X158562760Y-107185652D01*
X158937173Y-107435827D01*
X159353198Y-107608150D01*
X159794849Y-107696000D01*
X160245151Y-107696000D01*
X160686802Y-107608150D01*
X161102827Y-107435827D01*
X161477240Y-107185652D01*
X161795652Y-106867240D01*
X162045827Y-106492827D01*
X162218150Y-106076802D01*
X162306000Y-105635151D01*
X162306000Y-105184849D01*
X170434000Y-105184849D01*
X170434000Y-105635151D01*
X170521850Y-106076802D01*
X170694173Y-106492827D01*
X170944348Y-106867240D01*
X171262760Y-107185652D01*
X171637173Y-107435827D01*
X172053198Y-107608150D01*
X172494849Y-107696000D01*
X172945151Y-107696000D01*
X173386802Y-107608150D01*
X173802827Y-107435827D01*
X174177240Y-107185652D01*
X174495652Y-106867240D01*
X174745827Y-106492827D01*
X174918150Y-106076802D01*
X175006000Y-105635151D01*
X175006000Y-105184849D01*
X174918150Y-104743198D01*
X174745827Y-104327173D01*
X174512110Y-103977391D01*
X178689000Y-103977391D01*
X178689000Y-104302609D01*
X178752447Y-104621579D01*
X178876903Y-104922042D01*
X179057585Y-105192451D01*
X179287549Y-105422415D01*
X179557958Y-105603097D01*
X179858421Y-105727553D01*
X180177391Y-105791000D01*
X180502609Y-105791000D01*
X180821579Y-105727553D01*
X181122042Y-105603097D01*
X181392451Y-105422415D01*
X181622415Y-105192451D01*
X181803097Y-104922042D01*
X181927553Y-104621579D01*
X181991000Y-104302609D01*
X181991000Y-103977391D01*
X196469000Y-103977391D01*
X196469000Y-104302609D01*
X196532447Y-104621579D01*
X196656903Y-104922042D01*
X196837585Y-105192451D01*
X197067549Y-105422415D01*
X197337958Y-105603097D01*
X197638421Y-105727553D01*
X197957391Y-105791000D01*
X198282609Y-105791000D01*
X198601579Y-105727553D01*
X198902042Y-105603097D01*
X199172451Y-105422415D01*
X199402415Y-105192451D01*
X199583097Y-104922042D01*
X199707553Y-104621579D01*
X199771000Y-104302609D01*
X199771000Y-103977391D01*
X204089000Y-103977391D01*
X204089000Y-104302609D01*
X204152447Y-104621579D01*
X204276903Y-104922042D01*
X204457585Y-105192451D01*
X204687549Y-105422415D01*
X204957958Y-105603097D01*
X205258421Y-105727553D01*
X205577391Y-105791000D01*
X205902609Y-105791000D01*
X206221579Y-105727553D01*
X206522042Y-105603097D01*
X206792451Y-105422415D01*
X207022415Y-105192451D01*
X207203097Y-104922042D01*
X207327553Y-104621579D01*
X207391000Y-104302609D01*
X207391000Y-103977391D01*
X221869000Y-103977391D01*
X221869000Y-104302609D01*
X221932447Y-104621579D01*
X222056903Y-104922042D01*
X222237585Y-105192451D01*
X222467549Y-105422415D01*
X222737958Y-105603097D01*
X223038421Y-105727553D01*
X223357391Y-105791000D01*
X223682609Y-105791000D01*
X224001579Y-105727553D01*
X224302042Y-105603097D01*
X224572451Y-105422415D01*
X224802415Y-105192451D01*
X224983097Y-104922042D01*
X225107553Y-104621579D01*
X225171000Y-104302609D01*
X225171000Y-103977391D01*
X225107553Y-103658421D01*
X224983097Y-103357958D01*
X224802415Y-103087549D01*
X224572451Y-102857585D01*
X224302042Y-102676903D01*
X224001579Y-102552447D01*
X223682609Y-102489000D01*
X223357391Y-102489000D01*
X223038421Y-102552447D01*
X222737958Y-102676903D01*
X222467549Y-102857585D01*
X222237585Y-103087549D01*
X222056903Y-103357958D01*
X221932447Y-103658421D01*
X221869000Y-103977391D01*
X207391000Y-103977391D01*
X207327553Y-103658421D01*
X207203097Y-103357958D01*
X207022415Y-103087549D01*
X206792451Y-102857585D01*
X206522042Y-102676903D01*
X206221579Y-102552447D01*
X205902609Y-102489000D01*
X205577391Y-102489000D01*
X205258421Y-102552447D01*
X204957958Y-102676903D01*
X204687549Y-102857585D01*
X204457585Y-103087549D01*
X204276903Y-103357958D01*
X204152447Y-103658421D01*
X204089000Y-103977391D01*
X199771000Y-103977391D01*
X199707553Y-103658421D01*
X199583097Y-103357958D01*
X199402415Y-103087549D01*
X199172451Y-102857585D01*
X198902042Y-102676903D01*
X198601579Y-102552447D01*
X198282609Y-102489000D01*
X197957391Y-102489000D01*
X197638421Y-102552447D01*
X197337958Y-102676903D01*
X197067549Y-102857585D01*
X196837585Y-103087549D01*
X196656903Y-103357958D01*
X196532447Y-103658421D01*
X196469000Y-103977391D01*
X181991000Y-103977391D01*
X181927553Y-103658421D01*
X181803097Y-103357958D01*
X181622415Y-103087549D01*
X181392451Y-102857585D01*
X181122042Y-102676903D01*
X180821579Y-102552447D01*
X180502609Y-102489000D01*
X180177391Y-102489000D01*
X179858421Y-102552447D01*
X179557958Y-102676903D01*
X179287549Y-102857585D01*
X179057585Y-103087549D01*
X178876903Y-103357958D01*
X178752447Y-103658421D01*
X178689000Y-103977391D01*
X174512110Y-103977391D01*
X174495652Y-103952760D01*
X174177240Y-103634348D01*
X173802827Y-103384173D01*
X173386802Y-103211850D01*
X172945151Y-103124000D01*
X172494849Y-103124000D01*
X172053198Y-103211850D01*
X171637173Y-103384173D01*
X171262760Y-103634348D01*
X170944348Y-103952760D01*
X170694173Y-104327173D01*
X170521850Y-104743198D01*
X170434000Y-105184849D01*
X162306000Y-105184849D01*
X162218150Y-104743198D01*
X162045827Y-104327173D01*
X161795652Y-103952760D01*
X161477240Y-103634348D01*
X161102827Y-103384173D01*
X160686802Y-103211850D01*
X160245151Y-103124000D01*
X159794849Y-103124000D01*
X159353198Y-103211850D01*
X158937173Y-103384173D01*
X158562760Y-103634348D01*
X158244348Y-103952760D01*
X157994173Y-104327173D01*
X157821850Y-104743198D01*
X157734000Y-105184849D01*
X107086000Y-105184849D01*
X107086000Y-100346247D01*
X148549005Y-100346247D01*
X148549005Y-100913753D01*
X148659720Y-101470355D01*
X148876895Y-101994663D01*
X149192185Y-102466527D01*
X149593473Y-102867815D01*
X150065337Y-103183105D01*
X150589645Y-103400280D01*
X151146247Y-103510995D01*
X151713753Y-103510995D01*
X152270355Y-103400280D01*
X152794663Y-103183105D01*
X153266527Y-102867815D01*
X153667815Y-102466527D01*
X153983105Y-101994663D01*
X154200280Y-101470355D01*
X154310995Y-100913753D01*
X154310995Y-100346247D01*
X154200280Y-99789645D01*
X153983105Y-99265337D01*
X153667815Y-98793473D01*
X153266527Y-98392185D01*
X152794663Y-98076895D01*
X152270355Y-97859720D01*
X151713753Y-97749005D01*
X151146247Y-97749005D01*
X150589645Y-97859720D01*
X150065337Y-98076895D01*
X149593473Y-98392185D01*
X149192185Y-98793473D01*
X148876895Y-99265337D01*
X148659720Y-99789645D01*
X148549005Y-100346247D01*
X107086000Y-100346247D01*
X107086000Y-91314916D01*
X158750000Y-91314916D01*
X158750000Y-91565084D01*
X158798805Y-91810445D01*
X158894541Y-92041571D01*
X159033527Y-92249578D01*
X159210422Y-92426473D01*
X159418429Y-92565459D01*
X159649555Y-92661195D01*
X159894916Y-92710000D01*
X159649555Y-92758805D01*
X159418429Y-92854541D01*
X159210422Y-92993527D01*
X159033527Y-93170422D01*
X158894541Y-93378429D01*
X158798805Y-93609555D01*
X158750000Y-93854916D01*
X158750000Y-94105084D01*
X158798805Y-94350445D01*
X158894541Y-94581571D01*
X159033527Y-94789578D01*
X159210422Y-94966473D01*
X159418429Y-95105459D01*
X159649555Y-95201195D01*
X159894916Y-95250000D01*
X159649555Y-95298805D01*
X159418429Y-95394541D01*
X159210422Y-95533527D01*
X159033527Y-95710422D01*
X158894541Y-95918429D01*
X158798805Y-96149555D01*
X158750000Y-96394916D01*
X158750000Y-96645084D01*
X158798805Y-96890445D01*
X158894541Y-97121571D01*
X159033527Y-97329578D01*
X159210422Y-97506473D01*
X159418429Y-97645459D01*
X159649555Y-97741195D01*
X159894916Y-97790000D01*
X159649555Y-97838805D01*
X159418429Y-97934541D01*
X159210422Y-98073527D01*
X159033527Y-98250422D01*
X158894541Y-98458429D01*
X158798805Y-98689555D01*
X158750000Y-98934916D01*
X158750000Y-99185084D01*
X158798805Y-99430445D01*
X158894541Y-99661571D01*
X159033527Y-99869578D01*
X159210422Y-100046473D01*
X159418429Y-100185459D01*
X159649555Y-100281195D01*
X159894916Y-100330000D01*
X160145084Y-100330000D01*
X160390445Y-100281195D01*
X160621571Y-100185459D01*
X160829578Y-100046473D01*
X161006473Y-99869578D01*
X161145459Y-99661571D01*
X161241195Y-99430445D01*
X161290000Y-99185084D01*
X161290000Y-98934916D01*
X161241195Y-98689555D01*
X161145459Y-98458429D01*
X161006473Y-98250422D01*
X160829578Y-98073527D01*
X160621571Y-97934541D01*
X160390445Y-97838805D01*
X160145084Y-97790000D01*
X160390445Y-97741195D01*
X160621571Y-97645459D01*
X160829578Y-97506473D01*
X161006473Y-97329578D01*
X161145459Y-97121571D01*
X161241195Y-96890445D01*
X161290000Y-96645084D01*
X161290000Y-96586988D01*
X171190092Y-96586988D01*
X171232557Y-96884171D01*
X171332184Y-97167359D01*
X171410711Y-97314273D01*
X171663769Y-97396626D01*
X172540395Y-96520000D01*
X172899605Y-96520000D01*
X173776231Y-97396626D01*
X174029289Y-97314273D01*
X174159086Y-97043582D01*
X174233580Y-96752770D01*
X174249908Y-96453012D01*
X174207443Y-96155829D01*
X174107816Y-95872641D01*
X174029289Y-95725727D01*
X173776231Y-95643374D01*
X172899605Y-96520000D01*
X172540395Y-96520000D01*
X171663769Y-95643374D01*
X171410711Y-95725727D01*
X171280914Y-95996418D01*
X171206420Y-96287230D01*
X171190092Y-96586988D01*
X161290000Y-96586988D01*
X161290000Y-96394916D01*
X161241195Y-96149555D01*
X161145459Y-95918429D01*
X161006473Y-95710422D01*
X160829578Y-95533527D01*
X160621571Y-95394541D01*
X160390445Y-95298805D01*
X160145084Y-95250000D01*
X160390445Y-95201195D01*
X160621571Y-95105459D01*
X160829578Y-94966473D01*
X161006473Y-94789578D01*
X161145459Y-94581571D01*
X161241195Y-94350445D01*
X161290000Y-94105084D01*
X161290000Y-93854916D01*
X161241195Y-93609555D01*
X161145459Y-93378429D01*
X161006473Y-93170422D01*
X160829578Y-92993527D01*
X160621571Y-92854541D01*
X160390445Y-92758805D01*
X160145084Y-92710000D01*
X160390445Y-92661195D01*
X160621571Y-92565459D01*
X160829578Y-92426473D01*
X161006473Y-92249578D01*
X161145459Y-92041571D01*
X161241195Y-91810445D01*
X161290000Y-91565084D01*
X161290000Y-91314916D01*
X161241195Y-91069555D01*
X161145459Y-90838429D01*
X161006473Y-90630422D01*
X160829578Y-90453527D01*
X160621571Y-90314541D01*
X160390445Y-90218805D01*
X160145084Y-90170000D01*
X159894916Y-90170000D01*
X159649555Y-90218805D01*
X159418429Y-90314541D01*
X159210422Y-90453527D01*
X159033527Y-90630422D01*
X158894541Y-90838429D01*
X158798805Y-91069555D01*
X158750000Y-91314916D01*
X107086000Y-91314916D01*
X107086000Y-88774916D01*
X171450000Y-88774916D01*
X171450000Y-89025084D01*
X171498805Y-89270445D01*
X171594541Y-89501571D01*
X171733527Y-89709578D01*
X171910422Y-89886473D01*
X172118429Y-90025459D01*
X172349555Y-90121195D01*
X172594916Y-90170000D01*
X172349555Y-90218805D01*
X172118429Y-90314541D01*
X171910422Y-90453527D01*
X171733527Y-90630422D01*
X171594541Y-90838429D01*
X171498805Y-91069555D01*
X171450000Y-91314916D01*
X171450000Y-91565084D01*
X171498805Y-91810445D01*
X171594541Y-92041571D01*
X171733527Y-92249578D01*
X171910422Y-92426473D01*
X172118429Y-92565459D01*
X172349555Y-92661195D01*
X172594916Y-92710000D01*
X172349555Y-92758805D01*
X172118429Y-92854541D01*
X171910422Y-92993527D01*
X171733527Y-93170422D01*
X171594541Y-93378429D01*
X171498805Y-93609555D01*
X171450000Y-93854916D01*
X171450000Y-94105084D01*
X171498805Y-94350445D01*
X171594541Y-94581571D01*
X171733527Y-94789578D01*
X171910422Y-94966473D01*
X172118429Y-95105459D01*
X172132288Y-95111200D01*
X172072641Y-95132184D01*
X171925727Y-95210711D01*
X171843374Y-95463769D01*
X172720000Y-96340395D01*
X173596626Y-95463769D01*
X173514273Y-95210711D01*
X173307192Y-95111415D01*
X173321571Y-95105459D01*
X173529578Y-94966473D01*
X173706473Y-94789578D01*
X173845459Y-94581571D01*
X173941195Y-94350445D01*
X173990000Y-94105084D01*
X173990000Y-93854916D01*
X173941195Y-93609555D01*
X173845459Y-93378429D01*
X173706473Y-93170422D01*
X173529578Y-92993527D01*
X173321571Y-92854541D01*
X173090445Y-92758805D01*
X172845084Y-92710000D01*
X173090445Y-92661195D01*
X173321571Y-92565459D01*
X173529578Y-92426473D01*
X173706473Y-92249578D01*
X173845459Y-92041571D01*
X173941195Y-91810445D01*
X173990000Y-91565084D01*
X173990000Y-91314916D01*
X173941195Y-91069555D01*
X173845459Y-90838429D01*
X173706473Y-90630422D01*
X173529578Y-90453527D01*
X173321571Y-90314541D01*
X173090445Y-90218805D01*
X172845084Y-90170000D01*
X173090445Y-90121195D01*
X173321571Y-90025459D01*
X173529578Y-89886473D01*
X173706473Y-89709578D01*
X173845459Y-89501571D01*
X173941195Y-89270445D01*
X173990000Y-89025084D01*
X173990000Y-88774916D01*
X173941195Y-88529555D01*
X173845459Y-88298429D01*
X173706473Y-88090422D01*
X173529578Y-87913527D01*
X173321571Y-87774541D01*
X173090445Y-87678805D01*
X172845084Y-87630000D01*
X172594916Y-87630000D01*
X172349555Y-87678805D01*
X172118429Y-87774541D01*
X171910422Y-87913527D01*
X171733527Y-88090422D01*
X171594541Y-88298429D01*
X171498805Y-88529555D01*
X171450000Y-88774916D01*
X107086000Y-88774916D01*
X107086000Y-84864849D01*
X157734000Y-84864849D01*
X157734000Y-85315151D01*
X157821850Y-85756802D01*
X157994173Y-86172827D01*
X158244348Y-86547240D01*
X158562760Y-86865652D01*
X158937173Y-87115827D01*
X159353198Y-87288150D01*
X159794849Y-87376000D01*
X160245151Y-87376000D01*
X160686802Y-87288150D01*
X161102827Y-87115827D01*
X161477240Y-86865652D01*
X161795652Y-86547240D01*
X162045827Y-86172827D01*
X162218150Y-85756802D01*
X162306000Y-85315151D01*
X162306000Y-84864849D01*
X170434000Y-84864849D01*
X170434000Y-85315151D01*
X170521850Y-85756802D01*
X170694173Y-86172827D01*
X170944348Y-86547240D01*
X171262760Y-86865652D01*
X171637173Y-87115827D01*
X172053198Y-87288150D01*
X172494849Y-87376000D01*
X172945151Y-87376000D01*
X173386802Y-87288150D01*
X173802827Y-87115827D01*
X174177240Y-86865652D01*
X174495652Y-86547240D01*
X174745827Y-86172827D01*
X174918150Y-85756802D01*
X175006000Y-85315151D01*
X175006000Y-84864849D01*
X174918150Y-84423198D01*
X174745827Y-84007173D01*
X174495652Y-83632760D01*
X174177240Y-83314348D01*
X173802827Y-83064173D01*
X173386802Y-82891850D01*
X172945151Y-82804000D01*
X172494849Y-82804000D01*
X172053198Y-82891850D01*
X171637173Y-83064173D01*
X171262760Y-83314348D01*
X170944348Y-83632760D01*
X170694173Y-84007173D01*
X170521850Y-84423198D01*
X170434000Y-84864849D01*
X162306000Y-84864849D01*
X162218150Y-84423198D01*
X162045827Y-84007173D01*
X161795652Y-83632760D01*
X161477240Y-83314348D01*
X161102827Y-83064173D01*
X160686802Y-82891850D01*
X160245151Y-82804000D01*
X159794849Y-82804000D01*
X159353198Y-82891850D01*
X158937173Y-83064173D01*
X158562760Y-83314348D01*
X158244348Y-83632760D01*
X157994173Y-84007173D01*
X157821850Y-84423198D01*
X157734000Y-84864849D01*
X107086000Y-84864849D01*
X107086000Y-77244849D01*
X157734000Y-77244849D01*
X157734000Y-77695151D01*
X157821850Y-78136802D01*
X157994173Y-78552827D01*
X158244348Y-78927240D01*
X158562760Y-79245652D01*
X158937173Y-79495827D01*
X159353198Y-79668150D01*
X159794849Y-79756000D01*
X160245151Y-79756000D01*
X160686802Y-79668150D01*
X161102827Y-79495827D01*
X161477240Y-79245652D01*
X161795652Y-78927240D01*
X162045827Y-78552827D01*
X162218150Y-78136802D01*
X162306000Y-77695151D01*
X162306000Y-77307391D01*
X171069000Y-77307391D01*
X171069000Y-77632609D01*
X171132447Y-77951579D01*
X171256903Y-78252042D01*
X171437585Y-78522451D01*
X171667549Y-78752415D01*
X171937958Y-78933097D01*
X172238421Y-79057553D01*
X172557391Y-79121000D01*
X172882609Y-79121000D01*
X173201579Y-79057553D01*
X173502042Y-78933097D01*
X173772451Y-78752415D01*
X174002415Y-78522451D01*
X174183097Y-78252042D01*
X174307553Y-77951579D01*
X174371000Y-77632609D01*
X174371000Y-77307391D01*
X174307553Y-76988421D01*
X174183097Y-76687958D01*
X174002415Y-76417549D01*
X173772451Y-76187585D01*
X173502042Y-76006903D01*
X173435494Y-75979338D01*
X173529578Y-75916473D01*
X173706473Y-75739578D01*
X173845459Y-75531571D01*
X173941195Y-75300445D01*
X173990000Y-75055084D01*
X173990000Y-74804916D01*
X173941195Y-74559555D01*
X173845459Y-74328429D01*
X173706473Y-74120422D01*
X173529578Y-73943527D01*
X173321571Y-73804541D01*
X173090445Y-73708805D01*
X172845084Y-73660000D01*
X173090445Y-73611195D01*
X173321571Y-73515459D01*
X173529578Y-73376473D01*
X173706473Y-73199578D01*
X173845459Y-72991571D01*
X173873696Y-72923400D01*
X175039059Y-72923400D01*
X175996600Y-73880942D01*
X175996601Y-78713803D01*
X175994021Y-78740000D01*
X176004319Y-78844564D01*
X176034819Y-78945110D01*
X176034820Y-78945111D01*
X176084350Y-79037775D01*
X176111674Y-79071069D01*
X176134307Y-79098648D01*
X176134308Y-79098649D01*
X176151006Y-79118995D01*
X176171350Y-79135691D01*
X177404309Y-80368651D01*
X177421005Y-80388995D01*
X177441349Y-80405691D01*
X177441351Y-80405693D01*
X177502225Y-80455651D01*
X177594889Y-80505181D01*
X177695435Y-80535681D01*
X177773805Y-80543400D01*
X177773812Y-80543400D01*
X177799999Y-80545979D01*
X177826186Y-80543400D01*
X177916304Y-80543400D01*
X177944541Y-80611571D01*
X178083527Y-80819578D01*
X178260422Y-80996473D01*
X178468429Y-81135459D01*
X178699555Y-81231195D01*
X178944916Y-81280000D01*
X178699555Y-81328805D01*
X178468429Y-81424541D01*
X178260422Y-81563527D01*
X178083527Y-81740422D01*
X177944541Y-81948429D01*
X177916304Y-82016600D01*
X177826186Y-82016600D01*
X177799999Y-82014021D01*
X177773812Y-82016600D01*
X177773805Y-82016600D01*
X177695435Y-82024319D01*
X177594889Y-82054819D01*
X177502225Y-82104349D01*
X177464987Y-82134910D01*
X177421005Y-82171005D01*
X177404309Y-82191349D01*
X176171352Y-83424307D01*
X176151006Y-83441005D01*
X176134310Y-83461349D01*
X176134307Y-83461352D01*
X176111674Y-83488931D01*
X176084350Y-83522225D01*
X176084349Y-83522227D01*
X176034819Y-83614890D01*
X176004319Y-83715436D01*
X175994021Y-83820000D01*
X175996601Y-83846197D01*
X175996600Y-97569058D01*
X175039059Y-98526600D01*
X173873696Y-98526600D01*
X173845459Y-98458429D01*
X173706473Y-98250422D01*
X173529578Y-98073527D01*
X173321571Y-97934541D01*
X173307712Y-97928800D01*
X173367359Y-97907816D01*
X173514273Y-97829289D01*
X173596626Y-97576231D01*
X172720000Y-96699605D01*
X171843374Y-97576231D01*
X171925727Y-97829289D01*
X172132808Y-97928585D01*
X172118429Y-97934541D01*
X171910422Y-98073527D01*
X171733527Y-98250422D01*
X171594541Y-98458429D01*
X171498805Y-98689555D01*
X171450000Y-98934916D01*
X171450000Y-99185084D01*
X171498805Y-99430445D01*
X171594541Y-99661571D01*
X171733527Y-99869578D01*
X171910422Y-100046473D01*
X172118429Y-100185459D01*
X172349555Y-100281195D01*
X172594916Y-100330000D01*
X172349555Y-100378805D01*
X172118429Y-100474541D01*
X171910422Y-100613527D01*
X171733527Y-100790422D01*
X171594541Y-100998429D01*
X171498805Y-101229555D01*
X171450000Y-101474916D01*
X171450000Y-101725084D01*
X171498805Y-101970445D01*
X171594541Y-102201571D01*
X171733527Y-102409578D01*
X171910422Y-102586473D01*
X172118429Y-102725459D01*
X172349555Y-102821195D01*
X172594916Y-102870000D01*
X172845084Y-102870000D01*
X173090445Y-102821195D01*
X173321571Y-102725459D01*
X173529578Y-102586473D01*
X173706473Y-102409578D01*
X173845459Y-102201571D01*
X173941195Y-101970445D01*
X173990000Y-101725084D01*
X173990000Y-101474916D01*
X173972360Y-101386231D01*
X178193374Y-101386231D01*
X178275727Y-101639289D01*
X178546418Y-101769086D01*
X178837230Y-101843580D01*
X179136988Y-101859908D01*
X179434171Y-101817443D01*
X179717359Y-101717816D01*
X179864273Y-101639289D01*
X179946626Y-101386231D01*
X180733374Y-101386231D01*
X180815727Y-101639289D01*
X181086418Y-101769086D01*
X181377230Y-101843580D01*
X181676988Y-101859908D01*
X181974171Y-101817443D01*
X182257359Y-101717816D01*
X182404273Y-101639289D01*
X182486626Y-101386231D01*
X181610000Y-100509605D01*
X180733374Y-101386231D01*
X179946626Y-101386231D01*
X179070000Y-100509605D01*
X178193374Y-101386231D01*
X173972360Y-101386231D01*
X173941195Y-101229555D01*
X173845459Y-100998429D01*
X173706473Y-100790422D01*
X173529578Y-100613527D01*
X173321571Y-100474541D01*
X173134343Y-100396988D01*
X177540092Y-100396988D01*
X177582557Y-100694171D01*
X177682184Y-100977359D01*
X177760711Y-101124273D01*
X178013769Y-101206626D01*
X178890395Y-100330000D01*
X179249605Y-100330000D01*
X180126231Y-101206626D01*
X180340000Y-101137059D01*
X180553769Y-101206626D01*
X181430395Y-100330000D01*
X181789605Y-100330000D01*
X182666231Y-101206626D01*
X182919289Y-101124273D01*
X183049086Y-100853582D01*
X183123580Y-100562770D01*
X183139908Y-100263012D01*
X183097443Y-99965829D01*
X182997816Y-99682641D01*
X182919289Y-99535727D01*
X182666231Y-99453374D01*
X181789605Y-100330000D01*
X181430395Y-100330000D01*
X180553769Y-99453374D01*
X180340000Y-99522941D01*
X180126231Y-99453374D01*
X179249605Y-100330000D01*
X178890395Y-100330000D01*
X178013769Y-99453374D01*
X177760711Y-99535727D01*
X177630914Y-99806418D01*
X177556420Y-100097230D01*
X177540092Y-100396988D01*
X173134343Y-100396988D01*
X173090445Y-100378805D01*
X172845084Y-100330000D01*
X173090445Y-100281195D01*
X173321571Y-100185459D01*
X173529578Y-100046473D01*
X173706473Y-99869578D01*
X173845459Y-99661571D01*
X173873696Y-99593400D01*
X175233813Y-99593400D01*
X175260000Y-99595979D01*
X175286187Y-99593400D01*
X175286195Y-99593400D01*
X175364565Y-99585681D01*
X175465111Y-99555181D01*
X175557775Y-99505651D01*
X175638995Y-99438995D01*
X175655695Y-99418646D01*
X176888651Y-98185691D01*
X176908995Y-98168995D01*
X176975651Y-98087775D01*
X177025181Y-97995111D01*
X177055681Y-97894565D01*
X177063400Y-97816195D01*
X177063400Y-97816188D01*
X177065979Y-97790001D01*
X177063400Y-97763814D01*
X177063400Y-84040941D01*
X177947837Y-83156504D01*
X178083527Y-83359578D01*
X178260422Y-83536473D01*
X178468429Y-83675459D01*
X178699555Y-83771195D01*
X178944916Y-83820000D01*
X178699555Y-83868805D01*
X178468429Y-83964541D01*
X178260422Y-84103527D01*
X178083527Y-84280422D01*
X177944541Y-84488429D01*
X177848805Y-84719555D01*
X177800000Y-84964916D01*
X177800000Y-85215084D01*
X177848805Y-85460445D01*
X177944541Y-85691571D01*
X178083527Y-85899578D01*
X178260422Y-86076473D01*
X178468429Y-86215459D01*
X178699555Y-86311195D01*
X178944916Y-86360000D01*
X178699555Y-86408805D01*
X178468429Y-86504541D01*
X178260422Y-86643527D01*
X178083527Y-86820422D01*
X177944541Y-87028429D01*
X177848805Y-87259555D01*
X177800000Y-87504916D01*
X177800000Y-87755084D01*
X177848805Y-88000445D01*
X177944541Y-88231571D01*
X178083527Y-88439578D01*
X178260422Y-88616473D01*
X178468429Y-88755459D01*
X178699555Y-88851195D01*
X178944916Y-88900000D01*
X178699555Y-88948805D01*
X178468429Y-89044541D01*
X178260422Y-89183527D01*
X178083527Y-89360422D01*
X177944541Y-89568429D01*
X177848805Y-89799555D01*
X177800000Y-90044916D01*
X177800000Y-90295084D01*
X177848805Y-90540445D01*
X177944541Y-90771571D01*
X178083527Y-90979578D01*
X178260422Y-91156473D01*
X178468429Y-91295459D01*
X178699555Y-91391195D01*
X178944916Y-91440000D01*
X178699555Y-91488805D01*
X178468429Y-91584541D01*
X178260422Y-91723527D01*
X178083527Y-91900422D01*
X177944541Y-92108429D01*
X177848805Y-92339555D01*
X177800000Y-92584916D01*
X177800000Y-92835084D01*
X177848805Y-93080445D01*
X177944541Y-93311571D01*
X178083527Y-93519578D01*
X178260422Y-93696473D01*
X178468429Y-93835459D01*
X178699555Y-93931195D01*
X178944916Y-93980000D01*
X178699555Y-94028805D01*
X178468429Y-94124541D01*
X178260422Y-94263527D01*
X178083527Y-94440422D01*
X177944541Y-94648429D01*
X177848805Y-94879555D01*
X177800000Y-95124916D01*
X177800000Y-95375084D01*
X177848805Y-95620445D01*
X177944541Y-95851571D01*
X178083527Y-96059578D01*
X178260422Y-96236473D01*
X178468429Y-96375459D01*
X178699555Y-96471195D01*
X178944916Y-96520000D01*
X178699555Y-96568805D01*
X178468429Y-96664541D01*
X178260422Y-96803527D01*
X178083527Y-96980422D01*
X177944541Y-97188429D01*
X177848805Y-97419555D01*
X177800000Y-97664916D01*
X177800000Y-97915084D01*
X177848805Y-98160445D01*
X177944541Y-98391571D01*
X178083527Y-98599578D01*
X178260422Y-98776473D01*
X178468429Y-98915459D01*
X178482288Y-98921200D01*
X178422641Y-98942184D01*
X178275727Y-99020711D01*
X178193374Y-99273769D01*
X179070000Y-100150395D01*
X179946626Y-99273769D01*
X179864273Y-99020711D01*
X179657192Y-98921415D01*
X179671571Y-98915459D01*
X179879578Y-98776473D01*
X180056473Y-98599578D01*
X180195459Y-98391571D01*
X180202654Y-98374200D01*
X180477346Y-98374200D01*
X180484541Y-98391571D01*
X180623527Y-98599578D01*
X180800422Y-98776473D01*
X181008429Y-98915459D01*
X181022288Y-98921200D01*
X180962641Y-98942184D01*
X180815727Y-99020711D01*
X180733374Y-99273769D01*
X181610000Y-100150395D01*
X182486626Y-99273769D01*
X182404273Y-99020711D01*
X182197192Y-98921415D01*
X182211571Y-98915459D01*
X182419578Y-98776473D01*
X182596473Y-98599578D01*
X182735459Y-98391571D01*
X182831195Y-98160445D01*
X182880000Y-97915084D01*
X182880000Y-97664916D01*
X182831195Y-97419555D01*
X182802958Y-97351384D01*
X183072343Y-97081999D01*
X188263415Y-97081999D01*
X188225058Y-97097887D01*
X188097141Y-97183358D01*
X187988358Y-97292141D01*
X187902887Y-97420058D01*
X187844013Y-97562191D01*
X187814000Y-97713078D01*
X187814000Y-97866922D01*
X187844013Y-98017809D01*
X187902887Y-98159942D01*
X187988358Y-98287859D01*
X188097141Y-98396642D01*
X188225058Y-98482113D01*
X188367191Y-98540987D01*
X188518078Y-98571000D01*
X188671922Y-98571000D01*
X188822809Y-98540987D01*
X188964942Y-98482113D01*
X189092859Y-98396642D01*
X189166101Y-98323400D01*
X195696304Y-98323400D01*
X195724541Y-98391571D01*
X195863527Y-98599578D01*
X196040422Y-98776473D01*
X196248429Y-98915459D01*
X196479555Y-99011195D01*
X196724916Y-99060000D01*
X196479555Y-99108805D01*
X196248429Y-99204541D01*
X196040422Y-99343527D01*
X195863527Y-99520422D01*
X195724541Y-99728429D01*
X195696304Y-99796600D01*
X191071101Y-99796600D01*
X190997859Y-99723358D01*
X190869942Y-99637887D01*
X190727809Y-99579013D01*
X190576922Y-99549000D01*
X190423078Y-99549000D01*
X190272191Y-99579013D01*
X190130058Y-99637887D01*
X190002141Y-99723358D01*
X189893358Y-99832141D01*
X189807887Y-99960058D01*
X189749013Y-100102191D01*
X189719000Y-100253078D01*
X189719000Y-100406922D01*
X189749013Y-100557809D01*
X189807887Y-100699942D01*
X189893358Y-100827859D01*
X190002141Y-100936642D01*
X190130058Y-101022113D01*
X190272191Y-101080987D01*
X190423078Y-101111000D01*
X190576922Y-101111000D01*
X190727809Y-101080987D01*
X190869942Y-101022113D01*
X190997859Y-100936642D01*
X191071101Y-100863400D01*
X195696304Y-100863400D01*
X195724541Y-100931571D01*
X195863527Y-101139578D01*
X196040422Y-101316473D01*
X196248429Y-101455459D01*
X196479555Y-101551195D01*
X196724916Y-101600000D01*
X196975084Y-101600000D01*
X197220445Y-101551195D01*
X197451571Y-101455459D01*
X197659578Y-101316473D01*
X197836473Y-101139578D01*
X197975459Y-100931571D01*
X198071195Y-100700445D01*
X198120000Y-100455084D01*
X198168805Y-100700445D01*
X198264541Y-100931571D01*
X198403527Y-101139578D01*
X198580422Y-101316473D01*
X198788429Y-101455459D01*
X199019555Y-101551195D01*
X199264916Y-101600000D01*
X199515084Y-101600000D01*
X199760445Y-101551195D01*
X199991571Y-101455459D01*
X200095177Y-101386231D01*
X203593374Y-101386231D01*
X203675727Y-101639289D01*
X203946418Y-101769086D01*
X204237230Y-101843580D01*
X204536988Y-101859908D01*
X204834171Y-101817443D01*
X205117359Y-101717816D01*
X205264273Y-101639289D01*
X205346626Y-101386231D01*
X206133374Y-101386231D01*
X206215727Y-101639289D01*
X206486418Y-101769086D01*
X206777230Y-101843580D01*
X207076988Y-101859908D01*
X207374171Y-101817443D01*
X207657359Y-101717816D01*
X207804273Y-101639289D01*
X207886626Y-101386231D01*
X207010000Y-100509605D01*
X206133374Y-101386231D01*
X205346626Y-101386231D01*
X204470000Y-100509605D01*
X203593374Y-101386231D01*
X200095177Y-101386231D01*
X200199578Y-101316473D01*
X200376473Y-101139578D01*
X200515459Y-100931571D01*
X200611195Y-100700445D01*
X200660000Y-100455084D01*
X200660000Y-100396988D01*
X202940092Y-100396988D01*
X202982557Y-100694171D01*
X203082184Y-100977359D01*
X203160711Y-101124273D01*
X203413769Y-101206626D01*
X204290395Y-100330000D01*
X204649605Y-100330000D01*
X205526231Y-101206626D01*
X205740000Y-101137059D01*
X205953769Y-101206626D01*
X206830395Y-100330000D01*
X207189605Y-100330000D01*
X208066231Y-101206626D01*
X208319289Y-101124273D01*
X208449086Y-100853582D01*
X208523580Y-100562770D01*
X208539908Y-100263012D01*
X208497443Y-99965829D01*
X208397816Y-99682641D01*
X208319289Y-99535727D01*
X208066231Y-99453374D01*
X207189605Y-100330000D01*
X206830395Y-100330000D01*
X205953769Y-99453374D01*
X205740000Y-99522941D01*
X205526231Y-99453374D01*
X204649605Y-100330000D01*
X204290395Y-100330000D01*
X203413769Y-99453374D01*
X203160711Y-99535727D01*
X203030914Y-99806418D01*
X202956420Y-100097230D01*
X202940092Y-100396988D01*
X200660000Y-100396988D01*
X200660000Y-100204916D01*
X200611195Y-99959555D01*
X200515459Y-99728429D01*
X200376473Y-99520422D01*
X200199578Y-99343527D01*
X199991571Y-99204541D01*
X199760445Y-99108805D01*
X199515084Y-99060000D01*
X199760445Y-99011195D01*
X199991571Y-98915459D01*
X200199578Y-98776473D01*
X200376473Y-98599578D01*
X200515459Y-98391571D01*
X200611195Y-98160445D01*
X200660000Y-97915084D01*
X200660000Y-97664916D01*
X200611195Y-97419555D01*
X200515459Y-97188429D01*
X200444345Y-97081999D01*
X203007658Y-97081999D01*
X203277043Y-97351384D01*
X203248805Y-97419555D01*
X203200000Y-97664916D01*
X203200000Y-97915084D01*
X203248805Y-98160445D01*
X203344541Y-98391571D01*
X203483527Y-98599578D01*
X203660422Y-98776473D01*
X203868429Y-98915459D01*
X203882288Y-98921200D01*
X203822641Y-98942184D01*
X203675727Y-99020711D01*
X203593374Y-99273769D01*
X204470000Y-100150395D01*
X205346626Y-99273769D01*
X205264273Y-99020711D01*
X205057192Y-98921415D01*
X205071571Y-98915459D01*
X205279578Y-98776473D01*
X205456473Y-98599578D01*
X205595459Y-98391571D01*
X205602654Y-98374200D01*
X205877346Y-98374200D01*
X205884541Y-98391571D01*
X206023527Y-98599578D01*
X206200422Y-98776473D01*
X206408429Y-98915459D01*
X206422288Y-98921200D01*
X206362641Y-98942184D01*
X206215727Y-99020711D01*
X206133374Y-99273769D01*
X207010000Y-100150395D01*
X207886626Y-99273769D01*
X207804273Y-99020711D01*
X207597192Y-98921415D01*
X207611571Y-98915459D01*
X207819578Y-98776473D01*
X207996473Y-98599578D01*
X208135459Y-98391571D01*
X208231195Y-98160445D01*
X208280000Y-97915084D01*
X208280000Y-97664916D01*
X208231195Y-97419555D01*
X208135459Y-97188429D01*
X207996473Y-96980422D01*
X207819578Y-96803527D01*
X207611571Y-96664541D01*
X207380445Y-96568805D01*
X207135084Y-96520000D01*
X207380445Y-96471195D01*
X207611571Y-96375459D01*
X207819578Y-96236473D01*
X207996473Y-96059578D01*
X208135459Y-95851571D01*
X208231195Y-95620445D01*
X208280000Y-95375084D01*
X208280000Y-95124916D01*
X208231195Y-94879555D01*
X208135459Y-94648429D01*
X207996473Y-94440422D01*
X207819578Y-94263527D01*
X207611571Y-94124541D01*
X207380445Y-94028805D01*
X207135084Y-93980000D01*
X207380445Y-93931195D01*
X207611571Y-93835459D01*
X207819578Y-93696473D01*
X207996473Y-93519578D01*
X208135459Y-93311571D01*
X208231195Y-93080445D01*
X208280000Y-92835084D01*
X208280000Y-92584916D01*
X208231195Y-92339555D01*
X208135459Y-92108429D01*
X207996473Y-91900422D01*
X207819578Y-91723527D01*
X207611571Y-91584541D01*
X207380445Y-91488805D01*
X207135084Y-91440000D01*
X207380445Y-91391195D01*
X207611571Y-91295459D01*
X207819578Y-91156473D01*
X207996473Y-90979578D01*
X208135459Y-90771571D01*
X208231195Y-90540445D01*
X208280000Y-90295084D01*
X208280000Y-90044916D01*
X208231195Y-89799555D01*
X208135459Y-89568429D01*
X207996473Y-89360422D01*
X207819578Y-89183527D01*
X207611571Y-89044541D01*
X207380445Y-88948805D01*
X207135084Y-88900000D01*
X207380445Y-88851195D01*
X207611571Y-88755459D01*
X207819578Y-88616473D01*
X207996473Y-88439578D01*
X208135459Y-88231571D01*
X208231195Y-88000445D01*
X208280000Y-87755084D01*
X208280000Y-87504916D01*
X208231195Y-87259555D01*
X208135459Y-87028429D01*
X207996473Y-86820422D01*
X207819578Y-86643527D01*
X207611571Y-86504541D01*
X207380445Y-86408805D01*
X207135084Y-86360000D01*
X207380445Y-86311195D01*
X207611571Y-86215459D01*
X207819578Y-86076473D01*
X207996473Y-85899578D01*
X208135459Y-85691571D01*
X208231195Y-85460445D01*
X208280000Y-85215084D01*
X208280000Y-84964916D01*
X208231195Y-84719555D01*
X208135459Y-84488429D01*
X207996473Y-84280422D01*
X207819578Y-84103527D01*
X207611571Y-83964541D01*
X207380445Y-83868805D01*
X207135084Y-83820000D01*
X207380445Y-83771195D01*
X207611571Y-83675459D01*
X207819578Y-83536473D01*
X207996473Y-83359578D01*
X208135459Y-83151571D01*
X208231195Y-82920445D01*
X208280000Y-82675084D01*
X208280000Y-82424916D01*
X208231195Y-82179555D01*
X208135459Y-81948429D01*
X207996473Y-81740422D01*
X207819578Y-81563527D01*
X207611571Y-81424541D01*
X207380445Y-81328805D01*
X207135084Y-81280000D01*
X207380445Y-81231195D01*
X207611571Y-81135459D01*
X207819578Y-80996473D01*
X207996473Y-80819578D01*
X208135459Y-80611571D01*
X208231195Y-80380445D01*
X208280000Y-80135084D01*
X208280000Y-79884916D01*
X208231195Y-79639555D01*
X208135459Y-79408429D01*
X207996473Y-79200422D01*
X207819578Y-79023527D01*
X207611571Y-78884541D01*
X207380445Y-78788805D01*
X207135084Y-78740000D01*
X207380445Y-78691195D01*
X207611571Y-78595459D01*
X207819578Y-78456473D01*
X207996473Y-78279578D01*
X208135459Y-78071571D01*
X208231195Y-77840445D01*
X208280000Y-77595084D01*
X208280000Y-77344916D01*
X208231195Y-77099555D01*
X208135459Y-76868429D01*
X207996473Y-76660422D01*
X207819578Y-76483527D01*
X207611571Y-76344541D01*
X207380445Y-76248805D01*
X207135084Y-76200000D01*
X207380445Y-76151195D01*
X207611571Y-76055459D01*
X207819578Y-75916473D01*
X207996473Y-75739578D01*
X208135459Y-75531571D01*
X208231195Y-75300445D01*
X208280000Y-75055084D01*
X208280000Y-74804916D01*
X208231195Y-74559555D01*
X208135459Y-74328429D01*
X207996473Y-74120422D01*
X207819578Y-73943527D01*
X207611571Y-73804541D01*
X207380445Y-73708805D01*
X207135084Y-73660000D01*
X207380445Y-73611195D01*
X207611571Y-73515459D01*
X207819578Y-73376473D01*
X207996473Y-73199578D01*
X208135459Y-72991571D01*
X208142654Y-72974200D01*
X215871316Y-72974200D01*
X215900000Y-72977025D01*
X215928684Y-72974200D01*
X215928692Y-72974200D01*
X216014523Y-72965746D01*
X216124645Y-72932341D01*
X216226134Y-72878094D01*
X216315090Y-72805090D01*
X216333382Y-72782801D01*
X216851267Y-72264916D01*
X220980000Y-72264916D01*
X220980000Y-72515084D01*
X221028805Y-72760445D01*
X221124541Y-72991571D01*
X221263527Y-73199578D01*
X221440422Y-73376473D01*
X221648429Y-73515459D01*
X221879555Y-73611195D01*
X222124916Y-73660000D01*
X221879555Y-73708805D01*
X221648429Y-73804541D01*
X221440422Y-73943527D01*
X221263527Y-74120422D01*
X221124541Y-74328429D01*
X221028805Y-74559555D01*
X220980000Y-74804916D01*
X220980000Y-75055084D01*
X221028805Y-75300445D01*
X221124541Y-75531571D01*
X221263527Y-75739578D01*
X221440422Y-75916473D01*
X221648429Y-76055459D01*
X221879555Y-76151195D01*
X222124916Y-76200000D01*
X221879555Y-76248805D01*
X221648429Y-76344541D01*
X221440422Y-76483527D01*
X221263527Y-76660422D01*
X221124541Y-76868429D01*
X221028805Y-77099555D01*
X220980000Y-77344916D01*
X220980000Y-77595084D01*
X221028805Y-77840445D01*
X221124541Y-78071571D01*
X221263527Y-78279578D01*
X221440422Y-78456473D01*
X221648429Y-78595459D01*
X221879555Y-78691195D01*
X222124916Y-78740000D01*
X221879555Y-78788805D01*
X221648429Y-78884541D01*
X221440422Y-79023527D01*
X221263527Y-79200422D01*
X221124541Y-79408429D01*
X221028805Y-79639555D01*
X220980000Y-79884916D01*
X220980000Y-80135084D01*
X221028805Y-80380445D01*
X221124541Y-80611571D01*
X221263527Y-80819578D01*
X221440422Y-80996473D01*
X221648429Y-81135459D01*
X221879555Y-81231195D01*
X222124916Y-81280000D01*
X221879555Y-81328805D01*
X221648429Y-81424541D01*
X221440422Y-81563527D01*
X221263527Y-81740422D01*
X221124541Y-81948429D01*
X221028805Y-82179555D01*
X220980000Y-82424916D01*
X220980000Y-82675084D01*
X221028805Y-82920445D01*
X221124541Y-83151571D01*
X221263527Y-83359578D01*
X221440422Y-83536473D01*
X221648429Y-83675459D01*
X221879555Y-83771195D01*
X222124916Y-83820000D01*
X221879555Y-83868805D01*
X221648429Y-83964541D01*
X221440422Y-84103527D01*
X221263527Y-84280422D01*
X221124541Y-84488429D01*
X221028805Y-84719555D01*
X220980000Y-84964916D01*
X220980000Y-85215084D01*
X221028805Y-85460445D01*
X221124541Y-85691571D01*
X221263527Y-85899578D01*
X221440422Y-86076473D01*
X221648429Y-86215459D01*
X221879555Y-86311195D01*
X222124916Y-86360000D01*
X221879555Y-86408805D01*
X221648429Y-86504541D01*
X221440422Y-86643527D01*
X221263527Y-86820422D01*
X221124541Y-87028429D01*
X221028805Y-87259555D01*
X220980000Y-87504916D01*
X220980000Y-87755084D01*
X221028805Y-88000445D01*
X221124541Y-88231571D01*
X221263527Y-88439578D01*
X221440422Y-88616473D01*
X221648429Y-88755459D01*
X221879555Y-88851195D01*
X222124916Y-88900000D01*
X221879555Y-88948805D01*
X221648429Y-89044541D01*
X221440422Y-89183527D01*
X221263527Y-89360422D01*
X221124541Y-89568429D01*
X221028805Y-89799555D01*
X220980000Y-90044916D01*
X220980000Y-90295084D01*
X221028805Y-90540445D01*
X221124541Y-90771571D01*
X221263527Y-90979578D01*
X221440422Y-91156473D01*
X221648429Y-91295459D01*
X221879555Y-91391195D01*
X222124916Y-91440000D01*
X221879555Y-91488805D01*
X221648429Y-91584541D01*
X221440422Y-91723527D01*
X221263527Y-91900422D01*
X221124541Y-92108429D01*
X221028805Y-92339555D01*
X220980000Y-92584916D01*
X220980000Y-92835084D01*
X221028805Y-93080445D01*
X221124541Y-93311571D01*
X221263527Y-93519578D01*
X221440422Y-93696473D01*
X221648429Y-93835459D01*
X221879555Y-93931195D01*
X222124916Y-93980000D01*
X221879555Y-94028805D01*
X221648429Y-94124541D01*
X221440422Y-94263527D01*
X221263527Y-94440422D01*
X221124541Y-94648429D01*
X221028805Y-94879555D01*
X220980000Y-95124916D01*
X220980000Y-95375084D01*
X221028805Y-95620445D01*
X221124541Y-95851571D01*
X221263527Y-96059578D01*
X221440422Y-96236473D01*
X221648429Y-96375459D01*
X221879555Y-96471195D01*
X222124916Y-96520000D01*
X221879555Y-96568805D01*
X221648429Y-96664541D01*
X221440422Y-96803527D01*
X221263527Y-96980422D01*
X221124541Y-97188429D01*
X221028805Y-97419555D01*
X220980000Y-97664916D01*
X220980000Y-97915084D01*
X221028805Y-98160445D01*
X221124541Y-98391571D01*
X221263527Y-98599578D01*
X221440422Y-98776473D01*
X221648429Y-98915459D01*
X221879555Y-99011195D01*
X222124916Y-99060000D01*
X221879555Y-99108805D01*
X221648429Y-99204541D01*
X221440422Y-99343527D01*
X221263527Y-99520422D01*
X221124541Y-99728429D01*
X221028805Y-99959555D01*
X220980000Y-100204916D01*
X220980000Y-100455084D01*
X221028805Y-100700445D01*
X221124541Y-100931571D01*
X221263527Y-101139578D01*
X221440422Y-101316473D01*
X221648429Y-101455459D01*
X221879555Y-101551195D01*
X222124916Y-101600000D01*
X222375084Y-101600000D01*
X222620445Y-101551195D01*
X222851571Y-101455459D01*
X223059578Y-101316473D01*
X223236473Y-101139578D01*
X223375459Y-100931571D01*
X223471195Y-100700445D01*
X223520000Y-100455084D01*
X223568805Y-100700445D01*
X223664541Y-100931571D01*
X223803527Y-101139578D01*
X223980422Y-101316473D01*
X224188429Y-101455459D01*
X224419555Y-101551195D01*
X224664916Y-101600000D01*
X224915084Y-101600000D01*
X225160445Y-101551195D01*
X225391571Y-101455459D01*
X225599578Y-101316473D01*
X225776473Y-101139578D01*
X225915459Y-100931571D01*
X226011195Y-100700445D01*
X226060000Y-100455084D01*
X226060000Y-100204916D01*
X226011195Y-99959555D01*
X225915459Y-99728429D01*
X225776473Y-99520422D01*
X225599578Y-99343527D01*
X225391571Y-99204541D01*
X225160445Y-99108805D01*
X224915084Y-99060000D01*
X225160445Y-99011195D01*
X225391571Y-98915459D01*
X225599578Y-98776473D01*
X225776473Y-98599578D01*
X225915459Y-98391571D01*
X226011195Y-98160445D01*
X226060000Y-97915084D01*
X226060000Y-97664916D01*
X226011195Y-97419555D01*
X225915459Y-97188429D01*
X225776473Y-96980422D01*
X225599578Y-96803527D01*
X225391571Y-96664541D01*
X225160445Y-96568805D01*
X224915084Y-96520000D01*
X225160445Y-96471195D01*
X225391571Y-96375459D01*
X225599578Y-96236473D01*
X225776473Y-96059578D01*
X225915459Y-95851571D01*
X226011195Y-95620445D01*
X226060000Y-95375084D01*
X226060000Y-95124916D01*
X226011195Y-94879555D01*
X225915459Y-94648429D01*
X225776473Y-94440422D01*
X225599578Y-94263527D01*
X225391571Y-94124541D01*
X225160445Y-94028805D01*
X224915084Y-93980000D01*
X225160445Y-93931195D01*
X225391571Y-93835459D01*
X225599578Y-93696473D01*
X225776473Y-93519578D01*
X225915459Y-93311571D01*
X226011195Y-93080445D01*
X226060000Y-92835084D01*
X226060000Y-92584916D01*
X226011195Y-92339555D01*
X225915459Y-92108429D01*
X225776473Y-91900422D01*
X225599578Y-91723527D01*
X225391571Y-91584541D01*
X225160445Y-91488805D01*
X224915084Y-91440000D01*
X225160445Y-91391195D01*
X225391571Y-91295459D01*
X225599578Y-91156473D01*
X225776473Y-90979578D01*
X225915459Y-90771571D01*
X226011195Y-90540445D01*
X226060000Y-90295084D01*
X226060000Y-90044916D01*
X226011195Y-89799555D01*
X225915459Y-89568429D01*
X225776473Y-89360422D01*
X225599578Y-89183527D01*
X225391571Y-89044541D01*
X225160445Y-88948805D01*
X224915084Y-88900000D01*
X225160445Y-88851195D01*
X225391571Y-88755459D01*
X225599578Y-88616473D01*
X225776473Y-88439578D01*
X225915459Y-88231571D01*
X226011195Y-88000445D01*
X226060000Y-87755084D01*
X226060000Y-87504916D01*
X226011195Y-87259555D01*
X225915459Y-87028429D01*
X225776473Y-86820422D01*
X225599578Y-86643527D01*
X225391571Y-86504541D01*
X225160445Y-86408805D01*
X224915084Y-86360000D01*
X225160445Y-86311195D01*
X225391571Y-86215459D01*
X225599578Y-86076473D01*
X225776473Y-85899578D01*
X225915459Y-85691571D01*
X226011195Y-85460445D01*
X226060000Y-85215084D01*
X226060000Y-84964916D01*
X226011195Y-84719555D01*
X225915459Y-84488429D01*
X225776473Y-84280422D01*
X225599578Y-84103527D01*
X225391571Y-83964541D01*
X225160445Y-83868805D01*
X224915084Y-83820000D01*
X225160445Y-83771195D01*
X225391571Y-83675459D01*
X225599578Y-83536473D01*
X225776473Y-83359578D01*
X225915459Y-83151571D01*
X226011195Y-82920445D01*
X226060000Y-82675084D01*
X226060000Y-82424916D01*
X226011195Y-82179555D01*
X225915459Y-81948429D01*
X225776473Y-81740422D01*
X225599578Y-81563527D01*
X225391571Y-81424541D01*
X225160445Y-81328805D01*
X224915084Y-81280000D01*
X225160445Y-81231195D01*
X225391571Y-81135459D01*
X225599578Y-80996473D01*
X225776473Y-80819578D01*
X225915459Y-80611571D01*
X226011195Y-80380445D01*
X226060000Y-80135084D01*
X226060000Y-79884916D01*
X226011195Y-79639555D01*
X225915459Y-79408429D01*
X225776473Y-79200422D01*
X225599578Y-79023527D01*
X225391571Y-78884541D01*
X225160445Y-78788805D01*
X224915084Y-78740000D01*
X225160445Y-78691195D01*
X225391571Y-78595459D01*
X225599578Y-78456473D01*
X225776473Y-78279578D01*
X225915459Y-78071571D01*
X226011195Y-77840445D01*
X226060000Y-77595084D01*
X226060000Y-77344916D01*
X226011195Y-77099555D01*
X225915459Y-76868429D01*
X225776473Y-76660422D01*
X225599578Y-76483527D01*
X225391571Y-76344541D01*
X225160445Y-76248805D01*
X224915084Y-76200000D01*
X225160445Y-76151195D01*
X225391571Y-76055459D01*
X225599578Y-75916473D01*
X225776473Y-75739578D01*
X225915459Y-75531571D01*
X226011195Y-75300445D01*
X226060000Y-75055084D01*
X226060000Y-74804916D01*
X228600000Y-74804916D01*
X228600000Y-75055084D01*
X228648805Y-75300445D01*
X228744541Y-75531571D01*
X228883527Y-75739578D01*
X229060422Y-75916473D01*
X229268429Y-76055459D01*
X229499555Y-76151195D01*
X229744916Y-76200000D01*
X229995084Y-76200000D01*
X230240445Y-76151195D01*
X230471571Y-76055459D01*
X230679578Y-75916473D01*
X230856473Y-75739578D01*
X230883539Y-75699071D01*
X230882928Y-75819000D01*
X230895188Y-75943482D01*
X230931498Y-76063180D01*
X230990463Y-76173494D01*
X231069815Y-76270185D01*
X231166506Y-76349537D01*
X231276820Y-76408502D01*
X231396518Y-76444812D01*
X231521000Y-76457072D01*
X232124250Y-76454000D01*
X232283000Y-76295250D01*
X232283000Y-75057000D01*
X232263000Y-75057000D01*
X232263000Y-74803000D01*
X232283000Y-74803000D01*
X232283000Y-73564750D01*
X232124250Y-73406000D01*
X231521000Y-73402928D01*
X231396518Y-73415188D01*
X231276820Y-73451498D01*
X231166506Y-73510463D01*
X231069815Y-73589815D01*
X230990463Y-73686506D01*
X230931498Y-73796820D01*
X230895188Y-73916518D01*
X230882928Y-74041000D01*
X230883539Y-74160929D01*
X230856473Y-74120422D01*
X230679578Y-73943527D01*
X230471571Y-73804541D01*
X230240445Y-73708805D01*
X229995084Y-73660000D01*
X229744916Y-73660000D01*
X229499555Y-73708805D01*
X229268429Y-73804541D01*
X229060422Y-73943527D01*
X228883527Y-74120422D01*
X228744541Y-74328429D01*
X228648805Y-74559555D01*
X228600000Y-74804916D01*
X226060000Y-74804916D01*
X226011195Y-74559555D01*
X225915459Y-74328429D01*
X225776473Y-74120422D01*
X225599578Y-73943527D01*
X225391571Y-73804541D01*
X225160445Y-73708805D01*
X224915084Y-73660000D01*
X225160445Y-73611195D01*
X225391571Y-73515459D01*
X225599578Y-73376473D01*
X225776473Y-73199578D01*
X225915459Y-72991571D01*
X226011195Y-72760445D01*
X226060000Y-72515084D01*
X226060000Y-72264916D01*
X226011195Y-72019555D01*
X225915459Y-71788429D01*
X225776473Y-71580422D01*
X225599578Y-71403527D01*
X225391571Y-71264541D01*
X225160445Y-71168805D01*
X224915084Y-71120000D01*
X224664916Y-71120000D01*
X224419555Y-71168805D01*
X224188429Y-71264541D01*
X223980422Y-71403527D01*
X223803527Y-71580422D01*
X223664541Y-71788429D01*
X223568805Y-72019555D01*
X223520000Y-72264916D01*
X223471195Y-72019555D01*
X223375459Y-71788429D01*
X223236473Y-71580422D01*
X223059578Y-71403527D01*
X222851571Y-71264541D01*
X222620445Y-71168805D01*
X222375084Y-71120000D01*
X222124916Y-71120000D01*
X221879555Y-71168805D01*
X221648429Y-71264541D01*
X221440422Y-71403527D01*
X221263527Y-71580422D01*
X221124541Y-71788429D01*
X221028805Y-72019555D01*
X220980000Y-72264916D01*
X216851267Y-72264916D01*
X219552143Y-69564040D01*
X229113091Y-69564040D01*
X229207930Y-69828881D01*
X229352615Y-70070131D01*
X229541586Y-70278519D01*
X229767580Y-70446037D01*
X230021913Y-70566246D01*
X230155961Y-70606904D01*
X230378000Y-70484915D01*
X230378000Y-69342000D01*
X230632000Y-69342000D01*
X230632000Y-70484915D01*
X230854039Y-70606904D01*
X230988087Y-70566246D01*
X231242420Y-70446037D01*
X231468414Y-70278519D01*
X231657385Y-70070131D01*
X231802070Y-69828881D01*
X231896909Y-69564040D01*
X231775624Y-69342000D01*
X230632000Y-69342000D01*
X230378000Y-69342000D01*
X229234376Y-69342000D01*
X229113091Y-69564040D01*
X219552143Y-69564040D01*
X220250223Y-68865960D01*
X229113091Y-68865960D01*
X229234376Y-69088000D01*
X230378000Y-69088000D01*
X230378000Y-67945085D01*
X230632000Y-67945085D01*
X230632000Y-69088000D01*
X231775624Y-69088000D01*
X231896909Y-68865960D01*
X231802070Y-68601119D01*
X231657385Y-68359869D01*
X231468414Y-68151481D01*
X231242420Y-67983963D01*
X230988087Y-67863754D01*
X230854039Y-67823096D01*
X230632000Y-67945085D01*
X230378000Y-67945085D01*
X230155961Y-67823096D01*
X230021913Y-67863754D01*
X229767580Y-67983963D01*
X229541586Y-68151481D01*
X229352615Y-68359869D01*
X229207930Y-68601119D01*
X229113091Y-68865960D01*
X220250223Y-68865960D01*
X222718481Y-66397702D01*
X236041903Y-66397702D01*
X236113486Y-66641671D01*
X236368996Y-66762571D01*
X236643184Y-66831300D01*
X236925512Y-66845217D01*
X237205130Y-66803787D01*
X237471292Y-66708603D01*
X237596514Y-66641671D01*
X237668097Y-66397702D01*
X236855000Y-65584605D01*
X236041903Y-66397702D01*
X222718481Y-66397702D01*
X223640671Y-65475512D01*
X235414783Y-65475512D01*
X235456213Y-65755130D01*
X235551397Y-66021292D01*
X235618329Y-66146514D01*
X235862298Y-66218097D01*
X236675395Y-65405000D01*
X237034605Y-65405000D01*
X237847702Y-66218097D01*
X238091671Y-66146514D01*
X238212571Y-65891004D01*
X238281300Y-65616816D01*
X238295217Y-65334488D01*
X238253787Y-65054870D01*
X238158603Y-64788708D01*
X238091671Y-64663486D01*
X237847702Y-64591903D01*
X237034605Y-65405000D01*
X236675395Y-65405000D01*
X235862298Y-64591903D01*
X235618329Y-64663486D01*
X235497429Y-64918996D01*
X235428700Y-65193184D01*
X235414783Y-65475512D01*
X223640671Y-65475512D01*
X229475779Y-59640405D01*
X229587658Y-59807843D01*
X229752157Y-59972342D01*
X229945587Y-60101588D01*
X230160515Y-60190614D01*
X230388682Y-60236000D01*
X230621318Y-60236000D01*
X230849485Y-60190614D01*
X231064413Y-60101588D01*
X231257843Y-59972342D01*
X231422342Y-59807843D01*
X231535026Y-59639200D01*
X232649974Y-59639200D01*
X232762658Y-59807843D01*
X232927157Y-59972342D01*
X233120587Y-60101588D01*
X233335515Y-60190614D01*
X233563682Y-60236000D01*
X233796318Y-60236000D01*
X234024485Y-60190614D01*
X234239413Y-60101588D01*
X234432843Y-59972342D01*
X234597342Y-59807843D01*
X234710026Y-59639200D01*
X235343017Y-59639200D01*
X236270800Y-60566983D01*
X236270801Y-61874974D01*
X236102157Y-61987658D01*
X235937658Y-62152157D01*
X235808412Y-62345587D01*
X235719386Y-62560515D01*
X235674000Y-62788682D01*
X235674000Y-63021318D01*
X235719386Y-63249485D01*
X235808412Y-63464413D01*
X235937658Y-63657843D01*
X236102157Y-63822342D01*
X236295587Y-63951588D01*
X236463329Y-64021069D01*
X236238708Y-64101397D01*
X236113486Y-64168329D01*
X236041903Y-64412298D01*
X236855000Y-65225395D01*
X237668097Y-64412298D01*
X237596514Y-64168329D01*
X237341004Y-64047429D01*
X237242589Y-64022760D01*
X237414413Y-63951588D01*
X237607843Y-63822342D01*
X237772342Y-63657843D01*
X237901588Y-63464413D01*
X237990614Y-63249485D01*
X238036000Y-63021318D01*
X238036000Y-62788682D01*
X237990614Y-62560515D01*
X237901588Y-62345587D01*
X237772342Y-62152157D01*
X237607843Y-61987658D01*
X237439200Y-61874974D01*
X237439200Y-60353681D01*
X237442025Y-60324999D01*
X237439200Y-60296317D01*
X237439200Y-60296308D01*
X237430746Y-60210477D01*
X237397341Y-60100355D01*
X237343094Y-59998866D01*
X237270090Y-59909910D01*
X237247802Y-59891619D01*
X236018382Y-58662199D01*
X236000090Y-58639910D01*
X235911134Y-58566906D01*
X235809645Y-58512659D01*
X235699523Y-58479254D01*
X235613692Y-58470800D01*
X235613684Y-58470800D01*
X235585000Y-58467975D01*
X235556316Y-58470800D01*
X234710026Y-58470800D01*
X234597342Y-58302157D01*
X234432843Y-58137658D01*
X234239413Y-58008412D01*
X234024485Y-57919386D01*
X233796318Y-57874000D01*
X233563682Y-57874000D01*
X233335515Y-57919386D01*
X233120587Y-58008412D01*
X232927157Y-58137658D01*
X232762658Y-58302157D01*
X232649974Y-58470800D01*
X231535026Y-58470800D01*
X231422342Y-58302157D01*
X231257843Y-58137658D01*
X231064413Y-58008412D01*
X230849485Y-57919386D01*
X230621318Y-57874000D01*
X230388682Y-57874000D01*
X230160515Y-57919386D01*
X229945587Y-58008412D01*
X229752157Y-58137658D01*
X229587658Y-58302157D01*
X229474974Y-58470800D01*
X229263692Y-58470800D01*
X229235000Y-58467974D01*
X229206308Y-58470800D01*
X229120477Y-58479254D01*
X229010355Y-58512659D01*
X228908866Y-58566906D01*
X228862187Y-58605215D01*
X228842196Y-58621620D01*
X228842194Y-58621622D01*
X228819910Y-58639910D01*
X228801622Y-58662194D01*
X215658017Y-71805800D01*
X208142654Y-71805800D01*
X208135459Y-71788429D01*
X207996473Y-71580422D01*
X207819578Y-71403527D01*
X207611571Y-71264541D01*
X207597712Y-71258800D01*
X207657359Y-71237816D01*
X207804273Y-71159289D01*
X207886626Y-70906231D01*
X207010000Y-70029605D01*
X206133374Y-70906231D01*
X206215727Y-71159289D01*
X206422808Y-71258585D01*
X206408429Y-71264541D01*
X206200422Y-71403527D01*
X206023527Y-71580422D01*
X205884541Y-71788429D01*
X205877346Y-71805800D01*
X205602654Y-71805800D01*
X205595459Y-71788429D01*
X205456473Y-71580422D01*
X205279578Y-71403527D01*
X205071571Y-71264541D01*
X205057712Y-71258800D01*
X205117359Y-71237816D01*
X205264273Y-71159289D01*
X205346626Y-70906231D01*
X204470000Y-70029605D01*
X204455858Y-70043748D01*
X204276253Y-69864143D01*
X204290395Y-69850000D01*
X204649605Y-69850000D01*
X205526231Y-70726626D01*
X205740000Y-70657059D01*
X205953769Y-70726626D01*
X206830395Y-69850000D01*
X207189605Y-69850000D01*
X208066231Y-70726626D01*
X208319289Y-70644273D01*
X208449086Y-70373582D01*
X208523580Y-70082770D01*
X208539908Y-69783012D01*
X208497443Y-69485829D01*
X208397816Y-69202641D01*
X208319289Y-69055727D01*
X208066231Y-68973374D01*
X207189605Y-69850000D01*
X206830395Y-69850000D01*
X205953769Y-68973374D01*
X205740000Y-69042941D01*
X205526231Y-68973374D01*
X204649605Y-69850000D01*
X204290395Y-69850000D01*
X203413769Y-68973374D01*
X203160711Y-69055727D01*
X203030914Y-69326418D01*
X202956420Y-69617230D01*
X202940092Y-69916988D01*
X202982557Y-70214171D01*
X203082184Y-70497359D01*
X203129884Y-70586600D01*
X182946943Y-70586600D01*
X183049086Y-70373582D01*
X183123580Y-70082770D01*
X183139908Y-69783012D01*
X183097443Y-69485829D01*
X182997816Y-69202641D01*
X182919289Y-69055727D01*
X182666231Y-68973374D01*
X181789605Y-69850000D01*
X181803748Y-69864143D01*
X181624143Y-70043748D01*
X181610000Y-70029605D01*
X180733374Y-70906231D01*
X180815727Y-71159289D01*
X181022808Y-71258585D01*
X181008429Y-71264541D01*
X180800422Y-71403527D01*
X180623527Y-71580422D01*
X180484541Y-71788429D01*
X180477346Y-71805800D01*
X180202654Y-71805800D01*
X180195459Y-71788429D01*
X180056473Y-71580422D01*
X179879578Y-71403527D01*
X179671571Y-71264541D01*
X179657712Y-71258800D01*
X179717359Y-71237816D01*
X179864273Y-71159289D01*
X179946626Y-70906231D01*
X179070000Y-70029605D01*
X178193374Y-70906231D01*
X178275727Y-71159289D01*
X178482808Y-71258585D01*
X178468429Y-71264541D01*
X178260422Y-71403527D01*
X178083527Y-71580422D01*
X177944541Y-71788429D01*
X177848805Y-72019555D01*
X177800000Y-72264916D01*
X177800000Y-72515084D01*
X177848805Y-72760445D01*
X177944541Y-72991571D01*
X178083527Y-73199578D01*
X178260422Y-73376473D01*
X178468429Y-73515459D01*
X178699555Y-73611195D01*
X178944916Y-73660000D01*
X178699555Y-73708805D01*
X178468429Y-73804541D01*
X178260422Y-73943527D01*
X178083527Y-74120422D01*
X177944541Y-74328429D01*
X177848805Y-74559555D01*
X177800000Y-74804916D01*
X177800000Y-75055084D01*
X177848805Y-75300445D01*
X177944541Y-75531571D01*
X178083527Y-75739578D01*
X178260422Y-75916473D01*
X178468429Y-76055459D01*
X178699555Y-76151195D01*
X178944916Y-76200000D01*
X178699555Y-76248805D01*
X178468429Y-76344541D01*
X178260422Y-76483527D01*
X178083527Y-76660422D01*
X177944541Y-76868429D01*
X177848805Y-77099555D01*
X177800000Y-77344916D01*
X177800000Y-77595084D01*
X177848805Y-77840445D01*
X177944541Y-78071571D01*
X178083527Y-78279578D01*
X178260422Y-78456473D01*
X178468429Y-78595459D01*
X178699555Y-78691195D01*
X178944916Y-78740000D01*
X178699555Y-78788805D01*
X178468429Y-78884541D01*
X178260422Y-79023527D01*
X178083527Y-79200422D01*
X177947837Y-79403496D01*
X177063400Y-78519059D01*
X177063400Y-73686186D01*
X177065979Y-73659999D01*
X177063400Y-73633812D01*
X177063400Y-73633805D01*
X177055681Y-73555435D01*
X177025181Y-73454889D01*
X176975651Y-73362225D01*
X176908995Y-73281005D01*
X176888649Y-73264307D01*
X175655693Y-72031352D01*
X175638995Y-72011005D01*
X175557775Y-71944349D01*
X175465111Y-71894819D01*
X175364565Y-71864319D01*
X175286195Y-71856600D01*
X175286187Y-71856600D01*
X175260000Y-71854021D01*
X175233813Y-71856600D01*
X173873696Y-71856600D01*
X173845459Y-71788429D01*
X173706473Y-71580422D01*
X173529578Y-71403527D01*
X173321571Y-71264541D01*
X173307712Y-71258800D01*
X173367359Y-71237816D01*
X173514273Y-71159289D01*
X173596626Y-70906231D01*
X172720000Y-70029605D01*
X171843374Y-70906231D01*
X171925727Y-71159289D01*
X172132808Y-71258585D01*
X172118429Y-71264541D01*
X171910422Y-71403527D01*
X171733527Y-71580422D01*
X171594541Y-71788429D01*
X171498805Y-72019555D01*
X171450000Y-72264916D01*
X171450000Y-72515084D01*
X171498805Y-72760445D01*
X171594541Y-72991571D01*
X171733527Y-73199578D01*
X171910422Y-73376473D01*
X172118429Y-73515459D01*
X172349555Y-73611195D01*
X172594916Y-73660000D01*
X172349555Y-73708805D01*
X172118429Y-73804541D01*
X171910422Y-73943527D01*
X171733527Y-74120422D01*
X171594541Y-74328429D01*
X171498805Y-74559555D01*
X171450000Y-74804916D01*
X171450000Y-75055084D01*
X171498805Y-75300445D01*
X171594541Y-75531571D01*
X171733527Y-75739578D01*
X171910422Y-75916473D01*
X172004506Y-75979338D01*
X171937958Y-76006903D01*
X171667549Y-76187585D01*
X171437585Y-76417549D01*
X171256903Y-76687958D01*
X171132447Y-76988421D01*
X171069000Y-77307391D01*
X162306000Y-77307391D01*
X162306000Y-77244849D01*
X162218150Y-76803198D01*
X162045827Y-76387173D01*
X161795652Y-76012760D01*
X161477240Y-75694348D01*
X161102827Y-75444173D01*
X160686802Y-75271850D01*
X160245151Y-75184000D01*
X159794849Y-75184000D01*
X159353198Y-75271850D01*
X158937173Y-75444173D01*
X158562760Y-75694348D01*
X158244348Y-76012760D01*
X157994173Y-76387173D01*
X157821850Y-76803198D01*
X157734000Y-77244849D01*
X107086000Y-77244849D01*
X107086000Y-69916988D01*
X171190092Y-69916988D01*
X171232557Y-70214171D01*
X171332184Y-70497359D01*
X171410711Y-70644273D01*
X171663769Y-70726626D01*
X172540395Y-69850000D01*
X172899605Y-69850000D01*
X173776231Y-70726626D01*
X174029289Y-70644273D01*
X174159086Y-70373582D01*
X174233580Y-70082770D01*
X174242610Y-69916988D01*
X177540092Y-69916988D01*
X177582557Y-70214171D01*
X177682184Y-70497359D01*
X177760711Y-70644273D01*
X178013769Y-70726626D01*
X178890395Y-69850000D01*
X179249605Y-69850000D01*
X180126231Y-70726626D01*
X180340000Y-70657059D01*
X180553769Y-70726626D01*
X181430395Y-69850000D01*
X180553769Y-68973374D01*
X180340000Y-69042941D01*
X180126231Y-68973374D01*
X179249605Y-69850000D01*
X178890395Y-69850000D01*
X178013769Y-68973374D01*
X177760711Y-69055727D01*
X177630914Y-69326418D01*
X177556420Y-69617230D01*
X177540092Y-69916988D01*
X174242610Y-69916988D01*
X174249908Y-69783012D01*
X174207443Y-69485829D01*
X174107816Y-69202641D01*
X174029289Y-69055727D01*
X173776231Y-68973374D01*
X172899605Y-69850000D01*
X172540395Y-69850000D01*
X171663769Y-68973374D01*
X171410711Y-69055727D01*
X171280914Y-69326418D01*
X171206420Y-69617230D01*
X171190092Y-69916988D01*
X107086000Y-69916988D01*
X107086000Y-61646247D01*
X148549005Y-61646247D01*
X148549005Y-62213753D01*
X148659720Y-62770355D01*
X148876895Y-63294663D01*
X149192185Y-63766527D01*
X149593473Y-64167815D01*
X150065337Y-64483105D01*
X150589645Y-64700280D01*
X151146247Y-64810995D01*
X151713753Y-64810995D01*
X152270355Y-64700280D01*
X152794663Y-64483105D01*
X153266527Y-64167815D01*
X153667815Y-63766527D01*
X153983105Y-63294663D01*
X154200280Y-62770355D01*
X154310995Y-62213753D01*
X154310995Y-61646247D01*
X154200280Y-61089645D01*
X153983105Y-60565337D01*
X153667815Y-60093473D01*
X153266527Y-59692185D01*
X152794663Y-59376895D01*
X152270355Y-59159720D01*
X151713753Y-59049005D01*
X151146247Y-59049005D01*
X150589645Y-59159720D01*
X150065337Y-59376895D01*
X149593473Y-59692185D01*
X149192185Y-60093473D01*
X148876895Y-60565337D01*
X148659720Y-61089645D01*
X148549005Y-61646247D01*
X107086000Y-61646247D01*
X107086000Y-56924849D01*
X157734000Y-56924849D01*
X157734000Y-57375151D01*
X157821850Y-57816802D01*
X157994173Y-58232827D01*
X158244348Y-58607240D01*
X158562760Y-58925652D01*
X158937173Y-59175827D01*
X159353198Y-59348150D01*
X159794849Y-59436000D01*
X160245151Y-59436000D01*
X160686802Y-59348150D01*
X161102827Y-59175827D01*
X161477240Y-58925652D01*
X161795652Y-58607240D01*
X162045827Y-58232827D01*
X162218150Y-57816802D01*
X162306000Y-57375151D01*
X162306000Y-56987391D01*
X171069000Y-56987391D01*
X171069000Y-57312609D01*
X171132447Y-57631579D01*
X171256903Y-57932042D01*
X171437585Y-58202451D01*
X171667549Y-58432415D01*
X171937958Y-58613097D01*
X172004506Y-58640662D01*
X171910422Y-58703527D01*
X171733527Y-58880422D01*
X171594541Y-59088429D01*
X171498805Y-59319555D01*
X171450000Y-59564916D01*
X171450000Y-59815084D01*
X171498805Y-60060445D01*
X171594541Y-60291571D01*
X171733527Y-60499578D01*
X171910422Y-60676473D01*
X172118429Y-60815459D01*
X172349555Y-60911195D01*
X172594916Y-60960000D01*
X172349555Y-61008805D01*
X172118429Y-61104541D01*
X171910422Y-61243527D01*
X171733527Y-61420422D01*
X171594541Y-61628429D01*
X171498805Y-61859555D01*
X171450000Y-62104916D01*
X171450000Y-62355084D01*
X171498805Y-62600445D01*
X171594541Y-62831571D01*
X171733527Y-63039578D01*
X171910422Y-63216473D01*
X172118429Y-63355459D01*
X172349555Y-63451195D01*
X172594916Y-63500000D01*
X172349555Y-63548805D01*
X172118429Y-63644541D01*
X171910422Y-63783527D01*
X171733527Y-63960422D01*
X171594541Y-64168429D01*
X171498805Y-64399555D01*
X171450000Y-64644916D01*
X171450000Y-64895084D01*
X171498805Y-65140445D01*
X171594541Y-65371571D01*
X171733527Y-65579578D01*
X171910422Y-65756473D01*
X172118429Y-65895459D01*
X172349555Y-65991195D01*
X172594916Y-66040000D01*
X172349555Y-66088805D01*
X172118429Y-66184541D01*
X171910422Y-66323527D01*
X171733527Y-66500422D01*
X171594541Y-66708429D01*
X171498805Y-66939555D01*
X171450000Y-67184916D01*
X171450000Y-67435084D01*
X171498805Y-67680445D01*
X171594541Y-67911571D01*
X171733527Y-68119578D01*
X171910422Y-68296473D01*
X172118429Y-68435459D01*
X172132288Y-68441200D01*
X172072641Y-68462184D01*
X171925727Y-68540711D01*
X171843374Y-68793769D01*
X172720000Y-69670395D01*
X173596626Y-68793769D01*
X173514273Y-68540711D01*
X173307192Y-68441415D01*
X173321571Y-68435459D01*
X173529578Y-68296473D01*
X173706473Y-68119578D01*
X173845459Y-67911571D01*
X173941195Y-67680445D01*
X173990000Y-67435084D01*
X173990000Y-67184916D01*
X173941195Y-66939555D01*
X173845459Y-66708429D01*
X173706473Y-66500422D01*
X173529578Y-66323527D01*
X173321571Y-66184541D01*
X173090445Y-66088805D01*
X172845084Y-66040000D01*
X173090445Y-65991195D01*
X173321571Y-65895459D01*
X173529578Y-65756473D01*
X173706473Y-65579578D01*
X173845459Y-65371571D01*
X173941195Y-65140445D01*
X173990000Y-64895084D01*
X173990000Y-64644916D01*
X173941195Y-64399555D01*
X173845459Y-64168429D01*
X173706473Y-63960422D01*
X173529578Y-63783527D01*
X173321571Y-63644541D01*
X173090445Y-63548805D01*
X172845084Y-63500000D01*
X173090445Y-63451195D01*
X173321571Y-63355459D01*
X173529578Y-63216473D01*
X173706473Y-63039578D01*
X173845459Y-62831571D01*
X173941195Y-62600445D01*
X173990000Y-62355084D01*
X173990000Y-62104916D01*
X177800000Y-62104916D01*
X177800000Y-62355084D01*
X177848805Y-62600445D01*
X177944541Y-62831571D01*
X178083527Y-63039578D01*
X178260422Y-63216473D01*
X178468429Y-63355459D01*
X178699555Y-63451195D01*
X178944916Y-63500000D01*
X178699555Y-63548805D01*
X178468429Y-63644541D01*
X178260422Y-63783527D01*
X178083527Y-63960422D01*
X177944541Y-64168429D01*
X177848805Y-64399555D01*
X177800000Y-64644916D01*
X177800000Y-64895084D01*
X177848805Y-65140445D01*
X177944541Y-65371571D01*
X178083527Y-65579578D01*
X178260422Y-65756473D01*
X178468429Y-65895459D01*
X178699555Y-65991195D01*
X178944916Y-66040000D01*
X178699555Y-66088805D01*
X178468429Y-66184541D01*
X178260422Y-66323527D01*
X178083527Y-66500422D01*
X177944541Y-66708429D01*
X177848805Y-66939555D01*
X177800000Y-67184916D01*
X177800000Y-67435084D01*
X177848805Y-67680445D01*
X177944541Y-67911571D01*
X178083527Y-68119578D01*
X178260422Y-68296473D01*
X178468429Y-68435459D01*
X178482288Y-68441200D01*
X178422641Y-68462184D01*
X178275727Y-68540711D01*
X178193374Y-68793769D01*
X179070000Y-69670395D01*
X179946626Y-68793769D01*
X179864273Y-68540711D01*
X179657192Y-68441415D01*
X179671571Y-68435459D01*
X179879578Y-68296473D01*
X180056473Y-68119578D01*
X180195459Y-67911571D01*
X180202654Y-67894200D01*
X180477346Y-67894200D01*
X180484541Y-67911571D01*
X180623527Y-68119578D01*
X180800422Y-68296473D01*
X181008429Y-68435459D01*
X181022288Y-68441200D01*
X180962641Y-68462184D01*
X180815727Y-68540711D01*
X180733374Y-68793769D01*
X181610000Y-69670395D01*
X182486626Y-68793769D01*
X182404273Y-68540711D01*
X182197192Y-68441415D01*
X182211571Y-68435459D01*
X182419578Y-68296473D01*
X182596473Y-68119578D01*
X182735459Y-67911571D01*
X182763696Y-67843400D01*
X203316304Y-67843400D01*
X203344541Y-67911571D01*
X203483527Y-68119578D01*
X203660422Y-68296473D01*
X203868429Y-68435459D01*
X203882288Y-68441200D01*
X203822641Y-68462184D01*
X203675727Y-68540711D01*
X203593374Y-68793769D01*
X204470000Y-69670395D01*
X205346626Y-68793769D01*
X205264273Y-68540711D01*
X205057192Y-68441415D01*
X205071571Y-68435459D01*
X205279578Y-68296473D01*
X205456473Y-68119578D01*
X205595459Y-67911571D01*
X205623696Y-67843400D01*
X205856304Y-67843400D01*
X205884541Y-67911571D01*
X206023527Y-68119578D01*
X206200422Y-68296473D01*
X206408429Y-68435459D01*
X206422288Y-68441200D01*
X206362641Y-68462184D01*
X206215727Y-68540711D01*
X206133374Y-68793769D01*
X207010000Y-69670395D01*
X207886626Y-68793769D01*
X207804273Y-68540711D01*
X207597192Y-68441415D01*
X207611571Y-68435459D01*
X207819578Y-68296473D01*
X207996473Y-68119578D01*
X208135459Y-67911571D01*
X208231195Y-67680445D01*
X208280000Y-67435084D01*
X208280000Y-67184916D01*
X208231195Y-66939555D01*
X208135459Y-66708429D01*
X207996473Y-66500422D01*
X207819578Y-66323527D01*
X207611571Y-66184541D01*
X207380445Y-66088805D01*
X207135084Y-66040000D01*
X207380445Y-65991195D01*
X207611571Y-65895459D01*
X207819578Y-65756473D01*
X207996473Y-65579578D01*
X208135459Y-65371571D01*
X208231195Y-65140445D01*
X208280000Y-64895084D01*
X208280000Y-64644916D01*
X208231195Y-64399555D01*
X208135459Y-64168429D01*
X207996473Y-63960422D01*
X207819578Y-63783527D01*
X207611571Y-63644541D01*
X207380445Y-63548805D01*
X207135084Y-63500000D01*
X207380445Y-63451195D01*
X207611571Y-63355459D01*
X207819578Y-63216473D01*
X207996473Y-63039578D01*
X208135459Y-62831571D01*
X208231195Y-62600445D01*
X208280000Y-62355084D01*
X208280000Y-62104916D01*
X208231195Y-61859555D01*
X208135459Y-61628429D01*
X207996473Y-61420422D01*
X207819578Y-61243527D01*
X207611571Y-61104541D01*
X207380445Y-61008805D01*
X207135084Y-60960000D01*
X206884916Y-60960000D01*
X206639555Y-61008805D01*
X206408429Y-61104541D01*
X206200422Y-61243527D01*
X206023527Y-61420422D01*
X205884541Y-61628429D01*
X205856304Y-61696600D01*
X205623696Y-61696600D01*
X205595459Y-61628429D01*
X205456473Y-61420422D01*
X205279578Y-61243527D01*
X205071571Y-61104541D01*
X204840445Y-61008805D01*
X204595084Y-60960000D01*
X204344916Y-60960000D01*
X204099555Y-61008805D01*
X203868429Y-61104541D01*
X203660422Y-61243527D01*
X203483527Y-61420422D01*
X203344541Y-61628429D01*
X203316304Y-61696600D01*
X182763696Y-61696600D01*
X182735459Y-61628429D01*
X182596473Y-61420422D01*
X182419578Y-61243527D01*
X182211571Y-61104541D01*
X181980445Y-61008805D01*
X181735084Y-60960000D01*
X181484916Y-60960000D01*
X181239555Y-61008805D01*
X181008429Y-61104541D01*
X180800422Y-61243527D01*
X180623527Y-61420422D01*
X180484541Y-61628429D01*
X180477346Y-61645800D01*
X180202654Y-61645800D01*
X180195459Y-61628429D01*
X180056473Y-61420422D01*
X179879578Y-61243527D01*
X179671571Y-61104541D01*
X179440445Y-61008805D01*
X179195084Y-60960000D01*
X178944916Y-60960000D01*
X178699555Y-61008805D01*
X178468429Y-61104541D01*
X178260422Y-61243527D01*
X178083527Y-61420422D01*
X177944541Y-61628429D01*
X177848805Y-61859555D01*
X177800000Y-62104916D01*
X173990000Y-62104916D01*
X173941195Y-61859555D01*
X173845459Y-61628429D01*
X173706473Y-61420422D01*
X173529578Y-61243527D01*
X173321571Y-61104541D01*
X173090445Y-61008805D01*
X172845084Y-60960000D01*
X173090445Y-60911195D01*
X173321571Y-60815459D01*
X173529578Y-60676473D01*
X173706473Y-60499578D01*
X173845459Y-60291571D01*
X173941195Y-60060445D01*
X173990000Y-59815084D01*
X173990000Y-59564916D01*
X173941195Y-59319555D01*
X173845459Y-59088429D01*
X173706473Y-58880422D01*
X173529578Y-58703527D01*
X173435494Y-58640662D01*
X173502042Y-58613097D01*
X173772451Y-58432415D01*
X174002415Y-58202451D01*
X174007494Y-58194849D01*
X178054000Y-58194849D01*
X178054000Y-58645151D01*
X178141850Y-59086802D01*
X178314173Y-59502827D01*
X178564348Y-59877240D01*
X178882760Y-60195652D01*
X179257173Y-60445827D01*
X179673198Y-60618150D01*
X180114849Y-60706000D01*
X180565151Y-60706000D01*
X181006802Y-60618150D01*
X181422827Y-60445827D01*
X181797240Y-60195652D01*
X182115652Y-59877240D01*
X182365827Y-59502827D01*
X182538150Y-59086802D01*
X182626000Y-58645151D01*
X182626000Y-58194849D01*
X195834000Y-58194849D01*
X195834000Y-58645151D01*
X195921850Y-59086802D01*
X196094173Y-59502827D01*
X196344348Y-59877240D01*
X196662760Y-60195652D01*
X197037173Y-60445827D01*
X197453198Y-60618150D01*
X197894849Y-60706000D01*
X198345151Y-60706000D01*
X198786802Y-60618150D01*
X199202827Y-60445827D01*
X199577240Y-60195652D01*
X199895652Y-59877240D01*
X200145827Y-59502827D01*
X200318150Y-59086802D01*
X200406000Y-58645151D01*
X200406000Y-58194849D01*
X203454000Y-58194849D01*
X203454000Y-58645151D01*
X203541850Y-59086802D01*
X203714173Y-59502827D01*
X203964348Y-59877240D01*
X204282760Y-60195652D01*
X204657173Y-60445827D01*
X205073198Y-60618150D01*
X205514849Y-60706000D01*
X205965151Y-60706000D01*
X206406802Y-60618150D01*
X206822827Y-60445827D01*
X207197240Y-60195652D01*
X207515652Y-59877240D01*
X207765827Y-59502827D01*
X207938150Y-59086802D01*
X208026000Y-58645151D01*
X208026000Y-58194849D01*
X221234000Y-58194849D01*
X221234000Y-58645151D01*
X221321850Y-59086802D01*
X221494173Y-59502827D01*
X221744348Y-59877240D01*
X222062760Y-60195652D01*
X222437173Y-60445827D01*
X222853198Y-60618150D01*
X223294849Y-60706000D01*
X223745151Y-60706000D01*
X224186802Y-60618150D01*
X224602827Y-60445827D01*
X224977240Y-60195652D01*
X225295652Y-59877240D01*
X225545827Y-59502827D01*
X225718150Y-59086802D01*
X225806000Y-58645151D01*
X225806000Y-58194849D01*
X225718150Y-57753198D01*
X225545827Y-57337173D01*
X225295652Y-56962760D01*
X224977240Y-56644348D01*
X224602827Y-56394173D01*
X224186802Y-56221850D01*
X223745151Y-56134000D01*
X223294849Y-56134000D01*
X222853198Y-56221850D01*
X222437173Y-56394173D01*
X222062760Y-56644348D01*
X221744348Y-56962760D01*
X221494173Y-57337173D01*
X221321850Y-57753198D01*
X221234000Y-58194849D01*
X208026000Y-58194849D01*
X207938150Y-57753198D01*
X207765827Y-57337173D01*
X207515652Y-56962760D01*
X207197240Y-56644348D01*
X206822827Y-56394173D01*
X206406802Y-56221850D01*
X205965151Y-56134000D01*
X205514849Y-56134000D01*
X205073198Y-56221850D01*
X204657173Y-56394173D01*
X204282760Y-56644348D01*
X203964348Y-56962760D01*
X203714173Y-57337173D01*
X203541850Y-57753198D01*
X203454000Y-58194849D01*
X200406000Y-58194849D01*
X200318150Y-57753198D01*
X200145827Y-57337173D01*
X199895652Y-56962760D01*
X199577240Y-56644348D01*
X199202827Y-56394173D01*
X198786802Y-56221850D01*
X198345151Y-56134000D01*
X197894849Y-56134000D01*
X197453198Y-56221850D01*
X197037173Y-56394173D01*
X196662760Y-56644348D01*
X196344348Y-56962760D01*
X196094173Y-57337173D01*
X195921850Y-57753198D01*
X195834000Y-58194849D01*
X182626000Y-58194849D01*
X182538150Y-57753198D01*
X182365827Y-57337173D01*
X182115652Y-56962760D01*
X181797240Y-56644348D01*
X181422827Y-56394173D01*
X181006802Y-56221850D01*
X180565151Y-56134000D01*
X180114849Y-56134000D01*
X179673198Y-56221850D01*
X179257173Y-56394173D01*
X178882760Y-56644348D01*
X178564348Y-56962760D01*
X178314173Y-57337173D01*
X178141850Y-57753198D01*
X178054000Y-58194849D01*
X174007494Y-58194849D01*
X174183097Y-57932042D01*
X174307553Y-57631579D01*
X174371000Y-57312609D01*
X174371000Y-56987391D01*
X174307553Y-56668421D01*
X174183097Y-56367958D01*
X174002415Y-56097549D01*
X173772451Y-55867585D01*
X173502042Y-55686903D01*
X173201579Y-55562447D01*
X172882609Y-55499000D01*
X172557391Y-55499000D01*
X172238421Y-55562447D01*
X171937958Y-55686903D01*
X171667549Y-55867585D01*
X171437585Y-56097549D01*
X171256903Y-56367958D01*
X171132447Y-56668421D01*
X171069000Y-56987391D01*
X162306000Y-56987391D01*
X162306000Y-56924849D01*
X162218150Y-56483198D01*
X162045827Y-56067173D01*
X161795652Y-55692760D01*
X161477240Y-55374348D01*
X161102827Y-55124173D01*
X160686802Y-54951850D01*
X160245151Y-54864000D01*
X159794849Y-54864000D01*
X159353198Y-54951850D01*
X158937173Y-55124173D01*
X158562760Y-55374348D01*
X158244348Y-55692760D01*
X157994173Y-56067173D01*
X157821850Y-56483198D01*
X157734000Y-56924849D01*
X107086000Y-56924849D01*
X107086000Y-53359854D01*
X107152738Y-52679207D01*
X107344646Y-52043577D01*
X107656359Y-51457331D01*
X108076002Y-50942797D01*
X108587598Y-50519569D01*
X109171650Y-50203773D01*
X109805921Y-50007433D01*
X110485382Y-49936019D01*
X110490847Y-49936000D01*
X237470146Y-49936000D01*
X238150793Y-50002738D01*
G37*
G04 #@! TD.AperFunction*
D25*
X195724541Y-87028429D02*
X195628805Y-87259555D01*
X195580000Y-87504916D01*
X195580000Y-87755084D01*
X195628805Y-88000445D01*
X195724541Y-88231571D01*
X195814765Y-88366600D01*
X182906186Y-88366600D01*
X182879999Y-88364021D01*
X182853812Y-88366600D01*
X182853805Y-88366600D01*
X182775435Y-88374319D01*
X182674889Y-88404819D01*
X182582225Y-88454349D01*
X182579308Y-88456743D01*
X182596473Y-88439578D01*
X182735459Y-88231571D01*
X182831195Y-88000445D01*
X182880000Y-87755084D01*
X182880000Y-87504916D01*
X182831195Y-87259555D01*
X182802958Y-87191384D01*
X183100942Y-86893400D01*
X195814765Y-86893400D01*
X195724541Y-87028429D01*
G04 #@! TA.AperFunction,Conductor*
D26*
G36*
X195724541Y-87028429D02*
G01*
X195628805Y-87259555D01*
X195580000Y-87504916D01*
X195580000Y-87755084D01*
X195628805Y-88000445D01*
X195724541Y-88231571D01*
X195814765Y-88366600D01*
X182906186Y-88366600D01*
X182879999Y-88364021D01*
X182853812Y-88366600D01*
X182853805Y-88366600D01*
X182775435Y-88374319D01*
X182674889Y-88404819D01*
X182582225Y-88454349D01*
X182579308Y-88456743D01*
X182596473Y-88439578D01*
X182735459Y-88231571D01*
X182831195Y-88000445D01*
X182880000Y-87755084D01*
X182880000Y-87504916D01*
X182831195Y-87259555D01*
X182802958Y-87191384D01*
X183100942Y-86893400D01*
X195814765Y-86893400D01*
X195724541Y-87028429D01*
G37*
G04 #@! TD.AperFunction*
D25*
X195724541Y-79408429D02*
X195628805Y-79639555D01*
X195580000Y-79884916D01*
X195580000Y-80135084D01*
X195628805Y-80380445D01*
X195724541Y-80611571D01*
X195814765Y-80746600D01*
X182906186Y-80746600D01*
X182879999Y-80744021D01*
X182853812Y-80746600D01*
X182853805Y-80746600D01*
X182775435Y-80754319D01*
X182674889Y-80784819D01*
X182582225Y-80834349D01*
X182579308Y-80836743D01*
X182596473Y-80819578D01*
X182735459Y-80611571D01*
X182831195Y-80380445D01*
X182880000Y-80135084D01*
X182880000Y-79884916D01*
X182831195Y-79639555D01*
X182802958Y-79571384D01*
X183100942Y-79273400D01*
X195814765Y-79273400D01*
X195724541Y-79408429D01*
G04 #@! TA.AperFunction,Conductor*
D26*
G36*
X195724541Y-79408429D02*
G01*
X195628805Y-79639555D01*
X195580000Y-79884916D01*
X195580000Y-80135084D01*
X195628805Y-80380445D01*
X195724541Y-80611571D01*
X195814765Y-80746600D01*
X182906186Y-80746600D01*
X182879999Y-80744021D01*
X182853812Y-80746600D01*
X182853805Y-80746600D01*
X182775435Y-80754319D01*
X182674889Y-80784819D01*
X182582225Y-80834349D01*
X182579308Y-80836743D01*
X182596473Y-80819578D01*
X182735459Y-80611571D01*
X182831195Y-80380445D01*
X182880000Y-80135084D01*
X182880000Y-79884916D01*
X182831195Y-79639555D01*
X182802958Y-79571384D01*
X183100942Y-79273400D01*
X195814765Y-79273400D01*
X195724541Y-79408429D01*
G37*
G04 #@! TD.AperFunction*
M02*
